<svg xmlns="http://www.w3.org/2000/svg" width="62.141" height="71.774" viewBox="0 0 62.141 71.774">
  <g id="Group_190" data-name="Group 190" transform="translate(-130 -921.226)">
    <path id="Rectangle_14" data-name="Rectangle 14" d="M0,0H40a0,0,0,0,1,0,0V40a0,0,0,0,1,0,0H10A10,10,0,0,1,0,30V0A0,0,0,0,1,0,0Z" transform="translate(130 953)" fill="#00bcd0"/>
    <g id="_006-balance_sheet" data-name="006-balance sheet" transform="translate(139 921.226)">
      <path id="Path_218" data-name="Path 218" d="M48.5,63.769H8.643A6.652,6.652,0,0,1,2,57.127V6.643A6.652,6.652,0,0,1,8.643,0H48.5a6.652,6.652,0,0,1,6.643,6.643V57.127A6.652,6.652,0,0,1,48.5,63.769ZM8.643,2.657A3.99,3.99,0,0,0,4.657,6.643V57.127a3.99,3.99,0,0,0,3.986,3.986H48.5a3.99,3.99,0,0,0,3.986-3.986V6.643A3.99,3.99,0,0,0,48.5,2.657Z" transform="translate(-2)"/>
      <path id="Path_219" data-name="Path 219" d="M38.213,16.285H8.986A3.99,3.99,0,0,1,5,12.3V6.986A3.99,3.99,0,0,1,8.986,3H38.213A3.99,3.99,0,0,1,42.2,6.986V12.3A3.99,3.99,0,0,1,38.213,16.285ZM8.986,5.657A1.329,1.329,0,0,0,7.657,6.986V12.3a1.329,1.329,0,0,0,1.329,1.329H38.213A1.329,1.329,0,0,0,39.542,12.3V6.986a1.329,1.329,0,0,0-1.329-1.329Z" transform="translate(2.971 4.971)"/>
      <path id="Path_220" data-name="Path 220" d="M8.829,20.628A1.329,1.329,0,0,1,7.5,19.3V11.329a1.329,1.329,0,1,1,2.657,0V19.3A1.329,1.329,0,0,1,8.829,20.628Z" transform="translate(7.114 16.571)"/>
      <path id="Path_221" data-name="Path 221" d="M15.3,14.157H7.329a1.329,1.329,0,0,1,0-2.657H15.3a1.329,1.329,0,1,1,0,2.657Z" transform="translate(4.628 19.056)"/>
      <path id="Path_222" data-name="Path 222" d="M23.3,14.157H15.329a1.329,1.329,0,1,1,0-2.657H23.3a1.329,1.329,0,0,1,0,2.657Z" transform="translate(17.885 19.056)"/>
      <path id="Path_223" data-name="Path 223" d="M23.3,18.657H15.329a1.329,1.329,0,0,1,0-2.657H23.3a1.329,1.329,0,1,1,0,2.657Z" transform="translate(17.885 26.513)"/>
      <path id="Path_224" data-name="Path 224" d="M23.3,21.657H15.329a1.329,1.329,0,1,1,0-2.657H23.3a1.329,1.329,0,1,1,0,2.657Z" transform="translate(17.885 31.484)"/>
      <path id="Path_225" data-name="Path 225" d="M7.329,26.627a1.327,1.327,0,0,1-.941-2.266l7.971-7.971a1.328,1.328,0,0,1,1.879,1.879L8.267,26.239A1.324,1.324,0,0,1,7.329,26.627Z" transform="translate(4.628 26.514)"/>
      <path id="Path_226" data-name="Path 226" d="M15.3,26.627a1.334,1.334,0,0,1-.941-.388L6.388,18.268a1.328,1.328,0,0,1,1.879-1.879l7.971,7.971a1.327,1.327,0,0,1-.938,2.266Z" transform="translate(4.628 26.514)"/>
    </g>
  </g>
</svg>
