<svg xmlns="http://www.w3.org/2000/svg" width="144.209" height="35.554" viewBox="0 0 144.209 35.554">
  <g id="bushes_bush_plant_nature_eco_leaves" data-name="bushes, bush, plant, nature, eco, leaves" transform="translate(0.608)">
    <g id="bushes_bush_plant_nature_eco_leaves-2" data-name="bushes, bush, plant, nature, eco, leaves" transform="translate(0.142 0)">
      <path id="Path" d="M114.438,33.681s2.459-4.351-3.783-5.3a20.457,20.457,0,0,0-10.971,1.324s4.351-5.3-2.459-7.568-13.808,3.027-13.808,3.027,6.81-12.676,1.513-13.622S76.8,16.086,76.8,16.086,77.364.384,66.393.005s-9.836,20.054-9.836,20.054S51.828,10.978,43.884,10.6s-3.972,15.212-3.972,15.212S38.4,22.14,33.1,21.762s-4.918,4.062-4.918,4.062-6.81-9.548-14.376-8.98S9.458,26.87,9.458,26.87C1.7,26.3,0,34.8,0,34.8H119.923Z" transform="translate(11.393 0)"/>
      <path id="Path-2" data-name="Path" d="M0,.5H142.709" transform="translate(0 34.304)" fill="none" stroke="#000" stroke-linecap="round" stroke-linejoin="round" stroke-width="1.5"/>
    </g>
  </g>
</svg>
