<svg xmlns="http://www.w3.org/2000/svg" width="36.038" height="33" viewBox="0 0 36.038 33">
  <g id="_011-monitor_screen" data-name="011-monitor screen" transform="translate(-10 -15.479)">
    <path id="Path_1280" data-name="Path 1280" d="M43.824,43.126H12.214A2.218,2.218,0,0,1,10,40.913V17.693a2.218,2.218,0,0,1,2.214-2.214h31.61a2.218,2.218,0,0,1,2.214,2.214v23.22A2.218,2.218,0,0,1,43.824,43.126ZM12.214,16.033a1.661,1.661,0,0,0-1.659,1.659v23.22a1.661,1.661,0,0,0,1.659,1.659h31.61a1.661,1.661,0,0,0,1.659-1.659V17.693a1.661,1.661,0,0,0-1.659-1.659Z" transform="translate(0)"/>
    <path id="Path_1281" data-name="Path 1281" d="M66.055,117.459H55.824a.277.277,0,0,1-.266-.356l1.1-3.693a.277.277,0,0,1,.266-.2h8.022a.277.277,0,0,1,.266.2l1.1,3.693a.277.277,0,0,1-.266.356ZM56.2,116.9h9.486l-.938-3.138h-7.61Z" transform="translate(-32.921 -70.64)"/>
    <path id="Path_1282" data-name="Path 1282" d="M62.779,128.747H48.471a.277.277,0,0,1-.277-.277,1.94,1.94,0,0,1,1.937-1.937H61.119a1.94,1.94,0,0,1,1.937,1.937A.277.277,0,0,1,62.779,128.747Zm-14-.554h13.7a1.386,1.386,0,0,0-1.355-1.106H50.131A1.386,1.386,0,0,0,48.776,128.193Z" transform="translate(-27.606 -80.268)"/>
    <path id="Path_1283" data-name="Path 1283" d="M45.761,94.681H10.277a.277.277,0,1,1,0-.554H45.761a.277.277,0,1,1,0,.554Z" transform="translate(0 -56.846)"/>
    <path id="Path_1288" data-name="Path 1288" d="M16.277,76.742A.277.277,0,0,1,16,76.465V72.377a.277.277,0,1,1,.554,0v4.089A.277.277,0,0,1,16.277,76.742Z" transform="translate(-4.337 -40.925)"/>
    <path id="Path_1289" data-name="Path 1289" d="M16.277,40.451A.277.277,0,0,1,16,40.173V30.123a.277.277,0,1,1,.554,0v10.05A.277.277,0,0,1,16.277,40.451Z" transform="translate(-4.337 -10.384)"/>
  </g>
</svg>
