<svg xmlns="http://www.w3.org/2000/svg" width="177.437" height="31.958" viewBox="0 0 177.437 31.958"><g transform="translate(-975.5 -808.5)"><path d="M46.153,14.8,31.641.283a.967.967,0,0,0-1.368,1.368l12.86,12.86H-129.033a.968.968,0,0,0-.967.967.968.968,0,0,0,.967.967H43.133l-12.86,12.86a.967.967,0,1,0,1.368,1.368L46.153,16.163A.967.967,0,0,0,46.153,14.8Z" transform="translate(1022.436 839.957) rotate(180)"/><path d="M30.957-.5a1.458,1.458,0,0,1,1.038.43L46.507,14.441a1.467,1.467,0,0,1,0,2.075L31.995,31.028a1.467,1.467,0,1,1-2.075-2.075L41.926,16.946H-129.033a1.469,1.469,0,0,1-1.467-1.467,1.469,1.469,0,0,1,1.467-1.468H41.926L29.919,2a1.469,1.469,0,0,1,0-2.075A1.458,1.458,0,0,1,30.957-.5Zm0,30.958a.464.464,0,0,0,.33-.137L45.8,15.809a.467.467,0,0,0,0-.661L31.287.637a.467.467,0,1,0-.661.661L44.34,15.011H-129.033a.468.468,0,0,0-.467.467.468.468,0,0,0,.467.467H44.34L30.627,29.66a.467.467,0,0,0,.33.8Z" transform="translate(1022.436 839.957) rotate(180)" fill="#f8f8f8"/></g></svg>