<svg xmlns="http://www.w3.org/2000/svg" width="34.862" height="33" viewBox="0 0 34.862 33"><g transform="translate(-9.997 -13.471)"><path d="M75.96,78.108a.268.268,0,0,1-.263-.219,5.852,5.852,0,0,0-.823-2.1c-1.736-2.69-5.857-3.415-7.078-3.574a.268.268,0,0,1-.217-.171l-.587-1.555a.268.268,0,1,1,.5-.19l.531,1.406c1.728.241,5.546,1.075,7.3,3.793a6.378,6.378,0,0,1,.9,2.289.268.268,0,0,1-.264.318Z" transform="translate(-41.698 -41.463)"/><path d="M28.911,82H10.266A.268.268,0,0,1,10,81.733V79.175A6.742,6.742,0,0,1,11.025,75.5c1.753-2.718,5.57-3.551,7.3-3.793l.526-1.4a.268.268,0,1,1,.5.188l-.582,1.555a.268.268,0,0,1-.217.172c-1.221.158-5.343.883-7.078,3.574a6.209,6.209,0,0,0-.941,3.384v2.289H28.911a.268.268,0,1,1,0,.536Z" transform="translate(0 -41.464)"/><path d="M42.911,80.134a.286.286,0,0,1-.054-.005.268.268,0,0,1-.185-.141l-1.867-3.669a.268.268,0,0,1,.367-.357l3.806,2.059a.268.268,0,0,1,.044.442l-1.939,1.609A.268.268,0,0,1,42.911,80.134Zm-1.238-3.292L43,79.445,44.374,78.3Z" transform="translate(-22.525 -45.708)"/><path d="M57.175,80.135A.268.268,0,0,1,57,80.074l-1.939-1.609a.268.268,0,0,1,.043-.442l3.807-2.059a.268.268,0,0,1,.367.357l-1.866,3.668a.268.268,0,0,1-.185.141A.285.285,0,0,1,57.175,80.135ZM55.712,78.3l1.376,1.142,1.324-2.6Z" transform="translate(-32.91 -45.71)"/><path d="M27.157,99.763a.268.268,0,0,1-.268-.268V94.668a.268.268,0,0,1,.536,0V99.5A.268.268,0,0,1,27.157,99.763Z" transform="translate(-12.362 -59.226)"/><path d="M40.441,57.9c-3.15,0-5.687-3.868-5.687-7.071a.268.268,0,1,1,.536,0c0,2.941,2.377,6.534,5.15,6.534,2.637,0,4.883-3.194,5.129-6.05a.268.268,0,1,1,.534.046C45.838,54.448,43.359,57.9,40.441,57.9Z" transform="translate(-18.118 -27.144)"/><path d="M43.278,24.464a.273.273,0,0,1-.1-.019.268.268,0,0,1-.166-.28c.005-.043.47-4.3-2.434-5.082l-.036-.012s-.5-.134-1.408.751c-.809.785-2.7.533-4.144.182a1.271,1.271,0,0,0-1.383.538,6.64,6.64,0,0,0-.9,3.162.268.268,0,0,1-.513.091,12.578,12.578,0,0,1-.928-5.551,4.9,4.9,0,0,1,1.921-3.278A6.213,6.213,0,0,1,37.494,13.5a8.52,8.52,0,0,1,3.905,1.52A3.578,3.578,0,0,1,43.6,16.133a4.932,4.932,0,0,1,1.078,3.69,8.5,8.5,0,0,1-1.192,4.535A.268.268,0,0,1,43.278,24.464Zm-2.548-5.9c2.256.617,2.751,2.963,2.833,4.434a10.764,10.764,0,0,0,.585-3.2,4.427,4.427,0,0,0-.937-3.3,3.028,3.028,0,0,0-1.922-.951.268.268,0,0,1-.157-.058,8.053,8.053,0,0,0-3.7-1.459,5.665,5.665,0,0,0-3.907,1.353A4.372,4.372,0,0,0,31.8,18.292a11.479,11.479,0,0,0,.512,4.229,6.455,6.455,0,0,1,.841-2.266,1.8,1.8,0,0,1,1.962-.775c1.83.443,3.158.427,3.645-.046,1.111-1.078,1.816-.92,1.969-.867Z" transform="translate(-15.537 0)"/><path d="M37.912,22.776a.265.265,0,0,1-.133-.035.268.268,0,0,1-.1-.366,3.635,3.635,0,0,1,1.807-1.408.268.268,0,1,1,.194.5,3.135,3.135,0,0,0-1.535,1.173A.268.268,0,0,1,37.912,22.776Z" transform="translate(-20.233 -5.473)"/><path d="M101.272,99.531a.268.268,0,0,1-.2-.087,11.255,11.255,0,0,0-6.584-2.51.268.268,0,0,1-.268-.268l.019-5.061a.268.268,0,0,1,.08-.189.343.343,0,0,1,.19-.078h.025a11.065,11.065,0,0,0,6.584-2.467.268.268,0,0,1,.464.184l-.042,10.207a.268.268,0,0,1-.171.249A.271.271,0,0,1,101.272,99.531ZM94.76,96.4a12.393,12.393,0,0,1,6.246,2.268l.037-9.019a12.467,12.467,0,0,1-6.268,2.219Z" transform="translate(-61.639 -55.118)"/><path d="M120.419,98.741a.9.9,0,0,1-.9-.906l.04-9.857a.9.9,0,1,1,1.806.007l-.04,9.858a.9.9,0,0,1-.9.9Zm.04-11.127a.367.367,0,0,0-.366.365l-.04,9.858a.366.366,0,0,0,.733,0l.04-9.858a.366.366,0,0,0-.367-.368Z" transform="translate(-80.15 -53.868)"/><path d="M124.862,106.152h-.215a.268.268,0,0,1-.268-.268v-2.555a.268.268,0,0,1,.268-.268h.215a1.545,1.545,0,0,1,0,3.091Zm.054-2.553v2.015a1.009,1.009,0,0,0,0-2.015Z" transform="translate(-83.709 -65.565)"/><path d="M82.866,103.956H81.123a2.8,2.8,0,1,1,0-5.6h1.743a.268.268,0,0,1,.268.268v5.059A.268.268,0,0,1,82.866,103.956ZM81.123,98.9a2.261,2.261,0,1,0,0,4.523H82.6V98.9Z" transform="translate(-50.005 -62.125)"/><path d="M87.708,122.248h-1a.715.715,0,0,1-.695-.561l-.934-4.347a.268.268,0,1,1,.524-.113l.934,4.347a.175.175,0,0,0,.171.138h1a.174.174,0,0,0,.17-.212l-.892-4.1a.268.268,0,1,1,.524-.114l.893,4.1a.711.711,0,0,1-.695.862Z" transform="translate(-54.946 -75.777)"/><path d="M133.259,102.3a.268.268,0,0,1-.213-.431l.464-.6a.268.268,0,1,1,.426.327l-.464.6A.268.268,0,0,1,133.259,102.3Z" transform="translate(-90.011 -64.176)"/><path d="M136.19,108.36h-.761a.268.268,0,0,1,0-.536h.761a.268.268,0,0,1,0,.536Z" transform="translate(-91.599 -69.051)"/><path d="M133.723,113.372a.268.268,0,0,1-.213-.1l-.464-.6a.268.268,0,1,1,.425-.327l.464.6a.268.268,0,0,1-.213.431Z" transform="translate(-90.011 -72.276)"/></g></svg>