<svg xmlns="http://www.w3.org/2000/svg" width="19.193" height="19.193" viewBox="0 0 19.193 19.193">
  <path id="_021-facebook" data-name="021-facebook" d="M2.811,19.193h6.26V12.37H6.822V10.121H9.072V7.31A2.815,2.815,0,0,1,11.883,4.5h2.811V6.748H12.445a1.126,1.126,0,0,0-1.125,1.125v2.249h3.272l-.375,2.249h-2.9v6.822h5.061a2.815,2.815,0,0,0,2.811-2.811V2.811A2.815,2.815,0,0,0,16.381,0H2.811A2.815,2.815,0,0,0,0,2.811v13.57A2.815,2.815,0,0,0,2.811,19.193ZM1.125,2.811A1.689,1.689,0,0,1,2.811,1.125h13.57a1.689,1.689,0,0,1,1.687,1.687v13.57a1.689,1.689,0,0,1-1.687,1.687H12.445V13.5h2.726l.75-4.5H12.445V7.872h3.374v-4.5H11.883A3.94,3.94,0,0,0,7.947,7.31V9H5.7v4.5H7.947v4.573H2.811a1.689,1.689,0,0,1-1.687-1.687Zm0,0" fill="#fff"/>
</svg>
