<svg xmlns="http://www.w3.org/2000/svg" width="33.142" height="19.333" viewBox="0 0 33.142 19.333">
  <g id="visibility" transform="translate(0 -106.662)">
    <g id="Group_163" data-name="Group 163" transform="translate(0 106.662)">
      <g id="Group_162" data-name="Group 162" transform="translate(0 0)">
        <path id="Path_1663" data-name="Path 1663" d="M33.019,115.936c-.261-.38-6.533-9.274-16.448-9.274-8.508,0-16.089,8.843-16.408,9.22a.693.693,0,0,0,0,.892c.319.377,7.9,9.22,16.408,9.22s16.089-8.843,16.408-9.22A.691.691,0,0,0,33.019,115.936Zm-16.448,8.678c-6.82,0-13.305-6.5-14.953-8.286,1.645-1.783,8.123-8.286,14.953-8.286,7.98,0,13.613,6.495,14.989,8.248C29.971,118.016,23.449,124.614,16.571,124.614Z" transform="translate(0 -106.662)"/>
      </g>
    </g>
    <g id="Group_165" data-name="Group 165" transform="translate(11.047 110.805)">
      <g id="Group_164" data-name="Group 164" transform="translate(0 0)">
        <path id="Path_1664" data-name="Path 1664" d="M176.186,170.662a5.524,5.524,0,1,0,5.524,5.524A5.529,5.529,0,0,0,176.186,170.662Zm0,9.667a4.143,4.143,0,1,1,4.143-4.143A4.148,4.148,0,0,1,176.186,180.329Z" transform="translate(-170.662 -170.662)"/>
      </g>
    </g>
  </g>
</svg>
