<svg xmlns="http://www.w3.org/2000/svg" width="107.377" height="105.231" viewBox="0 0 107.377 105.231"><g transform="translate(0 -5.115)"><g transform="translate(79.951 60.795)"><path d="M389.884,270.613a1.563,1.563,0,0,0-1.563,1.563,1.984,1.984,0,0,1-3.968,0,1.563,1.563,0,0,0-3.125,0,5.109,5.109,0,1,0,10.219,0A1.562,1.562,0,0,0,389.884,270.613Z" transform="translate(-381.228 -270.613)"/></g><g transform="translate(0 5.115)"><g transform="translate(0 0)"><path d="M103.276,61.051l-4.4-1.409a1.84,1.84,0,0,1-1.187-1.2,28.358,28.358,0,0,0-4.158-8.224,30.178,30.178,0,0,0-2.778-3.276,38.761,38.761,0,0,0,.956-8.851c-.065-3.982-.861-6.317-2.432-7.14-.846-.444-3.422-1.792-17.361,4.589a5.072,5.072,0,0,0-.924.55c-.94-.253-1.9-.486-2.867-.7-.116-.025-.236-.048-.354-.073A21.288,21.288,0,0,0,69.686,27.4a1.563,1.563,0,0,0-3.122-.14,18.182,18.182,0,0,1-11.9,16.257,45.317,45.317,0,0,0-12.578,0A18.2,18.2,0,1,1,64.644,18.258a1.563,1.563,0,0,0,2.792-1.406A21.33,21.33,0,1,0,37.061,44.524h0q-1.457.379-2.89.855a1.563,1.563,0,0,0,.991,2.964,41.937,41.937,0,0,1,26.432,0,1.563,1.563,0,0,0,.991-2.964q-1.43-.478-2.89-.855h0a21.308,21.308,0,0,0,6.487-6.342c.431.084.858.171,1.28.263q.842.183,1.674.39c-.017.068-.035.136-.05.2a18.637,18.637,0,0,0,.147,9.507,11.314,11.314,0,0,0,4.144,5.825,13.146,13.146,0,0,0,7.692,2.441,10.311,10.311,0,0,0,4.985-1.153c1.469-.832,2.7-2.585,3.674-5.217q.675.788,1.279,1.615a25.232,25.232,0,0,1,3.7,7.319,4.97,4.97,0,0,0,3.215,3.242l4.4,1.409a2.767,2.767,0,0,1,1.929,2.644v7.293a2.767,2.767,0,0,1-1.929,2.644l-7.086,2.27a4.828,4.828,0,0,0-2.7,2.194,31.147,31.147,0,0,1-13.01,11.834,2.448,2.448,0,0,0-1.285,1.726L75.97,106.65a.7.7,0,0,1-.69.571H67.9a.7.7,0,0,1-.69-.571l-1.257-6.642a2.455,2.455,0,0,0-2.792-1.975,65.324,65.324,0,0,1-9.735.724,62.3,62.3,0,0,1-7.162-.4,2.475,2.475,0,0,0-2.708,1.986l-1.195,6.311a.7.7,0,0,1-.69.571H34.293a.7.7,0,0,1-.691-.576L31.417,95.294a2.453,2.453,0,0,0-1.261-1.706c-9.971-5.323-15.241-14.216-15.241-25.717A30.041,30.041,0,0,1,18.694,52.6,27.265,27.265,0,0,1,28.85,42.682a1.563,1.563,0,0,0-1.565-2.706A29.744,29.744,0,0,0,12.192,62.2h0c-.15-.014-.3-.027-.451-.042a7.781,7.781,0,0,0-.573-3.118,6.4,6.4,0,0,0-4.745-4.144A4.319,4.319,0,0,0,2.357,56.7c-1.491,1.97-1.248,3.529-.782,4.49.787,1.622,2.81,2.769,6.168,3.49q-.138.207-.3.417A7.668,7.668,0,0,1,1.6,68.189,1.641,1.641,0,0,0,0,69.822v.008a1.636,1.636,0,0,0,1.568,1.632q.168.008.351.008c1.92,0,5-.708,7.963-4.421a8.912,8.912,0,0,0,1.141-1.843q.442.05.85.087a0,0,0,0,1,0,0c-.053.847-.083,1.706-.083,2.58A32.2,32.2,0,0,0,16.4,85.116,31.593,31.593,0,0,0,28.408,96.2l2.124,11.035a3.83,3.83,0,0,0,3.761,3.116h7.379a3.83,3.83,0,0,0,3.761-3.116l1.08-5.706a65.856,65.856,0,0,0,6.913.358A68.652,68.652,0,0,0,63,101.215l1.139,6.016a3.831,3.831,0,0,0,3.76,3.115H75.28a3.831,3.831,0,0,0,3.761-3.116l2.21-11.7A34.071,34.071,0,0,0,95.24,82.637a1.708,1.708,0,0,1,.95-.783l7.086-2.27a5.884,5.884,0,0,0,4.1-5.621V66.671A5.883,5.883,0,0,0,103.276,61.051ZM88.351,42.478c-.6,5.144-2.215,9.544-3.836,10.462-1.843,1.044-6.1,1.245-9.291-1.091S70.962,45.3,72.146,39.684h0a1.885,1.885,0,0,1,1.073-1.306c7.823-3.581,12.334-4.752,14.01-4.752a1.634,1.634,0,0,1,.567.076C88.3,34.238,88.958,37.287,88.351,42.478ZM4.388,59.828c-.162-.333.22-.92.462-1.24a1.247,1.247,0,0,1,1-.61,1.173,1.173,0,0,1,.157.011A3.406,3.406,0,0,1,8.269,60.2,4.745,4.745,0,0,1,8.6,61.675C6.433,61.227,4.752,60.581,4.388,59.828Z" transform="translate(0 -5.115)"/></g></g><g transform="translate(42.541 15.149)"><path d="M210.2,62.463V56.871c1.928.138,2.645,1.019,3.306,1.019.827,0,1.212-1.047,1.212-1.57,0-1.35-2.645-1.928-4.518-1.984v-.744c0-.331-.413-.634-.827-.634a.727.727,0,0,0-.8.634v.8c-2.617.276-5.234,1.653-5.234,5.124,0,3.526,2.755,4.518,5.234,5.4v6.474c-2.81-.22-3.554-2.149-4.463-2.149-.689,0-1.267.909-1.267,1.57,0,1.35,2.314,3.2,5.73,3.251h0v.854a.727.727,0,0,0,.8.634c.413,0,.827-.3.827-.634v-.937a5.337,5.337,0,0,0,5.014-5.675C215.214,64.557,212.6,63.345,210.2,62.463Zm-1.46-.523c-1.46-.551-2.645-1.129-2.645-2.7,0-1.433,1.1-2.121,2.645-2.314Zm1.295,9.394V65.521c1.35.578,2.424,1.35,2.424,3.085A2.62,2.62,0,0,1,210.035,71.334Z" transform="translate(-202.845 -52.959)"/></g></g></svg>