<svg xmlns="http://www.w3.org/2000/svg" width="98.919" height="90.932" viewBox="0 0 98.919 90.932">
  <g id="_003-global_marketing" data-name="003-global marketing" transform="translate(0)">
    <path id="Path_1152" data-name="Path 1152" d="M123.544,71.643h-.059a.761.761,0,0,1-.7-.817c.084-1.1.127-2.236.127-3.363a41.383,41.383,0,0,0-11.229-28.4.761.761,0,1,1,1.11-1.041,42.9,42.9,0,0,1,11.644,29.44c0,1.166-.044,2.336-.132,3.479A.761.761,0,0,1,123.544,71.643Z" transform="translate(-34.256 -20.642)" fill="#00bcd0"/>
    <path id="Path_1153" data-name="Path 1153" d="M41.983,28.2a.761.761,0,0,1-.407-1.4,43.146,43.146,0,0,1,45.387-.36.761.761,0,1,1-.792,1.3,41.63,41.63,0,0,0-43.783.346A.755.755,0,0,1,41.983,28.2Z" transform="translate(-17.468 -16.432)" fill="#00bcd0"/>
    <path id="Path_1154" data-name="Path 1154" d="M58.355,111.63a43.145,43.145,0,0,1-43.1-43.1,42.714,42.714,0,0,1,8.693-25.957.762.762,0,0,1,1.218.918,41.578,41.578,0,0,0,53,61.6.761.761,0,1,1,.726,1.338,43.152,43.152,0,0,1-20.539,5.2Z" transform="translate(-11.265 -21.715)" fill="#00bcd0"/>
    <path id="Path_1155" data-name="Path 1155" d="M64.762,106.347c-12.509,0-22.687-19.331-22.687-43.092S52.253,20.163,64.762,20.163,87.448,39.494,87.448,63.256A78.462,78.462,0,0,1,85.9,78.992a.761.761,0,0,1-1.491-.3,76.985,76.985,0,0,0,1.518-15.43c0-22.922-9.494-41.57-21.164-41.57S43.6,40.333,43.6,63.257s9.494,41.57,21.165,41.57c5.718,0,11.289-4.7,15.284-12.9a.762.762,0,0,1,1.37.667C77.092,101.464,71.178,106.347,64.762,106.347Z" transform="translate(-17.672 -16.432)" fill="#00bcd0"/>
    <path id="Path_1156" data-name="Path 1156" d="M58.355,92.348c-23.762,0-43.093-10.177-43.093-22.686S34.594,46.975,58.355,46.975s43.093,10.178,43.093,22.687a12.634,12.634,0,0,1-.678,4.057.761.761,0,0,1-1.442-.488,11.1,11.1,0,0,0,.6-3.569c0-11.671-18.646-21.165-41.57-21.165s-41.57,9.494-41.57,21.165,18.646,21.164,41.57,21.164A78.542,78.542,0,0,0,71.135,89.8a.761.761,0,1,1,.246,1.5,79.957,79.957,0,0,1-13.025,1.048Z" transform="translate(-11.266 -22.838)" fill="#00bcd0"/>
    <path id="Path_1157" data-name="Path 1157" d="M71.646,106.347a.761.761,0,0,1-.761-.761V20.924a.761.761,0,0,1,1.522,0v84.662A.761.761,0,0,1,71.646,106.347Z" transform="translate(-24.556 -16.432)" fill="#00bcd0"/>
    <path id="Path_1158" data-name="Path 1158" d="M100.687,77.307H16.024a.761.761,0,1,1,0-1.522h84.663a.761.761,0,0,1,0,1.522Z" transform="translate(-11.266 -29.722)" fill="#00bcd0"/>
    <path id="Path_1159" data-name="Path 1159" d="M92.558,111.248a3.966,3.966,0,0,1-3.908-3.362l-.989-6.445a3.967,3.967,0,0,1,3.314-4.52L98.243,95.8a.761.761,0,0,1,.868.636l1.965,12.774a.761.761,0,0,1-.636.868L93.171,111.2A4.045,4.045,0,0,1,92.558,111.248ZM91.2,98.424a2.445,2.445,0,0,0-2.042,2.784l.989,6.445a2.44,2.44,0,0,0,2.783,2.041l6.515-1-1.734-11.27-6.515,1Z" transform="translate(-28.554 -34.503)" fill="#00bcd0"/>
    <path id="Path_1160" data-name="Path 1160" d="M127.067,111.838a.756.756,0,0,1-.178-.021l-23.61-5.679a.761.761,0,0,1-.574-.624l-1.966-12.779a.761.761,0,0,1,.36-.768l20.81-12.513a.761.761,0,0,1,.932,1.189c-.868.874-1.513,6.326-.14,15.254s3.628,13.935,4.719,14.506a.761.761,0,0,1-.353,1.435Zm-22.935-7.06,20.907,5.029c-1.642-2.94-3.044-8.483-3.841-13.679s-1.131-10.9-.448-14.2L102.321,93.01Z" transform="translate(-31.688 -30.573)" fill="#00bcd0"/>
    <path id="Path_1161" data-name="Path 1161" d="M133.753,111.864a.786.786,0,0,1-.158-.017l-.516-.109a.776.776,0,0,1-.2-.071c-2.338-1.227-4.455-8.731-5.515-15.624s-1.294-14.688.564-16.558a.769.769,0,0,1,.167-.126l.457-.26a.761.761,0,0,1,.257-.089c1.642-.261,3.218,2.359,4.25,4.6a42.836,42.836,0,0,1,3.17,11.067c1.193,7.752.435,16.743-2.366,17.175A.729.729,0,0,1,133.753,111.864Zm-.239-1.586.193.041c.97-.609,2.336-6.862,1.022-15.4s-4.49-14.08-5.608-14.384l-.169.1c-.837,1.054-1.425,6.461-.082,15.188S132.4,109.521,133.514,110.278Z" transform="translate(-37.857 -30.488)" fill="#00bcd0"/>
    <path id="Path_1162" data-name="Path 1162" d="M135.515,121.679a1.634,1.634,0,0,1-.782-.209.761.761,0,0,1,.522-1.413l.516.109a.761.761,0,0,1-.043,1.5,1.343,1.343,0,0,1-.213.016Z" transform="translate(-39.717 -40.297)" fill="#00bcd0"/>
    <path id="Path_1163" data-name="Path 1163" d="M101.158,129.545a3.3,3.3,0,0,1-3.136-2.269L93.8,114.8a.761.761,0,1,1,1.442-.488l4.223,12.481a1.8,1.8,0,0,0,3.4-1.146L98.969,114a.762.762,0,1,1,1.446-.484l3.9,11.644a3.328,3.328,0,0,1-3.156,4.382Z" transform="translate(-30.022 -38.614)" fill="#00bcd0"/>
    <path id="Path_1164" data-name="Path 1164" d="M128.806,103.8h-.062a.761.761,0,0,1-.728-.793.77.77,0,0,1,.793-.728.755.755,0,0,0,.132-.016,2.313,2.313,0,0,0-.7-4.572.859.859,0,0,0-.129.024.761.761,0,1,1-.519-1.431,2.189,2.189,0,0,1,.409-.1,3.835,3.835,0,1,1,1.175,7.58A2.458,2.458,0,0,1,128.806,103.8Z" transform="translate(-37.985 -34.585)" fill="#00bcd0"/>
    <path id="Path_1165" data-name="Path 1165" d="M103.365,37.369a.761.761,0,0,1-.761-.761V33.077h-2.043a.761.761,0,0,1-.761-.761V16.021a.761.761,0,0,1,.761-.761h23.76a.761.761,0,0,1,.761.761V32.316a.761.761,0,0,1-.761.761H111.14l-7.4,4.193A.766.766,0,0,1,103.365,37.369Zm-2.04-5.814h2.04a.761.761,0,0,1,.761.761V35.3l6.438-3.648a.761.761,0,0,1,.375-.1H123.56V16.782H101.322Z" transform="translate(-31.465 -15.26)" fill="#00bcd0"/>
    <path id="Path_1166" data-name="Path 1166" d="M121.368,22.39H106.231a.761.761,0,0,1,0-1.522h15.137a.761.761,0,0,1,0,1.522Z" transform="translate(-32.82 -16.6)" fill="#00bcd0"/>
    <path id="Path_1167" data-name="Path 1167" d="M121.368,27.485H106.231a.761.761,0,0,1,0-1.522h15.137a.761.761,0,0,1,0,1.522Z" transform="translate(-32.82 -17.817)" fill="#00bcd0"/>
    <path id="Path_1168" data-name="Path 1168" d="M121.368,32.581H106.231a.761.761,0,0,1,0-1.522h15.137a.761.761,0,0,1,0,1.522Z" transform="translate(-32.82 -19.035)" fill="#00bcd0"/>
    <path id="Path_1169" data-name="Path 1169" d="M31.727,42.977a.761.761,0,0,1-.375-.1l-7.4-4.193H10.771a.761.761,0,0,1-.761-.761V21.629a.761.761,0,0,1,.761-.761H34.528a.761.761,0,0,1,.761.761V37.924a.761.761,0,0,1-.761.761h-2.04v3.531A.761.761,0,0,1,31.727,42.977Zm-20.2-5.814H24.153a.766.766,0,0,1,.375.1l6.438,3.646V37.924a.761.761,0,0,1,.761-.761h2.04V22.39H11.532Z" transform="translate(-10.01 -16.6)" fill="#00bcd0"/>
    <path id="Path_1170" data-name="Path 1170" d="M31.569,28H16.432a.761.761,0,0,1,0-1.522H31.569a.761.761,0,0,1,0,1.522Z" transform="translate(-11.363 -17.94)" fill="#00bcd0"/>
    <path id="Path_1171" data-name="Path 1171" d="M31.569,33.094H16.432a.761.761,0,0,1,0-1.522H31.569a.761.761,0,0,1,0,1.522Z" transform="translate(-11.363 -19.158)" fill="#00bcd0"/>
    <path id="Path_1172" data-name="Path 1172" d="M25.948,38.189H16.435a.761.761,0,1,1,0-1.522h9.513a.761.761,0,1,1,0,1.522Z" transform="translate(-11.364 -20.375)" fill="#00bcd0"/>
  </g>
</svg>
