<svg xmlns="http://www.w3.org/2000/svg" width="23.768" height="30.989" viewBox="0 0 23.768 30.989"><defs><style>.a{fill:#fff;}</style></defs><g transform="translate(-59.701)"><path class="a" d="M78.609,21.923a.454.454,0,0,0-.454.454v5.479a2.228,2.228,0,0,1-2.225,2.225h-13.1a2.228,2.228,0,0,1-2.225-2.225V3.132A2.228,2.228,0,0,1,62.833.907h13.1a2.228,2.228,0,0,1,2.225,2.225V6.086a.454.454,0,1,0,.907,0V3.132A3.136,3.136,0,0,0,75.93,0h-13.1A3.136,3.136,0,0,0,59.7,3.132V27.856a3.136,3.136,0,0,0,3.132,3.132h13.1a3.136,3.136,0,0,0,3.132-3.132V22.377a.453.453,0,0,0-.454-.454Z"/><path class="a" d="M213.234,34.71a.454.454,0,0,0,.454-.454V31.318A1.32,1.32,0,0,0,212.369,30h-1.491a.643.643,0,0,0-.6.424l-.073.2a.738.738,0,0,1-.693.487h-4.134a.454.454,0,0,0,0,.907h4.134a1.648,1.648,0,0,0,1.546-1.086l.01-.027h1.3a.412.412,0,0,1,.411.411v2.938A.453.453,0,0,0,213.234,34.71Z" transform="translate(-136.439 -28.186)"/><path class="a" d="M265.823,122.05a5.787,5.787,0,0,0-3.394,1.09.454.454,0,1,0,.529.737,4.921,4.921,0,0,1,7.785,4c0,1.855-2.535,4.889-4.907,7.11a.02.02,0,0,1-.027,0c-2.372-2.221-4.907-5.254-4.907-7.11a4.9,4.9,0,0,1,.825-2.727.454.454,0,1,0-.754-.5,5.8,5.8,0,0,0-.977,3.231c0,1.183.736,2.711,2.188,4.541a31.343,31.343,0,0,0,3.006,3.231.929.929,0,0,0,1.267,0,31.371,31.371,0,0,0,3.006-3.231c1.452-1.83,2.188-3.358,2.188-4.541A5.834,5.834,0,0,0,265.823,122.05Z" transform="translate(-188.182 -114.669)"/><path class="a" d="M309,167.8a3.258,3.258,0,1,0-3.258,3.258A3.261,3.261,0,0,0,309,167.8Zm-5.608,0a2.351,2.351,0,1,1,2.351,2.351A2.353,2.353,0,0,1,303.4,167.8Z" transform="translate(-228.104 -154.592)"/><path class="a" d="M100.7,45.459a.453.453,0,0,0-.641-.01l-3.212,3.117a.513.513,0,0,0,.012.748l7.623,6.927a.411.411,0,0,1-.361.214h-1.652l-6.745-6.129a.513.513,0,0,0-.7.011L90.61,54.614V52.507l3.4-3.3a.454.454,0,1,0-.632-.651L90.61,51.243V31.319a.412.412,0,0,1,.411-.411h1.364l.01.027a1.648,1.648,0,0,0,1.546,1.086h1.25a.454.454,0,0,0,0-.907h-1.25a.738.738,0,0,1-.693-.487l-.073-.2a.642.642,0,0,0-.6-.424H91.021A1.32,1.32,0,0,0,89.7,31.319V56.043a1.32,1.32,0,0,0,1.318,1.318h13.1a1.32,1.32,0,0,0,1.318-1.318V50.617a.454.454,0,1,0-.907,0V55.06l-6.752-6.136,2.911-2.824A.454.454,0,0,0,100.7,45.459ZM90.61,56.043v-.165l4.775-4.633,5.733,5.209h-10.1A.412.412,0,0,1,90.61,56.043Z" transform="translate(-28.188 -28.187)"/><path class="a" d="M175.3,247.513l-4.059,3.938a.454.454,0,0,0,.632.651l4.059-3.938a.454.454,0,0,0-.632-.651Z" transform="translate(-104.664 -232.424)"/><path class="a" d="M140.944,129.967a.454.454,0,0,0,.454-.454v-2.184a1.964,1.964,0,1,0-.907,0v2.184A.454.454,0,0,0,140.944,129.967Zm-1.057-4.548a1.057,1.057,0,1,1,1.057,1.057A1.058,1.058,0,0,1,139.887,125.418Z" transform="translate(-74.485 -115.988)"/></g></svg>