<svg xmlns="http://www.w3.org/2000/svg" width="99.562" height="31" viewBox="0 0 99.562 31">
  <defs>
    <style>
      .cls-1 {
        fill-rule: evenodd;
      }
    </style>
  </defs>
  <path id="_1" data-name="1" class="cls-1" d="M183,47h95a2.077,2.077,0,0,1,2,2.352c0,1.3-.7,2.648-2,2.648H183a2.817,2.817,0,0,1-2.572-2.648A2.55,2.55,0,0,1,183,47Zm18,13h77c1.3,0,2,1.382,2,2.681A2.049,2.049,0,0,1,278,65H201c-1.3,0-1.755-1.02-1.755-2.319S199.7,60,201,60Zm26,13h51a2.077,2.077,0,0,1,2,2.352c0,1.3-.7,2.648-2,2.648H227a2.817,2.817,0,0,1-2.572-2.648A2.55,2.55,0,0,1,227,73Z" transform="translate(-180.438 -47)"/>
</svg>
