<svg xmlns="http://www.w3.org/2000/svg" width="32.778" height="32.776" viewBox="0 0 32.778 32.776"><g transform="translate(-9.998 -10.004)"><path d="M43.759,54.3A10.533,10.533,0,1,1,54.291,43.764,10.533,10.533,0,0,1,43.759,54.3Zm0-20.561A10.028,10.028,0,1,0,53.787,43.764,10.028,10.028,0,0,0,43.759,33.735Z" transform="translate(-17.372 -17.371)"/><path d="M48.9,57.7a8.8,8.8,0,1,1,8.8-8.8A8.8,8.8,0,0,1,48.9,57.7Zm0-17.095a8.3,8.3,0,1,0,8.3,8.3,8.3,8.3,0,0,0-8.3-8.3Z" transform="translate(-22.512 -22.512)"/><path d="M60.438,57.7c-2.707,0-4.91-3.947-4.91-8.8s2.2-8.8,4.91-8.8,4.91,3.948,4.91,8.8S63.145,57.7,60.438,57.7Zm0-17.095c-2.429,0-4.405,3.721-4.405,8.3s1.976,8.3,4.405,8.3,4.405-3.721,4.405-8.3-1.976-8.3-4.405-8.3Z" transform="translate(-34.05 -22.508)"/><path d="M74.252,57.7A.252.252,0,0,1,74,57.453V40.358a.252.252,0,1,1,.5,0V57.453A.252.252,0,0,1,74.252,57.7Z" transform="translate(-47.865 -22.512)"/><path d="M59.466,90.619H44.426a.252.252,0,1,1,0-.5h15.04a.252.252,0,1,1,0,.5Z" transform="translate(-25.559 -59.913)"/><path d="M57.447,74.5H40.352a.252.252,0,1,1,0-.5H57.447a.252.252,0,1,1,0,.5Z" transform="translate(-22.512 -47.861)"/><path d="M59.466,58.4H44.426a.252.252,0,0,1,0-.5h15.04a.252.252,0,0,1,0,.5Z" transform="translate(-25.559 -35.82)"/><path d="M74.252,24.663A.252.252,0,0,1,74,24.411V21.352a.252.252,0,1,1,.5,0v3.059A.252.252,0,0,1,74.252,24.663Z" transform="translate(-47.865 -8.298)"/><path d="M70.1,13.306a1.651,1.651,0,1,1,1.651-1.651A1.651,1.651,0,0,1,70.1,13.306Zm0-2.8a1.147,1.147,0,1,0,1.146,1.147A1.147,1.147,0,0,0,70.1,10.507Z" transform="translate(-43.715)"/><path d="M49.33,31.337a.252.252,0,0,1-.219-.126l-1.53-2.65a.252.252,0,1,1,.437-.252l1.53,2.65a.252.252,0,0,1-.218.378Z" transform="translate(-28.082 -13.595)"/><path d="M40.916,21.194a1.661,1.661,0,0,1-.429-.057,1.641,1.641,0,1,1,.429.057Zm0-2.8a1.148,1.148,0,1,0,.3.039,1.164,1.164,0,0,0-.3-.039Z" transform="translate(-21.895 -5.914)"/><path d="M31.084,49.582a.252.252,0,0,1-.126-.034l-2.65-1.53a.252.252,0,0,1,.252-.437l2.65,1.53a.252.252,0,0,1-.126.47Z" transform="translate(-13.599 -28.078)"/><path d="M19.475,42.521a1.652,1.652,0,1,1,1.64-1.435,1.641,1.641,0,0,1-1.64,1.435Zm-.571-.658a1.146,1.146,0,1,0-.42-1.566A1.146,1.146,0,0,0,18.9,41.863Z" transform="translate(-5.854 -21.847)"/><path d="M24.406,74.5h-3.06a.252.252,0,1,1,0-.5h3.06a.252.252,0,1,1,0,.5Z" transform="translate(-8.298 -47.861)"/><path d="M11.649,71.754A1.651,1.651,0,1,1,13.3,70.1,1.651,1.651,0,0,1,11.649,71.754Zm0-2.8A1.147,1.147,0,1,0,12.8,70.1a1.147,1.147,0,0,0-1.146-1.147Z" transform="translate(0 -43.711)"/><path d="M28.436,96.419a.252.252,0,0,1-.126-.47l2.65-1.53a.252.252,0,0,1,.252.437l-2.65,1.53A.252.252,0,0,1,28.436,96.419Z" transform="translate(-13.601 -63.106)"/><path d="M19.49,100.983a1.65,1.65,0,1,1,.822-.221A1.65,1.65,0,0,1,19.49,100.983Zm0-2.8a1.148,1.148,0,1,0,.3.039A1.148,1.148,0,0,0,19.486,98.186Z" transform="translate(-5.864 -65.572)"/><path d="M47.8,112.462a.252.252,0,0,1-.218-.378l1.53-2.65a.252.252,0,0,1,.437.252l-1.53,2.65A.252.252,0,0,1,47.8,112.462Z" transform="translate(-28.082 -74.266)"/><path d="M40.847,122.345a1.656,1.656,0,1,1,.43-.057A1.656,1.656,0,0,1,40.847,122.345Zm0-2.8a1.162,1.162,0,0,0-.3.039,1.141,1.141,0,1,0,.3-.039Z" transform="translate(-21.831 -81.538)"/><path d="M74.252,118.334a.252.252,0,0,1-.252-.252v-3.06a.252.252,0,1,1,.5,0v3.06A.252.252,0,0,1,74.252,118.334Z" transform="translate(-47.865 -78.351)"/><path d="M70.1,130.207a1.651,1.651,0,1,1,1.651-1.651,1.651,1.651,0,0,1-1.651,1.651Zm0-2.8a1.146,1.146,0,1,0,1.146,1.146A1.146,1.146,0,0,0,70.1,127.41Z" transform="translate(-43.717 -87.427)"/><path d="M96.166,112.462a.252.252,0,0,1-.219-.126l-1.53-2.65a.252.252,0,0,1,.437-.252l1.53,2.65a.252.252,0,0,1-.218.378Z" transform="translate(-63.11 -74.266)"/><path d="M99.322,122.368a1.652,1.652,0,1,1,.823-.222A1.652,1.652,0,0,1,99.322,122.368Zm0-2.8a1.148,1.148,0,1,0,.3.039,1.162,1.162,0,0,0-.3-.039Z" transform="translate(-65.563 -81.562)"/><path d="M112.208,96.419a.252.252,0,0,1-.126-.034l-2.65-1.53a.252.252,0,1,1,.252-.437l2.65,1.53a.252.252,0,0,1-.126.47Z" transform="translate(-74.269 -63.106)"/><path d="M120.727,100.981a1.65,1.65,0,1,1,1.6-1.222,1.65,1.65,0,0,1-1.6,1.222Zm0-2.8a1.148,1.148,0,1,0,.571.154A1.138,1.138,0,0,0,120.732,98.184Z" transform="translate(-81.58 -65.57)"/><path d="M118.081,74.5h-3.06a.252.252,0,1,1,0-.5h3.06a.252.252,0,1,1,0,.5Z" transform="translate(-78.355 -47.861)"/><path d="M128.555,71.754a1.651,1.651,0,1,1,1.651-1.651,1.651,1.651,0,0,1-1.651,1.651Zm0-2.8A1.147,1.147,0,1,0,129.7,70.1a1.147,1.147,0,0,0-1.146-1.147Z" transform="translate(-87.43 -43.711)"/><path d="M109.56,49.582a.252.252,0,0,1-.126-.47l2.65-1.53a.252.252,0,1,1,.252.437l-2.65,1.53a.25.25,0,0,1-.126.034Z" transform="translate(-74.271 -28.078)"/><path d="M120.721,42.524a1.651,1.651,0,1,1,1.549-1.089,1.65,1.65,0,0,1-1.549,1.089Zm-.576-2.643a1.146,1.146,0,1,0,1.566.42A1.146,1.146,0,0,0,120.145,39.881Z" transform="translate(-81.568 -21.851)"/><path d="M94.636,31.337a.252.252,0,0,1-.218-.378l1.53-2.65a.252.252,0,0,1,.437.252l-1.53,2.65A.252.252,0,0,1,94.636,31.337Z" transform="translate(-63.11 -13.595)"/><path d="M99.3,21.108a1.655,1.655,0,1,1,.43-.057,1.656,1.656,0,0,1-.43.057Zm0-2.8a1.163,1.163,0,0,0-.3.039,1.142,1.142,0,1,0,.3-.039Z" transform="translate(-65.55 -5.828)"/></g></svg>