<svg xmlns="http://www.w3.org/2000/svg" width="101" height="101" viewBox="0 0 101 101"><g transform="translate(87.533 20.2)"><path d="M450.467,102.4a6.733,6.733,0,1,0,6.733,6.733A6.74,6.74,0,0,0,450.467,102.4Zm0,10.1a3.367,3.367,0,1,1,3.367-3.367A3.37,3.37,0,0,1,450.467,112.5Z" transform="translate(-443.734 -102.4)"/></g><g transform="translate(0 75.75)"><path d="M6.733,384a6.733,6.733,0,1,0,6.733,6.733A6.74,6.74,0,0,0,6.733,384Zm0,10.1a3.367,3.367,0,1,1,3.367-3.367A3.37,3.37,0,0,1,6.733,394.1Z" transform="translate(0 -384)"/></g><g transform="translate(74.066 15.148)"><path d="M392.4,83.971,377.877,76.96a1.683,1.683,0,0,0-1.463,3.032L390.937,87a1.683,1.683,0,0,0,1.463-3.032Z" transform="translate(-375.463 -76.792)"/></g><g transform="translate(69.017 87.533)"><path d="M356.6,443.733a6.733,6.733,0,1,0,6.733,6.733A6.74,6.74,0,0,0,356.6,443.733Zm0,10.1a3.367,3.367,0,1,1,3.367-3.367A3.37,3.37,0,0,1,356.6,453.833Z" transform="translate(-349.867 -443.733)"/></g><g transform="translate(55.549 82.482)"><path d="M298.533,425.3l-14.522-7.011a1.683,1.683,0,0,0-1.463,3.032l14.522,7.011a1.683,1.683,0,0,0,1.463-3.032Z" transform="translate(-281.596 -418.124)"/></g><g transform="translate(43.767 45.45)"><path d="M228.6,230.4a6.733,6.733,0,1,0,6.733,6.733A6.74,6.74,0,0,0,228.6,230.4Zm0,10.1a3.367,3.367,0,1,1,3.367-3.367A3.37,3.37,0,0,1,228.6,240.5Z" transform="translate(-221.867 -230.4)"/></g><g transform="translate(33.666 38.718)"><path d="M184.539,205.32l-11.155-8.694a1.684,1.684,0,1,0-2.07,2.656l11.155,8.694a1.684,1.684,0,1,0,2.07-2.656Z" transform="translate(-170.664 -196.272)"/></g><g transform="translate(62.283 43.767)"><path d="M334.25,221.867a18.517,18.517,0,1,0,18.517,18.517A18.539,18.539,0,0,0,334.25,221.867Zm0,33.667a15.15,15.15,0,1,1,15.15-15.15A15.166,15.166,0,0,1,334.25,255.534Z" transform="translate(-315.733 -221.867)"/></g><g transform="translate(74.067 50.5)"><path d="M382.2,256a6.733,6.733,0,1,0,6.733,6.733A6.74,6.74,0,0,0,382.2,256Zm0,10.1a3.367,3.367,0,1,1,3.367-3.367A3.37,3.37,0,0,1,382.2,266.1Z" transform="translate(-375.467 -256)"/></g><g transform="translate(70.7 67.333)"><path d="M373.383,341.333h-9.767a5.154,5.154,0,0,0-5.217,5.075v4.437a1.685,1.685,0,0,0,.84,1.458,18.423,18.423,0,0,0,18.52,0,1.682,1.682,0,0,0,.84-1.456V346.41A5.154,5.154,0,0,0,373.383,341.333Zm1.85,8.509a15.264,15.264,0,0,1-13.467,0V346.41a1.786,1.786,0,0,1,1.85-1.71h9.767a1.786,1.786,0,0,1,1.85,1.71v3.432Z" transform="translate(-358.4 -341.333)"/></g><g transform="translate(21.883 63.967)"><path d="M129.45,324.267a18.517,18.517,0,1,0,18.517,18.517A18.539,18.539,0,0,0,129.45,324.267Zm0,33.667a15.15,15.15,0,1,1,15.15-15.15A15.166,15.166,0,0,1,129.45,357.934Z" transform="translate(-110.933 -324.267)"/></g><g transform="translate(33.667 70.7)"><path d="M177.4,358.4a6.733,6.733,0,1,0,6.733,6.733A6.74,6.74,0,0,0,177.4,358.4Zm0,10.1a3.367,3.367,0,1,1,3.367-3.367A3.37,3.37,0,0,1,177.4,368.5Z" transform="translate(-170.667 -358.4)"/></g><g transform="translate(30.3 87.533)"><path d="M168.583,443.733h-9.767a5.154,5.154,0,0,0-5.217,5.075v4.437a1.685,1.685,0,0,0,.84,1.458,18.423,18.423,0,0,0,18.52,0,1.682,1.682,0,0,0,.84-1.456V448.81A5.154,5.154,0,0,0,168.583,443.733Zm1.85,8.509a15.264,15.264,0,0,1-13.467,0V448.81a1.786,1.786,0,0,1,1.85-1.71h9.767a1.787,1.787,0,0,1,1.85,1.71v3.432Z" transform="translate(-153.6 -443.733)"/></g><g transform="translate(0 21.883)"><path d="M18.517,110.933A18.517,18.517,0,1,0,37.033,129.45,18.539,18.539,0,0,0,18.517,110.933Zm0,33.667a15.15,15.15,0,1,1,15.15-15.15A15.166,15.166,0,0,1,18.517,144.6Z" transform="translate(0 -110.933)"/></g><g transform="translate(11.783 28.617)"><path d="M66.467,145.067A6.733,6.733,0,1,0,73.2,151.8,6.74,6.74,0,0,0,66.467,145.067Zm0,10.1a3.367,3.367,0,1,1,3.367-3.367A3.37,3.37,0,0,1,66.467,155.167Z" transform="translate(-59.734 -145.067)"/></g><g transform="translate(8.417 45.45)"><path d="M57.65,230.4H47.884a5.154,5.154,0,0,0-5.217,5.075v4.437a1.685,1.685,0,0,0,.84,1.458,18.423,18.423,0,0,0,18.52,0,1.682,1.682,0,0,0,.84-1.456v-4.437A5.154,5.154,0,0,0,57.65,230.4Zm1.85,8.509a15.264,15.264,0,0,1-13.467,0v-3.432a1.786,1.786,0,0,1,1.85-1.71H57.65a1.787,1.787,0,0,1,1.85,1.71v3.432Z" transform="translate(-42.667 -230.4)"/></g><g transform="translate(40.4)"><path d="M223.317,0a18.517,18.517,0,1,0,18.517,18.517A18.539,18.539,0,0,0,223.317,0Zm0,33.667a15.15,15.15,0,1,1,15.15-15.15A15.166,15.166,0,0,1,223.317,33.667Z" transform="translate(-204.8)"/></g><g transform="translate(52.183 6.733)"><path d="M271.267,34.133A6.733,6.733,0,1,0,278,40.866,6.74,6.74,0,0,0,271.267,34.133Zm0,10.1a3.367,3.367,0,1,1,3.367-3.367A3.37,3.37,0,0,1,271.267,44.233Z" transform="translate(-264.534 -34.133)"/></g><g transform="translate(48.817 23.567)"><path d="M262.45,119.467h-9.767a5.154,5.154,0,0,0-5.217,5.075v4.437a1.685,1.685,0,0,0,.84,1.458,18.423,18.423,0,0,0,18.52,0,1.682,1.682,0,0,0,.84-1.456v-4.437A5.154,5.154,0,0,0,262.45,119.467Zm1.85,8.509a15.264,15.264,0,0,1-13.467,0v-3.432a1.786,1.786,0,0,1,1.85-1.71h9.767a1.786,1.786,0,0,1,1.85,1.71v3.432Z" transform="translate(-247.467 -119.467)"/></g><g transform="translate(28.736 16.833)"><path d="M160.3,85.921a1.686,1.686,0,0,0-2.373-.183L146.26,95.72a1.683,1.683,0,1,0,2.188,2.557l11.665-9.982A1.683,1.683,0,0,0,160.3,85.921Z" transform="translate(-145.671 -85.333)"/></g><g transform="translate(67.333 30.302)"><path d="M354.463,167.75l-10.1-13.467a1.683,1.683,0,0,0-2.693,2.018l10.1,13.467a1.683,1.683,0,0,0,2.693-2.018Z" transform="translate(-341.333 -153.61)"/></g><g transform="translate(54.215 67.177)"><path d="M287.266,341.213a1.684,1.684,0,0,0-2.357-.337l-9.4,7.051a1.683,1.683,0,0,0,2.02,2.691l9.4-7.051A1.681,1.681,0,0,0,287.266,341.213Z" transform="translate(-274.833 -340.54)"/></g><g transform="translate(10.1 80.8)"><path d="M64.667,409.6H52.883a1.683,1.683,0,1,0,0,3.367H64.667a1.683,1.683,0,0,0,0-3.367Z" transform="translate(-51.2 -409.6)"/></g><g transform="translate(11.783)"><path d="M66.466,0A6.733,6.733,0,1,0,73.2,6.733,6.74,6.74,0,0,0,66.466,0Zm0,10.1a3.367,3.367,0,1,1,3.367-3.367A3.37,3.37,0,0,1,66.466,10.1Z" transform="translate(-59.733)"/></g><g transform="translate(16.833 10.1)"><path d="M87.017,51.2a1.683,1.683,0,0,0-1.683,1.683V64.667a1.683,1.683,0,1,0,3.367,0V52.883A1.683,1.683,0,0,0,87.017,51.2Z" transform="translate(-85.334 -51.2)"/></g></svg>