<svg xmlns="http://www.w3.org/2000/svg" width="26.842" height="33" viewBox="0 0 26.842 33"><g transform="translate(-22.13 -9.999)"><path d="M37.923,56.388a1.4,1.4,0,1,1,1.4-1.4A1.4,1.4,0,0,1,37.923,56.388Zm0-2.3a.9.9,0,1,0,.9.9A.9.9,0,0,0,37.923,54.09Z" transform="translate(-10.737 -32.52)"/><path d="M79.675,56.388a1.4,1.4,0,1,1,1.4-1.4,1.4,1.4,0,0,1-1.4,1.4Zm0-2.3a.9.9,0,1,0,.9.9A.9.9,0,0,0,79.675,54.09Z" transform="translate(-41.891 -32.52)"/><path d="M51.9,22.719a.254.254,0,0,1-.254-.254V15.552a5.045,5.045,0,1,0-10.091,0v6.913a.254.254,0,1,1-.508,0V15.552a5.553,5.553,0,1,1,11.106,0v6.913A.254.254,0,0,1,51.9,22.719Z" transform="translate(-14.117)"/><path d="M79.351,18.545h-10.6a.254.254,0,0,1-.254-.254V15.552a5.553,5.553,0,1,1,11.106,0v2.739a.254.254,0,0,1-.255.254Zm-10.344-.508H79.1V15.552a5.045,5.045,0,1,0-10.091,0Z" transform="translate(-34.6)"/><path d="M109.6,132.4h-5.62a.254.254,0,0,1-.147-.461l2.931-2.078a.254.254,0,0,1,.3.006l2.689,2.075a.254.254,0,0,1-.155.455Zm-4.823-.508h4.079l-1.952-1.508Z" transform="translate(-60.887 -89.402)"/><path d="M43.028,66.628H22.384a.254.254,0,0,1-.254-.271L23.766,41.9a.254.254,0,0,1,.254-.237H42.056a.254.254,0,0,1,.254.244l.972,24.454a.254.254,0,0,1-.254.264ZM22.655,66.12H42.763l-.952-23.946H24.257Z" transform="translate(0 -23.629)"/><path d="M106.543,66.63a.252.252,0,0,1-.155-.053l-2.54-1.963-2.778,1.969a.254.254,0,0,1-.4-.2L99.629,41.935a.254.254,0,0,1,.254-.265h4.91a.254.254,0,0,1,.254.236L106.8,66.358a.254.254,0,0,1-.254.272Zm-6.4-24.453,1.01,23.722,2.551-1.808a.254.254,0,0,1,.3.006l2.24,1.731-1.694-23.651Z" transform="translate(-57.827 -23.632)"/><path d="M29.761,88.29h-.017a.254.254,0,0,1-.236-.27l.556-8.315a.26.26,0,0,1,.27-.236.254.254,0,0,1,.236.27l-.556,8.313A.254.254,0,0,1,29.761,88.29Z" transform="translate(-5.504 -51.835)"/><path d="M28.666,120.249h-.017a.254.254,0,0,1-.237-.27l.2-3.014a.257.257,0,0,1,.27-.236.254.254,0,0,1,.237.27l-.2,3.014A.254.254,0,0,1,28.666,120.249Z" transform="translate(-4.687 -79.636)"/></g></svg>