<svg xmlns="http://www.w3.org/2000/svg" width="28.2" height="21.482" viewBox="0 0 28.2 21.482">
  <g id="_015-digital_camera" data-name="015-digital camera" transform="translate(-10 -25.485)">
    <path id="Path_1319" data-name="Path 1319" d="M113.059,49.84a.768.768,0,1,1,.768-.768A.768.768,0,0,1,113.059,49.84Zm0-1.1a.334.334,0,1,0,.334.334.334.334,0,0,0-.334-.334Z" transform="translate(-80.102 -17.868)"/>
    <path id="Path_1320" data-name="Path 1320" d="M124.434,49.84a.768.768,0,1,1,.768-.768A.768.768,0,0,1,124.434,49.84Zm0-1.1a.334.334,0,1,0,.335.334.334.334,0,0,0-.335-.334Z" transform="translate(-89.009 -17.868)"/>
    <path id="Path_1321" data-name="Path 1321" d="M48.278,64.4a7.4,7.4,0,1,1,7.4-7.4,7.4,7.4,0,0,1-7.4,7.4Zm0-14.37A6.969,6.969,0,1,0,55.246,57a6.969,6.969,0,0,0-6.969-6.968Z" transform="translate(-24.177 -18.88)"/>
    <path id="Path_1322" data-name="Path 1322" d="M52.878,67.726A6.128,6.128,0,1,1,59.006,61.6,6.128,6.128,0,0,1,52.878,67.726Zm0-11.822A5.694,5.694,0,1,0,58.572,61.6,5.694,5.694,0,0,0,52.878,55.9Z" transform="translate(-28.778 -23.481)"/>
    <path id="Path_1323" data-name="Path 1323" d="M27.361,38.1H25.029a.217.217,0,0,1-.217-.217V36.817a.217.217,0,0,1,.217-.217h2.332a.217.217,0,0,1,.217.217v1.067A.217.217,0,0,1,27.361,38.1Zm-2.115-.434h1.9v-.632h-1.9Z" transform="translate(-11.599 -8.704)"/>
    <path id="Path_1324" data-name="Path 1324" d="M36.338,46.967H11.862A1.864,1.864,0,0,1,10,45.1V30.825a1.866,1.866,0,0,1,1.862-1.862h6.963l.541-2.274a1.559,1.559,0,0,1,1.523-1.2h6.424a1.56,1.56,0,0,1,1.523,1.2l.54,2.274h6.963A1.866,1.866,0,0,1,38.2,30.825V45.1A1.864,1.864,0,0,1,36.338,46.967ZM11.862,29.4a1.43,1.43,0,0,0-1.428,1.428V45.1a1.43,1.43,0,0,0,1.428,1.428H36.338A1.43,1.43,0,0,0,37.766,45.1V30.825A1.43,1.43,0,0,0,36.338,29.4H29.2a.217.217,0,0,1-.211-.167l-.58-2.44a1.128,1.128,0,0,0-1.1-.87H20.888a1.128,1.128,0,0,0-1.1.87l-.58,2.44A.217.217,0,0,1,19,29.4Z" transform="translate(0 0)"/>
    <path id="Path_1325" data-name="Path 1325" d="M109.674,72.443h-7.712a.217.217,0,1,1,0-.434h7.495v-7.23h-7.69a.217.217,0,0,1,0-.434h7.907a.217.217,0,0,1,.217.217v7.664A.217.217,0,0,1,109.674,72.443Z" transform="translate(-71.691 -30.43)"/>
    <path id="Path_1326" data-name="Path 1326" d="M17.929,72.443H10.217A.217.217,0,0,1,10,72.226V64.562a.217.217,0,0,1,.217-.217h7.907a.217.217,0,1,1,0,.434h-7.69v7.23h7.495a.217.217,0,1,1,0,.434Z" transform="translate(0 -30.43)"/>
    <path id="Path_1327" data-name="Path 1327" d="M52.364,75.83l-.028,0a.217.217,0,0,1-.187-.243,4.968,4.968,0,0,1,.351-1.295.217.217,0,0,1,.4.169,4.534,4.534,0,0,0-.32,1.183A.217.217,0,0,1,52.364,75.83Z" transform="translate(-33.004 -38.115)"/>
    <path id="Path_1328" data-name="Path 1328" d="M56.211,63.331a.217.217,0,0,1-.177-.342,5.026,5.026,0,0,1,3.347-2.064.217.217,0,1,1,.064.429,4.59,4.59,0,0,0-3.057,1.885.217.217,0,0,1-.177.092Z" transform="translate(-36.017 -27.75)"/>
  </g>
</svg>
