<svg xmlns="http://www.w3.org/2000/svg" width="27.562" height="15.75" viewBox="0 0 27.562 15.75">
  <defs>
    <style>
      .cls-1 {
        fill: #313131;
        fill-rule: evenodd;
      }
    </style>
  </defs>
  <path id="vk" class="cls-1" d="M15.808,13.219a28.79,28.79,0,0,1,5.706,0,1.079,1.079,0,0,1,1.072.914c0.42,1.087-.5,6.138.536,6.273,1.45-1.264,3.229-5.936,4.76-6.557a8.152,8.152,0,0,1,2.427-.158c0.845,0,2.658-.167,3.184.252,0.716,0.571-.287,1.709-0.567,2.144l-2.49,3.972a4.889,4.889,0,0,0-1.009,1.828c-0.087.609,0.763,1.578,1.639,2.553,0.757,0.843,1.526,1.713,1.828,2.081,0.338,0.412,1.409,1.274.567,1.892-0.486.357-2.034,0.284-2.806,0.284a8.185,8.185,0,0,1-2.932-.252c-1.458-.638-3.325-3.409-4.571-3.31-1.574.125,0,2.455-1.671,3.184-4.529,1.972-8.707-2.682-10.4-4.855a31.055,31.055,0,0,1-4.13-6.872c-0.239-.556-1.192-2.211-0.473-2.711,0.59-.41,3.846-0.237,4.413-0.126,0.843,0.164,2.111,3.085,2.743,4.1a9.307,9.307,0,0,0,1.891,2.238,1.5,1.5,0,0,0,1.135.6,1.223,1.223,0,0,0,.158-0.568,27.475,27.475,0,0,0-.158-5.391c-0.223-.578-1.013-0.993-0.977-1.355C15.7,13.222,15.757,13.227,15.808,13.219Z" transform="translate(-6.219 -13.063)"/>
</svg>
