<svg xmlns="http://www.w3.org/2000/svg" width="35.873" height="32.776" viewBox="0 0 35.873 32.776"><g transform="translate(-10 -15.612)"><path d="M44.294,42.876H11.579A1.58,1.58,0,0,1,10,41.3V17.191a1.581,1.581,0,0,1,1.579-1.579H44.294a1.581,1.581,0,0,1,1.579,1.579V41.3A1.58,1.58,0,0,1,44.294,42.876ZM11.579,16.164a1.028,1.028,0,0,0-1.027,1.027V41.3a1.028,1.028,0,0,0,1.027,1.027H44.294A1.028,1.028,0,0,0,45.321,41.3V17.191a1.028,1.028,0,0,0-1.027-1.027Z" transform="translate(0 0)"/><path d="M48.286,42.617H16.276A.276.276,0,0,1,16,42.341V21.888a.276.276,0,0,1,.276-.276h32.01a.276.276,0,0,1,.276.276V42.341A.276.276,0,0,1,48.286,42.617Zm-31.734-.552H48.01v-19.9H16.552Z" transform="translate(-4.344 -4.344)"/><path d="M45.6,96.285H10.276a.276.276,0,1,1,0-.552H45.6a.276.276,0,0,1,0,.552Z" transform="translate(0 -58.012)"/><path d="M67.408,116.813H58.95a.276.276,0,0,1-.276-.276v-3.849a.276.276,0,0,1,.276-.276h8.458a.276.276,0,0,1,.276.276v3.849A.276.276,0,0,1,67.408,116.813Zm-8.182-.552h7.906v-3.3H59.226Z" transform="translate(-35.243 -70.088)"/><path d="M63.241,128.575H49.651a.276.276,0,0,1-.276-.276,1.941,1.941,0,0,1,1.939-1.939H61.579a1.941,1.941,0,0,1,1.939,1.939.276.276,0,0,1-.277.276Zm-13.287-.552H62.938a1.389,1.389,0,0,0-1.359-1.112H51.314a1.389,1.389,0,0,0-1.359,1.112Z" transform="translate(-28.51 -80.187)"/><path d="M72.38,103.5a1,1,0,1,1,1-1A1,1,0,0,1,72.38,103.5Zm0-1.445a.446.446,0,1,0,.446.446.446.446,0,0,0-.446-.446Z" transform="translate(-44.444 -62.19)"/><path d="M74.017,51.927a.274.274,0,0,1-.2-.081l-3.639-3.639-1.147,1.581a.276.276,0,0,1-.491-.094l-1.51-6a.276.276,0,0,1,.335-.335l6,1.51a.276.276,0,0,1,.095.491L71.886,46.5l3.639,3.64a.276.276,0,0,1,0,.39l-1.313,1.313a.274.274,0,0,1-.2.081Zm-3.868-4.42a.276.276,0,0,1,.2.081l3.673,3.673.923-.923-3.672-3.673a.276.276,0,0,1,.033-.419l1.365-.99L67.681,44l1.253,4.983.99-1.365a.276.276,0,0,1,.2-.113Z" transform="translate(-41.29 -20.081)"/><path d="M52.156,33.8a.276.276,0,0,1-.276-.276,5.509,5.509,0,0,1,5.5-5.5.276.276,0,1,1,0,.552,4.956,4.956,0,0,0-4.95,4.95.276.276,0,0,1-.276.276Z" transform="translate(-30.323 -8.988)"/><path d="M56.552,36.986a.276.276,0,0,1-.276-.276,4.294,4.294,0,0,1,4.289-4.289.276.276,0,1,1,0,.552,3.742,3.742,0,0,0-3.737,3.737A.276.276,0,0,1,56.552,36.986Z" transform="translate(-33.506 -12.171)"/><path d="M60.947,40.168a.276.276,0,0,1-.276-.276,3.08,3.08,0,0,1,3.077-3.077.276.276,0,1,1,0,.552,2.528,2.528,0,0,0-2.525,2.525A.276.276,0,0,1,60.947,40.168Z" transform="translate(-36.688 -15.352)"/><path d="M52.394,78.121H25.443a.276.276,0,0,1,0-.552H52.394a.276.276,0,1,1,0,.552Z" transform="translate(-10.982 -44.86)"/><path d="M52.394,86.969H25.443a.276.276,0,0,1,0-.552H52.394a.276.276,0,1,1,0,.552Z" transform="translate(-10.982 -51.267)"/></g></svg>