<svg id="_025-instagram" data-name="025-instagram" xmlns="http://www.w3.org/2000/svg" width="19.193" height="19.193" viewBox="0 0 19.193 19.193">
  <path id="Path_1576" data-name="Path 1576" d="M2.811,19.193h13.57a2.815,2.815,0,0,0,2.811-2.811V2.811A2.815,2.815,0,0,0,16.381,0H2.811A2.815,2.815,0,0,0,0,2.811v13.57A2.815,2.815,0,0,0,2.811,19.193ZM1.125,2.811A1.689,1.689,0,0,1,2.811,1.125h13.57a1.689,1.689,0,0,1,1.687,1.687v13.57a1.689,1.689,0,0,1-1.687,1.687H2.811a1.689,1.689,0,0,1-1.687-1.687Zm0,0" fill="#fff"/>
  <path id="Path_1577" data-name="Path 1577" d="M126.061,131.121A5.061,5.061,0,1,0,121,126.061,5.066,5.066,0,0,0,126.061,131.121Zm0-9a3.936,3.936,0,1,1-3.936,3.936A3.94,3.94,0,0,1,126.061,122.125Zm0,0" transform="translate(-116.464 -116.464)" fill="#fff"/>
  <path id="Path_1578" data-name="Path 1578" d="M362.687,64.374A1.687,1.687,0,1,0,361,62.687,1.689,1.689,0,0,0,362.687,64.374Zm0-2.249a.562.562,0,1,1-.562.562A.563.563,0,0,1,362.687,62.125Zm0,0" transform="translate(-347.467 -58.713)" fill="#fff"/>
</svg>
