<svg xmlns="http://www.w3.org/2000/svg" width="37.219" height="37.531" viewBox="0 0 37.219 37.531">
  <defs>
    <style>
      .cls-1 {
        fill: #00bcd0;
        fill-rule: evenodd;
      }
    </style>
  </defs>
  <path id="list" class="cls-1" d="M18.318,0C19,0,21.295,1.889,21.905,2.328l0.784,0.594,0.855-.1c0.715-.1,3.953-0.572,4.347-0.309A26.685,26.685,0,0,1,29.7,6.342L30.076,7.2c0.77,0.6,4.395,1.576,4.68,2.233a26.093,26.093,0,0,1-.356,4.228l-0.1.879c0.25,0.839,3.094,3.609,2.922,4.371L34.3,22.994l0.1,0.855c0.1,0.712.57,3.956,0.309,4.347-0.492.737-3.763,1.455-4.632,2.138l-0.38.855a26.446,26.446,0,0,1-1.782,3.8c-0.381.279-3.617-.18-4.347-0.285l-0.879-.1-4.062,2.922c-0.79.188-3.554-2.661-4.394-2.922l-0.831.1c-0.711.1-3.981,0.574-4.371,0.309a2.245,2.245,0,0,1-.5-0.95L6.892,30.382l-0.808-.356A26.805,26.805,0,0,1,2.237,28.22c-0.281-.383.182-3.613,0.285-4.347l0.1-.879-2.922-4.086c-0.168-.761,2.657-3.539,2.922-4.371L2.142,9.478c0.245-.693,3.939-1.68,4.7-2.28L7.2,6.39c0.293-.669,1.4-3.634,1.877-3.9a26.583,26.583,0,0,1,4.276.333l0.879,0.1Zm6.746,13.207-7.7,7.7c-0.369.369-2.129,2.413-2.66,2.3a27.484,27.484,0,0,1-3.278-3.159l-0.071.024-0.808.808,0.024,0.047L14.8,25.156l0.071-.024L25.943,14.062Z"/>
</svg>
