<svg xmlns="http://www.w3.org/2000/svg" width="31.759" height="31.681" viewBox="0 0 31.759 31.681"><g transform="translate(-9.997 -10.158)"><path d="M41.511,98.867H10.242A.244.244,0,0,1,10,98.623V94.885a7.9,7.9,0,0,1,1.2-4.3c1.769-2.742,7-4.55,10.145-4.957a.244.244,0,1,1,.063.485c-3.054.4-8.113,2.127-9.8,4.738a7.411,7.411,0,0,0-1.126,4.04v3.493h30.78V94.886a7.412,7.412,0,0,0-1.124-4.039c-1.684-2.611-6.742-4.342-9.8-4.739a.244.244,0,1,1,.063-.485c3.148.408,8.376,2.216,10.145,4.958a7.9,7.9,0,0,1,1.2,4.306v3.738a.244.244,0,0,1-.244.244Z" transform="translate(0 -57.028)"/><path d="M58.031,90.932a.227.227,0,0,1-.054-.006.244.244,0,0,1-.168-.136L55.6,85.972a.244.244,0,0,1,.355-.307l4.5,2.915a.244.244,0,0,1,.024.393l-2.293,1.9A.244.244,0,0,1,58.031,90.932Zm-1.637-4.4L58.119,90.3,59.91,88.81Z" transform="translate(-34.447 -57.032)"/><path d="M76.539,90.932a.244.244,0,0,1-.156-.056l-2.293-1.9a.244.244,0,0,1,.024-.393l4.5-2.915a.244.244,0,0,1,.355.307L76.762,90.79a.244.244,0,0,1-.168.136.227.227,0,0,1-.055.006ZM74.658,88.81,76.449,90.3l1.725-3.764Z" transform="translate(-48.37 -57.032)"/><path d="M70.238,103.406a1.1,1.1,0,0,1-.785-.327l-.684-.691a.244.244,0,1,1,.347-.344l.684.691a.631.631,0,0,0,.875,0l.684-.691a.244.244,0,0,1,.347.344l-.684.691A1.1,1.1,0,0,1,70.238,103.406Z" transform="translate(-44.362 -69.385)"/><path d="M68.6,112.589a.244.244,0,0,1-.179-.078L66.6,110.554a.244.244,0,0,1-.058-.227l1.287-5.042a.244.244,0,1,1,.473.122l-1.254,4.913,1.554,1.666,1.551-1.667L68.9,105.406a.244.244,0,0,1,.473-.122l1.285,5.044a.244.244,0,0,1-.058.227l-1.821,1.957a.244.244,0,0,1-.179.078Z" transform="translate(-42.727 -71.749)"/><path d="M29.619,118.47a.244.244,0,0,1-.244-.244v-6.42a.244.244,0,0,1,.489,0v6.42A.244.244,0,0,1,29.619,118.47Z" transform="translate(-14.644 -76.632)"/><path d="M118.869,118.47a.244.244,0,0,1-.244-.244v-6.42a.244.244,0,0,1,.489,0v6.42A.244.244,0,0,1,118.869,118.47Z" transform="translate(-82.092 -76.632)"/><path d="M45.962,29.655H43.72a.244.244,0,0,1-.242-.21l-.3-2.054a7.627,7.627,0,0,1-2.461-1.019l-1.664,1.246a.244.244,0,0,1-.319-.023L37.152,26.01a.244.244,0,0,1-.023-.319l1.246-1.664a7.677,7.677,0,0,1-1.019-2.461l-2.054-.3a.244.244,0,0,1-.21-.242V18.785a.244.244,0,0,1,.21-.242l2.054-.3a7.678,7.678,0,0,1,1.019-2.46l-1.246-1.664a.244.244,0,0,1,.023-.319l1.586-1.586a.244.244,0,0,1,.319-.023l1.664,1.246a7.634,7.634,0,0,1,2.461-1.019l.3-2.054a.244.244,0,0,1,.242-.21h2.242a.244.244,0,0,1,.242.21l.3,2.054a7.668,7.668,0,0,1,2.46,1.019l1.661-1.246a.244.244,0,0,1,.319.022L52.53,13.8a.244.244,0,0,1,.023.32L51.3,15.787a7.55,7.55,0,0,1,1.019,2.461l2.057.3a.244.244,0,0,1,.21.242v2.242a.244.244,0,0,1-.21.242l-2.057.3A7.55,7.55,0,0,1,51.3,24.027l1.249,1.663a.244.244,0,0,1-.023.32L50.94,27.6a.244.244,0,0,1-.319.022l-1.661-1.246a7.666,7.666,0,0,1-2.46,1.019l-.3,2.054A.244.244,0,0,1,45.962,29.655Zm-2.031-.489H45.75l.29-2.013a.244.244,0,0,1,.194-.2,7.191,7.191,0,0,0,2.6-1.077.244.244,0,0,1,.282.008L50.745,27.1l1.29-1.287L50.81,24.183A.244.244,0,0,1,50.8,23.9a7.056,7.056,0,0,0,1.076-2.6.244.244,0,0,1,.2-.2l2.017-.29V19l-2.017-.29a.244.244,0,0,1-.2-.2,7.056,7.056,0,0,0-1.076-2.6.244.244,0,0,1,.007-.283L52.035,14l-1.29-1.287-1.628,1.221a.244.244,0,0,1-.282.008,7.192,7.192,0,0,0-2.6-1.077.244.244,0,0,1-.194-.2l-.29-2.013H43.931l-.29,2.014a.244.244,0,0,1-.194.2,7.152,7.152,0,0,0-2.6,1.077.244.244,0,0,1-.282-.007l-1.632-1.221L37.647,14l1.221,1.631a.244.244,0,0,1,.008.282,7.192,7.192,0,0,0-1.077,2.6.244.244,0,0,1-.2.194L35.581,19v1.819l2.013.29a.244.244,0,0,1,.2.194,7.192,7.192,0,0,0,1.077,2.6.244.244,0,0,1-.008.282l-1.221,1.631L38.933,27.1l1.632-1.221a.244.244,0,0,1,.282-.007,7.147,7.147,0,0,0,2.6,1.077.244.244,0,0,1,.194.2Z" transform="translate(-18.965)"/><path d="M59.144,39.334a5.125,5.125,0,1,1,5.124-5.125A5.125,5.125,0,0,1,59.144,39.334Zm0-9.761a4.636,4.636,0,1,0,4.636,4.636A4.636,4.636,0,0,0,59.144,29.573Z" transform="translate(-33.268 -14.303)"/><path d="M59.313,38.221H59.3a.244.244,0,0,1-.228-.26,3.909,3.909,0,0,1,3.11-3.569.244.244,0,1,1,.1.479,3.42,3.42,0,0,0-2.72,3.122A.244.244,0,0,1,59.313,38.221Z" transform="translate(-37.084 -18.309)"/></g></svg>