<svg xmlns="http://www.w3.org/2000/svg" width="24.904" height="24.903" viewBox="0 0 24.904 24.903"><defs><style>.a{fill:#fff;}</style></defs><g transform="translate(-509.516 93.393)"><g transform="translate(509.516 -93.392)"><g transform="translate(0 0)"><path class="a" d="M24.9,9.525a.392.392,0,0,0-.017-.084.415.415,0,0,0-.024-.071.373.373,0,0,0-.041-.064.391.391,0,0,0-.055-.064c-.007-.006-.01-.014-.017-.02l-3.992-3.1V2.908a1.245,1.245,0,0,0-1.245-1.245h-4.5l-1.8-1.4a1.231,1.231,0,0,0-1.514,0l-1.8,1.4H5.4A1.245,1.245,0,0,0,4.15,2.908V6.122L.16,9.222c-.007.006-.01.014-.017.02a.389.389,0,0,0-.055.064.37.37,0,0,0-.041.064.41.41,0,0,0-.024.071.393.393,0,0,0-.017.083c0,.009,0,.016,0,.025V23.662a1.231,1.231,0,0,0,.244.733s0,.008.006.012l.013.012a1.239,1.239,0,0,0,.981.489H23.659a1.239,1.239,0,0,0,.985-.491s.008-.005.011-.01,0-.008.006-.012a1.232,1.232,0,0,0,.244-.733V9.55C24.9,9.541,24.9,9.534,24.9,9.525ZM12.2.92a.4.4,0,0,1,.5,0l.958.743H11.248ZM1.35,24.078,12.2,15.647a.4.4,0,0,1,.5,0l10.856,8.431Zm22.725-.647L13.209,14.992a1.232,1.232,0,0,0-1.514,0L.83,23.43V10.182l6.8,5.282a.415.415,0,0,0,.509-.656L1.23,9.442l2.92-2.269V10.38a.415.415,0,1,0,.83,0V2.908A.415.415,0,0,1,5.4,2.493H19.508a.415.415,0,0,1,.415.415V10.38a.415.415,0,1,0,.83,0V7.173l2.92,2.269-6.922,5.375a.415.415,0,1,0,.509.656l6.814-5.291V23.43Z" transform="translate(-0.001 -0.004)"/><path class="a" d="M163.536,74.878v-1.66a4.981,4.981,0,1,0-4.981,4.981.415.415,0,0,0,0-.83,4.151,4.151,0,1,1,4.151-4.151v1.66a.83.83,0,1,1-1.66,0v-1.66a.415.415,0,0,0-.83,0,1.66,1.66,0,1,1-1.66-1.66.415.415,0,0,0,0-.83,2.49,2.49,0,1,0,1.678,4.326,1.656,1.656,0,0,0,3.3-.175Z" transform="translate(-146.104 -64.918)"/></g></g></g></svg>