<svg xmlns="http://www.w3.org/2000/svg" width="23.601" height="23.599" viewBox="0 0 23.601 23.599"><defs><style>.a{fill:#fff;}</style></defs><g transform="translate(-1 -1.018)"><g transform="translate(1 1.018)"><g transform="translate(0)"><path class="a" d="M23.982,19.224l-4.777-3.186a1.394,1.394,0,0,0-1.867.3l-1.391,1.789a.6.6,0,0,1-.763.16l-.265-.146a16,16,0,0,1-4.169-3.274A16.061,16.061,0,0,1,7.476,10.7l-.145-.265a.6.6,0,0,1,.157-.765L9.276,8.281a1.4,1.4,0,0,0,.3-1.867L6.394,1.637a1.387,1.387,0,0,0-1.87-.421l-2,1.2A2.818,2.818,0,0,0,1.242,4.084C.523,6.7,1.064,11.228,7.727,17.892c5.3,5.3,9.246,6.725,11.958,6.725a6.968,6.968,0,0,0,1.848-.241A2.815,2.815,0,0,0,23.2,23.091l1.2-2A1.387,1.387,0,0,0,23.982,19.224Zm-.257,1.467-1.2,2a2.033,2.033,0,0,1-1.2.93c-2.42.664-6.647.114-13.043-6.283S1.336,6.712,2,4.292a2.036,2.036,0,0,1,.931-1.2l2-1.2a.6.6,0,0,1,.811.182l1.73,2.6L8.923,6.851a.605.605,0,0,1-.131.81L7,9.053a1.376,1.376,0,0,0-.365,1.767l.142.258a16.684,16.684,0,0,0,3.409,4.35,16.7,16.7,0,0,0,4.349,3.409l.258.142a1.377,1.377,0,0,0,1.767-.365l1.391-1.788a.606.606,0,0,1,.81-.131l4.776,3.186A.6.6,0,0,1,23.725,20.691Z" transform="translate(-1 -1.018)"/><path class="a" d="M283.021,70.111a6.693,6.693,0,0,1,6.686,6.686.393.393,0,1,0,.787,0,7.481,7.481,0,0,0-7.473-7.473.393.393,0,1,0,0,.787Z" transform="translate(-269.648 -66.176)"/><path class="a" d="M283.021,121.311a4.331,4.331,0,0,1,4.326,4.326.393.393,0,0,0,.787,0,5.119,5.119,0,0,0-5.113-5.113.393.393,0,1,0,0,.787Z" transform="translate(-269.648 -115.016)"/><path class="a" d="M283.021,172.511a1.969,1.969,0,0,1,1.966,1.967.393.393,0,1,0,.787,0,2.756,2.756,0,0,0-2.753-2.753.393.393,0,1,0,0,.787Z" transform="translate(-269.648 -163.856)"/></g></g></g></svg>