<svg xmlns="http://www.w3.org/2000/svg" width="32.434" height="33" viewBox="0 0 32.434 33"><g transform="translate(-11.114 -9.997)"><path d="M42.629,132.406H11.368a.254.254,0,0,1-.254-.254v-2.076a.254.254,0,0,1,.254-.254H42.629a.254.254,0,0,1,.254.254v2.076A.254.254,0,0,1,42.629,132.406ZM11.622,131.9H42.375V130.33H11.622Z" transform="translate(0 -89.409)"/><path d="M42.629,113.943H11.368a.254.254,0,0,1-.214-.39l3.541-5.576a.254.254,0,0,1,.214-.118H19.2a.254.254,0,0,1,0,.508H15.049l-3.219,5.068H42.167l-3.219-5.068H34.739a.254.254,0,1,1,0-.508h4.348a.254.254,0,0,1,.214.118l3.541,5.576a.254.254,0,0,1-.214.39Z" transform="translate(0 -73.021)"/><path d="M105.479,35.166a.254.254,0,0,1-.254-.254V33.836a1.066,1.066,0,0,1-.811-1.034V28.956a1.066,1.066,0,0,1,1.065-1.065H112.1a1.066,1.066,0,0,1,1.065,1.065V32.8a1.066,1.066,0,0,1-1.065,1.065h-4.468l-2.019,1.261A.254.254,0,0,1,105.479,35.166Zm0-6.768a.558.558,0,0,0-.557.557V32.8a.558.558,0,0,0,.557.557.254.254,0,0,1,.254.254v.841l1.693-1.057a.254.254,0,0,1,.135-.039h4.54a.558.558,0,0,0,.557-.557V28.956a.558.558,0,0,0-.557-.557Z" transform="translate(-69.617 -13.352)"/><path d="M115.626,33.794h-5.445a.254.254,0,1,1,0-.508h5.445a.254.254,0,1,1,0,.508Z" transform="translate(-73.73 -17.377)"/><path d="M115.626,39.169h-5.445a.254.254,0,1,1,0-.508h5.445a.254.254,0,1,1,0,.508Z" transform="translate(-73.73 -21.388)"/><path d="M115.626,44.544h-5.445a.254.254,0,1,1,0-.508h5.445a.254.254,0,1,1,0,.508Z" transform="translate(-73.73 -25.399)"/><path d="M45.735,24.85a4.708,4.708,0,0,1-2.9-.98.254.254,0,0,1,.06-.42c1.456-.683,1.5-2.2,1.281-3.362a12.652,12.652,0,0,1,.089-5.642,5.369,5.369,0,0,1,1.882-3.12,6.678,6.678,0,0,1,4.99-1.213,3.944,3.944,0,0,1,2.408,1.712,2.889,2.889,0,0,1,2.083.435,4.7,4.7,0,0,1,1.689,3.623,9.938,9.938,0,0,1-.693,4.858c-.31.854.257,1.631,1.687,2.31a.254.254,0,0,1,.078.4c-.914,1-2.587,1.885-5.373.474a.254.254,0,0,1,.228-.453c2.267,1.148,3.689.627,4.527-.125-1.815-.969-1.9-2.037-1.626-2.781a9.587,9.587,0,0,0,.669-4.611,4.278,4.278,0,0,0-1.465-3.273,2.416,2.416,0,0,0-1.855-.33.255.255,0,0,1-.286-.112,3.43,3.43,0,0,0-2.188-1.634,6.27,6.27,0,0,0-4.588,1.138,4.884,4.884,0,0,0-1.675,2.829,12.153,12.153,0,0,0-.081,5.418c.33,1.735-.086,3.011-1.2,3.718a4.436,4.436,0,0,0,4.724-.062.254.254,0,1,1,.249.443A5.506,5.506,0,0,1,45.735,24.85Z" transform="translate(-23.608 0)"/><path d="M60.781,37.017a4.341,4.341,0,0,1-2.993-1.183,4.4,4.4,0,0,1-1.388-3.2V29.785a1.512,1.512,0,0,1,.8-1.348,3.224,3.224,0,0,1,.751-.311,3.962,3.962,0,0,1,1.053-.086c.116,0,.232,0,.346,0A5.022,5.022,0,0,0,61.1,27.7a1.878,1.878,0,0,0,.482-.233,3.469,3.469,0,0,0,.31-.245c.119-.108.24-.214.36-.321s.238-.209.357-.317c.022-.023.054-.051.085-.079s.051-.046.076-.071a.256.256,0,0,1,.259-.062,3.1,3.1,0,0,1,2.148,2.945v3.159a4.48,4.48,0,0,1-4.1,4.528Q60.93,37.017,60.781,37.017Zm-1.955-8.47a2.945,2.945,0,0,0-.749.072,2.782,2.782,0,0,0-.631.264,1.01,1.01,0,0,0-.539.9v2.848a3.876,3.876,0,0,0,4.14,3.868,3.971,3.971,0,0,0,3.624-4.021v-3.16a2.6,2.6,0,0,0-1.66-2.411c-.017.015-.034.031-.051.048-.13.118-.25.224-.371.33s-.238.21-.357.318a3.951,3.951,0,0,1-.355.282,2.324,2.324,0,0,1-.6.294,5.517,5.517,0,0,1-1.917.368c-.118,0-.239,0-.361,0h-.176Z" transform="translate(-33.79 -12.212)"/><path d="M53.874,90.266H41.131a1.3,1.3,0,0,1-1.287-1.108L38.6,80.967a1.3,1.3,0,0,1,1.287-1.5H55.111a1.3,1.3,0,0,1,1.287,1.5L55.16,89.159A1.3,1.3,0,0,1,53.874,90.266ZM39.892,79.977a.794.794,0,0,0-.786.914l1.239,8.192a.79.79,0,0,0,.786.676H53.874a.79.79,0,0,0,.786-.676L55.9,80.891a.794.794,0,0,0-.786-.914Z" transform="translate(-20.501 -51.837)"/><path d="M54.734,120.517H35.954a.254.254,0,1,1,0-.508h18.78a.254.254,0,1,1,0,.508Z" transform="translate(-18.345 -82.087)"/><path d="M69.255,97.811A1.509,1.509,0,1,1,70.764,96.3,1.509,1.509,0,0,1,69.255,97.811Zm0-2.51a1,1,0,1,0,1,1A1,1,0,0,0,69.255,95.3Z" transform="translate(-42.256 -63.271)"/><path d="M94.93,76.557a.254.254,0,0,1-.159-.452l1.757-1.414a2.536,2.536,0,0,0,.664-2.267l-.582-2.886a2.523,2.523,0,0,0-1.383-1.771l-3.372-1.581a.254.254,0,1,1,.216-.459l3.373,1.582a3.035,3.035,0,0,1,1.664,2.129l.582,2.887a3.044,3.044,0,0,1-.809,2.733l-.022.02L95.089,76.5A.252.252,0,0,1,94.93,76.557Z" transform="translate(-60.136 -41.565)"/><path d="M34.691,77.24a.254.254,0,0,1-.167-.062l-1.761-1.532A3.061,3.061,0,0,1,31.94,72.9l.586-2.887a3.014,3.014,0,0,1,1.659-2.128L37.14,66.5a.254.254,0,0,1,.216.46L34.4,68.342a2.505,2.505,0,0,0-1.378,1.769L32.437,73a2.546,2.546,0,0,0,.675,2.277l1.745,1.517a.254.254,0,0,1-.167.445Z" transform="translate(-15.496 -42.14)"/><path d="M57.485,69.12c-2.339,0-4.484-.88-5.463-2.241a.254.254,0,1,1,.412-.3c.887,1.233,2.87,2.031,5.051,2.031s4.161-.8,5.049-2.027a.254.254,0,0,1,.412.3C61.965,68.242,59.82,69.12,57.485,69.12Z" transform="translate(-30.484 -42.138)"/><path d="M47.34,108.559a.254.254,0,0,1-.251-.216l-.24-1.588a.254.254,0,0,1,.5-.076l.24,1.588a.254.254,0,0,1-.213.289A.243.243,0,0,1,47.34,108.559Z" transform="translate(-26.662 -71.979)"/><path d="M44.962,92.7a.254.254,0,0,1-.251-.216l-.5-3.3a.254.254,0,1,1,.5-.076l.5,3.3A.254.254,0,0,1,45,92.7.246.246,0,0,1,44.962,92.7Z" transform="translate(-24.695 -58.874)"/></g></svg>