<svg xmlns="http://www.w3.org/2000/svg" width="121.14" height="103.011" viewBox="0 0 121.14 103.011">
  <g id="rotated-right-arrow-with-broken-line" transform="translate(0.001 -27.545)">
    <g id="Group_146" data-name="Group 146" transform="translate(-0.001 27.545)">
      <path id="Path_1605" data-name="Path 1605" d="M13.519,32.418c-4.028-1.007-8.66.6-12.687,1.007a.909.909,0,0,0,0,1.812A44.467,44.467,0,0,0,13.519,34.23C14.325,33.827,14.325,32.619,13.519,32.418Z" transform="translate(0.001 -30.596)"/>
      <path id="Path_1606" data-name="Path 1606" d="M91.12,42.964c-2.819-2.819-7.25-3.424-10.875-3.222a.6.6,0,0,0,0,1.208,25.5,25.5,0,0,1,5.639,1.208c1.611.6,3.021,1.41,4.632,2.014C91.12,44.575,91.724,43.568,91.12,42.964Z" transform="translate(-53.434 -35.705)"/>
      <path id="Path_1607" data-name="Path 1607" d="M158.977,80.283a12.692,12.692,0,0,0-4.028-4.632,27.542,27.542,0,0,0-4.833-3.625.505.505,0,1,0-.6.806,26.909,26.909,0,0,1,4.229,4.028c1.41,1.41,2.417,3.222,3.826,4.632C158.171,82.3,159.379,81.29,158.977,80.283Z" transform="translate(-100.145 -57.316)"/>
      <path id="Path_1608" data-name="Path 1608" d="M187.851,134.342a.815.815,0,1,0-1.41.806c.4,1.007,1.007,2.215,1.41,3.222.4,1.41.2,2.819.805,4.028a.775.775,0,0,0,1.41,0C191.073,140.183,189.059,136.558,187.851,134.342Z" transform="translate(-124.992 -98.889)"/>
      <path id="Path_1609" data-name="Path 1609" d="M203.175,198.338a27.546,27.546,0,0,0-.4-5.84c-.2-1.007-1.41-1.007-1.41,0a45.52,45.52,0,0,0-.2,5.236c0,1.812-.4,3.625.2,5.437a.982.982,0,0,0,1.812,0A12.988,12.988,0,0,0,203.175,198.338Z" transform="translate(-134.879 -137.712)"/>
      <path id="Path_1610" data-name="Path 1610" d="M181.736,264.478a40.648,40.648,0,0,1-2.819,6.041c-1.007,1.813-2.417,3.625-2.618,5.639-.2,1.007,1.208,1.208,1.812.805,1.611-1.409,2.417-3.826,3.222-5.84a23.667,23.667,0,0,0,2.014-6.041C183.548,263.874,181.937,263.471,181.736,264.478Z" transform="translate(-118.272 -186.13)"/>
      <path id="Path_1611" data-name="Path 1611" d="M149.387,312.256c-1.208,1.409-2.417,3.021-3.625,4.229a8.941,8.941,0,0,1-2.215,1.611c-.806.4-1.208.4-1.812,1.208a1.113,1.113,0,0,0,.6,1.611c1.812.4,3.424-1.41,4.632-2.618a24.873,24.873,0,0,0,3.424-5.437C150.6,312.256,149.79,311.652,149.387,312.256Z" transform="translate(-94.986 -218.401)"/>
      <path id="Path_1612" data-name="Path 1612" d="M104.441,327.845a5.713,5.713,0,0,1-3.424,1.41c-1.007,0-2.215-.2-3.021.6a.973.973,0,0,0,0,1.41c2.014,2.013,6.042-.806,7.25-2.417C105.65,328.247,105.046,327.442,104.441,327.845Z" transform="translate(-65.547 -228.955)"/>
      <path id="Path_1613" data-name="Path 1613" d="M57.258,303.962a22.866,22.866,0,0,1-5.035-1.208c-1.812-.805-2.618-2.215-3.625-3.826a1.1,1.1,0,0,0-2.014.6c-.2,5.437,6.646,6.444,10.673,5.84C57.862,305.171,57.862,303.962,57.258,303.962Z" transform="translate(-31.252 -209.302)"/>
      <path id="Path_1614" data-name="Path 1614" d="M41.093,254.7c-1.611-3.021-1.208-6.042-1.812-9.264a.839.839,0,0,0-1.611,0,13.31,13.31,0,0,0,2.417,9.868C40.489,255.911,41.3,255.508,41.093,254.7Z" transform="translate(-25.157 -173.333)"/>
      <path id="Path_1615" data-name="Path 1615" d="M42.2,169.016c-3.625,3.424-4.43,8.458-4.229,13.09,0,.806,1.41.806,1.41,0A21.072,21.072,0,0,1,43.4,170.225.855.855,0,1,0,42.2,169.016Z" transform="translate(-25.454 -122.286)"/>
      <path id="Path_1616" data-name="Path 1616" d="M68.415,125.307c-3.625,1.812-6.444,5.236-8.66,8.66-.6.806.806,1.611,1.208.806,2.417-3.021,5.437-5.437,8.257-8.055C70.026,125.911,69.22,124.9,68.415,125.307Z" transform="translate(-39.993 -93.076)"/>
      <path id="Path_1617" data-name="Path 1617" d="M105.925,90c-2.819,0-6.042,2.417-7.854,4.43a.854.854,0,0,0,1.208,1.208A13.23,13.23,0,0,1,102.7,93.22a32.856,32.856,0,0,0,3.826-1.812C107.134,91,106.529,90,105.925,90Z" transform="translate(-65.622 -69.447)"/>
      <path id="Path_1618" data-name="Path 1618" d="M181.538,64.294a40.324,40.324,0,0,0-4.833.806,27.5,27.5,0,0,0-5.84,1.41.831.831,0,0,0,.4,1.611,54.284,54.284,0,0,1,5.639-.806c1.611-.2,3.625-.2,5.035-1.208A.945.945,0,0,0,181.538,64.294Z" transform="translate(-114.249 -52.201)"/>
      <path id="Path_1619" data-name="Path 1619" d="M239.762,57.641c-2.618-.6-5.84,0-8.66.2a.707.707,0,1,0,0,1.41c2.819.2,5.84.806,8.66.2A.921.921,0,0,0,239.762,57.641Z" transform="translate(-154.549 -47.562)"/>
      <path id="Path_1620" data-name="Path 1620" d="M296.677,60.721a14.929,14.929,0,0,0-4.229-.2,32.63,32.63,0,0,0-4.43.2.807.807,0,0,0,0,1.611,32.626,32.626,0,0,1,4.43.2,14.93,14.93,0,0,0,4.229-.2C297.483,62.332,297.483,61.123,296.677,60.721Z" transform="translate(-192.736 -49.635)"/>
      <path id="Path_1621" data-name="Path 1621" d="M331.753,39.235a90.3,90.3,0,0,0-8.055-7.25c-2.014-1.611-5.035-4.632-7.653-4.43a1.474,1.474,0,0,0-1.208,2.215c1.208,2.014,4.028,3.222,5.84,4.43a82.457,82.457,0,0,1,6.646,5.639,129.836,129.836,0,0,0-11.882,5.84c-1.208.6-.4,2.819,1.007,2.417,5.035-1.611,9.465-4.833,14.7-5.84C332.357,42.054,332.559,40.242,331.753,39.235Z" transform="translate(-211.097 -27.545)"/>
    </g>
  </g>
</svg>
