<svg id="surface1" xmlns="http://www.w3.org/2000/svg" width="23.228" height="25.532" viewBox="0 0 23.228 25.532">
  <path id="Path_3848" data-name="Path 3848" d="M17.4,11.052V6.221a.559.559,0,0,0-.154-.367L11.829.165A.54.54,0,0,0,11.441,0H2.852A2.862,2.862,0,0,0,0,2.879V19.12a2.843,2.843,0,0,0,2.852,2.858h6.78A7.318,7.318,0,1,0,17.4,11.052ZM11.973,1.868l3.634,3.826H13.25a1.285,1.285,0,0,1-1.277-1.282ZM2.852,20.913A1.783,1.783,0,0,1,1.064,19.12V2.879A1.8,1.8,0,0,1,2.852,1.064h8.057V4.411A2.346,2.346,0,0,0,13.25,6.758h3.086v4.156c-.16-.005-.287-.021-.426-.021a7.425,7.425,0,0,0-4.853,1.831H4.3a.532.532,0,1,0,0,1.064h5.768a8.467,8.467,0,0,0-.937,1.65H4.3a.532.532,0,0,0,0,1.064H8.786A7.3,7.3,0,0,0,9.1,20.918H2.852Zm13.053,3.56a6.253,6.253,0,1,1,6.252-6.253A6.259,6.259,0,0,1,15.906,24.473Zm0,0"/>
  <path id="Path_3849" data-name="Path 3849" d="M76.083,202.748h5.39a.532.532,0,1,0,0-1.064h-5.39a.532.532,0,1,0,0,1.064Zm0,0" transform="translate(-71.783 -191.627)"/>
  <path id="Path_3850" data-name="Path 3850" d="M252.045,287.2l-2.187,2.357v-5.811a.532.532,0,0,0-1.064,0v5.811l-2.2-2.357a.537.537,0,0,0-.756-.027.53.53,0,0,0-.027.75l3.113,3.347a.528.528,0,0,0,.777,0l3.118-3.347a.529.529,0,1,0-.772-.724Zm0,0" transform="translate(-233.415 -269.088)"/>
</svg>
