<svg id="share" xmlns="http://www.w3.org/2000/svg" width="18.917" height="20.637" viewBox="0 0 18.917 20.637">
  <path id="Path_3837" data-name="Path 3837" d="M312.557,6.449a3.225,3.225,0,1,1,3.225-3.225A3.229,3.229,0,0,1,312.557,6.449Zm0-5.159a1.935,1.935,0,1,0,1.935,1.935A1.937,1.937,0,0,0,312.557,1.29Zm0,0" transform="translate(-296.864)"/>
  <path id="Path_3838" data-name="Path 3838" d="M312.557,358.449a3.225,3.225,0,1,1,3.225-3.225A3.229,3.229,0,0,1,312.557,358.449Zm0-5.159a1.935,1.935,0,1,0,1.935,1.935A1.937,1.937,0,0,0,312.557,353.29Zm0,0" transform="translate(-296.864 -337.812)"/>
  <path id="Path_3839" data-name="Path 3839" d="M3.225,182.449a3.225,3.225,0,1,1,3.225-3.225A3.228,3.228,0,0,1,3.225,182.449Zm0-5.159a1.935,1.935,0,1,0,1.935,1.935A1.937,1.937,0,0,0,3.225,177.29Zm0,0" transform="translate(0 -168.906)"/>
  <path id="Path_3840" data-name="Path 3840" d="M120.335,101.4a.645.645,0,0,1-.32-1.2l7.979-4.549a.645.645,0,0,1,.638,1.121l-7.979,4.549a.646.646,0,0,1-.318.084Zm0,0" transform="translate(-114.865 -91.708)"/>
  <path id="Path_3841" data-name="Path 3841" d="M128.333,277.388a.639.639,0,0,1-.318-.085l-7.979-4.549a.645.645,0,0,1,.638-1.12l7.979,4.549a.645.645,0,0,1-.32,1.206Zm0,0" transform="translate(-114.886 -260.603)"/>
</svg>
