<svg xmlns="http://www.w3.org/2000/svg" width="67.563" height="18" viewBox="0 0 67.563 18">
  <defs>
    <style>
      .cls-1 {
        fill-rule: evenodd;
      }
    </style>
  </defs>
  <path id="_2" data-name="2" class="cls-1" d="M98,109h63a2.077,2.077,0,0,1,2,2.352c0,1.3-.7,2.648-2,2.648H98a2.817,2.817,0,0,1-2.572-2.648A2.55,2.55,0,0,1,98,109Zm24,13h39a2.077,2.077,0,0,1,2,2.352c0,1.3-.7,2.648-2,2.648H122a2.817,2.817,0,0,1-2.572-2.648A2.55,2.55,0,0,1,122,122Z" transform="translate(-95.438 -109)"/>
</svg>
