<svg xmlns="http://www.w3.org/2000/svg" width="36.038" height="33" viewBox="0 0 36.038 33">
  <g id="_011-monitor_screen" data-name="011-monitor screen" transform="translate(-10 -15.479)">
    <path id="Path_1280" data-name="Path 1280" d="M43.824,43.126H12.214A2.218,2.218,0,0,1,10,40.913V17.693a2.218,2.218,0,0,1,2.214-2.214h31.61a2.218,2.218,0,0,1,2.214,2.214v23.22A2.218,2.218,0,0,1,43.824,43.126ZM12.214,16.033a1.661,1.661,0,0,0-1.659,1.659v23.22a1.661,1.661,0,0,0,1.659,1.659h31.61a1.661,1.661,0,0,0,1.659-1.659V17.693a1.661,1.661,0,0,0-1.659-1.659Z" transform="translate(0)"/>
    <path id="Path_1281" data-name="Path 1281" d="M66.055,117.459H55.824a.277.277,0,0,1-.266-.356l1.1-3.693a.277.277,0,0,1,.266-.2h8.022a.277.277,0,0,1,.266.2l1.1,3.693a.277.277,0,0,1-.266.356ZM56.2,116.9h9.486l-.938-3.138h-7.61Z" transform="translate(-32.921 -70.64)"/>
    <path id="Path_1282" data-name="Path 1282" d="M62.779,128.747H48.471a.277.277,0,0,1-.277-.277,1.94,1.94,0,0,1,1.937-1.937H61.119a1.94,1.94,0,0,1,1.937,1.937A.277.277,0,0,1,62.779,128.747Zm-14-.554h13.7a1.386,1.386,0,0,0-1.355-1.106H50.131A1.386,1.386,0,0,0,48.776,128.193Z" transform="translate(-27.606 -80.268)"/>
    <path id="Path_1283" data-name="Path 1283" d="M45.761,94.681H10.277a.277.277,0,1,1,0-.554H45.761a.277.277,0,1,1,0,.554Z" transform="translate(0 -56.846)"/>
    <path id="Path_1284" data-name="Path 1284" d="M60.655,32.979H43.7a.277.277,0,0,1-.235-.424l2-3.2a.277.277,0,0,1,.235-.13H58.653a.277.277,0,0,1,.235.13l2,3.2a.277.277,0,0,1-.235.424ZM44.2,32.424h15.95L58.5,29.775H45.861Z" transform="translate(-24.161 -9.933)"/>
    <path id="Path_1285" data-name="Path 1285" d="M68.754,32.979H61.878a.277.277,0,0,1-.253-.39l1.433-3.2a.277.277,0,0,1,.253-.164h4.009a.277.277,0,0,1,.253.164l1.433,3.2a.277.277,0,0,1-.253.39Zm-6.45-.554h6.022l-1.185-2.649H63.49Z" transform="translate(-37.296 -9.933)"/>
    <path id="Path_1286" data-name="Path 1286" d="M52.179,52.855a.277.277,0,0,1-.223-.113L43.48,41.219a.277.277,0,0,1,.222-.442H60.653a.277.277,0,0,1,.223.442L52.4,52.742A.277.277,0,0,1,52.179,52.855ZM44.251,41.331,52.179,52.11l7.928-10.778Z" transform="translate(-24.16 -18.285)"/>
    <path id="Path_1287" data-name="Path 1287" d="M65.315,52.855a.277.277,0,0,1-.266-.2L61.612,41.134a.277.277,0,0,1,.266-.356h6.878a.277.277,0,0,1,.266.356L65.583,52.657a.277.277,0,0,1-.268.2ZM62.248,41.331l3.067,10.277,3.067-10.277Z" transform="translate(-37.296 -18.285)"/>
    <path id="Path_1288" data-name="Path 1288" d="M16.277,76.742A.277.277,0,0,1,16,76.465V72.377a.277.277,0,1,1,.554,0v4.089A.277.277,0,0,1,16.277,76.742Z" transform="translate(-4.337 -40.925)"/>
    <path id="Path_1289" data-name="Path 1289" d="M16.277,40.451A.277.277,0,0,1,16,40.173V30.123a.277.277,0,1,1,.554,0v10.05A.277.277,0,0,1,16.277,40.451Z" transform="translate(-4.337 -10.384)"/>
  </g>
</svg>
