<svg xmlns="http://www.w3.org/2000/svg" width="91" height="89.635" viewBox="0 0 91 89.635"><g transform="translate(0 -3.841)"><path d="M17.77,11.146h9.714V8.254a4.413,4.413,0,0,1,8.827,0v2.892h9.709V8.254a4.414,4.414,0,0,1,8.827,0v2.892h9.713V8.29a4.414,4.414,0,0,1,8.827,0v2.857h1.461a7.491,7.491,0,0,1,7.482,7.476v13.89a1.335,1.335,0,0,1-2.67,0V28.669H44.185a1.333,1.333,0,1,1,0-2.665H79.659V18.623a4.825,4.825,0,0,0-4.812-4.811H73.386v2.852a4.414,4.414,0,0,1-8.827,0V13.812H54.845v2.816a4.414,4.414,0,0,1-8.827,0V13.812H36.31v2.816a4.413,4.413,0,0,1-8.827,0V13.812H17.77v2.816a4.413,4.413,0,0,1-8.827,0V13.812H7.477a4.834,4.834,0,0,0-4.811,4.811V26H38.144a1.333,1.333,0,1,1,0,2.665H2.665V68.033a1.333,1.333,0,0,1-2.665,0V18.623a7.491,7.491,0,0,1,7.476-7.477H8.943V8.255a4.414,4.414,0,0,1,8.827,0ZM70.893,62.959a1.333,1.333,0,0,1,2.665,0V74.7a1.311,1.311,0,0,1-.378.927l-8.147,9.582A1.33,1.33,0,1,1,63,83.49l7.89-9.275Zm-8.127-1.3A1.331,1.331,0,1,1,61.2,59.5a18.782,18.782,0,0,1,18.455-2.046v-18.9a1.335,1.335,0,0,1,2.67,0V58.868A18.911,18.911,0,0,1,85.5,61.422,18.777,18.777,0,1,1,55.682,83.586H6.933A6.941,6.941,0,0,1,0,76.658v-2.59a1.333,1.333,0,0,1,2.665,0v2.59A4.284,4.284,0,0,0,6.933,80.92H54.5a18.764,18.764,0,0,1,2.192-16.772,1.329,1.329,0,1,1,2.2,1.5A15.92,15.92,0,0,0,56.116,74.7a16.133,16.133,0,1,0,6.65-13.044ZM56.932,34.327H72.671a1.333,1.333,0,0,1,1.335,1.33V51.4a1.334,1.334,0,0,1-1.335,1.335H56.932A1.334,1.334,0,0,1,55.6,51.4V35.657a1.333,1.333,0,0,1,1.335-1.33Zm14.409,2.665H58.267V50.067H71.341ZM33.292,56.858H49.032a1.334,1.334,0,0,1,1.335,1.335V73.933a1.334,1.334,0,0,1-1.335,1.335H33.292a1.333,1.333,0,0,1-1.33-1.335V58.193A1.333,1.333,0,0,1,33.292,56.858ZM47.7,59.528H34.628V72.6H47.7Zm-14.409-25.2H49.032a1.33,1.33,0,0,1,1.335,1.33V51.4a1.331,1.331,0,0,1-1.335,1.335H33.292a1.33,1.33,0,0,1-1.33-1.335V35.657a1.329,1.329,0,0,1,1.33-1.33ZM47.7,36.992H34.628V50.067H47.7ZM9.653,56.858H25.4a1.333,1.333,0,0,1,1.33,1.335V73.933a1.333,1.333,0,0,1-1.33,1.335H9.653a1.333,1.333,0,0,1-1.33-1.335V58.193a1.333,1.333,0,0,1,1.33-1.335Zm14.409,2.67H10.988V72.6H24.062ZM9.653,34.327H25.4a1.329,1.329,0,0,1,1.33,1.33V51.4a1.33,1.33,0,0,1-1.33,1.335H9.653A1.33,1.33,0,0,1,8.323,51.4V35.657a1.329,1.329,0,0,1,1.33-1.33Zm14.409,2.665H10.988V50.067H24.062ZM68.973,6.546A1.754,1.754,0,0,0,67.225,8.29v8.374a1.746,1.746,0,0,0,3.492,0V8.29a1.755,1.755,0,0,0-1.743-1.743ZM14.591,7.02a1.748,1.748,0,0,0-2.983,1.234v8.374a1.748,1.748,0,0,0,3.5,0V8.254A1.745,1.745,0,0,0,14.591,7.02ZM31.9,6.506a1.754,1.754,0,0,0-1.748,1.748v8.374a1.746,1.746,0,0,0,3.491,0V8.254A1.755,1.755,0,0,0,31.9,6.506Zm18.535,0a1.755,1.755,0,0,0-1.748,1.748v8.374a1.748,1.748,0,0,0,3.5,0V8.254a1.755,1.755,0,0,0-1.748-1.748Z"/></g></svg>