<svg xmlns="http://www.w3.org/2000/svg" width="25.197" height="14.961" viewBox="0 0 25.197 14.961">
  <path id="_020-vk" data-name="020-vk" d="M22.477,10.42l-.014-.013c-.215-.2-.874-.84-1.1-1.12a.707.707,0,0,1-.005-.922c.247-.434.742-1.1,1.266-1.8,1.678-2.256,2.761-3.819,2.538-4.928l-.12-.593-6.2,0a16.668,16.668,0,0,1-1.71,3.9c-.989,1.754-1.638,2.3-1.867,2.4l-.035-.011a1.858,1.858,0,0,1-.258-.979,16.835,16.835,0,0,1,.042-2.264,9.915,9.915,0,0,0-.011-2.281L14.821.882A12.415,12.415,0,0,0,11.441.5c-2.008-.021-2.6.27-2.888.525L7.6,1.87l1.211.408c.461.155.614.334.74,1.221a11.1,11.1,0,0,1,.036,2.418C9.455,7.161,9.15,7.392,9.135,7.4c-.052-.018-.5-.213-1.27-1.846C7.329,4.426,6.859,3.086,6.515,2.107,6.123.986,6.193,1.225,5.994.7H0l.388,1C2,5.886,3.488,9.157,5.474,11.505a10.578,10.578,0,0,0,8.594,3.954h.738v-.738a5.173,5.173,0,0,1,.18-1.564,3.882,3.882,0,0,1,.279-.618c.155-.293.306-.418.389-.437a.538.538,0,0,1,.353.147,6.453,6.453,0,0,1,1.1,1.159,5.83,5.83,0,0,0,1.869,1.7,4.7,4.7,0,0,0,1.752.349H25.2l-.032-.769c-.047-1.149-.952-2.586-2.688-4.271Zm-1.716,3.563h-.012a3.53,3.53,0,0,1-1.1-.188,4.571,4.571,0,0,1-1.392-1.316,7.67,7.67,0,0,0-1.37-1.414,2,2,0,0,0-1.207-.443,1.6,1.6,0,0,0-.353.039,2.1,2.1,0,0,0-1.371,1.189,4.65,4.65,0,0,0-.6,2.112A9.041,9.041,0,0,1,6.6,10.552,30.465,30.465,0,0,1,2.157,2.171H4.973c.046.13.1.273.149.424A36.657,36.657,0,0,0,6.6,6.329c.855,1.765,1.636,2.552,2.532,2.552a1.506,1.506,0,0,0,1.16-.548,4.4,4.4,0,0,0,.789-2.581,12.773,12.773,0,0,0-.07-2.459,3.985,3.985,0,0,0-.365-1.3,17.944,17.944,0,0,1,2.925.136A10.317,10.317,0,0,1,13.547,4c-.108,1.77-.219,3.6.718,4.45a1.553,1.553,0,0,0,.344.234l.477.146c.184-.057,1.25.484,3.267-3.037a25.788,25.788,0,0,0,1.572-3.277c.752,0,3.312,0,3.613,0a21.6,21.6,0,0,1-2.1,3.164,22.515,22.515,0,0,0-1.364,1.954,2.151,2.151,0,0,0,.114,2.547l.009.012a16.476,16.476,0,0,0,1.254,1.292,9.636,9.636,0,0,1,2,2.5H20.761Zm0,0" transform="translate(0.001 -0.499)" fill="#fff"/>
</svg>
