<svg xmlns="http://www.w3.org/2000/svg" width="237.913" height="31.803" viewBox="0 0 237.913 31.803"><defs><style>.a{fill:#00bcd0;}</style></defs><g transform="translate(-140 -41.098)"><path d="M2.49,10.49V-20.874H15.869q8.949,0,8.949,7.523,0,6.119-8.751,9.058L26.836,10.49H21.484L11.5-3.613V-6.267Q20.5-7.693,20.5-13.176q0-4.343-5-4.343H6.548V10.49Zm31.8-15.77q0,12.7,11.471,12.7,11.23,0,11.23-12.7,0-12.524-11.23-12.524Q34.293-17.8,34.293-5.28Zm-4.277.132q0-15.945,15.748-15.945,15.507,0,15.507,15.945,0,15.858-15.507,15.858Q30.016,10.709,30.016-5.148ZM91.32,9.393a28.284,28.284,0,0,1-8.773,1.316q-16.45,0-16.45-16.34,0-15.463,16.45-15.463a28.284,28.284,0,0,1,8.773,1.316v3.509A23.367,23.367,0,0,0,82.985-17.8q-12.831,0-12.831,12.173,0,13.05,12.831,13.05A23.367,23.367,0,0,0,91.32,5.884ZM101.19-5.28q0,12.7,11.471,12.7,11.23,0,11.23-12.7,0-12.524-11.23-12.524Q101.19-17.8,101.19-5.28Zm-4.277.132q0-15.945,15.748-15.945,15.507,0,15.507,15.945,0,15.858-15.507,15.858Q96.913,10.709,96.913-5.148ZM134.528,10.49V-20.874h4.058L157.777,4.393V-20.874h3.838V10.49h-4.058L138.367-15V10.49Zm55.71-31.364v3.29h-9.87V10.49h-4.058V-17.584h-9.87v-3.29Z" transform="translate(187.674 62.192)"/><g transform="translate(140 41.098)"><path d="M27.177,10.856v-31.8H13.61q-9.074,0-9.074,7.628,0,6.2,8.874,9.185L2.49,10.856H7.917l10.119-14.3V-6.135Q8.918-7.581,8.918-13.141q0-4.4,5.071-4.4h9.074v28.4Z" transform="translate(-2.49 20.947)"/><path class="a" d="M2.49,10.856v-31.8H16.057q9.074,0,9.074,7.628,0,6.2-8.874,9.185l10.92,14.99H21.75L11.209-3.441V-6.132c6.079-.964,9.541-3.3,9.541-7.009q0-4.4-5.071-4.4H6.6v28.4Z" transform="translate(9.366 20.947)"/></g></g></svg>