<svg xmlns="http://www.w3.org/2000/svg" width="86.169" height="91" viewBox="0 0 86.169 91">
  <g id="rating" transform="translate(-13.589)">
    <path id="Path_3862" data-name="Path 3862" d="M379.273,132.686a1.754,1.754,0,0,0,1.581-.017c1.416-.738,6.041-3.436,6.094-7.147a4.463,4.463,0,0,0-6.894-3.752,4.42,4.42,0,0,0-2.422-.72,4.6,4.6,0,0,0-4.478,4.426C373.077,129.327,377.818,131.968,379.273,132.686Zm-1.653-8.97h.012a1.78,1.78,0,0,1,1.224.491h0a1.751,1.751,0,0,0,2.389,0,1.8,1.8,0,0,1,3.037,1.275c-.025,1.757-2.514,3.617-4.248,4.6-1.752-.943-4.251-2.76-4.215-4.551A1.892,1.892,0,0,1,377.62,123.716Z" transform="translate(-295.658 -99.534)"/>
    <path id="Path_3863" data-name="Path 3863" d="M67.134,132.686a1.754,1.754,0,0,0,1.581-.017c1.416-.738,6.041-3.436,6.095-7.147a4.464,4.464,0,0,0-6.894-3.752,4.422,4.422,0,0,0-2.454-.72,4.529,4.529,0,0,0-4.446,4.426c-.077,3.852,4.663,6.493,6.119,7.211Zm-1.653-8.97h.012a1.779,1.779,0,0,1,1.224.491h0a1.751,1.751,0,0,0,2.389,0,1.8,1.8,0,0,1,3.037,1.275c-.025,1.757-2.514,3.617-4.248,4.6-1.752-.943-4.251-2.76-4.215-4.551A1.891,1.891,0,0,1,65.481,123.715Z" transform="translate(-38.997 -99.534)"/>
    <path id="Path_3864" data-name="Path 3864" d="M25.98,37.265h4.289a.57.57,0,0,1,.405.167l2.9,2.9a2.293,2.293,0,0,0,3.218.011l2.959-2.911a.57.57,0,0,1,.4-.165h4.237A4.77,4.77,0,0,0,49.158,32.5v-5a6.072,6.072,0,0,0,2.07.362h5.747a1.528,1.528,0,0,1,1.146.518l2.906,3.3a2.669,2.669,0,0,0,1.992.9h.011a2.669,2.669,0,0,0,1.988-.889l2.976-3.326a1.528,1.528,0,0,1,1.138-.509h5.683a6.076,6.076,0,0,0,1.879-.3V32.5a4.77,4.77,0,0,0,4.765,4.765h4.289a.57.57,0,0,1,.405.167l2.9,2.9a2.293,2.293,0,0,0,3.218.011l2.959-2.912a.57.57,0,0,1,.4-.165h4.237a4.77,4.77,0,0,0,4.765-4.765V20.131a4.77,4.77,0,0,0-4.765-4.765H80.913V6.1a6.106,6.106,0,0,0-6.1-6.1H63.954a1.333,1.333,0,0,0,0,2.666h10.86A3.437,3.437,0,0,1,78.247,6.1V21.766A3.437,3.437,0,0,1,74.814,25.2H69.13a4.2,4.2,0,0,0-3.125,1.4l-2.978,3.326-2.906-3.3A4.194,4.194,0,0,0,56.975,25.2H51.228a3.437,3.437,0,0,1-3.433-3.433V6.1a3.437,3.437,0,0,1,3.433-3.433h6.506a1.333,1.333,0,1,0,0-2.666H51.228a6.106,6.106,0,0,0-6.1,6.1v9.268H25.98a4.77,4.77,0,0,0-4.765,4.765V32.5A4.77,4.77,0,0,0,25.98,37.265ZM99.871,18.033a2.1,2.1,0,0,1,2.1,2.1V32.5a2.1,2.1,0,0,1-2.1,2.1H95.634a3.22,3.22,0,0,0-2.272.93l-2.691,2.648-2.637-2.631a3.218,3.218,0,0,0-2.288-.946H81.457a2.1,2.1,0,0,1-2.1-2.1V25.827a6.074,6.074,0,0,0,1.554-4.062V18.033H99.871Zm-75.99,2.1a2.1,2.1,0,0,1,2.1-2.1H45.129v3.733A6.07,6.07,0,0,0,46.492,25.6v6.9a2.1,2.1,0,0,1-2.1,2.1H40.156a3.221,3.221,0,0,0-2.272.93l-2.691,2.648-2.637-2.631a3.218,3.218,0,0,0-2.288-.946H25.98a2.1,2.1,0,0,1-2.1-2.1V20.131Z" transform="translate(-6.271)"/>
    <path id="Path_3865" data-name="Path 3865" d="M200.9,42.545c-.111,5.489,6.853,9.356,8.989,10.409a1.976,1.976,0,0,0,1.782-.019c2.084-1.086,8.891-5.043,8.967-10.344a6.137,6.137,0,0,0-9.867-4.875,6.1,6.1,0,0,0-3.757-1.263,6.23,6.23,0,0,0-6.115,6.092Zm6.134-3.426h.025a3.439,3.439,0,0,1,2.366.947h0a1.972,1.972,0,0,0,2.692,0,3.474,3.474,0,0,1,5.857,2.487c-.042,2.951-3.846,6.029-7.221,7.852-3.424-1.755-7.248-4.784-7.187-7.806A3.591,3.591,0,0,1,207.03,39.119Z" transform="translate(-154.015 -29.973)"/>
    <path id="Path_3866" data-name="Path 3866" d="M98.953,238.617V219.2a14.5,14.5,0,0,0-21.107-12.9,1.333,1.333,0,1,0,1.218,2.371,11.7,11.7,0,0,1,5.4-1.3A11.84,11.84,0,0,1,96.287,219.2v17.065c-.036-.016-.071-.034-.108-.049h0l-6.713-2.766v-2.606A15.772,15.772,0,0,0,94,220.4c0-4.867-2.167-8.691-5.8-10.229a1.335,1.335,0,0,0-1.033,0,1.387,1.387,0,0,0-.79.946,9.616,9.616,0,0,1-7.366,7.33l-3.051.653a1.546,1.546,0,0,0-1.051,1.57,15.809,15.809,0,0,0,4.537,10.2v2.589l-5.3,2.185a6.639,6.639,0,0,0-1.518-1.371V219.2a11.752,11.752,0,0,1,2.136-6.781,1.333,1.333,0,1,0-2.183-1.53,14.4,14.4,0,0,0-2.619,8.312v13.83l-7.295-3.006v-5.064c3.34-2.705,5.318-7.572,5.686-12.36,1.748-1.254,2.768-3.791,3.332-5.821a4.945,4.945,0,0,0-.649-4.072,4.886,4.886,0,0,0-2.008-1.723,5.112,5.112,0,0,0,.06-1.359,5.063,5.063,0,0,0-7.216-4.115,5.867,5.867,0,0,0-8.031-2.43A5.067,5.067,0,0,0,45.9,195.5,6.665,6.665,0,0,0,41.9,206.122a16.836,16.836,0,0,0,.227,3.453,6.343,6.343,0,0,0,3.112,4.369,21.841,21.841,0,0,0,.509,2.582,1.405,1.405,0,0,0,1.627.952,1.333,1.333,0,0,0,.952-1.627,19.191,19.191,0,0,1-.511-2.769c-.059-.515.134-.742,1.3-1.312a5.386,5.386,0,0,0,2.428-1.855,7.8,7.8,0,0,0,7.065-3.449,5.962,5.962,0,0,0,3.709.979,6.183,6.183,0,0,0,2.378,2.623c.794.547,1.039.717,1.043,1.723-.276,6.23-3.723,12.663-9.026,12.663a7.519,7.519,0,0,1-6.032-3.424,1.333,1.333,0,1,0-2.157,1.567,12.438,12.438,0,0,0,2.232,2.381v5.05l-8.834,3.64a6.664,6.664,0,0,0-2.666,2l-5.363-2.21v-4.1a15.523,15.523,0,0,0,4.327-6.78,1.332,1.332,0,0,0,.933-.6c1.386-2.165,4.048-8.729-.22-13.051a6.613,6.613,0,0,0-5.984-1.683,4.216,4.216,0,0,0-.279-.513c-1.8-2.813-6.453-3.207-10.593-.9a1.333,1.333,0,1,0,1.3,2.328c3.105-1.732,6.152-1.4,7.049.007a2.908,2.908,0,0,1,.065,2.448,7.157,7.157,0,0,1-4.364,4.215A15.652,15.652,0,0,0,20.1,218.77a12.139,12.139,0,0,1-.1-6.553,1.333,1.333,0,0,0-2.553-.77,14.608,14.608,0,0,0,1.177,10.635,1.333,1.333,0,0,0,.965.6,15.566,15.566,0,0,0,4.291,6.654v4.11c-.122.054-6.659,2.737-6.788,2.8a5.76,5.76,0,0,0-3.5,5.311v4.2a3.116,3.116,0,0,0,3.112,3.112H96.646a3.116,3.116,0,0,0,3.112-3.112v-4.2a5.771,5.771,0,0,0-.8-2.944Zm-34.5-33.06a1.333,1.333,0,0,0-1.7-.909,3.024,3.024,0,0,1-3.437-1.182,1.333,1.333,0,0,0-2.37.332,5.055,5.055,0,0,1-4.813,3.485,9.078,9.078,0,0,1-1.172-.154,1.333,1.333,0,0,0-1.552,1.022c-.115.522-.511.758-1.455,1.209a5.43,5.43,0,0,0-2.233,1.631,3.646,3.646,0,0,1-.988-1.91,14.892,14.892,0,0,1-.161-3.317,1.333,1.333,0,0,0-.351-1.01,4,4,0,0,1,2.814-6.711,1.333,1.333,0,0,0,1.288-1.208,2.4,2.4,0,0,1,4.3-1.221,1.333,1.333,0,0,0,1.939.2,3.2,3.2,0,0,1,5.284,2.042,1.333,1.333,0,0,0,2.351.7,2.378,2.378,0,0,1,2.067-.86,2.4,2.4,0,0,1,1.885,3.542,1.333,1.333,0,0,0,1.029,1.968,2.238,2.238,0,0,1,1.642.981,2.281,2.281,0,0,1,.3,1.879,12.58,12.58,0,0,1-1.353,3.277,5.171,5.171,0,0,0-1.563-1.473,3.563,3.563,0,0,1-1.751-2.312Zm15.121,15.489a12.293,12.293,0,0,0,8.9-7.652c1.813,1.415,2.858,3.922,2.858,7,0,4.784-4.163,10.318-6.879,10.318-2.517,0-6.276-4.711-6.814-9.254ZM54.346,246.209a26.192,26.192,0,0,0-4.963-12.735l2.391-.985a7.444,7.444,0,0,0,4.938,1.876h0a7.446,7.446,0,0,0,4.941-1.875l2.353.97a26.205,26.205,0,0,0-5,12.75Zm12.215-11.7,3.929,1.619a3.991,3.991,0,0,1,2.479,3.7v6.376H61.691A23.5,23.5,0,0,1,66.562,234.511Zm-9.849-7.393a9.155,9.155,0,0,0,3.294-.6v3.87a4.783,4.783,0,0,1-3.293,1.313h0a4.782,4.782,0,0,1-3.292-1.312v-3.868A9.216,9.216,0,0,0,56.712,227.118Zm-18.92,19.091H35.467l2.325-2.7Zm.016-6.8-5.859,6.8H25.882l-6.111-8.181,5.139-2.118a6.187,6.187,0,0,0,3.975,1.446h0a6.186,6.186,0,0,0,3.976-1.446l5.175,2.132A6.679,6.679,0,0,0,37.808,239.407ZM37.037,210.8c2.32,2.35,1.59,5.913.675,8.146a22.565,22.565,0,0,0-3.651-2.952,6.429,6.429,0,0,1-2.194-2.289,8.7,8.7,0,0,0,1.15-2.236,6.928,6.928,0,0,0,.341-1.581A4.043,4.043,0,0,1,37.037,210.8Zm-15.2,10.023a12.948,12.948,0,0,1,5.2-3.487,10.5,10.5,0,0,0,2.929-1.634,9.29,9.29,0,0,0,2.656,2.537,20.005,20.005,0,0,1,3.29,2.682c-1.028,4.377-4.612,8.02-7.028,8.02s-6.053-3.706-7.051-8.118ZM28.886,231.6a6,6,0,0,0,2.341-.514V233.8a3.522,3.522,0,0,1-2.34.888h0a3.522,3.522,0,0,1-2.339-.889v-2.716A5.969,5.969,0,0,0,28.886,231.6Zm-12.63,14.16v-4.2a3.1,3.1,0,0,1,1.072-2.351l5.227,7H16.7a.447.447,0,0,1-.446-.446Zm24.2-5.93a3.991,3.991,0,0,1,2.479-3.7l3.9-1.605a23.5,23.5,0,0,1,4.827,11.684h-11.2v-6.376Zm35.178,6.376v-6.376a6.7,6.7,0,0,0-.255-1.82l4.084-1.683c.052,3.358.363,6.888,2.231,9.879Zm6.485-11.869V232.8a5.012,5.012,0,0,0,4.679,0s0,1.409,0,1.547c0,4,0,8.128-2.34,11.17-2.339-3.037-2.34-7.169-2.34-11.174A.015.015,0,0,0,82.121,234.34Zm14.971,11.422a.447.447,0,0,1-.446.446H87.224c1.869-2.994,2.18-6.522,2.232-9.879l5.708,2.352h0a3.1,3.1,0,0,1,1.928,2.88Z" transform="translate(0 -157.875)"/>
  </g>
</svg>
