<svg xmlns="http://www.w3.org/2000/svg" width="92.734" height="92.731" viewBox="0 0 92.734 92.731">
  <g id="speed" transform="translate(0 -0.006)">
    <g id="Group_860" data-name="Group 860" transform="translate(4.167 34.445)">
      <g id="Group_859" data-name="Group 859">
        <path id="Path_3867" data-name="Path 3867" d="M48.3,191.861a1.542,1.542,0,0,0-1.273-.839l-13-.867a1.517,1.517,0,0,0-1.542.978l-9.373,23.954a1.545,1.545,0,0,0,2.366,1.8l7.78-5.834,4.53.906a1.545,1.545,0,0,0,1.746-.964,100.433,100.433,0,0,1,8.7-17.609A1.546,1.546,0,0,0,48.3,191.861ZM37.119,208.672l-3.935-.787a1.557,1.557,0,0,0-1.23.28l-3.986,2.989,6.981-17.841,9.331.621A104.372,104.372,0,0,0,37.119,208.672Z" transform="translate(-23.005 -190.148)"/>
      </g>
    </g>
    <g id="Group_862" data-name="Group 862" transform="translate(31.246 63.105)">
      <g id="Group_861" data-name="Group 861">
        <path id="Path_3868" data-name="Path 3868" d="M199.558,362.835l-.867-13a1.546,1.546,0,0,0-2.365-1.207,100.483,100.483,0,0,1-17.609,8.7,1.543,1.543,0,0,0-.964,1.746l.906,4.53-5.834,7.778a1.546,1.546,0,0,0,1.236,2.474,1.635,1.635,0,0,0,.564-.1l23.954-9.373A1.546,1.546,0,0,0,199.558,362.835Zm-21,6.053,2.989-3.986a1.546,1.546,0,0,0,.278-1.23l-.787-3.933a104.284,104.284,0,0,0,14.737-7.162l.623,9.33Z" transform="translate(-172.515 -348.387)"/>
      </g>
    </g>
    <g id="Group_864" data-name="Group 864" transform="translate(19.79 46.373)">
      <g id="Group_863" data-name="Group 863">
        <path id="Path_3869" data-name="Path 3869" d="M134.291,256.007H123.878a1.548,1.548,0,0,0-1.351.794l-13.07,23.485a1.545,1.545,0,0,0,1.351,2.3,1.525,1.525,0,0,0,.8-.224l23.485-14.212a1.544,1.544,0,0,0,.745-1.321v-9.273A1.546,1.546,0,0,0,134.291,256.007Zm-1.545,9.948L114.99,276.7l9.8-17.6v0h7.961Z" transform="translate(-109.263 -256.007)"/>
      </g>
    </g>
    <g id="Group_866" data-name="Group 866" transform="translate(17.706 0.028)">
      <g id="Group_865" data-name="Group 865">
        <path id="Path_3870" data-name="Path 3870" d="M172.71,1.59A1.547,1.547,0,0,0,171.3.177c-.513-.04-51.406-3.593-73.435,54.1a1.544,1.544,0,0,0,.351,1.644l7.349,7.349a1.545,1.545,0,0,0,2.447-.348l7.362-13.368h7.956v6.876l-13.448,8.491a1.546,1.546,0,0,0-.267,2.4l7.349,7.349a1.543,1.543,0,0,0,1.093.453,1.522,1.522,0,0,0,.552-.1C176.3,52.995,172.753,2.1,172.71,1.59ZM164.6,29.009c-5.423,13.417-17.833,31.658-46.169,42.769l-5.27-5.27L125.7,58.6a1.549,1.549,0,0,0,.72-1.307V48.015a1.546,1.546,0,0,0-1.545-1.545H114.456a1.547,1.547,0,0,0-1.354.8l-6.811,12.367-5.182-5.183C120.448,5.12,161.668,3.1,169.681,3.214A68.493,68.493,0,0,1,164.6,29.009Z" transform="translate(-97.761 -0.123)"/>
      </g>
    </g>
    <g id="Group_868" data-name="Group 868" transform="translate(0 64.343)">
      <g id="Group_867" data-name="Group 867" transform="translate(0)">
        <path id="Path_3871" data-name="Path 3871" d="M26.473,359.146a1.541,1.541,0,0,0-1.394-.606,1.547,1.547,0,0,0-.606-1.394,9.666,9.666,0,0,0-8.254-1.609,10.4,10.4,0,0,0-6.944,5.8l-9.137,20.1a1.545,1.545,0,0,0,2.046,2.046l20.1-9.138a10.391,10.391,0,0,0,5.794-6.942A9.663,9.663,0,0,0,26.473,359.146Zm-1.388,7.494a7.321,7.321,0,0,1-4.077,4.89L4.658,378.962l7.432-16.352a7.317,7.317,0,0,1,4.89-4.077,6.994,6.994,0,0,1,1.718-.216,6.522,6.522,0,0,1,2.762.606l-1.471,2.6a1.546,1.546,0,0,0,2.106,2.106l2.6-1.473A6.7,6.7,0,0,1,25.086,366.64Z" transform="translate(0 -355.225)"/>
      </g>
    </g>
    <g id="Group_870" data-name="Group 870" transform="translate(58.566 0.006)">
      <g id="Group_869" data-name="Group 869">
        <path id="Path_3872" data-name="Path 3872" d="M357.449,1.5A1.548,1.548,0,0,0,356.036.084c-.6-.048-14.929-1.133-31.777,6.628a1.545,1.545,0,0,0-.447,2.5l24.511,24.511a1.546,1.546,0,0,0,1.093.453,1.639,1.639,0,0,0,.273-.023,1.547,1.547,0,0,0,1.131-.875C358.583,16.425,357.5,2.1,357.449,1.5Zm-8.534,28.441L327.594,8.616a68.772,68.772,0,0,1,26.827-5.5A68.592,68.592,0,0,1,348.915,29.937Z" transform="translate(-323.359 -0.006)"/>
      </g>
    </g>
    <g id="Group_872" data-name="Group 872" transform="translate(45.505 20.587)">
      <g id="Group_871" data-name="Group 871">
        <path id="Path_3873" data-name="Path 3873" d="M273.993,117.534a13.323,13.323,0,1,0,0,18.85A13.343,13.343,0,0,0,273.993,117.534ZM271.808,134.2a10.233,10.233,0,1,1,0-14.479A10.25,10.25,0,0,1,271.808,134.2Z" transform="translate(-251.245 -113.636)"/>
      </g>
    </g>
    <g id="Group_874" data-name="Group 874" transform="translate(51.394 26.477)">
      <g id="Group_873" data-name="Group 873">
        <path id="Path_3874" data-name="Path 3874" d="M294.263,156.663a4.346,4.346,0,1,1,0-6.146,1.545,1.545,0,1,0,2.185-2.185,7.433,7.433,0,1,0,0,10.517,1.545,1.545,0,1,0-2.185-2.185Z" transform="translate(-283.757 -146.157)"/>
      </g>
    </g>
  </g>
</svg>
