<svg id="accounting" xmlns="http://www.w3.org/2000/svg" width="91" height="91" viewBox="0 0 91 91">
  <path id="Path_3854" data-name="Path 3854" d="M84.576,47.639A68.16,68.16,0,0,0,71.36,46.566c-2.176,0-4.23.064-6.132.188V4.888A4.893,4.893,0,0,0,60.341,0H4.888C2.055,0,0,2.355,0,5.6v73.76c0,1.931,2.135,4.177,4.888,4.177H51.721v2.044c0,3.013,4.835,4.018,6.424,4.349A68.16,68.16,0,0,0,71.36,91a68.16,68.16,0,0,0,13.216-1.072C86.165,89.6,91,88.592,91,85.579V51.987C91,48.974,86.165,47.969,84.576,47.639Zm3.758,21.136c-.028.057-.582,1.037-4.746,1.836a67.951,67.951,0,0,1-12.228.927,67.951,67.951,0,0,1-12.228-.927c-4.266-.819-4.744-1.828-4.746-1.828V63.589a17.381,17.381,0,0,0,3.758,1.145A68.16,68.16,0,0,0,71.36,65.806a68.16,68.16,0,0,0,13.216-1.072,17.383,17.383,0,0,0,3.758-1.145ZM34.3,69.05a1.333,1.333,0,0,0-1.333,1.333V73.76H12.708a1.184,1.184,0,0,1-1.155-.8V59.719H32.97v4.443a1.333,1.333,0,0,0,2.666,0V59.719H51.721V73.76H35.636V70.383A1.333,1.333,0,0,0,34.3,69.05Zm22.75-21.168c-2.044.5-5.332,1.62-5.332,4.105v5.065H35.636V43.012H55.9a1.157,1.157,0,0,1,1.155,1.155ZM32.97,57.053H11.553V44.522c0-.9.464-1.511,1.155-1.511H32.97Zm55.364,3.324c-.028.057-.582,1.037-4.746,1.836a67.951,67.951,0,0,1-12.228.927,67.95,67.95,0,0,1-12.228-.927c-4.266-.819-4.744-1.828-4.746-1.828V55.191a17.38,17.38,0,0,0,3.758,1.145A68.145,68.145,0,0,0,71.36,57.408a68.16,68.16,0,0,0,13.216-1.072,17.383,17.383,0,0,0,3.758-1.145ZM83.588,50.16c4.021.772,4.676,1.712,4.741,1.828-.065.115-.721,1.056-4.741,1.828a67.95,67.95,0,0,1-12.228.927,67.95,67.95,0,0,1-12.228-.927c-4.021-.772-4.676-1.712-4.741-1.828.065-.115.721-1.056,4.741-1.828a67.951,67.951,0,0,1,12.228-.927A67.95,67.95,0,0,1,83.588,50.16ZM4.888,80.869a2.312,2.312,0,0,1-2.222-1.511V35.9h43.9a1.333,1.333,0,1,0,0-2.666H2.666V5.6c0-1.781.872-2.933,2.222-2.933H60.341a2.224,2.224,0,0,1,2.222,2.222V33.236H52.787a1.333,1.333,0,0,0,0,2.666h9.775V46.977q-1.512.158-2.844.374V44.167A3.826,3.826,0,0,0,55.9,40.346H12.708a3.923,3.923,0,0,0-3.821,4.177V72.96a3.753,3.753,0,0,0,3.821,3.466H51.721v4.443Zm78.7,6.538a67.951,67.951,0,0,1-12.228.927,67.95,67.95,0,0,1-12.228-.927c-4.266-.819-4.744-1.828-4.746-1.828V80.384a17.38,17.38,0,0,0,3.758,1.145A68.16,68.16,0,0,0,71.36,82.6c2.54,0,4.947-.088,7.152-.262a1.333,1.333,0,0,0-.209-2.658c-2.136.168-4.472.253-6.943.253a67.95,67.95,0,0,1-12.228-.927c-4.266-.819-4.744-1.827-4.746-1.827V71.987a17.38,17.38,0,0,0,3.758,1.145A68.16,68.16,0,0,0,71.36,74.2a68.16,68.16,0,0,0,13.216-1.072,17.383,17.383,0,0,0,3.758-1.145v5.186c-.027.057-.518.925-4.046,1.693a1.333,1.333,0,1,0,.568,2.6,16.759,16.759,0,0,0,3.479-1.085V85.57C88.306,85.628,87.752,86.607,83.588,87.407Z"/>
  <path id="Path_3855" data-name="Path 3855" d="M101.01,57.862V43.821A3.826,3.826,0,0,0,97.188,40H67.773a1.333,1.333,0,1,0,0,2.666H97.188a1.157,1.157,0,0,1,1.155,1.155V57.862a1.157,1.157,0,0,1-1.155,1.155H53.821a1.157,1.157,0,0,1-1.155-1.155V43.821a1.157,1.157,0,0,1,1.155-1.155h7.731a1.333,1.333,0,0,0,0-2.666H53.821A3.826,3.826,0,0,0,50,43.821V57.862a3.826,3.826,0,0,0,3.821,3.821H97.188A3.826,3.826,0,0,0,101.01,57.862Z" transform="translate(-41.113 -32.891)"/>
  <path id="Path_3856" data-name="Path 3856" d="M106.931,368h-9.6a1.333,1.333,0,0,0,0,2.666h9.6a1.333,1.333,0,0,0,0-2.666Z" transform="translate(-78.938 -302.594)"/>
  <path id="Path_3857" data-name="Path 3857" d="M102.333,258.576h2.577v2.577a1.333,1.333,0,0,0,2.666,0v-2.577h2.577a1.333,1.333,0,1,0,0-2.666h-2.577v-2.577a1.333,1.333,0,1,0-2.666,0v2.577h-2.577a1.333,1.333,0,1,0,0,2.666Z" transform="translate(-83.049 -207.211)"/>
  <path id="Path_3858" data-name="Path 3858" d="M240.749,258.834a1.333,1.333,0,0,0-1.885,0l-1.822,1.822-1.822-1.822a1.333,1.333,0,1,0-1.885,1.885l1.822,1.822-1.822,1.822a1.333,1.333,0,1,0,1.885,1.885l1.822-1.822,1.822,1.822a1.333,1.333,0,0,0,1.885-1.885l-1.822-1.822,1.822-1.822A1.333,1.333,0,0,0,240.749,258.834Z" transform="translate(-191.541 -212.51)"/>
  <path id="Path_3859" data-name="Path 3859" d="M232.979,359.856a1.33,1.33,0,0,0,.943-.39l6.043-6.043a1.333,1.333,0,0,0-1.885-1.885l-6.043,6.043a1.333,1.333,0,0,0,.943,2.276Z" transform="translate(-190.475 -288.736)"/>
  <g id="Group_858" data-name="Group 858" transform="translate(41.497 62.471)">
    <circle id="Ellipse_77" data-name="Ellipse 77" cx="1.297" cy="1.297" r="1.297" transform="translate(0 0)"/>
    <circle id="Ellipse_78" data-name="Ellipse 78" cx="1.297" cy="1.297" r="1.297" transform="translate(5.187 6.484)"/>
  </g>
  <path id="Path_3860" data-name="Path 3860" d="M264.6,80.375a3.114,3.114,0,0,0,3.11-3.11V72.11A3.114,3.114,0,0,0,264.6,69H262.11A3.114,3.114,0,0,0,259,72.11v5.154a3.114,3.114,0,0,0,3.11,3.11Zm-2.933-3.11V72.11a.445.445,0,0,1,.444-.444H264.6a.445.445,0,0,1,.444.444v5.154a.445.445,0,0,1-.444.444H262.11A.445.445,0,0,1,261.666,77.265Z" transform="translate(-212.967 -56.736)"/>
</svg>
