<svg xmlns="http://www.w3.org/2000/svg" xmlns:xlink="http://www.w3.org/1999/xlink" width="337.316" height="269.98" viewBox="0 0 337.316 269.98">
  <defs>
    <linearGradient id="linear-gradient" x1="0.725" y1="0.409" x2="0.079" y2="0.618" gradientUnits="objectBoundingBox">
      <stop offset="0" stop-color="#c5e7e8"/>
      <stop offset="1" stop-color="#fff5fe"/>
    </linearGradient>
    <linearGradient id="linear-gradient-2" y1="0.5" x2="1" y2="0.5" gradientUnits="objectBoundingBox">
      <stop offset="0" stop-color="#fe99b7"/>
      <stop offset="1" stop-color="#fe688e"/>
    </linearGradient>
    <linearGradient id="linear-gradient-4" y1="0.5" x2="1" y2="0.5" gradientUnits="objectBoundingBox">
      <stop offset="0" stop-color="#005f7b"/>
      <stop offset="1" stop-color="#00324b"/>
    </linearGradient>
    <linearGradient id="linear-gradient-6" x1="0.753" y1="0.102" x2="-0.269" y2="1.952" xlink:href="#linear-gradient-4"/>
    <linearGradient id="linear-gradient-8" y1="0.5" x2="1" y2="0.5" gradientUnits="objectBoundingBox">
      <stop offset="0" stop-color="#5d9c9e"/>
      <stop offset="1" stop-color="#96d0d2"/>
    </linearGradient>
    <linearGradient id="linear-gradient-9" x1="0" y1="0.5" x2="1" y2="0.5" xlink:href="#linear-gradient-8"/>
  </defs>
  <g id="Group_928" data-name="Group 928" transform="translate(-438.218 -1407.921)">
    <g id="Group_506" data-name="Group 506" transform="translate(438.218 1407.921)">
      <g id="Group_505" data-name="Group 505">
        <path id="Path_1837" data-name="Path 1837" d="M538.787,1479.322c-34.693,8.92-67.429,26.287-83.284,41.064-22.406,20.883-26.184,47.049,7.694,62.162,34.936,15.585-.5,43.24,21.787,68.315,36.646,41.223,137.178,7.295,178.917-17.958,72.366-43.785,92.046-106.422,63.071-134.635C696.606,1468.7,614.926,1459.748,538.787,1479.322Z" transform="translate(-438.218 -1435.171)" opacity="0.41" fill="url(#linear-gradient)"/>
        <path id="Path_1838" data-name="Path 1838" d="M915.613,1560.012a8.049,8.049,0,0,0-.263-1.164l1.293-1.573a9.421,9.421,0,0,0-1.179-1.962l-2,.4a7.838,7.838,0,0,0-1.909-1.415l-.2-2.031a9.555,9.555,0,0,0-2.22-.554l-1.128,1.7a7.773,7.773,0,0,0-2.351.352l-1.576-1.3a9.451,9.451,0,0,0-1.961,1.179l.4,2a7.792,7.792,0,0,0-1.414,1.911l-2.028.2a9.328,9.328,0,0,0-.556,2.221l1.7,1.126a7.794,7.794,0,0,0,.352,2.354l-1.3,1.574A9.4,9.4,0,0,0,900.46,1567l2-.4a7.857,7.857,0,0,0,1.911,1.412l.2,2.031a9.451,9.451,0,0,0,2.22.554l1.128-1.7a7.816,7.816,0,0,0,2.352-.352l1.576,1.3a9.54,9.54,0,0,0,1.961-1.179l-.4-2a7.866,7.866,0,0,0,1.412-1.908l2.031-.2a9.491,9.491,0,0,0,.554-2.223l-1.7-1.126A7.909,7.909,0,0,0,915.613,1560.012Zm-6.964,5.752a4.658,4.658,0,1,1,3.919-5.3A4.658,4.658,0,0,1,908.649,1565.764Z" transform="translate(-643.902 -1472.176)" fill="#c5e7e8" opacity="0.59"/>
        <g id="Group_461" data-name="Group 461" transform="translate(92.301 180.324)" opacity="0.59">
          <path id="Path_1839" data-name="Path 1839" d="M646.557,1754.038a19.457,19.457,0,0,0-.64-2.824l3.138-3.818a22.894,22.894,0,0,0-2.862-4.76l-4.855.981a19,19,0,0,0-4.632-3.433l-.483-4.929a23.079,23.079,0,0,0-5.388-1.344l-2.739,4.125a18.89,18.89,0,0,0-5.706.854l-3.825-3.144a22.879,22.879,0,0,0-4.76,2.861l.981,4.855a18.887,18.887,0,0,0-3.432,4.639l-4.923.481a22.622,22.622,0,0,0-1.35,5.39l4.124,2.732a18.946,18.946,0,0,0,.854,5.713l-3.144,3.819a22.773,22.773,0,0,0,2.869,4.765l4.849-.98a19.011,19.011,0,0,0,4.638,3.425l.482,4.93a22.88,22.88,0,0,0,5.389,1.344l2.738-4.125a18.924,18.924,0,0,0,5.706-.853l3.826,3.144a23.092,23.092,0,0,0,4.759-2.862l-.98-4.855a19.126,19.126,0,0,0,3.426-4.632l4.93-.483a23.05,23.05,0,0,0,1.343-5.4l-4.118-2.733A19.432,19.432,0,0,0,646.557,1754.038ZM629.657,1768a11.3,11.3,0,1,1,9.51-12.854A11.3,11.3,0,0,1,629.657,1768Z" transform="translate(-605.081 -1733.911)" fill="#c5e7e8"/>
          <path id="Path_1840" data-name="Path 1840" d="M647.488,1770.037a5.525,5.525,0,1,1-6.282-4.648A5.525,5.525,0,0,1,647.488,1770.037Z" transform="translate(-619.119 -1747.949)" fill="#c5e7e8"/>
        </g>
        <g id="Group_462" data-name="Group 462" transform="translate(142.753 180.286)" opacity="0.59">
          <path id="Path_1841" data-name="Path 1841" d="M718.423,1744.585a10.467,10.467,0,0,0-.342-1.507l1.675-2.038a12.206,12.206,0,0,0-1.527-2.54l-2.591.523a10.144,10.144,0,0,0-2.473-1.832l-.258-2.631a12.327,12.327,0,0,0-2.876-.718l-1.461,2.2a10.077,10.077,0,0,0-3.045.456l-2.042-1.678a12.222,12.222,0,0,0-2.541,1.527l.524,2.591a10.051,10.051,0,0,0-1.831,2.476l-2.628.257a12.079,12.079,0,0,0-.72,2.877l2.2,1.458a10.119,10.119,0,0,0,.456,3.048l-1.678,2.038a12.141,12.141,0,0,0,1.531,2.543l2.588-.523a10.147,10.147,0,0,0,2.475,1.828l.258,2.631a12.205,12.205,0,0,0,2.876.717l1.461-2.2a10.072,10.072,0,0,0,3.046-.456l2.042,1.678a12.306,12.306,0,0,0,2.54-1.527l-.523-2.591a10.2,10.2,0,0,0,1.829-2.472l2.631-.257a12.316,12.316,0,0,0,.717-2.88l-2.2-1.458A10.363,10.363,0,0,0,718.423,1744.585Zm-9.02,7.451a6.033,6.033,0,1,1,5.076-6.861A6.032,6.032,0,0,1,709.4,1752.036Z" transform="translate(-696.287 -1733.843)" fill="#c5e7e8"/>
          <path id="Path_1842" data-name="Path 1842" d="M718.92,1753.125a2.949,2.949,0,1,1-3.353-2.48A2.948,2.948,0,0,1,718.92,1753.125Z" transform="translate(-703.779 -1741.336)" fill="#c5e7e8"/>
        </g>
        <path id="Rectangle_184" data-name="Rectangle 184" d="M6.925,0H115.784a0,0,0,0,1,0,0V48.829a0,0,0,0,1,0,0H0a0,0,0,0,1,0,0V6.925A6.925,6.925,0,0,1,6.925,0Z" transform="translate(124.523 19.737)" fill="#e4eff3"/>
        <g id="Group_466" data-name="Group 466" transform="translate(138.42 33.049)">
          <g id="Group_463" data-name="Group 463" transform="translate(0 15.697)">
            <rect id="Rectangle_185" data-name="Rectangle 185" width="78.083" height="1.682" rx="0.841" fill="#96d0d2"/>
          </g>
          <g id="Group_464" data-name="Group 464" transform="translate(0 7.848)">
            <path id="Path_1843" data-name="Path 1843" d="M765.7,1483.536h-76.4a.841.841,0,0,1-.841-.841h0a.841.841,0,0,1,.841-.841h76.4a.841.841,0,0,1,.841.841h0A.841.841,0,0,1,765.7,1483.536Z" transform="translate(-688.454 -1481.854)" fill="#96d0d2"/>
          </g>
          <g id="Group_465" data-name="Group 465">
            <rect id="Rectangle_186" data-name="Rectangle 186" width="78.083" height="1.682" rx="0.841" fill="#96d0d2"/>
          </g>
        </g>
        <path id="Path_1844" data-name="Path 1844" d="M866.65,1501.424h0a7.425,7.425,0,0,1-7.425-7.425v-43.166a7.425,7.425,0,0,1,7.425-7.425h0a7.425,7.425,0,0,1,7.425,7.425V1494A7.425,7.425,0,0,1,866.65,1501.424Z" transform="translate(-626.342 -1423.778)" fill="#96d0d2"/>
        <rect id="Rectangle_187" data-name="Rectangle 187" width="177.193" height="125.362" rx="13.207" transform="translate(78.826 64.556)" fill="#002144"/>
        <rect id="Rectangle_188" data-name="Rectangle 188" width="171.615" height="119.784" rx="8.163" transform="translate(81.615 67.346)" fill="#e5faff"/>
        <path id="Path_1845" data-name="Path 1845" d="M752.017,1529.669v30.71a7.424,7.424,0,0,1-7.424,7.423H722.318v81.784H611.209V1529.669Z" transform="translate(-515.518 -1462.323)" fill="#ffe8fd"/>
        <path id="Path_1846" data-name="Path 1846" d="M798.944,1493.484h7.425l14.85,58.016H790.787Z" transform="translate(-595.761 -1446.154)" fill="#96d0d2"/>
        <rect id="Rectangle_189" data-name="Rectangle 189" width="48.937" height="51.29" transform="translate(175.482 44.514)" fill="#e4eff3"/>
        <path id="Path_1847" data-name="Path 1847" d="M809.919,1493.484l-10.368,16.543,2.616-16.543Z" transform="translate(-599.677 -1446.154)" fill="#fff"/>
        <path id="Path_1848" data-name="Path 1848" d="M812.957,1551.5h0a7.425,7.425,0,0,1-7.425-7.425v-43.166a7.425,7.425,0,0,1,7.425-7.425h0a7.425,7.425,0,0,1,7.425,7.425v43.166A7.425,7.425,0,0,1,812.957,1551.5Z" transform="translate(-602.35 -1446.154)" fill="#96d0d2"/>
        <rect id="Rectangle_190" data-name="Rectangle 190" width="14.85" height="58.016" rx="7.425" transform="translate(218.032 47.33)" fill="#e4eff3"/>
        <path id="Rectangle_191" data-name="Rectangle 191" d="M13.145,0h97.962a0,0,0,0,1,0,0V139.8a0,0,0,0,1,0,0H0a0,0,0,0,1,0,0V13.145A13.145,13.145,0,0,1,13.145,0Z" transform="translate(92.075 47.33)" fill="#fff"/>
        <path id="Path_1849" data-name="Path 1849" d="M749.257,1684.261v-.812h2.9l.016.722v.089Zm-2.9,0h-2.9v-.812h2.9Zm-5.8,0h-2.9v-.812h2.9Zm-5.8,0h-2.9v-.812h2.9Zm-5.8,0h-2.9v-.812h2.9Zm-5.8,0h-2.9v-.812h2.9Zm-5.976-.278a1.841,1.841,0,0,1-.876-1.574v-1.432h.813v1.432a1.034,1.034,0,0,0,.492.884Zm36.841-2.219H753.2v-2.9h.813Zm-36.9-3.688h-.813v-2.9h.813Zm36.9-2.115H753.2v-2.9h.813Zm-36.9-3.688h-.813v-2.9h.813Zm36.9-2.115H753.2v-2.9h.813Zm-36.9-3.688h-.813v-2.9h.813Zm36.9-2.115H753.2v-2.9h.813Zm-36.9-3.688h-.813v-.636a1.857,1.857,0,0,1,1.842-1.853l0,.813a1.043,1.043,0,0,0-1.034,1.041Zm35.594-1.524a1.04,1.04,0,0,0-.543-.153h-2.106v-.813h2.106a1.856,1.856,0,0,1,.969.273Zm-5.55-.153h-2.9v-.813h2.9Zm-5.8,0h-2.9v-.813h2.9Zm-5.8,0h-2.9v-.813h2.9Zm-5.8,0h-2.9v-.813h2.9Zm-5.8,0h-2.9v-.813h2.9Z" transform="translate(-562.474 -1519.747)" fill="#c5e7e8"/>
        <g id="Group_467" data-name="Group 467" transform="translate(231.816 128.802)">
          <rect id="Rectangle_192" data-name="Rectangle 192" width="27.622" height="13.552" rx="4.886" fill="#fe99b7"/>
          <path id="Path_1850" data-name="Path 1850" d="M862.579,1662.742l-2.128,5.611,10.32-6.45Z" transform="translate(-858.706 -1650.214)" fill="#fe99b7"/>
          <path id="Path_1851" data-name="Path 1851" d="M883.62,1653.125h-18.7a.545.545,0,0,1-.545-.545h0a.545.545,0,0,1,.545-.545h18.7a.545.545,0,0,1,.545.545h0A.545.545,0,0,1,883.62,1653.125Z" transform="translate(-860.457 -1645.804)" fill="#fff"/>
          <rect id="Rectangle_193" data-name="Rectangle 193" width="12.746" height="1.09" rx="0.545" transform="translate(3.913 9.385)" fill="#fff"/>
          <path id="Path_1852" data-name="Path 1852" d="M883.62,1647.458h-18.7a.545.545,0,0,1-.545-.545h0a.545.545,0,0,1,.545-.545h18.7a.545.545,0,0,1,.545.545h0A.545.545,0,0,1,883.62,1647.458Z" transform="translate(-860.457 -1643.272)" fill="#fff"/>
        </g>
        <g id="Group_468" data-name="Group 468" transform="translate(40.971 75.542)">
          <rect id="Rectangle_194" data-name="Rectangle 194" width="22.225" height="13.552" rx="4.383" transform="translate(22.225 13.552) rotate(180)" fill="#96d0d2"/>
          <path id="Path_1853" data-name="Path 1853" d="M538.845,1566.458l2.128,5.611-10.32-6.45Z" transform="translate(-520.493 -1553.93)" fill="#96d0d2"/>
          <rect id="Rectangle_195" data-name="Rectangle 195" width="16.542" height="1.09" rx="0.545" transform="translate(19.004 7.321) rotate(180)" fill="#fff"/>
          <path id="Path_1854" data-name="Path 1854" d="M517.281,1562.544h15.451a.545.545,0,0,0,.545-.545h0a.545.545,0,0,0-.545-.545H517.281a.545.545,0,0,0-.545.545h0A.545.545,0,0,0,517.281,1562.544Z" transform="translate(-514.274 -1552.068)" fill="#fff"/>
          <rect id="Rectangle_196" data-name="Rectangle 196" width="16.542" height="1.09" rx="0.545" transform="translate(19.004 4.186) rotate(180)" fill="#fff"/>
        </g>
        <g id="Group_472" data-name="Group 472" transform="translate(265.789 107.723)">
          <rect id="Rectangle_197" data-name="Rectangle 197" width="16.498" height="16.498" transform="translate(1.392 1.393)" fill="#fff"/>
          <g id="Group_470" data-name="Group 470">
            <g id="Group_469" data-name="Group 469">
              <path id="Path_1855" data-name="Path 1855" d="M951.87,1635.819h-2.11v-.6h1.507v-1.507h.6Z" transform="translate(-932.587 -1616.536)" fill="#005f7b"/>
              <path id="Path_1856" data-name="Path 1856" d="M937.013,1637.036H934v-.6h3.013Zm-6.026,0h-3.013v-.6h3.013Z" transform="translate(-922.852 -1617.753)" fill="#005f7b"/>
              <path id="Path_1857" data-name="Path 1857" d="M920.824,1635.819h-2.11v-2.11h.6v1.507h1.507Z" transform="translate(-918.714 -1616.536)" fill="#005f7b"/>
              <path id="Path_1858" data-name="Path 1858" d="M919.317,1620.962h-.6v-3.013h.6Zm0-6.026h-.6v-3.013h.6Z" transform="translate(-918.714 -1606.801)" fill="#005f7b"/>
              <path id="Path_1859" data-name="Path 1859" d="M919.317,1604.773h-.6v-2.11h2.11v.6h-1.507Z" transform="translate(-918.714 -1602.663)" fill="#005f7b"/>
              <path id="Path_1860" data-name="Path 1860" d="M937.013,1603.266H934v-.6h3.013Zm-6.026,0h-3.013v-.6h3.013Z" transform="translate(-922.852 -1602.663)" fill="#005f7b"/>
              <path id="Path_1861" data-name="Path 1861" d="M951.87,1604.773h-.6v-1.507H949.76v-.6h2.11Z" transform="translate(-932.587 -1602.663)" fill="#005f7b"/>
              <path id="Path_1862" data-name="Path 1862" d="M953.087,1620.962h-.6v-3.013h.6Zm0-6.025h-.6v-3.013h.6Z" transform="translate(-933.804 -1606.801)" fill="#005f7b"/>
            </g>
          </g>
          <g id="Group_471" data-name="Group 471" transform="translate(4.869 3.77)">
            <path id="Path_1863" data-name="Path 1863" d="M927.516,1609.479h9.308v2.994h-.843a8.319,8.319,0,0,0-.374-1.17,2.326,2.326,0,0,0-.392-.654,1.231,1.231,0,0,0-.443-.318,2.016,2.016,0,0,0-.71-.095h-1.092v8.81a4.6,4.6,0,0,0,.056.809,1.3,1.3,0,0,0,.172.477.8.8,0,0,0,.314.276,2.923,2.923,0,0,0,.62.194v.422H930.2v-.422a4.622,4.622,0,0,0,.456-.129,1.1,1.1,0,0,0,.323-.168.783.783,0,0,0,.206-.254,1.455,1.455,0,0,0,.129-.422,4.821,4.821,0,0,0,.047-.783v-8.81h-1.084a2.411,2.411,0,0,0-.667.078,1.069,1.069,0,0,0-.486.323,2.356,2.356,0,0,0-.409.7,7.844,7.844,0,0,0-.348,1.14h-.852Z" transform="translate(-927.516 -1609.479)" fill="#005f7b"/>
          </g>
        </g>
        <g id="Group_473" data-name="Group 473" transform="translate(266.646)">
          <path id="Path_1864" data-name="Path 1864" d="M935.4,1426.253l-.361,7.278,24.441-21.73Z" transform="translate(-926.863 -1409.655)" fill="#96d0d2"/>
          <path id="Path_1865" data-name="Path 1865" d="M920.262,1415.833l20.155,15.28,14.589-23.192Z" transform="translate(-920.262 -1407.921)" fill="#e4eff3"/>
          <path id="Path_1866" data-name="Path 1866" d="M960.9,1407.921l-27.453,13.439.881,10.437,3.244-7.31Z" transform="translate(-926.152 -1407.921)" fill="#96d0d2"/>
        </g>
        <g id="Group_477" data-name="Group 477" transform="translate(165.474 142.4)">
          <path id="Path_1867" data-name="Path 1867" d="M964.65,1812.575s-12.063.96-22.806,1.778c-1.463.115-2.9.221-4.28.327-1.514.111-2.954.222-4.284.314-2.581.189-4.732.341-6.121.425l-.2.013c-.711.042-1.19.065-1.4.065a8.217,8.217,0,0,1-2.345-.909h0c-3.352-1.644-9.451-5.226-14.654-8.365-2.811-1.694-5.365-3.259-7.082-4.316-1.385-.854-2.23-1.381-2.23-1.381l-3.384-.3a53.718,53.718,0,0,1-2.493-5.6,20.405,20.405,0,0,1-1.621-7.47c.092-1.764.808-3.07,2.576-3.361a15.421,15.421,0,0,1,5.84.084c3.873.817,7.41,3.231,12.008,7,5.494,4.5,14.131,12.331,19.492,15.258a8.214,8.214,0,0,0,3.13,1.14,47.733,47.733,0,0,0,5.309-.8,30.843,30.843,0,0,1,4.478-.351h0c.424,0,.849,0,1.283.009,8.185.1,17.857,1.145,17.857,1.145Z" transform="translate(-806.344 -1718.172)" fill="#fe99b7"/>
          <path id="Path_1868" data-name="Path 1868" d="M979.429,1824.357l-4.026,8.223c-1.463.115-2.9.221-4.28.327-1.514.111-2.954.222-4.284.314l6.824-8.522a30.843,30.843,0,0,1,4.478-.351h0C978.57,1824.348,978.995,1824.352,979.429,1824.357Z" transform="translate(-839.903 -1736.399)" fill="url(#linear-gradient-2)"/>
          <path id="Path_1869" data-name="Path 1869" d="M932.639,1822.26l-.3-.064-3.744-.845c-5.156-2.525-16.837-9.658-21.74-12.682l-3.075-9.977,28.758,23.49Z" transform="translate(-811.728 -1724.935)" fill="url(#linear-gradient-2)"/>
          <path id="Path_1870" data-name="Path 1870" d="M814.9,1730.354l6.848,14.665,12.2,3.347-7.848-20.2Z" transform="translate(-772.01 -1693.422)" fill="url(#linear-gradient-4)"/>
          <g id="Group_476" data-name="Group 476" transform="translate(0.634)">
            <rect id="Rectangle_198" data-name="Rectangle 198" width="41.244" height="30.194" rx="3.732" fill="#ffcb5b"/>
            <rect id="Rectangle_199" data-name="Rectangle 199" width="24.82" height="35.87" rx="1.986" transform="translate(38.557 2.687) rotate(90)" fill="#fff"/>
            <g id="Group_474" data-name="Group 474" transform="translate(4.957 6.612)">
              <path id="Path_1871" data-name="Path 1871" d="M747.47,1700.262l10.6-18.364,10.6,18.364Z" transform="translate(-747.47 -1679.359)" fill="#ffcb5b"/>
              <path id="Path_1872" data-name="Path 1872" d="M772.453,1703.9l8.039-13.924,8.039,13.924Z" transform="translate(-758.633 -1682.969)" fill="#ffcb5b"/>
              <path id="Path_1873" data-name="Path 1873" d="M788.527,1689.979h-1.613l-.088,2.487,2.59,1.594Z" transform="translate(-765.056 -1682.969)" fill="#ffcb5b"/>
              <path id="Path_1874" data-name="Path 1874" d="M768.145,1681.9h-1.613l-.088,2.487,2.589,1.594Z" transform="translate(-755.948 -1679.359)" fill="#ffcb5b"/>
              <path id="Path_1875" data-name="Path 1875" d="M780.711,1679.053a1.747,1.747,0,1,1-1.747-1.746A1.746,1.746,0,0,1,780.711,1679.053Z" transform="translate(-760.763 -1677.307)" fill="#ffcb5b"/>
            </g>
            <g id="Group_475" data-name="Group 475" transform="translate(6.57 6.612)">
              <path id="Path_1876" data-name="Path 1876" d="M750.386,1700.262l10.6-18.364,10.6,18.364Z" transform="translate(-750.386 -1679.359)" fill="#ffe8b5"/>
              <path id="Path_1877" data-name="Path 1877" d="M775.369,1703.9l8.039-13.924,8.039,13.924Z" transform="translate(-761.549 -1682.969)" fill="#ffe8b5"/>
              <rect id="Rectangle_200" data-name="Rectangle 200" width="1.613" height="3.493" transform="translate(16.589)" fill="#ffcb5b"/>
              <path id="Path_1878" data-name="Path 1878" d="M783.627,1679.053a1.746,1.746,0,1,1-1.746-1.746A1.746,1.746,0,0,1,783.627,1679.053Z" transform="translate(-763.679 -1677.307)" fill="#ffe8b5"/>
            </g>
          </g>
          <path id="Path_1879" data-name="Path 1879" d="M939.7,1802.639s-1.981,2.489-4.829,6.011h0c-2.027,2.506-4.5,5.535-7.018,8.559-5.42,6.5-11.038,12.973-12.926,14.206-4,2.618-10.037,4.363-26.006-10.309-6.953-6.39-11.375-10.78-14.177-13.744-4.146-4.381-4.75-5.646-4.75-5.646s5.678-9.76,12.044-12.031a6.922,6.922,0,0,1,3.883-.319,8.908,8.908,0,0,1,1.662.549c6.265,2.793,7.41,12.253,8.264,14.492a28.115,28.115,0,0,0,3,4.344c4.058,5.25,10.734,13.047,10.734,13.047s1.731-2.142,3.92-4.681a66.333,66.333,0,0,1,7.276-7.553l1.177-.9c4.243-3.2,13.019-9.719,13.019-9.719Z" transform="translate(-796.624 -1720.701)" fill="#fe99b7"/>
          <path id="Path_1880" data-name="Path 1880" d="M890.445,1783.878a25.694,25.694,0,0,0-2.872,3.508,40.426,40.426,0,0,0-3.855,7.082c-.023.051-.047.106-.069.157a22.416,22.416,0,0,1-8.915,10.207c-4.146-4.381-4.75-5.646-4.75-5.646s5.678-9.76,12.044-12.031c.092-1.764.808-3.07,2.576-3.361A15.421,15.421,0,0,1,890.445,1783.878Z" transform="translate(-796.624 -1718.172)" fill="url(#linear-gradient-2)"/>
          <path id="Path_1881" data-name="Path 1881" d="M823.23,1720.36s-3.462,13.389-6.925,7.7a16.122,16.122,0,0,0-2.8-3.619,2.814,2.814,0,0,0-2-.952h0a.76.76,0,0,0-.346.106s-4.081,1.385-6.232-3.384a30.24,30.24,0,0,1-2.2-10.618l5.581-2.387Z" transform="translate(-766.569 -1684.054)" fill="#ffb691"/>
          <path id="Path_1882" data-name="Path 1882" d="M835.74,1752.065c-1.616,2-5.618,7.848-9.39,12.848s-11.542,6.08-11.542,6.08-3.924-7.618-7.922-12.156-7.594-4.233-12.5-6.518a.211.211,0,0,0-.046-.023q-.194-.09-.374-.18a.276.276,0,0,0-.032-.019c-4.571-2.322-5.439-5.955-7.982-8.573-2.613-2.692-6.768-3.231-12.156-4.926-1.412-.444-2.881-.924-4.335-1.454h0c-4.09-1.482-8.047-3.338-10.2-5.776-2.922-3.31-11.541-14.007-11.541-14.007l3.309-2.922s14.233,12.7,15.618,13.388,13.079,3.384,16.851,4.077,6.385-.462,7.539-1.459c.831-.72,3.536-2.516,4.986-3.467h0c.563-.374.937-.614.937-.614a7.8,7.8,0,0,1,8.6-1.565,12.187,12.187,0,0,1,1.787.873c4.437,2.622,7.313,9.293,10.129,14.228a16.894,16.894,0,0,0,3.8,5.009C825.657,1748.219,835.74,1752.065,835.74,1752.065Z" transform="translate(-741.989 -1687.287)" fill="#005f7b"/>
          <path id="Path_1883" data-name="Path 1883" d="M856.5,1748.268c-4.69-.069-11.292,1.395-14.441-1.325-4.46-3.845-7.017-11.6-7.017-11.6h0l9.538-2.179a12.21,12.21,0,0,1,1.787.873C850.805,1736.662,853.681,1743.333,856.5,1748.268Z" transform="translate(-781.009 -1695.655)" fill="url(#linear-gradient-6)"/>
          <path id="Path_1884" data-name="Path 1884" d="M803.687,1700.634a8.868,8.868,0,0,0,4.5,12.233c6,2.54,9.041-.077,13.35,7.695s13.2,7.772,18.967,4.309,7.617-5.309,16.735-3.578,10.849-5.193,7.964-10.5-11.426-8.772-18.236-6.117-12.349,4.04-17.658.577-10.388-8.425-16.043-8.656S804.841,1698.44,803.687,1700.634Z" transform="translate(-766.567 -1679.305)" fill="#002144"/>
          <path id="Path_1885" data-name="Path 1885" d="M746.4,1710.143a12.3,12.3,0,0,0-2.731-3.212c-1.328-.866-3.52-2.712-3.924-1.9s1.789,2.828,1.789,2.828-2.886-.75-3.232-2.193-1.038-.45-.923,1.824.173,3.139,1.674,3.774,4.04,1.808,4.04,1.808Z" transform="translate(-737.363 -1682.992)" fill="#ffb691"/>
          <path id="Path_1886" data-name="Path 1886" d="M1021.881,1825.5s4.213-1.57,5.6-1.051,5.829,7.964,7.271,11.542,1.663,3.573.866,3.982c-1.462.75-4.963-.866-7.387-4.04s-4.617-5.2-5.425-5.136Z" transform="translate(-864.498 -1736.398)" fill="#005f7b"/>
          <path id="Path_1887" data-name="Path 1887" d="M987.454,1802.318a14.638,14.638,0,0,0,1.385-2.712c.4-1.212,1.1-3.693,3.347-2.54s8.483,6.637,10.56,7.676a38.875,38.875,0,0,1,4.456,2.756s-2.2,1.283-6.648-.044a36.4,36.4,0,0,0-8.368-1.443Z" transform="translate(-849.115 -1724.075)" fill="#005f7b"/>
          <path id="Path_1888" data-name="Path 1888" d="M1030.062,1825.2c-.7,1.773.475,3.463,2.257,5.829s2.764,4.27,4.379,6.752,2.828,3.058,3.174,1.328-2.271-4.836-3.357-6.764S1031.332,1821.968,1030.062,1825.2Z" transform="translate(-868.063 -1736.454)" fill="#002144"/>
          <path id="Path_1889" data-name="Path 1889" d="M992.561,1798.152a29.9,29.9,0,0,0,5.6,3.808c2.308,1.154,5.4,4.577,8.368,5.252,2.539.577,3.116.519,3-.635s-2.943-3.4-6.406-4.963-6.636-4.558-8.31-4.9S991.358,1797,992.561,1798.152Z" transform="translate(-851.22 -1724.007)" fill="#002144"/>
          <path id="Path_1890" data-name="Path 1890" d="M820.6,1735.047a2.813,2.813,0,0,0-2-.951,3.919,3.919,0,0,0,2.65-3.149A6.017,6.017,0,0,1,820.6,1735.047Z" transform="translate(-773.662 -1694.663)" fill="#eb9d76"/>
          <path id="Path_1891" data-name="Path 1891" d="M811.505,1770.438c-4.571-2.322-5.439-5.955-7.982-8.573-2.613-2.692-6.768-3.232-12.156-4.926-1.412-.444-2.881-.924-4.335-1.454.573.138,9.8,2.327,12.82,2.663,3.112.346,6.842,1.731,7.4,5.194C807.775,1766.569,809.636,1769.39,811.505,1770.438Z" transform="translate(-759.557 -1705.628)" fill="url(#linear-gradient-4)"/>
          <path id="Path_1892" data-name="Path 1892" d="M842.539,1706.136c-3.577,0-7-1.915-11.825-4.608l-.907-.506c-7.912-4.407-13.174-3.338-13.228-3.326l-.1-.451c.22-.049,5.486-1.118,13.55,3.375l.908.506c7.583,4.237,11.388,6.364,17.714,2.655,6.707-3.931,14.117-1.665,14.19-1.641l-.139.44c-.072-.022-7.293-2.226-13.818,1.6A12.353,12.353,0,0,1,842.539,1706.136Z" transform="translate(-772.716 -1679.538)" fill="#002144"/>
          <path id="Path_1893" data-name="Path 1893" d="M833.84,1727.823c-.1,0-.19,0-.285,0a7.2,7.2,0,0,1-6.187-3.031c-3.423-5.413-7.016-7.744-14.786-9.594a8.2,8.2,0,0,1-5.387-3.575,9.246,9.246,0,0,1-.939-6.444l.448.11a8.938,8.938,0,0,0,.888,6.1,7.758,7.758,0,0,0,5.1,3.363c7.811,1.86,11.613,4.332,15.069,9.8a6.76,6.76,0,0,0,5.807,2.816c3.477.095,7.312-1.451,8.274-2.826l.378.266C841.2,1726.257,837.442,1727.823,833.84,1727.823Z" transform="translate(-768.053 -1683.148)" fill="#005f7b"/>
        </g>
        <g id="Group_480" data-name="Group 480" transform="translate(101.802 57.19)">
          <rect id="Rectangle_201" data-name="Rectangle 201" width="35.53" height="26.011" rx="1.498" fill="#96d0d2"/>
          <rect id="Rectangle_202" data-name="Rectangle 202" width="21.381" height="30.901" rx="0.994" transform="translate(33.215 2.315) rotate(90)" fill="#fff"/>
          <g id="Group_478" data-name="Group 478" transform="translate(4.27 5.696)">
            <path id="Path_1894" data-name="Path 1894" d="M629.976,1541.381l9.133-15.819,9.133,15.819Z" transform="translate(-629.976 -1523.374)" fill="#96d0d2"/>
            <path id="Path_1895" data-name="Path 1895" d="M651.5,1544.517l6.925-11.994,6.925,11.994Z" transform="translate(-639.593 -1526.484)" fill="#96d0d2"/>
            <path id="Path_1896" data-name="Path 1896" d="M665.345,1532.523h-1.39l-.076,2.142,2.231,1.373Z" transform="translate(-645.125 -1526.484)" fill="#96d0d2"/>
            <path id="Path_1897" data-name="Path 1897" d="M647.787,1525.562H646.4l-.076,2.142,2.231,1.373Z" transform="translate(-637.28 -1523.374)" fill="#96d0d2"/>
            <path id="Path_1898" data-name="Path 1898" d="M658.612,1523.111a1.5,1.5,0,1,1-1.5-1.5A1.5,1.5,0,0,1,658.612,1523.111Z" transform="translate(-641.427 -1521.606)" fill="#96d0d2"/>
          </g>
          <g id="Group_479" data-name="Group 479" transform="translate(5.659 5.696)">
            <path id="Path_1899" data-name="Path 1899" d="M632.488,1541.381l9.133-15.819,9.133,15.819Z" transform="translate(-632.488 -1523.374)" fill="#c5e7e8"/>
            <path id="Path_1900" data-name="Path 1900" d="M654.009,1544.517l6.925-11.994,6.925,11.994Z" transform="translate(-642.105 -1526.484)" fill="#c5e7e8"/>
            <rect id="Rectangle_203" data-name="Rectangle 203" width="1.389" height="3.009" transform="translate(14.291 0)" fill="#96d0d2"/>
            <path id="Path_1901" data-name="Path 1901" d="M661.123,1523.111a1.5,1.5,0,1,1-1.5-1.5A1.5,1.5,0,0,1,661.123,1523.111Z" transform="translate(-643.939 -1521.606)" fill="#c5e7e8"/>
          </g>
        </g>
        <path id="Path_1902" data-name="Path 1902" d="M712.507,1611.925H624.484a3.065,3.065,0,0,1-3.062-3.062v-27.117a3.065,3.065,0,0,1,3.062-3.061h88.024a3.065,3.065,0,0,1,3.062,3.061v27.117A3.065,3.065,0,0,1,712.507,1611.925Zm-88.024-32.316a2.14,2.14,0,0,0-2.138,2.137v27.117a2.141,2.141,0,0,0,2.138,2.138h88.024a2.141,2.141,0,0,0,2.139-2.138v-27.117a2.14,2.14,0,0,0-2.139-2.137Z" transform="translate(-520.081 -1484.226)" fill="#c5e7e8"/>
        <g id="Group_485" data-name="Group 485" transform="translate(143.627 57.19)">
          <g id="Group_481" data-name="Group 481" transform="translate(0 23.545)">
            <path id="Path_1903" data-name="Path 1903" d="M748.426,1555.555H698.709a.841.841,0,0,1-.841-.841h0a.841.841,0,0,1,.841-.841h49.717a.841.841,0,0,1,.841.841h0A.84.84,0,0,1,748.426,1555.555Z" transform="translate(-697.868 -1553.873)" fill="#c5e7e8"/>
          </g>
          <g id="Group_482" data-name="Group 482" transform="translate(0 15.696)">
            <path id="Path_1904" data-name="Path 1904" d="M748.426,1541.366H698.709a.841.841,0,0,1-.841-.841h0a.841.841,0,0,1,.841-.841h49.717a.841.841,0,0,1,.841.841h0A.84.84,0,0,1,748.426,1541.366Z" transform="translate(-697.868 -1539.685)" fill="#c5e7e8"/>
          </g>
          <g id="Group_483" data-name="Group 483" transform="translate(0 7.848)">
            <path id="Path_1905" data-name="Path 1905" d="M748.426,1527.178H698.709a.841.841,0,0,1-.841-.841h0a.841.841,0,0,1,.841-.841h49.717a.84.84,0,0,1,.841.841h0A.841.841,0,0,1,748.426,1527.178Z" transform="translate(-697.868 -1525.497)" fill="#c5e7e8"/>
          </g>
          <g id="Group_484" data-name="Group 484">
            <path id="Path_1906" data-name="Path 1906" d="M748.426,1512.99H698.709a.841.841,0,0,1-.841-.841h0a.841.841,0,0,1,.841-.841h49.717a.84.84,0,0,1,.841.841h0A.841.841,0,0,1,748.426,1512.99Z" transform="translate(-697.868 -1511.309)" fill="#c5e7e8"/>
          </g>
        </g>
        <g id="Group_490" data-name="Group 490" transform="translate(100.592 138.741)">
          <g id="Group_486" data-name="Group 486" transform="translate(0 23.545)">
            <path id="Path_1907" data-name="Path 1907" d="M664.5,1702.985H620.808a.8.8,0,0,1-.739-.841h0a.8.8,0,0,1,.739-.841H664.5a.8.8,0,0,1,.739.841h0A.8.8,0,0,1,664.5,1702.985Z" transform="translate(-620.069 -1701.303)" fill="#c5e7e8"/>
          </g>
          <g id="Group_487" data-name="Group 487" transform="translate(0 15.696)">
            <path id="Path_1908" data-name="Path 1908" d="M664.5,1688.8H620.808a.8.8,0,0,1-.739-.841h0a.8.8,0,0,1,.739-.841H664.5a.8.8,0,0,1,.739.841h0A.8.8,0,0,1,664.5,1688.8Z" transform="translate(-620.069 -1687.114)" fill="#c5e7e8"/>
          </g>
          <g id="Group_488" data-name="Group 488" transform="translate(0 7.848)">
            <path id="Path_1909" data-name="Path 1909" d="M664.5,1674.607H620.808a.8.8,0,0,1-.739-.841h0a.8.8,0,0,1,.739-.841H664.5a.8.8,0,0,1,.739.841h0A.8.8,0,0,1,664.5,1674.607Z" transform="translate(-620.069 -1672.926)" fill="#c5e7e8"/>
          </g>
          <g id="Group_489" data-name="Group 489">
            <path id="Path_1910" data-name="Path 1910" d="M664.5,1660.419H620.808a.8.8,0,0,1-.739-.841h0a.8.8,0,0,1,.739-.841H664.5a.8.8,0,0,1,.739.841h0A.8.8,0,0,1,664.5,1660.419Z" transform="translate(-620.069 -1658.738)" fill="#c5e7e8"/>
          </g>
        </g>
        <g id="Group_494" data-name="Group 494" transform="translate(108.587 102.39)">
          <g id="Group_491" data-name="Group 491" transform="translate(0 15.697)">
            <path id="Path_1911" data-name="Path 1911" d="M711.765,1623.081h-76.4a.841.841,0,0,1-.841-.841h0a.84.84,0,0,1,.841-.841h76.4a.841.841,0,0,1,.841.841h0A.841.841,0,0,1,711.765,1623.081Z" transform="translate(-634.522 -1621.399)" fill="#c5e7e8"/>
          </g>
          <g id="Group_492" data-name="Group 492" transform="translate(0 7.849)">
            <path id="Path_1912" data-name="Path 1912" d="M711.765,1608.893h-76.4a.841.841,0,0,1-.841-.841h0a.84.84,0,0,1,.841-.841h76.4a.841.841,0,0,1,.841.841h0A.841.841,0,0,1,711.765,1608.893Z" transform="translate(-634.522 -1607.211)" fill="#c5e7e8"/>
          </g>
          <g id="Group_493" data-name="Group 493">
            <path id="Path_1913" data-name="Path 1913" d="M711.765,1594.7h-76.4a.841.841,0,0,1-.841-.841h0a.841.841,0,0,1,.841-.841h76.4a.841.841,0,0,1,.841.841h0A.841.841,0,0,1,711.765,1594.7Z" transform="translate(-634.522 -1593.022)" fill="#c5e7e8"/>
          </g>
        </g>
        <g id="Group_496" data-name="Group 496" transform="translate(86.513 6.908)">
          <g id="Group_495" data-name="Group 495">
            <path id="Path_1914" data-name="Path 1914" d="M622.179,1437.454a8.553,8.553,0,0,1-3.488,6.822,4.854,4.854,0,0,0-.919.906,4.421,4.421,0,0,0-.947,2.714v4.645a3.651,3.651,0,0,1-1.189,2.676,4.2,4.2,0,0,1-2.87,1.109,3.929,3.929,0,0,1-4.058-3.785V1447.9a4.532,4.532,0,0,0-1.854-3.611,8.556,8.556,0,0,1-3.5-6.755c0-.193,0-.384.015-.575.278-4.569,4.352-8.246,9.326-8.28C617.926,1428.639,622.179,1432.583,622.179,1437.454Z" transform="translate(-598.521 -1424.103)" fill="#ffe8b5"/>
            <path id="Path_1915" data-name="Path 1915" d="M617.771,1451.87a4.421,4.421,0,0,0-.947,2.714v4.645a3.651,3.651,0,0,1-1.189,2.676,4.2,4.2,0,0,1-2.87,1.109,3.929,3.929,0,0,1-4.058-3.785v-4.645a4.532,4.532,0,0,0-1.854-3.611,8.556,8.556,0,0,1-3.5-6.755c0-.193,0-.384.015-.575a15.054,15.054,0,0,0,13.66,8.244Q617.4,1451.888,617.771,1451.87Z" transform="translate(-598.521 -1430.791)" fill="#ffcb5b" opacity="0.38"/>
            <path id="Path_1916" data-name="Path 1916" d="M621.2,1468.279v2.027a4.307,4.307,0,0,1-8.6-.055v-1.972a.121.121,0,0,1,.111-.117h.031c1.027,0,7.32,0,8.322,0h.024A.12.12,0,0,1,621.2,1468.279Z" transform="translate(-602.652 -1441.747)" fill="url(#linear-gradient-8)"/>
            <path id="Path_1917" data-name="Path 1917" d="M620.642,1469.507h-8.495a.673.673,0,0,1-.673-.673h0a.673.673,0,0,1,.673-.673h8.495a.673.673,0,0,1,.673.673h0A.673.673,0,0,1,620.642,1469.507Z" transform="translate(-602.15 -1441.747)" fill="url(#linear-gradient-9)"/>
            <path id="Path_1918" data-name="Path 1918" d="M620.642,1471.939h-8.495a.673.673,0,0,1-.673-.673h0a.673.673,0,0,1,.673-.673h8.495a.673.673,0,0,1,.673.673h0A.673.673,0,0,1,620.642,1471.939Z" transform="translate(-602.15 -1442.834)" fill="url(#linear-gradient-8)"/>
            <path id="Path_1919" data-name="Path 1919" d="M620.035,1423.773h0a.481.481,0,0,1-.481-.481v-2.4a.481.481,0,0,1,.481-.481h0a.481.481,0,0,1,.481.481v2.4A.481.481,0,0,1,620.035,1423.773Z" transform="translate(-605.76 -1420.409)" fill="#ffe8b5"/>
            <path id="Path_1920" data-name="Path 1920" d="M604.526,1429.734h0a.463.463,0,0,1-.633,0l-1.871-1.744a.464.464,0,0,1,0-.678h0a.464.464,0,0,1,.633,0l1.872,1.744A.464.464,0,0,1,604.526,1429.734Z" transform="translate(-597.86 -1423.438)" fill="#ffe8b5"/>
            <path id="Path_1921" data-name="Path 1921" d="M598.224,1444.211h0a.449.449,0,0,1-.446.451l-2.71.011a.448.448,0,0,1-.45-.446h0a.448.448,0,0,1,.446-.451l2.71-.011A.448.448,0,0,1,598.224,1444.211Z" transform="translate(-594.617 -1430.846)" fill="#ffe8b5"/>
            <path id="Path_1922" data-name="Path 1922" d="M604.616,1457.108h0a.464.464,0,0,1,0,.679l-1.861,1.752a.465.465,0,0,1-.633,0h0a.464.464,0,0,1,0-.679l1.861-1.752A.465.465,0,0,1,604.616,1457.108Z" transform="translate(-597.905 -1436.753)" fill="#ffe8b5"/>
            <path id="Path_1923" data-name="Path 1923" d="M633.913,1429.705h0a.464.464,0,0,1,0-.679l1.869-1.746a.464.464,0,0,1,.633,0h0a.464.464,0,0,1,0,.679l-1.868,1.746A.464.464,0,0,1,633.913,1429.705Z" transform="translate(-612.11 -1423.424)" fill="#ffe8b5"/>
            <path id="Path_1924" data-name="Path 1924" d="M639.626,1444.053h0a.448.448,0,0,1,.449-.448l2.71,0a.448.448,0,0,1,.448.449h0a.448.448,0,0,1-.449.448l-2.71,0A.448.448,0,0,1,639.626,1444.053Z" transform="translate(-614.729 -1430.774)" fill="#ffe8b5"/>
            <path id="Path_1925" data-name="Path 1925" d="M634,1457.016h0a.464.464,0,0,1,.633,0l1.869,1.746a.464.464,0,0,1,0,.679h0a.464.464,0,0,1-.633,0L634,1457.694A.464.464,0,0,1,634,1457.016Z" transform="translate(-612.151 -1436.711)" fill="#ffe8b5"/>
          </g>
          <path id="Path_1926" data-name="Path 1926" d="M625.733,1440.54a.874.874,0,0,1-.875-.875,5.146,5.146,0,0,0-5.141-5.14.875.875,0,0,1,0-1.749,6.9,6.9,0,0,1,6.889,6.889A.874.874,0,0,1,625.733,1440.54Z" transform="translate(-605.442 -1425.935)" fill="#fff" opacity="0.74"/>
        </g>
        <g id="Group_498" data-name="Group 498" transform="translate(240.163 27.42)">
          <g id="Group_497" data-name="Group 497">
            <path id="Path_1927" data-name="Path 1927" d="M928.06,1458.839l-.232-.2c.621-.731,1.013-1.146,1.017-1.15l.222.21S928.677,1458.114,928.06,1458.839Z" transform="translate(-897.16 -1457.491)" fill="#005f7b"/>
            <path id="Path_1928" data-name="Path 1928" d="M905.419,1496.662a9.629,9.629,0,0,1-2.606-.357l.083-.294a9.373,9.373,0,0,0,3.043.332l.017.3C905.778,1496.657,905.6,1496.662,905.419,1496.662Zm3.627-.677-.11-.285a10.345,10.345,0,0,0,2.671-1.511l.188.24A10.658,10.658,0,0,1,909.046,1495.985Zm-9.094-1.024a10.866,10.866,0,0,1-2.307-2.157l.238-.191a10.581,10.581,0,0,0,2.241,2.1Zm14.024-2.817-.249-.176a10.888,10.888,0,0,0,1.4-2.734l.289.1A11.205,11.205,0,0,1,913.976,1492.144Zm-17.995-2.019c-.225-.474-.435-.977-.622-1.495a14.568,14.568,0,0,1-.443-1.471l.3-.073a14.068,14.068,0,0,0,.434,1.439c.184.509.389,1,.611,1.468Zm-20.094-.043-.274-.135c.467-.945.981-1.867,1.528-2.742l.259.162C876.858,1488.232,876.349,1489.146,875.887,1490.082Zm40.16-3.84-.3-.023c.024-.326.037-.659.037-.99,0-.263-.008-.53-.023-.793a8.582,8.582,0,0,0-.171-1.284l.3-.063a8.918,8.918,0,0,1,.176,1.33c.015.269.023.541.023.81C916.085,1485.568,916.072,1485.909,916.047,1486.242Zm-36.863-1.419-.24-.189a28.435,28.435,0,0,1,2.072-2.36l.218.215A28.141,28.141,0,0,0,879.184,1484.823Zm15.307-.786c-.008-.208-.012-.418-.012-.626a19.164,19.164,0,0,1,.172-2.518l.3.041a18.852,18.852,0,0,0-.169,2.478c0,.2,0,.411.011.615Zm-10.958-3.636-.192-.238a27.42,27.42,0,0,1,2.551-1.833l.164.258A27.17,27.17,0,0,0,883.533,1480.4Zm30.889-.068a10.137,10.137,0,0,0-2.041-2.288l.2-.235a10.457,10.457,0,0,1,2.1,2.358Zm-18.843-2.441-.295-.081a29.623,29.623,0,0,1,1-2.98l.284.112A29.258,29.258,0,0,0,895.579,1477.893Zm-6.81-.818-.133-.275a27.781,27.781,0,0,1,2.9-1.208l.1.288A27.392,27.392,0,0,0,888.769,1477.074Zm21.028-.711a17.4,17.4,0,0,0-2.881-1.131l.087-.293a17.641,17.641,0,0,1,2.931,1.15Zm-15.174-1.344-.068-.3a27.418,27.418,0,0,1,3.1-.522l.033.3A27.064,27.064,0,0,0,894.623,1475.019Zm9.262-.44a24.058,24.058,0,0,0-3.1-.231l0-.305a24.406,24.406,0,0,1,3.135.234Zm-6.057-2.481-.274-.135c.449-.907.951-1.836,1.493-2.76l.264.154C898.772,1470.276,898.273,1471.2,897.828,1472.1Zm3.142-5.38-.254-.17c.575-.856,1.188-1.715,1.821-2.554l.244.184C902.151,1465.012,901.542,1465.867,900.97,1466.718Z" transform="translate(-873.828 -1460.397)" fill="#005f7b"/>
            <path id="Path_1929" data-name="Path 1929" d="M872.676,1517.713l-.29-.1c.162-.485.336-.971.516-1.445l.286.109C873.009,1516.75,872.836,1517.232,872.676,1517.713Z" transform="translate(-872.386 -1483.712)" fill="#005f7b"/>
          </g>
        </g>
        <g id="Group_504" data-name="Group 504" transform="translate(27.953 69.165)">
          <g id="Group_503" data-name="Group 503">
            <path id="Path_1930" data-name="Path 1930" d="M603.832,1597.692a22,22,0,0,1,1.095-3.152c.569-1.164,1.3-3.353,1.748-3.4s.5.695.266,2.146.681.841,1.527-.775.9.722,1.657,2.136c2.062,3.87-1.267,5.376-2.132,5.849S603.832,1597.692,603.832,1597.692Z" transform="translate(-540.175 -1558.957)" fill="#ffb691"/>
            <path id="Path_1931" data-name="Path 1931" d="M526.565,1824.01l-3.029,3.19,4.119,5.224s.577-1.9,3.547-3.865S526.565,1824.01,526.565,1824.01Z" transform="translate(-504.295 -1663.013)" fill="#ffb691"/>
            <path id="Path_1932" data-name="Path 1932" d="M560.063,1748.721c-1.023,1.577-6.61,7.332-12.622,13.288-3.813,3.785-7.8,7.654-10.9,10.58a53.129,53.129,0,0,1-5.565,4.953c-.683-.111-4.9-5.115-4.9-5.115s.391-.533,1.06-1.458c1.335-1.835,3.774-5.208,6.452-8.973,3.547-5,7.508-10.691,9.839-14.411,1.294-2.066,2.084-3.522,2.029-3.916-.131-.9-3.722-5.3-7.479-9.7-2.506-2.926-5.084-5.857-6.761-7.751,0,0,0,0-.006,0-1.142-1.286-1.866-2.093-1.866-2.093l-1.8-2.973-2.9-4.8,2.153-1.545,3.208-2.3,7.528-5.4s1.324,1.757,3.32,4.411c.228.3.465.615.713.943,4.38,5.813,11.259,14.936,15.061,19.941C562.508,1740.12,562.4,1745.125,560.063,1748.721Z" transform="translate(-504.791 -1610.771)" fill="#005f7b"/>
            <path id="Path_1933" data-name="Path 1933" d="M550.156,1761.649c-3.2,5.676.421,8.222-8,14.786-6.423,5.007-11.129,8.57-13,9.977,4.086-5.62,18.555-25.658,18.32-27.3-.216-1.5-10.041-12.713-14.24-17.453,2.93,1.67,7.3,4.117,11.539,6.324C552.1,1751.8,553.354,1755.974,550.156,1761.649Z" transform="translate(-506.805 -1626.215)" fill="url(#linear-gradient-4)"/>
            <path id="Path_1934" data-name="Path 1934" d="M515.993,1832.668s-2.037,1.533-1.626,2.783,1.936,3.468,2.112,4.811,2.432,9.946,4,10.243,1.907-.445,1.907-.445-1.67-11.7-1.614-11.864S515.993,1832.668,515.993,1832.668Z" transform="translate(-500.173 -1666.882)" fill="#005f7b"/>
            <path id="Path_1935" data-name="Path 1935" d="M520.844,1828.213c-1.2.565-4.532,2.012-4.287,3.746s2.367,3.422,2.868,7.183,2.22,8.655,3.607,9.114,1.449-5.432,1.409-8.068a30.287,30.287,0,0,1,.9-6.923c.16-.266-1.523-1.415-2.611-2.994A7.358,7.358,0,0,0,520.844,1828.213Z" transform="translate(-501.171 -1664.891)" fill="#00324b"/>
            <path id="Path_1936" data-name="Path 1936" d="M558.515,1862.9a52.934,52.934,0,0,1,.372,6.72c-.192,1.547,6.022.333,6.022.333l-.325-6.654Z" transform="translate(-519.925 -1680.392)" fill="#ffb691"/>
            <path id="Path_1937" data-name="Path 1937" d="M537.6,1800.893a10.4,10.4,0,0,1-6.942-.423c-.551-.163-3.817-12.27-6.5-22.1-1.2-4.426-2.287-8.387-2.949-10.594-.238-.782-.42-1.344-.536-1.626-1.173-2.864-2.65-3.833-13.871-19.321a58.385,58.385,0,0,1-8.167-15.084c-2.17-6.318-1.636-9.873-1.636-9.873,2.362-2.614,12.558-1.832,17.42-1.291,1.584.176,2.6.327,2.6.327s.782,1.6,2.028,4.251c1.63,3.468,4.05,8.739,6.552,14.588,1.873,4.387,3.791,9.1,5.45,13.617.534,1.46,1.045,2.9,1.516,4.3a72.464,72.464,0,0,1,2.5,10.128C537.816,1783.051,537.6,1800.893,537.6,1800.893Z" transform="translate(-492.412 -1616.554)" fill="#005f7b"/>
            <path id="Path_1938" data-name="Path 1938" d="M528.476,1715.072l-10.848.991-3.208,2.3c-4.862-.541-15.058-1.324-17.42,1.291,0,0-.534,3.556,1.636,9.873a54.311,54.311,0,0,1,10.04-2.84,39.317,39.317,0,0,0,6.493-1.98c1.367-.543,2.663-1.143,3.879-1.766a50.116,50.116,0,0,0,10.141-6.928Z" transform="translate(-492.412 -1614.335)" fill="url(#linear-gradient-4)"/>
            <path id="Path_1939" data-name="Path 1939" d="M557.544,1881.855s-.434,1.464.105,2.055,2.723,1.317,4.226,1.911,4.938,3.057,6.579,3.476,5.211.926,5.6-1.122Z" transform="translate(-519.417 -1688.861)" fill="#005f7b"/>
            <path id="Path_1940" data-name="Path 1940" d="M558.147,1874c-.042.907-1.1,4.072-.034,5.077s3.348,1.331,4.681,2.116a38.147,38.147,0,0,0,6.927,3.313c1.894.482,4.263.185,4.45-.235.436-.981-4.014-4.076-6.155-5.737a11.953,11.953,0,0,1-3.322-4.919c-.158-.376-1.444-.015-3.678-.289S558.2,1872.868,558.147,1874Z" transform="translate(-519.534 -1684.956)" fill="#00324b"/>
            <path id="Path_1941" data-name="Path 1941" d="M557.127,1605.194c-.174.512-5.725,10.174-8.808,15.514v0c-.911,1.577-1.607,2.779-1.884,3.256-1.336,2.3-5.972,4.953-10.879,7.267-5,2.359-13.993,3.332-14.1,11.962-.081,6.342,1.345,12.644,2.5,17.335a48.628,48.628,0,0,0,1.395,4.937c.11.144-3.091,2.4-6.8,4.317-2.854,1.476-6.009,2.753-8.186,2.712-5.008-.092-17.1,3.849-18.03,3.113s-5.046-25.095-3.021-37.621c2.354-14.576,13.495-14.78,13.495-14.78s4.389.557,8.768,1.031c2.256.243,4.509.464,6.161.57,4.856.316,20.623-5.855,22.957-7.558,2.8-2.043,11.356-14.927,11.679-14.759S557.35,1604.53,557.127,1605.194Z" transform="translate(-488.752 -1564.03)" fill="#ffcb5b"/>
            <path id="Path_1942" data-name="Path 1942" d="M527.809,1691.022c.11.144-3.091,2.4-6.8,4.317-7.75.388-18.3-2.866-20.4-7.276-2.75-5.776-6.342-28.385-6.342-28.385l7.125.726,5.236,21.063,19.786,4.617A48.568,48.568,0,0,0,527.809,1691.022Z" transform="translate(-491.217 -1589.583)" fill="#ffa302"/>
            <path id="Path_1943" data-name="Path 1943" d="M522.072,1654.768c-1.432-5.49-7.923-14.821-7.923-14.821s4.389.556,8.768,1.031C523.809,1645.315,522.072,1654.768,522.072,1654.768Z" transform="translate(-500.101 -1580.766)" fill="#fff"/>
            <path id="Path_1944" data-name="Path 1944" d="M516.294,1624.786a53.921,53.921,0,0,1-2.147,8.386,10.656,10.656,0,0,0,4.659,1.893c2.9.47,4.112-.864,4.112-.864l1.142-7.048Z" transform="translate(-500.1 -1573.991)" fill="#ffb691"/>
            <g id="Group_501" data-name="Group 501" transform="translate(13.924 31.31)">
              <g id="Group_500" data-name="Group 500">
                <path id="Path_1945" data-name="Path 1945" d="M531.633,1604.291l-1.536,9.479-7.524-.218-1.261-1.4-1.379-1.529-1.939-5.872a39.943,39.943,0,0,1,.956-4.181c.11-.079,4.111.01,7.48.1,2.47.067,4.6.134,4.6.134Z" transform="translate(-515.743 -1594.467)" fill="#ffb691"/>
                <g id="Group_499" data-name="Group 499">
                  <path id="Path_1946" data-name="Path 1946" d="M534.956,1597.313a3.394,3.394,0,0,1-.521,1.332,0,0,0,0,1,0,0,3.538,3.538,0,0,1-2.449,1.422,14.57,14.57,0,0,1-7.505-1.037c-1.885-.719-2.65-.692-3.3-.451-.268.1-.391.557-.5,1.129a15.8,15.8,0,0,1-.332,1.552c-.338,1.112-1.036.228-1.237-.846s-2.592-1.5-2.242.969,1.572,2.134,2.136,2.765.452,1.471,1.8,2.419a2.976,2.976,0,0,0,3.387.1c.812-.534,2.809-.267,3.5-.155s1.411.313,1.272.956-.629,4.361-1.3,5.209a3.7,3.7,0,0,1-.841.8,6.158,6.158,0,0,1-4.063.744,7.6,7.6,0,0,1-5.812-2.9,9.745,9.745,0,0,1-1.462-4.043c-.173-.922-.3-1.864-.4-2.719-.268-2.2-1.345-3.5-1.125-6.45.012-.159.027-.318.047-.487,0-.038.006-.08.012-.117a9.263,9.263,0,0,1,4.624-6.672c1.687-.894,4.257.23,5.2.341s2.076-2.538,5.54-1.269,1.942,2.94,2.845,3.795a9.776,9.776,0,0,0,1.82,1.059,1.629,1.629,0,0,1,.965,1.309A4.909,4.909,0,0,1,534.956,1597.313Z" transform="translate(-513.924 -1589.561)" fill="#002144"/>
                </g>
              </g>
            </g>
            <path id="Path_1947" data-name="Path 1947" d="M574.694,1635.43c-.911,1.577-1.607,2.778-1.884,3.256-1.336,2.3-5.972,4.953-10.88,7.267-5,2.359-13.993,3.332-14.1,11.962,0,0-.756-8.559,3.8-11.443S564.013,1645.908,574.694,1635.43Z" transform="translate(-515.128 -1578.747)" fill="#ffa302"/>
            <g id="Group_502" data-name="Group 502" transform="translate(25.358)">
              <rect id="Rectangle_204" data-name="Rectangle 204" width="11.603" height="106.695" transform="translate(39.062 17.988) rotate(21.379)" fill="#fe688e"/>
              <rect id="Rectangle_205" data-name="Rectangle 205" width="4.702" height="106.695" transform="translate(42.275 19.246) rotate(21.379)" fill="#fe99b7"/>
              <path id="Path_1948" data-name="Path 1948" d="M616.015,1555.177l-10.805-4.23,7.821-10.6,5.452-7.388-1.013,9.126Z" transform="translate(-566.148 -1532.958)" fill="#ffe8b5"/>
              <path id="Path_1949" data-name="Path 1949" d="M623.787,1542.084l-4.439-1.738,5.452-7.388Z" transform="translate(-572.466 -1532.958)" fill="#002144"/>
              <path id="Path_1950" data-name="Path 1950" d="M542.425,1750.692l-6.289-2.462a2.424,2.424,0,0,1-1.374-3.141h0l10.8,4.23h0A2.424,2.424,0,0,1,542.425,1750.692Z" transform="translate(-534.594 -1627.748)" fill="#002144"/>
            </g>
            <path id="Path_1951" data-name="Path 1951" d="M560.561,1703.089a21.939,21.939,0,0,1,2.286-.769c.819-.189,4.974-1.251,5.273-.811.4.591-1.6,1.055-2.255,1.475s2.021.006,2.454.4-.339,3.492-.707,3.783-4.657.256-6.531-.077S560.561,1703.089,560.561,1703.089Z" transform="translate(-520.628 -1608.227)" fill="#ffb691"/>
            <path id="Path_1952" data-name="Path 1952" d="M532.169,1683.624s-18.886,1.424-24.342-.6a6.823,6.823,0,0,1-2.545-2.014s0,0,0,0c-4.972-5.7-10.419-20.854-10.926-23.887-.6-3.567.762-7.413,4.171-8.438,1.492-.449,5.14.727,7.4,9.516s4.9,17.363,5.641,17.658,19.429,3.206,20.2,3.33c.335.054.457.919.486,1.866C532.28,1682.268,532.169,1683.624,532.169,1683.624Z" transform="translate(-491.194 -1584.634)" fill="#ffcb5b"/>
            <path id="Path_1953" data-name="Path 1953" d="M541.109,1709.8s-18.886,1.424-24.342-.6a6.823,6.823,0,0,1-2.545-2.014c.149.119,5.332,4.151,26.963.045C541.219,1708.447,541.109,1709.8,541.109,1709.8Z" transform="translate(-500.133 -1610.813)" fill="#ffa302"/>
            <path id="Path_1954" data-name="Path 1954" d="M611.777,1597.357s-2.738-.8-3.538,1.194-1.529,5.15,1.406,4.655Z" transform="translate(-541.827 -1561.664)" fill="#ffb691"/>
          </g>
          <path id="Path_1955" data-name="Path 1955" d="M535.547,1603.433a7.241,7.241,0,0,1-1.042-.081c-1.5-.221-2.75-.506-3.751-.735-1.7-.39-2.831-.646-3.568-.214l-.271-.459c.919-.542,2.127-.265,3.957.153.992.226,2.226.508,3.711.726a3.857,3.857,0,0,0,3.088-.571,2.649,2.649,0,0,0,.92-1.74l.532.028a3.175,3.175,0,0,1-1.114,2.125A3.774,3.774,0,0,1,535.547,1603.433Z" transform="translate(-505.805 -1563.145)" fill="#005f7b"/>
          <path id="Path_1956" data-name="Path 1956" d="M535.1,1601.373a10.881,10.881,0,0,1-2.652-.4c-2.9-.744-3.7-.42-3.705-.417l-.236-.477c.088-.045.952-.423,4.073.379,2.846.73,3.572.2,3.58.2l.354.4A2.123,2.123,0,0,1,535.1,1601.373Z" transform="translate(-506.515 -1562.892)" fill="#005f7b"/>
        </g>
      </g>
    </g>
  </g>
</svg>
