<svg xmlns="http://www.w3.org/2000/svg" width="565.097" height="313.346" viewBox="0 0 565.097 313.346">
  <g id="Group_928" data-name="Group 928" transform="translate(-249.754 -150.731)">
    <g id="Group_724" data-name="Group 724" transform="translate(249.754 150.731)">
      <g id="Group_674" data-name="Group 674" transform="translate(155.849 217.105)" opacity="0.4">
        <path id="Path_3117" data-name="Path 3117" d="M471.517,497.523c.006.015.009.034.015.05a3.3,3.3,0,0,0,3.235,2.439l1.916-.031a3.316,3.316,0,0,1,2.945,1.718c.12.21.241.421.362.629a3.319,3.319,0,0,1,.022,3.417l-.982,1.632a3.3,3.3,0,0,0,.495,4.024l.041.041a3.3,3.3,0,0,0,4.024.495l1.632-.982a3.319,3.319,0,0,1,3.417.022c.207.121.418.242.629.362a3.315,3.315,0,0,1,1.718,2.944l-.031,1.917a3.3,3.3,0,0,0,2.439,3.235c.016.006.034.009.05.015a3.3,3.3,0,0,0,3.734-1.585l.928-1.672a3.284,3.284,0,0,1,2.919-1.693c.136,0,.273.006.409.006s.272,0,.409-.006a3.284,3.284,0,0,1,2.919,1.693l.929,1.672a3.3,3.3,0,0,0,3.733,1.585c.016-.006.034-.009.05-.015a3.294,3.294,0,0,0,2.439-3.235l-.031-1.917a3.317,3.317,0,0,1,1.718-2.944c.21-.12.421-.241.629-.362a3.319,3.319,0,0,1,3.417-.022l1.632.982a3.3,3.3,0,0,0,4.025-.495l.04-.041a3.3,3.3,0,0,0,.495-4.024l-.981-1.632a3.318,3.318,0,0,1,.021-3.417c.121-.207.242-.418.363-.629a3.314,3.314,0,0,1,2.944-1.718l1.916.031a3.3,3.3,0,0,0,3.235-2.439c.006-.016.009-.034.016-.05a3.3,3.3,0,0,0-1.585-3.734l-1.672-.929a3.283,3.283,0,0,1-1.693-2.919c0-.136.006-.272.006-.409s0-.272-.006-.409A3.285,3.285,0,0,1,528.1,486.2l1.672-.929a3.3,3.3,0,0,0,1.585-3.734c-.006-.015-.009-.034-.016-.049a3.294,3.294,0,0,0-3.235-2.439l-1.916.031a3.315,3.315,0,0,1-2.944-1.718c-.121-.21-.242-.421-.363-.629a3.319,3.319,0,0,1-.021-3.418l.981-1.631a3.3,3.3,0,0,0-.495-4.025l-.04-.04a3.3,3.3,0,0,0-4.025-.495l-1.632.981a3.318,3.318,0,0,1-3.417-.022l-.629-.362a3.315,3.315,0,0,1-1.718-2.944l.031-1.916a3.294,3.294,0,0,0-2.439-3.235c-.016-.006-.034-.009-.05-.016a3.3,3.3,0,0,0-3.733,1.585l-.929,1.672a3.286,3.286,0,0,1-2.919,1.693c-.136,0-.273-.006-.409-.006s-.273,0-.409.006a3.286,3.286,0,0,1-2.919-1.693l-.928-1.672a3.3,3.3,0,0,0-3.734-1.585c-.015.006-.034.009-.05.016a3.3,3.3,0,0,0-2.439,3.235l.031,1.916a3.314,3.314,0,0,1-1.718,2.944l-.629.362a3.318,3.318,0,0,1-3.417.022l-1.632-.981a3.3,3.3,0,0,0-4.024.495l-.041.04a3.3,3.3,0,0,0-.495,4.025l.982,1.631a3.32,3.32,0,0,1-.022,3.418c-.121.207-.242.418-.362.629a3.317,3.317,0,0,1-2.945,1.718l-1.916-.031a3.294,3.294,0,0,0-3.235,2.439c-.006.016-.009.034-.015.049a3.3,3.3,0,0,0,1.585,3.734l1.672.929a3.284,3.284,0,0,1,1.693,2.919c0,.136-.006.273-.006.409s0,.273.006.409a3.283,3.283,0,0,1-1.693,2.919l-1.672.929A3.3,3.3,0,0,0,471.517,497.523Zm11.343-7.99a18.575,18.575,0,1,1,18.575,18.575A18.573,18.573,0,0,1,482.86,489.532Z" transform="translate(-471.407 -459.504)" fill="#f4d7c9"/>
        <circle id="Ellipse_60" data-name="Ellipse 60" cx="8.384" cy="8.384" r="8.384" transform="translate(21.644 21.799)" fill="#f4d7c9"/>
      </g>
      <g id="Group_676" data-name="Group 676" transform="translate(75.53 282.833)">
        <path id="Path_3118" data-name="Path 3118" d="M435.8,578.048s-5.849-17.155-24.368-10.917c0,0-4.679-14.621-17.545-14.133s-16.96,12.52-16.96,12.52-17.285-2.09-19.755,12.531Z" transform="translate(-357.175 -552.985)" fill="#adccc7"/>
        <g id="Group_675" data-name="Group 675" transform="translate(32.204 6.549)">
          <path id="Path_3119" data-name="Path 3119" d="M413.2,580.725l.732-.118a23.418,23.418,0,0,1,4.8-17.818l-.557-.49A24.194,24.194,0,0,0,413.2,580.725Z" transform="translate(-405.928 -562.299)" fill="#6eab9c"/>
          <path id="Path_3120" data-name="Path 3120" d="M410.049,574.476l.567-.477c-.059-.07-5.918-7.078-6.916-11.467l-.724.165C404.015,567.259,409.8,574.183,410.049,574.476Z" transform="translate(-402.977 -562.368)" fill="#6eab9c"/>
          <path id="Path_3121" data-name="Path 3121" d="M413.463,582.39c4.6-.251,8.679-4.993,8.85-5.195l-.565-.48c-.04.047-4.042,4.7-8.326,4.934Z" transform="translate(-406.078 -566.579)" fill="#6eab9c"/>
        </g>
        <path id="Path_3122" data-name="Path 3122" d="M387.884,585.777l.484-.561c-.332-.286-8.177-7.025-12.268-7.139l-.02.741C379.909,578.925,387.8,585.709,387.884,585.777Z" transform="translate(-362.787 -560.434)" fill="#6eab9c"/>
        <path id="Path_3123" data-name="Path 3123" d="M371.117,586.155a70.637,70.637,0,0,0,11.365-1.688l-.185-.718a69.879,69.879,0,0,1-11.224,1.666Z" transform="translate(-361.301 -562.118)" fill="#6eab9c"/>
        <path id="Path_3124" data-name="Path 3124" d="M437.131,585.569c4.116-3.423,12.8-6.158,12.892-6.185l-.221-.708c-.362.113-8.917,2.808-13.146,6.324Z" transform="translate(-380.771 -560.612)" fill="#6eab9c"/>
        <path id="Path_3125" data-name="Path 3125" d="M442.821,576.505" transform="translate(-382.602 -559.968)" fill="none" stroke="#6eab9c" stroke-width="2"/>
        <path id="Path_3126" data-name="Path 3126" d="M441.772,581.873l.741-.021a13.27,13.27,0,0,1,1.422-6.213l-.646-.364A13.767,13.767,0,0,0,441.772,581.873Z" transform="translate(-382.288 -559.602)" fill="#6eab9c"/>
      </g>
      <g id="Group_677" data-name="Group 677" transform="translate(317.068 287.092)">
        <path id="Path_3127" data-name="Path 3127" d="M717.489,586.189l-.552-2a22.173,22.173,0,0,1,3.251-18.93l.87.692a21.441,21.441,0,0,0-3.438,16.288c1.507-2.971,5.924-8.935,17.243-9.5l.056,1.11c-14.252.713-16.883,10.235-16.908,10.332Z" transform="translate(-705.269 -560.887)" fill="#f2baab"/>
        <circle id="Ellipse_61" data-name="Ellipse 61" cx="2.636" cy="2.636" r="2.636" transform="translate(29.95 9.953)" fill="#f2baab"/>
        <path id="Path_3128" data-name="Path 3128" d="M705.971,575.834a2.636,2.636,0,1,1-2.637-2.637A2.636,2.636,0,0,1,705.971,575.834Z" transform="translate(-700.698 -563.244)" fill="#f2baab"/>
        <path id="Path_3129" data-name="Path 3129" d="M725.394,561.679a2.636,2.636,0,1,1-2.636-2.637A2.636,2.636,0,0,1,725.394,561.679Z" transform="translate(-706.464 -559.042)" fill="#f2baab"/>
        <path id="Path_3130" data-name="Path 3130" d="M714.2,587.923c-1.289-4.925-7.254-9.1-7.314-9.142l.632-.915c.259.179,6.363,4.449,7.758,9.775Z" transform="translate(-702.535 -564.63)" fill="#f2baab"/>
      </g>
      <g id="Group_678" data-name="Group 678" transform="translate(353.503 258.902)">
        <path id="Path_3131" data-name="Path 3131" d="M799.38,542.885c-5.012-7.393-10.62-12.436-19.418-17.865s-19.383-4.253-23.936-5.808-4.02,4.122-2.073,9.292.657,30.138,26.086,35.141S803.08,548.343,799.38,542.885Z" transform="translate(-752.517 -518.95)" fill="#f2d6c8"/>
        <path id="Path_3132" data-name="Path 3132" d="M797.451,555.328a.37.37,0,0,0,.36-.461c-2.1-8.312,1.142-17.162,1.175-17.251a.37.37,0,1,0-.694-.259c-.034.091-3.361,9.151-1.2,17.692A.37.37,0,0,0,797.451,555.328Z" transform="translate(-765.534 -524.343)" fill="#f5b89b"/>
        <path id="Path_3133" data-name="Path 3133" d="M789.286,563.47a.37.37,0,0,0,.134-.716c-7.961-3.093-20.343-.313-20.866-.193a.371.371,0,0,0,.165.723c.126-.03,12.684-2.848,20.433.161A.358.358,0,0,0,789.286,563.47Z" transform="translate(-757.192 -531.522)" fill="#f5b89b"/>
        <path id="Path_3134" data-name="Path 3134" d="M789.417,559.171a.384.384,0,0,0,.127-.022.371.371,0,0,0,.22-.476c-7.837-21.423-30.708-34.567-30.938-34.7a.371.371,0,0,0-.365.646c.227.129,22.865,13.145,30.608,34.307A.37.37,0,0,0,789.417,559.171Z" transform="translate(-754.226 -520.428)" fill="#f5b89b"/>
        <path id="Path_3135" data-name="Path 3135" d="M777.9,545.526a.371.371,0,0,0,.2-.685c-5.458-3.433-16.8-1.143-17.276-1.044a.37.37,0,1,0,.15.726c.115-.024,11.526-2.328,16.731.946A.378.378,0,0,0,777.9,545.526Z" transform="translate(-754.895 -526.077)" fill="#f5b89b"/>
        <path id="Path_3136" data-name="Path 3136" d="M778.116,535.981a.371.371,0,0,0,.323-.552c-1.8-3.208-1.695-9.3-1.693-9.366a.372.372,0,0,0-.363-.378h-.008a.371.371,0,0,0-.37.363c0,.259-.11,6.359,1.789,9.743A.371.371,0,0,0,778.116,535.981Z" transform="translate(-759.489 -520.949)" fill="#f5b89b"/>
      </g>
      <path id="Path_3137" data-name="Path 3137" d="M875.591,575.9s-.555-14.294-12.229-20.552-19.98,2.052-19.98,2.052-6.2-17.836-23.685-17.242-18.715,15.19-18.715,15.19-19.908-5.613-31,5.209c-11.326,11.049-9.051,16.085-9.051,16.085Z" transform="translate(-401.456 -266.339)" fill="#adccc7"/>
      <g id="Group_679" data-name="Group 679" transform="translate(444.098 298.049)">
        <path id="Path_3138" data-name="Path 3138" d="M881.842,584.433c.074-.062,7.422-6.232,15.618-9.108l-.245-.7c-8.328,2.922-15.777,9.179-15.852,9.241Z" transform="translate(-881.363 -574.626)" fill="#6eab9c"/>
        <path id="Path_3139" data-name="Path 3139" d="M903.066,584.483l.339-.66c-.215-.11-5.391-2.7-14.915-1.377l.1.734C897.886,581.887,903.015,584.456,903.066,584.483Z" transform="translate(-883.479 -576.836)" fill="#6eab9c"/>
      </g>
      <g id="Group_680" data-name="Group 680" transform="translate(285.483 218.68)" opacity="0.4">
        <path id="Path_3140" data-name="Path 3140" d="M655.842,483.936c0,.009.006.02.009.029a1.924,1.924,0,0,0,1.889,1.424l1.119-.018a1.935,1.935,0,0,1,1.718,1c.07.123.141.246.212.367a1.938,1.938,0,0,1,.013,1.995l-.573.953a1.924,1.924,0,0,0,.289,2.349l.023.023a1.925,1.925,0,0,0,2.35.289l.952-.572a1.935,1.935,0,0,1,1.995.013l.367.211a1.935,1.935,0,0,1,1,1.719l-.018,1.118a1.923,1.923,0,0,0,1.424,1.889l.029.009a1.926,1.926,0,0,0,2.179-.925l.542-.976a1.919,1.919,0,0,1,1.7-.989c.079,0,.159,0,.238,0s.159,0,.238,0a1.918,1.918,0,0,1,1.7.989l.542.976a1.927,1.927,0,0,0,2.18.925l.029-.009a1.924,1.924,0,0,0,1.424-1.889l-.018-1.118a1.936,1.936,0,0,1,1-1.719l.366-.211a1.936,1.936,0,0,1,2-.013l.952.572a1.924,1.924,0,0,0,2.349-.289l.023-.023a1.924,1.924,0,0,0,.29-2.349l-.573-.953a1.938,1.938,0,0,1,.013-1.995l.212-.367a1.935,1.935,0,0,1,1.718-1l1.119.018a1.924,1.924,0,0,0,1.888-1.424c0-.008.006-.02.009-.029a1.926,1.926,0,0,0-.925-2.179l-.976-.542a1.918,1.918,0,0,1-.988-1.7c0-.079,0-.159,0-.238s0-.159,0-.238a1.919,1.919,0,0,1,.988-1.7l.976-.542a1.926,1.926,0,0,0,.925-2.179c0-.009-.006-.02-.009-.029a1.924,1.924,0,0,0-1.888-1.425l-1.119.018a1.935,1.935,0,0,1-1.718-1c-.071-.123-.141-.246-.212-.367a1.938,1.938,0,0,1-.013-1.995l.573-.953a1.924,1.924,0,0,0-.29-2.349l-.023-.023a1.924,1.924,0,0,0-2.349-.289l-.952.572a1.936,1.936,0,0,1-2-.013l-.366-.211a1.935,1.935,0,0,1-1-1.718l.018-1.119A1.924,1.924,0,0,0,678,461.818l-.029-.009a1.928,1.928,0,0,0-2.18.925l-.542.976a1.916,1.916,0,0,1-1.7.988l-.238,0-.238,0a1.917,1.917,0,0,1-1.7-.988l-.542-.976a1.927,1.927,0,0,0-2.179-.925l-.029.009a1.923,1.923,0,0,0-1.424,1.889l.018,1.119a1.935,1.935,0,0,1-1,1.718l-.367.211a1.935,1.935,0,0,1-1.995.013l-.952-.572a1.925,1.925,0,0,0-2.35.289l-.023.023a1.924,1.924,0,0,0-.289,2.349l.573.953a1.938,1.938,0,0,1-.013,1.995c-.071.121-.141.244-.212.367a1.935,1.935,0,0,1-1.718,1l-1.119-.018a1.924,1.924,0,0,0-1.889,1.425c0,.009-.006.02-.009.029a1.927,1.927,0,0,0,.925,2.179l.976.542a1.919,1.919,0,0,1,.989,1.7c0,.079,0,.159,0,.238s0,.159,0,.238a1.918,1.918,0,0,1-.989,1.7l-.976.542A1.927,1.927,0,0,0,655.842,483.936Zm6.621-4.664a10.842,10.842,0,1,1,10.842,10.842A10.842,10.842,0,0,1,662.463,479.272Z" transform="translate(-655.777 -461.744)" fill="#f4d7c9"/>
      </g>
      <path id="Path_3141" data-name="Path 3141" d="M671.639,176.171H566.9s6.2-12.172,20.5-6.086c0,0,7.786-13.984,23.678-5.721,0,0,6.118-15.573,23.28-13.431,16.465,2.055,19.546,16.45,19.546,16.45S669.914,166.683,671.639,176.171Z" transform="translate(-343.906 -150.731)" fill="#edf6f5"/>
      <path id="Path_3142" data-name="Path 3142" d="M249.754,485.775h79.074s-5.439-12.133-17.99-7.112c0,0-4.6-12.551-15.481-11.087s-12.97,9.041-12.97,9.041-11.715-4.648-23.011,4.766C259.377,481.383,250.172,480.337,249.754,485.775Z" transform="translate(-249.754 -244.76)" fill="#edf6f5"/>
      <path id="Path_3143" data-name="Path 3143" d="M821.63,198.735H755.639s5.453-10.358,19.553-6.538a16.961,16.961,0,0,1,16.357-10.844,18.932,18.932,0,0,1,17.3,10.844S820.5,191.676,821.63,198.735Z" transform="translate(-399.941 -159.822)" fill="#edf6f5"/>
      <path id="Path_3144" data-name="Path 3144" d="M525.42,417.934l251.988,4.651,5.919-4.651V270.8H525.42l-5.919,4.651Z" transform="translate(-329.836 -186.377)" fill="#b6d5d0"/>
      <path id="Path_3145" data-name="Path 3145" d="M525.42,247.913l251.988,4.651,5.919-4.651v-18.6H525.42L519.5,233.96Z" transform="translate(-329.836 -174.059)" fill="#b6d5d0"/>
      <rect id="Rectangle_306" data-name="Rectangle 306" width="257.907" height="147.134" transform="translate(189.665 89.074)" fill="#dceceb"/>
      <rect id="Rectangle_307" data-name="Rectangle 307" width="69.944" height="36.005" transform="translate(368.008 104.009)" fill="#b2e5e0"/>
      <g id="Group_681" data-name="Group 681" transform="translate(204.818 192.678)">
        <rect id="Rectangle_308" data-name="Rectangle 308" width="73.281" height="2.925" transform="translate(0 0.919)" fill="#fff"/>
        <rect id="Rectangle_309" data-name="Rectangle 309" width="73.281" height="2.925" transform="translate(0 12.534)" fill="#fff"/>
        <rect id="Rectangle_310" data-name="Rectangle 310" width="73.281" height="2.924" transform="translate(0 24.278)" fill="#fff"/>
        <path id="Path_3146" data-name="Path 3146" d="M656.807,429.527h.167a2.381,2.381,0,0,0,2.381-2.381h0a2.381,2.381,0,0,0-2.381-2.381h-.167a2.381,2.381,0,0,0-2.381,2.381h0A2.381,2.381,0,0,0,656.807,429.527Z" transform="translate(-574.711 -424.764)" fill="#fff"/>
        <path id="Path_3147" data-name="Path 3147" d="M656.807,446.046h.167a2.382,2.382,0,0,0,2.381-2.381h0a2.381,2.381,0,0,0-2.381-2.382h-.167a2.381,2.381,0,0,0-2.381,2.382h0A2.382,2.382,0,0,0,656.807,446.046Z" transform="translate(-574.711 -429.668)" fill="#fff"/>
        <path id="Path_3148" data-name="Path 3148" d="M656.807,462.8h.167a2.381,2.381,0,0,0,2.381-2.381h0a2.382,2.382,0,0,0-2.381-2.381h-.167a2.382,2.382,0,0,0-2.381,2.381h0A2.381,2.381,0,0,0,656.807,462.8Z" transform="translate(-574.711 -434.643)" fill="#fff"/>
      </g>
      <g id="Group_682" data-name="Group 682" transform="translate(353.503 149.81)">
        <rect id="Rectangle_311" data-name="Rectangle 311" width="73.281" height="2.924" transform="translate(0 0.919)" fill="#fff"/>
        <rect id="Rectangle_312" data-name="Rectangle 312" width="73.281" height="2.925" transform="translate(0 12.534)" fill="#fff"/>
        <path id="Path_3149" data-name="Path 3149" d="M868.271,368.558h.167a2.382,2.382,0,0,0,2.381-2.381h0a2.382,2.382,0,0,0-2.381-2.381h-.167a2.382,2.382,0,0,0-2.381,2.381h0A2.382,2.382,0,0,0,868.271,368.558Z" transform="translate(-786.175 -363.795)" fill="#fff"/>
        <path id="Path_3150" data-name="Path 3150" d="M868.271,385.076h.167a2.382,2.382,0,0,0,2.381-2.381h0a2.382,2.382,0,0,0-2.381-2.382h-.167a2.382,2.382,0,0,0-2.381,2.382h0A2.382,2.382,0,0,0,868.271,385.076Z" transform="translate(-786.175 -368.699)" fill="#fff"/>
      </g>
      <rect id="Rectangle_313" data-name="Rectangle 313" width="257.907" height="18.603" transform="translate(189.665 59.901)" fill="#c6e0dd"/>
      <g id="Group_686" data-name="Group 686" transform="translate(199.953 66.525)">
        <g id="Group_683" data-name="Group 683" transform="translate(21.986)">
          <path id="Path_3151" data-name="Path 3151" d="M570.757,248.022a2.677,2.677,0,1,1-2.677-2.677A2.678,2.678,0,0,1,570.757,248.022Z" transform="translate(-565.402 -245.345)" fill="#67b4d2"/>
        </g>
        <g id="Group_684" data-name="Group 684" transform="translate(10.993)">
          <path id="Path_3152" data-name="Path 3152" d="M555.123,248.022a2.678,2.678,0,1,1-2.677-2.677A2.678,2.678,0,0,1,555.123,248.022Z" transform="translate(-549.767 -245.345)" fill="#eb908b"/>
        </g>
        <g id="Group_685" data-name="Group 685">
          <path id="Path_3153" data-name="Path 3153" d="M539.489,248.022a2.678,2.678,0,1,1-2.678-2.677A2.678,2.678,0,0,1,539.489,248.022Z" transform="translate(-534.133 -245.345)" fill="#ffaa3f"/>
        </g>
      </g>
      <g id="Group_702" data-name="Group 702" transform="translate(174.713 104.19)">
        <rect id="Rectangle_314" data-name="Rectangle 314" width="123.074" height="73.125" rx="6.32" transform="translate(3.794)" fill="#b2e5e0"/>
        <rect id="Rectangle_315" data-name="Rectangle 315" width="123.074" height="73.125" rx="6.32" transform="translate(0 3.466)" fill="#3fb8a9"/>
        <g id="Group_693" data-name="Group 693" transform="translate(72.428 14.022)">
          <g id="Group_687" data-name="Group 687">
            <rect id="Rectangle_316" data-name="Rectangle 316" width="3.411" height="52.335" fill="#fff"/>
          </g>
          <g id="Group_688" data-name="Group 688" transform="translate(7.534)">
            <rect id="Rectangle_317" data-name="Rectangle 317" width="3.411" height="52.335" fill="#fff"/>
          </g>
          <g id="Group_689" data-name="Group 689" transform="translate(15.068)">
            <rect id="Rectangle_318" data-name="Rectangle 318" width="3.411" height="52.335" fill="#fff"/>
          </g>
          <g id="Group_690" data-name="Group 690" transform="translate(22.601)">
            <rect id="Rectangle_319" data-name="Rectangle 319" width="3.411" height="52.335" fill="#fff"/>
          </g>
          <g id="Group_691" data-name="Group 691" transform="translate(30.135)">
            <rect id="Rectangle_320" data-name="Rectangle 320" width="3.411" height="52.335" fill="#fff"/>
          </g>
          <g id="Group_692" data-name="Group 692" transform="translate(37.669)">
            <rect id="Rectangle_321" data-name="Rectangle 321" width="3.411" height="52.335" fill="#fff"/>
          </g>
        </g>
        <g id="Group_694" data-name="Group 694" transform="translate(72.428 49.966)">
          <rect id="Rectangle_322" data-name="Rectangle 322" width="3.411" height="16.391" fill="#c6e0dd"/>
        </g>
        <g id="Group_695" data-name="Group 695" transform="translate(79.962 32.345)">
          <rect id="Rectangle_323" data-name="Rectangle 323" width="3.411" height="34.011" fill="#c6e0dd"/>
        </g>
        <g id="Group_696" data-name="Group 696" transform="translate(87.496 23.535)">
          <rect id="Rectangle_324" data-name="Rectangle 324" width="3.411" height="42.822" fill="#c6e0dd"/>
        </g>
        <g id="Group_697" data-name="Group 697" transform="translate(95.03 36.563)">
          <rect id="Rectangle_325" data-name="Rectangle 325" width="3.411" height="29.794" fill="#c6e0dd"/>
        </g>
        <g id="Group_698" data-name="Group 698" transform="translate(102.563 45.045)">
          <rect id="Rectangle_326" data-name="Rectangle 326" width="3.411" height="21.312" fill="#c6e0dd"/>
        </g>
        <g id="Group_699" data-name="Group 699" transform="translate(110.097 51.746)">
          <rect id="Rectangle_327" data-name="Rectangle 327" width="3.411" height="14.61" fill="#c6e0dd"/>
        </g>
        <circle id="Ellipse_62" data-name="Ellipse 62" cx="6.565" cy="6.565" r="6.565" transform="translate(44.823 15.154) rotate(-9.19)" fill="#fff"/>
        <g id="Group_700" data-name="Group 700" transform="translate(10.179 14.185)">
          <rect id="Rectangle_328" data-name="Rectangle 328" width="29.153" height="1.883" fill="#fff"/>
          <rect id="Rectangle_329" data-name="Rectangle 329" width="29.153" height="1.883" transform="translate(0 5.568)" fill="#fff"/>
          <rect id="Rectangle_330" data-name="Rectangle 330" width="16.132" height="1.884" transform="translate(13.02 11.082)" fill="#fff"/>
        </g>
        <circle id="Ellipse_63" data-name="Ellipse 63" cx="6.565" cy="6.565" r="6.565" transform="translate(45.787 37.94)" fill="#fff"/>
        <g id="Group_701" data-name="Group 701" transform="translate(10.179 38.104)">
          <rect id="Rectangle_331" data-name="Rectangle 331" width="29.153" height="1.883" fill="#fff"/>
          <rect id="Rectangle_332" data-name="Rectangle 332" width="29.153" height="1.884" transform="translate(0 5.568)" fill="#fff"/>
          <rect id="Rectangle_333" data-name="Rectangle 333" width="16.132" height="1.883" transform="translate(13.02 11.082)" fill="#fff"/>
        </g>
      </g>
      <rect id="Rectangle_334" data-name="Rectangle 334" width="455.812" height="5.559" transform="translate(75.53 307.787)" fill="#aecbc7"/>
      <g id="Group_703" data-name="Group 703" transform="translate(204.197 128.204)">
        <path id="Path_3154" data-name="Path 3154" d="M681.865,370.047s6.794-8.338,10.377-9.388-2.779,4.447-2.533,5.435,3.829,4.077,1.606,6.547-6.3,2.841-6.3,2.841Z" transform="translate(-582.235 -341.219)" fill="#ffac95"/>
        <path id="Path_3155" data-name="Path 3155" d="M607.2,370.716h10.5l1.134-3.584,1.582-5-5.259-2.8-2.524-1.342Z" transform="translate(-560.068 -340.466)" fill="#ffac95"/>
        <path id="Path_3156" data-name="Path 3156" d="M618.513,359.9a17.126,17.126,0,0,0,3.677,7.8l1.583-5Z" transform="translate(-563.427 -341.032)" fill="#e9928b"/>
        <path id="Path_3157" data-name="Path 3157" d="M580.653,453.255l1.235.679A18.643,18.643,0,0,1,583.247,459c0,1.792,1.05,4.942.37,5.188s-2.409-4.015-2.656-4.818-.927,2.965-1.174,4.015.555,5.065,0,5.25-3.212-2.779-3.582-4.139-.122-3.361-.368-3.052-.589,3.083-1.361,2.682c-.333-.173.247-3.459.989-5.5s1.667-6.115,1.667-6.115Z" transform="translate(-550.325 -368.528)" fill="#ffac95"/>
        <path id="Path_3158" data-name="Path 3158" d="M576.766,431.757c1.36,1.482,5.685.619,5.685.619s1.975-19.271,2.964-21.125c.649-1.219,3.758-6.819,5.808-10.51,1.067-1.924,1.849-3.324,1.849-3.324s.444-2.1.849-4.847c.823-5.574,1.479-13.805-2.068-12.545h0c-4.173,1.49-10.433,14.242-13.453,22.314a38.29,38.29,0,0,0-1.631,5.207C575.654,413.1,576.766,431.757,576.766,431.757Z" transform="translate(-550.887 -346.969)" fill="#c92041"/>
        <path id="Path_3159" data-name="Path 3159" d="M558.483,556.956c.7.493-1.764,8.471-.894,9.435s6.652,7.345,6.652,7.345a11.418,11.418,0,0,0,.119-5.73c-.664-2.516-.875-7.386,3.336-13.742a34.486,34.486,0,0,1,2.427-3.224l-5.7-8.09a40.057,40.057,0,0,1-4.466,5.148,12.252,12.252,0,0,1-1.149.937c-2.516,1.779-8.62,9.183-8.62,9.183l2.734,3.021S557.782,556.463,558.483,556.956Z" transform="translate(-543.143 -395.377)" fill="#0c1b3c"/>
        <path id="Path_3160" data-name="Path 3160" d="M644.965,567.141c-.371,3.057,1.02,12.552,1.02,12.552h4.076s-.278-6.808.556-6.993,5.1,6.993,6.393,6.993h9.913a11.45,11.45,0,0,0-4.169-3.936c-2.379-1.23-6.282-4.5-8.109-12.363-.237-1.019-.441-2.116-.6-3.294l-9.821-1.2s.46,2.153.689,4.5A18.212,18.212,0,0,1,644.965,567.141Z" transform="translate(-571.06 -400.11)" fill="#0c1b3c"/>
        <path id="Path_3161" data-name="Path 3161" d="M654.045,560.1l-9.821-1.2s.46,2.153.689,4.5h9.732C654.408,562.375,654.2,561.278,654.045,560.1Z" transform="translate(-571.06 -400.11)" fill="#e9928b"/>
        <path id="Path_3162" data-name="Path 3162" d="M564.082,548.1l7.739,6.166a34.5,34.5,0,0,1,2.427-3.224l-5.7-8.09A40.057,40.057,0,0,1,564.082,548.1Z" transform="translate(-547.268 -395.377)" fill="#e9928b"/>
        <path id="Path_3163" data-name="Path 3163" d="M564.5,511.663l9.45,8.153s6.779-7.085,13.472-14.62v0c5.974-6.723,11.881-13.8,12.841-16.506a72.609,72.609,0,0,0,2.468-12.141c.56-4.032.867-7.315.867-7.315l-.467-9.98-1.2-25.6-.527-.316-5.959-3.576h-4.11s-.252.434-.671,1.175c-1.9,3.357-7.211,13-7.819,16.8-.741,4.633,2.965,36.133,1.112,37.987S564.5,511.663,564.5,511.663Z" transform="translate(-547.393 -361.773)" fill="#376f92"/>
        <path id="Path_3164" data-name="Path 3164" d="M597.035,513.408c5.974-6.722,11.881-13.8,12.841-16.506,2.038-5.744,3.335-19.456,3.335-19.456l-.467-9.98c-5.425-5.2-10.551-10.032-10.551-10.032s-3.335,17.788,0,24.459-3.535,7.653-.741,15.379C604.043,504.436,595.616,504.05,597.035,513.408Z" transform="translate(-557.003 -369.988)" fill="#1b5175"/>
        <path id="Path_3165" data-name="Path 3165" d="M614.065,476.545c.645,1.164,1.145,2.031,1.423,2.505,1.853,3.15,15.194,43.545,15.194,43.545H643.1s-2.779-21.865-5.929-39.283c-2.724-15.05-11.392-44.079-13.7-51.688-.367-1.2-.571-1.864-.571-1.864h-16.12s-.449,1.123-1.053,2.965a64.739,64.739,0,0,0-3.024,13.9C602.073,453.869,610.411,469.949,614.065,476.545Z" transform="translate(-558.724 -361.773)" fill="#376f92"/>
        <path id="Path_3166" data-name="Path 3166" d="M663.034,566.1" transform="translate(-576.645 -402.249)" fill="none" stroke="#040707" stroke-width="1"/>
        <path id="Path_3167" data-name="Path 3167" d="M601.715,430.936a9.975,9.975,0,0,0,3.729,1.79,23.676,23.676,0,0,0,7.012.611,52.806,52.806,0,0,0,10.732-1.712c-.367-1.2-.571-1.864-.571-1.864H602.386S602.134,430.195,601.715,430.936Z" transform="translate(-558.44 -361.773)" fill="#0c1b3c"/>
        <path id="Path_3168" data-name="Path 3168" d="M595.439,391.185a28.344,28.344,0,0,0,1.056,6.026c.122.382.249.793.375,1.227,1.578,5.344,3.609,14.216,3.609,14.216a16.141,16.141,0,0,0,4.837,1.519c7.294,1.164,15.394-1.519,15.394-1.519s-1.482-8.153,1.483-11.488A17.315,17.315,0,0,0,625.9,393.5s12.474,4.818,15.565,4.2,18.652-17.666,18.652-18.778-3.954-5.437-3.954-5.437S640.845,387.2,640.352,387.2s-15.32-9.139-19.66-11.488c-3.224-1.742-8.606-2.872-11.155-3.336v0h-.007c-.879-.16-1.42-.241-1.42-.241s-.349.119-.927.338c-2.116.8-7.308,2.92-9.683,5.247h0a4.724,4.724,0,0,0-1,1.33C595.413,381.386,595.062,386.534,595.439,391.185Z" transform="translate(-556.534 -344.666)" fill="#c92041"/>
        <path id="Path_3169" data-name="Path 3169" d="M627.339,343.541s2.316,15.022-1.112,16.081-7.6-3.759-7.6-3.759-1.2-5.744,0-9.543S622.892,346.135,627.339,343.541Z" transform="translate(-563.303 -336.176)" fill="#ffac95"/>
        <path id="Path_3170" data-name="Path 3170" d="M646.4,523.964l1.1-.166c-6.844-45.2-19.974-89.974-20.106-90.421l-1.067.314C626.455,434.138,639.565,478.845,646.4,523.964Z" transform="translate(-565.746 -362.847)" fill="#1b5175"/>
        <path id="Path_3171" data-name="Path 3171" d="M610.152,462.118c-5.053-2.591-5.356-11.468-5.367-11.844l-.016-.572h11.38l-.039.593c-.754,11.483-5.474,11.873-5.674,11.883l-.151.008Zm-4.221-11.3c.151,1.929.918,8.189,4.567,10.228.659-.174,3.754-1.467,4.459-10.228Z" transform="translate(-559.347 -367.693)" fill="#1b5175"/>
        <path id="Path_3172" data-name="Path 3172" d="M609.548,422.294c7.293,1.164,15.394-1.519,15.394-1.519s-1.482-8.153,1.483-11.488a17.315,17.315,0,0,0,3.706-7.661s-6.694-3.828-6.2-1.234,2.594,11.885-6.052,11.689C610.3,411.906,614.681,420.545,609.548,422.294Z" transform="translate(-560.766 -352.786)" fill="#98192c"/>
        <path id="Path_3173" data-name="Path 3173" d="M579.294,400.136c2.112-1.382,5.34-1.141,7.49-5.262a6.9,6.9,0,0,1,3.906-3.587,26.765,26.765,0,0,1,4.129-.919,12.158,12.158,0,0,0,7.253-3.832c5.755-6.211,2.8-13.842,2.716-14.053v0h-.007l-2.346.1c-2.116.8-7.308,2.92-9.683,5.247h0C588.574,379.313,582.314,392.065,579.294,400.136Z" transform="translate(-551.784 -344.767)" fill="#98192c"/>
        <path id="Path_3174" data-name="Path 3174" d="M541.036,381.706c3.821,7.66,19.19,10.424,23.329,1.345,4.818-10.562,7.876-7.968,15.843-7.412s13.62-3.705,12.971-12.786c-.645-9,5.552-9.965,7.29-18.111.03-.129.044-.2.044-.2A5.217,5.217,0,0,1,604.2,340.8s2.038-1.389,0-4.632-15.1-5.929-18.159,2.687-2.779,12.971-12.6,12.508-16.214,3.243-16.862,12.415-15.751,3.243-16.4,13.805A8,8,0,0,0,541.036,381.706Z" transform="translate(-540.168 -333.067)" fill="#ffc945"/>
      </g>
      <g id="Group_708" data-name="Group 708" transform="translate(84.197 98.372)">
        <g id="Group_707" data-name="Group 707">
          <path id="Path_3175" data-name="Path 3175" d="M417.886,338.543l2.438-5.791s4.511-4.755,1.951-8.595-13.411-4.755-15.788,9.265c0,0-3.84.122-4.511,3.84s2.682,6.157,3.719,8.9a6.794,6.794,0,0,0,3.352,3.719l4.328.67Z" transform="translate(-379.117 -299.862)" fill="#0c1b3c"/>
          <path id="Path_3176" data-name="Path 3176" d="M385.658,456.536a35.055,35.055,0,0,1,3.17,6.278c.61,2.194,1.158,2.865.671,3.292s-1.707-1.768-2.561-2.865-.975,2.926-.975,4.389.7,4.084-.089,4.145-2.836-3.352-3.568-4.755-.4-10.484-.4-10.484Z" transform="translate(-373.161 -339.891)" fill="#e9928b"/>
          <path id="Path_3177" data-name="Path 3177" d="M388.612,572.751l1.829,1.371s1.372,5.3.732,7.36H369.5a12.985,12.985,0,0,1,6.4-4.366c4.3-1.348,5.578-1.8,6.218-2.994S388.612,572.751,388.612,572.751Z" transform="translate(-369.502 -374.392)" fill="#ffab40"/>
          <path id="Path_3178" data-name="Path 3178" d="M444.5,571.71l-1.554,2.1s-1.92,4.662-1.1,7.36h18.1a5.66,5.66,0,0,0-3.292-4.366,53.792,53.792,0,0,1-5.669-2.994Z" transform="translate(-390.92 -374.083)" fill="#ffab40"/>
          <rect id="Rectangle_335" data-name="Rectangle 335" width="21.67" height="2.15" transform="translate(0 207.09)" fill="#fff"/>
          <rect id="Rectangle_336" data-name="Rectangle 336" width="18.104" height="2.15" transform="translate(50.93 207.09)" fill="#fff"/>
          <path id="Path_3179" data-name="Path 3179" d="M387.446,570.8h8.324l.578-3.888.608-4.069-8.868-1.279-.371,5.348Z" transform="translate(-374.829 -371.072)" fill="#e9928b"/>
          <path id="Path_3180" data-name="Path 3180" d="M441.935,563.649l.549,3.884.548,3.888h8.046l-.5-3.888-.5-3.884Z" transform="translate(-391.006 -371.69)" fill="#e9928b"/>
          <path id="Path_3181" data-name="Path 3181" d="M450.073,563.649h-8.138l.549,3.884h8.09Z" transform="translate(-391.006 -371.69)" fill="#de6667"/>
          <path id="Path_3182" data-name="Path 3182" d="M387.831,566.915h8.631l.608-4.069-8.868-1.279Z" transform="translate(-374.943 -371.072)" fill="#de6667"/>
          <path id="Path_3183" data-name="Path 3183" d="M384.589,529.922h12.982s10.057-35.844,11.155-40.966,4.877-16.4,4.877-16.4l9.754,57.361h11.451s.482-27.613,0-36.76c-.382-7.3-2.327-30.585-4.307-42.181a28.854,28.854,0,0,0-1.478-6.1c-2.376-4.936-31.453,5.671-31.453,5.671s-.2,1.126-.545,3.08c-1.112,6.292-3.747,21.15-6.163,34.409C387.7,505.414,384.589,529.922,384.589,529.922Z" transform="translate(-373.981 -336.043)" fill="#5f6386"/>
          <path id="Path_3184" data-name="Path 3184" d="M425.854,478.286l4.359-15.422s4.48,8.534,3.2,15.422,3.92,9.42.231,16.763,1.62,12.949-1.957,17.539Z" transform="translate(-386.232 -341.769)" fill="#4a4e73"/>
          <path id="Path_3185" data-name="Path 3185" d="M402.278,453.634a26.558,26.558,0,0,0,12.778-.682c11.615-3.22,17.756-2.746,20.7-1.972a28.854,28.854,0,0,0-1.478-6.1c-2.376-4.936-31.453,5.671-31.453,5.671S402.623,451.681,402.278,453.634Z" transform="translate(-379.233 -336.043)" fill="#4a4e73"/>
          <path id="Path_3186" data-name="Path 3186" d="M462.971,353.786s.731-3.792-.914-5.747-5.564,1.088-5.564,1.088-2.538,2.73-1.23,5.3S462.971,353.786,462.971,353.786Z" transform="translate(-394.852 -307.485)" fill="#e9928b"/>
          <path id="Path_3187" data-name="Path 3187" d="M394.7,389.037c1.594,9.231,4.2,19.5,3.876,24.074-.608,8.534-.975,11.7-1.463,13.29s7.193,2.924,15.483,0a67.753,67.753,0,0,1,13.252-2.81c4.5-.56,7.96-.722,7.96-.722s-2.316-12.319-3.046-18.778a75.128,75.128,0,0,1,.044-13.9l.011.011c.356.274,9.424,7.208,14.094,2.717a6.62,6.62,0,0,0,1.564-2.647c3.061-8.879-2.791-30.319-2.791-30.319l-6.949.975s.975,16.7.364,16.825-7.194-5.852-10.362-8.168c-1.775-1.3-4.766-2.064-7.916-2.4a36.323,36.323,0,0,0-7.2-.037,42.169,42.169,0,0,0-7.06.9,23.91,23.91,0,0,0-9.154,3.731C392.689,373.82,393.309,381.036,394.7,389.037Z" transform="translate(-376.63 -311.218)" fill="#7dc4be"/>
          <g id="Group_704" data-name="Group 704" transform="translate(18.068 73.672)" opacity="0.65">
            <path id="Path_3188" data-name="Path 3188" d="M397.612,436.929c-.486,1.586,7.193,2.924,15.483,0a67.753,67.753,0,0,1,13.252-2.81c-1.534-1.908-4.155-3.847-9.595-5.455-13.349-3.954-.608-10.747-8.268-15.194s-8.309-18.052-8.309-18.052l-4.977,4.147c1.594,9.231,4.2,19.5,3.876,24.074C398.468,432.174,398.1,435.343,397.612,436.929Z" transform="translate(-395.199 -395.418)" fill="#379690"/>
          </g>
          <path id="Path_3189" data-name="Path 3189" d="M409.225,371.02c3.38,6.322,12.952,11.852,12.952,11.852,1.653-4.777,1.467-10.459,1.309-12.715a36.323,36.323,0,0,0-7.2-.037A42.169,42.169,0,0,0,409.225,371.02Z" transform="translate(-381.295 -314.187)" fill="#fff"/>
          <path id="Path_3190" data-name="Path 3190" d="M395.08,375.777c-1.669-1.854-5.12-.244-9.387,5.974s-7.924,19.994-8.655,24.748.366,21.091,2.682,28.162l6.228-.487s1.575-23.408,1.819-24.992,5.242-14.143,7.315-20.97S397.274,378.215,395.08,375.777Z" transform="translate(-371.672 -315.7)" fill="#7dc4be"/>
          <path id="Path_3191" data-name="Path 3191" d="M412.071,366.5c0,.915,1.342,2.5,4.632,3.109s7.316-1.768,6.1-3.354a7.109,7.109,0,0,1-.9-3.024,35.021,35.021,0,0,1-.259-4.351s-7.13-6.645-7.071-3.232-2.5,4.025-2.5,4.025A16.623,16.623,0,0,1,412.071,366.5Z" transform="translate(-382.14 -309.649)" fill="#e9928b"/>
          <path id="Path_3192" data-name="Path 3192" d="M415.623,355.644c1.9,4.8,4.892,6.782,7.331,7.582a35.021,35.021,0,0,1-.259-4.351S415.564,352.231,415.623,355.644Z" transform="translate(-383.194 -309.649)" fill="#de6667"/>
          <g id="Group_705" data-name="Group 705" transform="translate(50.737)">
            <path id="Path_3193" data-name="Path 3193" d="M453.193,349.564l12.7,16.345a1.043,1.043,0,0,0,1.462.184,4.307,4.307,0,0,0,.759-6.043l-10.7-13.767Z" transform="translate(-445.085 -307.159)" fill="#8fb9cf"/>
            <path id="Path_3194" data-name="Path 3194" d="M453.193,350.167l12.7,16.345a1.042,1.042,0,0,0,.693.394,4.3,4.3,0,0,0-.311-4.825l-10.7-13.766Z" transform="translate(-445.085 -307.762)" fill="#7a9db0"/>
            <path id="Path_3195" data-name="Path 3195" d="M444.087,347.054c1.867,2.4,3.894,3.954,4.527,3.463s-.369-2.839-2.237-5.242-3.894-3.954-4.526-3.463S442.22,344.65,444.087,347.054Z" transform="translate(-441.662 -305.805)" fill="#8fb9cf"/>
            <rect id="Rectangle_337" data-name="Rectangle 337" width="9.969" height="11.044" transform="translate(0.176 35.991) rotate(-37.842)" fill="#8fb9cf"/>
            <path id="Path_3196" data-name="Path 3196" d="M447.505,346.221l4.6-3.574a.59.59,0,0,0,.1-.828h0a.59.59,0,0,0-.828-.1l-4.6,3.575a.59.59,0,0,0-.1.828h0A.59.59,0,0,0,447.505,346.221Z" transform="translate(-443.114 -305.766)" fill="#7a9db0"/>
            <path id="Path_3197" data-name="Path 3197" d="M445.077,342.562l4.6-3.574a.59.59,0,0,0,.1-.828h0a.59.59,0,0,0-.828-.1l-4.6,3.574a.59.59,0,0,0-.1.828h0A.589.589,0,0,0,445.077,342.562Z" transform="translate(-442.393 -304.68)" fill="#7a9db0"/>
            <path id="Path_3198" data-name="Path 3198" d="M450.41,349.427l4.6-3.575a.59.59,0,0,0,.1-.828h0a.589.589,0,0,0-.827-.1l-4.6,3.574a.59.59,0,0,0-.1.828h0A.59.59,0,0,0,450.41,349.427Z" transform="translate(-443.976 -306.718)" fill="#7a9db0"/>
            <path id="Path_3199" data-name="Path 3199" d="M455.284,325.888l.008.011c.269.347.541.674.811.981.312.352.62.676.92.967,1.252,1.209,2.351,1.839,2.785,1.5l.013.017,33.742-12.492-20.083-25.851-20.448,29.6.014.018c-.38.3-.172,1.256.458,2.5.13.258.282.531.449.813s.366.595.577.9C454.763,325.2,455.014,325.541,455.284,325.888Z" transform="translate(-444.985 -290.753)" fill="#b2d3e4"/>
            <path id="Path_3200" data-name="Path 3200" d="M455.991,330.033l.008.011,27.526-20.67-3.409-4.388L455.239,329C455.47,329.341,455.721,329.687,455.991,330.033Z" transform="translate(-445.692 -294.899)" fill="#fff" opacity="0.15"/>
            <path id="Path_3201" data-name="Path 3201" d="M457.474,334.01c.312.352.62.676.92.967l32.327-16.319-5.038-3.618Z" transform="translate(-446.356 -297.883)" fill="#fff" opacity="0.15"/>
            <path id="Path_3202" data-name="Path 3202" d="M454.229,326.221l24.2-26.093-1.612-1.472L453.78,325.408C453.91,325.666,454.062,325.939,454.229,326.221Z" transform="translate(-445.259 -293.019)" fill="#fff" opacity="0.15"/>
            <path id="Path_3203" data-name="Path 3203" d="M488.594,306.477a56.978,56.978,0,0,0,4.7,5.351h0c3.911,3.9,7.394,5.981,8.743,4.933,1.878-1.459-1.093-8.428-6.64-15.566s-11.565-11.744-13.443-10.285c-1.349,1.048-.2,4.937,2.618,9.691A56.671,56.671,0,0,0,488.594,306.477Z" transform="translate(-453.456 -290.639)" fill="#8fb9cf"/>
            <path id="Path_3204" data-name="Path 3204" d="M484.976,327.589a.555.555,0,1,0-.681-.878c-.476.369-2.493-.305-5.884-3.688l-.271-.271a43.015,43.015,0,0,1-3.237-3.725,42.223,42.223,0,0,1-3.005-4.389c-2.44-4.122-2.595-6.244-2.119-6.614a.555.555,0,1,0-.681-.878c-1.808,1.4.687,6.1,1.844,8.056a45.549,45.549,0,0,0,6.685,8.607l.351.342C479.747,325.867,483.289,328.9,484.976,327.589Z" transform="translate(-449.617 -295.506)" fill="#8fb9cf"/>
            <path id="Path_3205" data-name="Path 3205" d="M489.937,310.43a56.978,56.978,0,0,0,4.7,5.351h0a7.342,7.342,0,0,0-8.721-11.227A56.671,56.671,0,0,0,489.937,310.43Z" transform="translate(-454.799 -294.592)" fill="#7a9db0"/>
            <path id="Path_3206" data-name="Path 3206" d="M492.28,309.687c.557.716,1.4.993,1.886.616s.426-1.263-.131-1.979-1.4-.993-1.886-.617S491.723,308.97,492.28,309.687Z" transform="translate(-456.553 -295.656)" fill="#fff" opacity="0.15"/>
          </g>
          <path id="Path_3207" data-name="Path 3207" d="M454.984,357.935s.24-5.136,1.751-6.881,2.778-1.426,2.516,0-1.413,3.931-.295,6.3Z" transform="translate(-394.88 -308.222)" fill="#e9928b"/>
          <path id="Path_3208" data-name="Path 3208" d="M451.625,559.886v5.049H438.84l-1.158-5.049Z" transform="translate(-389.743 -370.573)" fill="#4a4e73"/>
          <path id="Path_3209" data-name="Path 3209" d="M397.78,564.936H383.327l.417-5.049h15.565Z" transform="translate(-373.606 -370.573)" fill="#4a4e73"/>
          <path id="Path_3210" data-name="Path 3210" d="M389.352,577.583l.35-.12c-.016-.049-.43-1.205-2.891-2.111l-.128.347C388.954,576.535,389.349,577.573,389.352,577.583Z" transform="translate(-374.603 -375.165)" fill="#fff"/>
          <path id="Path_3211" data-name="Path 3211" d="M385.551,579.443l.359-.095a3.662,3.662,0,0,0-2.554-2.431l-.1.358A3.286,3.286,0,0,1,385.551,579.443Z" transform="translate(-373.586 -375.629)" fill="#fff"/>
          <path id="Path_3212" data-name="Path 3212" d="M381.408,579.7l.369-.033a3.307,3.307,0,0,0-.775-1.789l-.269.255A2.976,2.976,0,0,1,381.408,579.7Z" transform="translate(-372.837 -375.914)" fill="#fff"/>
          <path id="Path_3213" data-name="Path 3213" d="M450.9,576.3a10.912,10.912,0,0,1,3.765-.67l.012-.371a11.079,11.079,0,0,0-3.911.7Z" transform="translate(-393.627 -375.135)" fill="#fff"/>
          <path id="Path_3214" data-name="Path 3214" d="M453.933,578.1a11.574,11.574,0,0,1,3.537-.992l-.022-.371a11.734,11.734,0,0,0-3.665,1.024Z" transform="translate(-394.523 -375.577)" fill="#fff"/>
          <path id="Path_3215" data-name="Path 3215" d="M458.484,579.155a5.493,5.493,0,0,1,2.126-.753l-.056-.366a5.7,5.7,0,0,0-2.318.844Z" transform="translate(-395.846 -375.961)" fill="#fff"/>
          <g id="Group_706" data-name="Group 706" transform="translate(52.471 69.425)" opacity="0.65">
            <path id="Path_3216" data-name="Path 3216" d="M444.128,389.378c1.286,3.335,1.7,9.55,1.7,9.55l.011.011c.356.274,9.424,7.208,14.094,2.717a6.62,6.62,0,0,0,1.564-2.647c-2.583.356-4.788,3.076-7.845-.082C448.909,394.025,444.128,389.378,444.128,389.378Z" transform="translate(-444.128 -389.378)" fill="#379690"/>
          </g>
          <path id="Path_3217" data-name="Path 3217" d="M422.524,337.417s5.06,13.9,1.219,16.7-10-3.6-10-3.6a4.862,4.862,0,0,1-4.023-2.012c-1.4-2.133,1.036-3.068,2.134-2.388s2.377-.355,1.524-2.976-.366-2.743,1.28-2.377S422.341,338.148,422.524,337.417Z" transform="translate(-381.317 -304.527)" fill="#e9928b"/>
        </g>
        <path id="Path_3218" data-name="Path 3218" d="M387.764,529.811a535,535,0,0,1,14.394-71.164l-1.067-.314a536.354,536.354,0,0,0-14.428,71.33Z" transform="translate(-374.597 -340.424)" fill="#4a4e73"/>
      </g>
      <g id="Group_713" data-name="Group 713" transform="translate(403.596 91.983)">
        <path id="Path_3219" data-name="Path 3219" d="M907.234,335.629s1.73-5.766,1.73-7.611-1.692-7.035-2.634-7.151-2.786,10.034-3.594,11.417.693,3.345.693,3.345Z" transform="translate(-847.136 -293.224)" fill="#91415c"/>
        <g id="Group_710" data-name="Group 710" transform="translate(139.359 156.166)">
          <g id="Group_709" data-name="Group 709">
            <path id="Path_3220" data-name="Path 3220" d="M1028.811,517.7l6.132-6.754-2.352-2.411-4.76-4.878-5.87,6.466,4.585,5.071Z" transform="translate(-1021.961 -503.656)" fill="#91415c"/>
            <path id="Path_3221" data-name="Path 3221" d="M1026.546,515.192l6.044-6.658-4.76-4.878-5.87,6.466Z" transform="translate(-1021.961 -503.656)" fill="#75354a"/>
            <path id="Path_3222" data-name="Path 3222" d="M1035.737,514.024l-6.13,6.753s.337,5.838-2.282,9.412-3.318,6.07-2.123,8.721l18.235-20.087Z" transform="translate(-1022.756 -506.734)" fill="#fdab3f"/>
            <path id="Path_3223" data-name="Path 3223" d="M1052.231,521.624" transform="translate(-1030.947 -508.99)" fill="#fff"/>
            <path id="Path_3224" data-name="Path 3224" d="M1026.3,550.193" transform="translate(-1023.248 -517.472)" fill="#fff"/>
            <path id="Path_3225" data-name="Path 3225" d="M1031.7,526.092a20.207,20.207,0,0,1,4.783-1.961l-.1-.357a20.085,20.085,0,0,0-4.9,2.018Z" transform="translate(-1024.787 -509.629)" fill="#fff"/>
            <path id="Path_3226" data-name="Path 3226" d="M1031.341,529.488a10.646,10.646,0,0,1,4.34-.423l.042-.368a10.834,10.834,0,0,0-4.525.449Z" transform="translate(-1024.703 -511.071)" fill="#fff"/>
            <path id="Path_3227" data-name="Path 3227" d="M1034,533.186l.136-.345a13.153,13.153,0,0,0-3.45-.8l-.023.37A13,13,0,0,1,1034,533.186Z" transform="translate(-1024.544 -512.082)" fill="#fff"/>
          </g>
          <rect id="Rectangle_338" data-name="Rectangle 338" width="27.13" height="1.971" transform="matrix(0.672, -0.74, 0.74, 0.672, 2.447, 32.175)" fill="#dceceb"/>
        </g>
        <path id="Path_3228" data-name="Path 3228" d="M965.493,426.847s.114.634.325,1.716c.446,2.3,1.329,6.643,2.464,11.3,1.463,5.982,3.349,12.48,5.286,15.818,2.242,3.865,11.469,12.016,19.476,18.694,6.809,5.677,12.739,10.289,12.739,10.289l12.4-12.722s-25.651-23.122-26.343-24.045-3.737-14.358-4.892-24.97a63.309,63.309,0,0,0-3.343-13.566,95.079,95.079,0,0,0-3.805-9.269l-12,4.384-.118,1.124-1.162,11.276Z" transform="translate(-865.838 -316.743)" fill="#489da2"/>
        <path id="Path_3229" data-name="Path 3229" d="M965.955,436.331c.446,2.3,1.329,6.643,2.464,11.3,1.463,5.982,3.349,12.48,5.286,15.818,2.242,3.865,11.469,12.016,19.476,18.694-1.92-10.442-14.268-9.5-12.442-17.136,1.9-7.958-6.055-11.072-2.882-21.452s-1.962-17.3-1.962-17.3S971.242,430.905,965.955,436.331Z" transform="translate(-865.975 -324.511)" fill="#408c91"/>
        <path id="Path_3230" data-name="Path 3230" d="M930.044,320.626a13.638,13.638,0,0,1,3.6,4.965,16.921,16.921,0,0,1,1.321,4.722c.865,6.574,12.283-.519,12.283-.519l-5.536-11.59-4.536-2.422-3.533,2.4Z" transform="translate(-855.314 -291.715)" fill="#91415c"/>
        <path id="Path_3231" data-name="Path 3231" d="M948.836,332.137s-.9-2.821-2.182-2.924-10.62,1.26-11.052,3.433a7.829,7.829,0,0,0,0,3.557Z" transform="translate(-856.907 -295.7)" fill="#f5911f"/>
        <path id="Path_3232" data-name="Path 3232" d="M903.76,345.41l-.923-4.267s4.267-1.109,5.882-.9,3.113,5.167,3.113,5.167Z" transform="translate(-847.237 -298.968)" fill="#f5911f"/>
        <path id="Path_3233" data-name="Path 3233" d="M928.813,371.878s-5.978,1.607-18.612-9.743,10.482-6.864,10.482-6.864Z" transform="translate(-848.302 -303.178)" fill="#f5911f"/>
        <rect id="Rectangle_339" data-name="Rectangle 339" width="38.508" height="1.112" transform="translate(58.711 173.359)" fill="#040707"/>
        <path id="Path_3234" data-name="Path 3234" d="M940.285,563.988l11.725-53.9,11.724,53.9,1.086-.236-12.267-56.4a.556.556,0,0,0-1.087,0l-12.267,56.4Z" transform="translate(-858.032 -348.459)" fill="#040707"/>
        <g id="Group_712" data-name="Group 712" transform="translate(65.576 173.471)">
          <g id="Group_711" data-name="Group 711">
            <path id="Path_3235" data-name="Path 3235" d="M940.328,538.433h9.122l.2-3.362.413-6.8h-8.733l-.672,6.8Z" transform="translate(-923.943 -528.267)" fill="#91415c"/>
            <path id="Path_3236" data-name="Path 3236" d="M940.8,535.071H949.8l.413-6.8h-8.733Z" transform="translate(-924.084 -528.267)" fill="#75354a"/>
            <path id="Path_3237" data-name="Path 3237" d="M942.532,542.725h-9.121s-4.1,4.174-8.5,4.638-6.725,1.623-7.884,4.29h27.13Z" transform="translate(-917.025 -532.56)" fill="#fdab3f"/>
            <path id="Path_3238" data-name="Path 3238" d="M955.61,556.576" transform="translate(-928.48 -536.672)" fill="#fff"/>
            <path id="Path_3239" data-name="Path 3239" d="M917.025,556.576" transform="translate(-917.025 -536.672)" fill="#fff"/>
            <path id="Path_3240" data-name="Path 3240" d="M942.506,547.173l.2-.313a20.121,20.121,0,0,0-4.79-2.273l-.076.363A20.224,20.224,0,0,1,942.506,547.173Z" transform="translate(-923.204 -533.112)" fill="#fff"/>
            <path id="Path_3241" data-name="Path 3241" d="M938.75,549.47l.3-.217a10.814,10.814,0,0,0-3.374-3.049l-.156.336A10.659,10.659,0,0,1,938.75,549.47Z" transform="translate(-922.516 -533.593)" fill="#fff"/>
            <path id="Path_3242" data-name="Path 3242" d="M934.681,550.856l.346-.132a13.171,13.171,0,0,0-1.725-3.093l-.29.232A13.038,13.038,0,0,1,934.681,550.856Z" transform="translate(-921.771 -534.016)" fill="#fff"/>
          </g>
          <rect id="Rectangle_340" data-name="Rectangle 340" width="27.13" height="1.971" transform="translate(0 19.093)" fill="#dceceb"/>
        </g>
        <path id="Path_3243" data-name="Path 3243" d="M885.364,563.988l11.725-53.9,11.724,53.9,1.087-.236-12.269-56.4a.556.556,0,0,0-1.086,0l-12.267,56.4Z" transform="translate(-841.727 -348.459)" fill="#040707"/>
        <rect id="Rectangle_341" data-name="Rectangle 341" width="38.616" height="1.112" transform="translate(63.088 193.979)" fill="#040707"/>
        <path id="Path_3244" data-name="Path 3244" d="M932.373,497.417h18.683s-.364-31.125-.364-36.661c0-3.937,3.734-10.435,7.633-19.046A122.39,122.39,0,0,0,962.92,430.2a103.483,103.483,0,0,0,3.817-14.742,57.954,57.954,0,0,0,1.027-9.131l-10.037,1.124-14.645,1.644s-1.605,5.673-3.6,13c-3.177,11.7-7.331,27.6-7.474,31.29C931.781,459.373,932.373,497.417,932.373,497.417Z" transform="translate(-855.882 -318.594)" fill="#489da2"/>
        <path id="Path_3245" data-name="Path 3245" d="M942.661,420.235c4.051-1.706,8.22-3.343,12.362-3.135a24.814,24.814,0,0,0,4.719-.229,33.872,33.872,0,0,0,10.172-3.27,44.881,44.881,0,0,0,6.909-4.245,95.079,95.079,0,0,0-3.805-9.269l-12,4.384L960.9,405.6l-14.645,1.644S944.654,412.914,942.661,420.235Z" transform="translate(-859.06 -316.743)" fill="#408c91"/>
        <path id="Path_3246" data-name="Path 3246" d="M860.028,341.895S875.6,357.118,880.1,358.156s21.1-4.325,23.872-4.152c1.252.079,3.893,8.878,6.4,18.489,3.034,11.615,5.885,24.413,5.885,24.413s7.784-3.114,20.413-3.979a28.936,28.936,0,0,0,5.058-.785c8.8-2.2,12.068-7.864,12.068-7.864-12.455-17.818-12.628-33.388-15.223-43.075s-12.975-10.379-20.759-7.957c-3.45,1.072-10.9,2.422-14.359,3.633s-21.278,8.13-22.489,8.13-15.916-8.3-15.916-8.3C860.374,336.7,860.028,341.895,860.028,341.895Z" transform="translate(-834.528 -296.548)" fill="#ffab40"/>
        <path id="Path_3247" data-name="Path 3247" d="M859.192,337.662a24.788,24.788,0,0,0-5.536-3.687c-2.537-1.038-6-3.168-6-2.045s3.114,2.707,3.114,2.707l-9.486-.862s4.181,4.237,7.525,5.044,7.612,2.306,7.612,2.306Z" transform="translate(-828.964 -296.414)" fill="#91415c"/>
        <rect id="Rectangle_342" data-name="Rectangle 342" width="33.214" height="57.314" transform="translate(0 36.333) rotate(-85.233)" fill="#3fb8a9"/>
        <rect id="Rectangle_343" data-name="Rectangle 343" width="26.295" height="50.394" transform="translate(3.735 33.173) rotate(-85.233)" fill="#fff"/>
        <path id="Path_3248" data-name="Path 3248" d="M883.279,325.838l-9.768-20.727-13.066,18.822Z" transform="translate(-834.652 -288.546)" fill="#3fb8a9"/>
        <path id="Path_3249" data-name="Path 3249" d="M854.465,325.291l-7.555-16.031L836.8,323.819Z" transform="translate(-827.633 -289.778)" fill="#3fb8a9"/>
        <path id="Path_3250" data-name="Path 3250" d="M859.927,301.666a3.409,3.409,0,1,0,3.681-3.114A3.409,3.409,0,0,0,859.927,301.666Z" transform="translate(-834.494 -286.596)" fill="#3fb8a9"/>
        <path id="Path_3251" data-name="Path 3251" d="M939.179,501.467h1.112c0-.333-.044-33.422.148-41.4.189-7.874,13.92-39.808,14.058-40.13l-1.021-.44c-.57,1.322-13.955,32.455-14.149,40.543C939.135,468.031,939.178,501.134,939.179,501.467Z" transform="translate(-858.025 -322.506)" fill="#408c91"/>
        <path id="Path_3252" data-name="Path 3252" d="M931.619,389.563c3.034,11.615,5.885,24.413,5.885,24.413s7.784-3.114,20.413-3.979a28.934,28.934,0,0,0,5.058-.785,11.571,11.571,0,0,0-.948-.945c-10.421-9.341-14.316-3.113-19.416-9.86C938.8,393.365,935.1,393.086,931.619,389.563Z" transform="translate(-855.782 -313.618)" fill="#f5911f"/>
        <path id="Path_3253" data-name="Path 3253" d="M922.7,294.549l-1.9-1.989s-.173-3.547,3.4-8.16,5.651-2.883,4.036,0,3.231,1.384,7.555.808,7.9.035,5.766,2.843-.288,2.924,5.017,5.114,4.5,5.42,0,5.766-1.5,3,1.958,6.689.811,5.766-3,3.69-4.613.231-3.345,3.46-3.229.461-5.305-1.845-1.5,1.73-4.671-3.345S922.7,294.549,922.7,294.549Z" transform="translate(-852.568 -281.552)" fill="#0c1b3c"/>
        <path id="Path_3254" data-name="Path 3254" d="M930.044,321.64a13.638,13.638,0,0,1,3.6,4.965c2.526-2.685,1.076-7.293,1.076-7.293l-1.076-.114Z" transform="translate(-855.314 -292.728)" fill="#75354a"/>
        <path id="Path_3255" data-name="Path 3255" d="M919.957,296.989s.577,5.853-.519,8.852-2.192,3.113-.865,4.267,2.191.923,2.479,2.249-.288,5.882,3.057,5.766,6.919-4.9,7.265-6.112c0,0,3.518-1.153,3.575-4.094s-2.826-3.921-3.979-2.537-2.422-.4-2.479-2.6-1.442-5.305-3.806-5.132S921.225,295.461,919.957,296.989Z" transform="translate(-851.728 -285.982)" fill="#91415c"/>
      </g>
      <g id="Group_714" data-name="Group 714" transform="translate(404.069 275.651)">
        <path id="Path_3256" data-name="Path 3256" d="M848.755,574.631l.628-.394a30.331,30.331,0,0,1-2.02-4.172c-1.959-4.783-4.522-12.816-4.167-27.276l-.741-.018c-.359,14.6,2.238,22.73,4.222,27.576A30.472,30.472,0,0,0,848.755,574.631Z" transform="translate(-829.773 -542.77)" fill="#6eab9c"/>
        <path id="Path_3257" data-name="Path 3257" d="M842.27,581.925l.449-.589c-7.594-5.788-18.145-6.363-18.251-6.367l-.036.74C824.536,575.713,834.864,576.279,842.27,581.925Z" transform="translate(-824.433 -552.329)" fill="#6eab9c"/>
        <path id="Path_3258" data-name="Path 3258" d="M840.8,563.873l.713-.2c-.712-2.523-8.306-11.973-8.629-12.375l-.577.465C832.386,551.859,840.13,561.5,840.8,563.873Z" transform="translate(-826.771 -545.302)" fill="#6eab9c"/>
        <path id="Path_3259" data-name="Path 3259" d="M847.615,570c2.37-3.662,6.023-13.034,6.178-13.431l-.691-.269c-.037.1-3.78,9.7-6.109,13.3Z" transform="translate(-831.131 -546.786)" fill="#6eab9c"/>
      </g>
      <g id="Group_715" data-name="Group 715" transform="translate(373.608 293.895)">
        <path id="Path_3260" data-name="Path 3260" d="M801.85,583.98l-1-.714c-.095-.068-9.567-6.781-19.709-7.253l-.034.74c7.942.37,15.486,4.665,18.226,6.4l-9.842-.342-.026.741Z" transform="translate(-781.111 -570.883)" fill="#6eab9c"/>
        <path id="Path_3261" data-name="Path 3261" d="M797.469,577.974l.7-.24a36.568,36.568,0,0,0-4.984-9.016l-.587.452A36.559,36.559,0,0,1,797.469,577.974Z" transform="translate(-784.522 -568.718)" fill="#6eab9c"/>
      </g>
      <path id="Path_3262" data-name="Path 3262" d="M541.4,386.636c3.821,7.66,19.19,10.424,23.329,1.345,4.818-10.562,7.876-7.968,15.843-7.412s13.619-3.705,12.971-12.786c-.645-9,5.552-9.965,7.29-18.111-.256,1.079-1.686,6.082-6.411,7.631-5.311,1.738-10.129,6.715-7.535,12.381s-7.234,4.8-14.3-1.438-12.381,3.891-11.27,12.786C562.353,389.3,549.3,394.192,541.4,386.636Z" transform="translate(-336.338 -209.793)" fill="#ffab40"/>
      <g id="Group_717" data-name="Group 717" transform="translate(418.508 36.645)">
        <g id="Group_716" data-name="Group 716">
          <circle id="Ellipse_64" data-name="Ellipse 64" cx="11.846" cy="11.846" r="11.846" transform="translate(0 16.752) rotate(-45)" fill="#b2e5e0"/>
        </g>
        <path id="Path_3263" data-name="Path 3263" d="M861.411,220.687c3.071-1.664,4.757,2.583,4.757,2.583s1.713-4.236,4.774-2.552c3.454,1.9.361,8.037-4.8,10.7C861,228.721,857.945,222.565,861.411,220.687Z" transform="translate(-849.411 -208.03)" fill="#b2e5e0"/>
      </g>
      <g id="Group_718" data-name="Group 718" transform="translate(420.543 43.404)">
        <path id="Path_3264" data-name="Path 3264" d="M847.863,224.27a11.846,11.846,0,1,0,11.883-11.808A11.846,11.846,0,0,0,847.863,224.27Z" transform="translate(-847.863 -212.462)" fill="#fff"/>
        <path id="Path_3265" data-name="Path 3265" d="M857.326,223.322c3.071-1.664,4.757,2.583,4.757,2.583s1.714-4.236,4.774-2.552c3.454,1.9.361,8.037-4.8,10.7C856.914,231.357,853.86,225.2,857.326,223.322Z" transform="translate(-850.233 -215.571)" fill="#eb908b"/>
      </g>
      <g id="Group_721" data-name="Group 721" transform="translate(124.243 82.687)">
        <g id="Group_719" data-name="Group 719">
          <circle id="Ellipse_65" data-name="Ellipse 65" cx="9.28" cy="9.28" r="9.28" transform="translate(0 13.123) rotate(-45)" fill="#b2e5e0"/>
        </g>
        <g id="Group_720" data-name="Group 720" transform="translate(7.981 8.232)">
          <path id="Path_3266" data-name="Path 3266" d="M442.949,281.711l-3.179-1.671.607,3.539-2.571,2.507,3.554.516,1.589,3.22,1.589-3.22,3.554-.516-2.571-2.507.607-3.539Z" transform="translate(-437.806 -280.04)" fill="#b2e5e0"/>
        </g>
      </g>
      <g id="Group_722" data-name="Group 722" transform="translate(122.975 85.794)">
        <circle id="Ellipse_66" data-name="Ellipse 66" cx="9.28" cy="9.28" r="9.28" transform="matrix(0.342, -0.94, 0.94, 0.342, 0, 17.442)" fill="#edf6f5"/>
        <path id="Path_3267" data-name="Path 3267" d="M439.394,284.377l-3.179-1.671.607,3.539-2.572,2.507,3.554.516,1.589,3.22,1.589-3.22,3.554-.516-2.571-2.507.607-3.539Z" transform="translate(-427.503 -275.705)" fill="#ffab40"/>
      </g>
      <path id="Path_3268" data-name="Path 3268" d="M815.646,433.973V404.51s-10.259,2.595-13.007,11.86-12.274,13.156-17.22,10.191-4.664-10.932-11.217-13.712-10.584,4.077-18.278,11.674-17.953,9.08-26.013,2.224-15.847-8.71-21.938-2.409-8.84,6.856-15.8,5.559-11.466,4.077-11.466,4.077Z" transform="translate(-377.695 -226.073)" fill="#b2e5e0"/>
      <rect id="Rectangle_344" data-name="Rectangle 344" width="124.602" height="2.718" transform="translate(303.012 217.01)" fill="#fff"/>
      <path id="Path_3269" data-name="Path 3269" d="M866.364,457.218h0a2.872,2.872,0,0,1,2.872,2.872h0a2.871,2.871,0,0,1-2.872,2.872h0a2.872,2.872,0,0,1-2.872-2.872h0A2.872,2.872,0,0,1,866.364,457.218Z" transform="translate(-431.96 -241.721)" fill="#fff"/>
      <g id="Group_723" data-name="Group 723" transform="translate(303.011 175.429)" opacity="0.38">
        <path id="Path_3270" data-name="Path 3270" d="M815.646,432.7H680.706S683.561,416.4,694,416.4s7.871,14.375,21.34,10.709,14.934-25.717,29.406-26.829,17.953,19.456,25.464,19.456,8.977-8.555,18.5-9.095,8.976,13.542,15.938,14.283S815.83,430.108,815.646,432.7Z" transform="translate(-680.706 -400.232)" fill="#3fb8a9"/>
      </g>
      <rect id="Rectangle_345" data-name="Rectangle 345" width="35.948" height="35.948" rx="4.578" transform="translate(317.555 104.009)" fill="#b2e5e0"/>
      <rect id="Rectangle_346" data-name="Rectangle 346" width="35.948" height="35.948" rx="4.578" transform="translate(313.849 107.656)" fill="#fff"/>
      <path id="Path_3271" data-name="Path 3271" d="M711.786,335.254l14.456-10.123-14.456-10.123Z" transform="translate(-386.922 -199.502)" fill="#67b4d2"/>
    </g>
  </g>
</svg>
