<svg xmlns="http://www.w3.org/2000/svg" width="379.194" height="269.745" viewBox="0 0 379.194 269.745">
  <g id="Group_935" data-name="Group 935" transform="translate(-338.805 -793.009)">
    <g id="Group_60" data-name="Group 60" transform="translate(338.805 793.009)">
      <g id="Group_11" data-name="Group 11" transform="translate(261.402 223.475)">
        <path id="Path_146" data-name="Path 146" d="M822.279,1196.9c0,.011.007.024.011.036a2.355,2.355,0,0,0,2.312,1.743l1.369-.022a2.369,2.369,0,0,1,2.1,1.227c.086.151.172.3.259.449a2.371,2.371,0,0,1,.015,2.442l-.7,1.166a2.354,2.354,0,0,0,.354,2.875l.028.028a2.355,2.355,0,0,0,2.875.354l1.166-.7a2.373,2.373,0,0,1,2.442.015q.223.13.449.259a2.369,2.369,0,0,1,1.227,2.1l-.022,1.369a2.355,2.355,0,0,0,1.743,2.312l.036.011a2.357,2.357,0,0,0,2.667-1.132l.664-1.194a2.347,2.347,0,0,1,2.086-1.21c.1,0,.195,0,.292,0s.195,0,.292,0a2.349,2.349,0,0,1,2.086,1.21l.663,1.194a2.357,2.357,0,0,0,2.668,1.132l.036-.011a2.354,2.354,0,0,0,1.743-2.312l-.022-1.369a2.37,2.37,0,0,1,1.228-2.1c.15-.086.3-.172.449-.259a2.372,2.372,0,0,1,2.442-.015l1.166.7a2.355,2.355,0,0,0,2.876-.354l.029-.028a2.355,2.355,0,0,0,.354-2.875l-.7-1.166a2.373,2.373,0,0,1,.016-2.442c.086-.148.172-.3.259-.449a2.368,2.368,0,0,1,2.1-1.227l1.369.022a2.354,2.354,0,0,0,2.311-1.743c0-.011.007-.024.011-.036a2.358,2.358,0,0,0-1.132-2.667l-1.195-.664a2.346,2.346,0,0,1-1.209-2.086c0-.1,0-.195,0-.292s0-.195,0-.292a2.347,2.347,0,0,1,1.209-2.086l1.195-.663a2.359,2.359,0,0,0,1.132-2.668c0-.01-.007-.024-.011-.035a2.354,2.354,0,0,0-2.311-1.743l-1.369.023a2.368,2.368,0,0,1-2.1-1.228c-.087-.15-.173-.3-.259-.449a2.371,2.371,0,0,1-.016-2.442l.7-1.166a2.355,2.355,0,0,0-.354-2.875l-.029-.029a2.356,2.356,0,0,0-2.876-.354l-1.166.7a2.372,2.372,0,0,1-2.442-.016l-.449-.259a2.369,2.369,0,0,1-1.228-2.1l.022-1.369a2.354,2.354,0,0,0-1.743-2.311c-.011,0-.024-.007-.036-.011a2.359,2.359,0,0,0-2.668,1.132l-.663,1.195a2.347,2.347,0,0,1-2.086,1.209c-.1,0-.195,0-.292,0s-.195,0-.292,0a2.345,2.345,0,0,1-2.086-1.209l-.664-1.195a2.358,2.358,0,0,0-2.667-1.132c-.011,0-.024.007-.036.011a2.354,2.354,0,0,0-1.743,2.311l.022,1.369a2.368,2.368,0,0,1-1.227,2.1l-.449.259a2.372,2.372,0,0,1-2.442.016l-1.166-.7a2.355,2.355,0,0,0-2.875.354l-.028.029a2.354,2.354,0,0,0-.354,2.875l.7,1.166a2.37,2.37,0,0,1-.015,2.442c-.087.148-.173.3-.259.449a2.369,2.369,0,0,1-2.1,1.228l-1.369-.023a2.355,2.355,0,0,0-2.312,1.743c0,.011-.007.025-.011.035a2.359,2.359,0,0,0,1.132,2.668l1.194.663a2.349,2.349,0,0,1,1.21,2.086c0,.1,0,.195,0,.292s0,.194,0,.292a2.347,2.347,0,0,1-1.21,2.086l-1.194.664A2.358,2.358,0,0,0,822.279,1196.9Zm8.1-5.708a13.271,13.271,0,1,1,13.271,13.271A13.27,13.27,0,0,1,830.382,1191.193Z" transform="translate(-822.2 -1169.739)" fill="#f0ebf7"/>
        <circle id="Ellipse_1" data-name="Ellipse 1" cx="5.99" cy="5.99" r="5.99" transform="translate(15.464 15.575)" fill="#f0ebf7"/>
      </g>
      <g id="Group_12" data-name="Group 12" transform="translate(76.158 218.434)">
        <path id="Path_147" data-name="Path 147" d="M552.554,1202.021s-.188-17.43-14.069-27.747-25.136-10.879-26.918-12.755-1.7,6.28-1.608,9.469-.534,13.969,6.016,24.477,27.387,11.073,27.387,11.073Z" transform="translate(-509.918 -1161.241)" fill="#f0ebf7"/>
        <path id="Path_148" data-name="Path 148" d="M546.418,1195.184a.23.23,0,0,0,.192-.358,88.551,88.551,0,0,0-13.883-15.663,106.092,106.092,0,0,0-11.294-8.315c-3.164-2.1-5.45-3.613-6.148-4.863a.23.23,0,1,0-.4.225c.753,1.349,3.078,2.89,6.3,5.023a105.545,105.545,0,0,1,11.247,8.279,88.035,88.035,0,0,1,13.8,15.57A.23.23,0,0,0,546.418,1195.184Z" transform="translate(-511.926 -1163.123)" fill="#cbc0e0"/>
        <path id="Path_149" data-name="Path 149" d="M529.357,1198.772a60.615,60.615,0,0,0,10.947-1.028.23.23,0,1,0-.094-.451c-.111.023-11.169,2.281-19.917,0a.23.23,0,1,0-.116.445A37.061,37.061,0,0,0,529.357,1198.772Z" transform="translate(-514.021 -1175.905)" fill="#cbc0e0"/>
        <path id="Path_150" data-name="Path 150" d="M522.233,1182.14a51.665,51.665,0,0,0,6.286-.435.23.23,0,0,0-.063-.456c-.07.01-6.981.948-10.6.005a.23.23,0,1,0-.116.446A18.84,18.84,0,0,0,522.233,1182.14Z" transform="translate(-513.029 -1169.38)" fill="#cbc0e0"/>
        <path id="Path_151" data-name="Path 151" d="M539.68,1214.028c5.206,0,14.052-1.939,14.5-2.038a.23.23,0,0,0-.1-.45c-.131.028-13.143,2.882-16.9,1.771a.23.23,0,1,0-.131.441A9.837,9.837,0,0,0,539.68,1214.028Z" transform="translate(-520.887 -1181.701)" fill="#cbc0e0"/>
        <path id="Path_152" data-name="Path 152" d="M561.63,1199.277a.231.231,0,0,0,.224-.175,24.525,24.525,0,0,0,0-10.747.23.23,0,0,0-.444.121,24.017,24.017,0,0,1,0,10.515.231.231,0,0,0,.168.279A.227.227,0,0,0,561.63,1199.277Z" transform="translate(-530.861 -1172.202)" fill="#cbc0e0"/>
        <path id="Path_153" data-name="Path 153" d="M545.907,1184.905h0a.231.231,0,0,0,.227-.234,29.965,29.965,0,0,0-1.351-8.458.23.23,0,0,0-.429.166,30.117,30.117,0,0,1,1.319,8.3A.231.231,0,0,0,545.907,1184.905Z" transform="translate(-523.922 -1167.272)" fill="#cbc0e0"/>
      </g>
      <g id="Group_14" data-name="Group 14" transform="translate(77.957 234.66)">
        <path id="Path_154" data-name="Path 154" d="M512.951,1223.19s-.043-25.911,28.33-13.307c0,0,6.235-22.306,22.575-21.252s17.921,22.161,17.921,22.161,22.378-11.375,34.381,11.695Z" transform="translate(-512.951 -1188.595)" fill="#d6ece0"/>
        <g id="Group_13" data-name="Group 13" transform="translate(15.119 10.269)">
          <path id="Path_155" data-name="Path 155" d="M599.392,1229.652l.569-.08a33.663,33.663,0,0,1,5.465-23.316l-.457-.349A34.3,34.3,0,0,0,599.392,1229.652Z" transform="translate(-563.105 -1205.906)" fill="#93deb4"/>
          <path id="Path_156" data-name="Path 156" d="M593.71,1221.425l.465-.339c-.067-.092-6.71-9.229-7.847-14.98l-.564.112C586.925,1212.094,593.434,1221.047,593.71,1221.425Z" transform="translate(-557.691 -1205.987)" fill="#93deb4"/>
          <path id="Path_157" data-name="Path 157" d="M599.573,1235.124c5.152-.323,9.717-6.432,9.909-6.692l-.463-.342c-.045.062-4.6,6.153-9.482,6.459Z" transform="translate(-563.294 -1214.931)" fill="#93deb4"/>
          <path id="Path_158" data-name="Path 158" d="M557.893,1240.585l-.773-.555c-.09-.064-9.056-6.419-18.655-6.866l-.026.575c7.745.361,15.089,4.649,17.511,6.2l-9.567-.333-.02.575Z" transform="translate(-538.439 -1216.995)" fill="#93deb4"/>
          <path id="Path_159" data-name="Path 159" d="M556.058,1233.641l.544-.186a35.335,35.335,0,0,0-4.716-8.531l-.456.351A34.71,34.71,0,0,1,556.058,1233.641Z" transform="translate(-543.724 -1213.642)" fill="#93deb4"/>
          <path id="Path_160" data-name="Path 160" d="M634.9,1239.2c.07-.059,7.046-5.917,14.83-8.648l-.19-.542c-7.887,2.766-14.941,8.691-15.011,8.751Z" transform="translate(-577.53 -1215.712)" fill="#93deb4"/>
          <path id="Path_161" data-name="Path 161" d="M656.329,1240.55l.263-.512c-.2-.1-5.093-2.554-14.105-1.3l.079.569C651.381,1238.082,656.281,1240.525,656.329,1240.55Z" transform="translate(-580.766 -1219.117)" fill="#93deb4"/>
        </g>
      </g>
      <g id="Group_16" data-name="Group 16" transform="translate(266.972 234.653)">
        <path id="Path_162" data-name="Path 162" d="M934.8,1223.185s-12.28-28.778-32.381-17.3c0,0-2.184-18.316-18.523-17.261s-17.921,22.161-17.921,22.161-22.378-11.374-34.381,11.695Z" transform="translate(-831.589 -1188.582)" fill="#d6ece0"/>
        <g id="Group_15" data-name="Group 15" transform="translate(12.261 10.276)">
          <path id="Path_163" data-name="Path 163" d="M914.775,1229.652l-.569-.08a33.663,33.663,0,0,0-5.465-23.316l.457-.349A34.3,34.3,0,0,1,914.775,1229.652Z" transform="translate(-875.236 -1205.906)" fill="#93deb4"/>
          <path id="Path_164" data-name="Path 164" d="M919.045,1221.425l-.464-.339c.067-.092,6.71-9.229,7.847-14.98l.564.112C925.83,1212.094,919.322,1221.047,919.045,1221.425Z" transform="translate(-879.239 -1205.987)" fill="#93deb4"/>
          <path id="Path_165" data-name="Path 165" d="M912.13,1235.124c-5.153-.323-9.717-6.432-9.909-6.692l.463-.342c.045.062,4.6,6.153,9.482,6.459Z" transform="translate(-872.584 -1214.931)" fill="#93deb4"/>
          <path id="Path_166" data-name="Path 166" d="M947.29,1240.585l.773-.555c.09-.064,9.056-6.419,18.655-6.866l.026.575c-7.745.361-15.089,4.649-17.511,6.2l9.567-.333.02.575Z" transform="translate(-890.918 -1216.995)" fill="#93deb4"/>
          <path id="Path_167" data-name="Path 167" d="M958.919,1233.641l-.544-.186a35.334,35.334,0,0,1,4.717-8.531l.456.351A34.713,34.713,0,0,0,958.919,1233.641Z" transform="translate(-895.427 -1213.642)" fill="#93deb4"/>
          <path id="Path_168" data-name="Path 168" d="M873.2,1239.2c-.07-.059-7.046-5.917-14.83-8.648l.19-.542c7.886,2.766,14.941,8.691,15.011,8.751Z" transform="translate(-854.743 -1215.712)" fill="#93deb4"/>
          <path id="Path_169" data-name="Path 169" d="M852.522,1240.55l-.263-.512c.2-.1,5.093-2.554,14.105-1.3l-.079.569C857.47,1238.082,852.57,1240.525,852.522,1240.55Z" transform="translate(-852.259 -1219.117)" fill="#93deb4"/>
        </g>
      </g>
      <path id="Path_171" data-name="Path 171" d="M803.678,872.907s-2.427-.726-5.742-5.7S789.141,869,784.9,860.869s-7.058-10.649-14.4-3.687-12.01,9.551-17.74,5.308-9.019,2.079-14.12,6.248-10,1.707-11.886,4.169Z" transform="translate(-521.969 -817.467)" fill="#f0ebf7" opacity="0.52"/>
      <path id="Path_172" data-name="Path 172" d="M386.334,1115.47c4.151-2.032,5.565-3.709,6.36-3.629s.628,1.081,1.447,2.933c.756,1.72,1.726,1.558,1.588.63a8.682,8.682,0,0,1,.1-4.436,12.981,12.981,0,0,0,.33-1.7,12.16,12.16,0,0,0,.069-2.587c-3.047-3.137-4.106-2.519-4.106-2.519s-.219.348-.573.9a51.991,51.991,0,0,1-4.9,6.741c-1.588,1.459-4.857,3.155-4.559,3.287a4.163,4.163,0,0,0,2.089-.24,24.794,24.794,0,0,1-2.515,1.66C380.934,1116.945,383.467,1116.875,386.334,1115.47Z" transform="translate(-381.533 -919.569)" fill="#f6a49d"/>
      <path id="Path_173" data-name="Path 173" d="M398.415,1105.065a9.5,9.5,0,0,0,4.61,4.208,12.158,12.158,0,0,0,.069-2.587c-3.047-3.137-4.106-2.519-4.106-2.519S398.769,1104.515,398.415,1105.065Z" transform="translate(-388.4 -919.569)" fill="#d47c74"/>
      <circle id="Ellipse_2" data-name="Ellipse 2" cx="4.635" cy="4.635" r="4.635" transform="matrix(0.987, -0.161, 0.161, 0.987, 73.449, 97.54)" fill="#8f94a3"/>
      <path id="Path_174" data-name="Path 174" d="M422.279,1219.4s-.525,6.453,0,9.68a47.575,47.575,0,0,1,.6,5.478H402.245s.525-3.376,7.653-5.177,6.528-10.73,6.528-10.73Z" transform="translate(-389.959 -966.16)" fill="#24292f"/>
      <path id="Path_175" data-name="Path 175" d="M477.06,1217.121a41.574,41.574,0,0,1-.676,8.779,36.432,36.432,0,0,0-.9,7.128h17.783s-.189-3.527-5.234-4.727-4.3-7.8-4.595-11.781S477.06,1217.121,477.06,1217.121Z" transform="translate(-419.752 -964.635)" fill="#24292f"/>
      <path id="Path_176" data-name="Path 176" d="M560.716,924.756v113.525a5.064,5.064,0,0,0,4.988,5.138H756.344a5.064,5.064,0,0,0,4.987-5.138V924.756a5.064,5.064,0,0,0-4.987-5.138H565.7A5.064,5.064,0,0,0,560.716,924.756Z" transform="translate(-454.425 -844.514)" fill="#c2e7f0"/>
      <path id="Path_177" data-name="Path 177" d="M553.181,929.566v106.819a5.139,5.139,0,0,0,5.139,5.138h190.8a5.138,5.138,0,0,0,5.138-5.138V929.566a6.406,6.406,0,0,0-6.406-6.406H559.588A6.407,6.407,0,0,0,553.181,929.566Z" transform="translate(-451.36 -845.955)" fill="#f4faf8"/>
      <g id="Group_23" data-name="Group 23" transform="translate(110.466 102.669)">
        <g id="Group_17" data-name="Group 17" transform="translate(82.04)">
          <path id="Path_178" data-name="Path 178" d="M706.055,979.092a13.005,13.005,0,1,0,13.005-13.005A13,13,0,0,0,706.055,979.092Zm4.634,0a8.371,8.371,0,1,1,8.371,8.371A8.371,8.371,0,0,1,710.689,979.092Z" transform="translate(-706.055 -966.087)" fill="#c2e7f0"/>
        </g>
        <path id="Path_179" data-name="Path 179" d="M715.018,1018.89h14.537a1.032,1.032,0,0,0,1.032-1.032h0a1.032,1.032,0,0,0-1.032-1.032H715.018a1.032,1.032,0,0,0-1.031,1.032h0A1.032,1.032,0,0,0,715.018,1018.89Z" transform="translate(-627.242 -986.728)" fill="#c2e7f0"/>
        <g id="Group_18" data-name="Group 18" transform="translate(42.708)">
          <path id="Path_180" data-name="Path 180" d="M639.75,979.092a13.005,13.005,0,1,0,13.005-13.005A13,13,0,0,0,639.75,979.092Zm4.635,0a8.371,8.371,0,1,1,8.371,8.371A8.371,8.371,0,0,1,644.385,979.092Z" transform="translate(-639.75 -966.087)" fill="#c2e7f0"/>
        </g>
        <path id="Path_181" data-name="Path 181" d="M648.713,1018.89h14.537a1.032,1.032,0,0,0,1.032-1.032h0a1.032,1.032,0,0,0-1.032-1.032H648.713a1.032,1.032,0,0,0-1.032,1.032h0A1.032,1.032,0,0,0,648.713,1018.89Z" transform="translate(-600.269 -986.728)" fill="#c2e7f0"/>
        <g id="Group_19" data-name="Group 19" transform="translate(3.094)">
          <path id="Path_182" data-name="Path 182" d="M572.97,979.092a13,13,0,1,0,13.005-13.005A13,13,0,0,0,572.97,979.092Zm4.634,0a8.371,8.371,0,1,1,8.371,8.371A8.371,8.371,0,0,1,577.6,979.092Z" transform="translate(-572.97 -966.087)" fill="#c2e7f0"/>
        </g>
        <g id="Group_20" data-name="Group 20" transform="translate(78.944 1.125)">
          <path id="Path_183" data-name="Path 183" d="M700.837,980.989a13.005,13.005,0,1,0,13.286-13c-.093-.006-.186-.006-.281-.006A13,13,0,0,0,700.837,980.989Zm4.635,0a8.371,8.371,0,0,1,8.371-8.371c.1,0,.189,0,.281.008a8.369,8.369,0,1,1-8.652,8.362Z" transform="translate(-700.837 -967.984)" fill="#745faa"/>
        </g>
        <g id="Group_21" data-name="Group 21" transform="translate(39.614 1.125)">
          <path id="Path_184" data-name="Path 184" d="M634.535,980.989a13,13,0,1,0,1.311-5.7c-.067.141-.135.281-.2.425A12.92,12.92,0,0,0,634.535,980.989Zm4.634,0a8.288,8.288,0,0,1,.721-3.4,8.159,8.159,0,0,1,.492-.949,8.374,8.374,0,1,1-1.213,4.345Z" transform="translate(-634.535 -967.984)" fill="#67b4d2"/>
        </g>
        <path id="Path_185" data-name="Path 185" d="M634.535,986a13,13,0,0,0,7.074,11.576l2.113-4.128a8.374,8.374,0,0,1-3.34-11.793l-4.536-1.353A12.925,12.925,0,0,0,634.535,986Z" transform="translate(-594.921 -971.87)" fill="#fff"/>
        <g id="Group_22" data-name="Group 22" transform="translate(0 1.125)">
          <path id="Path_186" data-name="Path 186" d="M567.754,980.989a13.007,13.007,0,1,0,3.815-9.2A13,13,0,0,0,567.754,980.989Zm4.634,0a8.373,8.373,0,1,1,4.175,7.242A8.356,8.356,0,0,1,572.388,980.989Z" transform="translate(-567.754 -967.984)" fill="#67b4d2"/>
        </g>
        <path id="Path_187" data-name="Path 187" d="M581.933,1018.89H596.47a1.032,1.032,0,0,0,1.032-1.032h0a1.032,1.032,0,0,0-1.032-1.032H581.933a1.032,1.032,0,0,0-1.032,1.032h0A1.032,1.032,0,0,0,581.933,1018.89Z" transform="translate(-573.102 -986.728)" fill="#c2e7f0"/>
        <path id="Path_188" data-name="Path 188" d="M700.837,980.989h4.635a8.371,8.371,0,0,1,8.371-8.371c.1,0,.189,0,.281.008V967.99c-.093-.006-.186-.006-.281-.006A13,13,0,0,0,700.837,980.989Z" transform="translate(-621.893 -966.859)" fill="#fff"/>
        <path id="Path_189" data-name="Path 189" d="M700.837,989.908a12.987,12.987,0,0,0,5.976,10.943L709.388,997a8.366,8.366,0,0,1-3.916-7.087Z" transform="translate(-621.893 -975.777)" fill="#f38ab2"/>
        <path id="Path_190" data-name="Path 190" d="M636.413,975.716l4.241,1.877a8.159,8.159,0,0,1,.492-.949,8.368,8.368,0,0,1,7.158-4.026v-4.635a13.005,13.005,0,0,0-11.694,7.308C636.543,975.432,636.475,975.573,636.413,975.716Z" transform="translate(-595.685 -966.859)" fill="#f38ab2"/>
        <path id="Path_191" data-name="Path 191" d="M567.754,983.6a13,13,0,0,0,6.485,11.258l2.324-4.015a8.371,8.371,0,0,1-1.719-13.168l-3.275-3.276A12.954,12.954,0,0,0,567.754,983.6Z" transform="translate(-567.754 -969.467)" fill="#fff"/>
        <path id="Path_192" data-name="Path 192" d="M578.687,1002.235a13.014,13.014,0,0,0,19.3-8.827l-4.553-.872a8.369,8.369,0,0,1-12.42,5.683Z" transform="translate(-572.202 -976.846)" fill="#f38ab2"/>
      </g>
      <path id="Rectangle_5" data-name="Rectangle 5" d="M8.662,0H192.411a8.662,8.662,0,0,1,8.662,8.662V9.3a0,0,0,0,1,0,0H0a0,0,0,0,1,0,0V8.662A8.662,8.662,0,0,1,8.662,0Z" transform="translate(101.822 77.205)" fill="#7dd0e2"/>
      <g id="Group_27" data-name="Group 27" transform="translate(106.646 80.481)">
        <g id="Group_24" data-name="Group 24" transform="translate(13.206)">
          <path id="Path_193" data-name="Path 193" d="M586.328,930.059a1.376,1.376,0,1,1-1.376-1.376A1.375,1.375,0,0,1,586.328,930.059Z" transform="translate(-583.577 -928.683)" fill="#fff"/>
        </g>
        <g id="Group_25" data-name="Group 25" transform="translate(6.603)">
          <path id="Path_194" data-name="Path 194" d="M575.2,930.059a1.376,1.376,0,1,1-1.376-1.376A1.375,1.375,0,0,1,575.2,930.059Z" transform="translate(-572.446 -928.683)" fill="#fbd163"/>
        </g>
        <g id="Group_26" data-name="Group 26">
          <path id="Path_195" data-name="Path 195" d="M564.066,930.059a1.376,1.376,0,1,1-1.376-1.376A1.376,1.376,0,0,1,564.066,930.059Z" transform="translate(-561.315 -928.683)" fill="#f38ab2"/>
        </g>
      </g>
      <path id="Path_196" data-name="Path 196" d="M853.882,999.884a2.14,2.14,0,0,0,2.035-2.23V952.4a2.194,2.194,0,0,0-2.086-2.288H781.61a2.194,2.194,0,0,0-2.086,2.288v44.865a2.618,2.618,0,0,0,2.618,2.618Z" transform="translate(-543.437 -856.92)" fill="#7dd0e2"/>
      <path id="Path_197" data-name="Path 197" d="M849.913,997.612a2.034,2.034,0,0,0,2.034-2.034v-41.32a2.034,2.034,0,0,0-2.034-2.035H777.384a1.83,1.83,0,0,0-1.829,1.83v41.73a1.83,1.83,0,0,0,1.829,1.829Z" transform="translate(-541.822 -857.778)" fill="#c2e7f0"/>
      <g id="Group_34" data-name="Group 34" transform="translate(278.689 100.997)">
        <g id="Group_28" data-name="Group 28">
          <rect id="Rectangle_6" data-name="Rectangle 6" width="2.117" height="32.485" fill="#fff"/>
        </g>
        <g id="Group_29" data-name="Group 29" transform="translate(4.676)">
          <rect id="Rectangle_7" data-name="Rectangle 7" width="2.117" height="32.485" fill="#fff"/>
        </g>
        <g id="Group_30" data-name="Group 30" transform="translate(9.353)">
          <rect id="Rectangle_8" data-name="Rectangle 8" width="2.117" height="32.485" fill="#fff"/>
        </g>
        <g id="Group_31" data-name="Group 31" transform="translate(14.029)">
          <rect id="Rectangle_9" data-name="Rectangle 9" width="2.117" height="32.485" fill="#fff"/>
        </g>
        <g id="Group_32" data-name="Group 32" transform="translate(18.705)">
          <rect id="Rectangle_10" data-name="Rectangle 10" width="2.117" height="32.485" fill="#fff"/>
        </g>
        <g id="Group_33" data-name="Group 33" transform="translate(23.381)">
          <rect id="Rectangle_11" data-name="Rectangle 11" width="2.117" height="32.485" fill="#fff"/>
        </g>
      </g>
      <g id="Group_35" data-name="Group 35" transform="translate(278.689 123.308)">
        <rect id="Rectangle_12" data-name="Rectangle 12" width="2.117" height="10.174" fill="#cbc0e0"/>
      </g>
      <g id="Group_36" data-name="Group 36" transform="translate(283.365 112.371)">
        <rect id="Rectangle_13" data-name="Rectangle 13" width="2.117" height="21.111" fill="#cbc0e0"/>
      </g>
      <g id="Group_37" data-name="Group 37" transform="translate(288.042 106.902)">
        <rect id="Rectangle_14" data-name="Rectangle 14" width="2.117" height="26.58" fill="#cbc0e0"/>
      </g>
      <g id="Group_38" data-name="Group 38" transform="translate(292.718 114.989)">
        <rect id="Rectangle_15" data-name="Rectangle 15" width="2.117" height="18.493" fill="#cbc0e0"/>
      </g>
      <g id="Group_39" data-name="Group 39" transform="translate(297.394 120.254)">
        <rect id="Rectangle_16" data-name="Rectangle 16" width="2.117" height="13.228" fill="#cbc0e0"/>
      </g>
      <g id="Group_40" data-name="Group 40" transform="translate(302.07 124.413)">
        <rect id="Rectangle_17" data-name="Rectangle 17" width="2.117" height="9.069" fill="#cbc0e0"/>
      </g>
      <circle id="Ellipse_3" data-name="Ellipse 3" cx="4.075" cy="4.075" r="4.075" transform="translate(262.153 100.997)" fill="#fff"/>
      <g id="Group_41" data-name="Group 41" transform="translate(240.051 101.099)">
        <rect id="Rectangle_18" data-name="Rectangle 18" width="18.095" height="1.169" fill="#fff"/>
        <rect id="Rectangle_19" data-name="Rectangle 19" width="18.095" height="1.169" transform="translate(0 3.456)" fill="#fff"/>
        <rect id="Rectangle_20" data-name="Rectangle 20" width="10.013" height="1.169" transform="translate(8.082 6.879)" fill="#fff"/>
      </g>
      <path id="Path_198" data-name="Path 198" d="M823.465,992.371a4.075,4.075,0,1,0,4.075-4.075A4.075,4.075,0,0,0,823.465,992.371Z" transform="translate(-561.312 -872.452)" fill="#fff"/>
      <g id="Group_42" data-name="Group 42" transform="translate(240.051 115.945)">
        <rect id="Rectangle_21" data-name="Rectangle 21" width="18.095" height="1.169" fill="#fff"/>
        <rect id="Rectangle_22" data-name="Rectangle 22" width="18.095" height="1.169" transform="translate(0 3.456)" fill="#fff"/>
        <rect id="Rectangle_23" data-name="Rectangle 23" width="10.013" height="1.169" transform="translate(8.082 6.879)" fill="#fff"/>
      </g>
      <path id="Path_199" data-name="Path 199" d="M492.814,918.965a12.73,12.73,0,0,0,5.594,10.553,5.846,5.846,0,0,1,2.509,4.848v4.559h9.3v-4.638a5.88,5.88,0,0,1,2.591-4.823,12.755,12.755,0,1,0-20-10.5Z" transform="translate(-426.802 -839.059)" fill="#fbd163"/>
      <rect id="Rectangle_24" data-name="Rectangle 24" width="11.781" height="3.677" rx="1.838" transform="translate(84.658 101.629) rotate(180)" fill="#a7adbf"/>
      <g id="Group_43" data-name="Group 43" transform="translate(281.137 217.435)">
        <rect id="Rectangle_25" data-name="Rectangle 25" width="33.965" height="0.981" transform="translate(14.254 13.142)" fill="#3a3e49"/>
        <path id="Path_200" data-name="Path 200" d="M913.846,1209.894l10.341-47.541,10.341,47.541.958-.208-10.82-49.743a.49.49,0,0,0-.958,0l-10.821,49.743Z" transform="translate(-878.827 -1159.557)" fill="#3a3e49"/>
        <path id="Path_201" data-name="Path 201" d="M856.427,1209.894l10.341-47.541,10.342,47.541.958-.208-10.82-49.743a.49.49,0,0,0-.958,0l-10.82,49.743Z" transform="translate(-855.469 -1159.557)" fill="#3a3e49"/>
        <rect id="Rectangle_26" data-name="Rectangle 26" width="34.06" height="0.981" transform="translate(18.115 31.329)" fill="#3a3e49"/>
      </g>
      <rect id="Rectangle_27" data-name="Rectangle 27" width="85.64" height="26.612" rx="4.641" transform="translate(178.664 177.652) rotate(180)" fill="#c2e7f0"/>
      <rect id="Rectangle_28" data-name="Rectangle 28" width="85.64" height="22.411" rx="4.259" transform="translate(175.363 174.651) rotate(180)" fill="#fff"/>
      <circle id="Ellipse_4" data-name="Ellipse 4" cx="7.554" cy="7.554" r="7.554" transform="translate(154.652 155.892)" fill="#d6ece0"/>
      <circle id="Ellipse_5" data-name="Ellipse 5" cx="7.554" cy="7.554" r="7.554" transform="translate(154.652 155.892)" fill="#c2e7f0"/>
      <circle id="Ellipse_6" data-name="Ellipse 6" cx="2.151" cy="2.151" r="2.151" transform="translate(160.055 161.294)" fill="#f4faf8"/>
      <rect id="Rectangle_29" data-name="Rectangle 29" width="45.771" height="1.103" transform="translate(147.275 163.997) rotate(180)" fill="#c2e7f0"/>
      <rect id="Rectangle_30" data-name="Rectangle 30" width="20.184" height="1.103" transform="translate(147.275 168.624) rotate(180)" fill="#c2e7f0"/>
      <rect id="Rectangle_31" data-name="Rectangle 31" width="45.771" height="1.103" transform="translate(147.275 158.895) rotate(180)" fill="#c2e7f0"/>
      <rect id="Rectangle_32" data-name="Rectangle 32" width="169.379" height="0.6" transform="translate(119.337 146.688)" fill="#3a3e49"/>
      <g id="Group_47" data-name="Group 47" transform="translate(279.712 152.14)">
        <g id="Group_44" data-name="Group 44" transform="translate(0 30.014)">
          <circle id="Ellipse_7" data-name="Ellipse 7" cx="3.702" cy="3.702" r="3.702" fill="#7dd0e2"/>
        </g>
        <g id="Group_45" data-name="Group 45" transform="translate(0 15.007)">
          <circle id="Ellipse_8" data-name="Ellipse 8" cx="3.702" cy="3.702" r="3.702" fill="#7dd0e2"/>
        </g>
        <g id="Group_46" data-name="Group 46">
          <circle id="Ellipse_9" data-name="Ellipse 9" cx="3.702" cy="3.702" r="3.702" fill="#7dd0e2"/>
        </g>
      </g>
      <rect id="Rectangle_33" data-name="Rectangle 33" width="0.6" height="4.352" transform="translate(283.113 161.169)" fill="#3a3e49"/>
      <rect id="Rectangle_34" data-name="Rectangle 34" width="0.6" height="4.352" transform="translate(283.113 176.551)" fill="#3a3e49"/>
      <path id="Path_202" data-name="Path 202" d="M531.031,1016.566s-.148-2.817-.187-4.733,2.156-4.785,2.572-5.9,1.771-6.619,1.908-7.375,1.682.9.509,6.86a1.39,1.39,0,0,1,1.581,1.265,1.223,1.223,0,0,1,1.548,1.188s.941.28.763,2.057c-.17,1.7-2.394,5.287-3.151,7.021a12.757,12.757,0,0,0-.9,2.575S532.458,1018.705,531.031,1016.566Z" transform="translate(-442.273 -876.556)" fill="#f6a49d"/>
      <path id="Path_203" data-name="Path 203" d="M419.7,1164.809s6.3,1.5,11.856,0a147.127,147.127,0,0,1,4.051-16.958,84.958,84.958,0,0,0,3.9-18.309c.15-3.151,7.053-25.511,8.7-31.065l2.251.15s2.4,12.906,2.4,22.811-.9,21.91-1.051,29.714-.3,12.456-.3,12.456,7.353,2.1,12.006-.3c0,0,1.651-27.012,1.651-35.416,0-6.573.642-29.039-.588-40.015-.339-3.055-.825-5.219-1.513-5.906-2.849-2.849-24.191.186-28.285.8-.438.066-.678.1-.678.1s-.075.357-.208,1.008c-.081.42-.189.963-.312,1.612-.81,4.226-2.371,12.957-3.232,21.691A432.778,432.778,0,0,1,419.7,1164.809Z" transform="translate(-397.06 -910.071)" fill="#3a3e49"/>
      <path id="Path_204" data-name="Path 204" d="M441.771,1085.275s.282.084.8.216c2.461.636,10.2,2.374,17.084,1.131a28.643,28.643,0,0,1,13.912,1.255c-.339-3.055-.825-5.219-1.513-5.906-2.849-2.849-24.191.186-28.285.8l-.886,1.113Z" transform="translate(-406.038 -910.071)" fill="#24292f"/>
      <path id="Path_205" data-name="Path 205" d="M450.878,970.689c.078,5.1,4.016,8.629,4.391,8.593s1.126-1.54,1.126-1.54l2.425-2.635,4.442-4.829,2.251-2.48a5.186,5.186,0,0,0,3.476-4.439,4.21,4.21,0,0,0-1.525-4c-1.285-1.048-3.019-1.249-3.9-.036,0,0-.378-3.716-3.34-3.98s-3.041,4.841-3.041,4.841a2.144,2.144,0,0,0-2.851-.561c-1.837.936-1.8,3.974-.3,5.588C454.03,965.212,450.806,965.586,450.878,970.689Z" transform="translate(-409.742 -859.043)" fill="#3a3e49"/>
      <path id="Path_206" data-name="Path 206" d="M463.04,977.868l4.442-4.829,2.251-2.479a5.186,5.186,0,0,0,3.476-4.439,4.21,4.21,0,0,0-1.524-4c2.137,7.874-10.433,10.129-10.433,10.129S464.517,975.664,463.04,977.868Z" transform="translate(-413.962 -861.804)" fill="#24292f"/>
      <path id="Path_207" data-name="Path 207" d="M536.292,1027.821l.826-2.213s-.375-.75-3.639-1.8-3.6-3.039-4.54-.413S536.292,1027.821,536.292,1027.821Z" transform="translate(-441.468 -886.201)" fill="#fff"/>
      <path id="Path_208" data-name="Path 208" d="M404.307,1103.868l-1.226,2.676a22.349,22.349,0,0,1-5.727-4.527l1.876-2.526Z" transform="translate(-387.969 -917.687)" fill="#fef2fc"/>
      <path id="Path_209" data-name="Path 209" d="M395.328,1061.706s5.3,5.4,9.9,7.3c0,0,6.5-12.006,9.706-16.706,3.1-4.556,7.33-15.592,7.591-16.277a.2.2,0,0,0,.012-.033s-1.5,16.808-2.5,19.911c0,0,7.6,2.2,18.206-.2a62.677,62.677,0,0,1,20.611-.9s-3.5-10.5-3.8-17.709l0,.007c.144.252,4.817,8.311,12.1,9a5.511,5.511,0,0,0,3.329-.82c5.868-3.385,10.517-16.243,12.378-23.092,0,0-6.6-2.2-9.205-5.6,0,0-4.8,8.4-5.8,11.2s-2.4,5.1-4.9,0-6.7-15.208-13.507-16.607c-1.678-.345-3.3-.616-4.859-.817a39.852,39.852,0,0,0-11.949.016s-2,.5-4.388,1.3c-2.818.943-6.173,2.293-7.419,3.7-2.3,2.6-9.5,17.907-13.807,23.21S395.829,1057.405,395.328,1061.706Z" transform="translate(-387.145 -881.253)" fill="#7dd0e2"/>
      <path id="Path_210" data-name="Path 210" d="M450.843,1011.685c1.828,3.887,5.751,8.77,10.841,7.065,4.211-1.411,5.244-6.219,5.5-8.383a39.852,39.852,0,0,0-11.949.016S453.229,1010.887,450.843,1011.685Z" transform="translate(-409.728 -881.253)" fill="#fff"/>
      <path id="Path_211" data-name="Path 211" d="M458.2,1002.82c.237,1.651,1.635,3.187,4.187,3.266a3.746,3.746,0,0,0,3.86-2.212,1.216,1.216,0,0,0,.042-.189c.057-.408-.006-2.113-.084-3.734-.021-.427-.042-.846-.063-1.237-.06-1.134-.114-2.011-.114-2.011l-3.14-3.788-3.734-1.372-.555-.2S457.967,1001.169,458.2,1002.82Z" transform="translate(-412.702 -873.69)" fill="#f6a49d"/>
      <path id="Path_212" data-name="Path 212" d="M459.85,991.683c.048.256.111.538.2.846,2.23,8.344,6.159,7.738,6.855,7.561-.081-1.666-.177-3.248-.177-3.248l-3.14-3.788Z" transform="translate(-413.392 -873.83)" fill="#d47c74"/>
      <path id="Path_213" data-name="Path 213" d="M436.99,1068.462c6.354-11.8,5.651-27.664,5.651-27.664l-3.151,7.752S437.989,1065.359,436.99,1068.462Z" transform="translate(-404.093 -893.81)" fill="#6ab0bf"/>
      <path id="Path_214" data-name="Path 214" d="M467,976.35s3.639,12.981-.9,15.195-8.216-5.253-8.216-5.253-2.927-.152-3.3-2.14,1.613-2.325,2.926-1.687c0,0,1.238-.075,1.276-1.088a30.421,30.421,0,0,0-.263-3.339A23.632,23.632,0,0,0,467,976.35Z" transform="translate(-411.23 -867.593)" fill="#f6a49d"/>
      <path id="Path_215" data-name="Path 215" d="M494.585,1044.846l.849,6.453,0,.006c.144.252,4.817,8.311,12.1,9a5.513,5.513,0,0,0,3.329-.82C501.893,1062.512,494.585,1044.846,494.585,1044.846Z" transform="translate(-427.523 -895.457)" fill="#6ab0bf"/>
      <path id="Path_216" data-name="Path 216" d="M473.964,1133.686c0,9.9-.9,21.91-1.05,29.714a80.777,80.777,0,0,1,2.7-15.907c2.47-9.452.756-17.409,0-26.713s-4.046-9.9-4.046-9.9S473.964,1123.781,473.964,1133.686Z" transform="translate(-418.157 -922.318)" fill="#24292f"/>
      <path id="Path_217" data-name="Path 217" d="M485.956,1155.434a2.55,2.55,0,1,1,2.493,3.088A2.842,2.842,0,0,1,485.956,1155.434Zm.3,0a2.256,2.256,0,1,0,2.192-2.787A2.547,2.547,0,0,0,486.256,1155.434Z" transform="translate(-424.012 -939.189)" fill="#fff"/>
      <path id="Path_218" data-name="Path 218" d="M435.438,1155.434a2.55,2.55,0,1,1,2.493,3.088A2.842,2.842,0,0,1,435.438,1155.434Zm.3,0a2.256,2.256,0,1,0,2.193-2.787A2.547,2.547,0,0,0,435.738,1155.434Z" transform="translate(-403.461 -939.189)" fill="#fff"/>
      <g id="Group_48" data-name="Group 48" transform="translate(47.82 112.171)">
        <path id="Path_219" data-name="Path 219" d="M462.552,984.671a2.165,2.165,0,1,0,.322-1.131A2.135,2.135,0,0,0,462.552,984.671Z" transform="translate(-462.312 -982.27)" fill="#fff" opacity="0.3"/>
        <path id="Path_220" data-name="Path 220" d="M462.552,985.377a2.162,2.162,0,0,0,4.067,1.02c-1.173-.657-2.662-1.521-3.745-2.152A2.136,2.136,0,0,0,462.552,985.377Z" transform="translate(-462.312 -982.976)" fill="#fff" opacity="0.47"/>
        <path id="Path_221" data-name="Path 221" d="M462.147,984.506a2.4,2.4,0,1,0,2.4-2.4A2.4,2.4,0,0,0,462.147,984.506Zm.294,0a2.107,2.107,0,1,1,2.107,2.107A2.108,2.108,0,0,1,462.441,984.506Z" transform="translate(-462.147 -982.105)" fill="#24292f"/>
      </g>
      <g id="Group_49" data-name="Group 49" transform="translate(53.298 111.459)">
        <path id="Path_222" data-name="Path 222" d="M471.787,983.47a2.164,2.164,0,1,0,.322-1.132A2.131,2.131,0,0,0,471.787,983.47Z" transform="translate(-471.547 -981.069)" fill="#fff" opacity="0.3"/>
        <path id="Path_223" data-name="Path 223" d="M471.787,984.176a2.162,2.162,0,0,0,4.067,1.02c-1.173-.657-2.662-1.522-3.745-2.152A2.132,2.132,0,0,0,471.787,984.176Z" transform="translate(-471.547 -981.775)" fill="#fff" opacity="0.47"/>
        <path id="Path_224" data-name="Path 224" d="M471.382,983.305a2.4,2.4,0,1,0,2.4-2.4A2.4,2.4,0,0,0,471.382,983.305Zm.294,0a2.107,2.107,0,1,1,2.107,2.106A2.108,2.108,0,0,1,471.676,983.305Z" transform="translate(-471.382 -980.904)" fill="#24292f"/>
      </g>
      <path id="Path_225" data-name="Path 225" d="M470.242,1003.771l.928,5.16a1.216,1.216,0,0,0,.042-.189c.057-.408-.006-2.113-.084-3.734-.021-.427-.042-.847-.063-1.237Z" transform="translate(-417.62 -878.748)" fill="#d47c74"/>
      <path id="Path_226" data-name="Path 226" d="M462.564,1024.465c11.545-2.947,11.364-13.249,11.361-13.353l-.3.009c0,.1.172,10.167-11.135,13.053Z" transform="translate(-414.466 -881.734)" fill="#fff"/>
      <path id="Path_227" data-name="Path 227" d="M464.616,1024.582h.2l0-.3h-.2c-13.859,0-16.341-10.416-16.365-10.521l-.292.065C447.982,1013.933,450.519,1024.582,464.616,1024.582Z" transform="translate(-408.555 -882.811)" fill="#fff"/>
      <path id="Path_228" data-name="Path 228" d="M507.782,941.659a30.923,30.923,0,0,0-.09-14.734,9.6,9.6,0,0,1-4.121-3.935c-.959-1.493-2.453-4.125-1.678-4.975.149-.164.5-.386,1.183-.031,1.52.791,3.839,3.787,5.156,8.514a4.076,4.076,0,0,0,3.349-.346l.018-.01c.651-2.97,1.535-5.3,2.724-5.746.835-.314,1.141.187,1.214.348.511,1.112-.973,4.288-3.4,5.78a109.718,109.718,0,0,0-1.659,15.212l-.6-.024a111.653,111.653,0,0,1,1.566-14.823,4.635,4.635,0,0,1-3.035.275,31.7,31.7,0,0,1-.04,14.625Zm-5.446-23.239c-.15.164-.154,1.3,1.739,4.245a9.851,9.851,0,0,0,3.4,3.5c-1.277-4.246-3.339-6.956-4.679-7.653a.9.9,0,0,0-.379-.122A.112.112,0,0,0,502.336,918.421Zm12.2,2.537c-.9.34-1.634,2.195-2.213,4.713,1.948-1.481,2.973-4.019,2.671-4.676a.165.165,0,0,0-.177-.1A.831.831,0,0,0,514.534,920.958Z" transform="translate(-430.408 -843.772)" fill="#fff"/>
      <g id="Group_50" data-name="Group 50" transform="translate(183.627 61.96)">
        <rect id="Rectangle_35" data-name="Rectangle 35" width="71.233" height="26.838" rx="5.719" transform="translate(74.519 26.838) rotate(180)" fill="#c2e7f0"/>
        <rect id="Rectangle_36" data-name="Rectangle 36" width="71.233" height="22.411" rx="5.719" transform="translate(71.233 23.819) rotate(180)" fill="#fff"/>
        <path id="Path_229" data-name="Path 229" d="M759.64,921.143H705.465s-.3-6.153,8.1-4.5,13.506-8.254,20.109-7.8,7.653,7.5,14.857,7.2A13.65,13.65,0,0,1,759.64,921.143Z" transform="translate(-696.936 -902.082)" fill="#f38ab2" opacity="0.49"/>
        <path id="Path_230" data-name="Path 230" d="M759.641,921.41V910.23s-6.753-.766-14.857,5.02-12.831,3.984-14.632,1.058-6.378-6.153-10.88-2.026-8.932-3-13.808-4.8v11.93Z" transform="translate(-696.936 -902.35)" fill="#7dd0e2" opacity="0.31"/>
      </g>
      <path id="Path_231" data-name="Path 231" d="M858.921,939.378" transform="translate(-575.736 -852.552)" fill="none" stroke="#3a3e49" stroke-width="2"/>
      <path id="Path_232" data-name="Path 232" d="M858.921,924.664" transform="translate(-575.736 -846.567)" fill="none" stroke="#3a3e49" stroke-width="2"/>
      <rect id="Rectangle_37" data-name="Rectangle 37" width="366.895" height="1.112" transform="translate(370.454 269.745) rotate(180)" fill="#3a3e49"/>
      <path id="Path_233" data-name="Path 233" d="M627.692,857.194l.582,1.972,3.776,12.771.729,2.464,6.618-1.6-2.059-5.3s-1.615-8.71-2.645-13.606c-1.651-7.854-6.927-8.779-6.927-8.779Z" transform="translate(-481.671 -814.205)" fill="#c2e7f0"/>
      <path id="Path_234" data-name="Path 234" d="M628.673,868.8l3.776,12.771.729-.261a59.808,59.808,0,0,1-1.561-10.13C631.558,869.439,630.246,868.86,628.673,868.8Z" transform="translate(-482.07 -823.842)" fill="#7dd0e2"/>
      <path id="Path_235" data-name="Path 235" d="M588.153,821.243a19.827,19.827,0,0,0,2.365,6.321A22.128,22.128,0,0,0,592,829.821a15.2,15.2,0,0,0,1.054,1.275l5.543-.792,7.539-1.078,1.438-.207s.048.132.123.3c.216.483.648,1.264.666-.138,0-.417-.027-1.026-.108-1.9-.084-.837-.213-1.915-.408-3.289-.081-.582-.141-1.138-.183-1.669a17.676,17.676,0,0,1,.357-5.526c.045-.186.093-.366.144-.54.057-.2.12-.4.186-.591a9.877,9.877,0,0,1,.912-1.945,6.622,6.622,0,0,1,1.249-1.516c.087-.072.153-.126.2-.156l.051-.035a23,23,0,0,0,2.728.345c.36.024.744.045,1.141.052h.063c.087,0,.177,0,.267,0,.255,0,.517,0,.781-.015.087,0,.171-.009.258-.012a.409.409,0,0,1,.06,0c.462-.03.931-.078,1.387-.153a8.538,8.538,0,0,0,1.942-.54l.084-.036c.018-.01.036-.015.054-.024.078-.036.153-.072.228-.111a3.769,3.769,0,0,0,2.143-2.692c1.051-5.252-3.805-9.6-3.805-9.6s-.486-6.984-4.925-6.153c-3.2.6-1.113,4.8-1.113,4.8a12.856,12.856,0,0,0-6.972,3,7.423,7.423,0,0,0-1.975,3.158c-1.743,5.552-3.337,5.829-8.05,7.128a9.163,9.163,0,0,0-6.987,8.263A7.433,7.433,0,0,0,588.153,821.243Z" transform="translate(-465.544 -793.009)" fill="#24292f"/>
      <path id="Path_236" data-name="Path 236" d="M644.931,987.315s4.9,6.938,6.3,8.339.488,1.813-.413,1.813-6.1-.415-7.2-1.088-2.789-3.527-3.689-5.027-3.2-1.5-3.7-3.6a4.9,4.9,0,0,1,1.142-3.942Z" transform="translate(-485.105 -870.627)" fill="#24292f"/>
      <path id="Path_237" data-name="Path 237" d="M593.156,904.525a4.018,4.018,0,0,0,1.042,1.567c3.086,3.031,11.532,5,16.124,5.886,1.846.357,3.07.534,3.07.534l16,.45,3.644-10.279s-2.566-6.228-6.63-8.179-27.178-6-27.178-6S590.875,897.493,593.156,904.525Z" transform="translate(-467.461 -831.855)" fill="#745faa"/>
      <path id="Path_238" data-name="Path 238" d="M595.183,918.156c3.086,3.031,11.532,5,16.124,5.886l-2.5-5.521C607.976,922.512,599.5,920.561,595.183,918.156Z" transform="translate(-468.446 -843.919)" fill="#5a4a85"/>
      <path id="Path_239" data-name="Path 239" d="M622.724,971.711s-2.652,1.739-3.1,3.165-2.176,7.053-2.176,7.053l.9.9s1.8-4.352,3-3.076.675,5.177,2.1,7.279,5.233,4.922,5.693,4.674.421-1.974-.61-3.924-.956-5.4-.956-5.4Z" transform="translate(-477.503 -865.706)" fill="#24292f"/>
      <path id="Path_240" data-name="Path 240" d="M626.34,945.551a24.055,24.055,0,0,0,.762,4.613c1.011,3.977,4.34,8.806,4.34,8.806s.054-2.735.273-5.637c.015-.208.03-.415.048-.622.069-.844.153-1.686.255-2.464a12.166,12.166,0,0,1,.726-3.25.218.218,0,0,1,.015-.033c.156-.309.5-.945.972-1.828,2.926-5.439,10.97-20.236,12.519-25.485,1.8-6.1.87-9.49-.685-11.114-.987-1.032-4.5-2.062-6.621.309-.054.061-.105.12-.156.18-4.247,4.979-5.838,16.778-6.561,21.79-.03.189-.057.369-.081.54a38.291,38.291,0,0,1-3.049,8.617l0,0c-.285.621-.568,1.218-.835,1.777C627.2,943.957,626.34,945.551,626.34,945.551Z" transform="translate(-481.121 -839.544)" fill="#f6a49d"/>
      <path id="Path_241" data-name="Path 241" d="M639.8,934.3s-.456-10.733,0-13.96c.354-2.5.948-7.008,3.026-10.2-4.247,4.979-5.838,16.778-6.561,21.791C638.2,933.281,639.8,934.3,639.8,934.3Z" transform="translate(-485.16 -840.659)" fill="#d47c74"/>
      <path id="Path_242" data-name="Path 242" d="M629.578,964.091c.787,2.7,2.284,7.756,3.455,11.58.015-.208.03-.415.048-.622.069-.844.153-1.686.255-2.464a12.162,12.162,0,0,1,.726-3.25.229.229,0,0,1,.015-.033c.156-.309.5-.946.972-1.828-1.867-2.071-4.52-5.037-4.634-5.162l0,0C630.127,962.936,629.845,963.533,629.578,964.091Z" transform="translate(-482.438 -861.882)" fill="#d47c74"/>
      <path id="Path_243" data-name="Path 243" d="M623.507,906.188c2.837-.32,6,1.65,7.2,13.056s4.2,30.464,5.4,33.466,5.252,9,4.5,9.454-5-.575-9.879-7.839a1.875,1.875,0,0,1-.254-.561,153.587,153.587,0,0,0-6.224-18.055C618.7,922.4,614.2,907.239,623.507,906.188Z" transform="translate(-477.786 -839.038)" fill="#f6a49d"/>
      <path id="Path_244" data-name="Path 244" d="M638.994,998.107h-.825a42.122,42.122,0,0,0-1.876-7.653l4.352,2.888S638.469,994.694,638.994,998.107Z" transform="translate(-485.17 -873.33)" fill="#24292f"/>
      <path id="Path_245" data-name="Path 245" d="M595.275,854.8c1.426,4.352,4.577,10.355,4.727,14.707s15.28,2.926,15.28,2.926a56.7,56.7,0,0,1,2.954-10.655c1.951-4.652-.3-8.029-.675-10.88s0-5.4-3.227-7.128l0,0a16.647,16.647,0,0,0-5.736-1.947s-1.78-.039-3.977.03a34.733,34.733,0,0,0-6.267.645C594.974,843.318,593.849,850.446,595.275,854.8Z" transform="translate(-468.238 -812.86)" fill="#c2e7f0"/>
      <path id="Path_246" data-name="Path 246" d="M605.5,867.186s.857,4.98,3.658,7.028,4.037,5.838,5.149,6.7-7.779-.218-7.986-.627-2.408-6.713-2.408-7.012S605.5,867.186,605.5,867.186Z" transform="translate(-471.997 -823.184)" fill="#7dd0e2"/>
      <path id="Path_247" data-name="Path 247" d="M617.823,849.02c3.442-1.05,3.235-5.253,3.235-5.253l0,0a16.648,16.648,0,0,0-5.736-1.947s-1.78-.039-3.977.03C610.38,846.715,614.546,850.02,617.823,849.02Z" transform="translate(-474.963 -812.86)" fill="#f6a49d"/>
      <path id="Path_248" data-name="Path 248" d="M616.273,894.709v-1.276l19.151,1.276,7.474,2.851-.3.65h-19.15Z" transform="translate(-477.026 -833.862)" fill="#3a3e49"/>
      <path id="Path_249" data-name="Path 249" d="M616.932,873.389s-13.569-7.266-15.07-8.366-.6-1.926-1.1-5.128-.182-17.072-3.6-16.933c-3.68.15-5.6,2.851-5.4,9.054s1.987,15.493,3.4,17.283c3.952,5,19.371,7.529,19.371,7.529Z" transform="translate(-467.047 -813.33)" fill="#c2e7f0"/>
      <path id="Path_250" data-name="Path 250" d="M636.331,874.333h18.719a.265.265,0,0,1,.237.384l-7.539,15.074H628.2l7.551-15.1A.651.651,0,0,1,636.331,874.333Z" transform="translate(-481.877 -826.092)" fill="#a7adbf"/>
      <path id="Path_251" data-name="Path 251" d="M618.49,840.858c1.858-.169,2.347-2.6,2.84-4.992a16.6,16.6,0,0,1,.849-3.139.085.085,0,0,0,.012-.024c1.2-2.7-3.7-6.351-3.7-6.351-.051.15-3.6,7.933-4.8,9.166S615.737,841.107,618.49,840.858Z" transform="translate(-475.87 -806.573)" fill="#f6a49d"/>
      <path id="Path_252" data-name="Path 252" d="M621.433,830.354s0,.057.009.162c.054.939.465,5.672,3.143,6.978a16.6,16.6,0,0,1,.849-3.139Z" transform="translate(-479.125 -808.201)" fill="#d47c74"/>
      <path id="Path_253" data-name="Path 253" d="M647.778,886.369a1.512,1.512,0,0,0,1.5,2,2.734,2.734,0,0,0,2.5-2,1.513,1.513,0,0,0-1.5-2A2.735,2.735,0,0,0,647.778,886.369Z" transform="translate(-489.817 -830.174)" fill="#f0e9fa"/>
      <path id="Path_254" data-name="Path 254" d="M631.779,819.82s-3.1,9.9-6.3,9.8-5.3-4.152-5.653-8.154c0,0-2.1-1.65-1.351-3.952s2.5-.2,2.5-.2,8.1-.55,9-3.7C629.979,813.617,629.878,817.719,631.779,819.82Z" transform="translate(-477.855 -801.392)" fill="#f6a49d"/>
      <g id="Group_53" data-name="Group 53" transform="translate(144.834 15.999)">
        <g id="Group_51" data-name="Group 51">
          <path id="Path_255" data-name="Path 255" d="M626.314,821.6a2.164,2.164,0,1,0,.785-.876A2.137,2.137,0,0,0,626.314,821.6Z" transform="translate(-625.855 -820.144)" fill="#fff" opacity="0.3"/>
          <path id="Path_256" data-name="Path 256" d="M626.314,821.828a2.162,2.162,0,0,0,3.207,2.7c-.766-1.106-1.724-2.536-2.421-3.578A2.138,2.138,0,0,0,626.314,821.828Z" transform="translate(-625.855 -820.375)" fill="#fff" opacity="0.47"/>
          <path id="Path_257" data-name="Path 257" d="M625.83,823.177a2.4,2.4,0,0,0,4.421.259c.009-.018.015-.033.024-.051a2.4,2.4,0,1,0-4.445-.208Zm1.339,1.1a2.107,2.107,0,1,1,2.815-.969c-.012.024-.024.051-.039.075a2.145,2.145,0,0,1-.618.708A2.107,2.107,0,0,1,627.169,824.276Z" transform="translate(-625.692 -819.979)" fill="#24292f"/>
        </g>
        <g id="Group_52" data-name="Group 52" transform="translate(5.235 1.764)">
          <path id="Path_258" data-name="Path 258" d="M635.14,824.57a2.163,2.163,0,1,0,.785-.876A2.137,2.137,0,0,0,635.14,824.57Z" transform="translate(-634.681 -823.117)" fill="#fff" opacity="0.3"/>
          <path id="Path_259" data-name="Path 259" d="M635.14,824.8a2.161,2.161,0,0,0,3.206,2.7c-.766-1.106-1.724-2.536-2.421-3.578A2.136,2.136,0,0,0,635.14,824.8Z" transform="translate(-634.681 -823.349)" fill="#fff" opacity="0.47"/>
          <path id="Path_260" data-name="Path 260" d="M635.864,827.511a2.464,2.464,0,0,0,.928.243,2.4,2.4,0,0,0,1.867-4.055,2.309,2.309,0,0,0-.583-.447,1.082,1.082,0,0,0-.105-.057,2.4,2.4,0,0,0-3.211,1.1,2.195,2.195,0,0,0-.114.279A2.4,2.4,0,0,0,635.864,827.511Zm1.056-.051a2.055,2.055,0,0,1-.927-.214,2.109,2.109,0,0,1-1.03-2.683c.018-.045.039-.09.06-.135a2.06,2.06,0,0,1,.769-.852,2.107,2.107,0,0,1,2.05-.117,2,2,0,0,1,.48.324c.018.015.036.033.054.052a2.109,2.109,0,0,1-.225,3.229A2.125,2.125,0,0,1,636.92,827.46Z" transform="translate(-634.516 -822.952)" fill="#24292f"/>
        </g>
      </g>
      <g id="Group_54" data-name="Group 54" transform="translate(167.767 15.819)">
        <path id="Path_261" data-name="Path 261" d="M666.1,819.676h31.784a1.753,1.753,0,0,1,1.752,1.752v9.687a1.752,1.752,0,0,1-1.752,1.752H678.964l-11.375,6.618,3.446-6.618H666.1a1.752,1.752,0,0,1-1.752-1.752v-9.687A1.753,1.753,0,0,1,666.1,819.676Z" transform="translate(-664.351 -819.676)" fill="#e5e7e6"/>
        <rect id="Rectangle_38" data-name="Rectangle 38" width="23.958" height="1.301" transform="translate(30.497 4.752) rotate(180)" fill="#fff"/>
        <rect id="Rectangle_39" data-name="Rectangle 39" width="23.958" height="1.301" transform="translate(30.497 8.704) rotate(180)" fill="#fff"/>
      </g>
      <g id="Group_55" data-name="Group 55" transform="translate(286.429 46.065)">
        <path id="Path_262" data-name="Path 262" d="M891.923,870.665H866.142a1.753,1.753,0,0,0-1.753,1.753V882.1a1.753,1.753,0,0,0,1.753,1.753h12.92l11.375,6.617-3.447-6.617h4.932a1.753,1.753,0,0,0,1.752-1.753v-9.686A1.753,1.753,0,0,0,891.923,870.665Z" transform="translate(-864.389 -870.665)" fill="#cbc0e0"/>
        <rect id="Rectangle_40" data-name="Rectangle 40" width="17.955" height="1.301" transform="translate(4.792 3.452)" fill="#fff"/>
        <rect id="Rectangle_41" data-name="Rectangle 41" width="17.955" height="1.301" transform="translate(4.792 7.404)" fill="#fff"/>
      </g>
      <g id="Group_56" data-name="Group 56" transform="translate(273.8 76.187)">
        <path id="Path_263" data-name="Path 263" d="M919.841,949.852s.081.027.216.075c.739.261,3.134,1.15,3.386,1.825.3.8,1.6,5,1.6,5l10.007-.718-5-11.8-6.954-1.543Z" transform="translate(-874.319 -930.091)" fill="#f6a49d"/>
        <path id="Path_264" data-name="Path 264" d="M920.2,952.26c.739.261,3.134,1.15,3.386,1.825.849-2.149.249-5.651.249-5.651Z" transform="translate(-874.467 -932.424)" fill="#d47c74"/>
        <path id="Path_265" data-name="Path 265" d="M990.768,1137.755s.3.138.8.4c1.669.879,5.5,3.151,6.936,6.144.739,1.537-.159,4.046-.771,5.463-2.152,5,.7,6.672.7,6.672l10.142-17.276a17.486,17.486,0,0,0-4.529-1.411c-.759-.156-1.62-.3-2.581-.415-4.868-.594-7.912-5.339-7.912-5.339l-2.4,4.985Z" transform="translate(-903.172 -1007.095)" fill="#24292f"/>
        <path id="Path_266" data-name="Path 266" d="M991.4,1136.974c.132.373.27.765.42,1.177,1.669.879,5.5,3.151,6.936,6.144.739,1.537-.159,4.046-.771,5.463,2.536.972,5.637-9.6,6.309-12.015-.759-.156-1.621-.3-2.581-.415-4.868-.594-7.912-5.339-7.912-5.339Z" transform="translate(-903.43 -1007.095)" fill="#f6a49d"/>
        <path id="Path_267" data-name="Path 267" d="M945.992,1067.536c.264,3.847,2.176,5.708,8.209,10.727,8.182,6.8,21.655,18.387,21.655,18.387a32.98,32.98,0,0,0,6.2-9.482s-3.818-.5-9.023-6.855a107.054,107.054,0,0,0-13.206-13.455c-1.6-1.2,5.805-27.214,5.4-33.016s-9-17.609-9-17.609l-6.4,1.4-2,17.006s-.1,2.527-.27,6.141c-.3,6.5-.813,16.529-1.33,21.674A31.642,31.642,0,0,0,945.992,1067.536Z" transform="translate(-884.944 -960.005)" fill="#3a3e49"/>
        <path id="Path_268" data-name="Path 268" d="M945.992,1078.194c.807-2.344,2.989-2.113,2.632-7.582-.5-7.7.9-7.5,3.9-13.708s1.606-14.473,1.606-14.473-2.971,4.037-6.579,9.007c-.3,6.5-.813,16.529-1.33,21.674A31.641,31.641,0,0,0,945.992,1078.194Z" transform="translate(-884.944 -970.663)" fill="#24292f"/>
        <path id="Path_269" data-name="Path 269" d="M881.64,1170.946h20.035a16.294,16.294,0,0,0-.858-3.968c-.285-.891-.664-1.924-1.168-3.085-1.95-4.5.6-9.53.6-9.53l-6.378.525s.676,6.411-1.726,9.979c-.951,1.414-3.569,1.909-5.1,2.1l-.276.036C881.64,1167.759,881.64,1170.946,881.64,1170.946Z" transform="translate(-858.778 -1016.197)" fill="#24292f"/>
        <path id="Path_270" data-name="Path 270" d="M890.282,1167.005c1.888,2.569,11.165.642,14.05-.027-.285-.891-.664-1.924-1.168-3.085-1.95-4.5.6-9.53.6-9.53l-6.378.525s.676,6.411-1.726,9.979c-.952,1.414-3.569,1.909-5.1,2.1Z" transform="translate(-862.294 -1016.197)" fill="#f6a49d"/>
        <path id="Path_271" data-name="Path 271" d="M912.072,932.6s-.55,4.2-2.351,4.752c0,0,.851.8,1.176,1.1s-.475,3.652.275,5.152,6.3,3.9,8.4-3.151l1.889-11.631Z" transform="translate(-870.202 -924.447)" fill="#f6a49d"/>
        <path id="Path_272" data-name="Path 272" d="M983.679,1021.918a18.778,18.778,0,0,1,2.2,9.792,11.778,11.778,0,0,1-.5,4.077c-.626,2.064-.838,2.726-.438,3.127s1.238-.976,2.239-2.451c.8-1.179,1.051.25,1.45,1.5s.8,4.6,1.051,6.2,1.4.4,1.4.4.3,1.877,1,1.677.551-3.728.551-3.728.382,3.159.932,3.059.919-2.208.868-3.909a3.6,3.6,0,0,0,.5-1.4,19.535,19.535,0,0,0-2.526-8.629c-1.679-2.484-2.626-9.079-2.626-9.079Z" transform="translate(-900.288 -962.318)" fill="#f6a49d"/>
        <path id="Path_273" data-name="Path 273" d="M847.56,970.267l1.252.8a2.323,2.323,0,0,0,.453,2.077,1.9,1.9,0,0,0,.681,2.08c1.117.9,5.547,1.849,6.9,2.716.276.177.8.552,1.462,1.032.912.667,2.083,1.543,3.209,2.389,2.035,1.537,3.932,2.986,3.932,2.986l3.649-5.685s-2.974-1.651-5.72-3.356a21.949,21.949,0,0,1-4.415-3.217c-1.138-1.579-1.269-2.007-2.749-3.842s-1.312-3.827-2.416-4.121-.387,3.62.18,4.9-5.352-.816-7.348-1.513-3.238-1.425-3.514-.7S846.306,969.466,847.56,970.267Z" transform="translate(-843.1 -938.804)" fill="#f6a49d"/>
        <path id="Path_274" data-name="Path 274" d="M868.738,986.655c.912.667,2.083,1.543,3.209,2.389a33.37,33.37,0,0,0,2.944-2.518l-1.083-3.536A6.6,6.6,0,0,0,868.738,986.655Z" transform="translate(-853.53 -946.481)" fill="#d47c74"/>
        <path id="Path_275" data-name="Path 275" d="M869.747,979.948a91.848,91.848,0,0,0,10.2,6.234,5.2,5.2,0,0,0,2.635.744c2.581-.639,14.031-9.83,15.682-9.68a.643.643,0,0,1,.354.123c.829.636-.966,3.575.1,6.825v0c.045.135.093.267.147.4a5.027,5.027,0,0,0,.609,1.1c2.026,2.813,6.588,3.845,7.795,11.286l1.612-.054,4.271-.147,6.057-.207,5.844-2.893s-2.275-5.627-1.852-14.632c0,0,7.78,5.853,9.28,8.554.225.409.516,1.009.849,1.735a.046.046,0,0,1,0,.012c1.867,4.106,5,12.21,5,12.21s4.352.6,5.853-1.351c0,0-2.251-12.155-4.8-16.808-1.689-3.082-8.019-9.926-12.54-14.581-1.249-1.288-2.359-2.407-3.2-3.239-.7-.693-1.213-1.182-1.447-1.389-.657-.583-2.6-1-5.021-1.21-1.255-.109-2.638-.165-4.034-.159a39.138,39.138,0,0,0-6.162.469c-2.812.483-7.969,1.2-10.971,3.151S881.6,977.4,880.853,977.547s-6.9-3.151-6.9-3.151S869.6,976.5,869.747,979.948Z" transform="translate(-853.939 -938.277)" fill="#f38ab2"/>
        <path id="Path_276" data-name="Path 276" d="M918.581,998.858c.045.135.093.267.147.4a5.027,5.027,0,0,0,.609,1.1c2.026,2.813,6.588,3.845,7.795,11.286l1.612-.054,4.271-.147c-.849-1.921-2.242-4.787-3.481-6.027C927.582,1003.462,920.043,1001.178,918.581,998.858Z" transform="translate(-873.806 -952.937)" fill="#db6592"/>
        <path id="Path_277" data-name="Path 277" d="M939.665,959.063c.054.069.777,1,1.921,2.23a28.473,28.473,0,0,0,6.879,5.676,7.65,7.65,0,0,0,6.819.322c-1.249-1.288-2.359-2.407-3.2-3.239l-6.468-2.6Z" transform="translate(-882.383 -936.748)" fill="#db6592"/>
        <path id="Path_278" data-name="Path 278" d="M929.44,946.326s-5.239-6.049-6.551-11.6,2.776.375,2.776.375Z" transform="translate(-875.453 -925.881)" fill="#d47c74"/>
        <path id="Path_279" data-name="Path 279" d="M911.492,930.25a23.266,23.266,0,0,0,2.792.628,3.02,3.02,0,0,1,.423-1.246,2.484,2.484,0,0,0,.084,1.32c.526.072,1.014.123,1.462.156a4.614,4.614,0,0,1,.429-2.512,5.724,5.724,0,0,0,.135,2.546,15.981,15.981,0,0,0,2.329-.042,92.05,92.05,0,0,0,6.654,12.156,41.8,41.8,0,0,0,6.651,8l1.3-.651c-1.527-1.287-4.37-5.481-4.631-5.87.424.5,6.057,7.164,10.532,6.921,4.652-.249,9.055-5.9,9.055-5.9l-3-1.951a18.092,18.092,0,0,0,3.452,1l.4-1.4a22.5,22.5,0,0,1-7.795-3.194,12.936,12.936,0,0,0,8.347,1.345,31.724,31.724,0,0,0,1.414-6.936c.2-1.641.285-2.869.285-2.869a21.5,21.5,0,0,1-15.781-4.051c-6.177-4.431-10.079-6.55-14.44-6.222a14.792,14.792,0,0,0-3.944.895A8.656,8.656,0,0,0,911.492,930.25Z" transform="translate(-870.922 -921.445)" fill="#fbd163"/>
        <path id="Path_280" data-name="Path 280" d="M918.5,1020.595s-1.4,4.6-4.8,12.606-12.006,28.213-11.805,34.016-1.6,28.614-4.4,35.017a30.571,30.571,0,0,0,12.206,3.761s1.6-10.365,3.6-18.368,1-18.209,1.8-21.21,13.006-21.21,16.407-26.412,5-10.405-1.4-21.41Z" transform="translate(-865.228 -960.965)" fill="#3a3e49"/>
        <path id="Path_281" data-name="Path 281" d="M950.584,1014.841s-5.1,2.4-17.783,3.3l-.284,1.656a43.622,43.622,0,0,0,18.685-3.513Z" transform="translate(-879.475 -959.438)" fill="#24292f"/>
        <path id="Path_282" data-name="Path 282" d="M903.44,1105.82c2.456-5.861,4.364-31.179,4.364-36.447,0-5.409,17.49-45.691,17.667-46.1l-.275-.12c-.723,1.662-17.692,40.746-17.692,46.217,0,5.256-1.9,30.5-4.34,36.33Z" transform="translate(-867.534 -962.821)" fill="#fff"/>
        <path id="Path_283" data-name="Path 283" d="M959.853,982.99v4.262s7.78,5.853,9.281,8.554c.225.409.516,1.009.849,1.735a11.894,11.894,0,0,0-4.3-6.924A22.935,22.935,0,0,1,959.853,982.99Z" transform="translate(-890.596 -946.481)" fill="#db6592"/>
        <path id="Path_284" data-name="Path 284" d="M886.938,994.9a5.2,5.2,0,0,0,2.635.744c2.581-.639,14.031-9.83,15.682-9.68a.644.644,0,0,1,.354.123c.063-.129-2.23-4.676-7.257,1.053s-5.853,4.076-9.3,6.852A4.143,4.143,0,0,1,886.938,994.9Z" transform="translate(-860.934 -946.997)" fill="#db6592"/>
        <path id="Path_285" data-name="Path 285" d="M928.513,921.477a14.182,14.182,0,0,1,6.615,5.472c3.242,5.228,3.477,13.241,7.982,9.129,3.767-3.433,10.928,8.643,15.339-1.458.2-1.641.285-2.869.285-2.869a21.5,21.5,0,0,1-15.781-4.051C936.776,923.269,932.874,921.15,928.513,921.477Z" transform="translate(-877.846 -921.445)" fill="#fff" opacity="0.31"/>
      </g>
      <rect id="Rectangle_42" data-name="Rectangle 42" width="81.167" height="2.311" rx="1.156" transform="translate(273.881 157.128) rotate(180)" fill="#c2e7f0"/>
      <rect id="Rectangle_43" data-name="Rectangle 43" width="81.167" height="2.311" rx="1.156" transform="translate(273.881 172.005) rotate(-180)" fill="#c2e7f0"/>
      <rect id="Rectangle_44" data-name="Rectangle 44" width="81.167" height="2.311" rx="1.156" transform="translate(273.881 187.012) rotate(-180)" fill="#c2e7f0"/>
      <g id="Group_57" data-name="Group 57" transform="translate(150.054 183.109)">
        <rect id="Rectangle_45" data-name="Rectangle 45" width="53.491" height="16.65" rx="2.791" transform="translate(53.491 16.65) rotate(180)" fill="#cbc0e0"/>
        <circle id="Ellipse_10" data-name="Ellipse 10" cx="4.203" cy="4.203" r="4.203" transform="translate(40.67 4.122)" fill="#fff"/>
        <rect id="Rectangle_46" data-name="Rectangle 46" width="31.97" height="1.03" transform="translate(36.659 8.84) rotate(180)" fill="#fff"/>
        <rect id="Rectangle_47" data-name="Rectangle 47" width="16.873" height="1.03" transform="translate(36.659 12.114) rotate(180)" fill="#fff"/>
        <rect id="Rectangle_48" data-name="Rectangle 48" width="31.97" height="1.03" transform="translate(36.659 5.676) rotate(180)" fill="#fff"/>
      </g>
      <g id="Group_58" data-name="Group 58" transform="translate(164.491 190.586)">
        <rect id="Rectangle_49" data-name="Rectangle 49" width="53.491" height="16.65" rx="2.791" transform="translate(53.491 16.65) rotate(180)" fill="#7dd0e2"/>
        <path id="Path_286" data-name="Path 286" d="M727.389,1125.448a4.2,4.2,0,1,0,4.2-4.2A4.2,4.2,0,0,0,727.389,1125.448Z" transform="translate(-686.719 -1117.123)" fill="#fff"/>
        <rect id="Rectangle_50" data-name="Rectangle 50" width="31.97" height="1.03" transform="translate(36.659 8.84) rotate(180)" fill="#fff"/>
        <rect id="Rectangle_51" data-name="Rectangle 51" width="16.873" height="1.03" transform="translate(36.659 12.114) rotate(180)" fill="#fff"/>
        <rect id="Rectangle_52" data-name="Rectangle 52" width="31.97" height="1.03" transform="translate(36.659 5.676) rotate(180)" fill="#fff"/>
      </g>
      <path id="Path_287" data-name="Path 287" d="M588.083,824.819c1.045-3.257,7.942-6.494,11.768-5.612,7.439,1.716,1.447-5.659,5.244-12.937a7.423,7.423,0,0,0-1.975,3.158c-1.743,5.552-3.337,5.829-8.05,7.128A9.163,9.163,0,0,0,588.083,824.819Z" transform="translate(-465.558 -798.404)" fill="#fff" opacity="0.11"/>
      <path id="Path_288" data-name="Path 288" d="M499.887,913.3a13.141,13.141,0,0,0,20.074,11.162,12.756,12.756,0,0,0-19.3-15.593A13.053,13.053,0,0,0,499.887,913.3Z" transform="translate(-429.68 -839.059)" fill="#fff" opacity="0.32"/>
      <g id="Group_59" data-name="Group 59" transform="translate(227.986 239.889)">
        <path id="Path_289" data-name="Path 289" d="M765.912,1212.685c0,.006,0,.014.006.02a1.324,1.324,0,0,0,1.3.98l.769-.012a1.331,1.331,0,0,1,1.183.691c.049.084.1.169.146.252a1.335,1.335,0,0,1,.008,1.373l-.394.655a1.324,1.324,0,0,0,.2,1.617l.017.016a1.324,1.324,0,0,0,1.616.2l.656-.394a1.335,1.335,0,0,1,1.373.009l.253.145a1.334,1.334,0,0,1,.69,1.183l-.012.77a1.323,1.323,0,0,0,.98,1.3l.02.007a1.326,1.326,0,0,0,1.5-.637l.373-.672a1.322,1.322,0,0,1,1.173-.68l.164,0,.164,0a1.32,1.32,0,0,1,1.173.68l.373.672a1.326,1.326,0,0,0,1.5.637l.02-.007a1.324,1.324,0,0,0,.98-1.3l-.012-.77a1.331,1.331,0,0,1,.69-1.183l.252-.145a1.335,1.335,0,0,1,1.373-.009l.655.394a1.325,1.325,0,0,0,1.617-.2l.016-.016a1.324,1.324,0,0,0,.2-1.617l-.394-.655a1.333,1.333,0,0,1,.009-1.373c.049-.083.1-.168.145-.252a1.332,1.332,0,0,1,1.183-.691l.77.012a1.324,1.324,0,0,0,1.3-.98l.006-.02a1.327,1.327,0,0,0-.637-1.5l-.671-.373a1.321,1.321,0,0,1-.681-1.173c0-.054,0-.109,0-.164s0-.11,0-.164a1.321,1.321,0,0,1,.681-1.173l.671-.373a1.326,1.326,0,0,0,.637-1.5l-.006-.02a1.324,1.324,0,0,0-1.3-.98l-.77.012a1.334,1.334,0,0,1-1.183-.69l-.145-.253a1.332,1.332,0,0,1-.009-1.373l.394-.656a1.324,1.324,0,0,0-.2-1.617l-.016-.017a1.325,1.325,0,0,0-1.617-.2l-.655.395a1.335,1.335,0,0,1-1.373-.009l-.252-.146a1.331,1.331,0,0,1-.69-1.183l.012-.77a1.323,1.323,0,0,0-.98-1.3l-.02-.007a1.326,1.326,0,0,0-1.5.637l-.373.672a1.32,1.32,0,0,1-1.173.681l-.164,0-.164,0a1.322,1.322,0,0,1-1.173-.681l-.373-.672a1.326,1.326,0,0,0-1.5-.637c-.006,0-.014,0-.02.007a1.323,1.323,0,0,0-.98,1.3l.012.77a1.334,1.334,0,0,1-.69,1.183l-.253.146a1.335,1.335,0,0,1-1.373.009l-.656-.395a1.324,1.324,0,0,0-1.616.2l-.017.017a1.324,1.324,0,0,0-.2,1.617l.394.656a1.333,1.333,0,0,1-.008,1.373l-.146.253a1.333,1.333,0,0,1-1.183.69l-.769-.012a1.324,1.324,0,0,0-1.3.98c0,.007,0,.014-.006.02a1.326,1.326,0,0,0,.636,1.5l.672.373a1.322,1.322,0,0,1,.68,1.173c0,.054,0,.109,0,.164s0,.109,0,.164a1.322,1.322,0,0,1-.68,1.173l-.672.373A1.327,1.327,0,0,0,765.912,1212.685Zm4.557-3.21a7.463,7.463,0,1,1,7.462,7.462A7.462,7.462,0,0,1,770.47,1209.475Z" transform="translate(-765.868 -1197.41)" fill="#f0ebf7"/>
      </g>
    </g>
  </g>
</svg>
