<svg xmlns="http://www.w3.org/2000/svg" width="72" height="71.774" viewBox="0 0 72 71.774">
  <g id="Group_192" data-name="Group 192" transform="translate(-974 -921.226)">
    <path id="Rectangle_16" data-name="Rectangle 16" d="M0,0H40a0,0,0,0,1,0,0V30A10,10,0,0,1,30,40H0a0,0,0,0,1,0,0V0A0,0,0,0,1,0,0Z" transform="translate(1006 953)" fill="#00bcd0"/>
    <g id="XMLID_1_" transform="translate(974 921.226)">
      <path id="Path_263" data-name="Path 263" d="M24.329,17a1.329,1.329,0,1,1,0,2.657H23V17Z" transform="translate(38.112 28.17)"/>
      <path id="Path_264" data-name="Path 264" d="M1,17H59.455v2.657H1Z" transform="translate(1.657 28.17)"/>
      <path id="Path_265" data-name="Path 265" d="M32.285,7.986V39.87a1.316,1.316,0,0,0-1.329-1.329H29.628V7.986A1.316,1.316,0,0,0,28.3,6.657H20.329a1.329,1.329,0,0,1,0-2.657H28.3A3.98,3.98,0,0,1,32.285,7.986Z" transform="translate(31.484 6.628)"/>
      <path id="Path_266" data-name="Path 266" d="M36.585,26.8H15.541a7.148,7.148,0,0,1-.213-1.329A1.332,1.332,0,0,0,14,24.143H36.585a1.332,1.332,0,0,0,1.329-1.329V18.829h1.329A1.316,1.316,0,0,0,40.571,17.5v5.314A3.98,3.98,0,0,1,36.585,26.8Z" transform="translate(23.199 28.999)"/>
      <path id="Path_267" data-name="Path 267" d="M15.657,2V3.329a1.329,1.329,0,0,1-2.657,0V2Z" transform="translate(21.542 3.314)"/>
      <path id="Path_268" data-name="Path 268" d="M13,1h2.657V3.657H13Z" transform="translate(21.542 1.657)"/>
      <path id="Path_269" data-name="Path 269" d="M13,1.329a1.329,1.329,0,0,1,2.657,0V2.657H13Z" transform="translate(21.542)"/>
      <path id="Path_270" data-name="Path 270" d="M19.3,5a1.329,1.329,0,0,1,0,2.657H11.329a1.329,1.329,0,1,1,0-2.657Z" transform="translate(16.571 8.285)"/>
      <path id="Path_271" data-name="Path 271" d="M19.3,8a1.329,1.329,0,0,1,0,2.657H11.329a1.329,1.329,0,1,1,0-2.657Z" transform="translate(16.571 13.256)"/>
      <path id="Path_272" data-name="Path 272" d="M11,1h5.314V3.657H11Z" transform="translate(18.228 1.657)"/>
      <path id="Path_273" data-name="Path 273" d="M10,1h2.657V3.657H10Z" transform="translate(16.571 1.657)"/>
      <path id="Path_274" data-name="Path 274" d="M12.657,1.329V2.657H10V1.329a1.329,1.329,0,1,1,2.657,0Z" transform="translate(16.571)"/>
      <path id="Path_275" data-name="Path 275" d="M12.657,3.329a1.329,1.329,0,1,1-2.657,0V2h2.657Z" transform="translate(16.571 3.314)"/>
      <path id="Path_276" data-name="Path 276" d="M10.925,20H21.606a1.332,1.332,0,0,1,1.329,1.329,7.148,7.148,0,0,0,.213,1.329H9.41A5.9,5.9,0,0,0,9.6,21.329,1.332,1.332,0,0,1,10.925,20Z" transform="translate(15.593 33.141)"/>
      <path id="Path_277" data-name="Path 277" d="M8.4,26.713A12.229,12.229,0,0,0,11.747,21h2.71a13.691,13.691,0,0,1-2.285,5.314H25.086A14,14,0,0,1,22.774,21h2.71a12.336,12.336,0,0,0,3.374,5.713,1.26,1.26,0,0,1,.292,1.435,1.3,1.3,0,0,1-1.222.824H9.329a1.3,1.3,0,0,1-1.222-.824A1.26,1.26,0,0,1,8.4,26.713Z" transform="translate(13.256 34.798)"/>
      <path id="Path_278" data-name="Path 278" d="M10.986,27.571h18.6a1.332,1.332,0,0,0,1.329-1.329V4.986a1.316,1.316,0,0,0-1.329-1.329H25.6V1h3.986a3.98,3.98,0,0,1,3.986,3.986V26.242a3.98,3.98,0,0,1-3.986,3.986h-18.6A3.98,3.98,0,0,1,7,26.242V4.986A3.98,3.98,0,0,1,10.986,1h3.986V3.657H10.986A1.316,1.316,0,0,0,9.657,4.986V26.242A1.332,1.332,0,0,0,10.986,27.571Z" transform="translate(11.599 1.657)"/>
      <path id="Path_279" data-name="Path 279" d="M2.657,17v2.657H1.329a1.329,1.329,0,1,1,0-2.657Z" transform="translate(0 28.17)"/>
      <path id="Path_280" data-name="Path 280" d="M3.986,6.657A1.316,1.316,0,0,0,2.657,7.986V38.542H1.329A1.316,1.316,0,0,0,0,39.87V7.986A3.98,3.98,0,0,1,3.986,4h7.971a1.329,1.329,0,1,1,0,2.657Z" transform="translate(0 6.628)"/>
      <path id="Path_281" data-name="Path 281" d="M3.986,24.143H26.517a1.332,1.332,0,0,0-1.329,1.329A5.9,5.9,0,0,1,25,26.8H3.986A3.98,3.98,0,0,1,0,22.814V17.5a1.316,1.316,0,0,0,1.329,1.329H2.657v3.986A1.332,1.332,0,0,0,3.986,24.143Z" transform="translate(0 28.999)"/>
    </g>
  </g>
</svg>
