<svg xmlns="http://www.w3.org/2000/svg" width="81" height="76.995" viewBox="0 0 81 76.995">
  <g id="Group_193" data-name="Group 193" transform="translate(-1449 -913)">
    <path id="Rectangle_17" data-name="Rectangle 17" d="M0,0H30A10,10,0,0,1,40,10V40a0,0,0,0,1,0,0H0a0,0,0,0,1,0,0V0A0,0,0,0,1,0,0Z" transform="translate(1490 913)" fill="#00bcd0"/>
    <g id="_087-presentation" data-name="087-presentation" transform="translate(1449 920.643)">
      <path id="Path_1099" data-name="Path 1099" d="M13.008,38.107A1.508,1.508,0,0,1,11.5,36.6V18.508a1.508,1.508,0,0,1,3.015,0V36.6A1.508,1.508,0,0,1,13.008,38.107Z" transform="translate(23.176 31.245)"/>
      <path id="Path_1100" data-name="Path 1100" d="M26.576,32.061a1.505,1.505,0,0,1-.835-.253L12.172,22.762a1.507,1.507,0,1,1,1.67-2.509L27.412,29.3a1.508,1.508,0,0,1-.835,2.762Z" transform="translate(23.176 37.291)"/>
      <path id="Path_1101" data-name="Path 1101" d="M8.509,32.062A1.508,1.508,0,0,1,7.671,29.3L21.24,20.254a1.507,1.507,0,1,1,1.67,2.509L9.342,31.809A1.474,1.474,0,0,1,8.509,32.062Z" transform="translate(14.105 37.29)"/>
      <path id="Path_1102" data-name="Path 1102" d="M66.337,13.061H6.031A6.031,6.031,0,1,1,6.031,1H66.337a6.031,6.031,0,1,1,0,12.061ZM6.031,4.015a3.015,3.015,0,1,0,0,6.031H66.337a3.015,3.015,0,1,0,0-6.031Z" transform="translate(0 -1)"/>
      <path id="Path_1103" data-name="Path 1103" d="M57.784,46.215H6.523A4.529,4.529,0,0,1,2,41.692V5.508A1.508,1.508,0,0,1,3.508,4H60.8a1.508,1.508,0,0,1,1.508,1.508V41.692A4.529,4.529,0,0,1,57.784,46.215ZM5.015,7.015V41.692A1.508,1.508,0,0,0,6.523,43.2H57.784a1.508,1.508,0,0,0,1.508-1.508V7.015Z" transform="translate(4.031 5.046)"/>
      <path id="Path_1104" data-name="Path 1104" d="M7.508,31.121a1.506,1.506,0,0,1-1.067-2.572L18.5,16.488a1.508,1.508,0,0,1,1.9-.19l7.9,5.265,11.2-14A1.508,1.508,0,0,1,41.853,9.45L29.791,24.527a1.506,1.506,0,0,1-2.014.314L19.759,19.5,8.573,30.684a1.512,1.512,0,0,1-1.064.437Z" transform="translate(12.091 11.093)"/>
    </g>
  </g>
</svg>
