<svg xmlns="http://www.w3.org/2000/svg" width="71.769" height="71.995" viewBox="0 0 71.769 71.995">
  <g id="Group_191" data-name="Group 191" transform="translate(-535 -913)">
    <path id="Rectangle_15" data-name="Rectangle 15" d="M10,0H40a0,0,0,0,1,0,0V40a0,0,0,0,1,0,0H0a0,0,0,0,1,0,0V10A10,10,0,0,1,10,0Z" transform="translate(535 913)" fill="#00bcd0"/>
    <g id="_044-secure" data-name="044-secure" transform="translate(543 921.226)">
      <path id="Path_596" data-name="Path 596" d="M27.766,55.8H6.643A6.648,6.648,0,0,1,0,49.156V6.643A6.648,6.648,0,0,1,6.643,0H38.527A6.648,6.648,0,0,1,45.17,6.643V20.831a1.329,1.329,0,0,1-2.657,0V6.643a3.99,3.99,0,0,0-3.986-3.986H6.643A3.99,3.99,0,0,0,2.657,6.643V49.156a3.99,3.99,0,0,0,3.986,3.986H27.766a1.329,1.329,0,0,1,0,2.657Z" transform="translate(0)"/>
      <path id="Path_597" data-name="Path 597" d="M30.9,10.657H4.329A1.329,1.329,0,0,1,4.329,8H30.9a1.329,1.329,0,1,1,0,2.657Z" transform="translate(4.971 13.256)"/>
      <path id="Path_598" data-name="Path 598" d="M20.271,14.657H4.329a1.329,1.329,0,0,1,0-2.657H20.271a1.329,1.329,0,1,1,0,2.657Z" transform="translate(4.971 19.885)"/>
      <path id="Path_599" data-name="Path 599" d="M17.614,6.657H4.329A1.329,1.329,0,0,1,4.329,4H17.614a1.329,1.329,0,0,1,0,2.657Z" transform="translate(4.971 6.628)"/>
      <path id="Path_600" data-name="Path 600" d="M27.942,47.2a1.333,1.333,0,0,1-.515-.1C26.794,46.827,12,40.434,12,27.367v-11.1A1.33,1.33,0,0,1,12.9,15l14.614-4.934a1.331,1.331,0,0,1,.85,0L42.981,15a1.327,1.327,0,0,1,.9,1.259v11.1c0,13.067-14.794,19.46-15.427,19.729a1.333,1.333,0,0,1-.515.1ZM14.657,17.22V27.367c0,10.054,10.774,15.831,13.285,17.04,2.508-1.212,13.285-7.012,13.285-17.04V17.22L27.942,12.732Z" transform="translate(19.885 16.57)"/>
      <path id="Path_601" data-name="Path 601" d="M21.642,26.457a.625.625,0,0,1-.072,0,1.319,1.319,0,0,1-.965-.5l-5.314-6.643a1.329,1.329,0,0,1,2.075-1.661l4.384,5.482L30,14.888a1.328,1.328,0,1,1,1.879,1.879l-9.3,9.3a1.323,1.323,0,0,1-.938.391Z" transform="translate(24.857 24.027)"/>
    </g>
  </g>
</svg>
