<svg xmlns="http://www.w3.org/2000/svg" width="316.857" height="324.419" viewBox="0 0 316.857 324.419">
  <g id="nature_tree_tree_plant_nature_ecology_park" data-name="nature tree, tree, plant, nature, ecology, park" transform="translate(0.75)">
      <path id="Path" d="M217.984,85.172A83.153,83.153,0,0,1,195.905,51.89a78.778,78.778,0,0,0-148.1,0A83.153,83.153,0,0,1,25.731,85.172,78.382,78.382,0,0,0,0,143.319c0,43.472,35.717,78.912,79.236,78.634A79.173,79.173,0,0,0,92.787,220.7a163.751,163.751,0,0,1,58.14,0,79.173,79.173,0,0,0,13.552,1.251c43.519.278,79.236-35.162,79.236-78.634A78.382,78.382,0,0,0,217.984,85.172Z" transform="translate(35.821)" fill="#c2f8fe"/>
      <path id="Path-2" data-name="Path" d="M0,77.383a163.751,163.751,0,0,1,58.14,0,79.17,79.17,0,0,0,13.552,1.251c43.519.278,79.236-35.162,79.236-78.634" transform="translate(128.609 143.319)" fill="none" stroke="#000" stroke-linecap="round" stroke-linejoin="round" stroke-width="1.5"/>
      <path id="Path-3" data-name="Path" d="M0,.5H315.357" transform="translate(0 323.169)" fill="none" stroke="#000" stroke-linecap="round" stroke-linejoin="round" stroke-width="1.5"/>
      <path id="Path-4" data-name="Path" d="M.5,0V157.534" transform="translate(157.179 166.135)" fill="none" stroke="#000" stroke-linecap="round" stroke-linejoin="round" stroke-width="1.5"/>
      <path id="Path-5" data-name="Path" d="M66.8,0,33.4,33.362,0,0" transform="translate(124.28 132.773)" fill="none" stroke="#000" stroke-linecap="round" stroke-linejoin="round" stroke-width="1.5"/>
  </g>
</svg>
