<svg xmlns="http://www.w3.org/2000/svg" width="155.44" height="101.381" viewBox="0 0 155.44 101.381">
  <g id="curved-arrow-with-broken-line" transform="translate(-9.498 47.498) rotate(-45)">
    <g id="Group_145" data-name="Group 145" transform="translate(0 2.604)">
      <path id="Path_1587" data-name="Path 1587" d="M36.143,2.833c-1.261.841-2.943,1.051-3.995,2.1a1.577,1.577,0,0,0,0,2.523c.841.42,1.892,0,2.733-.21a1.153,1.153,0,0,0,.841-1.261A5.668,5.668,0,0,0,37.4,4.515C38.246,3.674,37.195,1.992,36.143,2.833Z" transform="translate(-20.69 -2.604)"/>
      <path id="Path_1588" data-name="Path 1588" d="M9.253,39.119a28.7,28.7,0,0,0-3.574,3.574c-1.051,1.261-2.313,2.943-2.313,4.415,0,.841,1.051,1.261,1.472.631,1.051-1.051,1.261-2.733,2.1-3.995a17.758,17.758,0,0,1,3.154-3.784C10.514,39.329,9.673,38.7,9.253,39.119Z" transform="translate(-2.21 -26.485)"/>
      <path id="Path_1589" data-name="Path 1589" d="M2,83.109a22.917,22.917,0,0,1-.631-5.466.529.529,0,0,0-1.051,0c0,2.523-1.261,7.569,1.261,9.251.42.42,1.051-.21,1.051-.631A16.761,16.761,0,0,0,2,83.109Z" transform="translate(0 -51.553)"/>
      <path id="Path_1590" data-name="Path 1590" d="M21.167,116.4c-3.364.42-6.307,1.051-9.461-.631-.42-.21-.631.21-.21.421,3.154,2.313,6.728,3.364,10.3,1.472C22.639,117.241,21.8,116.19,21.167,116.4Z" transform="translate(-7.396 -76.855)"/>
      <path id="Path_1591" data-name="Path 1591" d="M66.614,85.73c-1.682.631-2.943,1.892-4.415,2.943a42.042,42.042,0,0,0-4.625,3.995c-.42.42.21,1.261.841.841a31.341,31.341,0,0,1,4.2-3.154c1.472-1.051,3.364-1.892,4.625-3.154C67.876,86.571,67.455,85.31,66.614,85.73Z" transform="translate(-37.705 -57.118)"/>
      <path id="Path_1592" data-name="Path 1592" d="M105.61,41.765c-3.784,1.472-7.359,5.046-10.092,7.989a.6.6,0,0,0,.841.841,53.827,53.827,0,0,1,5.466-4.2,33.513,33.513,0,0,0,4.415-3.154C106.871,42.4,106.24,41.554,105.61,41.765Z" transform="translate(-62.614 -28.29)"/>
      <path id="Path_1593" data-name="Path 1593" d="M158,19.144c-3.784-.21-7.569,1.261-10.933,2.523a.539.539,0,0,0,.21,1.051A47.415,47.415,0,0,1,158,21.037C159.054,20.826,159.054,19.144,158,19.144Z" transform="translate(-96.295 -13.449)"/>
      <path id="Path_1594" data-name="Path 1594" d="M210.057,32.024a30.447,30.447,0,0,0-3.784-3.574,1.041,1.041,0,0,0-1.472,1.472c1.052,1.051,2.1,2.313,3.154,3.574s2.1,3.154,3.574,4.2a.878.878,0,0,0,1.261-1.051C212.79,34.968,211.319,33.286,210.057,32.024Z" transform="translate(-134.263 -19.39)"/>
      <path id="Path_1595" data-name="Path 1595" d="M224.621,71.222c0-.841-1.471-.841-1.471,0a61.523,61.523,0,0,1-1.052,6.1c-.421,1.892-1.472,3.784-1.472,5.887a.986.986,0,0,0,1.893.421C224.411,80.052,224.831,75.006,224.621,71.222Z" transform="translate(-144.832 -47.235)"/>
      <path id="Path_1596" data-name="Path 1596" d="M195.09,133.494l-3.154,4.415c-.841,1.472-2.312,2.943-2.523,4.625,0,.841.841,1.051,1.472.841,1.472-.631,2.1-2.523,2.733-3.784,1.051-1.682,1.892-3.574,2.943-5.256A.848.848,0,0,0,195.09,133.494Z" transform="translate(-124.342 -88.272)"/>
      <path id="Path_1597" data-name="Path 1597" d="M161.553,178.645a26.777,26.777,0,0,0-4.625,5.256c-1.261,1.892-2.943,4.625-2.523,6.938a1.01,1.01,0,0,0,1.892.42c1.051-1.472,1.261-3.574,1.892-5.256a22.937,22.937,0,0,1,3.995-6.938C162.6,178.855,161.973,178.224,161.553,178.645Z" transform="translate(-101.317 -118.074)"/>
      <path id="Path_1598" data-name="Path 1598" d="M127.056,238.458a21.26,21.26,0,0,0-4.625,5.887c-1.261,2.313-2.733,5.257-2.313,7.779a.928.928,0,0,0,1.682.21c1.261-1.893,1.261-4.416,2.1-6.518a24.72,24.72,0,0,1,3.995-6.728C128.318,238.668,127.687,237.827,127.056,238.458Z" transform="translate(-78.804 -157.283)"/>
      <path id="Path_1599" data-name="Path 1599" d="M127.611,314.749a12.475,12.475,0,0,1-3.784-2.733,12.443,12.443,0,0,1-1.472-6.1.529.529,0,0,0-1.051,0c-.42,3.995.42,10.933,5.887,10.723C128.032,316.431,128.452,315.169,127.611,314.749Z" transform="translate(-79.57 -201.407)"/>
      <path id="Path_1600" data-name="Path 1600" d="M175.228,349.045c-2.312-.21-4.625.21-6.938.21a15.18,15.18,0,0,1-7.99-2.733c-.421-.21-.631.421-.421.631,4.415,3.364,10.513,6.307,15.979,3.995A1.143,1.143,0,0,0,175.228,349.045Z" transform="translate(-104.901 -228.344)"/>
      <path id="Path_1601" data-name="Path 1601" d="M237.55,312.149c-1.472.841-2.733,2.1-4.415,3.154a12.941,12.941,0,0,1-4.836,1.472c-1.052.21-1.052,1.682,0,1.682,3.784.21,8.62-1.051,10.723-4.625C239.863,312.78,238.6,311.729,237.55,312.149Z" transform="translate(-149.351 -205.745)"/>
      <path id="Path_1602" data-name="Path 1602" d="M267.069,275.026c-2.733,2.733-5.676,5.677-7.569,9.041-.631,1.052.841,1.682,1.472.841,2.313-2.943,6.1-5.046,7.78-8.62C268.961,275.237,267.91,274.186,267.069,275.026Z" transform="translate(-170.25 -181.237)"/>
      <path id="Path_1603" data-name="Path 1603" d="M310.15,269.394c-.631-1.261-2.313-2.1-3.574-2.733a12.335,12.335,0,0,0-4.836-.841.737.737,0,1,0,0,1.471,8.7,8.7,0,0,1,3.995,1.052c1.052.631,1.893,1.682,2.943,2.312A1.01,1.01,0,0,0,310.15,269.394Z" transform="translate(-197.562 -175.394)"/>
      <path id="Path_1604" data-name="Path 1604" d="M337.2,268.846c-2.943-4.836-4.836-10.3-7.359-15.348-1.261-2.313-4.625-.21-3.574,2.1,1.892,4.2,3.574,8.62,6.1,12.615-1.892.21-3.784.421-5.887.631-.841.21-2.313.21-2.943,1.052l-.21.21a.206.206,0,0,0-.21.21.806.806,0,0,0,.421,1.261h0c.21.21.421.21.841.21a17.971,17.971,0,0,0,3.364,0,50.69,50.69,0,0,1,7.989-.21C336.986,271.789,337.827,270.107,337.2,268.846Z" transform="translate(-211.994 -166.647)"/>
    </g>
  </g>
</svg>
