<svg id="_023-feedback" data-name="023-feedback" xmlns="http://www.w3.org/2000/svg" width="90.932" height="90.932" viewBox="0 0 90.932 90.932">
  <path id="Path_1483" data-name="Path 1483" d="M16.236,120.634a.7.7,0,0,1-.7-.7v-7.144H10.7a.7.7,0,0,1-.7-.7V76.258a.7.7,0,0,1,.7-.7H63.16a.7.7,0,0,1,.7.7v35.833a.7.7,0,0,1-.7.7H32.087l-15.539,7.773a.7.7,0,0,1-.313.07ZM11.4,111.392h4.837a.7.7,0,0,1,.7.7V118.8l14.674-7.337a.694.694,0,0,1,.313-.074H62.461V76.958H11.4Z" transform="translate(-10 -29.702)" fill="#00bcd0"/>
  <path id="Path_1484" data-name="Path 1484" d="M53.884,107.638H46.72a19.827,19.827,0,0,1-6.942-1.25l-1.9-.709a.7.7,0,0,1-.455-.655V91.506a.7.7,0,0,1,.7-.7h1.731a3.372,3.372,0,0,0,2.728-1.384A18.459,18.459,0,0,0,45.4,83.676a2.119,2.119,0,0,1,1.2-1.407,2.174,2.174,0,0,1,1.894.052,2.152,2.152,0,0,1,1.179,1.9,12.533,12.533,0,0,1-1.7,6.581h9.554a2.629,2.629,0,0,1,.918,5.091,2.629,2.629,0,0,1-1.09,3.765,2.629,2.629,0,0,1-1.24,3.948,2.629,2.629,0,0,1-2.225,4.027Zm-15.067-3.1,1.449.539a18.427,18.427,0,0,0,6.453,1.163h7.165a1.23,1.23,0,0,0,0-2.459.7.7,0,1,1,0-1.4h1.3a1.23,1.23,0,1,0,0-2.459.7.7,0,1,1,0-1.4h1.03a1.23,1.23,0,1,0,0-2.459.7.7,0,0,1,0-1.4h1.308a1.23,1.23,0,0,0,0-2.459H46.441a.7.7,0,0,1-.453-1.233c1.6-1.355,2.3-4.361,2.287-6.74a.76.76,0,0,0-.42-.667.789.789,0,0,0-.683-.018.72.72,0,0,0-.413.482,19.94,19.94,0,0,1-3.046,6.213,4.772,4.772,0,0,1-3.864,1.964H38.817Z" transform="translate(-18.24 -31.661)" fill="#00bcd0"/>
  <path id="Path_1485" data-name="Path 1485" d="M35.013,110.444H27.785a.7.7,0,0,1-.7-.7v-16a.7.7,0,0,1,.7-.7h7.228a.7.7,0,0,1,.7.7v16A.7.7,0,0,1,35.013,110.444Zm-6.528-1.4h5.829v-14.6H28.485Z" transform="translate(-15.135 -34.957)" fill="#00bcd0"/>
  <path id="Path_1486" data-name="Path 1486" d="M63.5,101.471H62.374a.7.7,0,0,1,0-1.4H63.5a.7.7,0,1,1,0,1.4Z" transform="translate(-25.529 -37.069)" fill="#00bcd0"/>
  <path id="Path_1487" data-name="Path 1487" d="M62.154,106.987H61.025a.7.7,0,1,1,0-1.4h1.129a.7.7,0,1,1,0,1.4Z" transform="translate(-25.124 -38.727)" fill="#00bcd0"/>
  <path id="Path_1488" data-name="Path 1488" d="M60.275,112.462H59.146a.7.7,0,0,1,0-1.4h1.129a.7.7,0,1,1,0,1.4Z" transform="translate(-24.559 -40.372)" fill="#00bcd0"/>
  <ellipse id="Ellipse_1" data-name="Ellipse 1" cx="1.067" cy="1.067" rx="1.067" ry="1.067" transform="translate(15.198 70.324)" fill="#00bcd0"/>
  <path id="Path_1489" data-name="Path 1489" d="M32.643,112.871a1.416,1.416,0,1,1,1.416-1.416A1.416,1.416,0,0,1,32.643,112.871Zm0-2.133a.717.717,0,1,0,.717.717A.717.717,0,0,0,32.643,110.737Z" transform="translate(-16.379 -40.064)" fill="#00bcd0"/>
  <path id="Path_1490" data-name="Path 1490" d="M80.335,120.108a.7.7,0,0,1-.7-.7v-6.319a.7.7,0,0,1,1.4,0v6.319a.7.7,0,0,1-.7.7Z" transform="translate(-30.927 -40.771)" fill="#00bcd0"/>
  <path id="Path_1491" data-name="Path 1491" d="M80.335,102.165a.7.7,0,0,1-.7-.7V86.27a.7.7,0,1,1,1.4,0v15.195A.7.7,0,0,1,80.335,102.165Z" transform="translate(-30.927 -32.711)" fill="#00bcd0"/>
  <path id="Path_1492" data-name="Path 1492" d="M110.624,55.075a.7.7,0,0,1-.313-.073L94.772,47.232H63.7a.7.7,0,0,1-.7-.7V10.7a.7.7,0,0,1,.7-.7H116.16a.7.7,0,0,1,.7.7V46.533a.7.7,0,0,1-.7.7h-4.837v7.143a.7.7,0,0,1-.7.7ZM64.4,45.833H94.937a.7.7,0,0,1,.313.073l14.674,7.337V46.533a.7.7,0,0,1,.7-.7h4.837V11.4H64.4Z" transform="translate(-25.928 -10)" fill="#00bcd0"/>
  <path id="Path_1493" data-name="Path 1493" d="M96.244,43.382a.7.7,0,0,1-.466-.178c-.48-.427-11.768-10.55-11.768-16.1a7.447,7.447,0,0,1,12.234-5.706A7.447,7.447,0,0,1,108.478,27.1c0,5.555-11.288,15.677-11.768,16.1a.7.7,0,0,1-.466.177ZM91.458,21.05a6.056,6.056,0,0,0-6.049,6.05c0,3.906,7.423,11.516,10.835,14.64C99.656,38.615,107.079,31,107.079,27.1A6.048,6.048,0,0,0,96.74,22.833a.72.72,0,0,1-.992,0A6.008,6.008,0,0,0,91.458,21.05Z" transform="translate(-32.242 -12.901)" fill="#00bcd0"/>
  <path id="Path_1494" data-name="Path 1494" d="M110.624,55.075a.7.7,0,0,1-.313-.073L94.772,47.232H63.7a.7.7,0,0,1-.7-.7V10.7a.7.7,0,0,1,.7-.7H116.16a.7.7,0,0,1,.7.7V46.533a.7.7,0,0,1-.7.7h-4.837v7.143a.7.7,0,0,1-.7.7ZM64.4,45.833H94.937a.7.7,0,0,1,.313.073l14.674,7.337V46.533a.7.7,0,0,1,.7-.7h4.837V11.4H64.4Z" transform="translate(-25.928 -10)" fill="#00bcd0"/>
  <path id="Path_1495" data-name="Path 1495" d="M133.336,53.93a.7.7,0,0,1-.7-.7v-7.76a.7.7,0,1,1,1.4,0v7.76A.7.7,0,0,1,133.336,53.93Z" transform="translate(-46.855 -20.45)" fill="#00bcd0"/>
  <path id="Path_1496" data-name="Path 1496" d="M133.336,33.875a.7.7,0,0,1-.7-.7V18.92a.7.7,0,1,1,1.4,0V33.175A.7.7,0,0,1,133.336,33.875Z" transform="translate(-46.855 -12.471)" fill="#00bcd0"/>
</svg>
