<svg xmlns="http://www.w3.org/2000/svg" width="89.016" height="89.595" viewBox="0 0 89.016 89.595">
  <g id="_022-exchange" data-name="022-exchange" transform="translate(-0.001)">
    <path id="Path_1466" data-name="Path 1466" d="M29.291,48.159A19.291,19.291,0,1,1,48.582,28.868,19.291,19.291,0,0,1,29.291,48.159Zm0-37.213A17.922,17.922,0,1,0,47.213,28.868,17.922,17.922,0,0,0,29.291,10.946Z" transform="translate(-9.999 -9.577)" fill="#00bcd0"/>
    <path id="Path_1467" data-name="Path 1467" d="M33.054,48.159c-6.131,0-11.119-8.654-11.119-19.291S26.923,9.577,33.054,9.577s11.119,8.654,11.119,19.291S39.184,48.159,33.054,48.159Zm0-37.213c-5.376,0-9.749,8.04-9.749,17.922S27.678,46.79,33.054,46.79,42.8,38.75,42.8,28.868,38.43,10.946,33.054,10.946Z" transform="translate(-13.762 -9.577)" fill="#00bcd0"/>
    <path id="Path_1468" data-name="Path 1468" d="M32.039,23.083a19.2,19.2,0,0,1-13.083-5.116.685.685,0,1,1,.93-1,17.92,17.92,0,0,0,24.306,0,.685.685,0,1,1,.931,1A19.2,19.2,0,0,1,32.039,23.083Z" transform="translate(-12.747 -11.842)" fill="#00bcd0"/>
    <path id="Path_1469" data-name="Path 1469" d="M44.657,55.812a.685.685,0,0,1-.466-.183,17.918,17.918,0,0,0-24.308,0,.685.685,0,1,1-.93-1,19.286,19.286,0,0,1,26.167,0,.685.685,0,0,1-.465,1.187Z" transform="translate(-12.748 -22.166)" fill="#00bcd0"/>
    <path id="Path_1470" data-name="Path 1470" d="M37.858,48.159a.685.685,0,0,1-.685-.685V10.262a.685.685,0,1,1,1.369,0V47.474A.685.685,0,0,1,37.858,48.159Z" transform="translate(-18.566 -9.577)" fill="#00bcd0"/>
    <path id="Path_1471" data-name="Path 1471" d="M47.9,38.119H10.685a.685.685,0,1,1,0-1.369H47.9a.685.685,0,1,1,0,1.369Z" transform="translate(-9.999 -18.144)" fill="#00bcd0"/>
    <path id="Path_1472" data-name="Path 1472" d="M110.226,106.965H60.51a3.588,3.588,0,0,1-3.585-3.585V67.2a3.588,3.588,0,0,1,3.585-3.585h49.716A3.588,3.588,0,0,1,113.81,67.2V103.38A3.588,3.588,0,0,1,110.226,106.965ZM60.51,64.981A2.217,2.217,0,0,0,58.294,67.2V103.38A2.217,2.217,0,0,0,60.51,105.6h49.716a2.217,2.217,0,0,0,2.214-2.215V67.2a2.217,2.217,0,0,0-2.214-2.215Z" transform="translate(-24.793 -26.612)" fill="#00bcd0"/>
    <path id="Path_1473" data-name="Path 1473" d="M113.125,115.729H57.61a.685.685,0,0,1,0-1.369h55.515a.685.685,0,0,1,0,1.369Z" transform="translate(-24.793 -42.611)" fill="#00bcd0"/>
    <path id="Path_1474" data-name="Path 1474" d="M101.982,132.344H87.768a.685.685,0,0,1-.685-.685v-6.05a.685.685,0,0,1,.685-.685h14.214a.685.685,0,0,1,.685.685v6.05A.685.685,0,0,1,101.982,132.344Zm-13.53-1.37H101.3v-4.68H88.453Z" transform="translate(-34.301 -45.942)" fill="#00bcd0"/>
    <path id="Path_1475" data-name="Path 1475" d="M103.91,138.322H82.546a.685.685,0,0,1-.685-.685c0-2.283,1.356-3.878,3.3-3.878h16.132c1.943,0,3.3,1.595,3.3,3.878a.685.685,0,0,1-.682.685Zm-20.62-1.369h19.879a1.926,1.926,0,0,0-1.873-1.823H85.163A1.926,1.926,0,0,0,83.289,136.953Z" transform="translate(-32.654 -48.727)" fill="#00bcd0"/>
    <path id="Path_1476" data-name="Path 1476" d="M97.624,121.655a1.821,1.821,0,1,1,1.82-1.82A1.821,1.821,0,0,1,97.624,121.655Zm0-2.271a.451.451,0,1,0,.451.451A.451.451,0,0,0,97.624,119.384Z" transform="translate(-37.05 -43.763)" fill="#00bcd0"/>
    <path id="Path_1477" data-name="Path 1477" d="M62.61,106.68a.685.685,0,0,1-.685-.685v-3.953a.685.685,0,1,1,1.369,0V106A.685.685,0,0,1,62.61,106.68Z" transform="translate(-26.369 -38.512)" fill="#00bcd0"/>
    <path id="Path_1478" data-name="Path 1478" d="M62.61,89.471a.685.685,0,0,1-.685-.685V70.025a.685.685,0,1,1,1.369,0V88.787A.685.685,0,0,1,62.61,89.471Z" transform="translate(-26.369 -28.418)" fill="#00bcd0"/>
    <path id="Path_1479" data-name="Path 1479" d="M41.744,105.746H25.356a.685.685,0,0,1-.685-.685v-20.9a.685.685,0,1,1,1.369,0v20.216h15.7a.685.685,0,1,1,0,1.369Z" transform="translate(-14.625 -32.875)" fill="#00bcd0"/>
    <path id="Path_1480" data-name="Path 1480" d="M44.838,117.07a.685.685,0,0,1-.484-1.169l2.675-2.671-2.675-2.674a.685.685,0,1,1,.968-.968l3.159,3.158a.685.685,0,0,1,0,.968l-3.159,3.158A.68.68,0,0,1,44.838,117.07Z" transform="translate(-20.766 -41.044)" fill="#00bcd0"/>
    <path id="Path_1481" data-name="Path 1481" d="M106.209,49.057a.685.685,0,0,1-.685-.685V29.528H87.085a.685.685,0,0,1,0-1.369h19.127a.685.685,0,0,1,.685.685V48.372a.685.685,0,0,1-.688.685Z" transform="translate(-34.085 -15.435)" fill="#00bcd0"/>
    <path id="Path_1482" data-name="Path 1482" d="M90.078,31.233a.685.685,0,0,1-.484-.2l-3.159-3.159a.685.685,0,0,1,0-.968l3.159-3.158a.685.685,0,1,1,.968.968l-2.675,2.67,2.675,2.674a.685.685,0,0,1-.484,1.169Z" transform="translate(-34.033 -13.981)" fill="#00bcd0"/>
  </g>
</svg>
