<svg xmlns="http://www.w3.org/2000/svg" width="99.377" height="27.864" viewBox="0 0 99.377 27.864">
  <g id="up-broken-line-arrow" transform="translate(99.377 -122.045) rotate(90)">
    <g id="Group_147" data-name="Group 147" transform="translate(122.045 0)">
      <path id="Path_1622" data-name="Path 1622" d="M163.257,301.834a1.173,1.173,0,0,0-1.972,0c-.9,1.076-.538,2.331-.538,3.766a27.363,27.363,0,0,1-.538,5.379c-.359,1.434,1.793,1.972,2.331.717a19.632,19.632,0,0,0,1.076-4.662C163.8,305.241,164.334,303.268,163.257,301.834Z" transform="translate(-148.999 -213.022)"/>
      <path id="Path_1623" data-name="Path 1623" d="M162.5,261.418a18.786,18.786,0,0,1-.718-3.048,4.877,4.877,0,0,0,0-1.614,4.694,4.694,0,0,0-.538-1.434,1.173,1.173,0,0,0-1.972,0,4.5,4.5,0,0,0-.179,3.407,14.272,14.272,0,0,0,1.255,3.586A1.187,1.187,0,0,0,162.5,261.418Z" transform="translate(-148.06 -180.137)"/>
      <path id="Path_1624" data-name="Path 1624" d="M161.365,201.178a1.194,1.194,0,0,0-1.793,0c-.717.9-.538,1.614-.538,2.69s.179,1.972.179,3.048a1.076,1.076,0,1,0,2.152,0c0-.9.179-1.793.179-2.69C161.9,203.151,162.262,202.254,161.365,201.178Z" transform="translate(-148.183 -141.952)"/>
      <path id="Path_1625" data-name="Path 1625" d="M159.174,158.386c-.717-1.972-.359-3.945-.9-5.917a1.245,1.245,0,0,0-2.331,0A8.076,8.076,0,0,0,157.2,159.1C157.739,160.179,159.533,159.462,159.174,158.386Z" transform="translate(-145.812 -107.228)"/>
      <path id="Path_1626" data-name="Path 1626" d="M158.035,95.627a1.091,1.091,0,0,0-1.434,0c-1.076,1.076-.717,2.51-.717,3.945a29.053,29.053,0,0,0,.179,3.945,1.121,1.121,0,0,0,2.152,0,24.03,24.03,0,0,0,.179-3.586C158.752,98.5,159.111,96.882,158.035,95.627Z" transform="translate(-145.929 -67.42)"/>
      <path id="Path_1627" data-name="Path 1627" d="M153.559,43.644a1.49,1.49,0,0,0-1.434,1.972,41.245,41.245,0,0,1,.538,4.662,1.059,1.059,0,0,0,1.972,0c.179-1.614,0-3.227.538-4.662A1.694,1.694,0,0,0,153.559,43.644Z" transform="translate(-143.246 -30.857)"/>
      <path id="Path_1628" data-name="Path 1628" d="M149.392,12.07C145.268,7.587,140.786,3.1,135.227.236a1.659,1.659,0,0,0-2.152.359C129.31,5.077,126.441,10.1,122.5,14.4c-1.434,1.434.9,3.586,2.152,2.152,3.586-3.945,6.276-8.607,9.862-12.551,4.662,2.869,7.89,6.993,12.014,10.758A1.967,1.967,0,0,0,149.392,12.07Z" transform="translate(-122.045 0)"/>
    </g>
  </g>
</svg>
