<svg xmlns="http://www.w3.org/2000/svg" width="243.399" height="347.725" viewBox="0 0 243.399 347.725"><g transform="translate(-813.369 -272.601)"><path d="M51.446,2.865s76.536,34.219,120.528,99.224h13.789L158.842,132.95,73.484,75.824S20.955,67.907,5.2,56.126,14.546,0,14.546,0" transform="translate(871.005 394.404)" fill="#e2e2e2"/><path d="M64.958,3.511,13.7,0,4.38,3.8,0,227.643H47.609l-5.034-9.021Z" transform="translate(846.729 392.683)" fill="#edeeef"/><path d="M0,10.1v8.091a13.591,13.591,0,0,0,10.349,13.2l12.872,3.163V2.923L12.516.292A10.1,10.1,0,0,0,0,10.1Z" transform="translate(873.055 278.439)" fill="#edeeef"/><path d="M23.042,17.092,10.17,13.929A14.4,14.4,0,0,1,2.305,8.851,14.409,14.409,0,0,1-.75,0H.75a12.814,12.814,0,0,0,9.778,12.472L23.4,15.636Z" transform="translate(873.055 296.634)"/><circle cx="0.621" cy="0.621" r="0.621" transform="translate(885.551 293.786)"/><circle cx="0.621" cy="0.621" r="0.621" transform="translate(876.015 293.786)"/><path d="M1.225,9.568h-1.5V0h1.5Z" transform="translate(878.958 288.543)"/><path transform="translate(873.419 286.501)"/><path d="M0,1.628V4.951A3.245,3.245,0,0,0,2.295,4a3.245,3.245,0,0,0,.951-2.3q0-.149-.013-.3A1.623,1.623,0,0,0,0,1.628Z" transform="translate(894.746 291.818)" fill="#edeeef"/><path d="M0,3.995v-1.5a2.478,2.478,0,0,0,1.764-.731A2.479,2.479,0,0,0,2.495,0h1.5a3.969,3.969,0,0,1-1.17,2.824A3.969,3.969,0,0,1,0,3.995Z" transform="translate(894.746 293.523)"/><path d="M1.519,1.378A2.89,2.89,0,0,1-.53.53.75.75,0,0,1-.53-.53.75.75,0,0,1,.53-.53a1.4,1.4,0,0,0,1.978,0,.75.75,0,0,1,1.061,0,.75.75,0,0,1,0,1.061A2.89,2.89,0,0,1,1.519,1.378Z" transform="translate(882.054 299.229)" fill="#00bcd0"/><path d="M2.1,1.293a.752.752,0,0,1-.179-.022L-.179.756a.75.75,0,0,1-.55-.907A.75.75,0,0,1,.179-.7l2.1.515A.75.75,0,0,1,2.1,1.293Z" transform="translate(879.433 298.091)"/><path d="M71.833,31.257V81.964L0,99.619V43.145A43.5,43.5,0,0,1,33.119.9h0A31.256,31.256,0,0,1,71.833,31.257Z" transform="translate(850.618 315.305)" fill="#00bcd0"/><path d="M6.483,68.747A9.587,9.587,0,0,1,4.8,68.592a5.789,5.789,0,0,1-4.037-2.7c-1.285-2.04-1.755-5.2-1.4-9.383a61.108,61.108,0,0,1,2.109-10.84A50.314,50.314,0,0,0,3.251,29.5a51.086,51.086,0,0,1,.826-13.135c1.107-5.286,3.2-9.421,6.217-12.29C14.318.246,19.966-1.314,27.083-.567a21.453,21.453,0,0,1,9.357,3.16l.008.005a16.827,16.827,0,0,1,4.164,3.71,12.456,12.456,0,0,1,2.563,5.814c.842,5.362-1.707,11.706-7.576,18.854l-1.159-.952c5.586-6.8,8.026-12.748,7.254-17.67-.532-3.391-2.569-6.248-6.053-8.492A19.946,19.946,0,0,0,26.94.926h-.009c-6.662-.7-11.911.724-15.6,4.234-6.2,5.9-7,16.446-6.579,24.258A51.812,51.812,0,0,1,2.923,46.067,59.632,59.632,0,0,0,.863,56.633c-.33,3.853.064,6.7,1.171,8.455a4.29,4.29,0,0,0,3.031,2.027,5.807,5.807,0,0,0,5-1.116c1.461-1.209,2.546-3.292,3.225-6.193a33.164,33.164,0,0,0,.763-6.885,4.325,4.325,0,0,1,2.054-3.68l.008-.005c2.5-1.511,3.933-4.127,4.254-7.776a18.816,18.816,0,0,0-.3-5.22l1.461-.338a20,20,0,0,1,.334,5.647,13.819,13.819,0,0,1-1.241,4.821,9.616,9.616,0,0,1-3.731,4.148,2.834,2.834,0,0,0-1.342,2.411v.007c-.049,3.951-.7,11.053-4.532,14.22A6.913,6.913,0,0,1,6.483,68.747Z" transform="translate(861.258 273.35)"/><path d="M21.5,8.372c-2.593-.916-4.023-3.9-4.731-6.014C15.2,5.065,12.112,6.716,7.689,7.176a29.7,29.7,0,0,1-7.832-.31L.143,5.393a28.677,28.677,0,0,0,7.421.288c4.874-.514,7.777-2.487,8.628-5.864l1.466.052c.011.059,1.1,5.943,4.345,7.089Z" transform="translate(873.055 285.317)"/><path d="M.746,215.19l-1.492-.155L21.637-.078l1.492.155Z" transform="translate(889.303 396.194)"/><path d="M17.048,96.353a20.554,20.554,0,0,1-6.561-.988C5.806,93.793,2.51,90.381.693,85.222a28.873,28.873,0,0,1-1.214-12.9A54.7,54.7,0,0,1,3.235,58.318C6.6,49.923,12.092,40.529,19.563,30.4A261.383,261.383,0,0,1,37.9,8.4C43,2.906,46.586-.51,46.622-.543L47.656.543c-.035.034-3.594,3.427-8.667,8.893A259.805,259.805,0,0,0,20.759,31.3C13.367,41.33,7.938,50.61,4.624,58.884.521,69.126-.325,77.82,2.107,84.724c3.968,11.26,14.8,11.11,23.181,9,9.737-2.448,21.667-8.9,31.913-17.268A69.136,69.136,0,0,0,68.321,65.376a23.545,23.545,0,0,0,2.921-4.768,6.829,6.829,0,0,0,.7-3.51l-2.224-6.891.218-.307c.014-.02,1.409-1.986,2.784-4.129A34.712,34.712,0,0,0,75.1,41.627c-5.36,2.784-35.472,15.02-36.794,15.557l-2.657,1.079L48.97,41.575l1.172.936-9.734,12.2c7.986-3.261,31.361-12.85,34.4-14.627a2.792,2.792,0,0,1,.805-.343,1.021,1.021,0,0,1,1.017.284c.522.57.232,1.474-.4,2.747-.436.873-1.1,2.015-1.975,3.4-1.156,1.824-2.385,3.6-2.872,4.3l2.031,6.293.009.059c.372,2.4-.941,5.583-3.9,9.473A70.627,70.627,0,0,1,58.15,77.619c-10.408,8.5-22.556,15.062-32.5,17.561A35.526,35.526,0,0,1,17.048,96.353Z" transform="translate(814.119 329.951)"/><path d="M0,20.373v22.18C14.107,33.5,29,0,29,0A101.458,101.458,0,0,1,0,20.373Z" transform="translate(850.203 400.208)"/><path d="M28.24,84.225h-.263l.021-1.5a101.265,101.265,0,0,0,16.681-1.486c8.253-1.439,19.422-4.6,25.755-11.483A19.284,19.284,0,0,0,75.424,54.2C73.929,38.8,63.08,25.288,54.241,16.661A119.074,119.074,0,0,0,40.5,5.156,50.675,50.675,0,0,0,33.607.806a9.417,9.417,0,0,0,.543,3.426c.442,1.612.985,3.086.991,3.1l.315.851-.895.149c-.631.105-1.711.373-1.855.985a2.33,2.33,0,0,0,.5,1.552,12.281,12.281,0,0,0,1.769,2.1A28.49,28.49,0,0,0,37.8,15.387l.194.141L49.139,49.038l-1.608-.791c-9.086-4.467-21.507-6.112-30.326-6.706A153.641,153.641,0,0,0,.044,41.323l-.087-1.5a155.346,155.346,0,0,1,17.349.219,122.532,122.532,0,0,1,15.715,2.009A66.017,66.017,0,0,1,46.6,46.16L36.719,16.453a29.892,29.892,0,0,1-2.8-2.413c-2.111-2.083-2.985-3.74-2.672-5.067a2.791,2.791,0,0,1,2.2-1.926c-.213-.626-.512-1.55-.777-2.529-.907-3.355-.582-4.332-.2-4.808a1.262,1.262,0,0,1,1.192-.448c.917.131,4.435,2.355,7.436,4.483A120.36,120.36,0,0,1,55.06,15.365,90.409,90.409,0,0,1,69.208,32.637c4.436,7.215,7.03,14.421,7.709,21.417a20.727,20.727,0,0,1-5.381,16.719,33.707,33.707,0,0,1-12.281,8,70.425,70.425,0,0,1-14.346,3.946A104.207,104.207,0,0,1,28.24,84.225Z" transform="translate(894.464 275.824)"/></g></svg>