<svg id="update_chart_update_increase_up_chart_graph_woman" data-name="update chart, update, increase, up, chart, graph, woman" xmlns="http://www.w3.org/2000/svg" width="456.106" height="374.171" viewBox="0 0 456.106 374.171">
  <g id="Group" transform="translate(0 0)">
    <path id="Path" d="M259.569,162.743H232.184V151.156H204.2V137.463l-20.837-18.434H151.812V65.835H110.734V0L58.939,45.821v87.428H31.553v38.728H20.241V161.163H0V182.79H273.262v-7.934l-13.693-12.114Z" transform="translate(13.098 190.63)" fill="#f4f4f4"/>
    <rect id="Rectangle" width="3.741" height="3.31" transform="translate(126.998 269.791)" fill="#fff"/>
    <rect id="Rectangle-2" data-name="Rectangle" width="3.741" height="3.31" transform="translate(136.102 269.791)" fill="#fff"/>
    <rect id="Rectangle-3" data-name="Rectangle" width="3.741" height="3.31" transform="translate(145.207 269.791)" fill="#fff"/>
    <rect id="Rectangle-4" data-name="Rectangle" width="3.741" height="3.31" transform="translate(126.998 278.715)" fill="#fff"/>
    <rect id="Rectangle-5" data-name="Rectangle" width="3.741" height="3.31" transform="translate(136.102 278.715)" fill="#fff"/>
    <rect id="Rectangle-6" data-name="Rectangle" width="3.741" height="3.31" transform="translate(145.207 278.715)" fill="#fff"/>
    <rect id="Rectangle-7" data-name="Rectangle" width="3.741" height="3.31" transform="translate(126.998 287.64)" fill="#fff"/>
    <rect id="Rectangle-8" data-name="Rectangle" width="3.741" height="3.31" transform="translate(136.102 287.64)" fill="#fff"/>
    <rect id="Rectangle-9" data-name="Rectangle" width="3.741" height="3.31" transform="translate(145.207 287.64)" fill="#fff"/>
    <rect id="Rectangle-10" data-name="Rectangle" width="3.741" height="3.31" transform="translate(126.998 296.564)" fill="#fff"/>
    <rect id="Rectangle-11" data-name="Rectangle" width="3.741" height="3.31" transform="translate(136.102 296.564)" fill="#fff"/>
    <rect id="Rectangle-12" data-name="Rectangle" width="3.741" height="3.31" transform="translate(145.207 296.564)" fill="#fff"/>
    <rect id="Rectangle-13" data-name="Rectangle" width="3.741" height="3.31" transform="translate(126.998 305.488)" fill="#fff"/>
    <rect id="Rectangle-14" data-name="Rectangle" width="3.741" height="3.31" transform="translate(136.102 305.488)" fill="#fff"/>
    <rect id="Rectangle-15" data-name="Rectangle" width="3.741" height="3.31" transform="translate(145.207 305.488)" fill="#fff"/>
    <rect id="Rectangle-16" data-name="Rectangle" width="3.741" height="3.31" transform="translate(126.998 314.412)" fill="#fff"/>
    <rect id="Rectangle-17" data-name="Rectangle" width="3.741" height="3.31" transform="translate(136.102 314.412)" fill="#fff"/>
    <rect id="Rectangle-18" data-name="Rectangle" width="3.741" height="3.31" transform="translate(145.207 314.412)" fill="#fff"/>
    <rect id="Rectangle-19" data-name="Rectangle" width="3.741" height="3.31" transform="translate(126.998 323.337)" fill="#fff"/>
    <rect id="Rectangle-20" data-name="Rectangle" width="3.741" height="3.31" transform="translate(136.102 323.337)" fill="#fff"/>
    <rect id="Rectangle-21" data-name="Rectangle" width="3.741" height="3.31" transform="translate(145.207 323.337)" fill="#fff"/>
    <rect id="Rectangle-22" data-name="Rectangle" width="3.741" height="3.31" transform="translate(126.998 332.261)" fill="#fff"/>
    <rect id="Rectangle-23" data-name="Rectangle" width="3.741" height="3.31" transform="translate(136.102 332.261)" fill="#fff"/>
    <rect id="Rectangle-24" data-name="Rectangle" width="3.741" height="3.31" transform="translate(145.207 332.261)" fill="#fff"/>
    <rect id="Rectangle-25" data-name="Rectangle" width="3.741" height="3.31" transform="translate(126.998 341.185)" fill="#fff"/>
    <rect id="Rectangle-26" data-name="Rectangle" width="3.741" height="3.31" transform="translate(136.102 341.185)" fill="#fff"/>
    <rect id="Rectangle-27" data-name="Rectangle" width="3.741" height="3.31" transform="translate(145.207 341.185)" fill="#fff"/>
    <path id="Path-2" data-name="Path" d="M0,.475H299.458" transform="translate(0 372.946)" fill="none" stroke="#000" stroke-width="1.5"/>
    <path id="Path-3" data-name="Path" d="M51.446,2.865s76.536,34.219,120.528,99.224h13.789l-26.921,30.861L73.484,75.824S20.955,67.907,5.2,56.126,14.546,0,14.546,0" transform="translate(174.005 146.404)" fill="#e2e2e2"/>
    <path id="Path-4" data-name="Path" d="M64.958,3.511,13.7,0,4.38,3.8,0,227.643H47.609l-5.034-9.021L64.958,3.511Z" transform="translate(149.729 144.683)" fill="#edeeef"/>
    <path id="Path-5" data-name="Path" d="M0,10.1v8.091a13.59,13.59,0,0,0,10.346,13.2l12.875,3.164V2.923L12.516.292A10.1,10.1,0,0,0,0,10.1Z" transform="translate(176.055 30.439)" fill="#edeeef"/>
    <path id="Path-6" data-name="Path" d="M0,0A13.59,13.59,0,0,0,10.346,13.2l12.875,3.164" transform="translate(176.055 48.634)" fill="none" stroke="#000" stroke-width="1.5"/>
    <circle id="Oval" cx="0.621" cy="0.621" r="0.621" transform="translate(188.551 45.786)"/>
    <circle id="Oval-2" data-name="Oval" cx="0.621" cy="0.621" r="0.621" transform="translate(179.015 45.786)"/>
    <path id="Path-7" data-name="Path" d="M.475,9.568V0" transform="translate(181.958 40.543)" fill="none" stroke="#000" stroke-width="1.5"/>
    <path id="Path-8" data-name="Path" d="M.475.475h0" transform="translate(176.419 38.501)" fill="none" stroke="#000" stroke-width="1.5"/>
    <path id="Path-9" data-name="Path" d="M0,1.628V4.951A3.245,3.245,0,0,0,2.295,4a3.245,3.245,0,0,0,.951-2.295q0-.149-.013-.3A1.623,1.623,0,0,0,0,1.628Z" transform="translate(197.746 43.818)" fill="#edeeef"/>
    <path id="Path-10" data-name="Path" d="M0,3.245a3.245,3.245,0,0,0,2.295-.951A3.245,3.245,0,0,0,3.245,0" transform="translate(197.746 45.523)" fill="none" stroke="#000" stroke-width="1.5"/>
    <path id="Path-11" data-name="Path" d="M0,0A2.149,2.149,0,0,0,3.039,0" transform="translate(185.054 51.229)" fill="none" stroke="#00bcd0" stroke-linecap="round" stroke-linejoin="round" stroke-width="1.5"/>
    <path id="Path-12" data-name="Path" d="M0,.028,2.1.543" transform="translate(182.433 50.091)" fill="none" stroke="#000" stroke-linecap="round" stroke-width="1.5"/>
    <path id="Path-13" data-name="Path" d="M71.833,31.257V81.964L0,99.619V43.145A43.5,43.5,0,0,1,33.117.9h0A31.256,31.256,0,0,1,71.833,31.257Z" transform="translate(153.618 67.305)" fill="#00bcd0"/>
    <path id="Path-14" data-name="Path" d="M20.8,36.072s2.279,9.835-4.3,13.807a3.6,3.6,0,0,0-1.7,3.048c-.062,4.978-1.139,16.482-9.867,14.927C-2.2,66.584-.164,54.4,2.2,45.866A51.159,51.159,0,0,0,4,29.457C3.37,17.818,5.39-2.093,27.009.179a20.6,20.6,0,0,1,9.033,3.049c5.592,3.6,11.836,11.609-1.023,27.271" transform="translate(164.258 25.35)" fill="none" stroke="#000" stroke-width="1.5"/>
    <path id="Path-15" data-name="Path" d="M0,6.129S14.657,8.974,16.919,0c0,0,1.131,6.357,4.834,7.665" transform="translate(176.055 37.317)" fill="none" stroke="#000" stroke-width="1.5"/>
    <path id="Path-16" data-name="Path" d="M0,215.112,22.383,0" transform="translate(192.303 148.194)" fill="none" stroke="#000" stroke-width="1.5"/>
    <path id="Path-17" data-name="Path" d="M47.139,0S-9.541,53.923,1.4,84.973,74.779,70.5,72.674,56.927l-2.128-6.592s8.378-11.794,4.638-9.605S38.029,56.489,38.029,56.489L49.556,42.043" transform="translate(117.119 81.951)" fill="none" stroke="#000" stroke-width="1.5"/>
    <path id="Path-18" data-name="Path" d="M0,20.373v22.18C14.107,33.5,29,0,29,0A101.458,101.458,0,0,1,0,20.373Z" transform="translate(153.203 152.208)"/>
    <path id="Path-19" data-name="Path" d="M0,40.574s30.06-1.751,47.862,7L37.356,15.993s-9.923-7.23-2.918-8.4c0,0-2.918-7.88-.876-7.588S73.252,24.067,76.17,54.126,27.987,83.474,27.987,83.474" transform="translate(197.464 27.824)" fill="none" stroke="#000" stroke-width="1.5"/>
    <path id="Path-20" data-name="Path" d="M69.576,0a69.576,69.576,0,1,0,69.576,69.576H69.576Z" transform="translate(295.912 21.042)" fill="#edeeef"/>
    <path id="Path-21" data-name="Path" d="M0,0A69.576,69.576,0,0,0,69.576,69.576,69.576,69.576,0,0,0,139.152,0" transform="translate(295.912 90.618)" fill="none" stroke="#000" stroke-width="1.5"/>
    <path id="Path-22" data-name="Path" d="M69.576,0H0L56,41.3A69.26,69.26,0,0,0,69.576,0Z" transform="translate(365.488 90.618)"/>
    <path id="Path-23" data-name="Path" d="M0,0V90.618H90.618A90.618,90.618,0,0,0,64.077,26.541,90.618,90.618,0,0,0,0,0Z" transform="translate(365.488 0)" fill="#00bcd0"/>
    <path id="Path-24" data-name="Path" d="M0,.475H90.618" transform="translate(365.488 90.143)" fill="none" stroke="#000" stroke-width="1.5"/>
    <rect id="Rectangle-28" data-name="Rectangle" width="32.358" height="32.358" transform="translate(412.25 229.549) rotate(180)" fill="#00bcd0"/>
    <path id="Path-25" data-name="Path" d="M50.1,25.051,25.051,0,0,25.051Z" transform="translate(371.02 174.579)" fill="#00bcd0"/>
    <rect id="Rectangle-29" data-name="Rectangle" width="32.358" height="32.358" transform="translate(412.25 309.51) rotate(180)" fill="#edeeef"/>
    <path id="Path-26" data-name="Path" d="M50.1,25.051,25.051,0,0,25.051Z" transform="translate(371.02 254.54)" fill="#edeeef"/>
    <path id="Path-27" data-name="Path" d="M23.018,0A22.977,22.977,0,0,0,0,22.936l45.955.082A22.977,22.977,0,0,0,23.018,0Z" transform="translate(32.234 46.865)" fill="#edeeef"/>
    <path id="Path-28" data-name="Path" d="M13.123,0A13.1,13.1,0,0,0,0,13.077l26.2.047A13.1,13.1,0,0,0,13.123,0Z" transform="translate(89.995 56.827)" fill="#edeeef"/>
    <path id="Path-29" data-name="Path" d="M24.07,0A24.028,24.028,0,0,0,0,23.985l48.055.085A24.028,24.028,0,0,0,24.07,0Z" transform="translate(54.161 45.855)" fill="#edeeef"/>
    <path id="Path-30" data-name="Path" d="M0,.329,94.452.5" transform="translate(28.012 69.465)" fill="none" stroke="#000" stroke-width="1.5"/>
    <path id="Path-31" data-name="Path" d="M10.515,0A10.533,10.533,0,0,1,21.067,10.515L0,10.552A10.533,10.533,0,0,1,10.515,0Z" transform="translate(76.836 106.203)" fill="#edeeef"/>
    <path id="Path-32" data-name="Path" d="M5.995,0a6.005,6.005,0,0,1,6.016,5.995L0,6.016A6.005,6.005,0,0,1,5.995,0Z" transform="translate(59.413 110.77)" fill="#edeeef"/>
    <path id="Path-33" data-name="Path" d="M11,0A11.015,11.015,0,0,1,22.03,11L0,11.034A11.015,11.015,0,0,1,11,0Z" transform="translate(65.821 105.74)" fill="#edeeef"/>
    <path id="Path-34" data-name="Path" d="M43.3.408,0,.485" transform="translate(56.539 116.306)" fill="none" stroke="#000" stroke-width="1.5"/>
  </g>
</svg>
