<svg xmlns="http://www.w3.org/2000/svg" width="456.106" height="374.171" viewBox="0 0 456.106 374.171"><g transform="translate(-828 -486)"><path d="M259.569,162.743H232.184V151.156H204.2V137.463l-20.837-18.434H151.812V65.835H110.734V0l-51.8,45.821v87.428H31.553v38.728H20.241V161.163H0V182.79H273.262v-7.934l-13.693-12.114Z" transform="translate(841.098 676.63)" fill="#f4f4f4"/><rect width="3.741" height="3.31" transform="translate(954.998 755.791)" fill="#fff"/><rect width="3.741" height="3.31" transform="translate(964.102 755.791)" fill="#fff"/><rect width="3.741" height="3.31" transform="translate(973.207 755.791)" fill="#fff"/><rect width="3.741" height="3.31" transform="translate(954.998 764.715)" fill="#fff"/><rect width="3.741" height="3.31" transform="translate(964.102 764.715)" fill="#fff"/><rect width="3.741" height="3.31" transform="translate(973.207 764.715)" fill="#fff"/><rect width="3.741" height="3.31" transform="translate(954.998 773.64)" fill="#fff"/><rect width="3.741" height="3.31" transform="translate(964.102 773.64)" fill="#fff"/><rect width="3.741" height="3.31" transform="translate(973.207 773.64)" fill="#fff"/><rect width="3.741" height="3.31" transform="translate(954.998 782.564)" fill="#fff"/><rect width="3.741" height="3.31" transform="translate(964.102 782.564)" fill="#fff"/><rect width="3.741" height="3.31" transform="translate(973.207 782.564)" fill="#fff"/><rect width="3.741" height="3.31" transform="translate(954.998 791.488)" fill="#fff"/><rect width="3.741" height="3.31" transform="translate(964.102 791.488)" fill="#fff"/><rect width="3.741" height="3.31" transform="translate(973.207 791.488)" fill="#fff"/><rect width="3.741" height="3.31" transform="translate(954.998 800.412)" fill="#fff"/><rect width="3.741" height="3.31" transform="translate(964.102 800.412)" fill="#fff"/><rect width="3.741" height="3.31" transform="translate(973.207 800.412)" fill="#fff"/><rect width="3.741" height="3.31" transform="translate(954.998 809.337)" fill="#fff"/><rect width="3.741" height="3.31" transform="translate(964.102 809.337)" fill="#fff"/><rect width="3.741" height="3.31" transform="translate(973.207 809.337)" fill="#fff"/><rect width="3.741" height="3.31" transform="translate(954.998 818.261)" fill="#fff"/><rect width="3.741" height="3.31" transform="translate(964.102 818.261)" fill="#fff"/><rect width="3.741" height="3.31" transform="translate(973.207 818.261)" fill="#fff"/><rect width="3.741" height="3.31" transform="translate(954.998 827.185)" fill="#fff"/><rect width="3.741" height="3.31" transform="translate(964.102 827.185)" fill="#fff"/><rect width="3.741" height="3.31" transform="translate(973.207 827.185)" fill="#fff"/><path d="M299.458,1.225H0v-1.5H299.458Z" transform="translate(828 858.946)"/><path d="M69.576,0a69.576,69.576,0,1,0,69.576,69.576H69.576Z" transform="translate(1123.912 507.042)" fill="#edeeef"/><path d="M69.576,70.326A69.886,69.886,0,0,1,42.2,64.8a70.333,70.333,0,0,1-11.946-6.484,70.827,70.827,0,0,1-10.408-8.587A70.827,70.827,0,0,1,11.261,39.32,70.336,70.336,0,0,1,4.777,27.374,69.886,69.886,0,0,1-.75,0H.75A68.9,68.9,0,0,0,69.576,68.826,68.9,68.9,0,0,0,138.4,0h1.5a69.886,69.886,0,0,1-5.527,27.374,70.336,70.336,0,0,1-6.484,11.946A70.827,70.827,0,0,1,119.3,49.728,70.827,70.827,0,0,1,108.9,58.315,70.334,70.334,0,0,1,96.95,64.8,69.886,69.886,0,0,1,69.576,70.326Z" transform="translate(1123.912 576.618)"/><path d="M69.576,0H0L56,41.3A69.26,69.26,0,0,0,69.576,0Z" transform="translate(1193.488 576.618)"/><path d="M0,0V90.618H90.618A90.619,90.619,0,0,0,64.076,26.54,90.618,90.618,0,0,0,0,0Z" transform="translate(1193.488 486)" fill="#00bcd0"/><path d="M90.618,1.225H0v-1.5H90.618Z" transform="translate(1193.488 576.143)"/><rect width="32.358" height="32.358" transform="translate(1240.25 715.549) rotate(180)" fill="#00bcd0"/><path d="M50.1,25.051,25.051,0,0,25.051Z" transform="translate(1199.02 660.579)" fill="#00bcd0"/><rect width="32.358" height="32.358" transform="translate(1240.25 795.51) rotate(180)" fill="#edeeef"/><path d="M50.1,25.051,25.051,0,0,25.051Z" transform="translate(1199.02 740.54)" fill="#edeeef"/><path d="M23.018,0A22.977,22.977,0,0,0,0,22.936l45.955.082A22.977,22.977,0,0,0,23.018,0Z" transform="translate(860.234 532.865)" fill="#edeeef"/><path d="M13.123,0A13.1,13.1,0,0,0,0,13.077l26.2.047A13.1,13.1,0,0,0,13.123,0Z" transform="translate(917.995 542.827)" fill="#edeeef"/><path d="M24.07,0A24.028,24.028,0,0,0,0,23.985l48.055.085A24.028,24.028,0,0,0,24.07,0Z" transform="translate(882.161 531.855)" fill="#edeeef"/><path d="M94.451,1.25,0,1.079l0-1.5L94.453-.25Z" transform="translate(856.012 555.465)"/><path d="M10.515,0A10.533,10.533,0,0,1,21.067,10.515L0,10.552A10.533,10.533,0,0,1,10.515,0Z" transform="translate(904.836 592.203)" fill="#edeeef"/><path d="M5.995,0a6.005,6.005,0,0,1,6.016,6L0,6.016A6.005,6.005,0,0,1,6,0Z" transform="translate(887.413 596.77)" fill="#edeeef"/><path d="M11,0A11.015,11.015,0,0,1,22.03,11L0,11.034A11.015,11.015,0,0,1,11,0Z" transform="translate(893.821 591.74)" fill="#edeeef"/><path d="M0,1.235l0-1.5L43.3-.342l0,1.5Z" transform="translate(884.539 602.306)"/></g></svg>