<svg xmlns="http://www.w3.org/2000/svg" xmlns:xlink="http://www.w3.org/1999/xlink"><symbol id="icon-arr-left-small" viewBox="0 0 24.703 16.469"><path d="M.151 8.598l7.719 7.72a.517.517 0 10.733-.728L1.757 8.749h22.431a.515.515 0 000-1.029H1.757L8.603.879a.515.515 0 10-.728-.728l-7.72 7.72a.514.514 0 00-.004.727z"/></symbol><symbol id="icon-call" viewBox="0 0 23.601 23.599"><defs><style><name>undefined</name><attrs>undefined</attrs></style></defs><path class="a" d="M22.982 18.206l-4.777-3.186a1.394 1.394 0 00-1.867.3l-1.391 1.789a.6.6 0 01-.763.16l-.265-.146a16 16 0 01-4.169-3.274 16.061 16.061 0 01-3.274-4.167l-.145-.265a.6.6 0 01.157-.765l1.788-1.389a1.4 1.4 0 00.3-1.867L5.394.619a1.387 1.387 0 00-1.87-.421l-2 1.2A2.818 2.818 0 00.242 3.066C-.477 5.682.064 10.21 6.727 16.874c5.3 5.3 9.246 6.725 11.958 6.725a6.968 6.968 0 001.848-.241 2.815 2.815 0 001.667-1.285l1.2-2a1.387 1.387 0 00-.418-1.867zm-.257 1.467l-1.2 2a2.033 2.033 0 01-1.2.93c-2.42.664-6.647.114-13.043-6.283S.336 5.694 1 3.274a2.036 2.036 0 01.931-1.2l2-1.2a.6.6 0 01.811.182l1.73 2.6 1.451 2.177a.605.605 0 01-.131.81L6 8.035a1.376 1.376 0 00-.365 1.767l.142.258a16.684 16.684 0 003.409 4.35 16.7 16.7 0 004.349 3.409l.258.142a1.377 1.377 0 001.767-.365l1.391-1.788a.606.606 0 01.81-.131l4.776 3.186a.6.6 0 01.188.81zM13.373 3.935a6.693 6.693 0 016.686 6.686.394.394 0 10.787 0 7.481 7.481 0 00-7.473-7.473.394.394 0 100 .787z"/><path class="a" d="M13.373 6.295a4.331 4.331 0 014.326 4.326.394.394 0 00.787 0 5.119 5.119 0 00-5.113-5.113.394.394 0 100 .787z"/><path class="a" d="M13.373 8.655a1.969 1.969 0 011.966 1.967.394.394 0 10.787 0 2.756 2.756 0 00-2.753-2.753.394.394 0 100 .787z"/></symbol><symbol id="icon-cat-1" viewBox="0 0 32.434 33"><path d="M31.515 33H.254A.254.254 0 010 32.746V30.67a.254.254 0 01.254-.254h31.261a.254.254 0 01.254.254v2.076a.254.254 0 01-.254.254zM.508 32.494h30.753v-1.57H.508z"/><path d="M31.515 30.925H.254a.254.254 0 01-.214-.39l3.541-5.576a.254.254 0 01.214-.118h4.291a.254.254 0 010 .508H3.935L.716 30.417h30.337l-3.219-5.068h-4.209a.254.254 0 110-.508h4.348a.254.254 0 01.214.118l3.541 5.576a.254.254 0 01-.214.39zM24.748 11.817a.254.254 0 01-.254-.254v-1.076a1.066 1.066 0 01-.811-1.034V5.607a1.066 1.066 0 011.065-1.065h6.621a1.066 1.066 0 011.065 1.065v3.844a1.066 1.066 0 01-1.065 1.065h-4.468l-2.019 1.261a.254.254 0 01-.134.04zm0-6.768a.558.558 0 00-.557.557v3.845a.558.558 0 00.557.557.254.254 0 01.254.254v.841l1.693-1.057a.254.254 0 01.135-.039h4.54a.558.558 0 00.557-.557V5.607a.558.558 0 00-.557-.557z"/><path d="M30.782 6.42h-5.445a.254.254 0 110-.508h5.445a.254.254 0 110 .508zM30.782 7.784h-5.445a.254.254 0 110-.508h5.445a.254.254 0 110 .508zM30.782 9.148h-5.445a.254.254 0 110-.508h5.445a.254.254 0 110 .508zM11.013 14.853a4.708 4.708 0 01-2.9-.98.254.254 0 01.06-.42c1.456-.683 1.5-2.2 1.281-3.362a12.652 12.652 0 01.089-5.642 5.369 5.369 0 011.882-3.12 6.678 6.678 0 014.99-1.213 3.944 3.944 0 012.408 1.712 2.889 2.889 0 012.083.435 4.7 4.7 0 011.689 3.623 9.938 9.938 0 01-.693 4.858c-.31.854.257 1.631 1.687 2.31a.254.254 0 01.078.4c-.914 1-2.587 1.885-5.373.474a.254.254 0 01.228-.453c2.267 1.148 3.689.627 4.527-.125-1.815-.969-1.9-2.037-1.626-2.781a9.587 9.587 0 00.669-4.611 4.278 4.278 0 00-1.465-3.273 2.416 2.416 0 00-1.855-.33.255.255 0 01-.286-.112A3.43 3.43 0 0016.298.609a6.27 6.27 0 00-4.588 1.138 4.884 4.884 0 00-1.675 2.829 12.153 12.153 0 00-.081 5.418c.33 1.735-.086 3.011-1.2 3.718a4.436 4.436 0 004.724-.062.254.254 0 11.249.443 5.506 5.506 0 01-2.714.76z"/><path d="M15.877 14.808a4.341 4.341 0 01-2.993-1.183 4.4 4.4 0 01-1.388-3.2V7.576a1.512 1.512 0 01.8-1.348 3.224 3.224 0 01.751-.311 3.962 3.962 0 011.053-.086h.346a5.022 5.022 0 001.75-.34 1.878 1.878 0 00.482-.233 3.469 3.469 0 00.31-.245c.119-.108.24-.214.36-.321s.238-.209.357-.317c.022-.023.054-.051.085-.079s.051-.046.076-.071a.256.256 0 01.259-.062 3.1 3.1 0 012.148 2.945v3.159a4.48 4.48 0 01-4.1 4.528q-.147.013-.296.013zm-1.955-8.47a2.945 2.945 0 00-.749.072 2.782 2.782 0 00-.631.264 1.01 1.01 0 00-.539.9v2.848a3.876 3.876 0 004.14 3.868 3.971 3.971 0 003.624-4.021v-3.16a2.6 2.6 0 00-1.66-2.411 27.52 27.52 0 01-.422.378c-.121.106-.238.21-.357.318a3.951 3.951 0 01-.355.282 2.324 2.324 0 01-.6.294 5.517 5.517 0 01-1.917.368H13.919zM22.259 28.432H9.516a1.3 1.3 0 01-1.287-1.108l-1.244-8.191a1.3 1.3 0 011.287-1.5h15.224a1.3 1.3 0 011.287 1.5l-1.238 8.192a1.3 1.3 0 01-1.286 1.107zM8.277 18.143a.794.794 0 00-.786.914l1.239 8.192a.79.79 0 00.786.676h12.743a.79.79 0 00.786-.676l1.24-8.192a.794.794 0 00-.786-.914z"/><path d="M25.275 28.433H6.495a.254.254 0 110-.508h18.78a.254.254 0 110 .508zM15.885 24.543a1.509 1.509 0 111.509-1.511 1.509 1.509 0 01-1.509 1.511zm0-2.51a1 1 0 101 1 1 1 0 00-1-1.001zM23.68 24.995a.254.254 0 01-.159-.452l1.757-1.414a2.536 2.536 0 00.664-2.267l-.582-2.886a2.523 2.523 0 00-1.383-1.771l-3.372-1.581a.254.254 0 11.216-.459l3.373 1.582a3.035 3.035 0 011.664 2.129l.582 2.887a3.044 3.044 0 01-.809 2.733l-.022.02-1.77 1.422a.252.252 0 01-.159.057zM8.081 25.103a.254.254 0 01-.167-.062l-1.761-1.532a3.061 3.061 0 01-.823-2.746l.586-2.887a3.014 3.014 0 011.659-2.128l2.955-1.385a.254.254 0 01.216.46L7.79 16.205a2.505 2.505 0 00-1.378 1.769l-.585 2.889a2.546 2.546 0 00.675 2.277l1.745 1.517a.254.254 0 01-.167.445z"/><path d="M15.887 16.985c-2.339 0-4.484-.88-5.463-2.241a.255.255 0 11.412-.3c.887 1.233 2.87 2.031 5.051 2.031s4.161-.8 5.049-2.027a.255.255 0 01.412.3c-.981 1.359-3.126 2.237-5.461 2.237zM9.564 26.583a.254.254 0 01-.251-.216l-.24-1.588a.254.254 0 01.5-.076l.24 1.588a.254.254 0 01-.213.289.243.243 0 01-.036.003zM9.153 23.829a.254.254 0 01-.251-.216l-.5-3.3a.254.254 0 11.5-.076l.5 3.3a.254.254 0 01-.211.292.246.246 0 01-.038 0z"/></symbol><symbol id="icon-cat-2" viewBox="0 0 26.842 33"><path d="M5.056 13.869a1.4 1.4 0 111.4-1.4 1.4 1.4 0 01-1.4 1.4zm0-2.3a.9.9 0 10.9.9.9.9 0 00-.9-.898zM15.654 13.869a1.4 1.4 0 111.4-1.4 1.4 1.4 0 01-1.4 1.4zm0-2.3a.9.9 0 10.9.9.9.9 0 00-.9-.898z"/><path d="M15.653 12.72a.254.254 0 01-.254-.254V5.553a5.045 5.045 0 10-10.091 0v6.913a.254.254 0 11-.508 0V5.553a5.553 5.553 0 1111.106 0v6.913a.254.254 0 01-.253.254z"/><path d="M22.621 8.546h-10.6a.254.254 0 01-.254-.254V5.553a5.553 5.553 0 1111.106 0v2.739a.254.254 0 01-.255.254zm-10.344-.508H22.37V5.553a5.045 5.045 0 10-10.091 0zM26.583 32.999h-5.62a.254.254 0 01-.147-.461l2.931-2.078a.254.254 0 01.3.006l2.689 2.075a.254.254 0 01-.155.455zm-4.823-.508h4.079l-1.952-1.508z"/><path d="M20.898 33H.254A.254.254 0 010 32.729L1.636 8.272a.254.254 0 01.254-.237h18.036a.254.254 0 01.254.244l.972 24.454a.254.254 0 01-.254.264zM.525 32.492h20.108l-.952-23.946H2.127z"/><path d="M26.586 32.999a.252.252 0 01-.155-.053l-2.54-1.963-2.778 1.969a.254.254 0 01-.4-.2L19.672 8.304a.254.254 0 01.254-.265h4.91a.254.254 0 01.254.236l1.753 24.452a.254.254 0 01-.254.272zm-6.4-24.453l1.01 23.722 2.551-1.808a.254.254 0 01.3.006l2.24 1.731-1.694-23.651zM2.127 26.456H2.11a.254.254 0 01-.236-.27l.556-8.315a.26.26 0 01.27-.236.254.254 0 01.236.27l-.556 8.313a.254.254 0 01-.253.238zM1.849 30.614h-.017a.254.254 0 01-.237-.27l.2-3.014a.257.257 0 01.27-.236.254.254 0 01.237.27l-.2 3.014a.254.254 0 01-.253.236z"/></symbol><symbol id="icon-cat-3" viewBox="0 0 34.862 33"><path d="M24.265 23.174a.268.268 0 01-.263-.219 5.852 5.852 0 00-.823-2.1c-1.736-2.69-5.857-3.415-7.078-3.574a.268.268 0 01-.217-.171l-.587-1.555a.268.268 0 11.5-.19l.531 1.406c1.728.241 5.546 1.075 7.3 3.793a6.378 6.378 0 01.9 2.289.268.268 0 01-.264.318zM18.914 27.065H.269a.268.268 0 01-.266-.267V24.24a6.742 6.742 0 011.025-3.675c1.753-2.718 5.57-3.551 7.3-3.793l.526-1.4a.268.268 0 11.5.188l-.582 1.555a.268.268 0 01-.217.172c-1.221.158-5.343.883-7.078 3.574a6.209 6.209 0 00-.941 3.384v2.289h18.378a.268.268 0 110 .536z"/><path d="M10.389 20.955a.286.286 0 01-.054-.005.268.268 0 01-.185-.141L8.283 17.14a.268.268 0 01.367-.357l3.806 2.059a.268.268 0 01.044.442l-1.939 1.609a.268.268 0 01-.172.062zm-1.238-3.292l1.327 2.603 1.374-1.145z"/><path d="M14.268 20.954a.268.268 0 01-.175-.061l-1.939-1.609a.268.268 0 01.043-.442l3.807-2.059a.268.268 0 01.367.357l-1.866 3.668a.268.268 0 01-.185.141.285.285 0 01-.052.005zm-1.463-1.835l1.376 1.142 1.324-2.6zM4.798 27.066a.268.268 0 01-.268-.268v-4.827a.268.268 0 01.536 0v4.832a.268.268 0 01-.268.263zM12.326 17.285c-3.15 0-5.687-3.868-5.687-7.071a.268.268 0 11.536 0c0 2.941 2.377 6.534 5.15 6.534 2.637 0 4.883-3.194 5.129-6.05a.268.268 0 11.534.046c-.265 3.089-2.744 6.541-5.662 6.541z"/><path d="M17.744 10.993a.273.273 0 01-.1-.019.268.268 0 01-.166-.28c.005-.043.47-4.3-2.434-5.082l-.036-.012s-.5-.134-1.408.751c-.809.785-2.7.533-4.144.182a1.271 1.271 0 00-1.383.538 6.64 6.64 0 00-.9 3.162.268.268 0 01-.513.091 12.578 12.578 0 01-.928-5.551 4.9 4.9 0 011.921-3.278A6.213 6.213 0 0111.96.029a8.52 8.52 0 013.905 1.52 3.578 3.578 0 012.201 1.113 4.932 4.932 0 011.078 3.69 8.5 8.5 0 01-1.192 4.535.268.268 0 01-.208.106zm-2.548-5.9c2.256.617 2.751 2.963 2.833 4.434a10.764 10.764 0 00.585-3.2 4.427 4.427 0 00-.937-3.3 3.028 3.028 0 00-1.922-.951.268.268 0 01-.157-.058 8.053 8.053 0 00-3.7-1.459 5.665 5.665 0 00-3.907 1.353 4.372 4.372 0 00-1.725 2.909 11.479 11.479 0 00.512 4.229 6.455 6.455 0 01.841-2.266 1.8 1.8 0 011.962-.775c1.83.443 3.158.427 3.645-.046 1.111-1.078 1.816-.92 1.969-.867z"/><path d="M7.682 3.832a.265.265 0 01-.133-.035.268.268 0 01-.1-.366 3.635 3.635 0 011.807-1.408.268.268 0 11.194.5 3.135 3.135 0 00-1.535 1.173.268.268 0 01-.233.136zM29.636 30.942a.268.268 0 01-.2-.087 11.255 11.255 0 00-6.584-2.51.268.268 0 01-.268-.268l.019-5.061a.268.268 0 01.08-.189.343.343 0 01.19-.078h.025a11.065 11.065 0 006.584-2.467.268.268 0 01.464.184l-.042 10.207a.268.268 0 01-.171.249.271.271 0 01-.097.02zm-6.512-3.131a12.393 12.393 0 016.246 2.268l.037-9.019a12.467 12.467 0 01-6.268 2.219z"/><path d="M30.272 31.402a.9.9 0 01-.9-.906l.04-9.857a.903.903 0 111.806.007l-.04 9.858a.9.9 0 01-.9.9zm.04-11.127a.367.367 0 00-.366.365l-.04 9.858a.366.366 0 00.733 0l.04-9.858a.366.366 0 00-.367-.368z"/><path d="M31.156 27.116h-.215a.268.268 0 01-.268-.268v-2.555a.268.268 0 01.268-.268h.215a1.546 1.546 0 010 3.091zm.054-2.553v2.015a1.009 1.009 0 000-2.015zM22.864 28.36h-1.743a2.8 2.8 0 110-5.6h1.743a.268.268 0 01.268.268v5.059a.268.268 0 01-.268.273zm-1.743-5.056a2.262 2.262 0 100 4.523h1.477v-4.523z"/><path d="M22.765 33h-1a.715.715 0 01-.695-.561l-.934-4.347a.268.268 0 11.524-.113l.934 4.347a.175.175 0 00.171.138h1a.174.174 0 00.17-.212l-.892-4.1a.268.268 0 11.524-.114l.893 4.1a.711.711 0 01-.695.862zM33.251 24.653a.268.268 0 01-.213-.431l.464-.6a.269.269 0 11.426.327l-.464.6a.268.268 0 01-.213.104zM34.594 25.838h-.761a.268.268 0 010-.536h.761a.268.268 0 010 .536zM33.715 27.625a.268.268 0 01-.213-.1l-.464-.6a.268.268 0 11.425-.327l.464.6a.268.268 0 01-.213.431z"/></symbol><symbol id="icon-cat-4" viewBox="0 0 35.873 32.776"><path d="M34.294 27.264H1.579A1.58 1.58 0 010 25.688V1.579A1.581 1.581 0 011.579 0h32.715a1.581 1.581 0 011.579 1.579v24.109a1.58 1.58 0 01-1.579 1.576zM1.579.552A1.028 1.028 0 00.552 1.579v24.109a1.028 1.028 0 001.027 1.027h32.715a1.028 1.028 0 001.027-1.027V1.579A1.028 1.028 0 0034.294.552z"/><path d="M33.942 22.661H1.932a.276.276 0 01-.276-.276V1.932a.276.276 0 01.276-.276h32.01a.276.276 0 01.276.276v20.453a.276.276 0 01-.276.276zm-31.734-.552h31.458v-19.9H2.208z"/><path d="M35.6 22.661H.276a.276.276 0 110-.552H35.6a.276.276 0 010 .552zM22.165 31.113h-8.458a.276.276 0 01-.276-.276v-3.849a.276.276 0 01.276-.276h8.458a.276.276 0 01.276.276v3.849a.276.276 0 01-.276.276zm-8.182-.552h7.906v-3.3h-7.906z"/><path d="M24.731 32.776h-13.59a.276.276 0 01-.276-.276 1.941 1.941 0 011.939-1.939h10.265a1.941 1.941 0 011.939 1.939.276.276 0 01-.277.276zm-13.287-.552h12.984a1.389 1.389 0 00-1.359-1.112H12.804a1.389 1.389 0 00-1.359 1.112zM17.936 25.698a1 1 0 111-1 1 1 0 01-1 1zm0-1.445a.446.446 0 10.446.446.446.446 0 00-.446-.446zM22.727 16.234a.274.274 0 01-.2-.081l-3.639-3.639-1.147 1.581a.276.276 0 01-.491-.094l-1.51-6a.276.276 0 01.335-.335l6 1.51a.276.276 0 01.095.491l-1.574 1.14 3.639 3.64a.276.276 0 010 .39l-1.313 1.313a.274.274 0 01-.2.081zm-3.868-4.42a.276.276 0 01.2.081l3.673 3.673.923-.923-3.672-3.673a.276.276 0 01.033-.419l1.365-.99-4.99-1.256 1.253 4.983.99-1.365a.276.276 0 01.2-.113zM11.833 9.2a.276.276 0 01-.276-.276 5.509 5.509 0 015.5-5.5.276.276 0 110 .552 4.956 4.956 0 00-4.95 4.95.276.276 0 01-.276.276z"/><path d="M13.046 9.203a.276.276 0 01-.276-.276 4.294 4.294 0 014.289-4.289.276.276 0 110 .552 3.742 3.742 0 00-3.737 3.737.276.276 0 01-.276.276z"/><path d="M14.259 9.204a.276.276 0 01-.276-.276 3.08 3.08 0 013.077-3.077.276.276 0 110 .552 2.528 2.528 0 00-2.525 2.525.276.276 0 01-.276.276zM31.412 17.649H4.461a.276.276 0 010-.552h26.951a.276.276 0 110 .552zM31.412 20.09H4.461a.276.276 0 010-.552h26.951a.276.276 0 110 .552z"/></symbol><symbol id="icon-cat-5" viewBox="0 0 32.778 32.776"><path d="M16.389 26.925a10.533 10.533 0 1110.532-10.536 10.533 10.533 0 01-10.532 10.536zm0-20.561a10.028 10.028 0 1010.028 10.025A10.028 10.028 0 0016.389 6.36z"/><path d="M16.39 25.184a8.8 8.8 0 118.8-8.8 8.8 8.8 0 01-8.8 8.8zm0-17.095a8.3 8.3 0 108.3 8.3 8.3 8.3 0 00-8.3-8.3z"/><path d="M16.39 25.188c-2.707 0-4.91-3.947-4.91-8.8s2.2-8.8 4.91-8.8 4.91 3.948 4.91 8.8-2.203 8.8-4.91 8.8zm0-17.095c-2.429 0-4.405 3.721-4.405 8.3s1.976 8.3 4.405 8.3 4.405-3.721 4.405-8.3-1.976-8.3-4.405-8.3z"/><path d="M16.389 25.184a.252.252 0 01-.252-.247V7.842a.252.252 0 11.5 0v17.095a.252.252 0 01-.248.247z"/><path d="M23.909 20.702H8.869a.252.252 0 110-.5h15.04a.252.252 0 110 .5zM24.937 16.635H7.842a.252.252 0 110-.5h17.095a.252.252 0 110 .5zM23.909 12.576H8.869a.252.252 0 010-.5h15.04a.252.252 0 010 .5zM16.389 6.361a.252.252 0 01-.252-.252V3.05a.252.252 0 11.5 0v3.059a.252.252 0 01-.248.252z"/><path d="M16.387 3.302a1.651 1.651 0 111.651-1.651 1.651 1.651 0 01-1.651 1.651zm0-2.8a1.147 1.147 0 101.146 1.147A1.147 1.147 0 0016.387.503zM11.25 7.738a.252.252 0 01-.219-.126l-1.53-2.65a.252.252 0 11.437-.252l1.53 2.65a.252.252 0 01-.218.378z"/><path d="M9.023 5.276a1.661 1.661 0 01-.429-.057 1.641 1.641 0 11.429.057zm0-2.8a1.148 1.148 0 10.3.039 1.164 1.164 0 00-.3-.039zM7.487 11.5a.252.252 0 01-.126-.034l-2.65-1.53a.252.252 0 01.252-.437l2.65 1.53a.252.252 0 01-.126.47z"/><path d="M3.623 10.67a1.652 1.652 0 111.64-1.435 1.641 1.641 0 01-1.64 1.435zm-.571-.658a1.146 1.146 0 10-.42-1.566 1.146 1.146 0 00.416 1.566zM6.11 16.635H3.05a.252.252 0 110-.5h3.06a.252.252 0 110 .5z"/><path d="M1.651 18.039a1.651 1.651 0 111.651-1.654 1.651 1.651 0 01-1.651 1.654zm0-2.8a1.147 1.147 0 101.151 1.146 1.147 1.147 0 00-1.146-1.147zM4.837 23.309a.252.252 0 01-.126-.47l2.65-1.53a.252.252 0 01.252.437l-2.65 1.53a.252.252 0 01-.126.033z"/><path d="M3.628 25.407a1.65 1.65 0 11.822-.221 1.65 1.65 0 01-.822.221zm0-2.8a1.148 1.148 0 10.3.039 1.148 1.148 0 00-.304-.036zM9.72 28.192a.252.252 0 01-.218-.378l1.53-2.65a.252.252 0 01.437.252l-1.53 2.65a.252.252 0 01-.219.126z"/><path d="M9.018 30.803a1.656 1.656 0 11.43-.057 1.656 1.656 0 01-.43.057zm0-2.8a1.162 1.162 0 00-.3.039 1.141 1.141 0 10.3-.039zM16.389 29.979a.252.252 0 01-.252-.252v-3.06a.252.252 0 11.5 0v3.06a.252.252 0 01-.248.252z"/><path d="M16.385 32.776a1.651 1.651 0 111.651-1.651 1.651 1.651 0 01-1.651 1.651zm0-2.8a1.146 1.146 0 101.146 1.146 1.146 1.146 0 00-1.146-1.143zM23.058 28.192a.252.252 0 01-.219-.126l-1.53-2.65a.252.252 0 01.437-.252l1.53 2.65a.252.252 0 01-.218.378z"/><path d="M23.761 30.802a1.652 1.652 0 11.823-.222 1.652 1.652 0 01-.823.222zm0-2.8a1.148 1.148 0 10.3.039 1.162 1.162 0 00-.3-.039zM27.941 23.309a.252.252 0 01-.126-.034l-2.65-1.53a.252.252 0 11.252-.437l2.65 1.53a.252.252 0 01-.126.47z"/><path d="M29.149 25.407a1.65 1.65 0 111.6-1.222 1.65 1.65 0 01-1.6 1.222zm0-2.8a1.148 1.148 0 10.571.154 1.138 1.138 0 00-.566-.151zM29.728 16.635h-3.06a.252.252 0 110-.5h3.06a.252.252 0 110 .5z"/><path d="M31.127 18.039a1.651 1.651 0 111.651-1.651 1.651 1.651 0 01-1.651 1.651zm0-2.8a1.147 1.147 0 101.145 1.146 1.147 1.147 0 00-1.146-1.147zM25.291 11.5a.252.252 0 01-.126-.47l2.65-1.53a.252.252 0 11.252.437l-2.65 1.53a.25.25 0 01-.126.034z"/><path d="M29.155 10.669a1.651 1.651 0 111.549-1.089 1.65 1.65 0 01-1.549 1.089zm-.576-2.643a1.146 1.146 0 101.566.42 1.146 1.146 0 00-1.566-.42zM21.528 7.738a.252.252 0 01-.218-.378l1.53-2.65a.252.252 0 01.437.252l-1.53 2.65a.252.252 0 01-.219.126z"/><path d="M23.752 5.276a1.655 1.655 0 11.43-.057 1.656 1.656 0 01-.43.057zm0-2.8a1.163 1.163 0 00-.3.039 1.142 1.142 0 10.3-.039z"/></symbol><symbol id="icon-cat-6" viewBox="0 0 31.759 31.681"><path d="M31.514 31.681H.245a.244.244 0 01-.242-.244v-3.738a7.9 7.9 0 011.2-4.3c1.769-2.742 7-4.55 10.145-4.957a.245.245 0 11.063.485c-3.054.4-8.113 2.127-9.8 4.738a7.411 7.411 0 00-1.126 4.04v3.493h30.78V27.7a7.412 7.412 0 00-1.124-4.039c-1.684-2.611-6.742-4.342-9.8-4.739a.245.245 0 11.063-.485c3.148.408 8.376 2.216 10.145 4.958a7.9 7.9 0 011.2 4.306v3.738a.244.244 0 01-.244.244z"/><path d="M13.587 23.742a.227.227 0 01-.054-.006.244.244 0 01-.168-.136l-2.209-4.818a.244.244 0 01.355-.307l4.5 2.915a.244.244 0 01.024.393l-2.293 1.9a.244.244 0 01-.155.059zm-1.637-4.4l1.725 3.768 1.791-1.49z"/><path d="M18.172 23.742a.244.244 0 01-.156-.056l-2.293-1.9a.244.244 0 01.024-.393l4.5-2.915a.244.244 0 01.355.307L18.395 23.6a.244.244 0 01-.168.136.227.227 0 01-.055.006zm-1.881-2.122l1.791 1.49 1.725-3.764z"/><path d="M15.879 23.863a1.1 1.1 0 01-.785-.327l-.684-.691a.244.244 0 11.347-.344l.684.691a.631.631 0 00.875 0l.684-.691a.244.244 0 01.347.344l-.684.691a1.1 1.1 0 01-.784.327z"/><path d="M15.876 30.682a.244.244 0 01-.179-.078l-1.821-1.957a.244.244 0 01-.058-.227l1.287-5.042a.244.244 0 11.473.122l-1.254 4.913 1.554 1.666 1.551-1.667-1.253-4.913a.244.244 0 01.473-.122l1.285 5.044a.244.244 0 01-.058.227l-1.821 1.957a.244.244 0 01-.179.078zM4.978 31.68a.244.244 0 01-.244-.244v-6.42a.244.244 0 01.489 0v6.42a.244.244 0 01-.245.244zM26.78 31.68a.244.244 0 01-.244-.244v-6.42a.244.244 0 01.489 0v6.42a.244.244 0 01-.245.244zM17 19.497h-2.242a.244.244 0 01-.242-.21l-.3-2.054a7.627 7.627 0 01-2.461-1.019l-1.664 1.246a.244.244 0 01-.319-.023L8.19 15.852a.244.244 0 01-.023-.319l1.246-1.664a7.677 7.677 0 01-1.019-2.461l-2.054-.3a.244.244 0 01-.21-.242V8.627a.244.244 0 01.21-.242l2.054-.3a7.678 7.678 0 011.019-2.46L8.167 3.961a.244.244 0 01.023-.319l1.586-1.586a.244.244 0 01.319-.023l1.664 1.246A7.634 7.634 0 0114.22 2.26l.3-2.054a.244.244 0 01.242-.21h2.242a.244.244 0 01.242.21l.3 2.054a7.668 7.668 0 012.46 1.019l1.661-1.246a.244.244 0 01.319.022l1.582 1.587a.244.244 0 01.023.32l-1.253 1.667a7.55 7.55 0 011.019 2.461l2.057.3a.244.244 0 01.21.242v2.242a.244.244 0 01-.21.242l-2.057.3a7.55 7.55 0 01-1.019 2.453l1.249 1.663a.244.244 0 01-.023.32l-1.586 1.59a.244.244 0 01-.319.022l-1.661-1.246a7.666 7.666 0 01-2.46 1.019l-.3 2.054a.244.244 0 01-.238.206zm-2.031-.489h1.819l.29-2.013a.244.244 0 01.194-.2 7.191 7.191 0 002.6-1.077.244.244 0 01.282.008l1.629 1.216 1.29-1.287-1.225-1.63a.244.244 0 01-.01-.283 7.056 7.056 0 001.076-2.6.244.244 0 01.2-.2l2.017-.29v-1.81l-2.017-.29a.244.244 0 01-.2-.2 7.056 7.056 0 00-1.076-2.6.244.244 0 01.007-.283l1.228-1.627-1.29-1.287-1.628 1.221a.244.244 0 01-.282.008 7.192 7.192 0 00-2.6-1.077.244.244 0 01-.194-.2l-.29-2.013h-1.82l-.29 2.014a.244.244 0 01-.194.2 7.152 7.152 0 00-2.6 1.077.244.244 0 01-.282-.007L9.971 2.557 8.685 3.842l1.221 1.631a.244.244 0 01.008.282 7.192 7.192 0 00-1.077 2.6.244.244 0 01-.2.194l-2.018.293v1.819l2.013.29a.244.244 0 01.2.194 7.192 7.192 0 001.077 2.6.244.244 0 01-.008.282L8.68 15.658l1.291 1.284 1.632-1.221a.244.244 0 01.282-.007 7.147 7.147 0 002.6 1.077.244.244 0 01.194.2z"/><path d="M15.879 14.873a5.125 5.125 0 115.124-5.125 5.125 5.125 0 01-5.124 5.125zm0-9.761a4.636 4.636 0 104.636 4.636 4.636 4.636 0 00-4.636-4.636z"/><path d="M12.232 9.754h-.013a.244.244 0 01-.228-.26 3.909 3.909 0 013.11-3.569.245.245 0 11.1.479 3.42 3.42 0 00-2.72 3.122.244.244 0 01-.249.228z"/></symbol><symbol id="icon-email" viewBox="0 0 24.904 24.903"><defs><style><name>undefined</name><attrs>undefined</attrs></style></defs><path class="a" d="M24.899 9.522a.392.392 0 00-.017-.084.415.415 0 00-.024-.071.373.373 0 00-.041-.064.391.391 0 00-.055-.064c-.007-.006-.01-.014-.017-.02l-3.992-3.1V2.905a1.245 1.245 0 00-1.245-1.245h-4.5l-1.8-1.4a1.231 1.231 0 00-1.514 0l-1.8 1.4H5.399a1.245 1.245 0 00-1.25 1.245v3.214l-3.99 3.1c-.007.006-.01.014-.017.02a.389.389 0 00-.055.064.37.37 0 00-.041.064.41.41 0 00-.024.071.393.393 0 00-.017.083v14.138a1.231 1.231 0 00.244.733s0 .008.006.012l.013.012a1.239 1.239 0 00.981.489h22.409a1.239 1.239 0 00.985-.491s.008-.005.011-.01 0-.008.006-.012a1.232 1.232 0 00.244-.733V9.547c-.005-.009-.005-.016-.005-.025zM12.199.917a.4.4 0 01.5 0l.958.743h-2.41zM1.349 24.075l10.85-8.431a.4.4 0 01.5 0l10.856 8.431zm22.725-.647l-10.866-8.439a1.232 1.232 0 00-1.514 0L.829 23.427V10.179l6.8 5.282a.415.415 0 00.509-.656L1.229 9.439l2.92-2.269v3.207a.415.415 0 10.83 0V2.905a.415.415 0 01.42-.415h14.108a.415.415 0 01.415.415v7.472a.415.415 0 10.83 0V7.17l2.92 2.269-6.922 5.375a.415.415 0 10.509.656l6.814-5.291v13.248z"/><path class="a" d="M17.432 9.961v-1.66a4.981 4.981 0 10-4.981 4.981.415.415 0 000-.83 4.151 4.151 0 114.151-4.151v1.66a.83.83 0 11-1.66 0v-1.66a.415.415 0 00-.83 0 1.66 1.66 0 11-1.66-1.66.415.415 0 000-.83 2.49 2.49 0 101.678 4.326 1.656 1.656 0 003.3-.175z"/></symbol><symbol id="icon-smart" viewBox="0 0 23.768 30.989"><defs><style><name>undefined</name><attrs>undefined</attrs></style></defs><path class="a" d="M18.908 21.923a.454.454 0 00-.454.454v5.479a2.228 2.228 0 01-2.225 2.225h-13.1a2.228 2.228 0 01-2.225-2.225V3.132A2.228 2.228 0 013.132.907h13.1a2.228 2.228 0 012.225 2.225v2.954a.454.454 0 10.907 0V3.132A3.136 3.136 0 0016.229 0h-13.1a3.136 3.136 0 00-3.13 3.132v24.724a3.136 3.136 0 003.132 3.132h13.1a3.136 3.136 0 003.132-3.132v-5.479a.453.453 0 00-.454-.454z"/><path class="a" d="M17.094 6.524a.454.454 0 00.454-.454V3.132a1.32 1.32 0 00-1.319-1.318h-1.491a.643.643 0 00-.6.424l-.073.2a.738.738 0 01-.693.487H9.238a.454.454 0 000 .907h4.134a1.648 1.648 0 001.546-1.086l.01-.027h1.3a.412.412 0 01.411.411v2.938a.453.453 0 00.455.456zM17.94 7.381a5.787 5.787 0 00-3.394 1.09.454.454 0 10.529.737 4.921 4.921 0 017.785 4c0 1.855-2.535 4.889-4.907 7.11a.02.02 0 01-.027 0c-2.372-2.221-4.907-5.254-4.907-7.11a4.9 4.9 0 01.825-2.727.454.454 0 10-.754-.5 5.8 5.8 0 00-.977 3.231c0 1.183.736 2.711 2.188 4.541a31.343 31.343 0 003.006 3.231.929.929 0 001.267 0 31.371 31.371 0 003.006-3.231c1.452-1.83 2.188-3.358 2.188-4.541a5.834 5.834 0 00-5.828-5.831z"/><path class="a" d="M21.195 13.208a3.258 3.258 0 10-3.258 3.258 3.261 3.261 0 003.258-3.258zm-5.608 0a2.351 2.351 0 112.351 2.351 2.353 2.353 0 01-2.343-2.351zM12.811 17.272a.453.453 0 00-.641-.01l-3.212 3.117a.513.513 0 00.012.748l7.623 6.927a.411.411 0 01-.361.214H14.58l-6.745-6.129a.513.513 0 00-.7.011l-4.414 4.277V24.32l3.4-3.3a.454.454 0 10-.632-.651l-2.768 2.687V3.132a.412.412 0 01.411-.411h1.364l.01.027a1.648 1.648 0 001.546 1.086h1.25a.454.454 0 000-.907h-1.25a.738.738 0 01-.693-.487l-.073-.2a.642.642 0 00-.6-.424H3.132a1.32 1.32 0 00-1.321 1.316v24.724a1.32 1.32 0 001.318 1.318h13.1a1.32 1.32 0 001.318-1.318V22.43a.454.454 0 10-.907 0v4.443l-6.752-6.136 2.911-2.824a.454.454 0 00.012-.641zM2.721 27.856v-.165l4.775-4.633 5.733 5.209h-10.1a.412.412 0 01-.408-.411z"/><path class="a" d="M10.935 15.089l-4.059 3.938a.454.454 0 00.632.651l4.059-3.938a.454.454 0 00-.632-.651zM6.758 13.979a.454.454 0 00.454-.454v-2.184a1.964 1.964 0 10-.907 0v2.184a.454.454 0 00.453.454zM5.701 9.431a1.057 1.057 0 111.057 1.057A1.058 1.058 0 015.701 9.43z"/></symbol><symbol id="icon-totals-1" viewBox="0 0 91 91"><path d="M84.576 47.639a68.16 68.16 0 00-13.216-1.073c-2.176 0-4.23.064-6.132.188V4.888A4.893 4.893 0 0060.341 0H4.888C2.055 0 0 2.355 0 5.6v73.76c0 1.931 2.135 4.177 4.888 4.177h46.833v2.044c0 3.013 4.835 4.018 6.424 4.349A68.16 68.16 0 0071.36 91a68.16 68.16 0 0013.216-1.072C86.165 89.6 91 88.592 91 85.579V51.987c0-3.013-4.835-4.018-6.424-4.348zm3.758 21.136c-.028.057-.582 1.037-4.746 1.836a67.951 67.951 0 01-12.228.927 67.951 67.951 0 01-12.228-.927c-4.266-.819-4.744-1.828-4.746-1.828v-5.194a17.381 17.381 0 003.758 1.145 68.16 68.16 0 0013.216 1.072 68.16 68.16 0 0013.216-1.072 17.383 17.383 0 003.758-1.145zM34.3 69.05a1.333 1.333 0 00-1.333 1.333v3.377H12.708a1.184 1.184 0 01-1.155-.8V59.719H32.97v4.443a1.333 1.333 0 002.666 0v-4.443h16.085V73.76H35.636v-3.377A1.333 1.333 0 0034.3 69.05zm22.75-21.168c-2.044.5-5.332 1.62-5.332 4.105v5.065H35.636v-14.04H55.9a1.157 1.157 0 011.155 1.155zm-24.08 9.171H11.553V44.522c0-.9.464-1.511 1.155-1.511H32.97zm55.364 3.324c-.028.057-.582 1.037-4.746 1.836a67.951 67.951 0 01-12.228.927 67.95 67.95 0 01-12.228-.927c-4.266-.819-4.744-1.828-4.746-1.828v-5.194a17.38 17.38 0 003.758 1.145 68.145 68.145 0 0013.216 1.072 68.16 68.16 0 0013.216-1.072 17.383 17.383 0 003.758-1.145zM83.588 50.16c4.021.772 4.676 1.712 4.741 1.828-.065.115-.721 1.056-4.741 1.828a67.95 67.95 0 01-12.228.927 67.95 67.95 0 01-12.228-.927c-4.021-.772-4.676-1.712-4.741-1.828.065-.115.721-1.056 4.741-1.828a67.951 67.951 0 0112.228-.927 67.95 67.95 0 0112.228.927zm-78.7 30.709a2.312 2.312 0 01-2.222-1.511V35.9h43.9a1.333 1.333 0 100-2.666h-43.9V5.6c0-1.781.872-2.933 2.222-2.933h55.453a2.224 2.224 0 012.222 2.222v28.347h-9.776a1.333 1.333 0 000 2.666h9.775v11.075q-1.512.158-2.844.374v-3.184a3.826 3.826 0 00-3.818-3.821H12.708a3.923 3.923 0 00-3.821 4.177V72.96a3.753 3.753 0 003.821 3.466h39.013v4.443zm78.7 6.538a67.951 67.951 0 01-12.228.927 67.95 67.95 0 01-12.228-.927c-4.266-.819-4.744-1.828-4.746-1.828v-5.195a17.38 17.38 0 003.758 1.145A68.16 68.16 0 0071.36 82.6c2.54 0 4.947-.088 7.152-.262a1.333 1.333 0 00-.209-2.658 89.265 89.265 0 01-6.943.253 67.95 67.95 0 01-12.228-.927c-4.266-.819-4.744-1.827-4.746-1.827v-5.192a17.38 17.38 0 003.758 1.145A68.16 68.16 0 0071.36 74.2a68.16 68.16 0 0013.216-1.072 17.383 17.383 0 003.758-1.145v5.186c-.027.057-.518.925-4.046 1.693a1.333 1.333 0 10.568 2.6 16.759 16.759 0 003.479-1.085v5.193c-.029.058-.583 1.037-4.747 1.837z"/><path d="M59.897 24.971V10.93a3.826 3.826 0 00-3.822-3.821H26.66a1.333 1.333 0 100 2.666h29.415a1.157 1.157 0 011.155 1.155v14.041a1.157 1.157 0 01-1.155 1.155H12.708a1.157 1.157 0 01-1.155-1.155V10.93a1.157 1.157 0 011.155-1.155h7.731a1.333 1.333 0 000-2.666h-7.731a3.826 3.826 0 00-3.821 3.821v14.041a3.826 3.826 0 003.821 3.821h43.367a3.826 3.826 0 003.822-3.821zM27.993 65.406h-9.6a1.333 1.333 0 000 2.666h9.6a1.333 1.333 0 000-2.666zM19.284 51.365h2.577v2.577a1.333 1.333 0 002.666 0v-2.577h2.577a1.333 1.333 0 100-2.666h-2.577v-2.577a1.333 1.333 0 10-2.666 0v2.577h-2.577a1.333 1.333 0 100 2.666zM49.208 46.324a1.333 1.333 0 00-1.885 0l-1.822 1.822-1.822-1.822a1.333 1.333 0 10-1.885 1.885l1.822 1.822-1.822 1.822a1.333 1.333 0 101.885 1.885l1.822-1.822 1.822 1.822a1.333 1.333 0 001.885-1.885l-1.822-1.822 1.822-1.822a1.333 1.333 0 000-1.885zM42.504 71.12a1.33 1.33 0 00.943-.39l6.043-6.043a1.333 1.333 0 00-1.885-1.885l-6.043 6.043a1.333 1.333 0 00.943 2.276z"/><g transform="translate(41.497 62.471)"><circle cx="1.297" cy="1.297" r="1.297"/><circle cx="1.297" cy="1.297" r="1.297" transform="translate(5.187 6.484)"/></g><path d="M51.633 23.639a3.114 3.114 0 003.11-3.11v-5.155a3.114 3.114 0 00-3.11-3.11h-2.49a3.114 3.114 0 00-3.11 3.11v5.154a3.114 3.114 0 003.11 3.11zm-2.933-3.11v-5.155a.445.445 0 01.444-.444h2.489a.445.445 0 01.444.444v5.154a.445.445 0 01-.444.444h-2.49a.445.445 0 01-.444-.443z"/></symbol><symbol id="icon-totals-2" viewBox="0 0 86.169 91"><path d="M70.026 33.152a1.754 1.754 0 001.581-.017c1.416-.738 6.041-3.436 6.094-7.147a4.463 4.463 0 00-6.894-3.752 4.42 4.42 0 00-2.422-.72 4.6 4.6 0 00-4.478 4.426c-.077 3.851 4.664 6.492 6.119 7.21zm-1.653-8.97h.012a1.78 1.78 0 011.224.491 1.751 1.751 0 002.389 0 1.8 1.8 0 013.037 1.275c-.025 1.757-2.514 3.617-4.248 4.6-1.752-.943-4.251-2.76-4.215-4.551a1.892 1.892 0 011.801-1.815zM14.548 33.152a1.754 1.754 0 001.581-.017c1.416-.738 6.041-3.436 6.095-7.147a4.464 4.464 0 00-6.894-3.752 4.422 4.422 0 00-2.454-.72 4.529 4.529 0 00-4.446 4.426c-.077 3.852 4.663 6.493 6.119 7.211zm-1.653-8.97h.012a1.779 1.779 0 011.224.491 1.751 1.751 0 002.389 0 1.8 1.8 0 013.037 1.275c-.025 1.757-2.514 3.617-4.248 4.6-1.752-.943-4.251-2.76-4.215-4.551a1.891 1.891 0 011.801-1.816z"/><path d="M6.12 37.265h4.289a.57.57 0 01.405.167l2.9 2.9a2.293 2.293 0 003.218.011l2.959-2.911a.57.57 0 01.4-.165h4.237a4.77 4.77 0 004.77-4.767v-5a6.072 6.072 0 002.07.362h5.747a1.528 1.528 0 011.146.518l2.906 3.3a2.669 2.669 0 001.992.9h.011a2.669 2.669 0 001.988-.889l2.976-3.326a1.528 1.528 0 011.138-.509h5.683a6.076 6.076 0 001.879-.3V32.5a4.77 4.77 0 004.765 4.765h4.289a.57.57 0 01.405.167l2.9 2.9a2.293 2.293 0 003.218.011l2.959-2.912a.57.57 0 01.4-.165h4.237a4.77 4.77 0 004.765-4.765v-12.37a4.77 4.77 0 00-4.765-4.765H61.053V6.1a6.106 6.106 0 00-6.1-6.1H44.094a1.333 1.333 0 000 2.666h10.86A3.437 3.437 0 0158.387 6.1v15.666a3.437 3.437 0 01-3.433 3.434H49.27a4.2 4.2 0 00-3.125 1.4l-2.978 3.326-2.906-3.3a4.194 4.194 0 00-3.146-1.426h-5.747a3.437 3.437 0 01-3.433-3.433V6.1a3.437 3.437 0 013.433-3.433h6.506a1.333 1.333 0 100-2.666h-6.506a6.106 6.106 0 00-6.1 6.1v9.268H6.12a4.77 4.77 0 00-4.765 4.765V32.5a4.77 4.77 0 004.765 4.765zm73.891-19.232a2.1 2.1 0 012.1 2.1V32.5a2.1 2.1 0 01-2.1 2.1h-4.237a3.22 3.22 0 00-2.272.93l-2.691 2.648-2.637-2.631a3.218 3.218 0 00-2.288-.946h-4.289a2.1 2.1 0 01-2.1-2.1v-6.674a6.074 6.074 0 001.554-4.062v-3.732h18.96zm-75.99 2.1a2.1 2.1 0 012.1-2.1h19.148v3.733a6.07 6.07 0 001.363 3.834v6.9a2.1 2.1 0 01-2.1 2.1h-4.236a3.221 3.221 0 00-2.272.93l-2.691 2.648-2.637-2.631a3.218 3.218 0 00-2.288-.946H6.12a2.1 2.1 0 01-2.1-2.1v-12.37z"/><path d="M33.296 12.572c-.111 5.489 6.853 9.356 8.989 10.409a1.976 1.976 0 001.782-.019c2.084-1.086 8.891-5.043 8.967-10.344a6.137 6.137 0 00-9.867-4.875A6.1 6.1 0 0039.41 6.48a6.23 6.23 0 00-6.115 6.092zm6.134-3.426h.025a3.439 3.439 0 012.366.947 1.972 1.972 0 002.692 0 3.474 3.474 0 015.857 2.487c-.042 2.951-3.846 6.029-7.221 7.852-3.424-1.755-7.248-4.784-7.187-7.806a3.591 3.591 0 013.464-3.48zM85.364 80.742V61.325a14.5 14.5 0 00-21.107-12.9 1.333 1.333 0 101.218 2.371 11.7 11.7 0 015.4-1.3 11.84 11.84 0 0111.823 11.829V78.39c-.036-.016-.071-.034-.108-.049l-6.713-2.766v-2.606a15.772 15.772 0 004.534-10.444c0-4.867-2.167-8.691-5.8-10.229a1.335 1.335 0 00-1.033 0 1.387 1.387 0 00-.79.946 9.616 9.616 0 01-7.366 7.33l-3.051.653a1.546 1.546 0 00-1.051 1.57 15.809 15.809 0 004.537 10.2v2.589l-5.3 2.185a6.639 6.639 0 00-1.518-1.371V61.325a11.752 11.752 0 012.136-6.781 1.333 1.333 0 10-2.183-1.53 14.4 14.4 0 00-2.619 8.312v13.83l-7.295-3.006v-5.064c3.34-2.705 5.318-7.572 5.686-12.36 1.748-1.254 2.768-3.791 3.332-5.821a4.945 4.945 0 00-.649-4.072 4.886 4.886 0 00-2.008-1.723 5.112 5.112 0 00.06-1.359 5.063 5.063 0 00-7.216-4.115 5.867 5.867 0 00-8.031-2.43 5.067 5.067 0 00-7.941 2.419 6.665 6.665 0 00-4 10.622 16.836 16.836 0 00.227 3.453 6.343 6.343 0 003.112 4.369 21.841 21.841 0 00.509 2.582 1.405 1.405 0 001.627.952 1.333 1.333 0 00.952-1.627 19.191 19.191 0 01-.511-2.769c-.059-.515.134-.742 1.3-1.312a5.386 5.386 0 002.428-1.855 7.8 7.8 0 007.065-3.449 5.962 5.962 0 003.709.979 6.183 6.183 0 002.378 2.623c.794.547 1.039.717 1.043 1.723-.276 6.23-3.723 12.663-9.026 12.663a7.519 7.519 0 01-6.032-3.424 1.333 1.333 0 10-2.157 1.567 12.438 12.438 0 002.232 2.381v5.05l-8.834 3.64a6.664 6.664 0 00-2.666 2l-5.363-2.21v-4.1a15.523 15.523 0 004.327-6.78 1.332 1.332 0 00.933-.6c1.386-2.165 4.048-8.729-.22-13.051a6.613 6.613 0 00-5.984-1.683 4.216 4.216 0 00-.279-.513c-1.8-2.813-6.453-3.207-10.593-.9a1.333 1.333 0 101.3 2.328c3.105-1.732 6.152-1.4 7.049.007a2.908 2.908 0 01.065 2.448 7.157 7.157 0 01-4.364 4.215 15.652 15.652 0 00-6.027 3.941 12.139 12.139 0 01-.1-6.553 1.333 1.333 0 00-2.553-.77 14.608 14.608 0 001.177 10.635 1.333 1.333 0 00.965.6 15.566 15.566 0 004.291 6.654v4.11c-.122.054-6.659 2.737-6.788 2.8a5.76 5.76 0 00-3.5 5.311v4.2a3.116 3.116 0 003.112 3.112h79.942a3.116 3.116 0 003.112-3.112v-4.2a5.771 5.771 0 00-.8-2.944zm-34.5-33.06a1.333 1.333 0 00-1.7-.909 3.024 3.024 0 01-3.437-1.182 1.333 1.333 0 00-2.37.332 5.055 5.055 0 01-4.813 3.485 9.078 9.078 0 01-1.172-.154 1.333 1.333 0 00-1.552 1.022c-.115.522-.511.758-1.455 1.209a5.43 5.43 0 00-2.233 1.631 3.646 3.646 0 01-.988-1.91 14.892 14.892 0 01-.161-3.317 1.333 1.333 0 00-.351-1.01 4 4 0 012.814-6.711 1.333 1.333 0 001.288-1.208 2.4 2.4 0 014.3-1.221 1.333 1.333 0 001.939.2 3.2 3.2 0 015.284 2.042 1.333 1.333 0 002.351.7 2.378 2.378 0 012.067-.86 2.4 2.4 0 011.885 3.542 1.333 1.333 0 001.029 1.968 2.238 2.238 0 011.642.981 2.281 2.281 0 01.3 1.879 12.58 12.58 0 01-1.353 3.277 5.171 5.171 0 00-1.563-1.473 3.563 3.563 0 01-1.751-2.312zm15.121 15.489a12.293 12.293 0 008.9-7.652c1.813 1.415 2.858 3.922 2.858 7 0 4.784-4.163 10.318-6.879 10.318-2.517 0-6.276-4.711-6.814-9.254zM40.757 88.334a26.192 26.192 0 00-4.963-12.735l2.391-.985a7.444 7.444 0 004.938 1.876 7.446 7.446 0 004.941-1.875l2.353.97a26.205 26.205 0 00-5 12.75zm12.215-11.7l3.929 1.619a3.991 3.991 0 012.479 3.7v6.376H48.102a23.5 23.5 0 014.871-11.693zm-9.849-7.393a9.155 9.155 0 003.294-.6v3.87a4.783 4.783 0 01-3.293 1.313 4.782 4.782 0 01-3.292-1.312v-3.868a9.216 9.216 0 003.291.599zm-18.92 19.091h-2.325l2.325-2.7zm.016-6.8l-5.859 6.8h-6.067l-6.111-8.181 5.139-2.118a6.187 6.187 0 003.975 1.446 6.186 6.186 0 003.976-1.446l5.175 2.132a6.679 6.679 0 00-.228 1.367zm-.771-28.607c2.32 2.35 1.59 5.913.675 8.146a22.565 22.565 0 00-3.651-2.952 6.429 6.429 0 01-2.194-2.289 8.7 8.7 0 001.15-2.236 6.928 6.928 0 00.341-1.581 4.043 4.043 0 013.679.912zm-15.2 10.023a12.948 12.948 0 015.2-3.487 10.5 10.5 0 002.929-1.634 9.29 9.29 0 002.656 2.537 20.005 20.005 0 013.29 2.682c-1.028 4.377-4.612 8.02-7.028 8.02s-6.053-3.706-7.051-8.118zm7.049 10.777a6 6 0 002.341-.514v2.714a3.522 3.522 0 01-2.34.888 3.522 3.522 0 01-2.339-.889v-2.716a5.969 5.969 0 002.338.517zm-12.63 14.16v-4.2a3.1 3.1 0 011.072-2.351l5.227 7H3.111a.447.447 0 01-.446-.446zm24.2-5.93a3.991 3.991 0 012.479-3.7l3.9-1.605a23.5 23.5 0 014.827 11.684h-11.2v-6.376zm35.178 6.376v-6.376a6.7 6.7 0 00-.255-1.82l4.084-1.683c.052 3.358.363 6.888 2.231 9.879zm6.485-11.869v-1.537a5.012 5.012 0 004.679 0v1.547c0 4 0 8.128-2.34 11.17-2.339-3.037-2.34-7.169-2.34-11.174a.015.015 0 00.003-.003zm14.971 11.422a.447.447 0 01-.446.446h-9.42c1.869-2.994 2.18-6.522 2.232-9.879l5.708 2.352a3.1 3.1 0 011.928 2.88z"/></symbol><symbol id="icon-totals-3" viewBox="0 0 101 101"><path d="M94.266 20.2a6.733 6.733 0 106.733 6.733 6.74 6.74 0 00-6.733-6.733zm0 10.1a3.367 3.367 0 113.367-3.367 3.37 3.37 0 01-3.367 3.367zM6.733 75.75a6.733 6.733 0 106.733 6.733 6.74 6.74 0 00-6.733-6.733zm0 10.1a3.367 3.367 0 113.367-3.367 3.37 3.37 0 01-3.367 3.367z"/><path d="M91.003 22.327L76.48 15.316a1.683 1.683 0 00-1.463 3.032l14.523 7.008a1.683 1.683 0 001.463-3.032zM75.75 87.533a6.733 6.733 0 106.733 6.733 6.74 6.74 0 00-6.733-6.733zm0 10.1a3.367 3.367 0 113.367-3.367 3.37 3.37 0 01-3.367 3.367z"/><path d="M72.486 89.658l-14.522-7.011a1.683 1.683 0 00-1.463 3.032l14.522 7.011a1.683 1.683 0 001.463-3.032zM50.5 45.45a6.733 6.733 0 106.733 6.733A6.74 6.74 0 0050.5 45.45zm0 10.1a3.367 3.367 0 113.367-3.367A3.37 3.37 0 0150.5 55.55z"/><path d="M47.541 47.766l-11.155-8.694a1.684 1.684 0 10-2.07 2.656l11.155 8.694a1.684 1.684 0 102.07-2.656zM80.8 43.767a18.517 18.517 0 1018.517 18.517A18.539 18.539 0 0080.8 43.767zm0 33.667a15.15 15.15 0 1115.15-15.15 15.166 15.166 0 01-15.15 15.15z"/><path d="M80.8 50.5a6.733 6.733 0 106.733 6.733A6.74 6.74 0 0080.8 50.5zm0 10.1a3.367 3.367 0 113.367-3.367A3.37 3.37 0 0180.8 60.6zM85.683 67.333h-9.767a5.154 5.154 0 00-5.217 5.075v4.437a1.685 1.685 0 00.84 1.458 18.423 18.423 0 0018.52 0 1.682 1.682 0 00.84-1.456V72.41a5.154 5.154 0 00-5.216-5.077zm1.85 8.509a15.264 15.264 0 01-13.467 0V72.41a1.786 1.786 0 011.85-1.71h9.767a1.786 1.786 0 011.85 1.71v3.432zM40.4 63.967a18.517 18.517 0 1018.517 18.517A18.539 18.539 0 0040.4 63.967zm0 33.667a15.15 15.15 0 1115.15-15.15 15.166 15.166 0 01-15.15 15.15z"/><path d="M40.4 70.7a6.733 6.733 0 106.733 6.733A6.74 6.74 0 0040.4 70.7zm0 10.1a3.367 3.367 0 113.367-3.367A3.37 3.37 0 0140.4 80.8zM45.283 87.533h-9.767a5.154 5.154 0 00-5.217 5.075v4.437a1.685 1.685 0 00.84 1.458 18.423 18.423 0 0018.52 0 1.682 1.682 0 00.84-1.456V92.61a5.154 5.154 0 00-5.216-5.077zm1.85 8.509a15.264 15.264 0 01-13.467 0V92.61a1.786 1.786 0 011.85-1.71h9.767a1.787 1.787 0 011.85 1.71v3.432zM18.517 21.883A18.517 18.517 0 1037.033 40.4a18.539 18.539 0 00-18.516-18.517zm0 33.667a15.15 15.15 0 1115.15-15.15 15.166 15.166 0 01-15.15 15.15z"/><path d="M18.516 28.617a6.733 6.733 0 106.733 6.733 6.74 6.74 0 00-6.733-6.733zm0 10.1a3.367 3.367 0 113.367-3.367 3.37 3.37 0 01-3.367 3.367zM23.4 45.45h-9.766a5.154 5.154 0 00-5.217 5.075v4.437a1.685 1.685 0 00.84 1.458 18.423 18.423 0 0018.52 0 1.682 1.682 0 00.84-1.456v-4.437A5.154 5.154 0 0023.4 45.45zm1.85 8.509a15.264 15.264 0 01-13.467 0v-3.432a1.786 1.786 0 011.85-1.71H23.4a1.787 1.787 0 011.85 1.71v3.432zM58.917 0a18.517 18.517 0 1018.517 18.517A18.539 18.539 0 0058.917 0zm0 33.667a15.15 15.15 0 1115.15-15.15 15.166 15.166 0 01-15.15 15.15z"/><path d="M58.916 6.733a6.733 6.733 0 106.733 6.733 6.74 6.74 0 00-6.733-6.733zm0 10.1a3.367 3.367 0 113.367-3.367 3.37 3.37 0 01-3.367 3.367zM63.8 23.567h-9.767a5.154 5.154 0 00-5.217 5.075v4.437a1.685 1.685 0 00.84 1.458 18.423 18.423 0 0018.52 0 1.682 1.682 0 00.84-1.456v-4.437a5.154 5.154 0 00-5.216-5.077zm1.85 8.509a15.264 15.264 0 01-13.467 0v-3.432a1.786 1.786 0 011.85-1.71H63.8a1.786 1.786 0 011.85 1.71v3.432zM43.365 17.421a1.686 1.686 0 00-2.373-.183L29.325 27.22a1.683 1.683 0 102.188 2.557l11.665-9.982a1.683 1.683 0 00.187-2.374z"/><path d="M80.463 44.442l-10.1-13.467a1.683 1.683 0 00-2.693 2.018l10.1 13.467a1.683 1.683 0 002.693-2.018zM66.648 67.85a1.684 1.684 0 00-2.357-.337l-9.4 7.051a1.683 1.683 0 002.02 2.691l9.4-7.051a1.681 1.681 0 00.337-2.354zM23.567 80.8H11.783a1.683 1.683 0 100 3.367h11.784a1.683 1.683 0 000-3.367zM18.516 0a6.733 6.733 0 106.734 6.733A6.74 6.74 0 0018.516 0zm0 10.1a3.367 3.367 0 113.367-3.367 3.37 3.37 0 01-3.367 3.367z"/><path d="M18.516 10.1a1.683 1.683 0 00-1.683 1.683v11.784a1.683 1.683 0 103.367 0V11.783a1.683 1.683 0 00-1.684-1.683z"/></symbol><symbol id="icon-totals-4" viewBox="0 0 91 89.635"><path d="M17.77 7.305h9.714V4.413a4.413 4.413 0 018.827 0v2.892h9.709V4.413a4.414 4.414 0 018.827 0v2.892h9.713V4.449a4.414 4.414 0 018.827 0v2.857h1.461a7.491 7.491 0 017.482 7.476v13.89a1.335 1.335 0 01-2.67 0v-3.844H44.185a1.333 1.333 0 110-2.665h35.474v-7.381a4.825 4.825 0 00-4.812-4.811h-1.461v2.852a4.414 4.414 0 01-8.827 0V9.971h-9.714v2.816a4.414 4.414 0 01-8.827 0V9.971H36.31v2.816a4.413 4.413 0 01-8.827 0V9.971H17.77v2.816a4.413 4.413 0 01-8.827 0V9.971H7.477a4.834 4.834 0 00-4.811 4.811v7.377h35.478a1.333 1.333 0 110 2.665H2.665v39.368a1.333 1.333 0 01-2.665 0v-49.41a7.491 7.491 0 017.476-7.477h1.467V4.414a4.414 4.414 0 018.827 0zm53.123 51.813a1.333 1.333 0 012.665 0v11.741a1.311 1.311 0 01-.378.927l-8.147 9.582A1.331 1.331 0 1163 79.649l7.89-9.275zm-8.127-1.3a1.334 1.334 0 11-1.566-2.159 18.782 18.782 0 0118.455-2.046v-18.9a1.335 1.335 0 012.67 0v20.314a18.911 18.911 0 013.175 2.554 18.777 18.777 0 11-29.818 22.164H6.933A6.941 6.941 0 010 72.817v-2.59a1.333 1.333 0 012.665 0v2.59a4.284 4.284 0 004.268 4.262H54.5a18.764 18.764 0 012.192-16.772 1.331 1.331 0 112.2 1.5 15.92 15.92 0 00-2.776 9.052 16.133 16.133 0 106.65-13.044zm-5.834-27.332h15.739a1.333 1.333 0 011.335 1.33v15.743a1.334 1.334 0 01-1.335 1.335H56.932a1.334 1.334 0 01-1.332-1.335V31.816a1.333 1.333 0 011.335-1.33zm14.409 2.665H58.267v13.075h13.074zM33.292 53.017h15.74a1.334 1.334 0 011.335 1.335v15.74a1.334 1.334 0 01-1.335 1.335h-15.74a1.333 1.333 0 01-1.33-1.335v-15.74a1.333 1.333 0 011.33-1.335zm14.408 2.67H34.628v13.072H47.7zm-14.409-25.2h15.741a1.33 1.33 0 011.335 1.33v15.742a1.331 1.331 0 01-1.335 1.335h-15.74a1.33 1.33 0 01-1.33-1.335V31.816a1.329 1.329 0 011.33-1.33zM47.7 33.151H34.628v13.075H47.7zM9.653 53.017H25.4a1.333 1.333 0 011.33 1.335v15.74a1.333 1.333 0 01-1.33 1.335H9.653a1.333 1.333 0 01-1.33-1.335v-15.74a1.333 1.333 0 011.33-1.335zm14.409 2.67H10.988v13.072h13.074zM9.653 30.486H25.4a1.329 1.329 0 011.33 1.33v15.743a1.33 1.33 0 01-1.33 1.335H9.653a1.33 1.33 0 01-1.33-1.335V31.816a1.329 1.329 0 011.33-1.33zm14.409 2.665H10.988v13.075h13.074zM68.973 2.705a1.754 1.754 0 00-1.748 1.744v8.374a1.746 1.746 0 003.492 0V4.449a1.755 1.755 0 00-1.743-1.743zm-54.382.474a1.748 1.748 0 00-2.983 1.234v8.374a1.75 1.75 0 003.5 0V4.413a1.745 1.745 0 00-.517-1.234zM31.9 2.665a1.754 1.754 0 00-1.748 1.748v8.374a1.746 1.746 0 003.491 0V4.413A1.755 1.755 0 0031.9 2.665zm18.535 0a1.755 1.755 0 00-1.748 1.748v8.374a1.75 1.75 0 003.5 0V4.413a1.755 1.755 0 00-1.748-1.748z"/></symbol><symbol id="icon-totals-5" viewBox="0 0 107.377 105.231"><path d="M88.607 55.68a1.563 1.563 0 00-1.563 1.563 1.984 1.984 0 01-3.968 0 1.563 1.563 0 00-3.125 0 5.11 5.11 0 1010.219 0 1.562 1.562 0 00-1.563-1.563z"/><path d="M103.276 55.936l-4.4-1.409a1.84 1.84 0 01-1.187-1.2 28.358 28.358 0 00-4.158-8.224 30.178 30.178 0 00-2.778-3.276 38.761 38.761 0 00.956-8.851c-.065-3.982-.861-6.317-2.432-7.14-.846-.444-3.422-1.792-17.361 4.589a5.072 5.072 0 00-.924.55c-.94-.253-1.9-.486-2.867-.7-.116-.025-.236-.048-.354-.073a21.288 21.288 0 001.915-7.917 1.563 1.563 0 00-3.122-.14 18.182 18.182 0 01-11.9 16.257 45.317 45.317 0 00-12.578 0 18.2 18.2 0 1122.558-25.259 1.563 1.563 0 002.792-1.406 21.33 21.33 0 10-30.375 27.672q-1.457.379-2.89.855a1.563 1.563 0 00.991 2.964 41.937 41.937 0 0126.432 0 1.563 1.563 0 00.991-2.964q-1.43-.478-2.89-.855a21.308 21.308 0 006.487-6.342c.431.084.858.171 1.28.263q.842.183 1.674.39l-.05.2a18.637 18.637 0 00.147 9.507 11.314 11.314 0 004.144 5.825 13.146 13.146 0 007.692 2.441 10.311 10.311 0 004.985-1.153c1.469-.832 2.7-2.585 3.674-5.217q.675.788 1.279 1.615a25.232 25.232 0 013.7 7.319 4.97 4.97 0 003.215 3.242l4.4 1.409a2.767 2.767 0 011.929 2.644v7.293a2.767 2.767 0 01-1.929 2.644l-7.086 2.27a4.828 4.828 0 00-2.7 2.194 31.147 31.147 0 01-13.01 11.834 2.448 2.448 0 00-1.285 1.726l-2.271 12.022a.7.7 0 01-.69.571H67.9a.7.7 0 01-.69-.571l-1.257-6.642a2.455 2.455 0 00-2.792-1.975 65.324 65.324 0 01-9.735.724 62.3 62.3 0 01-7.162-.4 2.475 2.475 0 00-2.708 1.986l-1.195 6.311a.7.7 0 01-.69.571h-7.378a.7.7 0 01-.691-.576l-2.185-11.355a2.453 2.453 0 00-1.261-1.706c-9.971-5.323-15.241-14.216-15.241-25.717a30.041 30.041 0 013.779-15.271 27.265 27.265 0 0110.156-9.918 1.563 1.563 0 00-1.565-2.706 29.744 29.744 0 00-15.093 22.224l-.451-.042a7.781 7.781 0 00-.573-3.118 6.4 6.4 0 00-4.745-4.144 4.319 4.319 0 00-4.066 1.804c-1.491 1.97-1.248 3.529-.782 4.49.787 1.622 2.81 2.769 6.168 3.49q-.138.207-.3.417A7.668 7.668 0 011.6 63.074 1.641 1.641 0 000 64.707v.008a1.636 1.636 0 001.568 1.632q.168.008.351.008c1.92 0 5-.708 7.963-4.421a8.912 8.912 0 001.141-1.843q.442.05.85.087a41.26 41.26 0 00-.083 2.58 32.2 32.2 0 004.61 17.243 31.593 31.593 0 0012.008 11.084l2.124 11.035a3.83 3.83 0 003.761 3.116h7.379a3.83 3.83 0 003.761-3.116l1.08-5.706a65.856 65.856 0 006.913.358A68.652 68.652 0 0063 96.1l1.139 6.016a3.831 3.831 0 003.76 3.115h7.381a3.831 3.831 0 003.761-3.116l2.21-11.7A34.071 34.071 0 0095.24 77.522a1.708 1.708 0 01.95-.783l7.086-2.27a5.884 5.884 0 004.1-5.621v-7.292a5.883 5.883 0 00-4.1-5.62zM88.351 37.363c-.6 5.144-2.215 9.544-3.836 10.462-1.843 1.044-6.1 1.245-9.291-1.091s-4.262-6.549-3.078-12.165a1.885 1.885 0 011.073-1.306c7.823-3.581 12.334-4.752 14.01-4.752a1.634 1.634 0 01.567.076c.504.536 1.162 3.585.555 8.776zM4.388 54.713c-.162-.333.22-.92.462-1.24a1.247 1.247 0 011-.61 1.173 1.173 0 01.157.011 3.406 3.406 0 012.262 2.211A4.745 4.745 0 018.6 56.56c-2.167-.448-3.848-1.094-4.212-1.847z"/><path d="M49.896 19.538v-5.592c1.928.138 2.645 1.019 3.306 1.019.827 0 1.212-1.047 1.212-1.57 0-1.35-2.645-1.928-4.518-1.984v-.744c0-.331-.413-.634-.827-.634a.727.727 0 00-.8.634v.8c-2.617.276-5.234 1.653-5.234 5.124 0 3.526 2.755 4.518 5.234 5.4v6.474c-2.81-.22-3.554-2.149-4.463-2.149-.689 0-1.267.909-1.267 1.57 0 1.35 2.314 3.2 5.73 3.251v.854a.727.727 0 00.8.634c.413 0 .827-.3.827-.634v-.937a5.337 5.337 0 005.014-5.675c0-3.747-2.614-4.959-5.014-5.841zm-1.46-.523c-1.46-.551-2.645-1.129-2.645-2.7 0-1.433 1.1-2.121 2.645-2.314zm1.295 9.394v-5.813c1.35.578 2.424 1.35 2.424 3.085a2.62 2.62 0 01-2.424 2.728z"/></symbol><symbol id="icon-totals-6" viewBox="0 0 92.734 92.731"><path d="M29.462 36.152a1.542 1.542 0 00-1.273-.839l-13-.867a1.517 1.517 0 00-1.542.978L4.274 59.378a1.545 1.545 0 002.366 1.8l7.78-5.834 4.53.906a1.545 1.545 0 001.746-.964 100.433 100.433 0 018.7-17.609 1.546 1.546 0 00.066-1.525zM18.281 52.963l-3.935-.787a1.557 1.557 0 00-1.23.28L9.13 55.445l6.981-17.841 9.331.621a104.372 104.372 0 00-7.161 14.738zM58.289 77.547l-.867-13a1.546 1.546 0 00-2.365-1.207 100.483 100.483 0 01-17.609 8.7 1.543 1.543 0 00-.964 1.746l.906 4.53-5.834 7.778a1.546 1.546 0 001.236 2.474 1.635 1.635 0 00.564-.1l23.954-9.373a1.546 1.546 0 00.979-1.548zm-21 6.053l2.989-3.986a1.546 1.546 0 00.278-1.23l-.787-3.933a104.284 104.284 0 0014.737-7.162l.623 9.33zM44.818 46.367H34.405a1.548 1.548 0 00-1.351.794l-13.07 23.485a1.545 1.545 0 001.351 2.3 1.525 1.525 0 00.8-.224L45.62 58.51a1.544 1.544 0 00.745-1.321v-9.273a1.546 1.546 0 00-1.547-1.549zm-1.545 9.948L25.517 67.06l9.8-17.6h7.961z"/><path d="M92.655 1.489a1.547 1.547 0 00-1.41-1.413c-.513-.04-51.406-3.593-73.435 54.1a1.544 1.544 0 00.351 1.644l7.349 7.349a1.545 1.545 0 002.447-.348l7.362-13.368h7.956v6.876L29.827 64.82a1.546 1.546 0 00-.267 2.4l7.349 7.349a1.543 1.543 0 001.093.453 1.522 1.522 0 00.552-.1C96.245 52.894 92.698 1.999 92.655 1.489zm-8.11 27.419c-5.423 13.417-17.833 31.658-46.169 42.769l-5.27-5.27 12.539-7.908a1.549 1.549 0 00.72-1.307v-9.278a1.546 1.546 0 00-1.545-1.545H34.401a1.547 1.547 0 00-1.354.8l-6.811 12.367-5.182-5.183C40.393 5.019 81.613 2.999 89.626 3.113a68.493 68.493 0 01-5.081 25.795zM26.473 68.258a1.541 1.541 0 00-1.394-.606 1.547 1.547 0 00-.606-1.394 9.666 9.666 0 00-8.254-1.609 10.4 10.4 0 00-6.944 5.8l-9.137 20.1a1.545 1.545 0 002.046 2.046l20.1-9.138a10.391 10.391 0 005.794-6.942 9.663 9.663 0 00-1.605-8.257zm-1.388 7.494a7.321 7.321 0 01-4.077 4.89l-16.35 7.432 7.432-16.352a7.317 7.317 0 014.89-4.077 6.994 6.994 0 011.718-.216 6.522 6.522 0 012.762.606l-1.471 2.6a1.546 1.546 0 002.106 2.106l2.6-1.473a6.7 6.7 0 01.391 4.484z"/><path d="M92.656 1.494A1.548 1.548 0 0091.243.078c-.6-.048-14.929-1.133-31.777 6.628a1.545 1.545 0 00-.447 2.5L83.53 33.717a1.546 1.546 0 001.093.453 1.639 1.639 0 00.273-.023 1.547 1.547 0 001.131-.875c7.763-16.853 6.68-31.178 6.629-31.778zm-8.534 28.441L62.801 8.61a68.772 68.772 0 0126.827-5.5 68.592 68.592 0 01-5.506 26.821zM68.253 24.479a13.323 13.323 0 100 18.85 13.343 13.343 0 000-18.85zm-2.185 16.666a10.233 10.233 0 110-14.479 10.25 10.25 0 010 14.479z"/><path d="M61.9 36.977a4.346 4.346 0 110-6.146 1.545 1.545 0 002.185-2.185 7.433 7.433 0 100 10.517 1.545 1.545 0 10-2.185-2.185z"/></symbol> <view id="icon-arr-left-small-view-green" viewBox="0 0 24.703 16.469"/><view id="icon-arr-left-small-view-black" viewBox="0 26.469 24.703 16.469"/><view id="icon-arr-left-small-view-white" viewBox="0 52.938 24.703 16.469"/><view id="icon-call-view-green" viewBox="0 79.40700000000001 23.601 23.599"/><view id="icon-call-view-black" viewBox="0 113.00600000000001 23.601 23.599"/><view id="icon-call-view-white" viewBox="0 146.60500000000002 23.601 23.599"/><view id="icon-cat-1-view-green" viewBox="0 180.204 32.434 33"/><view id="icon-cat-1-view-black" viewBox="0 223.204 32.434 33"/><view id="icon-cat-1-view-white" viewBox="0 266.204 32.434 33"/><view id="icon-cat-2-view-green" viewBox="0 309.204 26.842 33"/><view id="icon-cat-2-view-black" viewBox="0 352.204 26.842 33"/><view id="icon-cat-2-view-white" viewBox="0 395.204 26.842 33"/><view id="icon-cat-3-view-green" viewBox="0 438.204 34.862 33"/><view id="icon-cat-3-view-black" viewBox="0 481.204 34.862 33"/><view id="icon-cat-3-view-white" viewBox="0 524.204 34.862 33"/><view id="icon-cat-4-view-green" viewBox="0 567.204 35.873 32.776"/><view id="icon-cat-4-view-black" viewBox="0 609.9799999999999 35.873 32.776"/><view id="icon-cat-4-view-white" viewBox="0 652.756 35.873 32.776"/><view id="icon-cat-5-view-green" viewBox="0 695.5319999999999 32.778 32.776"/><view id="icon-cat-5-view-black" viewBox="0 738.3079999999999 32.778 32.776"/><view id="icon-cat-5-view-white" viewBox="0 781.084 32.778 32.776"/><view id="icon-cat-6-view-green" viewBox="0 823.8599999999999 31.759 31.681"/><view id="icon-cat-6-view-black" viewBox="0 865.5409999999999 31.759 31.681"/><view id="icon-cat-6-view-white" viewBox="0 907.2219999999999 31.759 31.681"/><view id="icon-email-view-green" viewBox="0 948.9029999999999 24.904 24.903"/><view id="icon-email-view-black" viewBox="0 983.8059999999999 24.904 24.903"/><view id="icon-email-view-white" viewBox="0 1018.709 24.904 24.903"/><view id="icon-smart-view-green" viewBox="0 1053.6119999999999 23.768 30.989"/><view id="icon-smart-view-black" viewBox="0 1094.6009999999999 23.768 30.989"/><view id="icon-smart-view-white" viewBox="0 1135.59 23.768 30.989"/><view id="icon-totals-1-view-green" viewBox="0 1176.579 91 91"/><view id="icon-totals-1-view-black" viewBox="0 1277.579 91 91"/><view id="icon-totals-1-view-white" viewBox="0 1378.579 91 91"/><view id="icon-totals-2-view-green" viewBox="0 1479.579 86.169 91"/><view id="icon-totals-2-view-black" viewBox="0 1580.579 86.169 91"/><view id="icon-totals-2-view-white" viewBox="0 1681.579 86.169 91"/><view id="icon-totals-3-view-green" viewBox="0 1782.579 101 101"/><view id="icon-totals-3-view-black" viewBox="0 1893.579 101 101"/><view id="icon-totals-3-view-white" viewBox="0 2004.579 101 101"/><view id="icon-totals-4-view-green" viewBox="0 2115.5789999999997 91 89.635"/><view id="icon-totals-4-view-black" viewBox="0 2215.214 91 89.635"/><view id="icon-totals-4-view-white" viewBox="0 2314.8489999999997 91 89.635"/><view id="icon-totals-5-view-green" viewBox="0 2414.484 107.377 105.231"/><view id="icon-totals-5-view-black" viewBox="0 2529.715 107.377 105.231"/><view id="icon-totals-5-view-white" viewBox="0 2644.946 107.377 105.231"/><view id="icon-totals-6-view-green" viewBox="0 2760.1769999999997 92.734 92.731"/><view id="icon-totals-6-view-black" viewBox="0 2862.9079999999994 92.734 92.731"/><view id="icon-totals-6-view-white" viewBox="0 2965.6389999999997 92.734 92.731"/> <use xlink:href="#icon-arr-left-small" x="0" y="0" width="24.703" height="16.469" style="fill:#00BCD0"/><use xlink:href="#icon-arr-left-small" x="0" y="26.469" width="24.703" height="16.469" style="fill:#222222"/><use xlink:href="#icon-arr-left-small" x="0" y="52.938" width="24.703" height="16.469" style="fill:#ffffff"/><use xlink:href="#icon-call" x="0" y="79.40700000000001" width="23.601" height="23.599" style="fill:#00BCD0"/><use xlink:href="#icon-call" x="0" y="113.00600000000001" width="23.601" height="23.599" style="fill:#222222"/><use xlink:href="#icon-call" x="0" y="146.60500000000002" width="23.601" height="23.599" style="fill:#ffffff"/><use xlink:href="#icon-cat-1" x="0" y="180.204" width="32.434" height="33" style="fill:#00BCD0"/><use xlink:href="#icon-cat-1" x="0" y="223.204" width="32.434" height="33" style="fill:#222222"/><use xlink:href="#icon-cat-1" x="0" y="266.204" width="32.434" height="33" style="fill:#ffffff"/><use xlink:href="#icon-cat-2" x="0" y="309.204" width="26.842" height="33" style="fill:#00BCD0"/><use xlink:href="#icon-cat-2" x="0" y="352.204" width="26.842" height="33" style="fill:#222222"/><use xlink:href="#icon-cat-2" x="0" y="395.204" width="26.842" height="33" style="fill:#ffffff"/><use xlink:href="#icon-cat-3" x="0" y="438.204" width="34.862" height="33" style="fill:#00BCD0"/><use xlink:href="#icon-cat-3" x="0" y="481.204" width="34.862" height="33" style="fill:#222222"/><use xlink:href="#icon-cat-3" x="0" y="524.204" width="34.862" height="33" style="fill:#ffffff"/><use xlink:href="#icon-cat-4" x="0" y="567.204" width="35.873" height="32.776" style="fill:#00BCD0"/><use xlink:href="#icon-cat-4" x="0" y="609.9799999999999" width="35.873" height="32.776" style="fill:#222222"/><use xlink:href="#icon-cat-4" x="0" y="652.756" width="35.873" height="32.776" style="fill:#ffffff"/><use xlink:href="#icon-cat-5" x="0" y="695.5319999999999" width="32.778" height="32.776" style="fill:#00BCD0"/><use xlink:href="#icon-cat-5" x="0" y="738.3079999999999" width="32.778" height="32.776" style="fill:#222222"/><use xlink:href="#icon-cat-5" x="0" y="781.084" width="32.778" height="32.776" style="fill:#ffffff"/><use xlink:href="#icon-cat-6" x="0" y="823.8599999999999" width="31.759" height="31.681" style="fill:#00BCD0"/><use xlink:href="#icon-cat-6" x="0" y="865.5409999999999" width="31.759" height="31.681" style="fill:#222222"/><use xlink:href="#icon-cat-6" x="0" y="907.2219999999999" width="31.759" height="31.681" style="fill:#ffffff"/><use xlink:href="#icon-email" x="0" y="948.9029999999999" width="24.904" height="24.903" style="fill:#00BCD0"/><use xlink:href="#icon-email" x="0" y="983.8059999999999" width="24.904" height="24.903" style="fill:#222222"/><use xlink:href="#icon-email" x="0" y="1018.709" width="24.904" height="24.903" style="fill:#ffffff"/><use xlink:href="#icon-smart" x="0" y="1053.6119999999999" width="23.768" height="30.989" style="fill:#00BCD0"/><use xlink:href="#icon-smart" x="0" y="1094.6009999999999" width="23.768" height="30.989" style="fill:#222222"/><use xlink:href="#icon-smart" x="0" y="1135.59" width="23.768" height="30.989" style="fill:#ffffff"/><use xlink:href="#icon-totals-1" x="0" y="1176.579" width="91" height="91" style="fill:#00BCD0"/><use xlink:href="#icon-totals-1" x="0" y="1277.579" width="91" height="91" style="fill:#222222"/><use xlink:href="#icon-totals-1" x="0" y="1378.579" width="91" height="91" style="fill:#ffffff"/><use xlink:href="#icon-totals-2" x="0" y="1479.579" width="86.169" height="91" style="fill:#00BCD0"/><use xlink:href="#icon-totals-2" x="0" y="1580.579" width="86.169" height="91" style="fill:#222222"/><use xlink:href="#icon-totals-2" x="0" y="1681.579" width="86.169" height="91" style="fill:#ffffff"/><use xlink:href="#icon-totals-3" x="0" y="1782.579" width="101" height="101" style="fill:#00BCD0"/><use xlink:href="#icon-totals-3" x="0" y="1893.579" width="101" height="101" style="fill:#222222"/><use xlink:href="#icon-totals-3" x="0" y="2004.579" width="101" height="101" style="fill:#ffffff"/><use xlink:href="#icon-totals-4" x="0" y="2115.5789999999997" width="91" height="89.635" style="fill:#00BCD0"/><use xlink:href="#icon-totals-4" x="0" y="2215.214" width="91" height="89.635" style="fill:#222222"/><use xlink:href="#icon-totals-4" x="0" y="2314.8489999999997" width="91" height="89.635" style="fill:#ffffff"/><use xlink:href="#icon-totals-5" x="0" y="2414.484" width="107.377" height="105.231" style="fill:#00BCD0"/><use xlink:href="#icon-totals-5" x="0" y="2529.715" width="107.377" height="105.231" style="fill:#222222"/><use xlink:href="#icon-totals-5" x="0" y="2644.946" width="107.377" height="105.231" style="fill:#ffffff"/><use xlink:href="#icon-totals-6" x="0" y="2760.1769999999997" width="92.734" height="92.731" style="fill:#00BCD0"/><use xlink:href="#icon-totals-6" x="0" y="2862.9079999999994" width="92.734" height="92.731" style="fill:#222222"/><use xlink:href="#icon-totals-6" x="0" y="2965.6389999999997" width="92.734" height="92.731" style="fill:#ffffff"/></svg>