<svg xmlns="http://www.w3.org/2000/svg" width="223.841" height="29.922" viewBox="0 0 223.841 29.922"><defs><style>.a{fill:#fff;}.b{fill:#00bcd0;}</style></defs><g transform="translate(-140 -41.098)"><path class="a" d="M2.49,8.622V-20.887H15.078q8.419,0,8.419,7.078,0,5.757-8.234,8.523L25.4,8.622H20.361L10.972-4.647v-2.5q8.461-1.341,8.461-6.5,0-4.086-4.7-4.086H6.308V8.622ZM32.412-6.215q0,11.948,10.793,11.948,10.566,0,10.566-11.948Q53.771-18,43.2-18,32.412-18,32.412-6.215Zm-4.024.124q0-15,14.817-15,14.59,0,14.59,15,0,14.92-14.59,14.92Q28.388,8.828,28.388-6.091ZM86.066,7.59a26.611,26.611,0,0,1-8.254,1.238q-15.477,0-15.477-15.374,0-14.548,15.477-14.548a26.611,26.611,0,0,1,8.254,1.238v3.3A21.985,21.985,0,0,0,78.224-18Q66.152-18,66.152-6.545q0,12.278,12.072,12.278a21.985,21.985,0,0,0,7.842-1.445ZM95.352-6.215q0,11.948,10.793,11.948,10.566,0,10.566-11.948Q116.71-18,106.145-18,95.352-18,95.352-6.215Zm-4.024.124q0-15,14.817-15,14.59,0,14.59,15,0,14.92-14.59,14.92Q91.328,8.828,91.328-6.091ZM126.719,8.622V-20.887h3.818L148.593,2.885V-20.887H152.2V8.622h-3.818L130.33-15.357V8.622Zm52.415-29.509v3.1h-9.286V8.622H166.03V-17.792h-9.286v-3.1Z" transform="translate(184.707 62.192)"/><g transform="translate(140 41.098)"><path class="a" d="M25.717,8.975V-20.947H12.953q-8.537,0-8.537,7.177,0,5.838,8.349,8.642L2.49,8.975H7.6L17.117-4.48V-7.012Q8.537-8.372,8.537-13.6q0-4.143,4.771-4.143h8.537V8.975Z" transform="translate(-2.49 20.947)"/><path class="b" d="M2.49,8.975V-20.947H15.254q8.537,0,8.537,7.177,0,5.838-8.349,8.642l10.274,14.1H20.611L10.693-4.477V-7.009c5.719-.907,8.976-3.107,8.976-6.594q0-4.143-4.771-4.143H6.361V8.975Z" transform="translate(8.665 20.947)"/></g></g></svg>