<svg xmlns="http://www.w3.org/2000/svg" width="493.552" height="369.8" viewBox="0 0 493.552 369.8">
  <g id="undraw_Images_re_0kll" transform="translate(0 -0.004)" opacity="0.2">
    <path id="Path_1635" data-name="Path 1635" d="M733.711,563.192H362.228a21.338,21.338,0,0,1-21.314-21.313V343.6a21.338,21.338,0,0,1,21.314-21.314H733.711A21.338,21.338,0,0,1,755.025,343.6V541.878A21.338,21.338,0,0,1,733.711,563.192Z" transform="translate(-261.472 -219.869)" fill="#fff"/>
    <path id="Path_1636" data-name="Path 1636" d="M733.711,563.192H362.228a21.338,21.338,0,0,1-21.314-21.313V343.6a21.338,21.338,0,0,1,21.314-21.314H733.711A21.338,21.338,0,0,1,755.025,343.6V541.878A21.338,21.338,0,0,1,733.711,563.192ZM362.227,323.576A20.045,20.045,0,0,0,342.205,343.6V541.878A20.044,20.044,0,0,0,362.227,561.9H733.711a20.044,20.044,0,0,0,20.022-20.022V343.6a20.045,20.045,0,0,0-20.022-20.022Z" transform="translate(-261.472 -219.869)" fill="#f2f2f2"/>
    <path id="Path_1637" data-name="Path 1637" d="M742.211,556.19H370.727a5.819,5.819,0,0,1-5.813-5.813V352.1a5.819,5.819,0,0,1,5.813-5.813H742.211a5.819,5.819,0,0,1,5.813,5.813V550.377A5.819,5.819,0,0,1,742.211,556.19ZM370.726,347.576a4.526,4.526,0,0,0-4.521,4.521V550.377a4.526,4.526,0,0,0,4.521,4.521H742.211a4.526,4.526,0,0,0,4.521-4.521V352.1a4.526,4.526,0,0,0-4.521-4.521Z" transform="translate(-269.971 -228.368)" fill="#f2f2f2"/>
    <path id="Path_1638" data-name="Path 1638" d="M597.117,492.483,238.035,397.3a21.338,21.338,0,0,1-15.141-26.063L273.7,179.572a21.338,21.338,0,0,1,26.063-15.141l359.082,95.186a21.338,21.338,0,0,1,15.141,26.063L623.181,477.342a21.338,21.338,0,0,1-26.063,15.141Z" transform="translate(-219.425 -163.716)" fill="#f2f2f2"/>
    <path id="Path_1639" data-name="Path 1639" d="M597.117,492.483,238.035,397.3a21.338,21.338,0,0,1-15.141-26.063L273.7,179.572a21.338,21.338,0,0,1,26.063-15.141l359.082,95.186a21.338,21.338,0,0,1,15.141,26.063L623.181,477.342a21.338,21.338,0,0,1-26.063,15.141ZM299.432,165.68A20.045,20.045,0,0,0,274.949,179.9L224.143,371.564a20.045,20.045,0,0,0,14.223,24.484l359.083,95.186a20.045,20.045,0,0,0,24.484-14.223l50.806-191.661a20.045,20.045,0,0,0-14.223-24.484Z" transform="translate(-219.425 -163.716)" fill="#e6e6e6"/>
    <path id="Path_1640" data-name="Path 1640" d="M609.589,486,250.506,390.812a5.819,5.819,0,0,1-4.129-7.108l50.806-191.661a5.819,5.819,0,0,1,7.108-4.129L663.373,283.1a5.819,5.819,0,0,1,4.129,7.108L616.7,481.869A5.819,5.819,0,0,1,609.589,486ZM303.96,189.162a4.526,4.526,0,0,0-5.529,3.212L247.626,384.035a4.526,4.526,0,0,0,3.212,5.529L609.92,484.75a4.526,4.526,0,0,0,5.529-3.212l50.806-191.661a4.526,4.526,0,0,0-3.212-5.529Z" transform="translate(-227.925 -172.215)" fill="#fff"/>
    <path id="Path_1641" data-name="Path 1641" d="M610.711,604.192H239.228a21.338,21.338,0,0,1-21.314-21.314V384.6a21.338,21.338,0,0,1,21.314-21.314H610.711A21.338,21.338,0,0,1,632.025,384.6V582.878A21.338,21.338,0,0,1,610.711,604.192Z" transform="translate(-217.914 -234.389)" fill="#fff"/>
    <path id="Path_1642" data-name="Path 1642" d="M537.79,674.516H297.9c-.3,0-.6-.006-.9-.023l113.459-63.9c2.16-1.242,7.007-1.679,10.826-.976a9.806,9.806,0,0,1,3,.976l76.145,42.88,3.648,2.052Z" transform="translate(-245.921 -321.506)" fill="#e6e6e6"/>
    <path id="Path_1643" data-name="Path 1643" d="M673.232,684.842H465.743l40.207-18.989,2.894-1.368,52.393-24.746c3.435-1.622,11.7-1.723,15.737-.306q.407.145.755.306Z" transform="translate(-305.678 -331.832)" fill="#e6e6e6"/>
    <path id="Path_1644" data-name="Path 1644" d="M239.936,365.284a20.045,20.045,0,0,0-20.022,20.022V583.586a20.044,20.044,0,0,0,20.022,20.022H611.42a20.044,20.044,0,0,0,20.022-20.022V385.306a20.045,20.045,0,0,0-20.022-20.022Z" transform="translate(-218.622 -235.097)" fill="#3f3d56"/>
    <path id="Path_1645" data-name="Path 1645" d="M619.211,597.19H247.727a5.819,5.819,0,0,1-5.813-5.813V393.1a5.82,5.82,0,0,1,5.813-5.813H619.211a5.819,5.819,0,0,1,5.813,5.813V591.377a5.819,5.819,0,0,1-5.813,5.813ZM247.726,388.576a4.526,4.526,0,0,0-4.521,4.521V591.377a4.526,4.526,0,0,0,4.521,4.521H619.211a4.526,4.526,0,0,0,4.521-4.521V393.1a4.526,4.526,0,0,0-4.521-4.521Z" transform="translate(-226.413 -242.888)" fill="#ccc"/>
    <circle id="Ellipse_3" data-name="Ellipse 3" cx="39.981" cy="39.981" r="39.981" transform="translate(270.045 100.728)" fill="#ff6584"/>
    <ellipse id="Ellipse_4" data-name="Ellipse 4" cx="50.638" cy="63.383" rx="50.638" ry="63.383" transform="translate(276.103 159.505)" fill="#f2f2f2"/>
    <path id="Path_1646" data-name="Path 1646" d="M504.663,325.365h.139l2.5,143.566h-5.286Z" transform="translate(-177.782 -115.222)" fill="#ccc"/>
    <path id="Path_1647" data-name="Path 1647" d="M732.489,635.874h0a1.252,1.252,0,0,1-.525,1.691l-7.263,3.824-1.167-2.216,7.263-3.824A1.252,1.252,0,0,1,732.489,635.874Z" transform="translate(-396.971 -330.685)" fill="#ccc"/>
    <ellipse id="Ellipse_5" data-name="Ellipse 5" cx="50.638" cy="63.383" rx="50.638" ry="63.383" transform="translate(130.521 159.505)" fill="#f2f2f2"/>
    <path id="Path_1648" data-name="Path 1648" d="M505.806,586.5h0a1.252,1.252,0,0,0-1.691-.525l-5.07,2.669-1.737-99.564h-.139l-2.643,143.567h5.286l-.719-41.2,6.188-3.258a1.253,1.253,0,0,0,.524-1.691Z" transform="translate(-315.871 -278.938)" fill="#ccc"/>
    <path id="Path_1649" data-name="Path 1649" d="M575.694,282.653c35.437,0,64.24,66.771,64.24,111.127s-28.727,80.313-64.164,80.313-64.164-35.957-64.164-80.313S540.257,282.653,575.694,282.653Z" transform="translate(-321.92 -205.834)" fill="#6c63ff"/>
    <path id="Path_1650" data-name="Path 1650" d="M620.331,552.147a1.586,1.586,0,0,0-2.143-.665l-6.425,3.382-2.2-126.158h-.176l-3.349,181.915h6.7l-.911-52.2,7.841-4.128a1.586,1.586,0,0,0,.664-2.143Z" transform="translate(-355.362 -257.557)" fill="#3f3d56"/>
    <path id="Path_1651" data-name="Path 1651" d="M612.711,602.192H241.228a21.338,21.338,0,0,1-21.314-21.314V382.6a21.338,21.338,0,0,1,21.314-21.314H612.711A21.338,21.338,0,0,1,634.025,382.6V580.878A21.338,21.338,0,0,1,612.711,602.192Z" transform="translate(-218.622 -233.68)" fill="#fff"/>
    <path id="Path_1652" data-name="Path 1652" d="M539.79,672.516H299.9c-.3,0-.6-.006-.9-.023l113.458-63.9c2.16-1.242,7.007-1.679,10.826-.976a9.8,9.8,0,0,1,3,.976l76.145,42.88,3.648,2.052Z" transform="translate(-246.629 -320.797)" fill="#e6e6e6"/>
    <path id="Path_1653" data-name="Path 1653" d="M675.232,682.842H467.743l40.207-18.989,2.893-1.368,52.394-24.746c3.435-1.622,11.7-1.723,15.737-.306q.407.145.754.306Z" transform="translate(-306.387 -331.123)" fill="#e6e6e6"/>
    <path id="Path_1654" data-name="Path 1654" d="M612.711,602.192H241.228a21.338,21.338,0,0,1-21.314-21.314V382.6a21.338,21.338,0,0,1,21.314-21.314H612.711A21.338,21.338,0,0,1,634.025,382.6V580.878A21.338,21.338,0,0,1,612.711,602.192ZM241.227,362.576A20.045,20.045,0,0,0,221.205,382.6V580.878A20.045,20.045,0,0,0,241.227,600.9H612.711a20.044,20.044,0,0,0,20.022-20.022V382.6a20.044,20.044,0,0,0-20.022-20.022Z" transform="translate(-218.622 -233.68)" fill="#3f3d56"/>
    <path id="Path_1655" data-name="Path 1655" d="M621.211,595.19H249.727a5.819,5.819,0,0,1-5.813-5.813V391.1a5.819,5.819,0,0,1,5.813-5.813H621.211a5.82,5.82,0,0,1,5.813,5.813V589.378A5.819,5.819,0,0,1,621.211,595.19ZM249.726,386.576a4.526,4.526,0,0,0-4.521,4.521V589.378a4.526,4.526,0,0,0,4.521,4.521H621.211a4.526,4.526,0,0,0,4.521-4.521V391.1a4.526,4.526,0,0,0-4.521-4.521Z" transform="translate(-227.121 -242.18)" fill="#ccc"/>
    <circle id="Ellipse_6" data-name="Ellipse 6" cx="39.981" cy="39.981" r="39.981" transform="translate(271.337 99.436)" fill="#ff6584"/>
    <ellipse id="Ellipse_7" data-name="Ellipse 7" cx="50.638" cy="63.383" rx="50.638" ry="63.383" transform="translate(277.395 158.214)" fill="#f2f2f2"/>
    <path id="Path_1656" data-name="Path 1656" d="M506.663,323.365h.139l2.5,143.566h-5.286Z" transform="translate(-178.49 -114.513)" fill="#ccc"/>
    <path id="Path_1657" data-name="Path 1657" d="M734.489,633.874h0a1.252,1.252,0,0,1-.525,1.691l-7.263,3.824-1.167-2.216,7.263-3.824A1.252,1.252,0,0,1,734.489,633.874Z" transform="translate(-397.68 -329.977)" fill="#ccc"/>
    <ellipse id="Ellipse_8" data-name="Ellipse 8" cx="50.638" cy="63.383" rx="50.638" ry="63.383" transform="translate(131.813 158.214)" fill="#f2f2f2"/>
    <path id="Path_1658" data-name="Path 1658" d="M507.806,584.5h0a1.252,1.252,0,0,0-1.691-.525l-5.07,2.669-1.737-99.564h-.139l-2.643,143.567h5.286l-.719-41.2,6.188-3.258a1.253,1.253,0,0,0,.524-1.691Z" transform="translate(-316.58 -278.229)" fill="#ccc"/>
    <path id="Path_1659" data-name="Path 1659" d="M577.694,280.653c35.437,0,64.239,66.771,64.239,111.127s-28.727,80.313-64.164,80.313-64.164-35.957-64.164-80.313S542.257,280.653,577.694,280.653Z" transform="translate(-322.628 -205.126)" fill="#6c63ff"/>
    <path id="Path_1660" data-name="Path 1660" d="M622.331,550.147a1.586,1.586,0,0,0-2.143-.665l-6.425,3.382-2.2-126.158h-.176l-3.349,181.915h6.7l-.911-52.2,7.841-4.128A1.586,1.586,0,0,0,622.331,550.147Z" transform="translate(-356.07 -256.849)" fill="#3f3d56"/>
  </g>
</svg>
