<svg id="down-arrow" xmlns="http://www.w3.org/2000/svg" width="48.772" height="44.543" viewBox="0 0 48.772 44.543">
  <g id="Group_157" data-name="Group 157" transform="translate(0.002)">
    <path id="Path_1631" data-name="Path 1631" d="M46.966,213.831,24.392,236.407,1.818,213.831a1.06,1.06,0,0,0-1.5,1.5l23.325,23.325a1.06,1.06,0,0,0,1.5,0L48.467,215.33a1.06,1.06,0,0,0-1.5-1.5Z" transform="translate(-0.021 -194.424)" fill="#607d8b"/>
    <path id="Path_1632" data-name="Path 1632" d="M46.966,21.6,24.392,44.173,1.818,21.6a1.06,1.06,0,0,0-1.5,1.5L23.643,46.421a1.06,1.06,0,0,0,1.5,0L48.467,23.1a1.06,1.06,0,1,0-1.473-1.525l-.026.026Z" transform="translate(-0.021 -21.273)" fill="#607d8b"/>
  </g>
  <path id="Path_1633" data-name="Path 1633" d="M24.373,238.968a1.06,1.06,0,0,1-.751-.31L.3,215.333a1.06,1.06,0,0,1,1.5-1.5l22.576,22.574,22.574-22.576a1.06,1.06,0,0,1,1.5,1.5L25.121,238.656A1.061,1.061,0,0,1,24.373,238.968Z" transform="translate(0 -194.425)"/>
  <path id="Path_1634" data-name="Path 1634" d="M24.373,46.732a1.06,1.06,0,0,1-.751-.31L.3,23.1a1.06,1.06,0,0,1,1.5-1.5L24.373,44.173,46.947,21.6a1.06,1.06,0,0,1,1.525,1.473l-.026.026L25.121,46.421A1.061,1.061,0,0,1,24.373,46.732Z" transform="translate(0 -21.273)" fill="#00bcd0"/>
</svg>
