<svg id="network" xmlns="http://www.w3.org/2000/svg" width="101" height="101" viewBox="0 0 101 101">
  <g id="Group_876" data-name="Group 876" transform="translate(87.533 20.2)">
    <g id="Group_875" data-name="Group 875">
      <path id="Path_3875" data-name="Path 3875" d="M450.467,102.4a6.733,6.733,0,1,0,6.733,6.733A6.74,6.74,0,0,0,450.467,102.4Zm0,10.1a3.367,3.367,0,1,1,3.367-3.367A3.37,3.37,0,0,1,450.467,112.5Z" transform="translate(-443.734 -102.4)"/>
    </g>
  </g>
  <g id="Group_878" data-name="Group 878" transform="translate(0 75.75)">
    <g id="Group_877" data-name="Group 877">
      <path id="Path_3876" data-name="Path 3876" d="M6.733,384a6.733,6.733,0,1,0,6.733,6.733A6.74,6.74,0,0,0,6.733,384Zm0,10.1a3.367,3.367,0,1,1,3.367-3.367A3.37,3.37,0,0,1,6.733,394.1Z" transform="translate(0 -384)"/>
    </g>
  </g>
  <g id="Group_880" data-name="Group 880" transform="translate(74.066 15.148)">
    <g id="Group_879" data-name="Group 879">
      <path id="Path_3877" data-name="Path 3877" d="M392.4,83.971,377.877,76.96a1.683,1.683,0,0,0-1.463,3.032L390.937,87a1.683,1.683,0,0,0,1.463-3.032Z" transform="translate(-375.463 -76.792)"/>
    </g>
  </g>
  <g id="Group_882" data-name="Group 882" transform="translate(69.017 87.533)">
    <g id="Group_881" data-name="Group 881">
      <path id="Path_3878" data-name="Path 3878" d="M356.6,443.733a6.733,6.733,0,1,0,6.733,6.733A6.74,6.74,0,0,0,356.6,443.733Zm0,10.1a3.367,3.367,0,1,1,3.367-3.367A3.37,3.37,0,0,1,356.6,453.833Z" transform="translate(-349.867 -443.733)"/>
    </g>
  </g>
  <g id="Group_884" data-name="Group 884" transform="translate(55.549 82.482)">
    <g id="Group_883" data-name="Group 883">
      <path id="Path_3879" data-name="Path 3879" d="M298.533,425.3l-14.522-7.011a1.683,1.683,0,1,0-1.463,3.032l14.522,7.011a1.683,1.683,0,0,0,1.463-3.032Z" transform="translate(-281.596 -418.124)"/>
    </g>
  </g>
  <g id="Group_886" data-name="Group 886" transform="translate(43.767 45.45)">
    <g id="Group_885" data-name="Group 885">
      <path id="Path_3880" data-name="Path 3880" d="M228.6,230.4a6.733,6.733,0,1,0,6.733,6.733A6.74,6.74,0,0,0,228.6,230.4Zm0,10.1a3.367,3.367,0,1,1,3.367-3.367A3.37,3.37,0,0,1,228.6,240.5Z" transform="translate(-221.867 -230.4)"/>
    </g>
  </g>
  <g id="Group_888" data-name="Group 888" transform="translate(33.666 38.718)">
    <g id="Group_887" data-name="Group 887">
      <path id="Path_3881" data-name="Path 3881" d="M184.539,205.32l-11.155-8.694a1.684,1.684,0,1,0-2.07,2.656l11.155,8.694a1.684,1.684,0,1,0,2.07-2.656Z" transform="translate(-170.664 -196.272)"/>
    </g>
  </g>
  <g id="Group_890" data-name="Group 890" transform="translate(62.283 43.767)">
    <g id="Group_889" data-name="Group 889">
      <path id="Path_3882" data-name="Path 3882" d="M334.25,221.867a18.517,18.517,0,1,0,18.517,18.517A18.539,18.539,0,0,0,334.25,221.867Zm0,33.667a15.15,15.15,0,1,1,15.15-15.15A15.166,15.166,0,0,1,334.25,255.534Z" transform="translate(-315.733 -221.867)"/>
    </g>
  </g>
  <g id="Group_892" data-name="Group 892" transform="translate(74.067 50.5)">
    <g id="Group_891" data-name="Group 891">
      <path id="Path_3883" data-name="Path 3883" d="M382.2,256a6.733,6.733,0,1,0,6.733,6.733A6.74,6.74,0,0,0,382.2,256Zm0,10.1a3.367,3.367,0,1,1,3.367-3.367A3.37,3.37,0,0,1,382.2,266.1Z" transform="translate(-375.467 -256)"/>
    </g>
  </g>
  <g id="Group_894" data-name="Group 894" transform="translate(70.7 67.333)">
    <g id="Group_893" data-name="Group 893">
      <path id="Path_3884" data-name="Path 3884" d="M373.383,341.333h-9.767a5.154,5.154,0,0,0-5.217,5.075v4.437a1.685,1.685,0,0,0,.84,1.458,18.423,18.423,0,0,0,18.52,0,1.682,1.682,0,0,0,.84-1.456V346.41A5.154,5.154,0,0,0,373.383,341.333Zm1.85,8.509a15.264,15.264,0,0,1-13.467,0V346.41a1.786,1.786,0,0,1,1.85-1.71h9.767a1.786,1.786,0,0,1,1.85,1.71v3.432Z" transform="translate(-358.4 -341.333)"/>
    </g>
  </g>
  <g id="Group_896" data-name="Group 896" transform="translate(21.883 63.967)">
    <g id="Group_895" data-name="Group 895">
      <path id="Path_3885" data-name="Path 3885" d="M129.45,324.267a18.517,18.517,0,1,0,18.517,18.517A18.539,18.539,0,0,0,129.45,324.267Zm0,33.667a15.15,15.15,0,1,1,15.15-15.15A15.166,15.166,0,0,1,129.45,357.934Z" transform="translate(-110.933 -324.267)"/>
    </g>
  </g>
  <g id="Group_898" data-name="Group 898" transform="translate(33.667 70.7)">
    <g id="Group_897" data-name="Group 897">
      <path id="Path_3886" data-name="Path 3886" d="M177.4,358.4a6.733,6.733,0,1,0,6.733,6.733A6.74,6.74,0,0,0,177.4,358.4Zm0,10.1a3.367,3.367,0,1,1,3.367-3.367A3.37,3.37,0,0,1,177.4,368.5Z" transform="translate(-170.667 -358.4)"/>
    </g>
  </g>
  <g id="Group_900" data-name="Group 900" transform="translate(30.3 87.533)">
    <g id="Group_899" data-name="Group 899">
      <path id="Path_3887" data-name="Path 3887" d="M168.583,443.733h-9.767a5.154,5.154,0,0,0-5.217,5.075v4.437a1.685,1.685,0,0,0,.84,1.458,18.423,18.423,0,0,0,18.52,0,1.682,1.682,0,0,0,.84-1.456V448.81A5.154,5.154,0,0,0,168.583,443.733Zm1.85,8.509a15.264,15.264,0,0,1-13.467,0V448.81a1.786,1.786,0,0,1,1.85-1.71h9.767a1.787,1.787,0,0,1,1.85,1.71v3.432Z" transform="translate(-153.6 -443.733)"/>
    </g>
  </g>
  <g id="Group_902" data-name="Group 902" transform="translate(0 21.883)">
    <g id="Group_901" data-name="Group 901">
      <path id="Path_3888" data-name="Path 3888" d="M18.517,110.933A18.517,18.517,0,1,0,37.033,129.45,18.539,18.539,0,0,0,18.517,110.933Zm0,33.667a15.15,15.15,0,1,1,15.15-15.15A15.166,15.166,0,0,1,18.517,144.6Z" transform="translate(0 -110.933)"/>
    </g>
  </g>
  <g id="Group_904" data-name="Group 904" transform="translate(11.783 28.617)">
    <g id="Group_903" data-name="Group 903">
      <path id="Path_3889" data-name="Path 3889" d="M66.467,145.067A6.733,6.733,0,1,0,73.2,151.8,6.74,6.74,0,0,0,66.467,145.067Zm0,10.1a3.367,3.367,0,1,1,3.367-3.367A3.37,3.37,0,0,1,66.467,155.167Z" transform="translate(-59.734 -145.067)"/>
    </g>
  </g>
  <g id="Group_906" data-name="Group 906" transform="translate(8.417 45.45)">
    <g id="Group_905" data-name="Group 905">
      <path id="Path_3890" data-name="Path 3890" d="M57.65,230.4H47.884a5.154,5.154,0,0,0-5.217,5.075v4.437a1.685,1.685,0,0,0,.84,1.458,18.423,18.423,0,0,0,18.52,0,1.682,1.682,0,0,0,.84-1.456v-4.437A5.154,5.154,0,0,0,57.65,230.4Zm1.85,8.509a15.264,15.264,0,0,1-13.467,0v-3.432a1.786,1.786,0,0,1,1.85-1.71H57.65a1.787,1.787,0,0,1,1.85,1.71v3.432Z" transform="translate(-42.667 -230.4)"/>
    </g>
  </g>
  <g id="Group_908" data-name="Group 908" transform="translate(40.4)">
    <g id="Group_907" data-name="Group 907">
      <path id="Path_3891" data-name="Path 3891" d="M223.317,0a18.517,18.517,0,1,0,18.517,18.517A18.539,18.539,0,0,0,223.317,0Zm0,33.667a15.15,15.15,0,1,1,15.15-15.15A15.166,15.166,0,0,1,223.317,33.667Z" transform="translate(-204.8)"/>
    </g>
  </g>
  <g id="Group_910" data-name="Group 910" transform="translate(52.183 6.733)">
    <g id="Group_909" data-name="Group 909">
      <path id="Path_3892" data-name="Path 3892" d="M271.267,34.133A6.733,6.733,0,1,0,278,40.866,6.74,6.74,0,0,0,271.267,34.133Zm0,10.1a3.367,3.367,0,1,1,3.367-3.367A3.37,3.37,0,0,1,271.267,44.233Z" transform="translate(-264.534 -34.133)"/>
    </g>
  </g>
  <g id="Group_912" data-name="Group 912" transform="translate(48.817 23.567)">
    <g id="Group_911" data-name="Group 911">
      <path id="Path_3893" data-name="Path 3893" d="M262.45,119.467h-9.767a5.154,5.154,0,0,0-5.217,5.075v4.437a1.685,1.685,0,0,0,.84,1.458,18.423,18.423,0,0,0,18.52,0,1.682,1.682,0,0,0,.84-1.456v-4.437A5.154,5.154,0,0,0,262.45,119.467Zm1.85,8.509a15.264,15.264,0,0,1-13.467,0v-3.432a1.786,1.786,0,0,1,1.85-1.71h9.767a1.786,1.786,0,0,1,1.85,1.71v3.432Z" transform="translate(-247.467 -119.467)"/>
    </g>
  </g>
  <g id="Group_914" data-name="Group 914" transform="translate(28.736 16.833)">
    <g id="Group_913" data-name="Group 913">
      <path id="Path_3894" data-name="Path 3894" d="M160.3,85.921a1.686,1.686,0,0,0-2.373-.183L146.26,95.72a1.683,1.683,0,1,0,2.188,2.557l11.665-9.982A1.683,1.683,0,0,0,160.3,85.921Z" transform="translate(-145.671 -85.333)"/>
    </g>
  </g>
  <g id="Group_916" data-name="Group 916" transform="translate(67.333 30.302)">
    <g id="Group_915" data-name="Group 915">
      <path id="Path_3895" data-name="Path 3895" d="M354.463,167.75l-10.1-13.467a1.683,1.683,0,0,0-2.693,2.018l10.1,13.467a1.683,1.683,0,0,0,2.693-2.018Z" transform="translate(-341.333 -153.61)"/>
    </g>
  </g>
  <g id="Group_918" data-name="Group 918" transform="translate(54.215 67.177)">
    <g id="Group_917" data-name="Group 917">
      <path id="Path_3896" data-name="Path 3896" d="M287.266,341.213a1.684,1.684,0,0,0-2.357-.337l-9.4,7.051a1.683,1.683,0,0,0,2.02,2.691l9.4-7.051A1.681,1.681,0,0,0,287.266,341.213Z" transform="translate(-274.833 -340.54)"/>
    </g>
  </g>
  <g id="Group_920" data-name="Group 920" transform="translate(10.1 80.8)">
    <g id="Group_919" data-name="Group 919">
      <path id="Path_3897" data-name="Path 3897" d="M64.667,409.6H52.883a1.683,1.683,0,1,0,0,3.367H64.667a1.683,1.683,0,0,0,0-3.367Z" transform="translate(-51.2 -409.6)"/>
    </g>
  </g>
  <g id="Group_922" data-name="Group 922" transform="translate(11.783)">
    <g id="Group_921" data-name="Group 921">
      <path id="Path_3898" data-name="Path 3898" d="M66.466,0A6.733,6.733,0,1,0,73.2,6.733,6.74,6.74,0,0,0,66.466,0Zm0,10.1a3.367,3.367,0,1,1,3.367-3.367A3.37,3.37,0,0,1,66.466,10.1Z" transform="translate(-59.733)"/>
    </g>
  </g>
  <g id="Group_924" data-name="Group 924" transform="translate(16.833 10.1)">
    <g id="Group_923" data-name="Group 923">
      <path id="Path_3899" data-name="Path 3899" d="M87.017,51.2a1.683,1.683,0,0,0-1.683,1.683V64.667a1.683,1.683,0,1,0,3.367,0V52.883A1.683,1.683,0,0,0,87.017,51.2Z" transform="translate(-85.334 -51.2)"/>
    </g>
  </g>
</svg>
