<svg xmlns="http://www.w3.org/2000/svg" width="484.892" height="304.077" viewBox="0 0 484.892 304.077">
  <g id="Group_936" data-name="Group 936" transform="translate(-2464.52 -803.142)">
    <g id="Group_148" data-name="Group 148" transform="translate(2464.52 803.142)">
      <g id="Group_113" data-name="Group 113" transform="translate(225.938 222.974)" opacity="0.74">
        <path id="Path_674" data-name="Path 674" d="M2797.77,1168.973c.007.016.01.036.017.053a3.483,3.483,0,0,0,3.42,2.579l2.026-.033a3.5,3.5,0,0,1,3.113,1.817c.127.223.255.445.383.664a3.508,3.508,0,0,1,.023,3.613l-1.037,1.725a3.486,3.486,0,0,0,.524,4.255l.043.043a3.484,3.484,0,0,0,4.254.523l1.725-1.037a3.51,3.51,0,0,1,3.613.023c.219.127.442.255.664.383a3.5,3.5,0,0,1,1.816,3.112l-.033,2.026a3.483,3.483,0,0,0,2.579,3.419c.017.007.036.01.053.016a3.489,3.489,0,0,0,3.947-1.676l.982-1.767a3.473,3.473,0,0,1,3.086-1.79c.144,0,.287.006.432.006s.288,0,.432-.006a3.475,3.475,0,0,1,3.087,1.79l.981,1.767a3.489,3.489,0,0,0,3.947,1.676c.017-.006.037-.01.053-.016a3.483,3.483,0,0,0,2.579-3.419l-.033-2.026a3.505,3.505,0,0,1,1.817-3.112c.222-.127.445-.255.664-.383a3.51,3.51,0,0,1,3.613-.023l1.725,1.037a3.484,3.484,0,0,0,4.254-.523l.042-.043a3.484,3.484,0,0,0,.524-4.255l-1.037-1.725a3.509,3.509,0,0,1,.023-3.613c.128-.219.255-.442.383-.664a3.5,3.5,0,0,1,3.113-1.817l2.025.033a3.484,3.484,0,0,0,3.42-2.579c.006-.017.01-.036.016-.053a3.49,3.49,0,0,0-1.676-3.947l-1.767-.982a3.473,3.473,0,0,1-1.79-3.086c0-.144.007-.288.007-.432s0-.288-.007-.432a3.474,3.474,0,0,1,1.79-3.086l1.767-.982a3.489,3.489,0,0,0,1.676-3.947c-.007-.016-.01-.036-.016-.052a3.484,3.484,0,0,0-3.42-2.579l-2.025.033a3.5,3.5,0,0,1-3.113-1.816c-.127-.222-.255-.445-.383-.665a3.509,3.509,0,0,1-.023-3.613l1.037-1.725a3.484,3.484,0,0,0-.524-4.254l-.042-.042a3.484,3.484,0,0,0-4.254-.524l-1.725,1.037a3.508,3.508,0,0,1-3.613-.023c-.219-.127-.442-.255-.664-.383a3.5,3.5,0,0,1-1.817-3.112l.033-2.026a3.483,3.483,0,0,0-2.579-3.419c-.016-.007-.036-.01-.053-.016a3.49,3.49,0,0,0-3.947,1.676l-.981,1.767a3.474,3.474,0,0,1-3.087,1.79c-.144,0-.288-.006-.432-.006s-.288,0-.432.006a3.471,3.471,0,0,1-3.086-1.79l-.982-1.767a3.49,3.49,0,0,0-3.947-1.676c-.016.007-.036.01-.053.016a3.483,3.483,0,0,0-2.579,3.419l.033,2.026a3.5,3.5,0,0,1-1.816,3.112c-.223.128-.445.255-.664.383a3.508,3.508,0,0,1-3.613.023l-1.725-1.037a3.483,3.483,0,0,0-4.254.524l-.043.042a3.486,3.486,0,0,0-.524,4.254l1.037,1.725a3.508,3.508,0,0,1-.023,3.613c-.128.22-.255.442-.383.665a3.5,3.5,0,0,1-3.113,1.816l-2.026-.033a3.484,3.484,0,0,0-3.42,2.579c-.006.016-.01.036-.017.052a3.49,3.49,0,0,0,1.676,3.947l1.767.982a3.474,3.474,0,0,1,1.791,3.086c0,.144-.007.288-.007.432s0,.288.007.432a3.473,3.473,0,0,1-1.791,3.086l-1.767.982A3.49,3.49,0,0,0,2797.77,1168.973Zm11.991-8.447a19.636,19.636,0,1,1,19.637,19.636A19.635,19.635,0,0,1,2809.761,1160.526Z" transform="translate(-2797.653 -1128.782)" fill="#f0ebf7"/>
        <circle id="Ellipse_18" data-name="Ellipse 18" cx="8.863" cy="8.863" r="8.863" transform="translate(22.881 23.044)" fill="#f0ebf7"/>
      </g>
      <g id="Group_117" data-name="Group 117" transform="translate(329.524 228.628)">
        <g id="Group_114" data-name="Group 114" transform="translate(92.284)">
          <path id="Path_675" data-name="Path 675" d="M3083.71,1197.378s.278-25.79,20.816-41.055,37.192-16.1,39.828-18.873,2.518,9.291,2.379,14.01.79,20.668-8.9,36.217-40.522,16.383-40.522,16.383Z" transform="translate(-3083.71 -1137.04)" fill="#f0ebf7"/>
          <path id="Path_676" data-name="Path 676" d="M3101.149,1186.347a.341.341,0,0,1-.284-.529,130.935,130.935,0,0,1,20.542-23.176,156.829,156.829,0,0,1,16.711-12.3c4.681-3.1,8.063-5.346,9.1-7.2a.341.341,0,0,1,.6.332c-1.114,2-4.554,4.276-9.316,7.431a156.27,156.27,0,0,0-16.64,12.25,130.23,130.23,0,0,0-20.42,23.038A.342.342,0,0,1,3101.149,1186.347Z" transform="translate(-3089.101 -1138.909)" fill="#cbc0e0"/>
          <path id="Path_677" data-name="Path 677" d="M3135.119,1185.442a89.688,89.688,0,0,1-16.2-1.521.341.341,0,0,1,.14-.668c.163.035,16.526,3.376,29.469,0a.341.341,0,1,1,.172.659A54.866,54.866,0,0,1,3135.119,1185.442Z" transform="translate(-3094.726 -1151.607)" fill="#cbc0e0"/>
          <path id="Path_678" data-name="Path 678" d="M3151.534,1164.005a76.538,76.538,0,0,1-9.3-.643.341.341,0,0,1,.094-.676c.1.014,10.328,1.4,15.688.008a.341.341,0,1,1,.172.659A27.908,27.908,0,0,1,3151.534,1164.005Z" transform="translate(-3102.069 -1145.124)" fill="#cbc0e0"/>
          <path id="Path_679" data-name="Path 679" d="M3125.229,1205.2c-7.7,0-20.791-2.87-21.455-3.016a.341.341,0,0,1,.147-.666c.194.042,19.446,4.265,25.011,2.62a.341.341,0,1,1,.193.654A14.6,14.6,0,0,1,3125.229,1205.2Z" transform="translate(-3089.952 -1157.365)" fill="#cbc0e0"/>
          <path id="Path_680" data-name="Path 680" d="M3108.78,1187.989a.34.34,0,0,1-.331-.258c-.02-.084-2.044-8.386,0-15.9a.341.341,0,0,1,.657.179c-2,7.34-.019,15.476,0,15.558a.341.341,0,0,1-.249.413A.349.349,0,0,1,3108.78,1187.989Z" transform="translate(-3091.222 -1147.929)" fill="#cbc0e0"/>
          <path id="Path_681" data-name="Path 681" d="M3128.176,1169.12h-.006a.341.341,0,0,1-.335-.347c.005-.313.145-7.725,2-12.515a.341.341,0,0,1,.635.246c-1.81,4.677-1.951,12.2-1.953,12.281A.341.341,0,0,1,3128.176,1169.12Z" transform="translate(-3097.622 -1143.03)" fill="#cbc0e0"/>
        </g>
        <g id="Group_116" data-name="Group 116" transform="translate(0 24.009)">
          <path id="Path_682" data-name="Path 682" d="M3101.641,1223.29s.064-38.339-41.917-19.689c0,0-9.225-33-33.4-31.444s-26.516,32.79-26.516,32.79-33.111-16.83-50.871,17.3Z" transform="translate(-2948.934 -1172.103)" fill="#d6ece0"/>
          <g id="Group_115" data-name="Group 115" transform="translate(18.142 15.194)">
            <path id="Path_683" data-name="Path 683" d="M3056.758,1229.426l-.842-.118a49.8,49.8,0,0,0-8.085-34.5l.676-.518A50.741,50.741,0,0,1,3056.758,1229.426Z" transform="translate(-2998.256 -1194.292)" fill="#93deb4"/>
            <path id="Path_684" data-name="Path 684" d="M3061.131,1217.215l-.687-.5c.1-.136,9.928-13.655,11.61-22.164l.835.165C3071.17,1203.409,3061.54,1216.655,3061.131,1217.215Z" transform="translate(-3002.233 -1194.373)" fill="#93deb4"/>
            <path id="Path_685" data-name="Path 685" d="M3054.135,1233.135c-7.624-.478-14.378-9.517-14.663-9.9l.686-.505c.066.091,6.8,9.1,14.03,9.557Z" transform="translate(-2995.621 -1203.257)" fill="#93deb4"/>
            <path id="Path_686" data-name="Path 686" d="M3097.244,1240.213l1.144-.82c.133-.1,13.4-9.5,27.6-10.159l.039.85c-11.459.534-22.326,6.88-25.909,9.177l14.155-.493.029.85Z" transform="translate(-3013.834 -1205.308)" fill="#93deb4"/>
            <path id="Path_687" data-name="Path 687" d="M3112.257,1231.569l-.8-.276a52.317,52.317,0,0,1,6.979-12.623l.674.52A51.383,51.383,0,0,0,3112.257,1231.569Z" transform="translate(-3018.314 -1201.978)" fill="#93deb4"/>
            <path id="Path_688" data-name="Path 688" d="M3005.2,1238.788c-.1-.087-10.426-8.755-21.943-12.8l.281-.8c11.669,4.093,22.107,12.861,22.21,12.949Z" transform="translate(-2977.898 -1204.033)" fill="#93deb4"/>
            <path id="Path_689" data-name="Path 689" d="M2975.819,1239.129l-.389-.757c.3-.155,7.536-3.778,20.87-1.923l-.118.843C2983.14,1235.477,2975.891,1239.092,2975.819,1239.129Z" transform="translate(-2975.43 -1207.417)" fill="#93deb4"/>
          </g>
        </g>
      </g>
      <path id="Path_690" data-name="Path 690" d="M2953.005,1178.814h27.824a3.953,3.953,0,0,1,3.9,3.309l6.3,38.2a3.953,3.953,0,0,1-3.9,4.6h-40.423a3.952,3.952,0,0,1-3.9-4.6l6.3-38.2A3.952,3.952,0,0,1,2953.005,1178.814Z" transform="translate(-2617.461 -921.582)" fill="#fbd163"/>
      <path id="Path_700" data-name="Path 700" d="M2958.041,1171.034h28.782l-1.492-8.713-1.488-8.713h-8.828s1,5.1-.741,8.713a5.96,5.96,0,0,1-5.441,3.509C2960.346,1166.282,2958.041,1171.034,2958.041,1171.034Z" transform="translate(-2622.281 -913.635)" fill="#24292f"/>
      <path id="Path_707" data-name="Path 707" d="M2773.487,1217.1s.521,7.168-1.3,11.47-1.26,6.777-1.26,6.777h25.633a11.1,11.1,0,0,0-8.072-5.211c-5.865-.913-7.83-5.085-7.439-13.036S2773.487,1217.1,2773.487,1217.1Z" transform="translate(-2563.262 -932.539)" fill="#24292f"/>
      <path id="Path_708" data-name="Path 708" d="M2665.115,907.367V1060.65a7.509,7.509,0,0,0,7.334,7.666h267.8a7.506,7.506,0,0,0,7.334-7.666V907.367a7.506,7.506,0,0,0-7.334-7.666h-267.8A7.509,7.509,0,0,0,2665.115,907.367Z" transform="translate(-2529.929 -833.585)" fill="#c2e7f0"/>
      <rect id="Rectangle_114" data-name="Rectangle 114" width="282.472" height="161.323" rx="10.711" transform="translate(130.229 69.873)" fill="#f4faf8"/>
      <g id="Group_122" data-name="Group 122" transform="translate(327.115 175.665)">
        <path id="Path_709" data-name="Path 709" d="M3050.707,1062.8h.888v-3.109h-3.109v.888h2.22Z" transform="translate(-2977.912 -1059.691)" fill="#cbc0e0"/>
        <path id="Path_710" data-name="Path 710" d="M2957.536,1059.691h5.19v.888h-5.19Zm10.379,0h5.19v.888h-5.19Zm10.38,0h5.189v.888h-5.189Zm10.379,0h5.19v.888h-5.19Zm10.38,0h5.19v.888h-5.19Zm10.379,0h5.19v.888h-5.19Z" transform="translate(-2949.238 -1059.691)" fill="#cbc0e0"/>
        <path id="Path_711" data-name="Path 711" d="M2945.417,1062.8h.888v-2.22h2.22v-.888h-3.109Z" transform="translate(-2945.417 -1059.691)" fill="#cbc0e0"/>
        <path id="Path_712" data-name="Path 712" d="M2945.417,1094.126h.888v5.475h-.888Zm0-10.949h.888v5.474h-.888Zm0-10.95h.888v5.475h-.888Z" transform="translate(-2945.417 -1063.643)" fill="#cbc0e0"/>
        <path id="Path_713" data-name="Path 713" d="M2945.417,1123.309h3.109v-.888h-2.22v-2.22h-.888Z" transform="translate(-2945.417 -1078.768)" fill="#cbc0e0"/>
        <path id="Path_714" data-name="Path 714" d="M2957.536,1123.443h5.19v.889h-5.19Zm10.379,0h5.189v.889h-5.189Zm10.38,0h5.189v.889h-5.189Zm10.379,0h5.19v.889h-5.19Zm10.379,0h5.19v.889h-5.19Zm10.379,0h5.19v.889h-5.19Z" transform="translate(-2949.238 -1079.79)" fill="#cbc0e0"/>
        <path id="Path_715" data-name="Path 715" d="M3048.486,1123.309h3.109V1120.2h-.888v2.22h-2.22Z" transform="translate(-2977.912 -1078.768)" fill="#cbc0e0"/>
        <path id="Path_716" data-name="Path 716" d="M3051.729,1094.126h.888v5.475h-.888Zm0-10.949h.888v5.474h-.888Zm0-10.95h.888v5.475h-.888Z" transform="translate(-2978.934 -1063.643)" fill="#cbc0e0"/>
      </g>
      <g id="Group_129" data-name="Group 129" transform="translate(295.988 93.677)">
        <rect id="Rectangle_115" data-name="Rectangle 115" width="105.656" height="65.065" transform="translate(105.656 65.065) rotate(180)" fill="#e5e7e6"/>
        <rect id="Rectangle_116" data-name="Rectangle 116" width="105.656" height="6.949" transform="translate(105.656 6.949) rotate(180)" fill="#a7adbf"/>
        <path id="Path_717" data-name="Path 717" d="M3044.741,944.535a1.066,1.066,0,1,0,1.066-1.066A1.066,1.066,0,0,0,3044.741,944.535Z" transform="translate(-2945.604 -941.061)" fill="#fff"/>
        <path id="Path_718" data-name="Path 718" d="M3037.3,944.535a1.066,1.066,0,1,0,1.065-1.066A1.066,1.066,0,0,0,3037.3,944.535Z" transform="translate(-2943.259 -941.061)" fill="#fff"/>
        <path id="Path_719" data-name="Path 719" d="M3029.409,944.535a1.066,1.066,0,1,0,1.065-1.066A1.066,1.066,0,0,0,3029.409,944.535Z" transform="translate(-2940.77 -941.061)" fill="#fff"/>
        <g id="Group_128" data-name="Group 128" transform="translate(47.532 16.087)">
          <g id="Group_123" data-name="Group 123" transform="translate(0 37.902)">
            <rect id="Rectangle_117" data-name="Rectangle 117" width="49.506" height="1.595" fill="#fff"/>
          </g>
          <g id="Group_124" data-name="Group 124" transform="translate(0 28.426)">
            <rect id="Rectangle_118" data-name="Rectangle 118" width="49.506" height="1.595" fill="#fff"/>
          </g>
          <g id="Group_125" data-name="Group 125" transform="translate(0 18.951)">
            <rect id="Rectangle_119" data-name="Rectangle 119" width="49.506" height="1.595" fill="#fff"/>
          </g>
          <g id="Group_126" data-name="Group 126" transform="translate(0 9.475)">
            <rect id="Rectangle_120" data-name="Rectangle 120" width="49.506" height="1.595" fill="#fff"/>
          </g>
          <g id="Group_127" data-name="Group 127">
            <rect id="Rectangle_121" data-name="Rectangle 121" width="49.506" height="1.595" fill="#fff"/>
          </g>
        </g>
        <rect id="Rectangle_122" data-name="Rectangle 122" width="29.611" height="39.496" transform="translate(38.375 55.584) rotate(180)" fill="#fff"/>
      </g>
      <rect id="Rectangle_123" data-name="Rectangle 123" width="55.519" height="32.493" transform="translate(316.756 220.207) rotate(180)" fill="#cbc0e0"/>
      <rect id="Rectangle_124" data-name="Rectangle 124" width="26.276" height="49.302" transform="translate(264.346 217.098) rotate(-90)" fill="#fff"/>
      <path id="Path_720" data-name="Path 720" d="M2907.43,1110.808,2894.839,1089l-12.592,21.809Z" transform="translate(-2598.385 -893.266)" fill="#cbc0e0"/>
      <path id="Path_721" data-name="Path 721" d="M2880,1113.607l-9.191-15.92-9.191,15.92Z" transform="translate(-2591.88 -896.005)" fill="#cbc0e0"/>
      <path id="Path_722" data-name="Path 722" d="M2882.407,1089.464a2.431,2.431,0,1,0,2.431-2.431A2.432,2.432,0,0,0,2882.407,1089.464Z" transform="translate(-2598.436 -892.646)" fill="#cbc0e0"/>
      <path id="Path_723" data-name="Path 723" d="M2675.59,1062.312h.888v3.416h4.885v.888h-5.773Zm11.1,3.416h5.329v.888h-5.329Zm10.658,0h5.329v.888h-5.329Zm10.658,0h5.328v.888h-5.328Zm10.658,0H2724v.888h-5.328Zm10.658,0h5.329v.888h-5.329Zm10.658,0h5.329v.888h-5.329Zm10.658,0h5.329v.888h-5.329Zm10.658,0h5.329v.888H2761.3Zm10.658,0h4.005v-.436h.889v1.324h-4.894Zm4.005-11.094h.889v5.329h-.889Zm-100.373-2.979h.888v5.328h-.888Zm100.373-7.679h.889v5.329h-.889ZM2675.59,1041h.888v5.329h-.888Zm100.373-7.678h.889v5.329h-.889Zm-100.373-2.98h.888v5.329h-.888Zm100.373-7.679h.889v5.329h-.889Zm-100.373-2.98h.888v5.329h-.888ZM2775.963,1012h.889v5.328h-.889Zm-100.373-2.98h.888v5.329h-.888Zm100.373-7.679h.889v5.329h-.889Zm-100.373-2.98h.888v5.329h-.888Zm100.373-7.678h.889v5.329h-.889ZM2675.59,987.7h.888v5.329h-.888Zm100.373-7.678h.889v5.329h-.889Zm-100.373-2.98h.888v5.329h-.888Zm100.373-7.678h.889V974.7h-.889Zm-100.373-2.98h.888v5.329h-.888Zm100.373-7.678h.889v5.329h-.889Zm-100.373-2.98h.888v5.329h-.888Zm100.373-7.679h.889v5.329h-.889Zm-100.373-2.98h.888V950.4h-.888Zm100.373-3.835h-2.955v-.888h3.844v2.374h-.889Zm-98.879-.888h5.329v.888h-5.329Zm10.658,0h5.329v.888h-5.329Zm10.658,0h5.329v.888H2698.4Zm10.658,0h5.329v.888h-5.329Zm10.658,0h5.329v.888h-5.329Zm10.658,0h5.329v.888h-5.329Zm10.658,0h5.329v.888h-5.329Zm10.658,0h5.329v.888h-5.329Zm10.658,0h5.329v.888h-5.329Z" transform="translate(-2533.232 -846.4)" fill="#cbc0e0"/>
      <path id="Path_724" data-name="Path 724" d="M2969.285,1030.149a21.2,21.2,0,0,0-2.349-4c-1.313-1.641-4.321-3.341-5.5-4.9s-1.863-.4-.939,1.166c.635,1.079,2.568,3.28,1.976,3.476s-3.953-.668-5.519-1.716-4.122-3.293-4.826-3.079,1.5,2.79,3.393,4.63c0,0-5.143-4.166-5.8-3.991-1.148.3.9,2.279,4.694,5.559a26.175,26.175,0,0,0-4.54-2.548c-.317-.1-1.317.037-.162,1.252a30.64,30.64,0,0,0,4.943,3.528s-2.058-.961-3.3-1.421c-.649-.24-1.135.233-.518.99,1.028,1.263,4.168,3.339,7.734,4.369,5.705,1.647,7.051,1.349,7.051,1.349l2.6,1.065Z" transform="translate(-2619.486 -871.671)" fill="#f6a49d"/>
      <path id="Path_725" data-name="Path 725" d="M2999.291,1038.905l-21.737-6.955s-2.878,4.086-3.2,7.114c0,0,8.634,4.565,13.927,7.793s14.368,10.761,30.925,0S2999.291,1038.905,2999.291,1038.905Z" transform="translate(-2627.425 -875.28)" fill="#24292f"/>
      <g id="Group_130" data-name="Group 130" transform="translate(192.168 119.114)">
        <path id="Path_726" data-name="Path 726" d="M2750.442,1019.542l142.064,29.662a2.65,2.65,0,0,0,3.135-2.053l7.767-37.2a2.65,2.65,0,0,0-2.053-3.136l-142.065-29.662a2.65,2.65,0,0,0-3.135,2.052l-7.766,37.2A2.65,2.65,0,0,0,2750.442,1019.542Z" transform="translate(-2748.333 -977.102)" fill="#7dd0e2"/>
        <circle id="Ellipse_19" data-name="Ellipse 19" cx="10.95" cy="10.95" r="10.95" transform="translate(119.098 33.022) rotate(-3.94)" fill="#7dd0e2"/>
        <rect id="Rectangle_125" data-name="Rectangle 125" width="128.074" height="2.967" transform="translate(137.731 63.397) rotate(-168.206)" fill="#7dd0e2"/>
        <rect id="Rectangle_126" data-name="Rectangle 126" width="97.278" height="2.967" transform="matrix(-0.979, -0.204, 0.204, -0.979, 109.628, 47.32)" fill="#7dd0e2"/>
        <rect id="Rectangle_127" data-name="Rectangle 127" width="97.278" height="2.967" transform="matrix(-0.979, -0.204, 0.204, -0.979, 111.754, 37.138)" fill="#7dd0e2"/>
      </g>
      <g id="Group_131" data-name="Group 131" transform="translate(189.222 120.591)">
        <path id="Path_727" data-name="Path 727" d="M2746.14,1021.7l142.064,29.662a2.65,2.65,0,0,0,3.136-2.052l7.766-37.2a2.65,2.65,0,0,0-2.052-3.136L2754.99,979.315a2.65,2.65,0,0,0-3.136,2.052l-7.766,37.2A2.649,2.649,0,0,0,2746.14,1021.7Z" transform="translate(-2744.031 -979.258)" fill="#c2e7f0"/>
        <circle id="Ellipse_20" data-name="Ellipse 20" cx="10.95" cy="10.95" r="10.95" transform="translate(115.616 40.028) rotate(-33.206)" fill="#fff"/>
        <rect id="Rectangle_128" data-name="Rectangle 128" width="128.074" height="2.967" transform="matrix(-0.979, -0.204, 0.204, -0.979, 137.731, 63.397)" fill="#fff"/>
        <rect id="Rectangle_129" data-name="Rectangle 129" width="97.278" height="2.967" transform="matrix(-0.979, -0.204, 0.204, -0.979, 109.628, 47.319)" fill="#fff"/>
        <rect id="Rectangle_130" data-name="Rectangle 130" width="97.278" height="2.967" transform="matrix(-0.979, -0.204, 0.204, -0.979, 111.754, 37.138)" fill="#fff"/>
      </g>
      <path id="Path_728" data-name="Path 728" d="M2958.509,832.4s-3.591-1.074-8.5-8.432-13.012,2.651-19.284-9.378-10.443-15.756-21.31-5.456-17.771,14.131-26.248,7.853-13.345,3.077-20.892,9.245-14.8,2.525-17.587,6.168Z" transform="translate(-2586.545 -803.142)" fill="#f0ebf7" opacity="0.52"/>
      <rect id="Rectangle_131" data-name="Rectangle 131" width="458.569" height="1.646" transform="translate(481.196 304.077) rotate(180)" fill="#3a3e49"/>
      <path id="Path_729" data-name="Path 729" d="M2739.746,860.914s-3.592-1.074-8.5-8.432-13.012,2.651-19.284-9.379-10.443-15.756-21.31-5.456-17.771,14.132-26.248,7.854-13.345,3.076-20.892,9.245-14.8,2.525-17.588,6.168Z" transform="translate(-2517.574 -812.131)" fill="#f0ebf7" opacity="0.52"/>
      <path id="Path_730" data-name="Path 730" d="M2716.23,1207.145s-2.311,6.806-5.666,10.057-3.8,5.752-3.8,5.752l23.611,9.979a8.778,8.778,0,0,0-4.451-8.08c-5.047-3.124-6.187-7.594-2.731-14.765S2716.23,1207.145,2716.23,1207.145Z" transform="translate(-2543.06 -930.124)" fill="#24292f"/>
      <path id="Path_731" data-name="Path 731" d="M2714.236,1172.647l12.883,4.432s8.247-22.937,12.333-31.939v0c.462-1.013.87-1.847,1.208-2.456,2.012-3.624,2.989-14.731,3.442-22.955.106-1.971.186-3.775.248-5.272.1-2.593.129-4.258.129-4.258l-1.457-15.774-.9-9.748-.084-.9-2.864.408-2.736.4-8.349,1.194s-.9,2.807-1.75,6.564c-.959,4.223-1.87,9.646-1.4,13.643.888,7.55,4.517,29.088,3.149,31.087s-5.973,11.39-8.3,20.05A104.04,104.04,0,0,1,2714.236,1172.647Z" transform="translate(-2545.416 -891.617)" fill="#3a3e49"/>
      <path id="Path_732" data-name="Path 732" d="M2748.748,1125.052c1.887,6.368.555,11.253,1,16.875s1.874,4.818.049,11.285c.462-1.013.87-1.847,1.208-2.456,2.012-3.624,2.989-14.73,3.442-22.955.106-1.971.187-3.775.249-5.272-3.5-6.137-7.643-13.141-7.643-13.141S2746.861,1118.687,2748.748,1125.052Z" transform="translate(-2555.76 -899.694)" fill="#24292f"/>
      <path id="Path_733" data-name="Path 733" d="M2745.409,1094.2a41.845,41.845,0,0,0,1.1,7.114c1.274,5.316,4.339,12.164,7.394,18.412,3.331,6.8,6.666,12.9,7.7,15.561,2,5.107-.443,13.323,0,25.98s0,20.206,0,20.206l14.047-.555c-.271-6.5,1.5-38.081,1.274-43.632-.165-4.073-5.707-29.2-8.647-42.282-1.065-4.743-1.789-7.9-1.789-7.9l-14.571-2.429-2.948-.493-2.465-.408s-.111.271-.271.8A28.087,28.087,0,0,0,2745.409,1094.2Z" transform="translate(-2555.218 -891.617)" fill="#3a3e49"/>
      <path id="Path_734" data-name="Path 734" d="M2731.91,1092.332a46.124,46.124,0,0,0,9.268,1.865,53.482,53.482,0,0,0,7.417.223c.915-.031,1.851-.089,2.815-.173,6-.52,10.005-.018,12.643.755-1.065-4.743-1.789-7.9-1.789-7.9l-14.571-2.429-.084-.9-2.864.408-2.465-.408s-.111.271-.271.8l-8.349,1.194S2732.763,1088.575,2731.91,1092.332Z" transform="translate(-2550.988 -891.617)" fill="#24292f"/>
      <path id="Path_735" data-name="Path 735" d="M2737.176,1003.579l-1.388,10.177,8.677,2.637.96-12.275-2.082-4.857-7.556-1.619Z" transform="translate(-2552.211 -864.463)" fill="#f6a49d"/>
      <path id="Path_736" data-name="Path 736" d="M2742.826,1008.324a9.523,9.523,0,0,0,4.182,7.309l.411-5.247Z" transform="translate(-2554.429 -867.831)" fill="#d47c74"/>
      <path id="Path_737" data-name="Path 737" d="M2747.452,1022.681a13.238,13.238,0,0,0-4.885-4.626c-3.035-1.48-6.55-2.109-7.475-.814s-.555,4.071-.555,4.071Z" transform="translate(-2551.793 -870.421)" fill="#745faa"/>
      <path id="Path_738" data-name="Path 738" d="M2826.667,1055.305v-.888a11.228,11.228,0,0,1,5.052-1.5c3-.166,5.606.425,9.049-.555,2.046-.583.573,2.368-3.368,2.979s-1.073,2.265,2.073,3.4c3.005,1.089,7.29,1.628,7.92,2.516.954,1.347-1.036,1.666-1.036,1.666s.685,1.313-1.2,1.48a27.881,27.881,0,0,1-5.773-.666s3.241,2.21,3.331,2.443c.24.629-.2,1.258-4.46-1-3.808-2.021-10.029-4.386-10.362-4.552S2826.667,1055.305,2826.667,1055.305Z" transform="translate(-2580.863 -881.691)" fill="#f6a49d"/>
      <path id="Path_739" data-name="Path 739" d="M2822.938,1055.466l3-.555a27.34,27.34,0,0,0,2.11,8.05l-3.442,1.61Z" transform="translate(-2579.687 -882.519)" fill="#745faa"/>
      <path id="Path_740" data-name="Path 740" d="M2720.024,1042.871c1.333,7.847,1.777,26.645,1.777,26.645,2.713,2.172,8.517,3.464,15.906,3.535a77.262,77.262,0,0,0,8.669-.427c11.4-1.185,16.942,1.186,16.942,1.186s-.365-4.885-4.361-14.655c-3.4-8.309-3.264-12.661-2.51-13.043.129-.067.28-.014.436.164,1.039,1.182,13.473,10.508,22.2,11.693s15.544-2.073,14.362-4.143-2.221-8.438-2.518-9.326-9.624.146-15.988-1.332-12.288-6.515-18.061-12.732-16.7-7.27-24.572-7.589C2717.657,1022.256,2718.693,1035.024,2720.024,1042.871Z" transform="translate(-2547.017 -872.403)" fill="#cbc0e0"/>
      <path id="Path_741" data-name="Path 741" d="M2727.069,992.814c.373,2.638,5.578,7.759,6.963,7.141s3.083-3.7,3.083-3.7l1.545-1.154s1.4-2.149,2.988-4.961a63.11,63.11,0,0,0,3.1-6.142c1.1-2.6.261-5.893-1.572-8.18-1.763-2.2-4.45-3.469-7.226-2.288-3.4,1.448,1.736,5.516-3.5,4.916-6.4-.737-6.786,6-5.01,7.336C2730.151,987.818,2726.323,987.5,2727.069,992.814Z" transform="translate(-2549.291 -856.72)" fill="#3a3e49"/>
      <path id="Path_742" data-name="Path 742" d="M2740.186,993.742s3.18-1.27,5.764-2.341a63.1,63.1,0,0,0,3.1-6.142c1.1-2.6.262-5.893-1.572-8.18,1.469,3.615.084,6.021-1.625,6.266-2.083.293-4.663.688-4.157,4.219s-.448,4.09-1.047,3.784S2740.186,993.742,2740.186,993.742Z" transform="translate(-2553.593 -857.98)" fill="#24292f"/>
      <path id="Path_758" data-name="Path 758" d="M3044.762,1237.065h28.777l-1.945-8.713-1.941-8.713h-8.824s1.39,5.1-.08,8.713a5.449,5.449,0,0,1-5.2,3.509C3047.062,1232.313,3044.762,1237.065,3044.762,1237.065Z" transform="translate(-2649.622 -934.453)" fill="#24292f"/>
      <path id="Path_759" data-name="Path 759" d="M3068.11,1228.352h10.845l-1.941-8.713h-8.824S3069.58,1224.738,3068.11,1228.352Z" transform="translate(-2656.983 -934.453)" fill="#f6a49d"/>
      <path id="Path_760" data-name="Path 760" d="M2981.747,1162.321H2992.8l-1.488-8.713h-8.828S2983.488,1158.706,2981.747,1162.321Z" transform="translate(-2629.755 -913.635)" fill="#f6a49d"/>
      <path id="Path_761" data-name="Path 761" d="M3043.418,1098.808a6.85,6.85,0,0,0,.125,1.487c.306,1.6.728,3.66,1.234,6.009,2.487,11.568,6.946,30.216,8.953,36.616a47.1,47.1,0,0,1,1.261,5.941c1.159,7.1,2.172,17.524,2.767,24.381.364,4.166.572,7.016.572,7.016h12.977s-.715-3.823-1.292-8.624c-.3-2.523-.568-5.32-.67-7.972-.3-7.7.3-15.086-2.114-24.292s-1.959-17.2-1.959-30.926a51.438,51.438,0,0,0-3.454-18.23,38.669,38.669,0,0,0-2.581-5.583,44.617,44.617,0,0,0-5.915,2.7,28.291,28.291,0,0,0-6.825,5A9.744,9.744,0,0,0,3043.418,1098.808Z" transform="translate(-2649.198 -891.889)" fill="#745faa"/>
      <path id="Path_762" data-name="Path 762" d="M3043.418,1102.8a6.85,6.85,0,0,0,.125,1.487c1.812,9.5,7.771,34.928,10.187,42.625a47.1,47.1,0,0,1,1.261,5.941c2.824-4.294-3.069-11.777.134-17.443,3.956-7-2.771-13.577,0-21s-1.732-17.12-1.732-17.12Z" transform="translate(-2649.198 -895.878)" fill="#574780"/>
      <path id="Path_763" data-name="Path 763" d="M2977.487,1102.295c.68,4.885,1.55,18.239,2.061,26.659.258,4.254.422,7.243.422,7.243h12.421s-.226-2.1-.47-5.4q-.027-.38-.053-.786c-.253-3.588-.5-8.376-.524-13.349-.031-8.784-1.292-14.362.066-14.926,1.173-.494,21.512,5.462,32.464,4.574a13.3,13.3,0,0,0,4.312-.955c6.271-2.842,6.3-11.115,5.889-15.245-.147-1.466-.346-2.407-.346-2.407s-.484-.142-1.311-.36c-1.838-.5-5.364-1.394-8.957-2.016-5.1-.884-10.334-1.222-11.116.906-1.585,4.3-19.012-.569-27.161,0S2976.47,1094.941,2977.487,1102.295Z" transform="translate(-2628.293 -891.89)" fill="#745faa"/>
      <path id="Path_764" data-name="Path 764" d="M3076.706,1213.051l-12.432.013c.364,4.166.633,7.682.633,7.682h12.977S3077.283,1217.852,3076.706,1213.051Z" transform="translate(-2655.774 -932.376)" fill="#574780"/>
      <path id="Path_765" data-name="Path 765" d="M2980.67,1149.237c.257,4.254.422,7.243.422,7.243h12.421s-.226-2.1-.47-5.4c-.018-.253-.126-1.834-.144-2.106Z" transform="translate(-2629.416 -912.173)" fill="#574780"/>
      <path id="Path_766" data-name="Path 766" d="M3026.1,1090.321a28.524,28.524,0,0,0,14.935,2.016,22.185,22.185,0,0,0,4.081-1.031,28.068,28.068,0,0,1,4.4-1.2,15.148,15.148,0,0,1,6.839.111,38.687,38.687,0,0,0-2.581-5.583,44.611,44.611,0,0,0-5.916,2.7c-1.838-.5-5.364-1.394-8.957-2.016Z" transform="translate(-2643.74 -891.889)" fill="#574780"/>
      <path id="Path_767" data-name="Path 767" d="M2945.424,1036.861a21.169,21.169,0,0,0-1.245-4.47c-.849-1.923-3.319-4.338-4.054-6.148s-1.7-.868-1.207.887c.337,1.206,1.64,3.828,1.018,3.866s-3.649-1.66-4.894-3.074-3.14-4.24-3.877-4.213.737,3.082,2.094,5.345c0,0-3.9-5.345-4.583-5.345-1.188,0,.283,2.433,3.111,6.577a26.137,26.137,0,0,0-3.733-3.627c-.282-.174-1.283-.3-.479,1.169a30.674,30.674,0,0,0,3.873,4.677s-1.744-1.457-2.829-2.22c-.565-.4-1.156-.066-.755.824.67,1.484,3.173,4.3,6.356,6.2,5.092,3.055,6.469,3.112,6.469,3.112l2.244,1.7Z" transform="translate(-2612.58 -872.681)" fill="#f6a49d"/>
      <path id="Path_768" data-name="Path 768" d="M3021.394,1009.965l3.983,11.1,8.659-1.922-3.772-9.279-6.639-3.168Z" transform="translate(-2642.255 -867.318)" fill="#f6a49d"/>
      <path id="Path_769" data-name="Path 769" d="M2940.346,912.522v6.915H2657.875v-6.915a7.334,7.334,0,0,1,7.334-7.334h267.8A7.337,7.337,0,0,1,2940.346,912.522Z" transform="translate(-2527.647 -835.315)" fill="#7dd0e2"/>
      <g id="Group_137" data-name="Group 137" transform="translate(247.374 46.784)">
        <g id="Group_135" data-name="Group 135" transform="translate(14.872)">
          <rect id="Rectangle_133" data-name="Rectangle 133" width="92.304" height="28.73" rx="4.173" fill="#cbc0e0"/>
          <circle id="Ellipse_21" data-name="Ellipse 21" cx="7.252" cy="7.252" r="7.252" transform="translate(7.62 7.113)" fill="#fff"/>
          <rect id="Rectangle_134" data-name="Rectangle 134" width="55.166" height="1.777" transform="translate(29.044 13.477)" fill="#fff"/>
          <rect id="Rectangle_135" data-name="Rectangle 135" width="29.116" height="1.777" transform="translate(29.044 19.127)" fill="#fff"/>
          <rect id="Rectangle_136" data-name="Rectangle 136" width="55.166" height="1.777" transform="translate(29.044 8.018)" fill="#fff"/>
        </g>
        <g id="Group_136" data-name="Group 136" transform="translate(0 21.352)">
          <rect id="Rectangle_137" data-name="Rectangle 137" width="92.304" height="28.73" rx="4.173" fill="#fbd163"/>
          <circle id="Ellipse_22" data-name="Ellipse 22" cx="7.252" cy="7.252" r="7.252" transform="translate(5.397 10.44) rotate(-22.5)" fill="#fff"/>
          <rect id="Rectangle_138" data-name="Rectangle 138" width="55.166" height="1.777" transform="translate(29.044 13.477)" fill="#fff"/>
          <rect id="Rectangle_139" data-name="Rectangle 139" width="29.116" height="1.777" transform="translate(29.044 19.127)" fill="#fff"/>
          <rect id="Rectangle_140" data-name="Rectangle 140" width="55.166" height="1.777" transform="translate(29.044 8.018)" fill="#fff"/>
        </g>
      </g>
      <g id="Group_138" data-name="Group 138" transform="translate(160.19 74.926)">
        <path id="Path_770" data-name="Path 770" d="M2705.864,914.683a2.116,2.116,0,1,1-2.116-2.116A2.116,2.116,0,0,1,2705.864,914.683Z" transform="translate(-2701.632 -912.567)" fill="#fff"/>
      </g>
      <g id="Group_139" data-name="Group 139" transform="translate(150.325 74.926)">
        <path id="Path_771" data-name="Path 771" d="M2691.456,914.683a2.116,2.116,0,1,1-2.116-2.116A2.116,2.116,0,0,1,2691.456,914.683Z" transform="translate(-2687.224 -912.567)" fill="#fbd163"/>
      </g>
      <g id="Group_140" data-name="Group 140" transform="translate(140.459 74.926)">
        <path id="Path_772" data-name="Path 772" d="M2677.048,914.683a2.116,2.116,0,1,1-2.116-2.116A2.116,2.116,0,0,1,2677.048,914.683Z" transform="translate(-2672.816 -912.567)" fill="#f38ab2"/>
      </g>
      <path id="Rectangle_141" data-name="Rectangle 141" d="M3.8,0H85.68a3.8,3.8,0,0,1,3.8,3.8V31.088a3.8,3.8,0,0,1-3.8,3.8H3.8a3.8,3.8,0,0,1-3.8-3.8V3.8A3.8,3.8,0,0,1,3.8,0Z" transform="translate(169.731 113.356) rotate(180)" fill="#a7adbf"/>
      <rect id="Rectangle_142" data-name="Rectangle 142" width="89.485" height="34.893" rx="3.804" transform="translate(77.382 81.1)" fill="#e5e7e6"/>
      <g id="Group_141" data-name="Group 141" transform="translate(86.267 87.471)">
        <path id="Path_773" data-name="Path 773" d="M2610.986,949.111a13.535,13.535,0,0,0,3.309,1.732l-1.522,2.918a9.383,9.383,0,0,1-1.829-.768q-.2-.1-2.75-1.815a11,11,0,0,1-4.454.88,9.779,9.779,0,0,1-7.394-2.779q-2.673-2.779-2.674-7.805t2.68-7.8a9.623,9.623,0,0,1,7.275-2.786,9.521,9.521,0,0,1,7.219,2.786q2.667,2.785,2.667,7.8a13.464,13.464,0,0,1-.74,4.663A9.7,9.7,0,0,1,2610.986,949.111Zm-3.323-2.332a6.168,6.168,0,0,0,1.193-2.262,10.578,10.578,0,0,0,.4-3.044,7.759,7.759,0,0,0-1.563-5.3,5.651,5.651,0,0,0-8.189.007,7.735,7.735,0,0,0-1.572,5.292,7.914,7.914,0,0,0,1.572,5.368,5.066,5.066,0,0,0,3.972,1.78,4.843,4.843,0,0,0,1.69-.293,11.983,11.983,0,0,0-2.556-1.285l1.159-2.36A14.038,14.038,0,0,1,2607.663,946.779Z" transform="translate(-2593.672 -930.889)" fill="#745faa"/>
      </g>
      <g id="Group_145" data-name="Group 145" transform="translate(115.352 87.472)">
        <g id="Group_142" data-name="Group 142" transform="translate(0 16.876)">
          <rect id="Rectangle_143" data-name="Rectangle 143" width="19.929" height="2.208" fill="#a7adbf"/>
        </g>
        <g id="Group_143" data-name="Group 143" transform="translate(0 8.438)">
          <rect id="Rectangle_144" data-name="Rectangle 144" width="39.857" height="2.208" fill="#a7adbf"/>
        </g>
        <g id="Group_144" data-name="Group 144">
          <rect id="Rectangle_145" data-name="Rectangle 145" width="39.857" height="2.208" fill="#a7adbf"/>
        </g>
      </g>
      <path id="Path_774" data-name="Path 774" d="M2747.911,989.024s1.773,5.628,4.24,7.633-2.236,0-1.619,5.86-4.934,8.1-10.254-1.234a4.418,4.418,0,0,1-3.7-4.317c-.308-3.932,2.93-1.851,2.93-1.851s1.31,1.7,2.39-2.312S2745.058,991.414,2747.911,989.024Z" transform="translate(-2552.453 -861.746)" fill="#f6a49d"/>
      <path id="Path_775" data-name="Path 775" d="M2746.129,1082.029a77.292,77.292,0,0,0,8.669-.427c11.4-1.185,16.942,1.186,16.942,1.186s-.365-4.885-4.361-14.655c-3.4-8.309-3.264-12.661-2.509-13.043l-3.681-3.788s-2.807,4.073-1.106,10.88-7.03,3.331-6.217,10.361S2744.909,1074.124,2746.129,1082.029Z" transform="translate(-2555.438 -881.381)" fill="#c0afe0"/>
      <path id="Path_778" data-name="Path 778" d="M2467.684,1018.915c0-.012.008-.029.012-.041,1.694-7.309,10.847-11.528,17.074-9.659s12.752,6.362,19.792,0c6.031-5.452,4.8-9.471,8.619-13.527-5.44,3.481-3.946,6.929-12.087,9.688-6.325,2.142-8.5,2.269-17.613,1.453C2476.274,1006.182,2468.811,1012.006,2467.684,1018.915Z" transform="translate(-2467.684 -863.847)" fill="#fff" opacity="0.31"/>
      <path id="Path_782" data-name="Path 782" d="M2576.095,1110" transform="translate(-2501.863 -899.886)" fill="#c2e7f0"/>
      <path id="Path_785" data-name="Path 785" d="M2946.873,1044.877s13.575,10.259,25.646,8.6,21.73-9.229,21.73-9.229l0,.009c.115.44,4.5,16.609,3.162,24.55,0,0,3.952,4.152,11.28,3.122.111-.014.222-.032.338-.049,7.545-1.2,19.011-3.771,25.349-2.865,0,0-3.775-12.261-6.791-24.767s-1.963-21.25-18.558-20.495c-8.451.382-17.8,3.016-22.782,7.54s-14.185,11.316-17.049,11.316-17.351-7.692-17.351-7.692S2947.322,1040.352,2946.873,1044.877Z" transform="translate(-2618.76 -872.682)" fill="#3a3e49"/>
      <path id="Path_786" data-name="Path 786" d="M3012.5,990.511l1.057.151,3.144,3.482,4.547,5.04,2.673,2.709a4.045,4.045,0,0,0,3.469,1.163l.591-.089a15.572,15.572,0,0,0,1.719-3.708c.529-1.883,5.218-5.578,2.265-7.993-2.412-1.976-1.252-2.114-.044-3.85s.053-4.948-4.588-4.343-5.12-.4-4.44-2.514-5.942-3.1-9.335,1.652a9.452,9.452,0,0,0-1.741,3.975A6.387,6.387,0,0,0,3012.5,990.511Z" transform="translate(-2639.204 -858.524)" fill="#3a3e49"/>
      <path id="Path_787" data-name="Path 787" d="M3012.5,993.466l1.057.151,3.144,3.482,4.045-.689s0-5.5-3.406-7.568a5.264,5.264,0,0,0-5.525.3A6.387,6.387,0,0,0,3012.5,993.466Z" transform="translate(-2639.204 -861.479)" fill="#24292f"/>
      <path id="Path_788" data-name="Path 788" d="M3024.29,1000a2.1,2.1,0,0,1,2.933,2.2c.092,3.209-3.391,3.3-3.391,3.3s-1.9,6.4-5.466,5.714c-5.167-1-5.167-16.256-5.167-16.256s2.658-3.666,5.133-2.108,2.75,6.142,3.942,6.692A4.179,4.179,0,0,0,3024.29,1000Z" transform="translate(-2639.671 -862.83)" fill="#f6a49d"/>
      <path id="Path_789" data-name="Path 789" d="M3036.521,1022.83s-.666-2.857-2.664-2.909-7.127,1.4-7.56,3.6Z" transform="translate(-2643.801 -871.487)" fill="#3a3e49"/>
      <path id="Path_790" data-name="Path 790" d="M3027.046,1013.3s1.131,3.93-2.222,5.928l-.72-2.006A13.448,13.448,0,0,0,3027.046,1013.3Z" transform="translate(-2643.11 -869.399)" fill="#d47c74"/>
      <path id="Path_791" data-name="Path 791" d="M3019.231,1078.271s3.952,4.152,11.28,3.122a10.015,10.015,0,0,0,.12-4.681c-1.923-9.77-7.918-7.7-8.216-12.359-.289-4.588-6.155-10.45-6.346-10.632C3016.185,1054.161,3020.572,1070.33,3019.231,1078.271Z" transform="translate(-2640.576 -882.143)" fill="#24292f"/>
      <path id="Path_792" data-name="Path 792" d="M2990.663,1114.9c.351,5.627,5.383,9.326,3.9,15.25-.684,2.723.329,5.889,1.621,8.509-.267-3.659-.555-8.788-.577-14.135-.031-8.784-1.292-14.362.066-14.926C2995.677,1109.6,2990.312,1109.281,2990.663,1114.9Z" transform="translate(-2632.561 -899.76)" fill="#574780"/>
      <path id="Path_793" data-name="Path 793" d="M3077.831,1215.31l1,6.495h-15.274l-.492-6.495Z" transform="translate(-2655.393 -933.089)" fill="#745faa"/>
      <path id="Path_794" data-name="Path 794" d="M2993.3,1151.3l.413,6.495h-14.687l.021-6.495Z" transform="translate(-2628.898 -912.907)" fill="#745faa"/>
      <path id="Path_795" data-name="Path 795" d="M2967.238,1224.09h12.155l-2.22-45.032h-7.714Z" transform="translate(-2625.181 -921.659)" fill="#fff" opacity="0.31"/>
      <path id="Path_796" data-name="Path 796" d="M2986.857,1178.909l3.331,45.134h5.72l-6.456-45.134Z" transform="translate(-2631.366 -921.612)" fill="#fff" opacity="0.31"/>
      <path id="Path_797" data-name="Path 797" d="M2778.074,1184.674c.01-.369,1.042-36.983,1.15-43.13.109-6.175-9.335-44.889-9.738-46.533l-.431.105c.1.4,9.833,40.3,9.725,46.42-.107,6.145-1.14,42.756-1.15,43.125Z" transform="translate(-2562.699 -895.161)" fill="#fff"/>
      <g id="Group_147" data-name="Group 147" transform="translate(98.375 127.847)">
        <g id="Group_146" data-name="Group 146" opacity="0.74">
          <path id="Path_798" data-name="Path 798" d="M2611.406,1007.3c0,.008.005.016.008.023a1.512,1.512,0,0,0,1.484,1.119l.88-.014a1.522,1.522,0,0,1,1.351.789l.166.288a1.523,1.523,0,0,1,.01,1.569l-.45.748a1.513,1.513,0,0,0,.227,1.847l.018.018a1.513,1.513,0,0,0,1.847.227l.749-.451a1.523,1.523,0,0,1,1.569.01l.288.166a1.519,1.519,0,0,1,.788,1.351l-.014.879a1.513,1.513,0,0,0,1.119,1.485l.023.007a1.514,1.514,0,0,0,1.714-.727l.426-.768a1.51,1.51,0,0,1,1.34-.777l.188,0,.188,0a1.51,1.51,0,0,1,1.34.777l.426.768a1.515,1.515,0,0,0,1.714.727l.023-.007a1.513,1.513,0,0,0,1.12-1.485l-.014-.879a1.521,1.521,0,0,1,.789-1.351l.288-.166a1.523,1.523,0,0,1,1.569-.01l.749.451a1.512,1.512,0,0,0,1.847-.227l.018-.018a1.513,1.513,0,0,0,.227-1.847l-.45-.748a1.525,1.525,0,0,1,.01-1.569l.167-.288a1.521,1.521,0,0,1,1.351-.789l.88.014a1.513,1.513,0,0,0,1.485-1.119c0-.008,0-.016.007-.023a1.514,1.514,0,0,0-.727-1.713l-.768-.427a1.509,1.509,0,0,1-.777-1.339c0-.063,0-.125,0-.188s0-.125,0-.188a1.509,1.509,0,0,1,.777-1.34l.768-.427a1.514,1.514,0,0,0,.727-1.713c0-.007,0-.016-.007-.023a1.512,1.512,0,0,0-1.485-1.12l-.88.014a1.519,1.519,0,0,1-1.351-.788l-.167-.288a1.525,1.525,0,0,1-.01-1.569l.45-.749a1.513,1.513,0,0,0-.227-1.847l-.018-.018a1.515,1.515,0,0,0-1.847-.227l-.749.451a1.523,1.523,0,0,1-1.569-.01l-.288-.166a1.522,1.522,0,0,1-.789-1.352l.014-.879a1.512,1.512,0,0,0-1.12-1.484c-.007,0-.016,0-.023-.008a1.516,1.516,0,0,0-1.714.728l-.426.767a1.508,1.508,0,0,1-1.34.777l-.188,0-.187,0a1.507,1.507,0,0,1-1.34-.777l-.426-.767a1.516,1.516,0,0,0-1.714-.728c-.007,0-.016,0-.023.008a1.511,1.511,0,0,0-1.119,1.484l.014.879a1.521,1.521,0,0,1-.788,1.352l-.288.166a1.523,1.523,0,0,1-1.569.01l-.749-.451a1.515,1.515,0,0,0-1.847.227l-.018.018a1.513,1.513,0,0,0-.227,1.847l.45.749a1.523,1.523,0,0,1-.01,1.569l-.166.288a1.52,1.52,0,0,1-1.351.788l-.88-.014a1.511,1.511,0,0,0-1.484,1.12c0,.007,0,.016-.008.023a1.515,1.515,0,0,0,.728,1.713l.767.427a1.506,1.506,0,0,1,.777,1.34c0,.062,0,.125,0,.188s0,.125,0,.188a1.506,1.506,0,0,1-.777,1.339l-.767.427A1.516,1.516,0,0,0,2611.406,1007.3Zm5.206-3.667a8.525,8.525,0,1,1,8.525,8.525A8.525,8.525,0,0,1,2616.612,1003.637Z" transform="translate(-2611.355 -989.855)" fill="#f0ebf7"/>
        </g>
        <path id="Path_799" data-name="Path 799" d="M2622.376,1007.112a6.236,6.236,0,1,1,6.236,6.236A6.242,6.242,0,0,1,2622.376,1007.112Zm1.332,0a4.9,4.9,0,1,0,4.9-4.9A4.909,4.909,0,0,0,2623.708,1007.112Z" transform="translate(-2614.83 -993.33)" fill="#f0ebf7"/>
      </g>
    </g>
  </g>
</svg>
