<svg id="Group_931" data-name="Group 931" xmlns="http://www.w3.org/2000/svg" width="551.613" height="326.419" viewBox="0 0 551.613 326.419">
  <path id="Path_3755" data-name="Path 3755" d="M4126.92,551.2s7.351-18.717,27.549-22.505c18.79-3.525,27.795-.472,46.87,6.409,11.868,4.281-7.386-1.432-17.277,12.482-8.752,12.31-20.921,30.093-44.7,24.1S4126.92,551.2,4126.92,551.2Z" transform="translate(-3653.471 -253.254)" fill="#f2d6c8"/>
  <g id="Group_801" data-name="Group 801" transform="translate(146.802 190.923)">
    <g id="Group_800" data-name="Group 800">
      <path id="Path_3756" data-name="Path 3756" d="M3665.266,456.143c.008.019.012.042.019.061a4.04,4.04,0,0,0,3.967,2.991l2.349-.038a4.064,4.064,0,0,1,3.609,2.106c.148.258.3.517.444.771a4.068,4.068,0,0,1,.027,4.19l-1.2,2a4.04,4.04,0,0,0,.608,4.934l.049.049a4.042,4.042,0,0,0,4.935.608l2-1.2a4.069,4.069,0,0,1,4.19.027c.254.147.512.3.771.444a4.064,4.064,0,0,1,2.106,3.609l-.038,2.349a4.04,4.04,0,0,0,2.99,3.966c.019.007.042.011.062.019a4.047,4.047,0,0,0,4.577-1.943l1.139-2.05a4.027,4.027,0,0,1,3.579-2.076c.167,0,.334.008.5.008s.334,0,.5-.008a4.027,4.027,0,0,1,3.578,2.076l1.139,2.05a4.048,4.048,0,0,0,4.577,1.943c.019-.008.042-.012.061-.019a4.04,4.04,0,0,0,2.99-3.966l-.038-2.349a4.064,4.064,0,0,1,2.106-3.609l.771-.444a4.068,4.068,0,0,1,4.19-.027l2,1.2a4.042,4.042,0,0,0,4.935-.608l.049-.049a4.041,4.041,0,0,0,.607-4.934l-1.2-2a4.069,4.069,0,0,1,.027-4.19c.147-.254.3-.512.444-.771a4.064,4.064,0,0,1,3.609-2.106l2.349.038a4.04,4.04,0,0,0,3.967-2.991c.008-.018.011-.042.019-.061a4.047,4.047,0,0,0-1.943-4.577l-2.05-1.139a4.029,4.029,0,0,1-2.076-3.579c0-.167.008-.334.008-.5s0-.334-.008-.5a4.027,4.027,0,0,1,2.076-3.578l2.05-1.139a4.047,4.047,0,0,0,1.943-4.577c-.008-.018-.011-.042-.019-.061a4.04,4.04,0,0,0-3.967-2.99l-2.349.038a4.065,4.065,0,0,1-3.609-2.106c-.148-.258-.3-.517-.444-.771a4.069,4.069,0,0,1-.027-4.19l1.2-2a4.041,4.041,0,0,0-.607-4.934l-.049-.049a4.043,4.043,0,0,0-4.935-.607l-2,1.2a4.068,4.068,0,0,1-4.19-.027l-.771-.444a4.064,4.064,0,0,1-2.106-3.609l.038-2.349a4.04,4.04,0,0,0-2.99-3.966c-.019-.008-.042-.011-.061-.019a4.047,4.047,0,0,0-4.577,1.943l-1.139,2.049a4.026,4.026,0,0,1-3.578,2.077c-.167,0-.334-.008-.5-.008s-.334,0-.5.008a4.026,4.026,0,0,1-3.579-2.077l-1.139-2.049a4.046,4.046,0,0,0-4.577-1.943c-.019.008-.042.011-.062.019a4.04,4.04,0,0,0-2.99,3.966l.038,2.349a4.064,4.064,0,0,1-2.106,3.609c-.258.148-.516.3-.771.444a4.069,4.069,0,0,1-4.19.027l-2-1.2a4.043,4.043,0,0,0-4.935.607l-.049.049a4.041,4.041,0,0,0-.608,4.934l1.2,2a4.068,4.068,0,0,1-.027,4.19c-.147.254-.3.512-.444.771a4.065,4.065,0,0,1-3.609,2.106l-2.349-.038a4.04,4.04,0,0,0-3.967,2.99c-.007.019-.011.042-.019.061a4.048,4.048,0,0,0,1.943,4.577l2.05,1.139a4.027,4.027,0,0,1,2.076,3.578c0,.167-.008.335-.008.5s0,.334.008.5a4.029,4.029,0,0,1-2.076,3.579l-2.05,1.139A4.047,4.047,0,0,0,3665.266,456.143Zm13.906-9.8a22.772,22.772,0,1,1,22.771,22.772A22.77,22.77,0,0,1,3679.172,446.348Z" transform="translate(-3665.131 -409.535)" fill="#edf6f5"/>
    </g>
    <circle id="Ellipse_68" data-name="Ellipse 68" cx="10.257" cy="10.257" r="10.257" transform="translate(25.045 28.331) rotate(-9.217)" fill="#edf6f5"/>
  </g>
  <g id="Group_806" data-name="Group 806" transform="translate(199.163 27.387)">
    <rect id="Rectangle_378" data-name="Rectangle 378" width="106.301" height="54.683" transform="translate(0 12.629)" fill="#edf6f5"/>
    <rect id="Rectangle_379" data-name="Rectangle 379" width="106.301" height="9.073" fill="#edf6f5"/>
    <g id="Group_805" data-name="Group 805" transform="translate(81.639 2.731)">
      <g id="Group_802" data-name="Group 802" transform="translate(0 0)">
        <path id="Path_3757" data-name="Path 3757" d="M3855.032,183.452a1.805,1.805,0,1,0,1.806-1.805A1.805,1.805,0,0,0,3855.032,183.452Z" transform="translate(-3855.032 -181.647)" fill="#c6e0dd"/>
      </g>
      <g id="Group_803" data-name="Group 803" transform="translate(7.411)">
        <circle id="Ellipse_69" data-name="Ellipse 69" cx="1.805" cy="1.805" r="1.805" fill="#c6e0dd"/>
      </g>
      <g id="Group_804" data-name="Group 804" transform="translate(14.822)">
        <circle id="Ellipse_70" data-name="Ellipse 70" cx="1.805" cy="1.805" r="1.805" fill="#c6e0dd"/>
      </g>
    </g>
  </g>
  <g id="Group_807" data-name="Group 807" transform="translate(369.278 302.115)">
    <path id="Path_3758" data-name="Path 3758" d="M4007.809,591.533l-.025-2.036a21.737,21.737,0,0,0-8.214-16.939l-.632.888a21.016,21.016,0,0,1,7.672,14.4c-2.228-2.387-8.011-6.8-18.823-4.251l.25,1.061c13.613-3.209,18.683,5.041,18.732,5.125Z" transform="translate(-3982.587 -568.715)" fill="#f2baab"/>
    <path id="Path_3759" data-name="Path 3759" d="M3980.52,589.981a2.584,2.584,0,1,0,1.765-3.2A2.584,2.584,0,0,0,3980.52,589.981Z" transform="translate(-3980.417 -572.873)" fill="#f2baab"/>
    <path id="Path_3760" data-name="Path 3760" d="M4020.483,578.427a2.584,2.584,0,1,0,1.765-3.2A2.584,2.584,0,0,0,4020.483,578.427Z" transform="translate(-3992.181 -569.471)" fill="#f2baab"/>
    <path id="Path_3761" data-name="Path 3761" d="M3998.42,570.415a2.584,2.584,0,1,0,1.765-3.2A2.584,2.584,0,0,0,3998.42,570.415Z" transform="translate(-3985.687 -567.113)" fill="#f2baab"/>
    <path id="Path_3762" data-name="Path 3762" d="M4015.669,591.843c-.126-4.987,4.352-10.543,4.4-10.6l-.844-.689c-.2.239-4.78,5.92-4.643,11.315Z" transform="translate(-3990.473 -571.07)" fill="#f2baab"/>
  </g>
  <rect id="Rectangle_380" data-name="Rectangle 380" width="67.064" height="2.993" transform="translate(339.787 168.736)" fill="#c6e0dd"/>
  <rect id="Rectangle_381" data-name="Rectangle 381" width="152.752" height="78.578" transform="translate(346.243 35.009)" fill="#edf6f5"/>
  <rect id="Rectangle_382" data-name="Rectangle 382" width="152.752" height="13.038" transform="translate(346.243 16.862)" fill="#edf6f5"/>
  <rect id="Rectangle_383" data-name="Rectangle 383" width="181.294" height="96.726" rx="5.618" transform="translate(270.979 46.796)" fill="#b6d5d0"/>
  <circle id="Ellipse_71" data-name="Ellipse 71" cx="7.047" cy="7.047" r="7.047" transform="translate(267.375 46.948)" fill="#b6d5d0"/>
  <path id="Path_3763" data-name="Path 3763" d="M4072.141,339.942c.176,2.577,8.776,2.475,12.113,2.475a6.385,6.385,0,0,0,6.158-6.324c0-3.343.107-6.128-3.229-6.128S4071.913,336.607,4072.141,339.942Z" transform="translate(-3638.138 -195.189)" fill="#b6d5d0"/>
  <rect id="Rectangle_384" data-name="Rectangle 384" width="181.294" height="96.725" rx="5.618" transform="translate(267.313 50.514)" fill="#dceceb"/>
  <rect id="Rectangle_385" data-name="Rectangle 385" width="127.192" height="18.861" rx="3.424" transform="translate(317.637 100.717)" fill="#b2e5e0"/>
  <rect id="Rectangle_386" data-name="Rectangle 386" width="127.192" height="18.861" rx="3.424" transform="translate(312.88 104.945)" fill="#3fb8a9"/>
  <path id="Path_3764" data-name="Path 3764" d="M3835.914,333.021v6.343a3.965,3.965,0,0,0,3.964,3.964h173.366a3.965,3.965,0,0,0,3.964-3.964v-6.343Z" transform="translate(-3568.602 -196.089)" fill="#c6e0dd"/>
  <rect id="Rectangle_387" data-name="Rectangle 387" width="25.371" height="24.397" transform="translate(467.282 138.476)" fill="#eb908b"/>
  <path id="Path_3765" data-name="Path 3765" d="M3988.939,369.35s8.369.881,11.717,1.585,8.1,7.048,7.928,7.752-4.228,1.938-7.223,1.938-16.385-2.29-16.385-2.29Z" transform="translate(-3612.481 -206.783)" fill="#e9928b"/>
  <g id="Group_808" data-name="Group 808" transform="translate(390.557 232.937)">
    <path id="Path_3766" data-name="Path 3766" d="M4010.673,503.34c.006.014.009.031.014.045a2.971,2.971,0,0,0,2.916,2.2l1.727-.028a2.987,2.987,0,0,1,2.653,1.548c.109.19.218.38.327.567a2.992,2.992,0,0,1,.019,3.08l-.884,1.47a2.97,2.97,0,0,0,.446,3.627l.037.037a2.97,2.97,0,0,0,3.627.446l1.471-.884a2.991,2.991,0,0,1,3.08.02c.187.109.377.217.567.326a2.988,2.988,0,0,1,1.548,2.653l-.028,1.727a2.969,2.969,0,0,0,2.2,2.916c.014.006.031.009.045.014a2.974,2.974,0,0,0,3.365-1.429l.837-1.507a2.963,2.963,0,0,1,2.631-1.526c.123,0,.246.006.368.006s.246,0,.369-.006a2.961,2.961,0,0,1,2.63,1.526l.838,1.507a2.974,2.974,0,0,0,3.365,1.429c.014-.006.031-.008.044-.014a2.969,2.969,0,0,0,2.2-2.916l-.028-1.727a2.987,2.987,0,0,1,1.548-2.653l.567-.326a2.99,2.99,0,0,1,3.08-.02l1.471.884a2.97,2.97,0,0,0,3.627-.446l.036-.037a2.97,2.97,0,0,0,.447-3.627l-.884-1.47a2.992,2.992,0,0,1,.019-3.08c.109-.187.218-.377.327-.567a2.987,2.987,0,0,1,2.653-1.548l1.728.028a2.971,2.971,0,0,0,2.916-2.2c.006-.014.008-.031.014-.045a2.975,2.975,0,0,0-1.429-3.364l-1.507-.837a2.962,2.962,0,0,1-1.526-2.631c0-.123.006-.246.006-.368s0-.246-.006-.368a2.96,2.96,0,0,1,1.526-2.631l1.507-.838a2.975,2.975,0,0,0,1.429-3.364c-.006-.014-.008-.031-.014-.044a2.969,2.969,0,0,0-2.916-2.2l-1.728.027a2.987,2.987,0,0,1-2.653-1.548c-.109-.19-.218-.38-.327-.567a2.992,2.992,0,0,1-.019-3.08l.884-1.471a2.97,2.97,0,0,0-.447-3.627l-.036-.036a2.971,2.971,0,0,0-3.627-.447l-1.471.884a2.991,2.991,0,0,1-3.08-.019c-.187-.109-.377-.218-.567-.327a2.986,2.986,0,0,1-1.548-2.653l.028-1.727a2.97,2.97,0,0,0-2.2-2.916c-.013-.006-.031-.008-.044-.013a2.974,2.974,0,0,0-3.365,1.428l-.838,1.507a2.96,2.96,0,0,1-2.63,1.526c-.123,0-.246-.006-.369-.006s-.246,0-.368.006a2.961,2.961,0,0,1-2.631-1.526l-.837-1.507a2.974,2.974,0,0,0-3.365-1.428c-.014.006-.031.008-.045.013a2.97,2.97,0,0,0-2.2,2.916l.028,1.727a2.987,2.987,0,0,1-1.548,2.653c-.19.109-.38.217-.567.327a2.992,2.992,0,0,1-3.08.019l-1.471-.884a2.971,2.971,0,0,0-3.627.447l-.037.036a2.97,2.97,0,0,0-.446,3.627l.884,1.471a2.992,2.992,0,0,1-.019,3.08c-.109.187-.218.377-.327.567a2.988,2.988,0,0,1-2.653,1.548l-1.727-.027a2.969,2.969,0,0,0-2.916,2.2c-.005.013-.008.03-.014.044a2.975,2.975,0,0,0,1.429,3.364l1.507.838a2.96,2.96,0,0,1,1.526,2.631c0,.123-.006.246-.006.368s0,.246.006.368a2.962,2.962,0,0,1-1.526,2.631l-1.507.837A2.975,2.975,0,0,0,4010.673,503.34Zm10.223-7.2a16.74,16.74,0,1,1,16.74,16.74A16.739,16.739,0,0,1,4020.9,496.139Z" transform="translate(-4010.573 -469.076)" fill="#edf6f5"/>
  </g>
  <rect id="Rectangle_388" data-name="Rectangle 388" width="260.401" height="7.047" transform="translate(206.881 171.729)" fill="#dceceb"/>
  <rect id="Rectangle_389" data-name="Rectangle 389" width="60.431" height="7.047" transform="translate(406.851 171.729)" fill="#b6d5d0"/>
  <rect id="Rectangle_390" data-name="Rectangle 390" width="4.405" height="142.886" transform="translate(462.877 178.776)" fill="#adccc7"/>
  <rect id="Rectangle_391" data-name="Rectangle 391" width="4.405" height="142.886" transform="translate(406.851 178.776)" fill="#adccc7"/>
  <path id="Path_3767" data-name="Path 3767" d="M3724.032,581.39s-7.928-23.257-33.034-14.8c0,0-6.343-19.82-23.785-19.16s-22.992,16.972-22.992,16.972-23.434-2.833-26.78,16.988Z" transform="translate(-3504.29 -259.199)" fill="#adccc7"/>
  <path id="Path_3768" data-name="Path 3768" d="M4134.161,579.534s-2.114-19.293-24.049-18.236c0,0-2.114-15.328-14.535-19.16s-26.956,3.172-30.392,18.7a25.268,25.268,0,0,0-24.843-3.359c-14.271,5.671-11.628,22.057-11.628,22.057Z" transform="translate(-3625.299 -257.343)" fill="#adccc7"/>
  <g id="Group_812" data-name="Group 812" transform="translate(351.513 20.883)">
    <g id="Group_809" data-name="Group 809" transform="translate(20.509)">
      <circle id="Ellipse_72" data-name="Ellipse 72" cx="2.498" cy="2.498" r="2.498" fill="#67b4d2"/>
    </g>
    <g id="Group_810" data-name="Group 810" transform="translate(10.254)">
      <circle id="Ellipse_73" data-name="Ellipse 73" cx="2.498" cy="2.498" r="2.498" fill="#eb908b"/>
    </g>
    <g id="Group_811" data-name="Group 811">
      <circle id="Ellipse_74" data-name="Ellipse 74" cx="2.498" cy="2.498" r="2.498" fill="#ffaa3f"/>
    </g>
  </g>
  <rect id="Rectangle_392" data-name="Rectangle 392" width="395.711" height="4.757" transform="translate(113.15 321.662)" fill="#adccc7"/>
  <path id="Path_3769" data-name="Path 3769" d="M3907.076,558.888l13.478,8.282,4.017-7.231,3.251-5.851-13.5-7.4-3.922,6.6Z" transform="translate(-3589.55 -258.986)" fill="#e9928b"/>
  <path id="Path_3770" data-name="Path 3770" d="M3915.7,546.688l-3.922,6.6,14.176,6.649,3.25-5.851Z" transform="translate(-3590.934 -258.986)" fill="#de6667"/>
  <path id="Path_3771" data-name="Path 3771" d="M3848.439,454.556c4.244,6.184,13.256,12.6,13.256,12.6l13.478,1.411,40.17-.529-18.2,33.024-5.851,10.619a2.87,2.87,0,0,0,1.464,4.054c6.819,2.7,13.436,5.629,16.481,7a2.854,2.854,0,0,0,3.156-.539c7.2-6.914,33.643-38.479,40.566-54.515,7-16.2-11.565-23.024-39.05-30.07s-36.116-9.525-36.116-9.525-30,13.109-31.422,20.127C3845.986,450.09,3846.9,452.31,3848.439,454.556Z" transform="translate(-3571.653 -224.074)" fill="#376f92"/>
  <path id="Path_3772" data-name="Path 3772" d="M3849.339,456.21c4.244,6.184,13.256,12.6,13.256,12.6l13.478,1.411,40.17-.529-18.2,33.024c17.765-4.725,10.508-19.065,24.811-21.549s18.737-4.91,19.53-10.988-18.235-3.172-31.554-10.571-34.5,1.369-31.713-7.056a143.321,143.321,0,0,0,4.445-18.843l-25.936,8.721S3852.854,450.221,3849.339,456.21Z" transform="translate(-3572.554 -225.728)" fill="#1b5175"/>
  <path id="Path_3773" data-name="Path 3773" d="M3865.376,549.108l11.649,10.862,2.907-13.018,1.126-5.042-13.922-3.52-.8,4.905Z" transform="translate(-3577.274 -256.543)" fill="#e9928b"/>
  <path id="Path_3774" data-name="Path 3774" d="M3866.732,543.294l13.6,3.658,1.126-5.042-13.922-3.52Z" transform="translate(-3577.674 -256.543)" fill="#de6667"/>
  <path id="Path_3775" data-name="Path 3775" d="M3866.33,524.444c6.807,1.459,12.622,3.019,16.073,4a3.971,3.971,0,0,0,3.663-.8c.069-.063.143-.127.206-.2v0a3.871,3.871,0,0,0,.872-1.274l1.263-2.981,16.581-39.029-25.635.349-4.054.058-.586,1.713-.28.819-11.174,32.655A3.978,3.978,0,0,0,3866.33,524.444Z" transform="translate(-3576.627 -240.579)" fill="#376f92"/>
  <path id="Path_3776" data-name="Path 3776" d="M3895.821,545.333v0c.042-.138.08-.27.111-.407l-.317.608C3895.684,545.465,3895.758,545.4,3895.821,545.333Z" transform="translate(-3586.176 -258.465)" fill="#1b5175"/>
  <path id="Path_3777" data-name="Path 3777" d="M3890.28,516.125a20.285,20.285,0,0,1,.222,10.91l2.024-3.848,16.581-39.029-25.635.349c-1.855.708-3.5,1.332-4.641,1.77-1.036.4-1.665.634-1.665.634s.513.059,1.385.185c3.647.519,13.6,2.2,18.726,5.677C3903.62,497.075,3886.981,504.676,3890.28,516.125Z" transform="translate(-3580.745 -240.579)" fill="#1b5175"/>
  <path id="Path_3778" data-name="Path 3778" d="M3899.336,573.841a6.69,6.69,0,0,0-3.436,3.524c-.88,2.467,2.221,4.937,6.361,6.741,2.94,1.281,8.351,4.535,8.351,4.535H3926.2l-8.986-8.1Z" transform="translate(-3586.216 -266.979)" fill="#8dbcd6"/>
  <path id="Path_3779" data-name="Path 3779" d="M3903.8,563.855s3.876-2.2,12.51,5.373c2.4,2.106,5.4,9.065,12.572,10.441,11.01,2.114,8.809,5.944,8.809,5.944h-14.245s-5.033-1.854-8.81-3.478c-5.839-2.511-12.861-13.084-18.675-7.8C3895.963,574.338,3898.518,565.792,3903.8,563.855Z" transform="translate(-3586.278 -263.951)" fill="#0c1b3c"/>
  <path id="Path_3780" data-name="Path 3780" d="M3853.593,303.838c-1.338-2.2-.5-12.326-.5-12.326s10.259-2.326,12.025-8.1a20.177,20.177,0,0,0,.6-2.854v0a117.2,117.2,0,0,0,.745-15.074c0-1.084-.01-2.035-.021-2.791-.016-1.179-.037-1.887-.037-1.887l-7.7-2.083-10.223,5.725-7.1,3.974-5.534,15.556s-.18,12.474-4.577,19.34C3828.222,308.072,3856.03,307.86,3853.593,303.838Z" transform="translate(-3567.166 -174.215)" fill="#e9928b"/>
  <path id="Path_3781" data-name="Path 3781" d="M3873.953,270.03s3.789,15.005,4.392,12.172v0c.592-2.865,6.623-.978,3.626-4.149-2.009-2.125-2.616-7.58-2.8-10.936-.09-1.655-.08-2.8-.08-2.8l-.021.021-2.749,3.06Z" transform="translate(-3579.799 -175.863)" fill="#e9928b"/>
  <path id="Path_3782" data-name="Path 3782" d="M3855.354,264.064s.1.143.285.375c1.152,1.516,5.434,7,5.112,4.366-.371-3.039,1.855-4.287,6.892-3.288a14.024,14.024,0,0,0,3.2.227,21.381,21.381,0,0,0,2.77-.27.445.445,0,0,0,.08-.011c-.09-1.655-.08-2.8-.08-2.8l-.021.021c-.016-1.179-.037-1.887-.037-1.887l-7.7-2.083Z" transform="translate(-3574.324 -174.215)" fill="#de6667"/>
  <path id="Path_3783" data-name="Path 3783" d="M3855.136,318.885s-.4-4.625-8.721-7-13.5-1.154-15.072,4.378S3855.136,318.885,3855.136,318.885Z" transform="translate(-3567.236 -189.526)" fill="#f5911f"/>
  <path id="Path_3784" data-name="Path 3784" d="M3866.557,276.183c-.781-.452-6.475.241-9.362-2.245s-4.01-10.986-3.368-13.391,6.655-1.2,12.349-3.048,6.455-9.863,3.108-13.311-13.051-6.415-17.462,1.764c0,0-2.967-4.731-9.3-1.523s-5.373,11.066-5.373,11.066-5.613-.4-5.773,6.976c-.147,6.792,4.9,14.319,4.28,18.949a.825.825,0,0,0,.987.936,9.927,9.927,0,0,0,2.815-1.1,6.106,6.106,0,0,0,2.269-7.986c-1.084-1.986-1.716-5.233-.369-7.442,2.887-4.731,6.47-.507,5.748,3.5s-1.216,10.459,1.511,15.03,12.51,8.259,15.556,4.25S3867.376,276.657,3866.557,276.183Z" transform="translate(-3567.265 -168.912)" fill="#0c1b3c"/>
  <path id="Path_3785" data-name="Path 3785" d="M3832.866,418.43a42.95,42.95,0,0,0,19.843-3.884c13.261-6.089,19.916-17.173,18.435-17.754-2.1-.814-5.623-4.043-9.234-12.231-1.887-4.27-3.065-23.563-.264-23.521,1.025.016,8.631,4.525,16.248,8.077,4.207,1.972,8.42,3.652,11.528,4.122,8.721,1.322,39.642-7.135,43.341-9.249,3.171-1.813,2.606-6.75.919-8.938v0a3.149,3.149,0,0,0-.919-.835c-3.139-1.76-31.185,0-35.149,0s-6.871-1.586-19.82-14.271-28.019-21.015-46.862-21.935c-27.046-1.321-33.215,13.214-36.386,24.842S3806.7,417.373,3832.866,418.43Z" transform="translate(-3556.303 -191.644)" fill="#ffab40"/>
  <path id="Path_3786" data-name="Path 3786" d="M3867.131,551.891c5.9-.091,8.01,4.743,9.992,9.236s4.385,14.974,7.821,16.031,5.286,2.907,5.286,5.021h-12.4s-7.781-8.553-11.782-11.893-4.973-5.5-4.973-5.5,1.537-8.264,3.035-11.7A4.343,4.343,0,0,1,3867.131,551.891Z" transform="translate(-3576.009 -260.517)" fill="#0c1b3c"/>
  <rect id="Rectangle_393" data-name="Rectangle 393" width="4.405" height="142.886" transform="translate(262.908 178.776)" fill="#adccc7"/>
  <rect id="Rectangle_394" data-name="Rectangle 394" width="4.405" height="142.886" transform="translate(206.881 178.776)" fill="#adccc7"/>
  <rect id="Rectangle_395" data-name="Rectangle 395" width="41.454" height="24.398" transform="translate(164.659 126.277)" fill="#67b4d2"/>
  <path id="Path_3787" data-name="Path 3787" d="M3866.156,564.091c4.3.891,5.882,5.506,8.525,13.17s7.885,8.5,7.885,8.5h-14.645a44.346,44.346,0,0,0-2.559-6.385c-1.289-2.641-3.508-5.661-4.071-8.415C3859.97,564.486,3865.107,563.875,3866.156,564.091Z" transform="translate(-3576.009 -264.098)" fill="#8dbcd6"/>
  <g id="Group_815" data-name="Group 815" transform="translate(277.794 245.814)">
    <g id="Group_813" data-name="Group 813" transform="translate(50.566)">
      <path id="Path_3788" data-name="Path 3788" d="M3943.307,564.23a1.057,1.057,0,0,0,1.022-1.328l-19.821-74.791a1.057,1.057,0,1,0-2.043.542l19.821,74.791A1.057,1.057,0,0,0,3943.307,564.23Z" transform="translate(-3922.43 -487.325)" fill="#edbf84"/>
    </g>
    <g id="Group_814" data-name="Group 814">
      <path id="Path_3789" data-name="Path 3789" d="M3871.646,564.23a1.057,1.057,0,0,0,1.023-1.328l-19.821-74.791a1.057,1.057,0,0,0-2.043.542l19.821,74.791A1.057,1.057,0,0,0,3871.646,564.23Z" transform="translate(-3850.769 -487.325)" fill="#edbf84"/>
    </g>
  </g>
  <g id="Group_818" data-name="Group 818" transform="translate(230.379 245.815)">
    <g id="Group_816" data-name="Group 816">
      <path id="Path_3790" data-name="Path 3790" d="M3784.631,564.231a1.057,1.057,0,0,0,1.021-.786l19.821-74.791a1.057,1.057,0,0,0-2.044-.542l-19.82,74.791a1.057,1.057,0,0,0,1.022,1.328Z" transform="translate(-3783.573 -487.326)" fill="#edbf84"/>
    </g>
    <g id="Group_817" data-name="Group 817" transform="translate(50.566)">
      <path id="Path_3791" data-name="Path 3791" d="M3856.292,564.231a1.057,1.057,0,0,0,1.021-.786l19.821-74.791a1.057,1.057,0,1,0-2.043-.542L3855.269,562.9a1.057,1.057,0,0,0,1.022,1.328Z" transform="translate(-3855.234 -487.326)" fill="#edbf84"/>
    </g>
  </g>
  <path id="Path_3792" data-name="Path 3792" d="M3926.313,580.764a7.167,7.167,0,0,1,2.578-2.65l-.259-.46a7.57,7.57,0,0,0-2.793,2.877Z" transform="translate(-3595.073 -268.101)" fill="#fff"/>
  <path id="Path_3793" data-name="Path 3793" d="M3931.008,584.544h.528c0-1.186,1.532-2.518,1.547-2.531l-.345-.4C3932.668,581.674,3931.008,583.118,3931.008,584.544Z" transform="translate(-3596.595 -269.266)" fill="#fff"/>
  <path id="Path_3794" data-name="Path 3794" d="M3760.286,376.525c1.47,10.692,4.514,21.919,6.142,29.483,1.929,8.975,4.112,18.209,6.691,27.057,3.367,11.565,12.437,14.493,18.262,14.493.1,0,1.093,0,2.716-.011,6.507-.016,23.156-.058,33.172-.085,4.73,0,7.981-.016,7.981-.016l9.514.111-8.631-5.048-4.937-7.749-8.806-30.307L3812,368.692l-12.157-18.679s-14.1-5.988-23.96-5.634a16.236,16.236,0,0,0-13.742,7.97c-1.708,3.034-2.49,7-2.654,11.46A74.366,74.366,0,0,0,3760.286,376.525Z" transform="translate(-3546.093 -199.428)" fill="#f7dfd3"/>
  <path id="Path_3795" data-name="Path 3795" d="M3763.256,350.553s3.7-12.289,21.407-12.289c13.229,0,23.134,6.79,30.282,20.758,6.031,11.783,9.517,27.22,13.207,43.563,2,8.842,4.061,17.984,6.575,26.613,2.92,10.021,11.366,9.214,12.29,9.092l42.739-.04a3.7,3.7,0,1,1,0,7.4s-43.178.114-43.871.114c-5.822,0-14.892-2.928-18.263-14.5-2.578-8.846-4.667-18.1-6.689-27.053-6.663-29.507-12.53-55.927-32.307-58.947C3787.569,344.342,3774.224,341.964,3763.256,350.553Z" transform="translate(-3547.214 -197.632)" fill="#f4c8af"/>
  <path id="Path_3796" data-name="Path 3796" d="M3874.127,430.548c-.005,0-.011,0-.015.011,13.261-6.089,19.916-17.173,18.435-17.754-2.1-.814-5.623-4.043-9.234-12.231-1.887-4.27-3.065-23.563-.264-23.521,0,0-14.8-7.4-15.064-3.7s7.135,21.142,0,26.956S3890.138,419.807,3874.127,430.548Z" transform="translate(-3577.707 -207.656)" fill="#f5911f"/>
  <path id="Path_3797" data-name="Path 3797" d="M3760.982,392.321c1.469,10.692,4.27,20.24,5.9,27.8,1.929,8.975,4.112,18.209,6.691,27.057,3.366,11.565,12.437,14.493,18.262,14.493.1,0,1.094,0,2.717-.011,6.507-.016,23.156-.058,33.172-.085-5.771-2.336-19.7-8.869-17.07-13.1,11.645-18.708-17.159-17.86-30.833-24.752C3766.684,417.107,3783.071,407.237,3760.982,392.321Z" transform="translate(-3546.544 -213.545)" fill="#f4c8af"/>
  <g id="Group_819" data-name="Group 819" transform="translate(156.783 297.075)">
    <path id="Path_3798" data-name="Path 3798" d="M3693.086,584.971l1.044-.168c-2.252-13.976,6.417-24.034,6.5-24.134l-.794-.7C3699.749,560.075,3690.752,570.489,3693.086,584.971Z" transform="translate(-3683.227 -559.971)" fill="#6eab9c"/>
    <path id="Path_3799" data-name="Path 3799" d="M3688.867,576.516l.81-.681c-.08-.095-8.02-9.591-9.37-15.534l-1.032.234C3680.684,566.729,3688.534,576.119,3688.867,576.516Z" transform="translate(-3679.275 -560.068)" fill="#6eab9c"/>
    <path id="Path_3800" data-name="Path 3800" d="M3693.476,587.181c6.252-.341,11.783-6.777,12.016-7.051l-.806-.685c-.054.064-5.474,6.364-11.268,6.68Z" transform="translate(-3683.438 -565.704)" fill="#6eab9c"/>
  </g>
  <path id="Path_3801" data-name="Path 3801" d="M3658.962,591.757l.691-.8c-.45-.389-11.092-9.53-16.646-9.684l-.029,1.057C3648.156,582.473,3658.854,591.664,3658.962,591.757Z" transform="translate(-3511.807 -269.166)" fill="#6eab9c"/>
  <path id="Path_3802" data-name="Path 3802" d="M3636.274,592.248a95.659,95.659,0,0,0,15.411-2.29l-.264-1.023a94.7,94.7,0,0,1-15.21,2.258Z" transform="translate(-3509.816 -271.422)" fill="#6eab9c"/>
  <path id="Path_3803" data-name="Path 3803" d="M3725.458,591.473c5.576-4.636,17.35-8.343,17.468-8.38l-.315-1.01c-.492.153-12.094,3.808-17.83,8.578Z" transform="translate(-3535.888 -269.405)" fill="#6eab9c"/>
  <path id="Path_3804" data-name="Path 3804" d="M3733.133,579.186" transform="translate(-3538.346 -268.552)" fill="none" stroke="#6eab9c" stroke-width="2"/>
  <path id="Path_3805" data-name="Path 3805" d="M3731.679,586.464l1.058-.031a17.864,17.864,0,0,1,1.924-8.408l-.921-.521A18.692,18.692,0,0,0,3731.679,586.464Z" transform="translate(-3537.916 -268.057)" fill="#6eab9c"/>
  <path id="Path_3806" data-name="Path 3806" d="M4103.684,582.584c1.521-18.968,12.077-28.578,12.185-28.673l-.7-.79c-.11.1-10.979,9.964-12.536,29.378Z" transform="translate(-3647.114 -260.88)" fill="#6eab9c"/>
  <path id="Path_3807" data-name="Path 3807" d="M4102.414,578.055c.158-8.079-5.965-18.1-6.227-18.523l-.9.555c.062.1,6.222,10.181,6.069,17.947Z" transform="translate(-3644.953 -262.766)" fill="#6eab9c"/>
  <path id="Path_3808" data-name="Path 3808" d="M4107.485,571.8a42.408,42.408,0,0,0,19.111-10.388l-.76-.735a41.263,41.263,0,0,1-18.584,10.093Z" transform="translate(-3648.475 -263.105)" fill="#6eab9c"/>
  <path id="Path_3809" data-name="Path 3809" d="M4067.013,589.319l.8-.694c-.446-.512-11.037-12.55-22.042-13.657l-.106,1.052C4056.249,577.086,4066.907,589.2,4067.013,589.319Z" transform="translate(-3630.345 -267.311)" fill="#6eab9c"/>
  <path id="Path_3810" data-name="Path 3810" d="M4047.472,588.334a58.392,58.392,0,0,0,13.835-1.607l-.263-1.025a58.135,58.135,0,0,1-15.29,1.543l-.055,1.056C4045.722,588.3,4046.375,588.334,4047.472,588.334Z" transform="translate(-3630.356 -270.47)" fill="#6eab9c"/>
  <path id="Path_3811" data-name="Path 3811" d="M4139.1,592.358c4.817-3.635,15.7-6.265,15.806-6.291l-.245-1.029c-.456.109-11.2,2.708-16.2,6.477Z" transform="translate(-3657.662 -270.275)" fill="#6eab9c"/>
  <path id="Path_3812" data-name="Path 3812" d="M4142.744,588.446c2.944-6.435,1.595-10.538,1.536-10.709l-1,.342c.014.039,1.257,3.909-1.5,9.928Z" transform="translate(-3658.64 -268.125)" fill="#6eab9c"/>
  <path id="Path_3813" data-name="Path 3813" d="M4112.135,525.788" transform="translate(-3649.912 -252.833)" fill="none" stroke="#f5b89b" stroke-linecap="round" stroke-width="2"/>
  <rect id="Rectangle_396" data-name="Rectangle 396" width="127.192" height="18.861" rx="3.424" transform="translate(339.787 65.359)" fill="#b2e5e0"/>
  <rect id="Rectangle_397" data-name="Rectangle 397" width="127.192" height="18.861" rx="3.424" transform="translate(335.03 69.588)" fill="#3fb8a9"/>
  <rect id="Rectangle_398" data-name="Rectangle 398" width="24.666" height="3.339" transform="translate(428.496 77.349)" fill="#fff"/>
  <rect id="Rectangle_399" data-name="Rectangle 399" width="9.999" height="3.339" transform="translate(412.621 77.349)" fill="#fff"/>
  <rect id="Rectangle_400" data-name="Rectangle 400" width="24.666" height="3.339" transform="translate(381.983 77.349)" fill="#fff"/>
  <rect id="Rectangle_401" data-name="Rectangle 401" width="9.999" height="3.339" transform="translate(366.108 77.349)" fill="#fff"/>
  <rect id="Rectangle_402" data-name="Rectangle 402" width="13.944" height="3.339" transform="translate(346.835 77.349)" fill="#fff"/>
  <rect id="Rectangle_403" data-name="Rectangle 403" width="20.066" height="3.339" transform="translate(409.204 112.706)" fill="#fff"/>
  <rect id="Rectangle_404" data-name="Rectangle 404" width="13.868" height="3.339" transform="translate(388.729 112.706)" fill="#fff"/>
  <rect id="Rectangle_405" data-name="Rectangle 405" width="19.406" height="3.339" transform="translate(363.352 112.706)" fill="#fff"/>
  <rect id="Rectangle_406" data-name="Rectangle 406" width="14.397" height="3.339" transform="translate(342.216 112.706)" fill="#fff"/>
  <rect id="Rectangle_407" data-name="Rectangle 407" width="13.944" height="3.339" transform="translate(322.943 112.706)" fill="#fff"/>
  <g id="Group_820" data-name="Group 820" transform="translate(471.784 143.354)">
    <path id="Path_3814" data-name="Path 3814" d="M4132.34,350.016a5.948,5.948,0,0,1-1.218,4.026,4.432,4.432,0,0,1-3.527,1.4,5.015,5.015,0,0,1-1.909-.356v-2.765a2.741,2.741,0,0,0,1.7.575q2.017,0,2.018-2.994v-7.777h2.939Z" transform="translate(-4125.686 -342.121)" fill="#fff"/>
    <path id="Path_3815" data-name="Path 3815" d="M4138.572,356.429v-2.337a6.114,6.114,0,0,0,1.42.639,4.714,4.714,0,0,0,1.337.21,2.875,2.875,0,0,0,1.21-.21.678.678,0,0,0,.442-.639.592.592,0,0,0-.2-.456,1.885,1.885,0,0,0-.516-.32,5.907,5.907,0,0,0-.689-.246q-.374-.11-.721-.247a6.8,6.8,0,0,1-.981-.452,2.816,2.816,0,0,1-.712-.561,2.215,2.215,0,0,1-.438-.74,2.969,2.969,0,0,1-.151-.995,2.564,2.564,0,0,1,.342-1.351,2.8,2.8,0,0,1,.914-.926,4.141,4.141,0,0,1,1.305-.529,6.784,6.784,0,0,1,1.528-.169,8.451,8.451,0,0,1,1.26.1,9.513,9.513,0,0,1,1.259.278V349.7a4.552,4.552,0,0,0-1.173-.479,4.939,4.939,0,0,0-1.227-.16,2.745,2.745,0,0,0-.535.05,1.793,1.793,0,0,0-.443.146.811.811,0,0,0-.3.246.567.567,0,0,0-.111.343.632.632,0,0,0,.165.438,1.419,1.419,0,0,0,.43.315,4.161,4.161,0,0,0,.588.237q.324.1.644.215a8.374,8.374,0,0,1,1.041.438,3.317,3.317,0,0,1,.8.557,2.175,2.175,0,0,1,.511.749,3,3,0,0,1-.181,2.441,2.889,2.889,0,0,1-.959.958,4.345,4.345,0,0,1-1.378.538,7.62,7.62,0,0,1-1.62.169A8.364,8.364,0,0,1,4138.572,356.429Z" transform="translate(-4129.479 -343.587)" fill="#fff"/>
  </g>
  <g id="Group_822" data-name="Group 822" transform="translate(464.951)">
    <rect id="Rectangle_408" data-name="Rectangle 408" width="25.371" height="24.398" fill="#ffc945"/>
    <g id="Group_821" data-name="Group 821" transform="translate(4.969 4.664)">
      <path id="Path_3816" data-name="Path 3816" d="M4123.043,151.555h5.951v-5.981h3.122v5.981h5.982v3.139h-5.982v5.951h-3.122v-5.951h-5.951Z" transform="translate(-4123.043 -145.574)" fill="#fff"/>
    </g>
  </g>
  <g id="Group_823" data-name="Group 823" transform="translate(414.441 151.215)">
    <path id="Path_3817" data-name="Path 3817" d="M4052.234,373.776h9.39l2.6-20.514h-14.591Z" transform="translate(-4045.956 -353.262)" fill="#f2d6c8"/>
    <path id="Path_3818" data-name="Path 3818" d="M4051.637,367.939l.292-1.118-3.2-.838a3.4,3.4,0,0,1-2.409-2.379l-.616-2.241a3.387,3.387,0,0,1,3.266-4.284v-1.155a4.542,4.542,0,0,0-4.38,5.745l.616,2.242a4.556,4.556,0,0,0,3.231,3.191Z" transform="translate(-4044.421 -354.046)" fill="#f2d6c8"/>
  </g>
  <path id="Path_3819" data-name="Path 3819" d="M4045.186,338.312s.716-8.016-8.892-10.659-11.018-4.4-14.453-12.2-19.557-7.8-17.619-.487,11.452,3.608,11.8,11.142,3.436,7.71,12.95,8.415S4044.658,335.67,4045.186,338.312Z" transform="translate(-3618.099 -189.178)" fill="#fff" opacity="0.39"/>
  <g id="Group_824" data-name="Group 824" transform="translate(168.543 132.271)">
    <path id="Path_3820" data-name="Path 3820" d="M3705.907,337.169h-2.872l-1.852-3.5a3.064,3.064,0,0,1-.217-.72h-.03a5.462,5.462,0,0,1-.248.749l-1.86,3.472h-2.887l3.427-5.377-3.135-5.377h2.948l1.537,3.225a5.619,5.619,0,0,1,.323.907h.03q.09-.315.337-.937l1.71-3.2h2.7l-3.224,5.332Z" transform="translate(-3695.941 -326.415)" fill="#fff"/>
    <path id="Path_3821" data-name="Path 3821" d="M3724.68,337.169h-2.393v-6.434q0-1.043.09-2.3h-.06a11.551,11.551,0,0,1-.337,1.425l-2.52,7.312h-1.98l-2.565-7.236a14.174,14.174,0,0,1-.337-1.5h-.067q.1,1.59.1,2.789v5.947h-2.182V326.415h3.547l2.2,6.375a9,9,0,0,1,.382,1.537h.045a15.67,15.67,0,0,1,.428-1.552l2.2-6.359h3.458Z" transform="translate(-3700.794 -326.415)" fill="#fff"/>
    <path id="Path_3822" data-name="Path 3822" d="M3740.2,337.169h-6.4V326.415h2.422V335.2h3.982Z" transform="translate(-3707.086 -326.415)" fill="#fff"/>
  </g>
  <circle id="Ellipse_75" data-name="Ellipse 75" cx="11.344" cy="11.344" r="11.344" transform="translate(466.292 43.948)" fill="#fff"/>
  <path id="Path_3823" data-name="Path 3823" d="M3912.836,384.606c4.207,1.972,8.42,3.652,11.528,4.122,8.721,1.322,39.642-7.135,43.342-9.249,3.171-1.813,2.606-6.75.919-8.938.761,5.328-14.688,2.072-20.767,10.434s-17.981-.18-26.7,2.711A20.279,20.279,0,0,1,3912.836,384.606Z" transform="translate(-3591.245 -207.133)" fill="#f5911f"/>
  <path id="Path_3824" data-name="Path 3824" d="M3974.453,568.337" transform="translate(-3609.383 -265.358)" fill="none" stroke="#f2baab" stroke-width="3"/>
  <path id="Path_3825" data-name="Path 3825" d="M4007.982,594.815" transform="translate(-3619.253 -273.153)" fill="none" stroke="#f2baab" stroke-width="3"/>
  <g id="Group_826" data-name="Group 826" transform="translate(70.631 186.378)">
    <g id="Group_825" data-name="Group 825">
      <path id="Path_3826" data-name="Path 3826" d="M3597.59,426.832l-1.157-.644a2.272,2.272,0,0,1-1.172-2.021c0-.095,0-.188,0-.283s0-.188,0-.283a2.272,2.272,0,0,1,1.172-2.021l1.157-.644a2.285,2.285,0,0,0,1.1-2.585c0-.011-.006-.023-.011-.035a2.281,2.281,0,0,0-2.24-1.689l-1.327.021a2.3,2.3,0,0,1-2.038-1.19c-.083-.145-.167-.291-.251-.435a2.3,2.3,0,0,1-.015-2.367l.679-1.13a2.282,2.282,0,0,0-.342-2.786l-.028-.028a2.283,2.283,0,0,0-2.787-.343l-1.13.68a2.3,2.3,0,0,1-2.366-.015c-.144-.084-.289-.167-.435-.251a2.3,2.3,0,0,1-1.19-2.038l.022-1.327a2.282,2.282,0,0,0-1.689-2.24l-.034-.011a2.285,2.285,0,0,0-2.585,1.1l-.643,1.157a2.275,2.275,0,0,1-2.021,1.173c-.094,0-.189,0-.284,0s-.188,0-.282,0a2.275,2.275,0,0,1-2.022-1.173l-.643-1.157a2.285,2.285,0,0,0-2.585-1.1c-.011,0-.024.006-.034.011a2.282,2.282,0,0,0-1.689,2.24l.022,1.327a2.3,2.3,0,0,1-1.19,2.038l-.435.251a2.3,2.3,0,0,1-2.366.015l-1.13-.68a2.283,2.283,0,0,0-2.787.343l-.027.028a2.281,2.281,0,0,0-.343,2.786l.679,1.13a2.3,2.3,0,0,1-.015,2.367c-.083.143-.167.289-.25.435a2.3,2.3,0,0,1-2.039,1.19l-1.326-.021a2.281,2.281,0,0,0-2.24,1.689c0,.011-.006.024-.011.035a2.286,2.286,0,0,0,1.1,2.585l1.157.644a2.275,2.275,0,0,1,1.172,2.021c0,.095,0,.188,0,.283s0,.188,0,.283a2.275,2.275,0,0,1-1.172,2.021l-1.157.644a2.286,2.286,0,0,0-1.1,2.585c.005.011.007.023.011.035a2.281,2.281,0,0,0,2.24,1.689l1.326-.021a2.3,2.3,0,0,1,2.039,1.19c.083.145.167.291.25.435a2.3,2.3,0,0,1,.015,2.367l-.679,1.13a2.281,2.281,0,0,0,.343,2.786l.027.028a2.283,2.283,0,0,0,2.787.343l1.13-.679a2.3,2.3,0,0,1,2.366.015l.435.251a2.3,2.3,0,0,1,1.19,2.038l-.022,1.327a2.282,2.282,0,0,0,1.689,2.24c.01,0,.023.006.034.011a2.285,2.285,0,0,0,2.585-1.1l.643-1.157a2.275,2.275,0,0,1,2.022-1.173c.094,0,.188,0,.282,0s.189,0,.284,0a2.275,2.275,0,0,1,2.021,1.173l.643,1.157a2.285,2.285,0,0,0,2.585,1.1l.034-.011a2.282,2.282,0,0,0,1.689-2.24l-.022-1.327a2.3,2.3,0,0,1,1.19-2.038c.146-.084.292-.167.435-.251a2.3,2.3,0,0,1,2.366-.015l1.13.679a2.283,2.283,0,0,0,2.787-.343l.028-.028a2.282,2.282,0,0,0,.342-2.786l-.679-1.13a2.3,2.3,0,0,1,.015-2.367c.083-.143.167-.289.251-.435a2.3,2.3,0,0,1,2.038-1.19l1.327.021a2.281,2.281,0,0,0,2.24-1.689c0-.011.007-.024.011-.035A2.284,2.284,0,0,0,3597.59,426.832Zm-19.617,9.913a12.86,12.86,0,1,1,12.861-12.86A12.86,12.86,0,0,1,3577.973,436.745Z" transform="translate(-3557.183 -403.094)" fill="#edf6f5"/>
    </g>
    <circle id="Ellipse_76" data-name="Ellipse 76" cx="5.877" cy="5.877" r="5.877" transform="matrix(0.23, -0.973, 0.973, 0.23, 13.72, 25.16)" fill="#edf6f5"/>
  </g>
  <g id="Group_827" data-name="Group 827" transform="translate(191.008 52.021)">
    <path id="Path_3827" data-name="Path 3827" d="M3727.778,212.686h58.841V232.95h-10.486l5.47,12.886-19.554-12.886h-34.271Z" transform="translate(-3727.778 -212.686)" fill="#b2e5e0"/>
    <rect id="Rectangle_409" data-name="Rectangle 409" width="45.747" height="2.238" transform="translate(6.982 5.92)" fill="#fff"/>
    <rect id="Rectangle_410" data-name="Rectangle 410" width="45.747" height="2.238" transform="translate(6.982 12.135)" fill="#fff"/>
  </g>
  <path id="Path_3828" data-name="Path 3828" d="M4144.1,558.976c5.892-13.192,21.488-18.124,33.534-19.939a112.872,112.872,0,0,1,25.151-.769l.112-1.084a113.97,113.97,0,0,0-25.4.773,63.709,63.709,0,0,0-19.991,6.066c-6.854,3.585-11.7,8.467-14.4,14.509Z" transform="translate(-3659.028 -256.077)" fill="#f5b89b"/>
  <path id="Path_3829" data-name="Path 3829" d="M4201.239,546.273l.7-.838c-.219-.182-5.5-4.472-17.49-5.627l-.1,1.085C4195.964,542.012,4201.187,546.23,4201.239,546.273Z" transform="translate(-3671.168 -256.96)" fill="#f5b89b"/>
  <path id="Path_3830" data-name="Path 3830" d="M4181.3,565.031l.625-.893c-.151-.107-15.338-10.606-29.9-8.905l.126,1.082C4166.309,554.664,4181.154,564.927,4181.3,565.031Z" transform="translate(-3661.655 -261.446)" fill="#f5b89b"/>
  <path id="Path_3831" data-name="Path 3831" d="M4175.3,539.236c5.164-1.935,7.7-10.182,7.809-10.532l-1.044-.315c-.024.08-2.489,8.08-7.148,9.827Z" transform="translate(-3668.392 -253.599)" fill="#f5b89b"/>
  <path id="Path_3832" data-name="Path 3832" d="M4150.375,551.266c3.668-5.278,6.354-16.386,6.149-17.615l-1.075.179v-.008c.1,1.056-2.409,11.7-5.968,16.822Z" transform="translate(-3660.906 -255.148)" fill="#f5b89b"/>
  <path id="Path_3833" data-name="Path 3833" d="M3457.087,201.885h87.765s-5.193-10.2-17.176-5.1c0,0-6.524-11.718-19.839-4.793,0,0-5.126-13.049-19.507-11.254a18.752,18.752,0,0,0-16.377,13.784S3458.533,193.936,3457.087,201.885Z" transform="translate(-3457.087 -151.212)" fill="#edf6f5"/>
</svg>
