<svg xmlns="http://www.w3.org/2000/svg" xmlns:xlink="http://www.w3.org/1999/xlink" width="299.141" height="274.24" viewBox="0 0 299.141 274.24">
  <defs>
    <linearGradient id="linear-gradient" y1="0.5" x2="1" y2="0.5" gradientUnits="objectBoundingBox">
      <stop offset="0" stop-color="#c5e7e8"/>
      <stop offset="1" stop-color="#fff5fe"/>
    </linearGradient>
    <linearGradient id="linear-gradient-2" y1="0.5" x2="1" y2="0.5" gradientUnits="objectBoundingBox">
      <stop offset="0" stop-color="#005f7b"/>
      <stop offset="1" stop-color="#00324b"/>
    </linearGradient>
    <linearGradient id="linear-gradient-4" x1="0" y1="0.5" x2="1" y2="0.5" xlink:href="#linear-gradient-2"/>
    <linearGradient id="linear-gradient-8" x1="0.076" y1="-0.948" x2="1.047" y2="2.368" gradientUnits="objectBoundingBox">
      <stop offset="0" stop-color="#fe99b7"/>
      <stop offset="1" stop-color="#fe688e"/>
    </linearGradient>
  </defs>
  <g id="Group_934" data-name="Group 934" transform="translate(-2601.024 -1419.592)">
    <g id="Group_439" data-name="Group 439" transform="translate(2601.024 1419.592)">
      <g id="Group_438" data-name="Group 438">
        <path id="Path_1512" data-name="Path 1512" d="M2697.325,1892.49" transform="translate(-2644.677 -1633.954)" fill="#bfb5f4"/>
        <path id="Path_1513" data-name="Path 1513" d="M2810.873,1505.953c.048.769-.153,1.407-.449,1.426s-.574-.59-.622-1.359.153-1.408.449-1.426S2810.825,1505.184,2810.873,1505.953Z" transform="translate(-2695.659 -1458.123)" fill="#fff"/>
        <path id="Path_1514" data-name="Path 1514" d="M2789.188,1566.261h0Z" transform="translate(-2686.317 -1486.076)" fill="#ccdfff"/>
        <path id="Path_1515" data-name="Path 1515" d="M2734.436,1454.911c-35.479,20.263-69.18,47.015-78.152,71.448-10.654,29.016,2.287,45.632,34.663,50.793,36.566,5.83-2.512,64.33,21.76,84.6,39.906,33.319,115.954-28.083,147.013-77.4,43.9-69.7,50.75-132.833,20.107-154.663C2847.714,1406.813,2784.934,1426.071,2734.436,1454.911Z" transform="translate(-2624.416 -1419.592)" opacity="0.41" fill="url(#linear-gradient)"/>
        <path id="Path_1516" data-name="Path 1516" d="M2919.614,1752.866a5.35,5.35,0,0,1,.77-.08Q2919.971,1752.815,2919.614,1752.866Z" transform="translate(-2745.439 -1570.627)" fill="#283da3"/>
        <path id="Path_1517" data-name="Path 1517" d="M2963.917,1556.854a13.37,13.37,0,0,0-.436-1.924l2.138-2.6a15.623,15.623,0,0,0-1.949-3.243l-3.307.668a12.971,12.971,0,0,0-3.156-2.338l-.329-3.358a15.715,15.715,0,0,0-3.671-.916l-1.865,2.81a12.893,12.893,0,0,0-3.887.582l-2.606-2.141a15.575,15.575,0,0,0-3.243,1.95l.668,3.307a12.88,12.88,0,0,0-2.338,3.161l-3.354.328a15.389,15.389,0,0,0-.919,3.672l2.809,1.861a12.942,12.942,0,0,0,.582,3.892l-2.142,2.6a15.513,15.513,0,0,0,1.954,3.246l3.3-.667a12.948,12.948,0,0,0,3.159,2.334l.329,3.358a15.58,15.58,0,0,0,3.671.916l1.865-2.81a12.881,12.881,0,0,0,3.887-.582l2.606,2.141a15.742,15.742,0,0,0,3.242-1.95l-.668-3.307a13.013,13.013,0,0,0,2.334-3.155l3.359-.329a15.719,15.719,0,0,0,.915-3.675l-2.805-1.862A13.288,13.288,0,0,0,2963.917,1556.854Zm-11.513,9.51a7.7,7.7,0,1,1,6.478-8.757A7.7,7.7,0,0,1,2952.4,1566.364Z" transform="translate(-2752.714 -1475.596)" fill="#e4eff3"/>
        <path id="Path_1518" data-name="Path 1518" d="M3087.219,1468.014a8.876,8.876,0,0,0-.294-1.295l1.438-1.75a10.507,10.507,0,0,0-1.311-2.181l-2.225.449a8.7,8.7,0,0,0-2.123-1.573l-.221-2.259a10.6,10.6,0,0,0-2.47-.616l-1.255,1.891a8.66,8.66,0,0,0-2.616.391l-1.753-1.441a10.473,10.473,0,0,0-2.181,1.312l.449,2.225a8.661,8.661,0,0,0-1.573,2.126l-2.256.22a10.365,10.365,0,0,0-.619,2.471l1.89,1.252a8.736,8.736,0,0,0,.391,2.618l-1.441,1.75a10.423,10.423,0,0,0,1.315,2.184l2.222-.449a8.719,8.719,0,0,0,2.126,1.57l.221,2.26a10.5,10.5,0,0,0,2.47.615l1.255-1.891a8.691,8.691,0,0,0,2.616-.391l1.753,1.441a10.627,10.627,0,0,0,2.181-1.312l-.449-2.225a8.766,8.766,0,0,0,1.57-2.123l2.259-.221a10.53,10.53,0,0,0,.615-2.473l-1.887-1.253A8.943,8.943,0,0,0,3087.219,1468.014Zm-7.746,6.4a5.18,5.18,0,1,1,4.358-5.891A5.18,5.18,0,0,1,3079.473,1474.412Z" transform="translate(-2812.797 -1437.36)" fill="#e4eff3"/>
        <path id="Path_1519" data-name="Path 1519" d="M2812.795,1795.505a17.243,17.243,0,0,0-.566-2.494l2.771-3.372a20.191,20.191,0,0,0-2.527-4.2l-4.288.866a16.8,16.8,0,0,0-4.091-3.031l-.427-4.353a20.378,20.378,0,0,0-4.759-1.187l-2.419,3.643a16.7,16.7,0,0,0-5.039.753l-3.378-2.776a20.175,20.175,0,0,0-4.2,2.527l.867,4.288a16.7,16.7,0,0,0-3.031,4.1l-4.348.425a19.989,19.989,0,0,0-1.192,4.76l3.642,2.413a16.756,16.756,0,0,0,.755,5.045l-2.777,3.373a20.112,20.112,0,0,0,2.534,4.208l4.282-.865a16.8,16.8,0,0,0,4.1,3.025l.426,4.353a20.2,20.2,0,0,0,4.76,1.187l2.418-3.643a16.675,16.675,0,0,0,5.04-.754l3.379,2.776a20.39,20.39,0,0,0,4.2-2.527l-.866-4.288a16.869,16.869,0,0,0,3.026-4.091l4.353-.426a20.363,20.363,0,0,0,1.187-4.765l-3.637-2.414A17.209,17.209,0,0,0,2812.795,1795.505Zm-14.926,12.329a9.983,9.983,0,1,1,8.4-11.353A9.982,9.982,0,0,1,2797.869,1807.835Z" transform="translate(-2680.413 -1581.934)" fill="#e4eff3"/>
        <g id="Group_413" data-name="Group 413" transform="translate(205.286 93.56)">
          <path id="Path_1520" data-name="Path 1520" d="M3009.371,1606.668a15.468,15.468,0,0,0-.507-2.237l2.486-3.024a18.121,18.121,0,0,0-2.267-3.77l-3.845.777a15.028,15.028,0,0,0-3.669-2.719l-.382-3.9a18.305,18.305,0,0,0-4.268-1.064l-2.169,3.267a14.962,14.962,0,0,0-4.52.676l-3.03-2.49a18.132,18.132,0,0,0-3.77,2.267l.778,3.845a14.941,14.941,0,0,0-2.718,3.674l-3.9.381a17.889,17.889,0,0,0-1.069,4.269l3.266,2.164a15,15,0,0,0,.677,4.524l-2.49,3.025a18,18,0,0,0,2.272,3.774l3.84-.776a15.041,15.041,0,0,0,3.673,2.713l.382,3.9a18.1,18.1,0,0,0,4.268,1.064l2.169-3.267a15.006,15.006,0,0,0,4.52-.676l3.03,2.489a18.307,18.307,0,0,0,3.77-2.266l-.777-3.846a15.117,15.117,0,0,0,2.714-3.668l3.9-.382a18.267,18.267,0,0,0,1.063-4.273l-3.261-2.165A15.393,15.393,0,0,0,3009.371,1606.668Zm-13.385,11.057a8.953,8.953,0,1,1,7.532-10.181A8.952,8.952,0,0,1,2995.986,1617.725Z" transform="translate(-2976.521 -1590.727)" fill="#e4eff3"/>
          <path id="Path_1521" data-name="Path 1521" d="M3010.4,1619.633a4.376,4.376,0,1,1-4.975-3.681A4.376,4.376,0,0,1,3010.4,1619.633Z" transform="translate(-2987.933 -1602.14)" fill="#e4eff3"/>
        </g>
        <path id="Path_1522" data-name="Path 1522" d="M2835.729,1437.144c.912-1.614,1.193-5.385-2.1-5.823-2.177-.289-2.438-3.3-5.963-3.3-2.525,0-2.876,2.947-4.841,3.578s-5.174,2.315-4.683,5.051,1.684,3.332.421,5.525-1.1,5,1.526,5.98c1.675.625,2.626,0,3.718,1.754,2.648,4.243,6.232,1.193,7.775-.7S2835.729,1437.144,2835.729,1437.144Z" transform="translate(-2699.284 -1423.414)" fill="#002144"/>
        <path id="Path_1523" data-name="Path 1523" d="M2863.248,1466.455c3.621,7.45,7.04,14.887,6.98,15.135-.123.48-17.619,10.307-17.619,10.307s-23.495-18.151-23.134-24.024c.268-4.421,4.262-8.571,6.22-10.353.645-.586,1.068-.916,1.068-.916a26.628,26.628,0,0,1,8.343-4.319c.625-.218,1.253-.413,1.872-.592v0s3.713-1.2,9.378-3,15.188-4.312,15.188-4.312l6.471-16.808,3.866.81s-2.7,19.563-6.293,23.306c-1.647,1.72-5.155,3.409-8.469,4.732A7.343,7.343,0,0,0,2863.248,1466.455Z" transform="translate(-2704.578 -1423.21)" fill="#005f7b"/>
        <path id="Path_1524" data-name="Path 1524" d="M2847.7,1477.123a7.39,7.39,0,0,1-6.842.886c.645-.585,1.068-.916,1.068-.916a26.634,26.634,0,0,1,8.343-4.319C2850.3,1473.7,2849.989,1475.46,2847.7,1477.123Z" transform="translate(-2709.738 -1443.699)" fill="#fff"/>
        <path id="Path_1525" data-name="Path 1525" d="M2849.779,1501.288l25.489,4.455,1.627,4.039-23.468.414Z" transform="translate(-2713.783 -1456.624)" fill="url(#linear-gradient-2)"/>
        <path id="Path_1526" data-name="Path 1526" d="M2846.962,1468.391a6.407,6.407,0,0,1-3.535,3.889,7.41,7.41,0,0,1-4.471.466l-3.439-10.6,4.3.261,3.611.219,2.07,3.373Z" transform="translate(-2707.318 -1438.884)" fill="#ffb691"/>
        <rect id="Rectangle_168" data-name="Rectangle 168" width="33.795" height="33.795" rx="1.551" transform="translate(159.852 4.453)" fill="#c5e7e8"/>
        <g id="Group_414" data-name="Group 414" transform="translate(166.059 10.107)">
          <path id="Path_1527" data-name="Path 1527" d="M2927.226,1448.5c0-.04-.006-.082-.009-.121a11.316,11.316,0,1,0,.009.121Zm-15.823,6.856a7.59,7.59,0,1,1,12.174-6.669c0,.028,0,.054,0,.081a7.588,7.588,0,0,1-12.177,6.588Z" transform="translate(-2904.77 -1438.079)" fill="#96d0d2"/>
          <path id="Path_1528" data-name="Path 1528" d="M2928.605,1464.691a11.242,11.242,0,0,1-15.76,2.1l2.219-2.9a7.587,7.587,0,0,0,12.177-6.588c0-.027,0-.053,0-.081l3.64-.309c0,.039.008.081.01.121A11.19,11.19,0,0,1,2928.605,1464.691Z" transform="translate(-2908.43 -1446.617)" fill="#96d0d2"/>
          <path id="Path_1529" data-name="Path 1529" d="M2934.074,1448.5l-3.646.268c0-.027,0-.052,0-.081a7.589,7.589,0,0,0-9.577-6.678l-.971-3.524a11.242,11.242,0,0,1,14.187,9.893C2934.068,1448.415,2934.072,1448.457,2934.074,1448.5Z" transform="translate(-2911.618 -1438.079)" fill="#96d0d2"/>
        </g>
        <path id="Path_1530" data-name="Path 1530" d="M2918.085,1425.982a2.17,2.17,0,0,1-.112-1.887c.36-1.123.449-2.606.943-2.561s.809,1.407.54,2.681c0,0,.854-2.1,1.842-2.007s3.281,1.8,3.281,2.427-.9,2.83-2.652,2.987C2921.146,1427.692,2918.377,1426.723,2918.085,1425.982Z" transform="translate(-2744.625 -1420.472)" fill="#ffb691"/>
        <path id="Rectangle_169" data-name="Rectangle 169" d="M19.9,0H148.927a19.9,19.9,0,0,1,19.9,19.9V70.454a19.9,19.9,0,0,1-19.9,19.9H19.9A19.9,19.9,0,0,1,0,70.454V19.9A19.9,19.9,0,0,1,19.9,0Z" transform="translate(201.858 50.817) rotate(90)" fill="#002144"/>
        <rect id="Rectangle_170" data-name="Rectangle 170" width="83.735" height="162.209" rx="13.847" transform="translate(114.816 54.124)" fill="#fff"/>
        <g id="Group_415" data-name="Group 415" transform="translate(121.485 70.413)">
          <path id="Path_1531" data-name="Path 1531" d="M2949.948,1624.76h-2.48v-.992h1.488v-1.488h.992Z" transform="translate(-2879.55 -1581.882)" fill="#c5e7e8"/>
          <path id="Path_1532" data-name="Path 1532" d="M2892.553,1625.994H2888.7V1625h3.849Zm-7.7,0H2881V1625h3.85Zm-7.7,0h-3.849V1625h3.849Zm-7.7,0h-3.849V1625h3.849Zm-7.7,0h-3.849V1625h3.849Zm-7.7,0h-3.85V1625h3.85Zm-7.7,0h-3.849V1625h3.849Zm-7.7,0h-3.849V1625h3.849Z" transform="translate(-2828.485 -1583.116)" fill="#c5e7e8"/>
          <path id="Path_1533" data-name="Path 1533" d="M2825.717,1624.76h-2.48v-2.48h.992v1.488h1.488Z" transform="translate(-2823.237 -1581.882)" fill="#c5e7e8"/>
          <path id="Path_1534" data-name="Path 1534" d="M2824.229,1590.121h-.992v-4.214h.992Zm0-8.427h-.992v-4.213h.992Zm0-8.426h-.992v-4.214h.992Zm0-8.427h-.992v-4.213h.992Z" transform="translate(-2823.237 -1553.937)" fill="#c5e7e8"/>
          <path id="Path_1535" data-name="Path 1535" d="M2824.229,1550.867h-.992v-2.48h2.48v.992h-1.488Z" transform="translate(-2823.237 -1548.387)" fill="#c5e7e8"/>
          <path id="Path_1536" data-name="Path 1536" d="M2892.553,1549.379H2888.7v-.992h3.849Zm-7.7,0h-3.85v-.992h3.85Zm-7.7,0h-3.85v-.992h3.85Zm-7.7,0h-3.849v-.992h3.849Zm-7.7,0h-3.849v-.992h3.849Zm-7.7,0h-3.849v-.992h3.849Zm-7.7,0h-3.849v-.992h3.849Zm-7.7,0h-3.849v-.992h3.849Z" transform="translate(-2828.485 -1548.387)" fill="#c5e7e8"/>
          <path id="Path_1537" data-name="Path 1537" d="M2949.948,1550.867h-.992v-1.488h-1.488v-.992h2.48Z" transform="translate(-2879.55 -1548.387)" fill="#c5e7e8"/>
          <path id="Path_1538" data-name="Path 1538" d="M2951.182,1590.121h-.992v-4.214h.992Zm0-8.427h-.992v-4.213h.992Zm0-8.426h-.992v-4.214h.992Zm0-8.427h-.992v-4.213h.992Z" transform="translate(-2880.784 -1553.937)" fill="#c5e7e8"/>
        </g>
        <circle id="Ellipse_32" data-name="Ellipse 32" cx="10" cy="10" r="10" transform="matrix(0.383, -0.924, 0.924, 0.383, 143.619, 136.614)" fill="#fe99b7"/>
        <path id="Path_1539" data-name="Path 1539" d="M2924.15,1661.373h-.01a10.441,10.441,0,0,1-4-.791l.379-.917a9.435,9.435,0,0,0,3.625.716Zm4.015-.8-.381-.916a9.467,9.467,0,0,0,3.078-2.063l.7.7A10.464,10.464,0,0,1,2928.164,1660.573Zm-11.435-2.263a10.448,10.448,0,0,1-2.282-3.4l.916-.382a9.467,9.467,0,0,0,2.066,3.077Zm17.11-3.417-.916-.38a9.452,9.452,0,0,0,.719-3.635v-.042h.992v.03A10.449,10.449,0,0,1,2933.84,1654.892Zm-20.2-4v-.02a10.432,10.432,0,0,1,.787-4l.917.378a9.451,9.451,0,0,0-.713,3.618Zm19.264-3.692a9.488,9.488,0,0,0-2.073-3.073l.7-.7a10.461,10.461,0,0,1,2.289,3.393Zm-15.506-3.032-.7-.7a10.442,10.442,0,0,1,3.4-2.285l.382.915A9.464,9.464,0,0,0,2917.4,1644.174Zm10.345-2.092a9.452,9.452,0,0,0-3.608-.708l-.031-.992h.031a10.442,10.442,0,0,1,3.986.783Z" transform="translate(-2742.733 -1519.675)" fill="#c5e7e8"/>
        <circle id="Ellipse_33" data-name="Ellipse 33" cx="10" cy="10" r="10" transform="matrix(0.383, -0.924, 0.924, 0.383, 118.235, 136.614)" fill="#ffcb5b"/>
        <g id="Group_417" data-name="Group 417" transform="translate(121.93 147.847)">
          <g id="Group_416" data-name="Group 416">
            <circle id="Ellipse_34" data-name="Ellipse 34" cx="8.073" cy="8.073" r="8.073" transform="translate(0 0.052)" fill="#c5e7e8"/>
            <path id="Path_1540" data-name="Path 1540" d="M2912.646,1692.834h-41.912a1.405,1.405,0,0,1-1.405-1.4h0a1.405,1.405,0,0,1,1.405-1.406h41.912a1.405,1.405,0,0,1,1.405,1.406h0A1.405,1.405,0,0,1,2912.646,1692.834Z" transform="translate(-2844.575 -1690.024)" fill="#c5e7e8"/>
            <path id="Rectangle_171" data-name="Rectangle 171" d="M1.405,0H22.024a1.405,1.405,0,0,1,1.405,1.405v0a1.405,1.405,0,0,1-1.405,1.405H1.405A1.405,1.405,0,0,1,0,1.405v0A1.405,1.405,0,0,1,1.405,0Z" transform="translate(24.755 6.802)" fill="#c5e7e8"/>
          </g>
        </g>
        <g id="Group_419" data-name="Group 419" transform="translate(121.93 171.412)">
          <g id="Group_418" data-name="Group 418">
            <circle id="Ellipse_35" data-name="Ellipse 35" cx="8.073" cy="8.073" r="8.073" transform="translate(0 0.051)" fill="#c5e7e8"/>
            <path id="Path_1541" data-name="Path 1541" d="M2912.646,1735.938h-41.912a1.405,1.405,0,0,1-1.405-1.406h0a1.405,1.405,0,0,1,1.405-1.4h41.912a1.405,1.405,0,0,1,1.405,1.4h0A1.405,1.405,0,0,1,2912.646,1735.938Z" transform="translate(-2844.575 -1733.128)" fill="#c5e7e8"/>
            <path id="Path_1542" data-name="Path 1542" d="M2891.353,1748.381h-20.618a1.406,1.406,0,0,1-1.405-1.405h0a1.406,1.406,0,0,1,1.405-1.406h20.618a1.405,1.405,0,0,1,1.405,1.406h0A1.405,1.405,0,0,1,2891.353,1748.381Z" transform="translate(-2844.575 -1738.768)" fill="#c5e7e8"/>
          </g>
        </g>
        <g id="Group_421" data-name="Group 421" transform="translate(120.741 193.61)">
          <g id="Group_420" data-name="Group 420" transform="translate(0 0)">
            <circle id="Ellipse_36" data-name="Ellipse 36" cx="8.073" cy="8.073" r="8.073" transform="translate(0 15.938) rotate(-80.783)" fill="#c5e7e8"/>
            <path id="Path_1543" data-name="Path 1543" d="M2912.646,1778.624h-41.912a1.406,1.406,0,0,1-1.405-1.406h0a1.4,1.4,0,0,1,1.405-1.4h41.912a1.4,1.4,0,0,1,1.405,1.4h0A1.405,1.405,0,0,1,2912.646,1778.624Z" transform="translate(-2843.386 -1774.675)" fill="#c5e7e8"/>
            <path id="Path_1544" data-name="Path 1544" d="M2891.353,1791.066h-20.618a1.405,1.405,0,0,1-1.405-1.405h0a1.405,1.405,0,0,1,1.405-1.406h20.618a1.405,1.405,0,0,1,1.405,1.406h0A1.405,1.405,0,0,1,2891.353,1791.066Z" transform="translate(-2843.386 -1780.316)" fill="#c5e7e8"/>
          </g>
        </g>
        <g id="Group_423" data-name="Group 423" transform="translate(177.063 118.315)">
          <g id="Group_422" data-name="Group 422" transform="translate(0 0)">
            <path id="Path_1545" data-name="Path 1545" d="M2966.393,1671.287v-1.2a20.338,20.338,0,0,0,2.283-3.79c.908-2.045.388-4.289,0-3.89s-2.882,3.69-2.882,3.69l-1.488,5.187Z" transform="translate(-2942.761 -1647.954)" fill="#ffb691"/>
            <path id="Path_1546" data-name="Path 1546" d="M2961.965,1678.428l6.26,11.633,4.725-3.99-7.617-9.575Z" transform="translate(-2941.699 -1654.361)" fill="#ffcb5b"/>
            <circle id="Ellipse_37" data-name="Ellipse 37" cx="12.069" cy="12.069" r="12.069" transform="translate(0 23.826) rotate(-80.783)" fill="#96d0d2"/>
            <path id="Path_1547" data-name="Path 1547" d="M2935.29,1673.793a9.131,9.131,0,0,0-1.563-2.726c-.931-.964-1.947-3.192-2.42-2.859s.325,2.161.458,2.361-2.693-1.1-3.025-2.394-.956-3.5-1.355-3-.38,2.066-.375,3.4a7.416,7.416,0,0,0,4.422,6.018C2934.891,1676.121,2935.29,1673.793,2935.29,1673.793Z" transform="translate(-2925.854 -1649.197)" fill="#ffb691"/>
            <path id="Path_1548" data-name="Path 1548" d="M2972.011,1714.128c.31.032,3.024,1.333,2.469,5.266s4.239,1.343,4.239,1.343l-2.893-7.44Z" transform="translate(-2946.254 -1671.042)" fill="#ffb691"/>
            <path id="Path_1549" data-name="Path 1549" d="M2966.248,1690.8s-2.427,8.415,0,11.556,6.477.744,6.477.744Z" transform="translate(-2943.152 -1660.843)" fill="#ffb691"/>
            <path id="Path_1550" data-name="Path 1550" d="M3082.466,1823.363l-1.77,2.559-1.124,1.63s-13.41-5.356-23.875-9.576c-4.867-1.961-9.1-3.677-11.051-4.494-.037-.014-.069-.03-.1-.043h0l-.675-.288a5.2,5.2,0,0,1-1.154-.77,36,36,0,0,1-3.594-3.648c-5.648-6.392-13.505-17.288-13.505-17.288l-.37-1.557-3.569-14.97,4.137-2.824s8.271,2.08,11.769,8.779c2.077,3.971,13.31,23.227,13.31,23.227a31.816,31.816,0,0,1,14.521,6.1C3069.731,1813.479,3082.466,1823.363,3082.466,1823.363Z" transform="translate(-2968.765 -1697.695)" fill="#005f7b"/>
            <path id="Path_1551" data-name="Path 1551" d="M3045.67,1820.787a36.086,36.086,0,0,1-3.594-3.648c-5.648-6.392-13.5-17.288-13.5-17.288l-.371-1.558,2.537-7.656S3040.779,1813.356,3045.67,1820.787Z" transform="translate(-2971.724 -1706.1)" fill="url(#linear-gradient-2)"/>
            <path id="Path_1552" data-name="Path 1552" d="M2999.565,1783.414a79.343,79.343,0,0,1,12.088-6.154s8.142,6.2,7.129,12.937c-.738,4.911-8.693,28.7-8.693,28.7s-6.667,6.407-8.264,4.678S2999.565,1783.414,2999.565,1783.414Z" transform="translate(-2958.743 -1700.036)" fill="#005f7b"/>
            <path id="Path_1553" data-name="Path 1553" d="M3023.271,1867.127l-2.04,7.374s-.509-.492-1.356-1.32c-3.257-3.184-11.5-11.3-14.941-15.178l0,0a9.958,9.958,0,0,1-1.524-1.984c-1.2-3.658.781-6.687,4.256-7.183,1.862-.265,5.972,3.38,8.912,7.411A127.249,127.249,0,0,1,3023.271,1867.127Z" transform="translate(-2960.327 -1732.474)" fill="#005f7b"/>
            <path id="Path_1554" data-name="Path 1554" d="M2986.463,1730.8s-1.593,4.99-16.223,8.978c0,0-9.312-12.1-11.173-14.229-1.365-1.564-2.8-6.065-4.156-8.766,0,0,0,0,0-.007a5.265,5.265,0,0,0-1.426-2,156.467,156.467,0,0,1-13.584-8.8c-.016-.013-.026-.023-.033-.03a14.027,14.027,0,0,1-3.8-3.806c-1.729-3.591-1.065-20.35-1.065-20.35l3.856-.8s2.794,16.091,3.724,16.755,10.975,6.9,13.035,7.05a9.719,9.719,0,0,0,3.38-.321l17.529-.621c2.334,5.979,4.927,18.128,6.352,20.624l1.948,3.42C2985.743,1729.528,2986.463,1730.8,2986.463,1730.8Z" transform="translate(-2929.419 -1656.401)" fill="#ffcb5b"/>
            <path id="Path_1555" data-name="Path 1555" d="M3004.819,1746.861c-4.412,1.841-13.3-.116-14.58-5.88-1.4-6.283-7.86-7.057-9.573-8.819s-1.676-8.724-1.676-8.724l17.529-.622c2.334,5.979,4.927,18.128,6.352,20.624Z" transform="translate(-2949.417 -1675.357)" fill="#ffa302"/>
            <path id="Path_1556" data-name="Path 1556" d="M2970.846,1680.558c-4.308,2.183-6.583,9.708-3.291,14.4s5.586,5.286,6.184,11.769,9.941,1.1,12.468,7.581c2.364,6.066,11.836,9.343,16.77,4.289,3.5-3.583.685-8.378-3.005-10.573s1.217-11.926-7.249-14.429c-9.442-2.793-9.712-7.481-11.7-10.008C2978.426,1680.293,2973.339,1679.3,2970.846,1680.558Z" transform="translate(-2943.523 -1655.962)" fill="#002144"/>
            <path id="Path_1557" data-name="Path 1557" d="M3063.111,1847.323h0a3.38,3.38,0,0,1-.473-.479c.295.258.493.439.579.522S3063.273,1847.442,3063.111,1847.323Z" transform="translate(-2987.333 -1731.578)" fill="url(#linear-gradient-4)"/>
            <path id="Path_1558" data-name="Path 1558" d="M3021.29,1811.754s-9.055,16.781-12.913,20.773a8.42,8.42,0,0,1,5.823,1.661S3020.839,1813.353,3021.29,1811.754Z" transform="translate(-2962.738 -1715.672)" fill="url(#linear-gradient-2)"/>
            <path id="Path_1559" data-name="Path 1559" d="M3022.675,1878.018l-1.243,2.777c-3.257-3.184-11.5-11.3-14.941-15.178Z" transform="translate(-2961.884 -1740.088)" fill="url(#linear-gradient-2)"/>
            <path id="Path_1560" data-name="Path 1560" d="M3038.332,1883.84l-1.561-1.536s-5.4.458-3.539,5.915,5.1,3.455,5.1,3.455Z" transform="translate(-2973.827 -1747.652)" fill="#fe99b7"/>
            <path id="Path_1561" data-name="Path 1561" d="M3033.557,1892.6s1.351,11.146,4.118,13.036-1.19-13.671-1.19-13.671Z" transform="translate(-2974.152 -1752.03)" fill="#fe99b7"/>
            <path id="Path_1562" data-name="Path 1562" d="M3038.83,1884.569c-2.407.135-3.058,3.923-2.593,7.182s.388,6.24,1.784,9.3,5.946,4.233,6.745,3.169.282-6.3-1.047-8.827-1.5-5.818-2.294-8.079S3039.525,1884.531,3038.83,1884.569Z" transform="translate(-2975.303 -1748.678)" fill="#fe688e"/>
            <path id="Path_1563" data-name="Path 1563" d="M3108.907,1863.965l-1.124,1.63s-13.41-5.357-23.875-9.576l24.52,6.62Z" transform="translate(-2996.976 -1735.737)" fill="url(#linear-gradient-2)"/>
            <path id="Path_1564" data-name="Path 1564" d="M3134.184,1870.227c0-.2-1.663-4.213-1.663-4.213l-2.894-1.243s-2.758,2.531-2.126,4.792,3.092,5.918,3.89,7.381,1.369,5.825,4.608,6.337S3134.184,1870.227,3134.184,1870.227Z" transform="translate(-3016.694 -1739.704)" fill="#fe99b7"/>
            <path id="Path_1565" data-name="Path 1565" d="M3133.512,1867.572c-1.034,1.117-.748,3.754.349,6.048s1.5,6.484,2.394,7.979,2.195,3.391,3.092,2.693,2-3.89,1.9-5.286-1.995-3.591-2.593-6.782S3135.208,1865.739,3133.512,1867.572Z" transform="translate(-3019.17 -1740.735)" fill="#fe688e"/>
            <path id="Path_1566" data-name="Path 1566" d="M2959.048,1737.466a5.257,5.257,0,0,0-1.426-2,156.582,156.582,0,0,1-13.584-8.8.343.343,0,0,1-.033-.03,79.462,79.462,0,0,0,9.454,4.438C2956.435,1731.994,2957.939,1733.845,2959.048,1737.466Z" transform="translate(-2933.559 -1677.09)" fill="#ffa302"/>
          </g>
          <path id="Path_1567" data-name="Path 1567" d="M3006.115,1702.483l-.326-.049c.742-5-1.652-8.609-6.4-9.666-5.14-1.142-8.289-3.447-10.527-7.708-2.1-3.992-8.14-4.469-8.2-4.474l.023-.33c.256.019,6.289.5,8.47,4.65s5.271,6.42,10.306,7.539C3004.323,1693.528,3006.874,1697.374,3006.115,1702.483Z" transform="translate(-2950.173 -1656.065)" fill="#002144"/>
          <path id="Path_1568" data-name="Path 1568" d="M2985.818,1711.494c-.309-.042-7.567-1.056-8.407-5.215-.609-3.013-2.219-4.329-4.448-6.151-.741-.606-1.581-1.292-2.466-2.11-3.575-3.3-1.1-10.022-1-10.307l.31.116c-.025.068-2.5,6.8.911,9.947.878.812,1.713,1.494,2.451,2.1,2.282,1.866,3.931,3.213,4.563,6.342.794,3.932,8.053,4.944,8.127,4.953Z" transform="translate(-2944.693 -1659.444)" fill="#96d0d2"/>
          <path id="Path_1569" data-name="Path 1569" d="M2980.671,1702.591c-.443-2.36-2.022-3.523-4.022-5a22.738,22.738,0,0,1-3.959-3.464c-3.344-3.868-.638-8.846-.61-8.9l.29.161c-.027.048-2.621,4.827.57,8.519a22.473,22.473,0,0,0,3.906,3.414c1.977,1.456,3.684,2.714,4.15,5.2Z" transform="translate(-2945.804 -1658.322)" fill="#96d0d2"/>
        </g>
        <g id="Group_426" data-name="Group 426" transform="translate(0 64.914)">
          <path id="Path_1570" data-name="Path 1570" d="M2744.569,1698.525s0,2.4-6.7,0-2.4-8.6-2.4-8.6l8.515,3.8Z" transform="translate(-2661.354 -1607.048)" fill="#005f7b"/>
          <path id="Path_1571" data-name="Path 1571" d="M2745.291,1590.709s18.672-9.579,19.4-11.128c.619-1.316,5.745-11.175,7.276-14.117.271-.522,3.619.54,3.619.54s-3.554,14.032-5.467,18.314-18.8,14.942-18.8,14.942Z" transform="translate(-2666.419 -1550.563)" fill="#fe99b7"/>
          <path id="Path_1572" data-name="Path 1572" d="M2795.094,1550.722a15.024,15.024,0,0,0-.759,4.677,19.673,19.673,0,0,1-.248,2.831l3.619.54s.3-2.271.319-3.6c.025-1.655-.03-2.6-.44-2.141a10.091,10.091,0,0,0-.927,2.46s-.157-4.268-.045-5.012C2796.886,1548.656,2795.732,1549.294,2795.094,1550.722Z" transform="translate(-2688.538 -1543.329)" fill="#ffb691"/>
          <path id="Path_1573" data-name="Path 1573" d="M2719.153,1681.734s-7.179,6.438-7.167,13.424c.01,6.024-1.458,24.115.729,27.212s8.2,2.916,9.658,0,9.84-36.992,9.84-36.992Z" transform="translate(-2651.108 -1603.333)" fill="#002144"/>
          <path id="Path_1574" data-name="Path 1574" d="M2668.157,1759.1l2.43,4.98s30.11-8.957,31.485-11.886-2.67-8.705-10.487-5.789S2668.157,1759.1,2668.157,1759.1Z" transform="translate(-2631.455 -1632.284)" fill="#002144"/>
          <path id="Path_1575" data-name="Path 1575" d="M2692.1,1670.27s-.744.744-14.384,15.469c-4.681,5.053-11.1,11.3-12.737,13.941-.713,1.15-.742.928-.668,1.7.243,2.551-2.133,9.125,2.969,7.546s29.67-19.312,29.67-19.312l2.713-7.428Z" transform="translate(-2629.557 -1598.137)" fill="#002144"/>
          <path id="Path_1576" data-name="Path 1576" d="M2651.415,1724.767c.756.906,3.523,6.621-4.495,8.261s-20.957,4.373-20.957,4.373l-2.916-5.133s15.214-8.683,21.659-9.837C2649.072,1721.65,2650.587,1723.774,2651.415,1724.767Z" transform="translate(-2611.007 -1621.705)" fill="#002144"/>
          <path id="Path_1577" data-name="Path 1577" d="M2660.738,1769.591l3.866-1.086s1.514,3.786.713,5.667-2.943,6.665-3.808,8.669-2.841,4.874-4.382,4.851S2660.738,1769.591,2660.738,1769.591Z" transform="translate(-2626.324 -1642.666)" fill="#005f7b"/>
          <path id="Path_1578" data-name="Path 1578" d="M2616.082,1739.521l-4.9.931-5.739,17.833s3.431-1.337,4.768-4.132,7.592-8.2,7.774-8.929S2618.374,1740.56,2616.082,1739.521Z" transform="translate(-2603.025 -1629.528)" fill="#005f7b"/>
          <path id="Path_1579" data-name="Path 1579" d="M2767.514,1579.667a9,9,0,0,0-2.458-4.019c-1.8-1.543-8.145-2.229-11.4,1.714s-1.032,9.616,1.285,12.824l2.726-.447Z" transform="translate(-2669.468 -1554.692)" fill="#002144"/>
          <rect id="Rectangle_172" data-name="Rectangle 172" width="57.057" height="41.77" rx="5.223" transform="translate(107.52)" fill="#c5e7e8"/>
          <rect id="Rectangle_173" data-name="Rectangle 173" width="34.336" height="49.623" rx="2.78" transform="translate(160.861 3.717) rotate(90)" fill="#fff"/>
          <g id="Group_424" data-name="Group 424" transform="translate(115.369 9.148)">
            <path id="Path_1580" data-name="Path 1580" d="M2812.051,1586.892l14.667-25.4,14.667,25.4Z" transform="translate(-2812.051 -1557.974)" fill="#96d0d2"/>
            <path id="Path_1581" data-name="Path 1581" d="M2847.02,1592.06l11.121-19.262,11.121,19.262Z" transform="translate(-2827.902 -1563.101)" fill="#96d0d2"/>
            <path id="Path_1582" data-name="Path 1582" d="M2869.492,1572.8h-2.231l-.122,3.44,3.582,2.2Z" transform="translate(-2837.021 -1563.101)" fill="#96d0d2"/>
            <path id="Path_1583" data-name="Path 1583" d="M2840.962,1561.488h-2.231l-.122,3.44,3.582,2.2Z" transform="translate(-2824.09 -1557.974)" fill="#96d0d2"/>
            <circle id="Ellipse_38" data-name="Ellipse 38" cx="2.416" cy="2.416" r="2.416" transform="translate(22.764)" fill="#96d0d2"/>
          </g>
          <g id="Group_425" data-name="Group 425" transform="translate(117.601 9.147)">
            <path id="Path_1584" data-name="Path 1584" d="M2816.132,1586.892l14.667-25.4,14.667,25.4Z" transform="translate(-2816.132 -1557.974)" fill="#c5e7e8"/>
            <path id="Path_1585" data-name="Path 1585" d="M2851.1,1592.06l11.121-19.262,11.121,19.262Z" transform="translate(-2831.983 -1563.101)" fill="#c5e7e8"/>
            <rect id="Rectangle_174" data-name="Rectangle 174" width="2.231" height="4.832" transform="translate(22.949 0)" fill="#96d0d2"/>
            <path id="Path_1586" data-name="Path 1586" d="M2862.6,1557.476a2.416,2.416,0,1,1-2.416-2.416A2.416,2.416,0,0,1,2862.6,1557.476Z" transform="translate(-2835.007 -1555.06)" fill="#c5e7e8"/>
          </g>
          <path id="Path_1587" data-name="Path 1587" d="M2780.2,1615.287s-10.5,7.682-15.846,10.254a12.3,12.3,0,0,1-1.647.678c-2.979.913-9.728,2.5-13.733,3.416a6.953,6.953,0,0,0-4.642,3.621c-1.78,3.479-4.643,9.153-5.741,11.673-1.074,2.471-3.753,9.19-5.469,13.515-.013.036-.03.073-.043.109-.876,2.209-1.488,3.766-1.488,3.766s-2.268-2.926-10.919-5.364a42.463,42.463,0,0,1-15.184-8.383s6.8-12.391,9.6-18.707,8.991-21.616,16.765-19.636,6.742,6.574,6.742,6.574,7.351.668,13.426,1.154a64.293,64.293,0,0,0,10.691,0l15.671-6.855Z" transform="translate(-2648.377 -1570.842)" fill="#fe99b7"/>
          <path id="Path_1588" data-name="Path 1588" d="M2838.817,1610.806s2.976-1.771,5.406-1.345,4.252.625,4.313,1.345-3.887.361-3.887.361a19.863,19.863,0,0,0,4.42,1.146c1.337,0,3.626.048,3.687.655s-4.154,1.78-5.611,1.78-6.5.24-6.5.24Z" transform="translate(-2708.814 -1570.542)" fill="#ffb691"/>
          <path id="Path_1589" data-name="Path 1589" d="M2658.6,1770.614c2.019-.866,3.264,3.052,2.019,5.968s-1.974,8.473-3.523,10.387-3.826,2.916-4.373.729,1.366-6.469,2.642-9.84S2656.56,1771.488,2658.6,1770.614Z" transform="translate(-2624.415 -1643.567)" fill="#00324b"/>
          <path id="Path_1590" data-name="Path 1590" d="M2610.513,1741.25c2.445,1.2,1.639,5.454-.729,7.823s-3.28,6.469-5.285,9.02-3.644-.364-3.462-4.191,3.189-5.831,5.011-9.293S2609.344,1740.675,2610.513,1741.25Z" transform="translate(-2601.023 -1630.218)" fill="#00324b"/>
          <path id="Path_1591" data-name="Path 1591" d="M2761.065,1603.6l-1.7,7.563-.189.84a9.414,9.414,0,0,1-4.629,0,6.779,6.779,0,0,1-3.962-2.874l.443-.866,4.517-8.862Z" transform="translate(-2668.821 -1566.011)" fill="#ffb691"/>
          <path id="Path_1592" data-name="Path 1592" d="M2769.466,1584.01s.709,5.893-.386,9.936-2.925,6.025-5.284,5.482c-2.438-.562-4.69-4.9-4.69-4.9s-1.2-.1-2.506-2.947,2.33-3.8,2.809-2.3c0,0,1.234.617,1.576-1.371s.205-3.632,3.152-3.632A52,52,0,0,0,2769.466,1584.01Z" transform="translate(-2671.419 -1559.036)" fill="#ffb691"/>
          <path id="Path_1593" data-name="Path 1593" d="M2761.4,1603.252a8.082,8.082,0,0,0,3.46,6.988l.528-2.353A6.926,6.926,0,0,1,2761.4,1603.252Z" transform="translate(-2673.714 -1567.758)" fill="#eb9d76"/>
          <path id="Path_1594" data-name="Path 1594" d="M2787.268,1638.382a12.234,12.234,0,0,1-1.646.678c-2.979.913-9.728,2.5-13.733,3.416a6.954,6.954,0,0,0-4.642,3.621c-1.78,3.479-4.644,9.153-5.741,11.673-1.075,2.471-3.753,9.19-5.469,13.515,1.419-3.714.122-6.581.155-10.476.034-3.938,3.936-5.985,3.771-10.78s5.29-9.315,11.021-9.533A161.834,161.834,0,0,0,2787.268,1638.382Z" transform="translate(-2671.29 -1583.682)" fill="url(#linear-gradient-8)"/>
          <path id="Path_1595" data-name="Path 1595" d="M2672.7,1741.148l-.107-.312c10.368-3.545,30.154-10.94,30.823-13.553.453-1.766,4.079-30.118,4.116-30.4l.328.042c-.149,1.169-3.666,28.658-4.124,30.444C2702.856,1730.8,2673.931,1740.728,2672.7,1741.148Z" transform="translate(-2633.465 -1610.198)" fill="#fff"/>
          <path id="Path_1596" data-name="Path 1596" d="M2642.547,1729.727l-.1-.315c.173-.055,17.37-5.543,18.4-5.938.808-.31,13.2-9.88,19.635-14.9l.2.261c-.761.594-18.664,14.54-19.72,14.945C2659.927,1724.18,2643.256,1729.5,2642.547,1729.727Z" transform="translate(-2619.801 -1615.501)" fill="#fff"/>
          <path id="Path_1597" data-name="Path 1597" d="M2759.368,1618.509l-.189.84a9.414,9.414,0,0,1-4.629,0,6.78,6.78,0,0,1-3.962-2.873l.443-.867A8.921,8.921,0,0,0,2759.368,1618.509Z" transform="translate(-2668.821 -1573.359)" fill="#fff"/>
        </g>
        <path id="Path_1598" data-name="Path 1598" d="M2896.4,1490.155a5.314,5.314,0,0,1,1.348-2.561c2.1-1.813,3.161-3.31,3.655-2.736s-1.5,3.1-1.5,3.1,3.562-.875,5.122-1.342c2.241-.67,3.1-.994,3.281-.276s-6.83,6.606-9.032,7.235S2896.4,1490.155,2896.4,1490.155Z" transform="translate(-2734.917 -1449.12)" fill="#ffb691"/>
        <path id="Path_1599" data-name="Path 1599" d="M2831.317,1494.4c3.53-2.82,18.121,11.015,18.121,11.015l16.6-11.048,2.876,3.415s-11.864,14.685-17.976,17.112-19.512-6.93-21.144-13.473C2828.889,1497.783,2829.715,1495.675,2831.317,1494.4Z" transform="translate(-2704.555 -1453.329)" fill="#005f7b"/>
        <g id="Group_427" data-name="Group 427" transform="translate(168.266 10.107)">
          <path id="Path_1600" data-name="Path 1600" d="M2931.262,1448.5c0-.04-.006-.082-.01-.121a11.255,11.255,0,1,0,.01.121Zm-15.823,6.856a7.59,7.59,0,1,1,12.174-6.669c0,.028,0,.054,0,.081a7.588,7.588,0,0,1-12.178,6.588Z" transform="translate(-2908.806 -1438.079)" fill="#fe99b7"/>
          <path id="Path_1601" data-name="Path 1601" d="M2932.642,1464.691a11.243,11.243,0,0,1-15.761,2.1l2.219-2.9a7.588,7.588,0,0,0,12.178-6.588c0-.027,0-.053,0-.081l3.641-.309c0,.039.007.081.01.121A11.194,11.194,0,0,1,2932.642,1464.691Z" transform="translate(-2912.466 -1446.617)" fill="#fff"/>
          <path id="Path_1602" data-name="Path 1602" d="M2938.111,1448.5l-3.646.268c0-.027,0-.052,0-.081a7.589,7.589,0,0,0-9.577-6.678l-.97-3.524a11.243,11.243,0,0,1,14.188,9.893C2938.1,1448.415,2938.108,1448.457,2938.111,1448.5Z" transform="translate(-2915.654 -1438.079)" fill="#ffcb5b"/>
        </g>
        <path id="Path_1603" data-name="Path 1603" d="M2846.495,1466.22c-5.215,1.826-8.776-2.3-8.776-2.3l3.1-1.287,3.611.219Z" transform="translate(-2708.316 -1439.1)" fill="#eb9d76"/>
        <path id="Path_1604" data-name="Path 1604" d="M2832.739,1453.5s5.037,2.3,8.388,1.259c2.518-.78,2.224-4.37.934-7.85a21.159,21.159,0,0,0-4.349-6.471,19.86,19.86,0,0,1-5.512,4.015c-1.664.878-1.678,4.085-1.138,5.877,0,0-2.876-.6-2.337,1.493S2832.08,1454.578,2832.739,1453.5Z" transform="translate(-2704.208 -1429.041)" fill="#ffb691"/>
        <path id="Path_1605" data-name="Path 1605" d="M2830.042,1446.481c-.006-.035-.5-3.487,2.182-4.864,3.189-1.633,3.112-3.882,3.107-3.977l.331-.019c.005.1.1,2.553-3.287,4.29-2.472,1.267-2.011,4.487-2.006,4.519Z" transform="translate(-2704.818 -1427.764)" fill="#96d0d2"/>
        <path id="Path_1606" data-name="Path 1606" d="M2828.346,1446.51c-.031-.074-.163-.521.326-2.1.51-1.646,2.849-2.859,2.948-2.909l.151.294c-.023.012-2.314,1.2-2.784,2.713a4.11,4.11,0,0,0-.335,1.878Z" transform="translate(-2704.05 -1429.524)" fill="#96d0d2"/>
        <path id="Path_1607" data-name="Path 1607" d="M2847.293,1438.792l-.271-.189c1.352-1.936,1.758-3.844,1.115-5.233a2.372,2.372,0,0,0-1.9-1.427,2.675,2.675,0,0,1-2.54-1.606l.317-.094-.158.047.158-.048c.015.049.39,1.193,2.256,1.372a2.7,2.7,0,0,1,2.172,1.618C2849.131,1434.73,2848.714,1436.757,2847.293,1438.792Z" transform="translate(-2711.025 -1424.419)" fill="#002144"/>
        <g id="Group_428" data-name="Group 428" transform="translate(49.161 88.711)">
          <rect id="Rectangle_175" data-name="Rectangle 175" width="16.98" height="16.98" rx="8.17" fill="#ffe8b5"/>
          <path id="Path_1608" data-name="Path 1608" d="M2701.074,1589.221a2.707,2.707,0,0,0-.089-.392l.435-.528a3.177,3.177,0,0,0-.4-.659l-.672.135a2.646,2.646,0,0,0-.642-.475l-.067-.683a3.217,3.217,0,0,0-.747-.187l-.379.571a2.657,2.657,0,0,0-.4.029,2.609,2.609,0,0,0-.39.09l-.53-.436a3.155,3.155,0,0,0-.659.4l.136.673a2.616,2.616,0,0,0-.475.642l-.682.067a3.121,3.121,0,0,0-.187.747l.571.378a2.5,2.5,0,0,0,.028.4,2.653,2.653,0,0,0,.09.391l-.436.529a3.178,3.178,0,0,0,.4.66l.671-.135a2.634,2.634,0,0,0,.643.474l.067.683a3.161,3.161,0,0,0,.746.186l.379-.572a2.586,2.586,0,0,0,.791-.118l.53.435a3.188,3.188,0,0,0,.659-.4l-.136-.672a2.628,2.628,0,0,0,.475-.641l.683-.067a3.187,3.187,0,0,0,.187-.747l-.571-.379A2.679,2.679,0,0,0,2701.074,1589.221Zm-2.341,1.933a1.566,1.566,0,1,1,1.317-1.78A1.565,1.565,0,0,1,2698.734,1591.154Z" transform="translate(-2692.933 -1583.932)" fill="#fff"/>
          <path id="Path_1609" data-name="Path 1609" d="M2711.857,1594.673a2.767,2.767,0,0,0-.088-.391l.434-.529a3.185,3.185,0,0,0-.4-.659l-.673.136a2.644,2.644,0,0,0-.642-.476l-.067-.683a3.2,3.2,0,0,0-.747-.186l-.379.571a2.64,2.64,0,0,0-.791.118l-.53-.435a3.149,3.149,0,0,0-.659.4l.135.673a2.611,2.611,0,0,0-.475.642l-.682.067a3.1,3.1,0,0,0-.187.747l.571.378a2.653,2.653,0,0,0,.029.4,2.626,2.626,0,0,0,.09.391l-.436.529a3.171,3.171,0,0,0,.4.66l.672-.135a2.626,2.626,0,0,0,.642.474l.067.683a3.173,3.173,0,0,0,.746.186l.379-.571a2.632,2.632,0,0,0,.79-.118l.53.435a3.26,3.26,0,0,0,.66-.4l-.136-.673a2.644,2.644,0,0,0,.475-.642l.683-.067a3.2,3.2,0,0,0,.186-.747l-.57-.378A2.661,2.661,0,0,0,2711.857,1594.673Zm-2.341,1.934a1.566,1.566,0,1,1,1.317-1.781A1.565,1.565,0,0,1,2709.516,1596.606Z" transform="translate(-2697.82 -1586.403)" fill="#fff"/>
          <path id="Path_1610" data-name="Path 1610" d="M2701.651,1600.347a2.3,2.3,0,0,0-.183-.288l.2-.549a2.676,2.676,0,0,0-.506-.416l-.5.3a2.247,2.247,0,0,0-.651-.2l-.249-.529a2.715,2.715,0,0,0-.652.064l-.141.567a2.263,2.263,0,0,0-.313.138,2.164,2.164,0,0,0-.288.183l-.549-.2a2.683,2.683,0,0,0-.416.506l.3.5a2.227,2.227,0,0,0-.2.652l-.528.248a2.628,2.628,0,0,0,.063.652l.566.14a2.177,2.177,0,0,0,.137.313,2.235,2.235,0,0,0,.184.288l-.2.549a2.674,2.674,0,0,0,.507.416l.5-.3a2.246,2.246,0,0,0,.651.2l.249.529a2.72,2.72,0,0,0,.652-.064l.141-.567a2.241,2.241,0,0,0,.6-.321l.549.2a2.706,2.706,0,0,0,.416-.507l-.3-.5a2.265,2.265,0,0,0,.2-.65l.529-.249a2.727,2.727,0,0,0-.064-.653l-.566-.141A2.321,2.321,0,0,0,2701.651,1600.347Zm-1.326,2.221a1.334,1.334,0,1,1,.548-1.805A1.333,1.333,0,0,1,2700.325,1602.567Z" transform="translate(-2693.679 -1589.477)" fill="#fff"/>
        </g>
        <g id="Group_431" data-name="Group 431" transform="translate(257.738 117.744)">
          <rect id="Rectangle_176" data-name="Rectangle 176" width="12.981" height="12.981" rx="6.246" fill="#c5e7e8"/>
          <g id="Group_430" data-name="Group 430" transform="translate(1.81 1.919)">
            <path id="Path_1611" data-name="Path 1611" d="M3081.571,1641.371a2.9,2.9,0,1,1-2.9-2.9A2.9,2.9,0,0,1,3081.571,1641.371Z" transform="translate(-3075.773 -1638.472)" fill="#fff"/>
            <path id="Path_1612" data-name="Path 1612" d="M3081.457,1641.921a2.234,2.234,0,1,1-2.234-2.234A2.234,2.234,0,0,1,3081.457,1641.921Z" transform="translate(-3076.324 -1639.023)" fill="#c5e7e8"/>
            <g id="Group_429" data-name="Group 429" transform="translate(4.276 4.378)">
              <rect id="Rectangle_177" data-name="Rectangle 177" width="0.441" height="3.771" transform="translate(0 0.315) rotate(-45.558)" fill="#fff"/>
              <path id="Path_1613" data-name="Path 1613" d="M3089.81,1652.578h0a.49.49,0,0,1-.693.006l-1.993-1.954a.49.49,0,0,1-.007-.693h0a.491.491,0,0,1,.693-.007l1.992,1.954A.49.49,0,0,1,3089.81,1652.578Z" transform="translate(-3085.128 -1647.981)" fill="#fff"/>
            </g>
          </g>
        </g>
        <g id="Group_433" data-name="Group 433" transform="translate(241.274 60.795)">
          <rect id="Rectangle_178" data-name="Rectangle 178" width="24.735" height="24.735" rx="11.901" fill="#ffe6fc"/>
          <g id="Group_432" data-name="Group 432" transform="translate(3.591 6.45)">
            <path id="Path_1614" data-name="Path 1614" d="M3054.128,1542.593h2.39v7.521a7.669,7.669,0,0,1-.26,2.269,3.215,3.215,0,0,1-1.264,1.665,4.194,4.194,0,0,1-2.415.628,3.584,3.584,0,0,1-2.707-.985,4.034,4.034,0,0,1-.956-2.889l2.261-.26a3.177,3.177,0,0,0,.3,1.443,1.292,1.292,0,0,0,1.184.64,1.31,1.31,0,0,0,1.135-.458,3.6,3.6,0,0,0,.333-1.9Z" transform="translate(-3048.917 -1542.593)" fill="#fff"/>
            <path id="Path_1615" data-name="Path 1615" d="M3065.994,1554.572l2.286-.348a1.672,1.672,0,0,0,.592,1.009,2,2,0,0,0,1.248.344,2.255,2.255,0,0,0,1.329-.324.724.724,0,0,0,.3-.608.6.6,0,0,0-.163-.429,1.814,1.814,0,0,0-.761-.3,12.311,12.311,0,0,1-3.494-1.11,2.218,2.218,0,0,1-1.021-1.937,2.391,2.391,0,0,1,.884-1.881,4.127,4.127,0,0,1,2.74-.762,4.783,4.783,0,0,1,2.626.575,2.939,2.939,0,0,1,1.183,1.7l-2.147.4a1.328,1.328,0,0,0-.522-.77,1.912,1.912,0,0,0-1.1-.268,2.473,2.473,0,0,0-1.288.251.539.539,0,0,0-.259.462.5.5,0,0,0,.227.413,8.522,8.522,0,0,0,2.127.64,6.33,6.33,0,0,1,2.541,1.013,2.1,2.1,0,0,1,.713,1.694,2.6,2.6,0,0,1-.989,2.034,4.377,4.377,0,0,1-2.925.851,4.8,4.8,0,0,1-2.784-.714A3.282,3.282,0,0,1,3065.994,1554.572Z" transform="translate(-3056.658 -1545.146)" fill="#fff"/>
          </g>
        </g>
        <g id="Group_435" data-name="Group 435" transform="translate(218.127 29.432)">
          <rect id="Rectangle_179" data-name="Rectangle 179" width="15.515" height="15.515" rx="7.465" fill="#ffe8b5"/>
          <g id="Group_434" data-name="Group 434" transform="translate(1.391 5.35)">
            <path id="Path_1616" data-name="Path 1616" d="M3005.647,1486.189l.9.284a2.015,2.015,0,0,1-.686,1.115,2.16,2.16,0,0,1-2.719-.26,2.384,2.384,0,0,1-.588-1.705,2.506,2.506,0,0,1,.591-1.777,2.024,2.024,0,0,1,1.554-.634,1.908,1.908,0,0,1,1.366.5,1.809,1.809,0,0,1,.469.844l-.916.219a.947.947,0,0,0-.966-.769,1.044,1.044,0,0,0-.827.366,1.793,1.793,0,0,0-.317,1.185,1.92,1.92,0,0,0,.313,1.239,1.017,1.017,0,0,0,.813.368.928.928,0,0,0,.635-.234A1.361,1.361,0,0,0,3005.647,1486.189Z" transform="translate(-3002.552 -1483.212)" fill="#fff"/>
            <path id="Path_1617" data-name="Path 1617" d="M3010.878,1486.382l.9-.088a1.1,1.1,0,0,0,.33.666,1,1,0,0,0,.67.213,1.03,1.03,0,0,0,.674-.189.562.562,0,0,0,.227-.442.42.42,0,0,0-.1-.277.764.764,0,0,0-.333-.2q-.162-.057-.741-.2a2.52,2.52,0,0,1-1.044-.454,1.194,1.194,0,0,1-.422-.922,1.177,1.177,0,0,1,.2-.655,1.241,1.241,0,0,1,.572-.464,2.3,2.3,0,0,1,.9-.16,1.937,1.937,0,0,1,1.3.378,1.337,1.337,0,0,1,.458,1.01l-.926.041a.786.786,0,0,0-.255-.509.932.932,0,0,0-.586-.155,1.061,1.061,0,0,0-.631.166.333.333,0,0,0-.147.285.352.352,0,0,0,.138.278,2.432,2.432,0,0,0,.85.306,4.49,4.49,0,0,1,1,.33,1.292,1.292,0,0,1,.507.466,1.365,1.365,0,0,1,.182.73,1.347,1.347,0,0,1-.219.738,1.316,1.316,0,0,1-.619.511,2.6,2.6,0,0,1-1,.167,1.985,1.985,0,0,1-1.335-.4A1.749,1.749,0,0,1,3010.878,1486.382Z" transform="translate(-3006.326 -1483.212)" fill="#fff"/>
            <path id="Path_1618" data-name="Path 1618" d="M3018.69,1486.382l.9-.088a1.1,1.1,0,0,0,.33.666,1,1,0,0,0,.67.213,1.029,1.029,0,0,0,.674-.189.563.563,0,0,0,.227-.442.42.42,0,0,0-.1-.277.768.768,0,0,0-.333-.2q-.162-.057-.741-.2a2.52,2.52,0,0,1-1.044-.454,1.193,1.193,0,0,1-.422-.922,1.178,1.178,0,0,1,.2-.655,1.242,1.242,0,0,1,.572-.464,2.3,2.3,0,0,1,.9-.16,1.937,1.937,0,0,1,1.3.378,1.336,1.336,0,0,1,.458,1.01l-.925.041a.79.79,0,0,0-.255-.509.933.933,0,0,0-.586-.155,1.059,1.059,0,0,0-.631.166.334.334,0,0,0-.147.285.352.352,0,0,0,.138.278,2.434,2.434,0,0,0,.85.306,4.5,4.5,0,0,1,1,.33,1.291,1.291,0,0,1,.507.466,1.444,1.444,0,0,1-.036,1.468,1.314,1.314,0,0,1-.619.511,2.6,2.6,0,0,1-1,.167,1.986,1.986,0,0,1-1.335-.4A1.747,1.747,0,0,1,3018.69,1486.382Z" transform="translate(-3009.867 -1483.212)" fill="#fff"/>
          </g>
        </g>
        <g id="Group_437" data-name="Group 437" transform="translate(87.72 37.768)">
          <rect id="Rectangle_180" data-name="Rectangle 180" width="14.732" height="14.732" rx="7.088" fill="#c5e7e8"/>
          <g id="Group_436" data-name="Group 436" transform="translate(1.647 5.156)">
            <path id="Path_1619" data-name="Path 1619" d="M2764.487,1502.458v-4.352h1.411a5.076,5.076,0,0,1,1.045.066,1.141,1.141,0,0,1,.626.426,1.353,1.353,0,0,1,.252.847,1.415,1.415,0,0,1-.146.674,1.181,1.181,0,0,1-.37.429,1.269,1.269,0,0,1-.455.207,5.022,5.022,0,0,1-.912.062h-.573v1.642Zm.879-3.616v1.235h.481a2.275,2.275,0,0,0,.695-.068.581.581,0,0,0,.275-.214.587.587,0,0,0,.1-.338.562.562,0,0,0-.139-.392.61.61,0,0,0-.353-.193,4.269,4.269,0,0,0-.633-.029Z" transform="translate(-2764.487 -1498.106)" fill="#fff"/>
            <path id="Path_1620" data-name="Path 1620" d="M2771.911,1502.458v-4.352h.879v1.713h1.722v-1.713h.879v4.352h-.879v-1.9h-1.722v1.9Z" transform="translate(-2767.852 -1498.106)" fill="#fff"/>
            <path id="Path_1621" data-name="Path 1621" d="M2779.936,1502.458v-4.352h1.411a5.061,5.061,0,0,1,1.044.066,1.14,1.14,0,0,1,.627.426,1.354,1.354,0,0,1,.252.847,1.415,1.415,0,0,1-.146.674,1.187,1.187,0,0,1-.369.429,1.273,1.273,0,0,1-.456.207,5.022,5.022,0,0,1-.911.062h-.573v1.642Zm.879-3.616v1.235h.48a2.274,2.274,0,0,0,.695-.068.58.58,0,0,0,.275-.214.586.586,0,0,0,.1-.338.562.562,0,0,0-.139-.392.609.609,0,0,0-.353-.193,4.261,4.261,0,0,0-.632-.029Z" transform="translate(-2771.49 -1498.106)" fill="#fff"/>
          </g>
        </g>
      </g>
    </g>
  </g>
</svg>
