<svg xmlns="http://www.w3.org/2000/svg" width="228.179" height="208.824" viewBox="0 0 228.179 208.824">
  <g id="pot_plant_potted_plant_plant_interior_furnishing_decor" data-name="pot plant, potted plant, plant, interior, furnishing, decor" transform="translate(0.75 0.75)">
    <g id="pot_plant_potted_plant_plant_interior_furnishing_decor-2" data-name="pot plant, potted plant, plant, interior, furnishing, decor">
      <path id="Path" d="M27.809,18.9h0A44.079,44.079,0,0,0,.667.15L0,0S4.007,28.061,33.3,31.663l1.042,75.951V40.687A39.6,39.6,0,0,0,27.809,18.9Z" transform="translate(78.998 0)" fill="#edeeef"/>
      <path id="Path-2" data-name="Path" d="M34.342,0l-.667.15A44.079,44.079,0,0,0,6.532,18.9h0A39.6,39.6,0,0,0,0,40.687v66.927L1.666,29.323C30.959,25.721,34.342,0,34.342,0Z" transform="translate(113.34 9.005)" fill="#edeeef"/>
      <rect id="Rectangle" width="45.072" height="108.681" transform="translate(90.804 98.643)" fill="#00bcd0"/>
      <path id="Path-3" data-name="Path" d="M34.363,107.614V40.687A39.6,39.6,0,0,0,27.831,18.9h0A44.079,44.079,0,0,0,.689.15L.022,0s-1.8,27.016,27.49,30.618" transform="translate(78.976)" fill="none" stroke="#000" stroke-linecap="round" stroke-linejoin="round" stroke-width="1.5"/>
      <path id="Path-4" data-name="Path" d="M0,107.614V40.687A39.6,39.6,0,0,1,6.532,18.9h0A44.079,44.079,0,0,1,33.675.15L34.342,0s1.8,27.016-27.49,30.618" transform="translate(113.34 9.005)" fill="none" stroke="#000" stroke-linecap="round" stroke-linejoin="round" stroke-width="1.5"/>
      <path id="Path-5" data-name="Path" d="M19.959,62.506V23.633a23,23,0,0,0-3.794-12.654h0A25.6,25.6,0,0,0,.4.087L.013,0S-1.034,15.692,15.98,17.784" transform="translate(93.38 40.451)" fill="none" stroke="#000" stroke-linecap="round" stroke-linejoin="round" stroke-width="1.5"/>
      <path id="Path-6" data-name="Path" d="M0,.5H226.679" transform="translate(0 206.824)" fill="none" stroke="#000" stroke-linecap="round" stroke-linejoin="round" stroke-width="1.5"/>
      <path id="Path-7" data-name="Path" d="M15.7,49.182V18.6a18.1,18.1,0,0,0-2.985-9.956h0A20.145,20.145,0,0,0,.315.069L.01,0S-.814,12.347,12.573,13.993" transform="translate(87.655 67.437)" fill="none" stroke="#000" stroke-linecap="round" stroke-linejoin="round" stroke-width="1.5"/>
      <path id="Path-8" data-name="Path" d="M0,49.182V18.6A18.1,18.1,0,0,1,2.985,8.639h0A20.145,20.145,0,0,1,15.39.069l.3-.069s.824,12.347-12.564,13.993" transform="translate(103.36 67.437)" fill="none" stroke="#000" stroke-linecap="round" stroke-linejoin="round" stroke-width="1.5"/>
    </g>
    <path id="Path_1573" data-name="Path 1573" d="M111.659,72.727l1.337-1.5,1.739-1.036L115.2,74.7l-1.538,2.675-1.572,1.037-1.438-2.875Z" fill="#fff" stroke="#fff" stroke-width="1"/>
  </g>
</svg>
