<svg xmlns="http://www.w3.org/2000/svg" width="400.601" height="278.617" viewBox="0 0 400.601 278.617">
  <g id="Group_933" data-name="Group 933" transform="translate(-2428.595 -130.431)">
    <rect id="Rectangle_259" data-name="Rectangle 259" width="10.868" height="6.393" transform="translate(2745.952 216.306)" fill="#8fb9cf"/>
    <rect id="Rectangle_260" data-name="Rectangle 260" width="5.434" height="6.393" transform="translate(2725.846 226.414) rotate(-41.877)" fill="#8fb9cf"/>
    <rect id="Rectangle_261" data-name="Rectangle 261" width="6.393" height="5.434" transform="translate(2768.672 227.547) rotate(-48.123)" fill="#8fb9cf"/>
    <path id="Path_2684" data-name="Path 2684" d="M2678.283,564.385s-.227-21.049-16.99-33.508-30.355-13.139-32.507-15.4-2.055,7.583-1.942,11.434-.645,16.87,7.265,29.56,33.074,13.372,33.074,13.372Z" transform="translate(-123.703 -161.891)" fill="#f2d6c8"/>
    <path id="Path_2685" data-name="Path 2685" d="M2668.79,556.063a.278.278,0,0,0,.232-.432,106.913,106.913,0,0,0-16.767-18.916,127.9,127.9,0,0,0-13.638-10.041c-3.821-2.533-6.581-4.363-7.425-5.873a.278.278,0,0,0-.486.271c.91,1.628,3.718,3.49,7.6,6.066a127.478,127.478,0,0,1,13.582,10,106.3,106.3,0,0,1,16.667,18.8A.279.279,0,0,0,2668.79,556.063Z" transform="translate(-125.253 -164.098)" fill="#f5b89b"/>
    <path id="Path_2686" data-name="Path 2686" d="M2648.114,559.95a73.173,73.173,0,0,0,13.22-1.242.278.278,0,0,0-.114-.545c-.134.028-13.488,2.755-24.053,0a.278.278,0,1,0-.14.538A44.766,44.766,0,0,0,2648.114,559.95Z" transform="translate(-127.71 -179.088)" fill="#f5b89b"/>
    <path id="Path_2687" data-name="Path 2687" d="M2639.544,540.092a62.437,62.437,0,0,0,7.591-.525.278.278,0,0,0-.076-.551c-.084.011-8.429,1.145-12.8.007a.278.278,0,0,0-.14.538A22.772,22.772,0,0,0,2639.544,540.092Z" transform="translate(-126.546 -171.436)" fill="#f5b89b"/>
    <path id="Path_2688" data-name="Path 2688" d="M2660.34,578.171c6.288,0,16.969-2.342,17.511-2.462a.278.278,0,0,0-.12-.543c-.158.035-15.872,3.481-20.414,2.139a.278.278,0,1,0-.158.534A11.925,11.925,0,0,0,2660.34,578.171Z" transform="translate(-135.762 -185.885)" fill="#f5b89b"/>
    <path id="Path_2689" data-name="Path 2689" d="M2686.5,560.689a.277.277,0,0,0,.27-.211c.018-.068,1.669-6.844,0-12.978a.278.278,0,0,0-.537.146c1.631,5.991.015,12.632,0,12.7a.279.279,0,0,0,.2.337A.284.284,0,0,0,2686.5,560.689Z" transform="translate(-147.459 -174.746)" fill="#f5b89b"/>
    <path id="Path_2690" data-name="Path 2690" d="M2667.753,543.5h0a.278.278,0,0,0,.274-.283c0-.256-.118-6.306-1.632-10.215a.278.278,0,1,0-.518.2c1.477,3.818,1.593,9.961,1.593,10.023A.279.279,0,0,0,2667.753,543.5Z" transform="translate(-139.321 -168.963)" fill="#f5b89b"/>
    <path id="Path_2691" data-name="Path 2691" d="M3105.171,547.983c5.1-6.41,4.827-12.526,11.871-18.868s16.785-7.022,20.636-9.175,4.3,3.058,3.4,8.042,4.361,27.293-17.754,35.985S3105.171,547.983,3105.171,547.983Z" transform="translate(-314.821 -163.612)" fill="#f2d6c8"/>
    <path id="Path_2692" data-name="Path 2692" d="M3122.321,563.393a.278.278,0,0,0,.277-.259c.544-8.04-3.936-15.649-3.981-15.726a.278.278,0,0,0-.478.285c.044.074,4.436,7.54,3.9,15.4a.277.277,0,0,0,.259.3Z" transform="translate(-320.1 -174.737)" fill="#f5b89b"/>
    <path id="Path_2693" data-name="Path 2693" d="M3124.947,572.868a.271.271,0,0,0,.145-.041c6.511-4,18.321-3.518,18.439-3.513a.275.275,0,0,0,.291-.265.279.279,0,0,0-.265-.291c-.491-.023-12.1-.493-18.756,3.595a.278.278,0,0,0,.146.515Z" transform="translate(-322.725 -183.315)" fill="#f5b89b"/>
    <path id="Path_2694" data-name="Path 2694" d="M3122.153,562.22a.279.279,0,0,0,.274-.231c1.833-10.65,7.715-19.875,12.326-25.738a75.594,75.594,0,0,1,9.665-10.276.278.278,0,1,0-.357-.427,76.247,76.247,0,0,0-9.745,10.359c-4.651,5.914-10.584,15.223-12.437,25.988a.278.278,0,0,0,.227.321A.257.257,0,0,0,3122.153,562.22Z" transform="translate(-321.608 -166.027)" fill="#f5b89b"/>
    <path id="Path_2695" data-name="Path 2695" d="M3112.661,389.055c9.74,5.255,17.441,33.118,16.082,35.156s-12.2,9.933-18.1,12.9-4-7.006-4-7.006,11.676-9.288,11.228-10.647-4.639-14.271-4.639-14.271Z" transform="translate(-315.4 -111.491)" fill="#f5911f"/>
    <rect id="Rectangle_262" data-name="Rectangle 262" width="400.601" height="3.449" transform="translate(2428.595 405.599)" fill="#aecbc7"/>
    <path id="Path_2696" data-name="Path 2696" d="M2842.31,155.438s-3.016-2.109-3.016-4.63,3.823-7.108,9.09-6.429,6.8,1.529,6.8,1.529,5.585-5.1,12.306,1.1-3.047,12.573-8.823,6.117c0,0,2.945,6.853-2.265,7.5S2842.31,155.438,2842.31,155.438Z" transform="translate(-208.648 -13.506)" fill="#60100f"/>
    <path id="Path_2697" data-name="Path 2697" d="M2830.757,231.5s13.931-4.679,14.611-5.651c.34-.486.72-3.211,1.02-5.821s.51-5.107.51-5.107l-6.739-.523s.116,3,.024,5.39a7.237,7.237,0,0,1-.421,2.82c-.68.8-11.074,5.834-11.57,7.306S2830.757,231.5,2830.757,231.5Z" transform="translate(-204.189 -41.673)" fill="#ffac95"/>
    <path id="Path_2698" data-name="Path 2698" d="M2848.188,219.788a33.94,33.94,0,0,1,6.2.241c.3-2.613.51-5.107.51-5.107l-6.739-.523S2848.28,217.4,2848.188,219.788Z" transform="translate(-212.194 -41.673)" fill="#e9928b"/>
    <g id="Group_627" data-name="Group 627" transform="translate(2633.136 153.524)">
      <path id="Path_2699" data-name="Path 2699" d="M2843.443,204.384a4.429,4.429,0,0,0,3.014,1.291,8.109,8.109,0,0,0,1.359.013,6.454,6.454,0,0,1,4.917,1.583l-.305-12.2-.32-12.661a8.565,8.565,0,0,0-5.946,8.043C2845.992,195.325,2845.143,203.14,2843.443,204.384Z" transform="translate(-2843.443 -182.409)" fill="#7dc4be"/>
    </g>
    <g id="Group_628" data-name="Group 628" transform="translate(2636.15 160.605)" opacity="0.65">
      <path id="Path_2700" data-name="Path 2700" d="M2848.464,210.391a8.111,8.111,0,0,0,1.36.013,6.456,6.456,0,0,1,4.917,1.583l.282-10.639-.588-1.563-2.1-5.579s-4.479,5.63-3.367,8.947A10.362,10.362,0,0,1,2848.464,210.391Z" transform="translate(-2848.464 -194.206)" fill="#379690"/>
    </g>
    <path id="Path_2701" data-name="Path 2701" d="M2588.388,375.416a49.647,49.647,0,0,1,9.96-4.236c5.557-1.642,13.77-5.879,13.77-5.879l.518,11.325s-11.93,7.175-16.425,7.521S2588.388,375.416,2588.388,375.416Z" transform="translate(-108.35 -101.995)" fill="#4f91b3"/>
    <path id="Path_2702" data-name="Path 2702" d="M2585.517,344.394s2.708-1.47,3.458-3.429-1.1-4.38-3.228-4.726a3.727,3.727,0,0,0-3.4,1.325,3.649,3.649,0,0,0-4.38-1.959c-3.343.691-2.939,4.553-2.767,6.166s-.864-.4-5.014,2.248,1.844,10.662,4.9,12.506.253,4.953,4.777,4.9S2585.517,344.394,2585.517,344.394Z" transform="translate(-100.508 -90.078)" fill="#0c1b3c"/>
    <path id="Path_2703" data-name="Path 2703" d="M2537.167,570.068c1.295,1.2,5.165,2.287,5.165,2.287a7.053,7.053,0,0,1,.944-2.182,27.641,27.641,0,0,1,1.553-2.324l-5.24-3.83-1.4,3.5Z" transform="translate(-87.875 -181.431)" fill="#e9928b"/>
    <path id="Path_2704" data-name="Path 2704" d="M2534.3,574.095a17.781,17.781,0,0,0-4.3,5.6l16.364,7.242s.058-1.876-3.637-5.211c-2.238-2.02-3.307-2.525-3.259-5.34Z" transform="translate(-85.008 -185.459)" fill="#0c1b3c"/>
    <rect id="Rectangle_263" data-name="Rectangle 263" width="1.556" height="17.9" transform="matrix(0.405, -0.914, 0.914, 0.405, 2444.352, 395.652)" fill="#8dbcd6"/>
    <path id="Path_2705" data-name="Path 2705" d="M2540,580.5a4.519,4.519,0,0,1,3.529-.115l.083-.166a4.613,4.613,0,0,0-3.683.109Z" transform="translate(-88.981 -187.778)" fill="#fff"/>
    <path id="Path_2706" data-name="Path 2706" d="M2542.638,583.609a4.858,4.858,0,0,1,2.795-.369l.033-.182a4.951,4.951,0,0,0-2.917.388Z" transform="translate(-90.026 -189.014)" fill="#fff"/>
    <path id="Path_2707" data-name="Path 2707" d="M3125.571,585.959a3.072,3.072,0,0,0-2.224-.711l-.016-.184a3.188,3.188,0,0,1,2.376.768Z" transform="translate(-322.19 -189.841)" fill="#fff"/>
    <path id="Path_2708" data-name="Path 2708" d="M2601.662,577.057l.163,4.641.068,1.872c1.672.574,5.647,0,5.647,0a5.842,5.842,0,0,1-.068-1.872,25.623,25.623,0,0,1,.53-3.258Z" transform="translate(-113.656 -186.643)" fill="#e9928b"/>
    <path id="Path_2709" data-name="Path 2709" d="M2600.8,587.822a17.774,17.774,0,0,0-1.7,6.851l17.895.077s-.7-1.742-5.42-3.317c-2.86-.954-4.042-.989-5.125-3.587Z" transform="translate(-112.63 -190.947)" fill="#0c1b3c"/>
    <rect id="Rectangle_264" data-name="Rectangle 264" width="1.556" height="17.9" transform="matrix(0.004, -1, 1, 0.004, 2486.456, 405.283)" fill="#8dbcd6"/>
    <path id="Path_2710" data-name="Path 2710" d="M2607.216,591.76a4.516,4.516,0,0,1,3.187-1.519l.01-.185a4.619,4.619,0,0,0-3.331,1.577Z" transform="translate(-115.823 -191.839)" fill="#fff"/>
    <path id="Path_2711" data-name="Path 2711" d="M2610.882,593.609a4.862,4.862,0,0,1,2.412-1.458l-.042-.18a4.952,4.952,0,0,0-2.517,1.525Z" transform="translate(-117.283 -192.605)" fill="#fff"/>
    <path id="Path_2712" data-name="Path 2712" d="M2608,578.44l-6.341-1.383.163,4.641h5.648A25.623,25.623,0,0,1,2608,578.44Z" transform="translate(-113.656 -186.643)" fill="#de6667"/>
    <path id="Path_2713" data-name="Path 2713" d="M2538.871,567.516l5.087,2.657a27.641,27.641,0,0,1,1.553-2.324l-5.24-3.83Z" transform="translate(-88.556 -181.431)" fill="#de6667"/>
    <path id="Path_2714" data-name="Path 2714" d="M3059.907,587.907a17.779,17.779,0,0,1,1.672,6.859h-17.895s.706-1.739,5.434-3.294c2.865-.942,4.046-.971,5.141-3.564Z" transform="translate(-290.352 -190.98)" fill="#0c1b3c"/>
    <path id="Path_2715" data-name="Path 2715" d="M3063.194,591.813a4.5,4.5,0,0,0-3.181-1.533l-.009-.185a4.615,4.615,0,0,1,3.325,1.591Z" transform="translate(-296.876 -191.854)" fill="#fff"/>
    <path id="Path_2716" data-name="Path 2716" d="M3060.033,593.648a4.856,4.856,0,0,0-2.406-1.468l.043-.181a4.952,4.952,0,0,1,2.511,1.536Z" transform="translate(-295.926 -192.616)" fill="#fff"/>
    <path id="Path_2717" data-name="Path 2717" d="M3056.7,594.706a3.052,3.052,0,0,0-1.747-1.549l.06-.176a3.191,3.191,0,0,1,1.861,1.665Z" transform="translate(-294.859 -193.009)" fill="#fff"/>
    <path id="Path_2718" data-name="Path 2718" d="M2537.043,522.015l9.735,4.964s8.2-10.714,14.339-19.491l.007-.007a.782.782,0,0,1,.044-.065c.01-.017.023-.034.037-.058a92.664,92.664,0,0,0,5.974-9.321c2.359-4.723,4.516-22.794,5.542-32.576.4-3.823.632-6.381.632-6.381l-13.408-2.213-1.285-.214-3.462-.571s-2.019,33.657-2.708,35.845S2537.043,522.015,2537.043,522.015Z" transform="translate(-87.825 -138.285)" fill="#376f92"/>
    <path id="Path_2719" data-name="Path 2719" d="M2573.81,468.109c2.208,6.8-.679,12.743,2.378,23.423,2.783,9.718-.224,14.964-.788,15.828a92.632,92.632,0,0,0,5.974-9.321c2.358-4.723,4.516-22.794,5.542-32.576l-12.776-8.594-1.166-.785s-.051.2-.119.571A24.085,24.085,0,0,0,2573.81,468.109Z" transform="translate(-102.02 -138.285)" fill="#1b5175"/>
    <path id="Path_2720" data-name="Path 2720" d="M2595.282,452.252s5.417,35.041,5.648,38.729-3,34.695-3,34.695h-11.065s.115-29.969-.691-34.81c-.555-3.332-9.493-21.294-12.727-35.083-1.465-6.246-1.759-11.636.427-14.422,1.823-2.324,8.841,8.125,8.841,8.125Z" transform="translate(-101.917 -132.265)" fill="#376f92"/>
    <rect id="Rectangle_265" data-name="Rectangle 265" width="17.9" height="1.556" transform="translate(2753.332 403.785)" fill="#8dbcd6"/>
    <path id="Path_2721" data-name="Path 2721" d="M3100.047,580.521s-.51-13.107-11.213-18.844a15.57,15.57,0,0,0-18.319,1.881s-5.688-16.353-21.716-15.809-17.16,13.928-17.16,13.928-15.1-3.221-26.354,5.459-10.369,14.065-10.369,14.065Z" transform="translate(-270.851 -174.922)" fill="#adccc7"/>
    <path id="Path_2722" data-name="Path 2722" d="M2629.85,595.577l-.488-.268c3.471-6.315,11-8.524,11.071-8.546l.153.535C2640.513,587.319,2633.208,589.469,2629.85,595.577Z" transform="translate(-124.729 -190.523)" fill="#6eab9c"/>
    <path id="Path_2723" data-name="Path 2723" d="M3042.989,585.365h6.684l.149-2.464.3-4.985h-6.4l-.493,4.985Z" transform="translate(-290.074 -186.987)" fill="#e9928b"/>
    <g id="Group_629" data-name="Group 629" transform="translate(2568.926 320.902)" opacity="0.4">
      <path id="Path_2724" data-name="Path 2724" d="M2736.555,489.784c0,.012.007.026.011.037a2.474,2.474,0,0,0,2.428,1.831l1.438-.023a2.488,2.488,0,0,1,2.209,1.289c.09.158.181.316.271.472a2.491,2.491,0,0,1,.016,2.565l-.736,1.225a2.474,2.474,0,0,0,.372,3.02l.031.03a2.473,2.473,0,0,0,3.02.372l1.225-.737a2.49,2.49,0,0,1,2.565.016c.155.091.313.181.471.272a2.487,2.487,0,0,1,1.29,2.209l-.023,1.438a2.473,2.473,0,0,0,1.83,2.428c.012,0,.026.007.037.011a2.477,2.477,0,0,0,2.8-1.19l.7-1.255a2.465,2.465,0,0,1,2.191-1.271c.1,0,.2,0,.307,0s.2,0,.306,0a2.466,2.466,0,0,1,2.191,1.271l.7,1.255a2.478,2.478,0,0,0,2.8,1.19c.011,0,.026-.007.037-.011a2.473,2.473,0,0,0,1.831-2.428l-.023-1.438a2.488,2.488,0,0,1,1.289-2.209c.158-.091.317-.181.472-.272a2.49,2.49,0,0,1,2.565-.016l1.224.737a2.474,2.474,0,0,0,3.02-.372l.03-.03a2.473,2.473,0,0,0,.371-3.02l-.736-1.225a2.492,2.492,0,0,1,.017-2.565c.09-.155.181-.313.271-.472a2.488,2.488,0,0,1,2.21-1.289l1.438.023a2.471,2.471,0,0,0,2.427-1.831c.005-.011.007-.025.012-.037a2.477,2.477,0,0,0-1.19-2.8l-1.254-.7a2.465,2.465,0,0,1-1.271-2.191c0-.1,0-.2,0-.307s0-.2,0-.307a2.465,2.465,0,0,1,1.271-2.191l1.254-.7a2.477,2.477,0,0,0,1.19-2.8c0-.012-.007-.026-.012-.037a2.472,2.472,0,0,0-2.427-1.831l-1.438.023a2.488,2.488,0,0,1-2.21-1.289c-.091-.158-.181-.316-.271-.472a2.492,2.492,0,0,1-.017-2.565l.736-1.225a2.473,2.473,0,0,0-.371-3.02l-.03-.03a2.474,2.474,0,0,0-3.02-.372l-1.224.737a2.49,2.49,0,0,1-2.565-.016c-.155-.091-.314-.181-.472-.272a2.488,2.488,0,0,1-1.289-2.209l.023-1.438a2.473,2.473,0,0,0-1.831-2.428c-.012,0-.026-.007-.037-.011a2.478,2.478,0,0,0-2.8,1.19l-.7,1.254a2.465,2.465,0,0,1-2.191,1.271c-.1,0-.2,0-.306,0s-.2,0-.307,0a2.464,2.464,0,0,1-2.191-1.271l-.7-1.254a2.477,2.477,0,0,0-2.8-1.19c-.011,0-.025.007-.037.011a2.473,2.473,0,0,0-1.83,2.428l.023,1.438a2.487,2.487,0,0,1-1.29,2.209c-.157.091-.316.181-.471.272a2.49,2.49,0,0,1-2.565.016l-1.225-.737a2.473,2.473,0,0,0-3.02.372l-.031.03a2.474,2.474,0,0,0-.372,3.02l.736,1.225a2.491,2.491,0,0,1-.016,2.565c-.091.155-.181.313-.271.472a2.488,2.488,0,0,1-2.209,1.289l-1.438-.023a2.474,2.474,0,0,0-2.428,1.831c0,.011-.007.025-.011.037a2.477,2.477,0,0,0,1.189,2.8l1.254.7a2.466,2.466,0,0,1,1.271,2.191c0,.1,0,.2,0,.307s0,.2,0,.307a2.466,2.466,0,0,1-1.271,2.191l-1.254.7A2.477,2.477,0,0,0,2736.555,489.784Zm8.512-6a13.939,13.939,0,1,1,13.939,13.939A13.938,13.938,0,0,1,2745.067,483.788Z" transform="translate(-2736.471 -461.253)" fill="#f4d7c9"/>
    </g>
    <g id="Group_630" data-name="Group 630" transform="translate(2617.114 331.184)" opacity="0.4">
      <path id="Path_2725" data-name="Path 2725" d="M2816.872,520.113c.008.017.01.037.017.055a3.616,3.616,0,0,0,3.551,2.677l2.1-.034a3.639,3.639,0,0,1,3.232,1.886c.132.231.265.462.4.69a3.643,3.643,0,0,1,.024,3.751l-1.077,1.791a3.618,3.618,0,0,0,.544,4.417l.044.044a3.618,3.618,0,0,0,4.417.544l1.791-1.077a3.644,3.644,0,0,1,3.752.023c.228.133.459.265.69.4a3.638,3.638,0,0,1,1.885,3.232l-.033,2.1a3.617,3.617,0,0,0,2.678,3.551c.017.007.037.01.054.017a3.623,3.623,0,0,0,4.1-1.74l1.019-1.835a3.607,3.607,0,0,1,3.2-1.859c.149,0,.3.007.448.007s.3,0,.448-.007a3.605,3.605,0,0,1,3.2,1.859l1.02,1.835a3.622,3.622,0,0,0,4.1,1.74c.017-.007.037-.01.054-.017a3.617,3.617,0,0,0,2.677-3.551l-.034-2.1a3.64,3.64,0,0,1,1.886-3.232c.231-.132.462-.265.69-.4a3.644,3.644,0,0,1,3.752-.023l1.791,1.077a3.618,3.618,0,0,0,4.417-.544l.044-.044a3.618,3.618,0,0,0,.544-4.417l-1.077-1.791a3.642,3.642,0,0,1,.024-3.751c.133-.228.265-.459.4-.69a3.639,3.639,0,0,1,3.232-1.886l2.1.034a3.616,3.616,0,0,0,3.551-2.677c.007-.017.01-.038.017-.055a3.625,3.625,0,0,0-1.74-4.1L2878.973,515a3.606,3.606,0,0,1-1.858-3.2c0-.15.007-.3.007-.449s0-.3-.007-.448a3.606,3.606,0,0,1,1.858-3.2l1.835-1.019a3.624,3.624,0,0,0,1.74-4.1c-.007-.017-.01-.038-.017-.055a3.617,3.617,0,0,0-3.551-2.678l-2.1.034a3.64,3.64,0,0,1-3.232-1.886c-.133-.231-.265-.462-.4-.69a3.643,3.643,0,0,1-.024-3.752l1.077-1.791a3.618,3.618,0,0,0-.544-4.417l-.044-.044a3.618,3.618,0,0,0-4.417-.543l-1.791,1.077a3.644,3.644,0,0,1-3.752-.024c-.227-.132-.458-.265-.69-.4a3.639,3.639,0,0,1-1.886-3.231l.034-2.1a3.617,3.617,0,0,0-2.677-3.551c-.017-.007-.037-.01-.054-.017a3.622,3.622,0,0,0-4.1,1.74l-1.02,1.835a3.6,3.6,0,0,1-3.2,1.858c-.149,0-.3-.007-.448-.007s-.3,0-.448.007a3.606,3.606,0,0,1-3.2-1.858l-1.019-1.835a3.623,3.623,0,0,0-4.1-1.74c-.017.007-.037.01-.054.017a3.617,3.617,0,0,0-2.678,3.551l.033,2.1a3.637,3.637,0,0,1-1.885,3.231l-.69.4a3.644,3.644,0,0,1-3.752.024l-1.791-1.077a3.618,3.618,0,0,0-4.417.543l-.044.044a3.618,3.618,0,0,0-.544,4.417l1.077,1.791a3.644,3.644,0,0,1-.024,3.752c-.133.227-.266.459-.4.69a3.64,3.64,0,0,1-3.232,1.886l-2.1-.034a3.617,3.617,0,0,0-3.551,2.678c-.007.017-.01.037-.017.055a3.623,3.623,0,0,0,1.74,4.1l1.834,1.019a3.6,3.6,0,0,1,1.859,3.2c0,.149-.007.3-.007.448s0,.3.007.449a3.605,3.605,0,0,1-1.859,3.2l-1.834,1.019A3.623,3.623,0,0,0,2816.872,520.113Zm12.451-8.77a20.388,20.388,0,1,1,20.387,20.388A20.386,20.386,0,0,1,2829.323,511.343Z" transform="translate(-2816.751 -478.383)" fill="#f4d7c9"/>
      <circle id="Ellipse_54" data-name="Ellipse 54" cx="9.203" cy="9.203" r="9.203" transform="translate(23.757 23.927)" fill="#f4d7c9"/>
    </g>
    <path id="Path_2726" data-name="Path 2726" d="M2639.127,418.88l202.519,3.738,4.757-3.738V300.63H2639.127l-4.757,3.738Z" transform="translate(-126.731 -76.143)" fill="#b6d5d0"/>
    <path id="Path_2727" data-name="Path 2727" d="M2639.127,276.521l202.519,3.738,4.757-3.738V261.57H2639.127l-4.757,3.738Z" transform="translate(-126.731 -60.529)" fill="#b6d5d0"/>
    <rect id="Rectangle_266" data-name="Rectangle 266" width="207.276" height="118.249" transform="translate(2507.639 228.225)" fill="#dceceb"/>
    <circle id="Ellipse_55" data-name="Ellipse 55" cx="29.738" cy="29.738" r="29.738" transform="translate(2712.532 267.085) rotate(-67.5)" fill="#b2d3e4"/>
    <path id="Path_2728" data-name="Path 2728" d="M2997.787,327.677v.058a25.574,25.574,0,1,0,0-.058Z" transform="translate(-272.005 -76.743)" fill="#fff"/>
    <path id="Path_2729" data-name="Path 2729" d="M2997.787,327.677h25.6V302.131A25.6,25.6,0,0,0,2997.787,327.677Z" transform="translate(-272.005 -76.743)" fill="#dceceb"/>
    <g id="Group_631" data-name="Group 631" transform="translate(2750.853 227.494)">
      <rect id="Rectangle_267" data-name="Rectangle 267" width="1.066" height="3.423" transform="translate(0)" fill="#8fb9cf"/>
      <rect id="Rectangle_268" data-name="Rectangle 268" width="1.066" height="3.423" transform="translate(0 43.459)" fill="#8fb9cf"/>
    </g>
    <g id="Group_632" data-name="Group 632" transform="translate(2727.944 250.377)">
      <rect id="Rectangle_269" data-name="Rectangle 269" width="3.423" height="1.065" transform="translate(0 0.05) rotate(-0.061)" fill="#8fb9cf"/>
      <rect id="Rectangle_270" data-name="Rectangle 270" width="3.423" height="1.066" transform="translate(43.459 0.004) rotate(-0.061)" fill="#8fb9cf"/>
    </g>
    <g id="Group_633" data-name="Group 633" transform="translate(2739.002 230.483)">
      <rect id="Rectangle_271" data-name="Rectangle 271" width="1.066" height="3.423" transform="translate(0 0.542) rotate(-30.58)" fill="#8fb9cf"/>
      <rect id="Rectangle_272" data-name="Rectangle 272" width="1.065" height="3.423" transform="translate(22.109 37.957) rotate(-30.578)" fill="#8fb9cf"/>
    </g>
    <g id="Group_634" data-name="Group 634" transform="translate(2730.946 238.53)">
      <rect id="Rectangle_273" data-name="Rectangle 273" width="3.423" height="1.066" transform="matrix(0.86, -0.51, 0.51, 0.86, 0, 23.893)" fill="#8fb9cf"/>
      <rect id="Rectangle_274" data-name="Rectangle 274" width="3.423" height="1.066" transform="matrix(0.86, -0.51, 0.51, 0.86, 37.392, 1.745)" fill="#8fb9cf"/>
    </g>
    <g id="Group_635" data-name="Group 635" transform="translate(2730.721 238.928)">
      <rect id="Rectangle_275" data-name="Rectangle 275" width="1.065" height="3.423" transform="matrix(0.492, -0.87, 0.87, 0.492, 0, 0.927)" fill="#8fb9cf"/>
      <rect id="Rectangle_276" data-name="Rectangle 276" width="1.066" height="3.423" transform="matrix(0.492, -0.87, 0.87, 0.492, 37.825, 22.328)" fill="#8fb9cf"/>
    </g>
    <g id="Group_636" data-name="Group 636" transform="translate(2739.401 230.258)">
      <rect id="Rectangle_277" data-name="Rectangle 277" width="3.423" height="1.066" transform="matrix(0.492, -0.871, 0.871, 0.492, 0, 40.829)" fill="#8fb9cf"/>
      <rect id="Rectangle_278" data-name="Rectangle 278" width="3.423" height="1.066" transform="matrix(0.491, -0.871, 0.871, 0.491, 21.36, 2.981)" fill="#8fb9cf"/>
    </g>
    <path id="Path_2730" data-name="Path 2730" d="M3019.386,341.045a.636.636,0,0,0,.319-.086l12.7-7.323V316.751a.639.639,0,1,0-1.279,0V332.9l-12.064,6.955a.639.639,0,0,0,.32,1.193Z" transform="translate(-280.383 -82.332)" fill="#3fb8a9"/>
    <rect id="Rectangle_279" data-name="Rectangle 279" width="207.276" height="14.951" transform="translate(2507.639 204.779)" fill="#c6e0dd"/>
    <g id="Group_640" data-name="Group 640" transform="translate(2515.907 210.102)">
      <g id="Group_637" data-name="Group 637" transform="translate(17.669)">
        <path id="Path_2731" data-name="Path 2731" d="M2681.885,278.818a2.152,2.152,0,1,1-2.152-2.152A2.152,2.152,0,0,1,2681.885,278.818Z" transform="translate(-2677.581 -276.666)" fill="#67b4d2"/>
      </g>
      <g id="Group_638" data-name="Group 638" transform="translate(8.835)">
        <circle id="Ellipse_56" data-name="Ellipse 56" cx="2.152" cy="2.152" r="2.152" fill="#eb908b"/>
      </g>
      <g id="Group_639" data-name="Group 639" transform="translate(0)">
        <circle id="Ellipse_57" data-name="Ellipse 57" cx="2.152" cy="2.152" r="2.152" fill="#ffaa3f"/>
      </g>
    </g>
    <path id="Path_2732" data-name="Path 2732" d="M2580.971,374.464l7.866,2.249.527-3.391.51-3.265-6.741-3.024-.027.1Z" transform="translate(-105.385 -102.687)" fill="#e9928b"/>
    <path id="Path_2733" data-name="Path 2733" d="M2584.526,367.127a4.029,4.029,0,0,0,.245.652,11.109,11.109,0,0,0,6.014,5.542l.51-3.265-6.742-3.025Z" transform="translate(-106.806 -102.687)" fill="#de6667"/>
    <path id="Path_2734" data-name="Path 2734" d="M2562.777,427.277s1.729.346,10.258,2.881,19.019-.574,19.019-.574.061-1.941.088-5c.034-3.554.02-8.621-.187-13.9-.106-2.654-.258-5.359-.479-7.958-1.037-12.219-9.912-21.064-9.912-21.064l-7.866-2.249s-4.237,1.3-5.736,8.1-.921,16.253-1.267,19.365S2562.777,427.277,2562.777,427.277Z" transform="translate(-98.112 -107.636)" fill="#67a4c3"/>
    <path id="Path_2735" data-name="Path 2735" d="M2573.323,394.782a75.925,75.925,0,0,0,2.423,16.331c2.254,8.173,6.358,7.8,9.984,14.143,2.749,4.815,8.172,5.45,10.629,5.477.034-3.554.021-8.621-.187-13.9l-1.682-.143-9.555-9.46Z" transform="translate(-102.328 -113.78)" fill="#4f91b3"/>
    <path id="Path_2736" data-name="Path 2736" d="M2590.913,377.414c1.124.463-1.037,3.129-1.037,3.129a30.977,30.977,0,0,1-8.9-3.388l.987-3.394S2587.973,376.2,2590.913,377.414Z" transform="translate(-105.385 -105.377)" fill="#93405e"/>
    <path id="Path_2737" data-name="Path 2737" d="M3105.355,580.278l.6,3.568.418,2.464h6.456l-.38-2.464-.554-3.568Z" transform="translate(-315.005 -187.931)" fill="#e9928b"/>
    <path id="Path_2738" data-name="Path 2738" d="M3111.9,580.278h-6.541l.6,3.568h6.494Z" transform="translate(-315.005 -187.931)" fill="#de6667"/>
    <path id="Path_2739" data-name="Path 2739" d="M3043.4,582.9h6.589l.3-4.985h-6.4Z" transform="translate(-290.237 -186.987)" fill="#de6667"/>
    <path id="Path_2740" data-name="Path 2740" d="M3084.693,475.955s.207,3.663.53,8.173c.391,5.481.948,12.212,1.508,15.1.269,1.39,1.02,4.384,1.981,8.04,2.694,10.215,7.023,25.6,7.023,25.6h8.835s-1.869-25.315-2.637-28.713-.251-14.781.428-23.106-1.02-23.616-1.02-23.616l-12.684,1.492-1.757.207-.123.927-.893,6.816-.789,6Z" transform="translate(-306.745 -138.826)" fill="#489da2"/>
    <path id="Path_2741" data-name="Path 2741" d="M3084.693,482.138s1.019,18.009,2.038,23.276c.269,1.39,1.02,4.384,1.981,8.04a35.076,35.076,0,0,1,2.1-3.622c5.271-7.992-2.378-13.252,1.814-20.558s0-16.371,0-16.371l-7.526,6.157Z" transform="translate(-306.745 -145.008)" fill="#408c91"/>
    <path id="Path_2742" data-name="Path 2742" d="M3108.649,590.326h-6.456s-1.02,2.378-2.464,2.888-5.012.765-5.012,3.653h15.206a26.033,26.033,0,0,0-.68-4.333A14.351,14.351,0,0,1,3108.649,590.326Z" transform="translate(-310.753 -191.947)" fill="#fdab3f"/>
    <rect id="Rectangle_280" data-name="Rectangle 280" width="15.206" height="1.359" transform="translate(2783.965 404.919)" fill="#fff"/>
    <path id="Path_2743" data-name="Path 2743" d="M3039.406,532.871H3049.6s7.475-28.883,7.645-30.922c.136-1.624,5.654-11.108,9.875-17.822,1.077-1.72,2.073-3.259,2.868-4.435,2.495-3.687,4.02-10.146,4.8-14.332.438-2.372.639-4.016.639-4.016l-6.749-1.281-13.809-2.627s-1.193,3.555-2.776,8.536c-2.97,9.341-7.316,23.694-7.758,29.012C3043.653,503.139,3039.406,532.871,3039.406,532.871Z" transform="translate(-288.642 -138.826)" fill="#489da2"/>
    <path id="Path_2744" data-name="Path 2744" d="M3060.538,465.972a26.327,26.327,0,0,0,15.692.907c.193-.051.381-.105.564-.16a51.728,51.728,0,0,1,6.439-1.359c4.071-.649,7.945-1.016,7.945-1.016L3079,458.928l-1.757.207-.123.927-13.809-2.627S3062.122,460.991,3060.538,465.972Z" transform="translate(-297.09 -138.826)" fill="#408c91"/>
    <path id="Path_2745" data-name="Path 2745" d="M3041.8,590.326h-6.683s-3,3.058-6.229,3.4-4.927,1.19-5.776,3.144h19.878Z" transform="translate(-282.127 -191.947)" fill="#fdab3f"/>
    <rect id="Rectangle_281" data-name="Rectangle 281" width="19.878" height="1.359" transform="translate(2740.981 404.919)" fill="#fff"/>
    <path id="Path_2746" data-name="Path 2746" d="M3094.053,347.156l-1.331-2.8a9.563,9.563,0,0,1-3.086-5.862c-.34-3.568,4.757-6.371,8.155-3.143s3.908,9.769,6.541,10.194,6.371,3.993,2.124,6.8a3.467,3.467,0,0,1-1.189,4.757c-2.889,2.124-4.163,2.209-4.163,2.209s-1.191,1.359-1.445.085a15.808,15.808,0,0,0-1.783-3.653Z" transform="translate(-308.715 -89.454)" fill="#0c1b3c"/>
    <path id="Path_2747" data-name="Path 2747" d="M3096.468,371.506l-1.585,7.022,8.325,1.133v-6.626l-1.445-3.832-4.8-.926Z" transform="translate(-310.818 -103.185)" fill="#e9928b"/>
    <path id="Path_2748" data-name="Path 2748" d="M3103.534,384.583l-.6-3.115a24.3,24.3,0,0,0-8.723-.729l-1.486,2.846Z" transform="translate(-309.956 -108.106)" fill="#f5911f"/>
    <path id="Path_2749" data-name="Path 2749" d="M3091.664,351.3s-3.908,5.38-4.531,6.117.737,1.3,1.189,2.662-.84,4.644,1,5.607,5.857-.737,7.5-3a3.125,3.125,0,0,0,3.4-1.982c1.246-2.492-.51-3.568-2.378-2.775s-2.379-.51-2.039-2.209S3091.664,351.3,3091.664,351.3Z" transform="translate(-307.657 -96.396)" fill="#e9928b"/>
    <path id="Path_2750" data-name="Path 2750" d="M3035.119,333.286s-.712-3.276-1.052-4.748-1.416-5.663-2.435-5.833.34,4.587,0,5.04-3.115,1.076-3.172,2.378,1.846,5.061,1.846,5.061Z" transform="translate(-284.266 -84.966)" fill="#e9928b"/>
    <path id="Path_2751" data-name="Path 2751" d="M2826.822,305.949l2.007.472s2.681,1.768,3.455,3.477,2.495,6.283,2.495,6.283l-2.569.891s-.78-3.416-1.972-3.092-.964,3.572-3,4.819a50.75,50.75,0,0,1-6.721,2.916s3.476-4.623,3.762-6.521a38.016,38.016,0,0,0-.392-6.832Z" transform="translate(-201.141 -78.269)" fill="#1c5276"/>
    <path id="Path_2752" data-name="Path 2752" d="M2822.135,294.229l1.832,6.956.564,2.151,4.947-1.94-.187-1.77-.663-6.252Z" transform="translate(-201.789 -73.242)" fill="#ffac95"/>
    <path id="Path_2753" data-name="Path 2753" d="M2828.629,293.373l-6.494.856,1.832,6.956,5.325-1.56Z" transform="translate(-201.789 -73.242)" fill="#e9928b"/>
    <path id="Path_2754" data-name="Path 2754" d="M2803,257.183c.5,2.2,1.2,4.761,2.083,7.744.754,2.549,1.652,5.41,2.677,8.621l2.168,5.606,3.374-.924,5.671-1.556,5.665-2.107s-2.695-6.629-4.88-12.423v0c-.612-1.631-1.186-3.19-1.648-4.522a27.416,27.416,0,0,1-1.064-3.551c-.075-.489.5-1.145,1.519-1.893,4.135-3.052,15.516-7.676,19.626-9.3.948-.374,1.509-.588,1.509-.588l-1.084-.673-3.105-1.933s-1.781.153-4.489.424c-6.324.636-17.711,1.92-23.263,3.429C2802.277,245.022,2800.91,247.981,2803,257.183Z" transform="translate(-193.769 -51.779)" fill="#5f6386"/>
    <path id="Path_2755" data-name="Path 2755" d="M2817.351,243.947c-1.1,1.064-7.5,1.09-11.157,4.318s-2.492,11.3-2.492,11.3l30.666-13.392Z" transform="translate(-194.351 -53.485)" fill="#4a4e73"/>
    <path id="Path_2756" data-name="Path 2756" d="M2807.095,273.247c.754,2.549,1.652,5.41,2.677,8.621l2.761,5.606,8.452-2.48c-.088-2.732-2.165-5.315-.228-7.092,1.726-1.58,1.4-4.879,1.013-7.438v0a68.173,68.173,0,0,1-2.711-8.073c-.075-.489.5-1.145,1.519-1.893l-8.046.533Z" transform="translate(-195.777 -60.1)" fill="#4a4e73"/>
    <path id="Path_2757" data-name="Path 2757" d="M2801.809,313.65l1.741,1.1s1.954,2.549,2.124,4.417.3,6.753.3,6.753h-2.719s.382-3.483-.849-3.568-2.081,3.058-4.417,3.568a50.786,50.786,0,0,1-7.306.552s4.8-3.228,5.692-4.927a38.023,38.023,0,0,0,1.868-6.584Z" transform="translate(-189.216 -81.348)" fill="#1c5276"/>
    <path id="Path_2758" data-name="Path 2758" d="M2803.279,309.594l5.308-.214.751-3.231,1.077-4.628L2804,300.206l-.381,4.947Z" transform="translate(-194.252 -75.974)" fill="#ffac95"/>
    <path id="Path_2759" data-name="Path 2759" d="M2803.845,305.153l5.719,1,1.077-4.628-6.415-1.315Z" transform="translate(-194.478 -75.974)" fill="#e9928b"/>
    <path id="Path_2760" data-name="Path 2760" d="M2796.458,279.135l14.387,2.151s.078-.669.218-1.774c.656-5.185,2.64-19.993,3.972-20.483a3.7,3.7,0,0,1,.836-.129c4.186-.347,21.329.18,30.85-1.061,5.4-.7,7.149-4.516,7.577-8.036a19.642,19.642,0,0,0-.357-6.32l-17.564-.588-.164-.007s-1.019.1-2.7.279c-7.459.8-27.941,3.286-30.255,6.4-.5.68-1.458,4.353-2.494,8.893C2798.762,267.2,2796.458,279.135,2796.458,279.135Z" transform="translate(-191.525 -53.062)" fill="#5f6386"/>
    <path id="Path_2761" data-name="Path 2761" d="M2850.31,240.1a18.463,18.463,0,0,0,3.83,1.5c.309.089.608.181.9.279a19.934,19.934,0,0,1,2.443.989c4.115,1.984,6.313,4.75,10.768,6.463a8.313,8.313,0,0,0,7.577-.816,19.65,19.65,0,0,0-.357-6.32l-17.564-.588-3.106-1.933S2853.019,239.833,2850.31,240.1Z" transform="translate(-213.052 -51.779)" fill="#4a4e73"/>
    <path id="Path_2762" data-name="Path 2762" d="M2851.256,199.757c1.729,3.707,3.143,8.3,2.681,12.522-.014.132-.031.262-.048.391-.594,4.332.136,5.426,1.879,5.162s7.72,3.163,12.052,4.352,10.7-1.784,10.7-1.784-3.568-11.044-3.568-15.376c0-1.54.115-4.316.139-7.408.041-5.6,2.206-11.578.343-13.767-1.716-2.018-7.635-3.614-10.184-4.045a26.736,26.736,0,0,0-3.041-.35,13.122,13.122,0,0,0-7.985,2.253l-.17.125c-1.443,1.1-.934,3.313-1.1,4.928S2849.472,195.934,2851.256,199.757Z" transform="translate(-213.22 -27.684)" fill="#7dc4be"/>
    <path id="Path_2763" data-name="Path 2763" d="M2856.383,181.5c.014,2.735,1.1,5.354,4.625,5.085,7.833-.595,6.507-6.786,6.507-6.786a26.736,26.736,0,0,0-3.042-.35A13.466,13.466,0,0,0,2856.383,181.5Z" transform="translate(-215.48 -27.679)" fill="#fff"/>
    <g id="Group_641" data-name="Group 641" transform="translate(2640.466 162.797)" opacity="0.65">
      <path id="Path_2764" data-name="Path 2764" d="M2857.737,225.208c1.743-.265,7.72,3.163,12.052,4.352s10.7-1.784,10.7-1.784-3.568-11.044-3.568-15.376c0-1.54.115-4.316.139-7.408-4.037-3.734-7.727-7.136-7.727-7.136s-.992,10.551-3.286,13.524-.288,3.948-4.6,5.076a14.508,14.508,0,0,0-5.542,3.2c-.014.132-.031.262-.048.391C2855.263,224.378,2855.994,225.472,2857.737,225.208Z" transform="translate(-2855.654 -197.857)" fill="#379690"/>
    </g>
    <path id="Path_2765" data-name="Path 2765" d="M2817.48,244.7v-.85l12.947-.293,15.03,1.321v.849l-12.947,1.143Z" transform="translate(-199.928 -53.327)" fill="#88afc4"/>
    <path id="Path_2766" data-name="Path 2766" d="M2817.48,243.281l12.947-1.143,15.03,2.17-12.947,1.143Z" transform="translate(-199.928 -52.762)" fill="#8fb9cf"/>
    <path id="Path_2767" data-name="Path 2767" d="M2840.275,235.913c.959.214,3.85-1.088,6.4-1.077s18.7-3.849,20.459-6.4c.153-.221.3-.459.452-.707a41.44,41.44,0,0,0,2.891-6.544l-7.421.262s-.567,1.322-1.084,2.27a6.929,6.929,0,0,1-.391.642c-.564.792-14.043,6.684-16.31,7.248s-3.558.156-4.839,1.478S2839.317,235.7,2840.275,235.913Z" transform="translate(-208.736 -44.386)" fill="#ffac95"/>
    <path id="Path_2768" data-name="Path 2768" d="M2878.011,221.448s-.567,1.322-1.084,2.27a16.86,16.86,0,0,1,5.614,4.013,41.44,41.44,0,0,0,2.891-6.544Z" transform="translate(-223.692 -44.386)" fill="#e9928b"/>
    <path id="Path_2769" data-name="Path 2769" d="M2856.09,171.491a37.452,37.452,0,0,1,1.546,4.628,5.377,5.377,0,0,1,.153.978c.055,1.587.734,3.174,2.773,3.286,1.319.075,3.334-.965,4.72-2.4a3.457,3.457,0,0,0,.435-4.254l-2.606-4.112a4.3,4.3,0,0,1-3.255-2.66c-.717-1.532-1.978.54-2.841,2.358C2856.474,170.454,2856.09,171.491,2856.09,171.491Z" transform="translate(-215.363 -22.497)" fill="#ffac95"/>
    <path id="Path_2770" data-name="Path 2770" d="M2856.09,172.939a37.451,37.451,0,0,1,1.546,4.628c4.159-2.093,2.759-7.516,2.759-7.516s-1.563.326-3.381.717C2856.474,171.9,2856.09,172.939,2856.09,172.939Z" transform="translate(-215.363 -23.945)" fill="#e9928b"/>
    <path id="Path_2771" data-name="Path 2771" d="M2757.188,149.256h40.21V163.1h-7.166l3.738,8.806-13.362-8.806h-23.419Z" transform="translate(-175.827 -15.632)" fill="#b2e5e0"/>
    <g id="Group_642" data-name="Group 642" transform="translate(2671.516 242.846)">
      <path id="Path_2772" data-name="Path 2772" d="M2907.383,346.922a15.705,15.705,0,1,0,15.705-15.706A15.7,15.7,0,0,0,2907.383,346.922Zm5.6,0a10.109,10.109,0,1,1,10.109,10.109A10.109,10.109,0,0,1,2912.979,346.922Z" transform="translate(-2907.383 -331.216)" fill="#b2e5e0"/>
    </g>
    <rect id="Rectangle_282" data-name="Rectangle 282" width="20.048" height="2.492" transform="translate(2677.198 279.194)" fill="#fff"/>
    <g id="Group_643" data-name="Group 643" transform="translate(2624.018 242.846)">
      <path id="Path_2773" data-name="Path 2773" d="M2828.252,346.922a15.705,15.705,0,1,0,15.706-15.706A15.7,15.7,0,0,0,2828.252,346.922Zm5.6,0a10.109,10.109,0,1,1,10.109,10.109A10.109,10.109,0,0,1,2833.849,346.922Z" transform="translate(-2828.252 -331.216)" fill="#b2e5e0"/>
    </g>
    <rect id="Rectangle_283" data-name="Rectangle 283" width="20.048" height="2.492" transform="translate(2629.699 279.194)" fill="#fff"/>
    <g id="Group_644" data-name="Group 644" transform="translate(2576.178 242.846)">
      <path id="Path_2774" data-name="Path 2774" d="M2748.554,346.922a15.706,15.706,0,1,0,15.706-15.706A15.7,15.7,0,0,0,2748.554,346.922Zm5.6,0a10.109,10.109,0,1,1,10.109,10.109A10.109,10.109,0,0,1,2754.151,346.922Z" transform="translate(-2748.554 -331.216)" fill="#b2e5e0"/>
    </g>
    <g id="Group_645" data-name="Group 645" transform="translate(2667.779 244.205)">
      <path id="Path_2775" data-name="Path 2775" d="M2901.156,349.186a15.705,15.705,0,1,0,16.044-15.7c-.111-.007-.224-.007-.339-.007A15.7,15.7,0,0,0,2901.156,349.186Zm5.6,0a10.109,10.109,0,0,1,10.109-10.109c.116,0,.228,0,.339.01a10.106,10.106,0,1,1-10.448,10.1Z" transform="translate(-2901.156 -333.48)" fill="#3fb8a9"/>
    </g>
    <g id="Group_646" data-name="Group 646" transform="translate(2620.282 244.205)">
      <path id="Path_2776" data-name="Path 2776" d="M2822.028,349.186a15.7,15.7,0,1,0,1.584-6.881c-.082.17-.164.34-.238.513A15.588,15.588,0,0,0,2822.028,349.186Zm5.6,0a10.018,10.018,0,0,1,.87-4.1,9.811,9.811,0,0,1,.594-1.145,10.114,10.114,0,1,1-1.464,5.246Z" transform="translate(-2822.028 -333.48)" fill="#67b4d2"/>
    </g>
    <path id="Path_2777" data-name="Path 2777" d="M2822.028,355.063a15.7,15.7,0,0,0,8.543,13.979l2.552-4.985a10.114,10.114,0,0,1-4.034-14.24l-5.477-1.634A15.6,15.6,0,0,0,2822.028,355.063Z" transform="translate(-201.746 -95.152)" fill="#eb908b"/>
    <g id="Group_647" data-name="Group 647" transform="translate(2572.442 244.205)">
      <path id="Path_2778" data-name="Path 2778" d="M2742.329,349.186a15.709,15.709,0,1,0,4.608-11.111A15.7,15.7,0,0,0,2742.329,349.186Zm5.6,0a10.112,10.112,0,1,1,5.043,8.746A10.094,10.094,0,0,1,2747.926,349.186Z" transform="translate(-2742.329 -333.48)" fill="#67b4d2"/>
    </g>
    <rect id="Rectangle_284" data-name="Rectangle 284" width="20.048" height="2.492" transform="translate(2581.86 279.194)" fill="#fff"/>
    <rect id="Rectangle_285" data-name="Rectangle 285" width="33.106" height="2.492" transform="translate(2520.551 323.226)" fill="#fff"/>
    <path id="Path_2779" data-name="Path 2779" d="M2873.7,453.6V426.585s-9.515,2.378-12.062,10.874-11.383,12.063-15.97,9.344-4.325-10.024-10.4-12.572-9.815,3.738-16.951,10.7-16.65,8.325-24.126,2.038-14.7-7.985-20.345-2.208-8.2,6.286-14.654,5.1-10.633,3.738-10.633,3.738Z" transform="translate(-172.376 -126.493)" fill="#b2e5e0"/>
    <path id="Path_2780" data-name="Path 2780" d="M2723.049,462.814h0a2.634,2.634,0,0,1,2.633,2.634h0a2.633,2.633,0,0,1-2.633,2.633h0a2.634,2.634,0,0,1-2.634-2.633h0A2.634,2.634,0,0,1,2723.049,462.814Z" transform="translate(-161.127 -140.975)" fill="#fff"/>
    <rect id="Rectangle_286" data-name="Rectangle 286" width="114.247" height="2.492" transform="translate(2576.178 334.44)" fill="#fff"/>
    <path id="Path_2781" data-name="Path 2781" d="M2950.9,481.5h0a2.634,2.634,0,0,1,2.634,2.633h0a2.634,2.634,0,0,1-2.634,2.634h0a2.634,2.634,0,0,1-2.634-2.634h0A2.634,2.634,0,0,1,2950.9,481.5Z" transform="translate(-252.209 -148.443)" fill="#fff"/>
    <line id="Line_6" data-name="Line 6" x1="50.816" transform="translate(2502.319 239.268)" fill="#3fb8a9"/>
    <rect id="Rectangle_287" data-name="Rectangle 287" width="56.067" height="76.285" rx="4.373" transform="translate(2503.57 236.115)" fill="#b2e5e0"/>
    <rect id="Rectangle_288" data-name="Rectangle 288" width="56.067" height="76.285" rx="4.373" transform="translate(2499.694 239.268)" fill="#3fb8a9"/>
    <circle id="Ellipse_58" data-name="Ellipse 58" cx="8.229" cy="8.229" r="8.229" transform="translate(2531.603 246.316)" fill="#fff"/>
    <g id="Group_655" data-name="Group 655" transform="translate(2505.697 249.731)">
      <g id="Group_648" data-name="Group 648" transform="translate(0 48.931)">
        <rect id="Rectangle_289" data-name="Rectangle 289" width="42.248" height="2.01" fill="#fff"/>
      </g>
      <g id="Group_649" data-name="Group 649" transform="translate(0 40.776)">
        <rect id="Rectangle_290" data-name="Rectangle 290" width="42.248" height="2.01" fill="#fff"/>
      </g>
      <g id="Group_650" data-name="Group 650" transform="translate(0 32.621)">
        <rect id="Rectangle_291" data-name="Rectangle 291" width="42.248" height="2.01" fill="#fff"/>
      </g>
      <g id="Group_651" data-name="Group 651" transform="translate(0 24.465)">
        <rect id="Rectangle_292" data-name="Rectangle 292" width="42.248" height="2.01" fill="#fff"/>
      </g>
      <g id="Group_652" data-name="Group 652" transform="translate(0 16.31)">
        <rect id="Rectangle_293" data-name="Rectangle 293" width="42.248" height="2.01" fill="#fff"/>
      </g>
      <g id="Group_653" data-name="Group 653" transform="translate(0 8.155)">
        <rect id="Rectangle_294" data-name="Rectangle 294" width="18.462" height="2.01" fill="#fff"/>
      </g>
      <g id="Group_654" data-name="Group 654" transform="translate(0 0)">
        <rect id="Rectangle_295" data-name="Rectangle 295" width="18.462" height="2.01" fill="#fff"/>
      </g>
    </g>
    <path id="Path_2782" data-name="Path 2782" d="M2714.182,224.214h-74.659s4.418-8.675,14.612-4.338c0,0,5.55-9.967,16.877-4.078,0,0,4.361-11.1,16.594-9.573a15.95,15.95,0,0,1,13.931,11.725S2712.952,217.452,2714.182,224.214Z" transform="translate(-128.791 -38.348)" fill="#edf6f5"/>
    <path id="Path_2783" data-name="Path 2783" d="M2575.921,295.03h-42.814s2.945-6.569,9.741-3.851c0,0,2.492-6.8,8.382-6s7.022,4.9,7.022,4.9a12.9,12.9,0,0,1,12.459,2.581S2575.7,292.085,2575.921,295.03Z" transform="translate(-86.252 -69.94)" fill="#edf6f5"/>
    <path id="Path_2784" data-name="Path 2784" d="M3034.3,440h-39.756s3.285-6.24,11.78-3.938a10.218,10.218,0,0,1,9.854-6.533,11.406,11.406,0,0,1,10.421,6.533S3033.622,435.75,3034.3,440Z" transform="translate(-270.709 -127.671)" fill="#edf6f5"/>
    <path id="Path_2786" data-name="Path 2786" d="M2655.881,581.21s-.042-25.055,27.394-12.867c0,0,6.029-21.569,21.829-20.55s17.329,21.429,17.329,21.429,21.639-11,33.245,11.308Z" transform="translate(-135.33 -174.931)" fill="#adccc7"/>
    <path id="Path_2787" data-name="Path 2787" d="M2965.619,592.858l.507-1.836a20.332,20.332,0,0,0-2.98-17.357l-.8.634a19.657,19.657,0,0,1,3.152,14.935c-1.382-2.724-5.432-8.192-15.81-8.712l-.051,1.018c13.067.654,15.48,9.385,15.5,9.473Z" transform="translate(-252.758 -185.287)" fill="#f2baab"/>
    <circle id="Ellipse_59" data-name="Ellipse 59" cx="2.417" cy="2.417" r="2.417" transform="translate(2691.77 393.497)" fill="#f2baab"/>
    <path id="Path_2788" data-name="Path 2788" d="M2986.873,584.611a2.417,2.417,0,1,0,2.417-2.417A2.417,2.417,0,0,0,2986.873,584.611Z" transform="translate(-267.642 -188.697)" fill="#f2baab"/>
    <path id="Path_2789" data-name="Path 2789" d="M2966.012,569.408a2.417,2.417,0,1,0,2.417-2.417A2.417,2.417,0,0,0,2966.012,569.408Z" transform="translate(-259.303 -182.62)" fill="#f2baab"/>
    <path id="Path_2790" data-name="Path 2790" d="M2691.182,596.43c-1.183-4.515-6.651-8.344-6.706-8.383l.58-.838c.238.164,5.834,4.079,7.113,8.962Z" transform="translate(-146.761 -190.701)" fill="#f2baab"/>
    <path id="Path_2791" data-name="Path 2791" d="M2637.282,418.828a30.256,30.256,0,0,0,3.328-1.469c1.858-.951,3.977-.908,5.317-1.686s1.124,1.47-.821,2.075-1.21,1.729-.3,1.772a33.546,33.546,0,0,0,5.922,0c1.686-.3,1.34.735,1.21.951a5.452,5.452,0,0,1-1.686,2.118c-1.081.735-4.452.864-4.452.864s3.069.389,3.285.389.605,1.037-.821,1.124a38.948,38.948,0,0,1-7.133-1.124,13.346,13.346,0,0,0-2.636-.389Z" transform="translate(-127.895 -122.066)" fill="#e9928b"/>
    <path id="Path_2792" data-name="Path 2792" d="M2633.106,419.28c.173,0,2.853-.691,2.853-.691l1.6,6.31-3.588,1.081Z" transform="translate(-126.226 -123.297)" fill="#93405e"/>
    <path id="Path_2793" data-name="Path 2793" d="M2578.492,386.126c5.654,2.192,13.371,20.172,14.984,20.748s16.6-1.383,16.6-1.383l1.268,7.377s-15.1,5.764-22.016,4.265-14.293-16.137-15.791-22.707S2576.98,385.54,2578.492,386.126Z" transform="translate(-102.301 -110.285)" fill="#67a4c3"/>
    <path id="Path_2794" data-name="Path 2794" d="M2588.951,350.324s5.014,11.152,2.507,14.177-9.941-3.545-9.941-3.545-3.1.795-4.063-1.9c-.432-1.211.691-2.748,2.68-1.244s3.025-1.263,2.247-3.6.346-3.2,2.853-3.285A11.335,11.335,0,0,0,2588.951,350.324Z" transform="translate(-103.942 -96.008)" fill="#e9928b"/>
    <path id="Path_2795" data-name="Path 2795" d="M2601.75,535.478c.015-.287,1.466-28.792.869-34.859s-7.152-34.82-7.218-35.11l-.542.124c.065.289,6.613,29.012,7.207,35.041s-.856,34.489-.871,34.776Z" transform="translate(-110.937 -142.053)" fill="#1b5175"/>
    <path id="Path_2796" data-name="Path 2796" d="M2813.02,223.981l13.82,2.047a.9.9,0,0,1,.741.667l2.957,11.5-15.03-2.227-2.95-11.468A.415.415,0,0,1,2813.02,223.981Z" transform="translate(-197.955 -45.501)" fill="#b2d3e4"/>
    <path id="Path_2797" data-name="Path 2797" d="M2823.344,234.736a2.884,2.884,0,0,0,2.286,1.514c.836,0,1.169-.678.742-1.514a2.882,2.882,0,0,0-2.285-1.514C2823.251,233.222,2822.919,233.9,2823.344,234.736Z" transform="translate(-202.199 -49.197)" fill="#fff"/>
    <path id="Path_2798" data-name="Path 2798" d="M2880.586,183.4c5.458.669,7.08,6.646,6.967,11.4s0,11.157,1.189,14.045c0,0-3.795,3.4-7.7.906a11.5,11.5,0,0,0-7.158-2.038s2.231-3.342,2.571-12.006S2877.187,182.981,2880.586,183.4Z" transform="translate(-222.475 -29.269)" fill="#7dc4be"/>
    <path id="Path_2799" data-name="Path 2799" d="M2855.907,163.581s-2.208,6.626-5.1,6.2-6.5-9.769-6.5-9.769a2.944,2.944,0,0,1,.594-2.039,4.6,4.6,0,0,0,.68-2.591,4.317,4.317,0,0,0,3.339,1.571c2.31.085,3.7,2.719,4.915,2.081a1.548,1.548,0,0,1,1.643-1.189c1.4.043,2.208,2.038,2.124,3.78A2.015,2.015,0,0,1,2855.907,163.581Z" transform="translate(-210.651 -18.082)" fill="#ffac95"/>
    <path id="Path_2800" data-name="Path 2800" d="M2901.156,349.186h5.6a10.109,10.109,0,0,1,10.109-10.109c.116,0,.228,0,.339.01v-5.6c-.111-.007-.224-.007-.339-.007A15.7,15.7,0,0,0,2901.156,349.186Z" transform="translate(-233.378 -89.275)" fill="#fff"/>
    <path id="Path_2801" data-name="Path 2801" d="M2901.156,359.645a15.683,15.683,0,0,0,7.217,13.215l3.109-4.655a10.107,10.107,0,0,1-4.73-8.56Z" transform="translate(-233.378 -99.734)" fill="#ffc945"/>
    <path id="Path_2802" data-name="Path 2802" d="M2824.27,342.818l5.121,2.266a9.811,9.811,0,0,1,.594-1.145,10.106,10.106,0,0,1,8.645-4.863v-5.6a15.7,15.7,0,0,0-14.122,8.825C2824.426,342.475,2824.344,342.645,2824.27,342.818Z" transform="translate(-202.643 -89.275)" fill="#ffc945"/>
    <path id="Path_2803" data-name="Path 2803" d="M2742.329,352.245a15.7,15.7,0,0,0,7.832,13.6l2.807-4.849a10.11,10.11,0,0,1-2.076-15.9l-3.955-3.955A15.64,15.64,0,0,0,2742.329,352.245Z" transform="translate(-169.887 -92.334)" fill="#fff"/>
    <path id="Path_2804" data-name="Path 2804" d="M2755.377,374.494a15.715,15.715,0,0,0,23.3-10.659l-5.5-1.053a10.107,10.107,0,0,1-15,6.864Z" transform="translate(-175.103 -100.988)" fill="#ffc945"/>
    <g id="Group_656" data-name="Group 656" transform="translate(2576.178 297.334)" opacity="0.38">
      <path id="Path_2805" data-name="Path 2805" d="M2873.7,451.762H2748.554s2.648-14.951,12.332-14.951,7.3,13.18,19.791,9.818,13.849-23.58,27.271-24.6,16.65,17.84,23.616,17.84,8.325-7.844,17.16-8.339,8.326,12.417,14.781,13.1S2873.869,449.383,2873.7,451.762Z" transform="translate(-2748.554 -421.99)" fill="#3fb8a9"/>
    </g>
    <path id="Path_2806" data-name="Path 2806" d="M3046.2,537.387c.031-.274,3.175-27.449,3.511-30.7.333-3.222,10.366-37.533,10.467-37.88l-.533-.156c-.415,1.415-10.149,34.706-10.487,37.979-.335,3.245-3.479,30.417-3.511,30.692Z" transform="translate(-291.136 -143.309)" fill="#408c91"/>
    <path id="Path_2807" data-name="Path 2807" d="M3044.419,593.81l.1-.157a14.693,14.693,0,0,0-3.5-1.66l-.038.181A14.831,14.831,0,0,1,3044.419,593.81Z" transform="translate(-289.274 -192.614)" fill="#fff"/>
    <path id="Path_2808" data-name="Path 2808" d="M3041.4,595.705l.151-.109a7.888,7.888,0,0,0-2.456-2.22l-.078.168A7.854,7.854,0,0,1,3041.4,595.705Z" transform="translate(-288.484 -193.167)" fill="#fff"/>
    <path id="Path_2809" data-name="Path 2809" d="M3038.115,596.9l.173-.066a9.8,9.8,0,0,0-1.258-2.255l-.145.116A9.62,9.62,0,0,1,3038.115,596.9Z" transform="translate(-287.634 -193.648)" fill="#fff"/>
    <path id="Path_2810" data-name="Path 2810" d="M3107.818,593.15l.073-.17a11.688,11.688,0,0,0-1.948-.594l-.038.181A11.5,11.5,0,0,1,3107.818,593.15Z" transform="translate(-315.225 -192.771)" fill="#fff"/>
    <path id="Path_2811" data-name="Path 2811" d="M3106.209,594.894l.065-.173a17.86,17.86,0,0,1-1.657-.716l-.091.162A17.588,17.588,0,0,0,3106.209,594.894Z" transform="translate(-314.674 -193.418)" fill="#fff"/>
    <rect id="Rectangle_296" data-name="Rectangle 296" width="0.185" height="1.179" transform="matrix(0.607, -0.795, 0.795, 0.607, 2788.522, 401.463)" fill="#fff"/>
    <path id="Path_2812" data-name="Path 2812" d="M3100.54,370.259s-.14,3.31-4.254,5.329l.539-2.6Z" transform="translate(-311.379 -103.977)" fill="#de6667"/>
    <path id="Path_2813" data-name="Path 2813" d="M3031.384,341.692s4.193,16.874,7.476,23.671c2.46,5.087,10.69,9.919,14.914,13.5,1.42,1.2,2.388,2.267,2.531,3.15s-3.625,20.164-4.417,23.334-2.154,7.928-4.985,9.742a60.622,60.622,0,0,0,5.957,1.842,29.148,29.148,0,0,0,9.562,1.1,123.913,123.913,0,0,1,17.1-.679l2.718.227s-.112-13.592,1.927-22.086,4.978-17.442,3.619-20.956-7.177-6.738-9.963-7.136c-5.729-.812-11.553-1.471-17.442-1.811s-14.839-8.043-16.2-9.966-7.024-15.746-7.024-15.746Z" transform="translate(-285.435 -91.832)" fill="#ffab40"/>
    <path id="Path_2814" data-name="Path 2814" d="M3057.237,441.05a60.621,60.621,0,0,0,5.957,1.842c.591-2.334,1.872-5.318,4.624-6.487,4.808-2.038,1.992-5.776-.645-10.533s3.539-10.865,2.92-13c-1.208-4.163-5.985-8.05-5.985-8.05,1.42,1.2,2.388,2.267,2.531,3.15s-3.625,20.164-4.417,23.334S3060.068,439.236,3057.237,441.05Z" transform="translate(-295.77 -117.794)" fill="#f5911f"/>
    <path id="Path_2815" data-name="Path 2815" d="M2732.772,586.7l.55-.077a32.548,32.548,0,0,1,5.284-22.546l-.442-.338A33.159,33.159,0,0,0,2732.772,586.7Z" transform="translate(-165.944 -181.319)" fill="#6eab9c"/>
    <path id="Path_2816" data-name="Path 2816" d="M2727.429,578.743l.449-.328c-.065-.088-6.488-8.923-7.587-14.484l-.546.107C2720.868,569.719,2727.161,578.377,2727.429,578.743Z" transform="translate(-160.859 -181.396)" fill="#6eab9c"/>
    <path id="Path_2817" data-name="Path 2817" d="M2933.412,591.738c-4.982-.312-9.4-6.219-9.582-6.471l.447-.33c.044.059,4.447,5.95,9.17,6.246Z" transform="translate(-242.441 -189.793)" fill="#6eab9c"/>
    <path id="Path_2818" data-name="Path 2818" d="M2966.9,596.961l.748-.536c.086-.062,8.756-6.207,18.038-6.639l.025.555c-7.489.349-14.591,4.5-16.932,6l9.25-.322.019.556Z" transform="translate(-259.657 -191.732)" fill="#6eab9c"/>
    <path id="Path_2819" data-name="Path 2819" d="M2691.411,590.341l.526-.181a34.162,34.162,0,0,0-4.561-8.249l-.44.339A33.559,33.559,0,0,1,2691.411,590.341Z" transform="translate(-147.744 -188.584)" fill="#6eab9c"/>
    <path id="Path_2820" data-name="Path 2820" d="M2896.263,595.658c-.067-.056-6.814-5.722-14.34-8.362l.184-.525c7.626,2.675,14.447,8.4,14.515,8.462Z" transform="translate(-225.689 -190.527)" fill="#6eab9c"/>
    <path id="Path_2821" data-name="Path 2821" d="M2876.341,596.868l-.254-.495c.2-.1,4.925-2.469,13.638-1.257l-.077.55C2881.126,594.481,2876.388,596.844,2876.341,596.868Z" transform="translate(-223.356 -193.725)" fill="#6eab9c"/>
    <path id="Path_2822" data-name="Path 2822" d="M2531.514,594.551a19.513,19.513,0,0,0-9.87-11.745l.226-.508a20.122,20.122,0,0,1,10.18,12.1Z" transform="translate(-81.67 -188.738)" fill="#6eab9c"/>
    <path id="Path_2823" data-name="Path 2823" d="M2534.816,586.655l-.484-.274c2.733-4.842,1.576-11.255,1.564-11.319l.546-.1C2536.494,575.23,2537.65,581.633,2534.816,586.655Z" transform="translate(-86.742 -185.805)" fill="#6eab9c"/>
    <path id="Path_2824" data-name="Path 2824" d="M2529.634,598.177c-5.114-2.789-11.115-1.251-11.175-1.235l-.142-.538c.254-.067,6.277-1.61,11.584,1.285Z" transform="translate(-80.34 -194.189)" fill="#6eab9c"/>
    <path id="Path_2825" data-name="Path 2825" d="M3085.73,583.687l.471-.3a27.962,27.962,0,0,1-1.857-3.835c-1.8-4.391-4.15-11.764-3.825-25.034l-.556-.014c-.328,13.375,2.049,20.821,3.866,25.259A27.925,27.925,0,0,0,3085.73,583.687Z" transform="translate(-304.842 -177.63)" fill="#6eab9c"/>
    <path id="Path_2826" data-name="Path 2826" d="M2584.713,595.458l-.337-.442c6.948-5.3,16.6-5.821,16.7-5.826l.027.556C2601.008,589.75,2591.521,590.27,2584.713,595.458Z" transform="translate(-106.746 -191.493)" fill="#6eab9c"/>
    <path id="Path_2827" data-name="Path 2827" d="M3076.846,575.2l.535-.151c-.649-2.3-7.6-10.957-7.9-11.324l-.433.349C3069.119,564.167,3076.228,573.012,3076.846,575.2Z" transform="translate(-300.491 -181.315)" fill="#6eab9c"/>
    <path id="Path_2828" data-name="Path 2828" d="M3085.293,581.576c2.169-3.353,5.517-11.94,5.659-12.3l-.519-.2c-.034.089-3.468,8.9-5.607,12.2Z" transform="translate(-306.798 -183.451)" fill="#6eab9c"/>
    <path id="Path_2829" data-name="Path 2829" d="M2527.1,551.519a.277.277,0,0,1-.188-.073c-4.175-3.826-14.872-3.624-14.979-3.62a.274.274,0,0,1-.285-.271.278.278,0,0,1,.271-.284c.449-.011,11.028-.212,15.368,3.766a.278.278,0,0,1-.188.483Z" transform="translate(-77.675 -174.734)" fill="#f5b89b"/>
    <path id="Path_2830" data-name="Path 2830" d="M2531.5,540.214a.278.278,0,0,1-.263-.187c-1.151-3.349-.056-8.82-.009-9.051a.278.278,0,1,1,.544.111c-.01.055-1.111,5.554-.009,8.758a.278.278,0,0,1-.173.354A.283.283,0,0,1,2531.5,540.214Z" transform="translate(-85.293 -168.134)" fill="#f5b89b"/>
    <path id="Path_2831" data-name="Path 2831" d="M2516.643,569.239" transform="translate(-79.671 -183.518)" fill="none" stroke="#f5b89b" stroke-linecap="round" stroke-width="3"/>
    <rect id="Rectangle_297" data-name="Rectangle 297" width="31.261" height="1.529" transform="translate(2586.132 137.669)" fill="#fff"/>
    <rect id="Rectangle_298" data-name="Rectangle 298" width="31.261" height="1.529" transform="translate(2586.132 141.916)" fill="#fff"/>
    <rect id="Rectangle_299" data-name="Rectangle 299" width="15.343" height="6.393" transform="translate(2743.714 211.937)" fill="#8fb9cf"/>
    <rect id="Rectangle_300" data-name="Rectangle 300" width="10.229" height="4.262" transform="matrix(0.745, -0.668, 0.668, 0.745, 2722.639, 226.428)" fill="#8fb9cf"/>
    <rect id="Rectangle_301" data-name="Rectangle 301" width="4.262" height="10.229" transform="matrix(0.668, -0.745, 0.745, 0.668, 2769.732, 222.773)" fill="#8fb9cf"/>
  </g>
</svg>
