<svg xmlns="http://www.w3.org/2000/svg" width="401.402" height="287.364" viewBox="0 0 401.402 287.364">
  <g id="Group_928" data-name="Group 928" transform="translate(-1473.983 -803.197)">
    <path id="Path_304" data-name="Path 304" d="M1556.718,1082.471s-5.385-9.2-17.217-6.39c-7.479,1.774-10.554-9.179-16.749-11.588-11.358-4.417-17.948,17.562-30.485,11.42-8.289-4.061-18.283,6.557-18.283,6.557Z" transform="translate(0 -92.265)" fill="#f0ebf7" opacity="0.52"/>
    <g id="Group_73" data-name="Group 73" transform="translate(1779.171 1036.159)">
      <path id="Path_450" data-name="Path 450" d="M1946.341,1203.161s5.383-22.01,26-30.973,35.031-6.353,37.841-8.2.3,8.452-.759,12.461-3.448,17.841-14.841,29.21-37.937,5.933-37.937,5.933Z" transform="translate(-1946.341 -1163.766)" fill="#f0ebf7"/>
      <path id="Path_451" data-name="Path 451" d="M1966.151,1196.11a.3.3,0,0,1-.149-.087.3.3,0,0,1,.012-.423,115.044,115.044,0,0,1,22.2-15.731,137.726,137.726,0,0,1,16.751-7.192c4.624-1.721,7.965-2.965,9.219-4.342a.3.3,0,1,1,.443.4c-1.351,1.485-4.749,2.75-9.452,4.5a137.294,137.294,0,0,0-16.681,7.161,114.462,114.462,0,0,0-22.067,15.637A.3.3,0,0,1,1966.151,1196.11Z" transform="translate(-1953.27 -1165.349)" fill="#cbc0e0"/>
      <path id="Path_452" data-name="Path 452" d="M2000.493,1199.319a78.834,78.834,0,0,1-13.554-4.533.3.3,0,1,1,.252-.543c.133.062,13.465,6.185,25.212,5.883a.3.3,0,1,1,.016.6A48.21,48.21,0,0,1,2000.493,1199.319Z" transform="translate(-1960.647 -1174.542)" fill="#cbc0e0"/>
      <path id="Path_453" data-name="Path 453" d="M2020.25,1183.479a67.128,67.128,0,0,1-7.829-2.406.3.3,0,0,1,.214-.559c.085.033,8.556,3.261,13.421,3.137a.3.3,0,0,1,.016.6A24.515,24.515,0,0,1,2020.25,1183.479Z" transform="translate(-1969.659 -1169.686)" fill="#cbc0e0"/>
      <path id="Path_454" data-name="Path 454" d="M1987.1,1215c-6.592-1.537-17.216-6.6-17.753-6.86a.3.3,0,1,1,.258-.54c.157.075,15.786,7.528,20.876,7.231a.3.3,0,0,1,.034.6A12.816,12.816,0,0,1,1987.1,1215Z" transform="translate(-1954.422 -1179.269)" fill="#cbc0e0"/>
      <path id="Path_455" data-name="Path 455" d="M1975.724,1195.613a.3.3,0,0,1-.231-.287c0-.076-.076-7.583,3.173-13.6a.3.3,0,1,1,.527.284c-3.174,5.881-3.1,13.237-3.1,13.311a.3.3,0,0,1-.3.3A.33.33,0,0,1,1975.724,1195.613Z" transform="translate(-1956.658 -1170.065)" fill="#cbc0e0"/>
      <path id="Path_456" data-name="Path 456" d="M1997.249,1182.9h-.005a.3.3,0,0,1-.218-.363c.067-.268,1.665-6.581,4.207-10.308a.3.3,0,1,1,.494.336c-2.482,3.641-4.1,10.052-4.12,10.117A.3.3,0,0,1,1997.249,1182.9Z" transform="translate(-1964.275 -1166.715)" fill="#cbc0e0"/>
    </g>
    <path id="Path_457" data-name="Path 457" d="M1531.981,1224.949s7.813-22.606,30.749-15.654c0,0,.074-18.783,20.017-21.629,22.139-3.161,28.833,17.452,28.833,17.452s28.322-3.316,28.322,19.832Z" transform="translate(-20.526 -135.949)" fill="#d6ece0"/>
    <path id="Path_458" data-name="Path 458" d="M1862,959.442l8.518-1.43s4.942-5.592,18.6,13.72,19.507,38.364,12.29,42.005-27.7,1.106-27.7,1.106Z" transform="translate(-137.32 -54.524)" fill="#fbd163"/>
    <path id="Path_459" data-name="Path 459" d="M1882.9,985.144c4.682,5.234,9.363,6.029,16.386,17.336s-10.149,7.015-10.149,7.015-10.529-8.061-10.529-9.687S1882.9,985.144,1882.9,985.144Z" transform="translate(-143.197 -64.392)" fill="#edbf47"/>
    <path id="Path_460" data-name="Path 460" d="M1953.79,1223.474s.054-32.212-35.219-16.543c0,0-7.751-27.73-28.064-26.42s-22.279,27.55-22.279,27.55-27.819-14.141-42.74,14.538Z" transform="translate(-124.399 -133.518)" fill="#d6ece0"/>
    <g id="Group_74" data-name="Group 74" transform="translate(1716.331 1059.715)">
      <path id="Path_461" data-name="Path 461" d="M1921.048,1229.745l-.708-.1a41.844,41.844,0,0,0-6.793-28.986l.568-.434A42.635,42.635,0,0,1,1921.048,1229.745Z" transform="translate(-1871.895 -1200.226)" fill="#93deb4"/>
      <path id="Path_462" data-name="Path 462" d="M1925.355,1219.5l-.577-.422c.083-.114,8.342-11.473,9.755-18.622l.7.138C1933.791,1207.9,1925.7,1219.028,1925.355,1219.5Z" transform="translate(-1875.87 -1200.307)" fill="#93deb4"/>
      <path id="Path_463" data-name="Path 463" d="M1918.424,1234.29c-6.405-.4-12.08-8-12.318-8.319l.575-.424c.056.076,5.717,7.65,11.788,8.03Z" transform="translate(-1869.262 -1209.187)" fill="#93deb4"/>
      <path id="Path_464" data-name="Path 464" d="M1957.547,1240.563l.961-.689c.111-.079,11.258-7.98,23.19-8.536l.033.714c-9.628.449-18.759,5.781-21.769,7.711l11.893-.415.025.715Z" transform="translate(-1887.467 -1211.237)" fill="#93deb4"/>
      <path id="Path_465" data-name="Path 465" d="M1970.875,1232.77l-.677-.231a43.921,43.921,0,0,1,5.863-10.606l.567.437A43.126,43.126,0,0,0,1970.875,1232.77Z" transform="translate(-1891.944 -1207.908)" fill="#93deb4"/>
      <path id="Path_466" data-name="Path 466" d="M1874.487,1239.163c-.087-.073-8.76-7.356-18.436-10.75l.236-.675c9.8,3.439,18.573,10.805,18.661,10.88Z" transform="translate(-1851.547 -1209.963)" fill="#93deb4"/>
      <path id="Path_467" data-name="Path 467" d="M1849.407,1239.989l-.327-.636c.253-.13,6.331-3.175,17.534-1.616l-.1.708C1855.558,1236.92,1849.467,1239.957,1849.407,1239.989Z" transform="translate(-1849.08 -1213.344)" fill="#93deb4"/>
    </g>
    <g id="Group_75" data-name="Group 75" transform="translate(1572.429 1070.519)">
      <path id="Path_468" data-name="Path 468" d="M1626.66,1236.8l-.306-.5a34.191,34.191,0,0,0,14.727-19.358l.569.132A34.833,34.833,0,0,1,1626.66,1236.8Z" transform="translate(-1626.354 -1216.947)" fill="#93deb4"/>
      <path id="Path_469" data-name="Path 469" d="M1637.146,1237.428l-.034-.583c.115-.007,11.567-.713,16.806-3.542l.278.514C1648.842,1236.707,1637.622,1237.4,1637.146,1237.428Z" transform="translate(-1630.161 -1222.735)" fill="#93deb4"/>
      <path id="Path_470" data-name="Path 470" d="M1630.166,1237.51c-3.079-4.244-1.246-11.77-1.167-12.088l.567.142c-.019.075-1.845,7.581,1.073,11.6Z" transform="translate(-1627.073 -1219.946)" fill="#93deb4"/>
    </g>
    <rect id="Rectangle_56" data-name="Rectangle 56" width="76.598" height="49.102" rx="2.775" transform="translate(1663.88 951.02) rotate(180)" fill="#24292f"/>
    <rect id="Rectangle_57" data-name="Rectangle 57" width="17.166" height="15.183" transform="translate(1634.165 959.213) rotate(180)" fill="#24292f"/>
    <rect id="Rectangle_58" data-name="Rectangle 58" width="45.201" height="72.696" transform="translate(1661.93 903.869) rotate(90)" fill="#fff"/>
    <path id="Path_471" data-name="Path 471" d="M1798.443,908.068s.141.753.409,1.968c.889,4.034,3.173,13.161,6.321,16.759a9.4,9.4,0,0,0,7.544,3.186,3.373,3.373,0,0,1,3.317,2.44l2.794,9.59,15.9-4.823-5.131-11.375-1.888-4.187-7.218-19.409h-17.751Z" transform="translate(-114.828 -35.043)" fill="#f6a49d"/>
    <path id="Path_472" data-name="Path 472" d="M1705.067,1034.156s-8.973.585-13.167,2.243-8.193,4.552-6.827,4.552h18.239Z" transform="translate(-74.609 -81.738)" fill="#f6a49d"/>
    <g id="Group_76" data-name="Group 76" transform="translate(1541.087 1075.204)">
      <path id="Path_473" data-name="Path 473" d="M1602.029,1242.829l-.961-.689c-.111-.08-11.258-7.981-23.19-8.536l-.033.714c9.628.449,18.759,5.781,21.769,7.711l-11.893-.414-.024.714Z" transform="translate(-1577.844 -1227.527)" fill="#93deb4"/>
      <path id="Path_474" data-name="Path 474" d="M1598.426,1235.037l.676-.232a43.936,43.936,0,0,0-5.863-10.606l-.567.437A43.116,43.116,0,0,1,1598.426,1235.037Z" transform="translate(-1583.092 -1224.199)" fill="#93deb4"/>
    </g>
    <path id="Path_475" data-name="Path 475" d="M1717.063,1199.779s-4.942,7.657-4.682,12.433,2.055,8.114,1.157,12.926H1673.5s3.8-6.023,10.7-7.844,12.453.821,21.036-22.457C1711.929,1176.666,1717.063,1199.779,1717.063,1199.779Z" transform="translate(-70.609 -136.138)" fill="#24292f"/>
    <path id="Path_476" data-name="Path 476" d="M1715.565,1164.52l17.167,7.28s.807-1.569,2.2-4.061c3.609-6.488,11.15-19.246,18.61-26.912,10.327-10.611,20.287-38.234,20.287-38.234l-19.807-1.264-4.639-.3-1.545,2.9-10.932,20.525Z" transform="translate(-85.497 -105.405)" fill="#745faa"/>
    <path id="Path_477" data-name="Path 477" d="M1757.631,1104.093l6.184-2.6,19.807,1.264s-9.96,27.622-20.287,38.234c-7.46,7.667-15,20.424-18.61,26.912a29.771,29.771,0,0,0-.9-3.766c-3.121-10.144,7.546-13.264,4.163-27.555a43.673,43.673,0,0,1-1.291-11.962Z" transform="translate(-95.294 -105.568)" fill="#574780"/>
    <path id="Path_478" data-name="Path 478" d="M2045.418,964.015s-5.922-10.113-18.934-7.027c-8.226,1.951-11.606-10.094-18.419-12.744-12.49-4.857-19.738,19.314-33.525,12.559-9.117-4.466-20.107,7.211-20.107,7.211Z" transform="translate(-170.033 -49.688)" fill="#f0ebf7" opacity="0.52"/>
    <path id="Path_479" data-name="Path 479" d="M1837.452,828.9s-3.155-.943-7.464-7.408-11.432,2.329-16.942-8.239-9.174-13.842-18.721-4.793-15.612,12.414-23.059,6.9-11.724,2.7-18.354,8.122-13,2.218-15.451,5.419Z" transform="translate(-93.246)" fill="#f0ebf7" opacity="0.52"/>
    <rect id="Rectangle_59" data-name="Rectangle 59" width="214.578" height="7.803" transform="translate(1786.125 967.016) rotate(180)" fill="#7dd0e2"/>
    <rect id="Rectangle_60" data-name="Rectangle 60" width="214.578" height="1.991" transform="translate(1786.125 969.052) rotate(180)" fill="#a7adbf"/>
    <rect id="Rectangle_61" data-name="Rectangle 61" width="67.885" height="7.803" transform="translate(1639.432 967.016) rotate(180)" fill="#c2e7f0"/>
    <rect id="Rectangle_62" data-name="Rectangle 62" width="318.375" height="1.561" transform="translate(1816.909 1090.561) rotate(180)" fill="#3a3e49"/>
    <path id="Path_480" data-name="Path 480" d="M1790.439,1204.313s.143,8.921,3.154,15.475a45.56,45.56,0,0,1,3.089,10.274h-40.055a14.055,14.055,0,0,1,9.385-6.657c9.331-2,14.544-8.688,12.333-17.271S1790.439,1204.313,1790.439,1204.313Z" transform="translate(-100.029 -141.061)" fill="#24292f"/>
    <path id="Path_481" data-name="Path 481" d="M1748.679,1100.272l25.23,61.9h16.905s-5.719-15.606-7.022-28.871-9.883-37.325-9.883-37.325,6.055-.3,14.509-.69c15.77-.734,39.889-1.779,48.694-1.779,4.3,0,6.844-2.579,8.306-6.1,3.133-7.542,1.319-19.394,1.319-19.394H1799s-30.552,8.326-43.3,13.788S1748.679,1100.272,1748.679,1100.272Z" transform="translate(-96.763 -93.722)" fill="#745faa"/>
    <path id="Path_482" data-name="Path 482" d="M1810.887,1105.569c15.77-.734,39.889-1.779,48.694-1.779,4.3,0,6.843-2.579,8.306-6.1-5.633,3.835-9.532,5.54-13.248,1.464-4.284-4.7-4.43-.4-13.7,2.357-4.584,1.366-12.755,1.632-22.092,1.676C1813.478,1103.216,1811.145,1104.117,1810.887,1105.569Z" transform="translate(-119.232 -104.001)" fill="#574780"/>
    <path id="Path_483" data-name="Path 483" d="M1787.1,1163.944l.355-.16c-.276-.615-27.588-61.606-25.424-68.526,1.408-4.5,18.741-9.206,35.136-11.526,11.9-1.684,13.866-10.77,13.885-10.862l-.382-.078c-.019.089-1.945,8.909-13.558,10.553-16.516,2.338-34,7.139-35.453,11.8C1759.449,1102.2,1785.968,1161.426,1787.1,1163.944Z" transform="translate(-101.763 -95.411)" fill="#fff"/>
    <path id="Path_484" data-name="Path 484" d="M1826.52,1071.143h48.546l-.329-3.121H1826.52Z" transform="translate(-124.764 -93.723)" fill="#24292f"/>
    <path id="Path_485" data-name="Path 485" d="M1847.432,954.27s-1.171-6.763-5.852-7.022-14.565,5.072-15.736,9.753S1847.432,954.27,1847.432,954.27Z" transform="translate(-124.51 -50.977)" fill="#edbf47"/>
    <path id="Path_486" data-name="Path 486" d="M1713.452,1005.4v7.869h36.868s4.8,1,14.139-10.144a.012.012,0,0,1,0-.008,100.537,100.537,0,0,0,6.668-9.016,1.438,1.438,0,0,1,2.61.519c1.038,5.259,3.184,15.122,5.646,20.611a72.214,72.214,0,0,0,7.6,13.121h47.734s2.466-3.527,2.794-12.2a58.9,58.9,0,0,0-.191-7.046c-1.17-13.85-6.437-32.187-7.413-37.844-.394-2.294-1.081-5.033-1.752-7.483a10.316,10.316,0,0,0-9.079-7.565c-9.067-.746-26.171-.543-47.652,7.3a13.786,13.786,0,0,0-5.333,3.508,66.766,66.766,0,0,0-9.726,13.218c-4.877,8.974-11.119,19.7-14.045,20.873S1713.452,1005.4,1713.452,1005.4Z" transform="translate(-84.749 -54.053)" fill="#fbd163"/>
    <path id="Path_487" data-name="Path 487" d="M1792.405,1014.284a100.528,100.528,0,0,0,6.668-9.016,1.438,1.438,0,0,1,2.61.519c1.038,5.259,3.184,15.122,5.646,20.611a72.2,72.2,0,0,0,7.6,13.121h47.734s2.466-3.527,2.794-12.2c-4.561-5.173-16.3.551-25.032-5.224-9.231-6.113-18.594-3.772-20.935-17.037s-6.765-21.719-11.252-15.477-10.339,2.864-11.119,8.97C1796.349,1004.561,1792.522,1013.991,1792.405,1014.284Z" transform="translate(-112.691 -65.22)" fill="#edbf47"/>
    <path id="Path_488" data-name="Path 488" d="M1790.781,899.36a34.778,34.778,0,0,0,3.98,3.726s5.329-1.6,8.157-.425a4.465,4.465,0,0,1,2.08,2.7v0c1.041,2.766,1.069,6.675-.129,7.541-1.755,1.268-6.632,2.341-7.022,4s3.862,9.129,8.1,8.974c7.967-.293,3.706-8,3.024-11.217s-1.658-6.437-.488-8.973,6.047-1.854,6.145,2.731-2.439,3.316-1.073,6.437a11.941,11.941,0,0,0,12.032,4.381,29.055,29.055,0,0,1-.62-6.917c.457-4.133,2.861-7.417-.064-13.66s-9.2-7.018-11.835-5.75c0,0-4-9.656-10.534-9.266s-4.194,5.365-4.194,5.365-7.12-3.706-10.534,1.171C1785.893,892.9,1788.292,896.617,1790.781,899.36Z" transform="translate(-110.818 -28.465)" fill="#3a3e49"/>
    <rect id="Rectangle_63" data-name="Rectangle 63" width="47.761" height="30.617" transform="translate(1619.941 879.067) rotate(180)" fill="#f0ebf7"/>
    <rect id="Rectangle_64" data-name="Rectangle 64" width="36.501" height="17.459" transform="translate(1614.312 875.458) rotate(180)" fill="#cbc0e0"/>
    <rect id="Rectangle_65" data-name="Rectangle 65" width="18.251" height="2.828" transform="translate(1614.312 854.586) rotate(180)" fill="#cbc0e0"/>
    <rect id="Rectangle_66" data-name="Rectangle 66" width="18.402" height="1.853" transform="translate(1612.268 863.266) rotate(180)" fill="#fff"/>
    <rect id="Rectangle_67" data-name="Rectangle 67" width="18.402" height="1.853" transform="translate(1612.268 867.655) rotate(180)" fill="#fff"/>
    <rect id="Rectangle_68" data-name="Rectangle 68" width="10.599" height="1.853" transform="translate(1612.268 872.044) rotate(180)" fill="#fff"/>
    <rect id="Rectangle_69" data-name="Rectangle 69" width="10.599" height="1.853" transform="translate(1591.724 872.044) rotate(180)" fill="#fff"/>
    <path id="Path_489" data-name="Path 489" d="M1643.185,896.423a3.121,3.121,0,1,0,3.121-3.121A3.121,3.121,0,0,0,1643.185,896.423Z" transform="translate(-59.881 -31.889)" fill="#fff"/>
    <g id="Group_77" data-name="Group 77" transform="translate(1624.948 827.996)">
      <rect id="Rectangle_70" data-name="Rectangle 70" width="0.39" height="2.341"/>
      <path id="Path_490" data-name="Path 490" d="M1707.641,890.466h.389v4.741h-.389Zm0-9.481h.389v4.741h-.389Zm0-9.482h.389v4.741h-.389Zm0-9.482h.389v4.741h-.389Zm0-9.482h.389v4.741h-.389Z" transform="translate(-1707.641 -845.458)"/>
      <rect id="Rectangle_71" data-name="Rectangle 71" width="0.39" height="2.341" transform="translate(0 54.49)"/>
    </g>
    <g id="Group_78" data-name="Group 78" transform="translate(1582.488 842.105)">
      <rect id="Rectangle_72" data-name="Rectangle 72" width="2.341" height="0.39" transform="translate(54.49 0)"/>
      <path id="Path_491" data-name="Path 491" d="M1652.883,863.418h4.74v.39h-4.74Zm9.481,0h4.741v.39h-4.741Zm9.482,0h4.741v.39h-4.741Zm9.481,0h4.741v.39h-4.741Zm9.482,0h4.741v.39h-4.741Z" transform="translate(-1645.801 -863.418)"/>
      <rect id="Rectangle_73" data-name="Rectangle 73" width="2.341" height="0.39" transform="translate(0 0)"/>
    </g>
    <rect id="Rectangle_74" data-name="Rectangle 74" width="53.43" height="34.251" transform="translate(1574.509 924.414) rotate(180)" fill="#f0ebf7"/>
    <rect id="Rectangle_75" data-name="Rectangle 75" width="40.834" height="19.531" transform="translate(1568.211 920.377) rotate(180)" fill="#cbc0e0"/>
    <rect id="Rectangle_76" data-name="Rectangle 76" width="20.417" height="3.164" transform="translate(1568.211 897.027) rotate(180)" fill="#cbc0e0"/>
    <rect id="Rectangle_77" data-name="Rectangle 77" width="20.586" height="2.073" transform="translate(1565.925 906.738) rotate(180)" fill="#fff"/>
    <rect id="Rectangle_78" data-name="Rectangle 78" width="20.586" height="2.073" transform="translate(1565.925 911.648) rotate(180)" fill="#fff"/>
    <rect id="Rectangle_79" data-name="Rectangle 79" width="11.857" height="2.073" transform="translate(1565.925 916.558) rotate(180)" fill="#fff"/>
    <rect id="Rectangle_80" data-name="Rectangle 80" width="11.857" height="2.073" transform="translate(1542.943 916.558) rotate(180)" fill="#fff"/>
    <path id="Path_492" data-name="Path 492" d="M1566.136,963.738a3.492,3.492,0,1,0,3.491-3.492A3.492,3.492,0,0,0,1566.136,963.738Z" transform="translate(-32.613 -55.581)" fill="#fff"/>
    <g id="Group_81" data-name="Group 81" transform="translate(1499.298 882.697)">
      <g id="Group_79" data-name="Group 79" transform="translate(15.663)">
        <rect id="Rectangle_81" data-name="Rectangle 81" width="0.39" height="2.341" transform="translate(0 61.236)"/>
        <path id="Path_493" data-name="Path 493" d="M1537.406,982.183h.39v4.53h-.39Zm0-9.06h.39v4.53h-.39Zm0-9.062h.39v4.53h-.39Zm0-9.06h.39v4.53h-.39Zm0-9.061h.39v4.53h-.39Zm0-9.061h.39v4.53h-.39Z" transform="translate(-1537.406 -930.008)"/>
        <rect id="Rectangle_82" data-name="Rectangle 82" width="0.39" height="2.341" transform="translate(0)"/>
      </g>
      <g id="Group_80" data-name="Group 80" transform="translate(0 47.378)">
        <rect id="Rectangle_83" data-name="Rectangle 83" width="2.341" height="0.39" transform="translate(0 0)"/>
        <path id="Path_494" data-name="Path 494" d="M1523.8,999.574h4.531v.39H1523.8Zm9.061,0h4.53v.39h-4.53Zm9.061,0h4.53v.39h-4.53Zm9.06,0h4.531v.39h-4.531Zm9.061,0h4.53v.39h-4.53Zm9.061,0h4.53v.39h-4.53Z" transform="translate(-1516.928 -999.574)"/>
        <rect id="Rectangle_84" data-name="Rectangle 84" width="2.341" height="0.39" transform="translate(61.235 0)"/>
      </g>
    </g>
    <g id="Group_84" data-name="Group 84" transform="translate(1782.736 972.504)">
      <circle id="Ellipse_11" data-name="Ellipse 11" cx="12.025" cy="12.025" r="12.025" fill="#f38ab2"/>
      <g id="Group_83" data-name="Group 83" transform="translate(3.99 8.418)">
        <g id="Group_82" data-name="Group 82">
          <path id="Path_495" data-name="Path 495" d="M1963.112,1085.481a.483.483,0,0,1-.289-.1l-4.789-3.574,4.917-3.442a.483.483,0,1,1,.554.792l-3.822,2.675,3.718,2.774a.484.484,0,0,1-.289.871Z" transform="translate(-1958.034 -1078.275)" fill="#3a3e49"/>
          <path id="Path_496" data-name="Path 496" d="M1974.718,1085.481a.484.484,0,0,1-.289-.871l3.718-2.774-3.822-2.675a.483.483,0,0,1,.554-.792l4.917,3.442-4.79,3.574A.481.481,0,0,1,1974.718,1085.481Z" transform="translate(-1963.726 -1078.275)" fill="#3a3e49"/>
          <path id="Path_497" data-name="Path 497" d="M1968.434,1085.486a.472.472,0,0,1-.145-.022.483.483,0,0,1-.317-.605l1.954-6.246a.483.483,0,1,1,.922.288l-1.954,6.246A.483.483,0,0,1,1968.434,1085.486Z" transform="translate(-1961.544 -1078.272)" fill="#3a3e49"/>
        </g>
      </g>
    </g>
    <g id="Group_87" data-name="Group 87" transform="translate(1595.675 978.083)">
      <circle id="Ellipse_12" data-name="Ellipse 12" cx="10.682" cy="10.682" r="10.682" transform="translate(0 19.738) rotate(-67.5)" fill="#cbc0e0"/>
      <g id="Group_86" data-name="Group 86" transform="translate(9.545 8.677)">
        <g id="Group_85" data-name="Group 85">
          <path id="Path_498" data-name="Path 498" d="M1685.931,1090.147h-.808a7.521,7.521,0,0,0-.33-1.081,2.252,2.252,0,0,0-.388-.66,1.011,1.011,0,0,0-.461-.306,2.27,2.27,0,0,0-.632-.074h-1.028v8.351a4.481,4.481,0,0,0,.045.742,1.38,1.38,0,0,0,.122.4.743.743,0,0,0,.2.24,1.033,1.033,0,0,0,.306.159,4.207,4.207,0,0,0,.432.123v.4h-3.727v-.4a2.762,2.762,0,0,0,.587-.183.749.749,0,0,0,.3-.261,1.236,1.236,0,0,0,.164-.453,4.425,4.425,0,0,0,.053-.766v-8.351h-1.036a1.906,1.906,0,0,0-.673.09,1.16,1.16,0,0,0-.42.3,2.2,2.2,0,0,0-.371.62,7.822,7.822,0,0,0-.354,1.109h-.8v-2.838h8.824Z" transform="translate(-1677.107 -1087.309)" fill="#3a3e49"/>
        </g>
      </g>
    </g>
    <circle id="Ellipse_13" data-name="Ellipse 13" cx="12.701" cy="12.701" r="12.701" transform="translate(1745.056 860.893)" fill="#e5e7e6"/>
    <g id="Group_89" data-name="Group 89" transform="translate(1752.192 867.936)">
      <g id="Group_88" data-name="Group 88">
        <path id="Path_499" data-name="Path 499" d="M1907.6,911.142l4.671,1.971,2.1-2.125-2.027-4.647-6.211-2.944-.525.532,3.377,3.337a.912.912,0,0,1,1,.192.925.925,0,1,1-1.3,1.316.913.913,0,0,1-.2-1l-3.376-3.336-.525.532Z" transform="translate(-1904.584 -903.397)" fill="#3a3e49"/>
        <rect id="Rectangle_85" data-name="Rectangle 85" width="4.736" height="1.622" transform="translate(7.536 10.794) rotate(-45.347)" fill="#3a3e49"/>
      </g>
    </g>
    <path id="Path_500" data-name="Path 500" d="M1907.993,1115.12l.921,5.138,14.162,79.132h1.3l-9.523-79.132-.62-5.138Z" transform="translate(-153.598 -110.391)" fill="#a7adbf"/>
    <path id="Path_501" data-name="Path 501" d="M1816.643,1115.12l.921,5.138,14.166,79.132h1.3l-9.523-79.132-.62-5.138Z" transform="translate(-121.269 -110.391)" fill="#a7adbf"/>
    <path id="Path_502" data-name="Path 502" d="M1778.365,1199.39h1.3l14.166-79.132.921-5.138h-6.242l-.62,5.138Z" transform="translate(-107.722 -110.391)" fill="#a7adbf"/>
    <path id="Path_503" data-name="Path 503" d="M1914.235,1115.12h-6.242l.921,5.138h5.942Z" transform="translate(-153.598 -110.391)" fill="#959bab"/>
    <path id="Path_504" data-name="Path 504" d="M1822.885,1115.12h-6.242l.921,5.138h5.942Z" transform="translate(-121.269 -110.391)" fill="#959bab"/>
    <path id="Path_505" data-name="Path 505" d="M1793.105,1120.258h5.942l.921-5.138h-6.242Z" transform="translate(-112.939 -110.391)" fill="#959bab"/>
    <path id="Path_506" data-name="Path 506" d="M1790.9,1107.473h81.409a2.471,2.471,0,0,1,2.471,2.471h0a2.471,2.471,0,0,1-2.471,2.471H1790.9a2.471,2.471,0,0,1-2.471-2.471h0A2.47,2.47,0,0,1,1790.9,1107.473Z" transform="translate(-111.284 -107.685)" fill="#a7adbf"/>
    <path id="Path_507" data-name="Path 507" d="M1907.993,1073.774h6.242l4.022-35.487,3.223-28.426.23-2.021h-1.3l-.37,1.966-5.365,28.48Z" transform="translate(-153.598 -72.424)" fill="#a7adbf"/>
    <path id="Path_508" data-name="Path 508" d="M1816.643,1073.774h6.242l4.026-35.487,3.23-28.48.222-1.966h-1.3l-.371,1.966-5.364,28.48Z" transform="translate(-121.269 -72.424)" fill="#a7adbf"/>
    <path id="Path_509" data-name="Path 509" d="M1818.469,1035.414h65.851a2.279,2.279,0,0,0,2.266-2.031l2.622-23.922a2.279,2.279,0,0,0-2.266-2.528H1822.73a2.279,2.279,0,0,0-2.244,1.88l-4.26,23.922A2.279,2.279,0,0,0,1818.469,1035.414Z" transform="translate(-121.108 -72.103)" fill="#e5e7e6"/>
    <path id="Path_510" data-name="Path 510" d="M1918.337,1039.365h3.581l3.223-28.426a2.3,2.3,0,0,0-.492-.054h-.948Z" transform="translate(-157.259 -73.502)" fill="#959bab"/>
    <path id="Path_511" data-name="Path 511" d="M1826.993,1039.364h3.581l3.23-28.48h-1.448Z" transform="translate(-124.932 -73.501)" fill="#959bab"/>
    <rect id="Rectangle_86" data-name="Rectangle 86" width="5.238" height="121.984" transform="translate(1576.785 1089) rotate(180)" fill="#a7adbf"/>
    <rect id="Rectangle_87" data-name="Rectangle 87" width="5.238" height="121.984" transform="translate(1786.125 1089) rotate(180)" fill="#a7adbf"/>
    <path id="Path_512" data-name="Path 512" d="M1820.88,1036.318h65.851a2.279,2.279,0,0,0,2.266-2.031l2.622-23.922a2.28,2.28,0,0,0-2.266-2.528H1825.14a2.279,2.279,0,0,0-2.244,1.88l-4.26,23.922A2.279,2.279,0,0,0,1820.88,1036.318Z" transform="translate(-121.962 -72.424)" fill="#a7adbf"/>
    <path id="Path_513" data-name="Path 513" d="M1792.791,907.976a34.787,34.787,0,0,0,3.98,3.726s5.329-1.6,8.158-.425a4.465,4.465,0,0,1,2.08,2.7c.035-.171.858-4.931-9.169-5.774C1796.2,908.062,1794.5,908,1792.791,907.976Z" transform="translate(-112.828 -37.082)" fill="#24292f"/>
    <rect id="Rectangle_88" data-name="Rectangle 88" width="43.503" height="26.79" transform="translate(1636.508 945.298) rotate(180)" fill="#e5e7e6"/>
    <rect id="Rectangle_89" data-name="Rectangle 89" width="43.503" height="2.861" transform="translate(1593.005 918.509)" fill="#a7adbf"/>
    <path id="Path_514" data-name="Path 514" d="M1661.874,983.646a.439.439,0,1,1-.439-.439A.439.439,0,0,1,1661.874,983.646Z" transform="translate(-66.185 -63.707)" fill="#fff"/>
    <circle id="Ellipse_14" data-name="Ellipse 14" cx="0.439" cy="0.439" r="0.439" transform="translate(1596.908 919.5)" fill="#fff"/>
    <circle id="Ellipse_15" data-name="Ellipse 15" cx="0.439" cy="0.439" r="0.439" transform="translate(1599.134 919.5)" fill="#fff"/>
    <g id="Group_95" data-name="Group 95" transform="translate(1612.575 925.132)">
      <g id="Group_90" data-name="Group 90" transform="translate(0 15.606)">
        <rect id="Rectangle_90" data-name="Rectangle 90" width="20.384" height="0.657" fill="#fff"/>
      </g>
      <g id="Group_91" data-name="Group 91" transform="translate(0 11.704)">
        <rect id="Rectangle_91" data-name="Rectangle 91" width="20.384" height="0.657" fill="#fff"/>
      </g>
      <g id="Group_92" data-name="Group 92" transform="translate(0 7.803)">
        <rect id="Rectangle_92" data-name="Rectangle 92" width="20.384" height="0.657" fill="#fff"/>
      </g>
      <g id="Group_93" data-name="Group 93" transform="translate(0 3.901)">
        <rect id="Rectangle_93" data-name="Rectangle 93" width="20.384" height="0.657" fill="#fff"/>
      </g>
      <g id="Group_94" data-name="Group 94">
        <rect id="Rectangle_94" data-name="Rectangle 94" width="20.384" height="0.657" fill="#fff"/>
      </g>
    </g>
    <rect id="Rectangle_95" data-name="Rectangle 95" width="12.192" height="16.262" transform="translate(1608.806 941.395) rotate(180)" fill="#fff"/>
    <g id="Group_99" data-name="Group 99" transform="translate(1610.467 896.13)">
      <g id="Group_96" data-name="Group 96" transform="translate(14.363 0)">
        <rect id="Rectangle_96" data-name="Rectangle 96" width="34.106" height="10.616" rx="1.634" transform="translate(34.106 10.616) rotate(180)" fill="#cbc0e0"/>
        <path id="Path_515" data-name="Path 515" d="M1747.593,953.783a2.679,2.679,0,1,0,2.679-2.679A2.68,2.68,0,0,0,1747.593,953.783Z" transform="translate(-1721.662 -948.475)" fill="#fff"/>
        <rect id="Rectangle_97" data-name="Rectangle 97" width="20.384" height="0.657" transform="translate(23.374 5.636) rotate(180)" fill="#fff"/>
        <rect id="Rectangle_98" data-name="Rectangle 98" width="10.758" height="0.657" transform="translate(23.374 7.724) rotate(180)" fill="#fff"/>
        <rect id="Rectangle_99" data-name="Rectangle 99" width="20.384" height="0.657" transform="translate(23.374 3.619) rotate(180)" fill="#fff"/>
      </g>
      <g id="Group_97" data-name="Group 97" transform="translate(7.243 6.201)">
        <rect id="Rectangle_100" data-name="Rectangle 100" width="34.106" height="10.616" rx="1.634" transform="translate(34.106 10.616) rotate(180)" fill="#7dd0e2"/>
        <circle id="Ellipse_16" data-name="Ellipse 16" cx="2.68" cy="2.68" r="2.68" transform="translate(25.931 2.628)" fill="#fff"/>
        <rect id="Rectangle_101" data-name="Rectangle 101" width="20.384" height="0.657" transform="translate(23.374 5.636) rotate(180)" fill="#fff"/>
        <rect id="Rectangle_102" data-name="Rectangle 102" width="10.758" height="0.657" transform="translate(23.374 7.724) rotate(180)" fill="#fff"/>
        <rect id="Rectangle_103" data-name="Rectangle 103" width="20.384" height="0.657" transform="translate(23.374 3.619) rotate(180)" fill="#fff"/>
      </g>
      <g id="Group_98" data-name="Group 98" transform="translate(0 12.273)">
        <rect id="Rectangle_104" data-name="Rectangle 104" width="34.106" height="10.616" rx="1.634" transform="translate(34.106 10.616) rotate(180)" fill="#f38ab2"/>
        <circle id="Ellipse_17" data-name="Ellipse 17" cx="2.68" cy="2.68" r="2.68" transform="translate(25.931 2.628)" fill="#fff"/>
        <rect id="Rectangle_105" data-name="Rectangle 105" width="20.384" height="0.657" transform="translate(23.374 5.636) rotate(180)" fill="#fff"/>
        <rect id="Rectangle_106" data-name="Rectangle 106" width="10.758" height="0.657" transform="translate(23.374 7.724) rotate(180)" fill="#fff"/>
        <rect id="Rectangle_107" data-name="Rectangle 107" width="20.384" height="0.657" transform="translate(23.374 3.619) rotate(180)" fill="#fff"/>
      </g>
    </g>
    <g id="Group_100" data-name="Group 100" transform="translate(1550.901 1020.006)">
      <path id="Path_516" data-name="Path 516" d="M1593.034,1153.527a14.76,14.76,0,1,1,14.761,14.76A14.777,14.777,0,0,1,1593.034,1153.527Z" transform="translate(-1593.034 -1138.766)" fill="#c2e7f0"/>
      <path id="Path_517" data-name="Path 517" d="M1606.421,1152.153h12.222v12.222h-12.222Zm11.832.39h-11.442v11.442h11.442Z" transform="translate(-1597.772 -1143.504)" fill="#3a3e49"/>
      <rect id="Rectangle_108" data-name="Rectangle 108" width="0.78" height="16.337" transform="translate(14.37 6.55)" fill="#3a3e49"/>
      <rect id="Rectangle_109" data-name="Rectangle 109" width="16.337" height="0.78" transform="translate(6.59 14.369) rotate(-0.283)" fill="#3a3e49"/>
    </g>
    <rect id="Rectangle_110" data-name="Rectangle 110" width="41.956" height="0.39" transform="translate(1639.262 1062.99) rotate(-60.534)" fill="#fff"/>
  </g>
</svg>
