<svg xmlns="http://www.w3.org/2000/svg" xmlns:xlink="http://www.w3.org/1999/xlink" width="339.401" height="270.99" viewBox="0 0 339.401 270.99">
  <defs>
    <linearGradient id="linear-gradient" x1="0.415" y1="0.537" x2="1.392" y2="0.537" gradientUnits="objectBoundingBox">
      <stop offset="0" stop-color="#c5e7e8"/>
      <stop offset="1" stop-color="#fff5fe"/>
    </linearGradient>
    <linearGradient id="linear-gradient-2" y1="0.5" x2="1" y2="0.5" gradientUnits="objectBoundingBox">
      <stop offset="0" stop-color="#005f7b"/>
      <stop offset="1" stop-color="#00324b"/>
    </linearGradient>
    <linearGradient id="linear-gradient-4" x1="-0.928" y1="-0.7" x2="1.261" y2="1.17" gradientUnits="objectBoundingBox">
      <stop offset="0" stop-color="#fe99b7"/>
      <stop offset="1" stop-color="#fe688e"/>
    </linearGradient>
    <linearGradient id="linear-gradient-5" x1="-0.478" y1="0.323" x2="1.516" y2="0.632" xlink:href="#linear-gradient-2"/>
    <linearGradient id="linear-gradient-9" x1="0" y1="0.5" x2="1" y2="0.5" xlink:href="#linear-gradient-4"/>
    <linearGradient id="linear-gradient-10" x1="0.854" y1="0.5" x2="0.003" y2="0.5" xlink:href="#linear-gradient-4"/>
    <linearGradient id="linear-gradient-12" x1="1.529" y1="0.131" x2="-0.484" y2="1.083" xlink:href="#linear-gradient-2"/>
    <linearGradient id="linear-gradient-13" x1="1.15" y1="0.572" x2="-0.222" y2="0.408" xlink:href="#linear-gradient-2"/>
    <linearGradient id="linear-gradient-15" x1="0.219" y1="0.127" x2="0.788" y2="0.882" xlink:href="#linear-gradient-4"/>
    <linearGradient id="linear-gradient-17" x1="0.076" y1="-0.948" x2="1.047" y2="2.368" xlink:href="#linear-gradient-2"/>
  </defs>
  <g id="Group_928" data-name="Group 928" transform="translate(-1478.098 -1430.061)">
    <g id="Group_559" data-name="Group 559" transform="translate(1478.098 1430.061)">
      <g id="Group_557" data-name="Group 557">
        <path id="Path_2161" data-name="Path 2161" d="M1648.881,1462.795c-31.361,16.1-70.435,43.128-83.542,62.411-18.523,27.25-6.073,42.083,27.748,50.88,38.2,9.936-6.464,59.284,17.211,83.278,38.923,39.446,128.875-16.2,164.943-51.756,62.534-61.639,73.733-134.945,43.459-161.25C1786.973,1418.791,1717.708,1427.47,1648.881,1462.795Z" transform="translate(-1513.969 -1430.061)" opacity="0.41" fill="url(#linear-gradient)"/>
        <path id="Path_2162" data-name="Path 2162" d="M2042.815,1542.951a7.829,7.829,0,0,0-.259-1.141l1.268-1.541a9.228,9.228,0,0,0-1.156-1.922l-1.96.4a7.65,7.65,0,0,0-1.871-1.386l-.195-1.99a9.341,9.341,0,0,0-2.176-.543l-1.106,1.666a7.635,7.635,0,0,0-2.3.345l-1.545-1.27a9.234,9.234,0,0,0-1.922,1.156l.4,1.96a7.649,7.649,0,0,0-1.385,1.873l-1.988.195a9.106,9.106,0,0,0-.545,2.176l1.665,1.1a7.644,7.644,0,0,0,.345,2.306l-1.27,1.542a9.218,9.218,0,0,0,1.158,1.924l1.958-.4a7.669,7.669,0,0,0,1.872,1.383l.195,1.99a9.2,9.2,0,0,0,2.176.542l1.106-1.665a7.676,7.676,0,0,0,2.3-.345l1.544,1.269a9.326,9.326,0,0,0,1.922-1.155l-.4-1.96a7.71,7.71,0,0,0,1.383-1.87l1.99-.2a9.317,9.317,0,0,0,.542-2.178l-1.663-1.1A7.819,7.819,0,0,0,2042.815,1542.951Zm-6.823,5.636a4.564,4.564,0,1,1,3.84-5.19A4.564,4.564,0,0,1,2035.992,1548.587Z" transform="translate(-1728.001 -1477.838)" fill="#e4eff3"/>
        <g id="Group_527" data-name="Group 527" transform="translate(271.441 71.103)">
          <path id="Path_2163" data-name="Path 2163" d="M2005.672,1574.636a13.4,13.4,0,0,0-.441-1.945l2.161-2.629a15.733,15.733,0,0,0-1.97-3.277l-3.343.676a13.066,13.066,0,0,0-3.189-2.363l-.332-3.394a15.92,15.92,0,0,0-3.71-.925l-1.885,2.84a13.028,13.028,0,0,0-3.929.587l-2.633-2.164a15.73,15.73,0,0,0-3.277,1.97l.675,3.343a13.005,13.005,0,0,0-2.363,3.194l-3.389.331a15.606,15.606,0,0,0-.93,3.711l2.84,1.881a13.077,13.077,0,0,0,.588,3.933l-2.165,2.629a15.669,15.669,0,0,0,1.975,3.281l3.338-.675a13.085,13.085,0,0,0,3.193,2.359l.332,3.394a15.743,15.743,0,0,0,3.71.925l1.885-2.84a13.039,13.039,0,0,0,3.928-.587l2.634,2.164a15.9,15.9,0,0,0,3.277-1.97l-.675-3.342a13.165,13.165,0,0,0,2.359-3.189l3.394-.332a15.868,15.868,0,0,0,.925-3.714l-2.835-1.882A13.435,13.435,0,0,0,2005.672,1574.636Zm-11.635,9.61a7.782,7.782,0,1,1,6.547-8.85A7.781,7.781,0,0,1,1994.038,1584.246Z" transform="translate(-1977.117 -1560.778)" fill="#e4eff3"/>
          <path id="Path_2164" data-name="Path 2164" d="M2006.679,1586.017a3.8,3.8,0,1,1-4.324-3.2A3.8,3.8,0,0,1,2006.679,1586.017Z" transform="translate(-1987.148 -1570.81)" fill="#e4eff3"/>
        </g>
        <g id="Group_528" data-name="Group 528" transform="translate(111.702 156.992)">
          <path id="Path_2165" data-name="Path 2165" d="M1716.778,1734.849a15.637,15.637,0,0,0-.514-2.27l2.522-3.068a18.4,18.4,0,0,0-2.3-3.825l-3.9.788a15.29,15.29,0,0,0-3.722-2.758l-.388-3.961a18.565,18.565,0,0,0-4.33-1.08l-2.2,3.314a15.2,15.2,0,0,0-4.585.686l-3.074-2.526a18.375,18.375,0,0,0-3.825,2.3l.788,3.9a15.178,15.178,0,0,0-2.758,3.728l-3.956.387a18.2,18.2,0,0,0-1.085,4.331l3.314,2.2a15.238,15.238,0,0,0,.687,4.59l-2.526,3.069a18.285,18.285,0,0,0,2.3,3.829l3.9-.788a15.24,15.24,0,0,0,3.727,2.752l.388,3.961a18.359,18.359,0,0,0,4.33,1.08l2.2-3.314a15.218,15.218,0,0,0,4.586-.686l3.074,2.526a18.547,18.547,0,0,0,3.825-2.3l-.788-3.9a15.336,15.336,0,0,0,2.753-3.722l3.961-.387a18.553,18.553,0,0,0,1.079-4.335l-3.309-2.2A15.58,15.58,0,0,0,1716.778,1734.849Zm-13.579,11.217a9.083,9.083,0,1,1,7.641-10.329A9.082,9.082,0,0,1,1703.2,1746.066Z" transform="translate(-1683.451 -1718.676)" fill="#e4eff3"/>
          <path id="Path_2166" data-name="Path 2166" d="M1717.954,1748.132a4.44,4.44,0,1,1-5.047-3.734A4.439,4.439,0,0,1,1717.954,1748.132Z" transform="translate(-1695.159 -1730.384)" fill="#e4eff3"/>
        </g>
        <rect id="Rectangle_209" data-name="Rectangle 209" width="161.479" height="104.995" rx="8.339" transform="translate(111.38 57.097)" fill="#002144"/>
        <rect id="Rectangle_210" data-name="Rectangle 210" width="156.91" height="100.562" rx="4.995" transform="translate(113.664 59.313)" fill="#fff"/>
        <path id="Path_2167" data-name="Path 2167" d="M1841.577,1617.336H1695a1.86,1.86,0,0,1-1.858-1.858v-29.211a1.86,1.86,0,0,1,1.858-1.858h146.577a1.86,1.86,0,0,1,1.858,1.858v29.211A1.86,1.86,0,0,1,1841.577,1617.336ZM1695,1584.926a1.342,1.342,0,0,0-1.34,1.341v29.211a1.342,1.342,0,0,0,1.34,1.341h146.577a1.342,1.342,0,0,0,1.341-1.341v-29.211a1.342,1.342,0,0,0-1.341-1.341Z" transform="translate(-1576.169 -1500.451)" fill="#c5e7e8"/>
        <g id="Group_530" data-name="Group 530" transform="translate(171.27 120.294)">
          <path id="Path_2168" data-name="Path 2168" d="M1886.469,1670.131h-78.453a.861.861,0,0,1-.861-.861h0a.861.861,0,0,1,.861-.861h78.453a.861.861,0,0,1,.861.861h0A.861.861,0,0,1,1886.469,1670.131Z" transform="translate(-1799.435 -1659.054)" fill="#c5e7e8"/>
          <path id="Path_2169" data-name="Path 2169" d="M1886.469,1679.914h-78.453a.861.861,0,0,1-.861-.861h0a.861.861,0,0,1,.861-.861h78.453a.861.861,0,0,1,.861.861h0A.861.861,0,0,1,1886.469,1679.914Z" transform="translate(-1799.435 -1663.515)" fill="#c5e7e8"/>
          <path id="Path_2170" data-name="Path 2170" d="M1886.469,1689.6h-78.453a.861.861,0,0,1-.861-.861h0a.861.861,0,0,1,.861-.86h78.453a.86.86,0,0,1,.861.86h0A.86.86,0,0,1,1886.469,1689.6Z" transform="translate(-1799.435 -1667.933)" fill="#c5e7e8"/>
          <path id="Path_2171" data-name="Path 2171" d="M1841.4,1699.55h-33.383a.861.861,0,0,1-.861-.861h0a.861.861,0,0,1,.861-.861H1841.4a.861.861,0,0,1,.861.861h0A.861.861,0,0,1,1841.4,1699.55Z" transform="translate(-1799.435 -1672.47)" fill="#c5e7e8"/>
          <path id="Path_2172" data-name="Path 2172" d="M1887.365,1684.213H1794.82a1.861,1.861,0,0,1-1.858-1.859v-29.211a1.86,1.86,0,0,1,1.858-1.858h92.545a1.86,1.86,0,0,1,1.858,1.858v29.211A1.86,1.86,0,0,1,1887.365,1684.213Zm-92.545-32.41a1.342,1.342,0,0,0-1.34,1.341v29.211a1.342,1.342,0,0,0,1.34,1.341h92.545a1.342,1.342,0,0,0,1.341-1.341v-29.211a1.343,1.343,0,0,0-1.341-1.341Z" transform="translate(-1792.962 -1651.245)" fill="#c5e7e8"/>
          <g id="Group_529" data-name="Group 529">
            <path id="Path_2173" data-name="Path 2173" d="M1895.951,1656.006H1793.61c-.357,0-.648-.392-.648-.877v-3.043c0-.485.291-.877.648-.877h102.341c.357,0,.647.392.647.877v3.043C1896.6,1655.614,1896.308,1656.006,1895.951,1656.006Z" transform="translate(-1792.962 -1651.21)" fill="#c5e7e8"/>
            <path id="Path_2174" data-name="Path 2174" d="M1799.235,1654.813a.962.962,0,1,1-.962-.962A.962.962,0,0,1,1799.235,1654.813Z" transform="translate(-1794.946 -1652.415)" fill="#fff"/>
            <path id="Path_2175" data-name="Path 2175" d="M1807.311,1654.813a.962.962,0,1,1-.962-.962A.962.962,0,0,1,1807.311,1654.813Z" transform="translate(-1798.629 -1652.415)" fill="#fff"/>
            <path id="Path_2176" data-name="Path 2176" d="M1815.868,1654.813a.962.962,0,1,1-.962-.962A.962.962,0,0,1,1815.868,1654.813Z" transform="translate(-1802.531 -1652.415)" fill="#fff"/>
          </g>
        </g>
        <g id="Group_534" data-name="Group 534" transform="translate(209.513 72.038)">
          <rect id="Rectangle_211" data-name="Rectangle 211" width="67.78" height="65.301" rx="5.459" fill="#96d0d2"/>
          <g id="Group_532" data-name="Group 532" transform="translate(4.984 2.528)">
            <circle id="Ellipse_39" data-name="Ellipse 39" cx="11.999" cy="11.999" r="11.999" transform="translate(0 5.514) rotate(-13.283)" fill="#96d0d2"/>
            <g id="Group_531" data-name="Group 531" transform="translate(5.608 5.483)">
              <path id="Path_2177" data-name="Path 2177" d="M1899.307,1602.16a6.611,6.611,0,0,0-.976-3.295l-1.3,2.8-1.3-2.8a6.609,6.609,0,0,0-.976,3.295c-.017,1.737,1.982,1.9,2.263,1.916v0h.034v0C1897.325,1604.062,1899.323,1603.9,1899.307,1602.16Z" transform="translate(-1888.216 -1587.093)" fill="#96d0d2"/>
              <path id="Path_2178" data-name="Path 2178" d="M1899.725,1589.1c-1.122-.724-1.919-2.642-1.774-4.959s-.434-5.5-2.86-6.552a2.85,2.85,0,0,0-2.917.046,1.291,1.291,0,0,1-1.218,0,2.852,2.852,0,0,0-2.917-.046c-2.425,1.05-3,4.235-2.859,6.552s-.651,4.235-1.773,4.959-.616,1.448,0,2.027,2.519-.109,4.028.941,2.2.145,2.432-1,1.7-10.179,1.7-10.179l0-1.414,0,1.414s1.459,9.039,1.7,10.179.922,2.045,2.431,1,3.414-.362,4.029-.941S1900.847,1589.828,1899.725,1589.1Z" transform="translate(-1882.742 -1577.224)" fill="#96d0d2"/>
              <path id="Path_2179" data-name="Path 2179" d="M1895.646,1594.635h0a2.8,2.8,0,0,1-2.143-1.244c-1.094-1.394-1.821-1.628-1.821-3.027v-7h7.927v7c0,1.41-.738,1.67-1.846,3.059A2.777,2.777,0,0,1,1895.646,1594.635Z" transform="translate(-1886.819 -1580.022)" fill="#96d0d2"/>
              <path id="Path_2180" data-name="Path 2180" d="M1890.82,1589.016h-.2a.831.831,0,0,0-.748,1.191l.946,1.958s.688-1.629.688-1.774A12.157,12.157,0,0,0,1890.82,1589.016Z" transform="translate(-1885.957 -1582.601)" fill="#96d0d2"/>
              <path id="Path_2181" data-name="Path 2181" d="M1905.651,1589.016h.2a.83.83,0,0,1,.748,1.191l-.945,1.958s-.688-1.629-.688-1.774A12.153,12.153,0,0,1,1905.651,1589.016Z" transform="translate(-1892.876 -1582.601)" fill="#96d0d2"/>
            </g>
            <path id="Path_2182" data-name="Path 2182" d="M1891.279,1585.15a17.922,17.922,0,0,0,2.234-2.893,10.3,10.3,0,0,0,5.678,2.893,16.433,16.433,0,0,0,.857-2.448c0-.408-.706-1.745-1.337-1.857s-6.813-.631-7.6,0S1891.279,1585.15,1891.279,1585.15Z" transform="translate(-1880.807 -1573.252)" fill="#96d0d2"/>
          </g>
          <g id="Group_533" data-name="Group 533" transform="translate(7.42 8.659)">
            <path id="Path_2183" data-name="Path 2183" d="M1953.659,1582.88h-17.674a2.232,2.232,0,0,1-2.231-2.232h0a2.232,2.232,0,0,1,2.231-2.232h17.674a2.232,2.232,0,0,1,2.232,2.232h0A2.232,2.232,0,0,1,1953.659,1582.88Z" transform="translate(-1902.834 -1578.416)" fill="#96d0d2"/>
            <path id="Path_2184" data-name="Path 2184" d="M1955.03,1594.9h-20.415a.861.861,0,0,1-.861-.861h0a.86.86,0,0,1,.861-.861h20.415a.861.861,0,0,1,.861.861h0A.861.861,0,0,1,1955.03,1594.9Z" transform="translate(-1902.834 -1585.148)" fill="#96d0d2"/>
            <path id="Path_2185" data-name="Path 2185" d="M1955.03,1604.542h-20.415a.861.861,0,0,1-.861-.861h0a.861.861,0,0,1,.861-.861h20.415a.861.861,0,0,1,.861.861h0A.861.861,0,0,1,1955.03,1604.542Z" transform="translate(-1902.834 -1589.546)" fill="#96d0d2"/>
            <path id="Path_2186" data-name="Path 2186" d="M1955.03,1614.3h-20.415a.861.861,0,0,1-.861-.861h0a.86.86,0,0,1,.861-.861h20.415a.861.861,0,0,1,.861.861h0A.861.861,0,0,1,1955.03,1614.3Z" transform="translate(-1902.834 -1593.994)" fill="#96d0d2"/>
            <path id="Path_2187" data-name="Path 2187" d="M1929.106,1624.547h-51.335a.861.861,0,0,1-.861-.861h0a.861.861,0,0,1,.861-.861h51.335a.861.861,0,0,1,.861.861h0A.861.861,0,0,1,1929.106,1624.547Z" transform="translate(-1876.91 -1598.669)" fill="#96d0d2"/>
            <path id="Path_2188" data-name="Path 2188" d="M1929.106,1634.33h-51.335a.861.861,0,0,1-.861-.861h0a.861.861,0,0,1,.861-.861h51.335a.861.861,0,0,1,.861.861h0A.861.861,0,0,1,1929.106,1634.33Z" transform="translate(-1876.91 -1603.13)" fill="#96d0d2"/>
            <path id="Path_2189" data-name="Path 2189" d="M1929.106,1644.018h-51.335a.861.861,0,0,1-.861-.861h0a.86.86,0,0,1,.861-.86h51.335a.861.861,0,0,1,.861.86h0A.861.861,0,0,1,1929.106,1644.018Z" transform="translate(-1876.91 -1607.549)" fill="#96d0d2"/>
            <path id="Path_2190" data-name="Path 2190" d="M1929.106,1653.966h-51.335a.861.861,0,0,1-.861-.861h0a.861.861,0,0,1,.861-.861h51.335a.861.861,0,0,1,.861.861h0A.861.861,0,0,1,1929.106,1653.966Z" transform="translate(-1876.91 -1612.085)" fill="#96d0d2"/>
            <path id="Path_2191" data-name="Path 2191" d="M1929.106,1663.588h-51.335a.861.861,0,0,1-.861-.861h0a.861.861,0,0,1,.861-.861h51.335a.861.861,0,0,1,.861.861h0A.861.861,0,0,1,1929.106,1663.588Z" transform="translate(-1876.91 -1616.473)" fill="#96d0d2"/>
          </g>
        </g>
        <g id="Group_538" data-name="Group 538" transform="translate(211.432 72.032)">
          <rect id="Rectangle_212" data-name="Rectangle 212" width="67.78" height="65.301" rx="5.459" transform="translate(0 0.006)" fill="#c5e7e8"/>
          <g id="Group_536" data-name="Group 536" transform="translate(2.45 0)">
            <circle id="Ellipse_40" data-name="Ellipse 40" cx="11.999" cy="11.999" r="11.999" transform="translate(0 16.969) rotate(-45)" fill="#fff"/>
            <g id="Group_535" data-name="Group 535" transform="translate(8.142 8.017)">
              <path id="Path_2192" data-name="Path 2192" d="M1902.833,1602.16a6.608,6.608,0,0,0-.976-3.295l-1.3,2.8-1.3-2.8a6.614,6.614,0,0,0-.977,3.295c-.016,1.737,1.982,1.9,2.264,1.916v0h.034v0C1900.851,1604.062,1902.85,1603.9,1902.833,1602.16Z" transform="translate(-1891.742 -1587.093)" fill="#c5e7e8"/>
              <path id="Path_2193" data-name="Path 2193" d="M1903.251,1589.1c-1.122-.724-1.919-2.642-1.774-4.959s-.434-5.5-2.86-6.552a2.85,2.85,0,0,0-2.916.046,1.292,1.292,0,0,1-1.219,0,2.85,2.85,0,0,0-2.917-.046c-2.425,1.05-3,4.235-2.86,6.552s-.652,4.235-1.774,4.959-.615,1.448,0,2.027,2.519-.109,4.028.941,2.2.145,2.432-1,1.7-10.179,1.7-10.179l0-1.414,0,1.414s1.459,9.039,1.7,10.179.922,2.045,2.432,1,3.413-.362,4.029-.941S1904.373,1589.828,1903.251,1589.1Z" transform="translate(-1886.268 -1577.224)" fill="#96d0d2"/>
              <path id="Path_2194" data-name="Path 2194" d="M1899.173,1594.635h0a2.8,2.8,0,0,1-2.143-1.244c-1.094-1.394-1.821-1.628-1.821-3.027v-7h7.927v7c0,1.41-.738,1.67-1.846,3.059A2.777,2.777,0,0,1,1899.173,1594.635Z" transform="translate(-1890.346 -1580.022)" fill="#c5e7e8"/>
              <path id="Path_2195" data-name="Path 2195" d="M1894.347,1589.016h-.2a.831.831,0,0,0-.748,1.191l.945,1.958s.688-1.629.688-1.774A12.155,12.155,0,0,0,1894.347,1589.016Z" transform="translate(-1889.484 -1582.601)" fill="#c5e7e8"/>
              <path id="Path_2196" data-name="Path 2196" d="M1909.178,1589.016h.2a.83.83,0,0,1,.748,1.191l-.945,1.958s-.688-1.629-.688-1.774A12.151,12.151,0,0,1,1909.178,1589.016Z" transform="translate(-1896.402 -1582.601)" fill="#c5e7e8"/>
            </g>
            <path id="Path_2197" data-name="Path 2197" d="M1894.806,1585.15a17.931,17.931,0,0,0,2.234-2.893,10.3,10.3,0,0,0,5.678,2.893,16.434,16.434,0,0,0,.857-2.448c0-.408-.706-1.745-1.336-1.857s-6.814-.631-7.6,0S1894.806,1585.15,1894.806,1585.15Z" transform="translate(-1881.8 -1570.718)" fill="#96d0d2"/>
          </g>
          <g id="Group_537" data-name="Group 537" transform="translate(7.42 8.666)">
            <path id="Path_2198" data-name="Path 2198" d="M1957.186,1582.88h-17.674a2.231,2.231,0,0,1-2.231-2.232h0a2.231,2.231,0,0,1,2.231-2.232h17.674a2.232,2.232,0,0,1,2.231,2.232h0A2.232,2.232,0,0,1,1957.186,1582.88Z" transform="translate(-1906.361 -1578.416)" fill="#fff"/>
            <path id="Path_2199" data-name="Path 2199" d="M1958.557,1594.9h-20.416a.861.861,0,0,1-.861-.861h0a.86.86,0,0,1,.861-.861h20.416a.86.86,0,0,1,.86.861h0A.86.86,0,0,1,1958.557,1594.9Z" transform="translate(-1906.361 -1585.148)" fill="#fff"/>
            <path id="Path_2200" data-name="Path 2200" d="M1958.557,1604.542h-20.416a.861.861,0,0,1-.861-.861h0a.861.861,0,0,1,.861-.861h20.416a.861.861,0,0,1,.86.861h0A.861.861,0,0,1,1958.557,1604.542Z" transform="translate(-1906.361 -1589.546)" fill="#fff"/>
            <path id="Path_2201" data-name="Path 2201" d="M1958.557,1614.3h-20.416a.861.861,0,0,1-.861-.861h0a.86.86,0,0,1,.861-.861h20.416a.86.86,0,0,1,.86.861h0A.86.86,0,0,1,1958.557,1614.3Z" transform="translate(-1906.361 -1593.994)" fill="#fff"/>
            <path id="Path_2202" data-name="Path 2202" d="M1932.633,1624.547H1881.3a.861.861,0,0,1-.861-.861h0a.861.861,0,0,1,.861-.861h51.336a.861.861,0,0,1,.86.861h0A.861.861,0,0,1,1932.633,1624.547Z" transform="translate(-1880.437 -1598.669)" fill="#fff"/>
            <path id="Path_2203" data-name="Path 2203" d="M1932.633,1634.33H1881.3a.861.861,0,0,1-.861-.861h0a.861.861,0,0,1,.861-.861h51.336a.861.861,0,0,1,.86.861h0A.861.861,0,0,1,1932.633,1634.33Z" transform="translate(-1880.437 -1603.13)" fill="#fff"/>
            <path id="Path_2204" data-name="Path 2204" d="M1932.633,1644.018H1881.3a.861.861,0,0,1-.861-.861h0a.86.86,0,0,1,.861-.86h51.336a.86.86,0,0,1,.86.86h0A.86.86,0,0,1,1932.633,1644.018Z" transform="translate(-1880.437 -1607.549)" fill="#fff"/>
            <path id="Path_2205" data-name="Path 2205" d="M1932.633,1653.966H1881.3a.861.861,0,0,1-.861-.861h0a.861.861,0,0,1,.861-.861h51.336a.861.861,0,0,1,.86.861h0A.861.861,0,0,1,1932.633,1653.966Z" transform="translate(-1880.437 -1612.085)" fill="#fff"/>
            <path id="Path_2206" data-name="Path 2206" d="M1932.633,1663.588H1881.3a.861.861,0,0,1-.861-.861h0a.861.861,0,0,1,.861-.861h51.336a.861.861,0,0,1,.86.861h0A.86.86,0,0,1,1932.633,1663.588Z" transform="translate(-1880.437 -1616.473)" fill="#fff"/>
          </g>
        </g>
        <path id="Rectangle_213" data-name="Rectangle 213" d="M4.614,0H33.957a4.614,4.614,0,0,1,4.614,4.614v25.22a4.615,4.615,0,0,1-4.615,4.615H4.615A4.615,4.615,0,0,1,0,29.834V4.614A4.614,4.614,0,0,1,4.614,0Z" transform="translate(155.171 78.424)" fill="#c5e7e8"/>
        <circle id="Ellipse_41" data-name="Ellipse 41" cx="7.77" cy="7.77" r="7.77" transform="translate(166.686 87.879)" fill="#fff"/>
        <g id="Group_539" data-name="Group 539" transform="translate(172.958 91.26)">
          <path id="Path_2207" data-name="Path 2207" d="M1796.617,1597.929l4.07,4.062a.323.323,0,0,1,0,.457l-4.062,4.069a.323.323,0,0,1-.551-.227l-.008-8.132A.323.323,0,0,1,1796.617,1597.929Z" transform="translate(-1796.066 -1597.834)" fill="#c5e7e8"/>
        </g>
        <path id="Rectangle_214" data-name="Rectangle 214" d="M2.764,0H18.531A2.764,2.764,0,0,1,21.3,2.764V18.531A2.764,2.764,0,0,1,18.531,21.3H2.765A2.765,2.765,0,0,1,0,18.531V2.764A2.764,2.764,0,0,1,2.764,0Z" transform="translate(125.654 91.1)" fill="#c5e7e8"/>
        <circle id="Ellipse_42" data-name="Ellipse 42" cx="5.373" cy="5.373" r="5.373" transform="translate(130.759 96.376)" fill="#fff"/>
        <path id="Path_2208" data-name="Path 2208" d="M1843.969,1541.82v4.429h-156.91v-4.429a2.719,2.719,0,0,1,2.718-2.717h151.475A2.719,2.719,0,0,1,1843.969,1541.82Z" transform="translate(-1573.395 -1479.79)" fill="#c5e7e8"/>
        <path id="Path_2209" data-name="Path 2209" d="M1697.537,1544.664a1.2,1.2,0,1,1-1.2-1.2A1.2,1.2,0,0,1,1697.537,1544.664Z" transform="translate(-1577.078 -1481.778)" fill="#fe99b7"/>
        <path id="Path_2210" data-name="Path 2210" d="M1708.388,1544.664a1.2,1.2,0,1,1-1.2-1.2A1.2,1.2,0,0,1,1708.388,1544.664Z" transform="translate(-1582.026 -1481.778)" fill="#71cfd2"/>
        <path id="Path_2211" data-name="Path 2211" d="M1719.688,1544.664a1.2,1.2,0,1,1-1.2-1.2A1.2,1.2,0,0,1,1719.688,1544.664Z" transform="translate(-1587.18 -1481.778)" fill="#ffcb5b"/>
        <g id="Group_540" data-name="Group 540" transform="translate(223.986 110.056)">
          <path id="Path_2212" data-name="Path 2212" d="M2074.941,1836.3l3.773.8,2.839,1.234,7.279,14.1-.73,2.355a9.631,9.631,0,0,1-5.723-3.832c-2.352-3.282-5.2-6.563-6.234-7.93a6.692,6.692,0,0,1-1.221-2.133Z" transform="translate(-1974.267 -1725.384)" fill="#96d0d2"/>
          <path id="Path_2213" data-name="Path 2213" d="M2044.832,1788.906a3.889,3.889,0,0,0-2.542,1.724,10.915,10.915,0,0,0-1.251,2.069s-12.714-10.255-20.055-16.305l0,0c-2.446-2.013-4.3-3.561-4.878-4.108a15.2,15.2,0,0,1-1.737-2.4l-.043-.066c-2.691-4.257-7.25-12.674-9.949-17.736-.477-.893-.893-1.68-1.234-2.323-.6-1.142-.963-1.824-.963-1.824l-1.522-13.322-.026-.232,2.1-1.737,1.733-1.435.709-.586,2.624,2s5.946,4.388,7.259,7.525c.394.936,2.283,6.356,4.178,11.952v.013c2.148,6.348,4.3,12.924,4.279,13.466a.514.514,0,0,0,.21.372c1.05,1,5.8,2.476,9.013,6.335C2036.375,1776.656,2044.832,1788.906,2044.832,1788.906Z" transform="translate(-1940.384 -1677.186)" fill="#005f7b"/>
          <path id="Path_2214" data-name="Path 2214" d="M2016.47,1779.746l-.043-.066c-3.168-5-8.917-15.772-11.183-20.059l3.049-7.367Z" transform="translate(-1942.49 -1687.054)" fill="url(#linear-gradient-2)"/>
          <path id="Path_2215" data-name="Path 2215" d="M2083.464,1839.934c-1.753.494-1.641,3.172-.657,5.2s3.117,3.172,4.43,5.851,3.664,5.8,4.594,5.469,1.422-3.062.93-5.906-1.476-3.719-4.047-6.453S2085.6,1839.332,2083.464,1839.934Z" transform="translate(-1977.54 -1726.991)" fill="#005f7b"/>
          <path id="Path_2216" data-name="Path 2216" d="M2025.266,1854.241l3.12,2.46v15.846a6.028,6.028,0,0,1-3.922-3.6c-.984-2.844-2.716-8.75-3.573-10.773s1.768-5.085,1.768-5.085Z" transform="translate(-1949.547 -1733.041)" fill="#96d0d2"/>
          <path id="Path_2217" data-name="Path 2217" d="M2005.724,1798.387a3.963,3.963,0,0,0-3.01,1.549,8.128,8.128,0,0,0-1.365,2.389s-10.146-10.933-16.227-18.239l-.013-.013a39.648,39.648,0,0,1-4.323-5.81c-1.264-2.734-2.218-24.062-2.656-35.735-.167-4.51-.258-7.577-.258-7.577l12.832-4.332a20.632,20.632,0,0,1,1.641,2.021c.214.3.442.621.669.971,1.461,2.24,3.036,5.477,2.8,8.776a83,83,0,0,1-1.816,9.69s0,.017-.013.048c-1.869,8.247-4.445,18.209-4.152,19.574a6.291,6.291,0,0,0,1.448,2.423.057.057,0,0,0,.017.017,43.122,43.122,0,0,1,4.953,6.453C1998.873,1785.117,2005.724,1798.387,2005.724,1798.387Z" transform="translate(-1930.007 -1677.186)" fill="#005f7b"/>
          <path id="Path_2218" data-name="Path 2218" d="M1994.852,1733.156a18.762,18.762,0,0,0-1.837.455,25.415,25.415,0,0,0-2.739,1,51.246,51.246,0,0,0-12.145,7.919c-.167-4.51-.258-7.577-.258-7.577l12.832-4.332a20.632,20.632,0,0,1,1.641,2.021l1.733-1.435C1996.76,1731.874,1997.858,1732.582,1994.852,1733.156Z" transform="translate(-1930.007 -1677.186)" fill="url(#linear-gradient-2)"/>
          <path id="Path_2219" data-name="Path 2219" d="M2027.576,1727.439a11.266,11.266,0,0,0,0,3.609c.364,1.167.729,4.193,1.2,4.12s.328-2.953.474-3.281,1.677,2.37,2.041,3.463,1.313,3.135,1.6,2.734a14.18,14.18,0,0,0,1.276-4.7c-.109-1.057-3.376-6.553-3.376-6.553l-1.509-2.67Z" transform="translate(-1952.6 -1674.24)" fill="#ffb691"/>
          <path id="Path_2220" data-name="Path 2220" d="M1896.178,1642.9l-.146-1.75a43.933,43.933,0,0,0-2.406-5.1c-.875-1.312-2.261-3.865-2.989-3.646s1.677,4.083,1.24,4.74-2.261,1.021-1.969,2.552,2.479,3.354,2.479,3.354Z" transform="translate(-1889.876 -1632.389)" fill="#ffb691"/>
          <path id="Path_2221" data-name="Path 2221" d="M1948.112,1648.5a68.061,68.061,0,0,0,1.313,8.021c.875,3.573,3.718,4.01,4.3,3.646s1.695,6.872,1.695,6.872l6.034-.382-3.062-18.157Z" transform="translate(-1916.435 -1639.736)" fill="#ffb691"/>
          <path id="Path_2222" data-name="Path 2222" d="M1959.386,1695.167c-.582,0-10.644,2.332-14.582,4.519s-5.958,4.594-5.853.166c.1-3.964-4.353-11.76-8.728-14.311a13.889,13.889,0,0,1-4.06-3.57l0,0c-1.649-2.135-2.42-4.274-3.522-5.469-1.3-1.409-9.477-3.71-14.831-6.059a14.654,14.654,0,0,1-4.126-2.4c-3.062-3.062-9.187-17.649-9.187-17.649l3.644-1.895s7.731,12.25,8.75,13.562,16.187,5.106,19.4,4.957a24.708,24.708,0,0,0,5.788-1.225c1.151-.364,1.938-.67,1.938-.67s.73-1.894,6.855-.73c5.88,1.12,7.46,6.545,8.221,9.3.03.114.061.223.092.328.569,2.048.25,4.633,1.4,7.954a17.145,17.145,0,0,0,1.374,2.983C1954.722,1689.768,1959.972,1695.167,1959.386,1695.167Z" transform="translate(-1891.981 -1639.736)" fill="#fe99b7"/>
          <path id="Path_2223" data-name="Path 2223" d="M2009.06,1705.185l-3.356,1.212s-4.384-11.121-6.777-13.926a2.418,2.418,0,0,0-.612-.555c-1.531-.835-7.219-3.526-10.347-5-1.251-.591-2.1-.985-2.1-.985l-6.125-8.313a15.994,15.994,0,0,1,7.438.875c3.469,1.339,13.4,4.988,16.856,9.157a6.067,6.067,0,0,1,.787,1.172C2007.165,1693.465,2009.06,1705.185,2009.06,1705.185Z" transform="translate(-1930.862 -1652.966)" fill="#fe99b7"/>
          <path id="Path_2224" data-name="Path 2224" d="M1996.669,1687.434a14.864,14.864,0,0,1-5.114,4.817,2.418,2.418,0,0,0-.612-.555c-1.531-.835-7.219-3.526-10.347-5,.03.114.061.223.092.328.569,2.047.25,4.633,1.4,7.954a10.041,10.041,0,0,1-7.376-4.379c-2.734-3.938-4.922-1.715-8.164-4.231-2.682-2.078-2.949-6.2-2.962-7.568,1.15-.363,1.938-.67,1.938-.67s.73-1.894,6.855-.731a15.993,15.993,0,0,1,7.438.875C1983.282,1679.616,1993.217,1683.265,1996.669,1687.434Z" transform="translate(-1923.49 -1652.745)" fill="url(#linear-gradient-4)"/>
          <path id="Path_2225" data-name="Path 2225" d="M1945.431,1640.468c0,1.538,2.114,3.718,6.344,5.687s2.188,4.594,3.792,10.5,4.01,7.729,7.948,8.239,4.739,3.735,10.135,5.805,9.349,1.411,13.169-2.707.685-8.493-5.367-10.462-2.22-6.635-6-12.031-8.3-3.719-11.359-5.031-2.333-4.74-9.7-5.323S1945.431,1639.156,1945.431,1640.468Z" transform="translate(-1915.212 -1633.623)" fill="#002144"/>
          <path id="Path_2226" data-name="Path 2226" d="M2030.172,1859.045a5.436,5.436,0,0,0-1.385,5.906c.8,1.969.8,7.146,1.385,8.531s4.14,3.281,5.242,2.625,1.013-5.032,0-8.094-2.195-7.41-3.09-8.319C2031.776,1859.141,2030.9,1858.483,2030.172,1859.045Z" transform="translate(-1953.068 -1735.658)" fill="#005f7b"/>
          <path id="Path_2227" data-name="Path 2227" d="M1997.181,1789.731a6.3,6.3,0,0,0,1.448,2.423,4,4,0,0,0-4.637-1.112c1.155-2.97,6.987-19.866,7.341-20.886C1999.465,1778.4,1996.888,1788.366,1997.181,1789.731Z" transform="translate(-1937.358 -1695.218)" fill="url(#linear-gradient-5)"/>
          <path id="Path_2228" data-name="Path 2228" d="M2039.307,1783.963a12.432,12.432,0,0,1-2.4,1.159c-.862.109-2.047-14.49-2.091-15,2.148,6.348,4.3,12.924,4.279,13.466A.515.515,0,0,0,2039.307,1783.963Z" transform="translate(-1955.977 -1695.203)" fill="url(#linear-gradient-2)"/>
          <path id="Path_2229" data-name="Path 2229" d="M2059.357,1829.008a10.922,10.922,0,0,0-1.251,2.069s-12.714-10.255-20.055-16.305Z" transform="translate(-1957.452 -1715.565)" fill="url(#linear-gradient-2)"/>
          <path id="Path_2230" data-name="Path 2230" d="M2008.792,1844.762a8.132,8.132,0,0,0-1.365,2.388s-10.146-10.933-16.227-18.239Z" transform="translate(-1936.086 -1722.013)" fill="url(#linear-gradient-2)"/>
          <path id="Path_2231" data-name="Path 2231" d="M1937.32,1700.363c-1.649-2.135-2.419-4.274-3.522-5.469-1.3-1.409-9.477-3.71-14.831-6.059,0,0,14.393,2.231,15.855,3.763S1936.187,1697.742,1937.32,1700.363Z" transform="translate(-1903.143 -1658.131)" fill="url(#linear-gradient-9)"/>
          <path id="Path_2232" data-name="Path 2232" d="M1959.338,1635.712s4.758-.82,7.93,1.477,3.172,2.078,8.8,3.062,8.75,4.812,9.024,9.351,1.148,6.289,5.414,6.453" transform="translate(-1921.554 -1633.839)" fill="none" stroke="#002144" stroke-width="3"/>
          <path id="Path_2233" data-name="Path 2233" d="M1951.42,1638.546a3.488,3.488,0,0,0-1.424,3.609c.6,2.242,7.821,3.063,8.313,6.781s.075,8.447,3.51,10.54" transform="translate(-1917.243 -1635.197)" fill="none" stroke="#96d0d2" stroke-width="3"/>
          <path id="Path_2234" data-name="Path 2234" d="M1970.276,1662.708s-1.458,5.833,6.489,8.167,3.427,5.969,13.271,8.6" transform="translate(-1926.495 -1646.216)" fill="none" stroke="#96d0d2" stroke-width="3"/>
        </g>
        <g id="Group_541" data-name="Group 541" transform="translate(77.242 17.976)">
          <path id="Path_2235" data-name="Path 2235" d="M1855.405,1490.341l-21.684-6.795v-9.608l21.684-6.8Z" transform="translate(-1717.522 -1464.948)" fill="url(#linear-gradient-10)"/>
          <path id="Path_2236" data-name="Path 2236" d="M1679.054,1513.783l-1.005.243a25.032,25.032,0,0,1-4.054.693c-1.975.139-2.876-.1-2.668-.468s2.356-.675,2.7-.953-1.133-.8-2.732-.8-2.257-.069-3.747,0,.381-1.386,2.495-1.975,8.639.093,8.639.093Z" transform="translate(-1641.495 -1484.624)" fill="#ffb691"/>
          <path id="Path_2237" data-name="Path 2237" d="M1633.292,1565.431l-1.3-1.559s-2.309-1.686-3.39-1.326-5.048,3.572-6.611,5.369a7.769,7.769,0,0,0-1.895,4.942c0,1.082,2.653.324,4.7-1.176,1.939-1.421,5.849-3.966,5.849-3.966Z" transform="translate(-1620.1 -1508.434)" fill="#002144"/>
          <path id="Path_2238" data-name="Path 2238" d="M1701.409,1596.905a2.349,2.349,0,0,0-2.464,1.731c-.321,1.171-.8,2.926-1.439,5.322-.652,2.436.092,3.049,1.94,2.125s2.186-2.051,3.049-4.134,2.55-5.719,2.55-5.719Z" transform="translate(-1655.295 -1523.819)" fill="#002144"/>
          <path id="Path_2239" data-name="Path 2239" d="M1707.045,1563.511a39.676,39.676,0,0,1-10.1,14.74v0c-1.961,1.793-3.914,3.112-5.333,3.229,0,0-.043,0-.125.008-3.436.25-12.928-.7-14.847-.56-1.94.138-2.888-2.621-2.75-3.035,0,0,1.59-1.195,6.01-2.346a18.652,18.652,0,0,1,7.824-.306h0c.284,0,2.5-3.63,3.552-5.389.5-.845-.082-1.418-.979-1.815a2.5,2.5,0,0,0-1.53,0c-1.069.293-6.031,2.629-11.575,4.85a71.454,71.454,0,0,1-14.442,4.018.486.486,0,0,1-.052.009c-.181.021-.349.034-.509.047,0,0-.012,0-.021,0a3.951,3.951,0,0,1-1.332-.056c-1.8-.552-20-9.221-22.909-11.855s1.522-4.849,1.522-4.849-.1-.759,8.079,1.6,12.385,5.867,13.308,5.867a5.3,5.3,0,0,0,1.2-.444l.052-.026c3.574-1.6,13.394-6.811,15.658-8.216a93.949,93.949,0,0,1,9.423-4.436h2.031s6.842,3.1,7.255,3.1c.341,0,7.2,3.927,9.691,5.354Z" transform="translate(-1627.782 -1504.81)" fill="#005f7b"/>
          <path id="Path_2240" data-name="Path 2240" d="M1757.353,1570.595a39.675,39.675,0,0,1-10.1,14.739,57.715,57.715,0,0,0,7.251-14.218l1.957-1.035Z" transform="translate(-1678.09 -1511.894)" fill="url(#linear-gradient-2)"/>
          <path id="Path_2241" data-name="Path 2241" d="M1751.6,1477.365s-3.326,4.435-7.485,3.789-5.036-3.142-10.164-2.31-7.715-1.243-9.24-2.862-2.079-1.065-6.884-.834-5.034-5.152-1.153-7.231,7.074.781,10.763-2.355c4.158-3.535,9.217-2.842,13.1-.485s8.082-1.574,13.791.069c4.574,1.317,6.41,5.212,5.7,6.591S1751.6,1477.365,1751.6,1477.365Z" transform="translate(-1662.911 -1463.109)" fill="#002144"/>
          <path id="Path_2242" data-name="Path 2242" d="M1822.294,1501.085a8.171,8.171,0,0,1,.127-3.254,13.932,13.932,0,0,0,.649-2.568s1.361.585,1.361,1.106-.086,3.636-.1,3.849-.416,1.7-.416,1.7l-.84,1.005Z" transform="translate(-1712.259 -1477.773)" fill="#ffb691"/>
          <path id="Path_2243" data-name="Path 2243" d="M1764.387,1506.463s-5.173,15.063-8.316,15.8a3.6,3.6,0,0,1-1.953-.276c-3.845-1.427-10.014-7.07-10.708-7.3-.112-.039-.228.039-.354.207a.032.032,0,0,0,0,.013c-.548.755-1.241,3.263-2.121,5.5v.009c-.229.573-.47,1.134-.729,1.634a8.164,8.164,0,0,1-.69,1.155c-1.328,1.819-3.9,3.807-5.332,5.656s-3.889,11.131-4.169,11.316a7.2,7.2,0,0,1-2.845-.2,41.064,41.064,0,0,1-6.3-1.815c-4.328-1.578-8.924-5.557-10.786-7.545a.9.9,0,0,1,.34-1.457c2.479-.918,7.824-2.97,8.32-3.75a19.9,19.9,0,0,0,1.022-3.8.129.129,0,0,0,.009-.039c.767-3.647,1.552-8.652,1.19-9.557-.358-.888-6.109-.677-10.945-.388a.078.078,0,0,1-.022,0c-2.7.159-5.1.345-6.13.379-2.862.095-16.558-1.854-16.558-1.854l.068-3.539s13.257.22,15.476-.056,10.808-2.406,17.184-3.884a45.088,45.088,0,0,1,13.4-.656,49.66,49.66,0,0,1,8.5,2.6c3.513,1.574,12.566,9.519,12.566,9.519l6.286-10.07Z" transform="translate(-1650.748 -1480.749)" fill="#ffcb5b"/>
          <path id="Path_2244" data-name="Path 2244" d="M1781.934,1494.7s-.565,1.345-1.185,2.681c-.362.78-.741,1.56-1.035,2.065-.8,1.376-1.522,2.979-4.367,1.871a3.782,3.782,0,0,1-2.323-4.113l3.017-6.216,1.6,1Z" transform="translate(-1689.824 -1475.823)" fill="#ffb691"/>
          <rect id="Rectangle_215" data-name="Rectangle 215" width="6.362" height="9.608" transform="translate(109.837 8.989)" fill="#fe99b7"/>
          <rect id="Rectangle_216" data-name="Rectangle 216" width="2.077" height="7.076" transform="translate(107.759 10.255)" fill="#fe688e"/>
          <path id="Path_2245" data-name="Path 2245" d="M1874.258,1478.742c0,6.4-1.862,11.6-4.156,11.6-1.884,0-3.479-3.507-3.987-8.314a32.152,32.152,0,0,1,0-6.564c.509-4.811,2.1-8.318,3.987-8.318C1872.4,1467.142,1874.258,1472.335,1874.258,1478.742Z" transform="translate(-1732.218 -1464.948)" fill="#fe688e"/>
          <path id="Path_2246" data-name="Path 2246" d="M1825.114,1511.428h0a1.3,1.3,0,0,1-1.3-1.3V1497.3h3.96l-1.371,12.968A1.3,1.3,0,0,1,1825.114,1511.428Z" transform="translate(-1713.004 -1478.701)" fill="#fe688e"/>
          <path id="Path_2247" data-name="Path 2247" d="M1888.226,1488.466" transform="translate(-1742.379 -1474.673)" fill="none" stroke="#000" stroke-width="1"/>
          <path id="Path_2248" data-name="Path 2248" d="M1828.613,1499.993s-2.41.807-2.549,2.378-.206,2.993,1.052,2.923,1.87-.486,2.187-2.1S1829.4,1499.842,1828.613,1499.993Z" transform="translate(-1713.997 -1479.926)" fill="#ffb691"/>
          <path id="Path_2249" data-name="Path 2249" d="M1773.394,1538.112a8.141,8.141,0,0,1-.69,1.155c-1.328,1.819-3.9,3.807-5.332,5.656s-3.888,11.131-4.169,11.316a7.2,7.2,0,0,1-2.845-.2c.16-.784.375-1.694.673-2.707,1-3.449,2.677-9.807.716-12.213-1.134-1.393-3.733-4.6,1.457-4.035C1767.855,1537.582,1771.187,1539.164,1773.394,1538.112Z" transform="translate(-1683.94 -1496.814)" fill="#ffa302"/>
          <path id="Path_2250" data-name="Path 2250" d="M1738.809,1528.764c.767-3.647,1.552-8.652,1.189-9.557-.358-.888-6.108-.677-10.945-.388.547-.1,12.286-2.19,13.549-.742C1743.891,1519.561,1740.3,1522.837,1738.809,1528.764Z" transform="translate(-1669.788 -1487.945)" fill="#ffa302"/>
          <path id="Path_2251" data-name="Path 2251" d="M1800.87,1531.909h-.009c-3.845-1.427-10.014-7.07-10.708-7.3-.112-.039-.228.039-.354.207.073-.22.97-2.755,3.173.013C1795.275,1527.715,1800.87,1531.909,1800.87,1531.909Z" transform="translate(-1697.492 -1490.672)" fill="#ffa302"/>
          <path id="Path_2252" data-name="Path 2252" d="M1784.87,1495.459s-.564,1.345-1.185,2.681c-3.509-1.207-4.259-5.488-4.259-5.488l1.147.1Z" transform="translate(-1692.761 -1476.582)" fill="#eb9d76"/>
          <path id="Path_2253" data-name="Path 2253" d="M1787.831,1476.773s-.139,9.217-4.089,10.811-6.861-3.6-7.207-5.475a2.808,2.808,0,0,1-1.455-3.326c.693-2.287,2.564-.485,2.564-.485s1.8-3.257,4.193-3.95S1787.692,1474.9,1787.831,1476.773Z" transform="translate(-1690.716 -1468.146)" fill="#ffb691"/>
          <path id="Path_2254" data-name="Path 2254" d="M1722.459,1598.609c-3.436.25-12.929-.7-14.847-.56-1.94.138-2.889-2.621-2.75-3.035,0,0,1.591-1.195,6.01-2.346a18.651,18.651,0,0,1,7.824-.306c-.582,1.384-1.082,3.082-.681,4.259C1718.713,1598.67,1721.8,1598.64,1722.459,1598.609Z" transform="translate(-1658.75 -1521.927)" fill="url(#linear-gradient-12)"/>
          <path id="Path_2255" data-name="Path 2255" d="M1662.177,1581.61a3.953,3.953,0,0,1-1.332-.056c-1.8-.552-20-9.221-22.909-11.855s1.522-4.849,1.522-4.849-.1-.759,8.079,1.6,12.385,5.867,13.308,5.867a5.307,5.307,0,0,0,1.2-.444c-2.509,1.2-5.126,2.712-3.988,6.565A3.988,3.988,0,0,0,1662.177,1581.61Z" transform="translate(-1627.782 -1509.455)" fill="url(#linear-gradient-13)"/>
          <path id="Path_2256" data-name="Path 2256" d="M1869.856,1485.674a3.326,3.326,0,0,1-3.332,3.332h-.41a33.137,33.137,0,0,1,0-6.664h.41A3.332,3.332,0,0,1,1869.856,1485.674Z" transform="translate(-1732.218 -1471.88)" fill="url(#linear-gradient-2)"/>
          <path id="Path_2257" data-name="Path 2257" d="M1827.756,1488.545h-3.6a.487.487,0,0,1-.487-.487h0a.487.487,0,0,1,.487-.487h3.6a.487.487,0,0,1,.487.487h0A.486.486,0,0,1,1827.756,1488.545Z" transform="translate(-1712.936 -1474.265)" fill="#fe688e"/>
          <path id="Path_2258" data-name="Path 2258" d="M1827.756,1491.708h-3.6a.487.487,0,0,1-.487-.487h0a.487.487,0,0,1,.487-.487h3.6a.487.487,0,0,1,.487.487h0A.486.486,0,0,1,1827.756,1491.708Z" transform="translate(-1712.936 -1475.707)" fill="#fe688e"/>
          <path id="Path_2259" data-name="Path 2259" d="M1827.756,1485.054h-3.6a.487.487,0,0,1-.487-.487h0a.487.487,0,0,1,.487-.487h3.6a.487.487,0,0,1,.487.487h0A.487.487,0,0,1,1827.756,1485.054Z" transform="translate(-1712.936 -1472.672)" fill="#fe688e"/>
        </g>
        <path id="Path_2260" data-name="Path 2260" d="M1740.308,1461.863s5.787-2.844,10.025-.662c2.867,1.476,3.384,3.226,7.178,2.467s8.412-.19,9.993,1.139" transform="translate(-1597.679 -1443.887)" fill="none" stroke="#002144" stroke-width="3"/>
        <path id="Path_2261" data-name="Path 2261" d="M1728.215,1481.952s2.789-.347,5.693,2.617,7.659-.923,12.713,2.154" transform="translate(-1592.164 -1453.72)" fill="none" stroke="#96d0d2" stroke-width="3"/>
        <g id="Group_543" data-name="Group 543" transform="translate(236.069 34.865)">
          <circle id="Ellipse_43" data-name="Ellipse 43" cx="11.678" cy="11.678" r="11.678" transform="translate(0 8.938) rotate(-22.5)" fill="#ffe6fc"/>
          <path id="Path_2262" data-name="Path 2262" d="M1933.2,1510.635l.045,13.491,9.654-6.778Z" transform="translate(-1921.718 -1501.672)" fill="#fe99b7"/>
          <circle id="Ellipse_44" data-name="Ellipse 44" cx="5.052" cy="5.052" r="5.052" transform="translate(17.095 20.268)" fill="#96d0d2"/>
          <circle id="Ellipse_45" data-name="Ellipse 45" cx="5.052" cy="5.052" r="5.052" transform="translate(18.281 20.268)" fill="#fff"/>
          <g id="Group_542" data-name="Group 542" transform="translate(20.472 22.711)">
            <rect id="Rectangle_217" data-name="Rectangle 217" width="1.078" height="5.716" transform="translate(2.322)" fill="#c5e7e8"/>
            <rect id="Rectangle_218" data-name="Rectangle 218" width="1.078" height="5.716" transform="translate(5.722 2.337) rotate(90.367)" fill="#c5e7e8"/>
          </g>
        </g>
        <g id="Group_544" data-name="Group 544" transform="translate(283.921 23.417)">
          <path id="Path_2263" data-name="Path 2263" d="M2003.489,1495.665a2.092,2.092,0,1,0,1.469.6A2.076,2.076,0,0,0,2003.489,1495.665Z" transform="translate(-2000.67 -1483.397)" fill="#c5e7e8"/>
          <path id="Path_2264" data-name="Path 2264" d="M2002.221,1487.136a7.439,7.439,0,0,0-1.443.141.756.756,0,0,0-.385,1.279.759.759,0,0,0,.678.2,5.971,5.971,0,0,1,1.15-.112,5.943,5.943,0,0,1,5.845,7,.755.755,0,1,0,1.487.269,7.454,7.454,0,0,0-7.331-8.781Z" transform="translate(-2000.109 -1479.507)" fill="#c5e7e8"/>
          <path id="Path_2265" data-name="Path 2265" d="M2002.209,1479.793a11.63,11.63,0,0,0-1.435.089.755.755,0,0,0-.657.842.758.758,0,0,0,.843.657,10.19,10.19,0,0,1,1.247-.077,9.934,9.934,0,0,1,9.861,11.016.754.754,0,0,0,.669.833.686.686,0,0,0,.083.005.754.754,0,0,0,.75-.673,11.446,11.446,0,0,0-11.36-12.693Z" transform="translate(-2000.083 -1476.158)" fill="#c5e7e8"/>
          <path id="Path_2266" data-name="Path 2266" d="M2012.752,1477.447a14.986,14.986,0,0,0-10.573-4.336c-.477,0-.959.022-1.434.068a.756.756,0,0,0,.143,1.5c.428-.041.862-.061,1.29-.061a13.572,13.572,0,0,1,13.521,14.646.756.756,0,0,0,.693.813l.061,0a.761.761,0,0,0,.753-.7A15.053,15.053,0,0,0,2012.752,1477.447Z" transform="translate(-2000.06 -1473.111)" fill="#c5e7e8"/>
        </g>
        <g id="Group_545" data-name="Group 545" transform="translate(133.753 197.546)">
          <rect id="Rectangle_219" data-name="Rectangle 219" width="23.001" height="13.285" fill="#ffe8b5"/>
          <path id="Path_2267" data-name="Path 2267" d="M1723.991,1793.231l11.5,7.652,11.5-7.652v13.285h-23Z" transform="translate(-1723.991 -1793.231)" fill="#ffcb5b" opacity="0.38"/>
          <path id="Path_2268" data-name="Path 2268" d="M1723.991,1793.231l11.5,7.031,11.5-7.031-11.5,8.934Z" transform="translate(-1723.991 -1793.231)" fill="#ffcb5b"/>
        </g>
        <g id="Group_546" data-name="Group 546" transform="translate(77.372 116.133)">
          <path id="Path_2269" data-name="Path 2269" d="M1637.069,1653.54s-4.057,3.792-8.677,3.439-8.053-4.718-8.053-4.718,4.057-3.792,8.676-3.439S1637.069,1653.54,1637.069,1653.54Z" transform="translate(-1620.339 -1645.95)" fill="#96d0d2"/>
          <path id="Path_2270" data-name="Path 2270" d="M1636.188,1654.08a2.965,2.965,0,1,1-2.731-3.182A2.965,2.965,0,0,1,1636.188,1654.08Z" transform="translate(-1624.866 -1646.903)" fill="#ffe6fc"/>
          <path id="Path_2271" data-name="Path 2271" d="M1635.915,1655.39a1.246,1.246,0,1,1-1.148-1.337A1.246,1.246,0,0,1,1635.915,1655.39Z" transform="translate(-1626.308 -1648.344)" fill="#005f7b"/>
          <path id="Path_2272" data-name="Path 2272" d="M1636.239,1645.661h0a.2.2,0,0,1-.189-.22l.129-1.689a.206.206,0,0,1,.221-.19h0a.206.206,0,0,1,.189.221l-.129,1.689A.205.205,0,0,1,1636.239,1645.661Z" transform="translate(-1627.504 -1643.561)" fill="#96d0d2"/>
          <path id="Path_2273" data-name="Path 2273" d="M1642.309,1647.449h0a.206.206,0,0,1-.073-.282l.863-1.458a.206.206,0,0,1,.282-.072h0a.206.206,0,0,1,.072.282l-.863,1.458A.205.205,0,0,1,1642.309,1647.449Z" transform="translate(-1630.313 -1644.495)" fill="#96d0d2"/>
          <path id="Path_2274" data-name="Path 2274" d="M1648.071,1650.941h0a.205.205,0,0,1-.015-.29l1.132-1.26a.206.206,0,0,1,.29-.016h0a.205.205,0,0,1,.016.29l-1.132,1.26A.206.206,0,0,1,1648.071,1650.941Z" transform="translate(-1632.955 -1646.189)" fill="#96d0d2"/>
          <path id="Path_2275" data-name="Path 2275" d="M1629.241,1646.4h0a.206.206,0,0,0,.114-.268l-.631-1.572a.207.207,0,0,0-.268-.114h0a.206.206,0,0,0-.114.268l.632,1.572A.2.2,0,0,0,1629.241,1646.4Z" transform="translate(-1623.982 -1643.956)" fill="#96d0d2"/>
          <path id="Path_2276" data-name="Path 2276" d="M1622.794,1648.937h0a.206.206,0,0,0,.059-.284l-.927-1.418a.206.206,0,0,0-.285-.059h0a.206.206,0,0,0-.059.285l.927,1.417A.206.206,0,0,0,1622.794,1648.937Z" transform="translate(-1620.89 -1645.194)" fill="#96d0d2"/>
        </g>
        <g id="Group_551" data-name="Group 551" transform="translate(197.988 167.513)">
          <path id="Path_2277" data-name="Path 2277" d="M1871.315,1783.047l-15.9-29.262.664-.361,15.465,28.456,22.63-18.683.481.583Z" transform="translate(-1848.161 -1745.044)" fill="#96d0d2"/>
          <circle id="Ellipse_46" data-name="Ellipse 46" cx="9.703" cy="9.703" r="9.703" transform="translate(10.366 40.951) rotate(-63.155)" fill="#c5e7e8"/>
          <g id="Group_548" data-name="Group 548" transform="translate(18.479 30.798)">
            <g id="Group_547" data-name="Group 547">
              <path id="Path_2278" data-name="Path 2278" d="M1885.882,1809.475l-9.829-.022,0-1.934a4.915,4.915,0,0,1,4.925-4.9h0a4.914,4.914,0,0,1,4.9,4.925Z" transform="translate(-1876.053 -1798.276)" fill="#fff"/>
              <path id="Path_2279" data-name="Path 2279" d="M1885.517,1797.087a2.444,2.444,0,1,1-2.439-2.449A2.443,2.443,0,0,1,1885.517,1797.087Z" transform="translate(-1878.14 -1794.638)" fill="#fff"/>
            </g>
          </g>
          <path id="Path_2280" data-name="Path 2280" d="M1858.841,1746.408a8.38,8.38,0,1,1-8.37-8.39A8.379,8.379,0,0,1,1858.841,1746.408Z" transform="translate(-1842.081 -1738.018)" fill="#c5e7e8"/>
          <g id="Group_549" data-name="Group 549" transform="translate(4.13 3.304)">
            <path id="Path_2281" data-name="Path 2281" d="M1858.162,1756.9l-8.488-.01,0-1.671a4.244,4.244,0,0,1,4.249-4.24h0a4.244,4.244,0,0,1,4.239,4.249Z" transform="translate(-1849.674 -1747.234)" fill="#fff"/>
            <path id="Path_2282" data-name="Path 2282" d="M1857.835,1746.205a2.111,2.111,0,1,1-2.108-2.113A2.111,2.111,0,0,1,1857.835,1746.205Z" transform="translate(-1851.47 -1744.092)" fill="#fff"/>
          </g>
          <path id="Path_2283" data-name="Path 2283" d="M1930.326,1763.189a6.673,6.673,0,1,1-6.665-6.681A6.673,6.673,0,0,1,1930.326,1763.189Z" transform="translate(-1876.239 -1746.45)" fill="#c5e7e8"/>
          <g id="Group_550" data-name="Group 550" transform="translate(44.03 12.688)">
            <path id="Path_2284" data-name="Path 2284" d="M1929.786,1771.544l-6.759-.008v-1.331a3.381,3.381,0,0,1,3.384-3.376h0a3.38,3.38,0,0,1,3.376,3.384Z" transform="translate(-1923.027 -1763.846)" fill="#fff"/>
            <path id="Path_2285" data-name="Path 2285" d="M1929.525,1763.027a1.681,1.681,0,1,1-1.679-1.683A1.681,1.681,0,0,1,1929.525,1763.027Z" transform="translate(-1924.457 -1761.344)" fill="#fff"/>
          </g>
        </g>
        <g id="Group_552" data-name="Group 552" transform="translate(43.299 140.735)">
          <circle id="Ellipse_47" data-name="Ellipse 47" cx="8.414" cy="8.414" r="8.414" transform="translate(0 15.546) rotate(-67.5)" fill="#ffe6fc"/>
          <path id="Path_2286" data-name="Path 2286" d="M1577.786,1701.582c-2.3-1.539-4.271,1.43-4.271,1.43s-1.971-2.969-4.272-1.43c-2.631,1.761.526,6.506,4.272,9.528C1577.26,1708.088,1580.417,1703.343,1577.786,1701.582Z" transform="translate(-1562.521 -1694.421)" fill="#fe99b7"/>
        </g>
        <g id="Group_555" data-name="Group 555" transform="translate(0 116.353)">
          <path id="Path_2287" data-name="Path 2287" d="M1646.446,1708.142a3.283,3.283,0,0,0,1.833-1.192,1.758,1.758,0,0,0-.83-2.6c-2.865-1.081-2.22-3.795-5.484-3.434-1.034.114-1.526.942-2.58,1.138-2.351.438-4.061-1.171-5.313,1.632-.587,1.315-2.491,1.935-3.947,2.871-.818.525-1.909,3.58-.058,4.73,2.413,1.5-.309,4.732,2.589,4.632,2.5-.086.711,4.019,2.269,4.33s6.579-6.346,7.2-6.774S1646.446,1708.142,1646.446,1708.142Z" transform="translate(-1546.94 -1669.923)" fill="#ffcb5b"/>
          <path id="Path_2288" data-name="Path 2288" d="M1634.178,1721.992l-3.553,6.211,1.162,2.531,6.9.313,2.034-5.334s3.387.408,4.5-1.285,2.881-8.13,1.946-10.2c0,0-3.811-.084-4.4,1.318s-1.541,2.954-2.34,2.108c-.993-1.051-2.161,1.226-1.168,2.336s-2.073,4.117-3.27,3.5A7.365,7.365,0,0,1,1634.178,1721.992Z" transform="translate(-1547.658 -1676.008)" fill="#ffb691"/>
          <path id="Path_2289" data-name="Path 2289" d="M1645.816,1730.6a4.3,4.3,0,0,0,1.7,2.582l-.794,2.081S1644.787,1734.04,1645.816,1730.6Z" transform="translate(-1554.448 -1683.473)" fill="#eb9d76"/>
          <path id="Path_2290" data-name="Path 2290" d="M1714.561,1724.143s1.5-5.77,2.356-5.153,2.356,5.206.49,8.176l-2.293-.4Z" transform="translate(-1585.937 -1678.159)" fill="#ffb691"/>
          <g id="Group_554" data-name="Group 554" transform="translate(100.543 0)">
            <rect id="Rectangle_220" data-name="Rectangle 220" width="3.342" height="28.591" transform="translate(16.15 57.683) rotate(-134.439)" fill="#fe688e"/>
            <path id="Path_2291" data-name="Path 2291" d="M1684.361,1740.425l-15.114,14.817a3.706,3.706,0,0,1-5.25-.052,3.5,3.5,0,0,1-.641-.891,3.7,3.7,0,0,1,.692-4.359l15.114-14.817a3.7,3.7,0,0,1,3.745-.88v0a3.638,3.638,0,0,1,1.505.927A3.715,3.715,0,0,1,1684.361,1740.425Z" transform="translate(-1662.937 -1685.053)" fill="url(#linear-gradient-15)"/>
            <path id="Path_2292" data-name="Path 2292" d="M1682.211,1738.6l-15.109,14.817a2.5,2.5,0,1,1-3.052-3.479l15.114-14.817a3.7,3.7,0,0,1,3.745-.88v0A3.7,3.7,0,0,1,1682.211,1738.6Z" transform="translate(-1662.937 -1685.053)" fill="#fe99b7"/>
            <path id="Path_2293" data-name="Path 2293" d="M1705.544,1673.2a21.837,21.837,0,0,0,5.66,14.7,20.066,20.066,0,0,0,2.4,2.3,21.971,21.971,0,1,0-8.06-17Zm5.04,0a16.939,16.939,0,1,1,16.939,16.939A16.933,16.933,0,0,1,1710.584,1673.2Z" transform="translate(-1682.368 -1647.274)" fill="#fe99b7"/>
            <circle id="Ellipse_48" data-name="Ellipse 48" cx="19.048" cy="19.048" r="19.048" transform="matrix(0.873, -0.488, 0.488, 0.873, 19.229, 18.608)" fill="#c5e7e8"/>
            <path id="Path_2294" data-name="Path 2294" d="M1717.505,1679.33h0a1.3,1.3,0,0,1-1.3-1.305,16.2,16.2,0,0,1,16.18-16.144h.036a1.3,1.3,0,0,1,0,2.6h-.034a13.576,13.576,0,0,0-13.575,13.546A1.3,1.3,0,0,1,1717.505,1679.33Z" transform="translate(-1687.229 -1652.136)" fill="#fff" opacity="0.65"/>
            <g id="Group_553" data-name="Group 553" transform="translate(37.581 17.303)">
              <path id="Path_2295" data-name="Path 2295" d="M1747.163,1698.624l-15.136-.034.007-2.979a7.568,7.568,0,0,1,7.585-7.552h0a7.568,7.568,0,0,1,7.551,7.585Z" transform="translate(-1732.027 -1681.378)" fill="#96d0d2"/>
              <path id="Path_2296" data-name="Path 2296" d="M1746.6,1679.547a3.764,3.764,0,1,1-3.755-3.772A3.764,3.764,0,0,1,1746.6,1679.547Z" transform="translate(-1735.241 -1675.775)" fill="#96d0d2"/>
            </g>
          </g>
          <path id="Path_2297" data-name="Path 2297" d="M1624.413,1820.424s0,2.432-6.793,0-2.432-8.723-2.432-8.723l8.639,3.858Z" transform="translate(-1539.989 -1720.461)" fill="url(#linear-gradient-2)"/>
          <path id="Path_2298" data-name="Path 2298" d="M1598.512,1803.347s-7.284,6.532-7.272,13.619c.01,6.112-1.479,24.465.74,27.608s8.319,2.957,9.8,0,9.983-37.53,9.983-37.53Z" transform="translate(-1529.478 -1716.652)" fill="#002144"/>
          <path id="Path_2299" data-name="Path 2299" d="M1546.552,1882.161l2.465,5.053s30.547-9.088,31.943-12.059-2.709-8.832-10.64-5.874S1546.552,1882.161,1546.552,1882.161Z" transform="translate(-1509.317 -1746.351)" fill="#002144"/>
          <path id="Path_2300" data-name="Path 2300" d="M1570.827,1791.657s-.755.755-14.594,15.694c-4.749,5.126-11.257,11.459-12.921,14.144-.724,1.167-.752.941-.678,1.725.246,2.588-2.164,9.258,3.012,7.656s30.1-19.593,30.1-19.593l2.753-7.536Z" transform="translate(-1507.37 -1711.32)" fill="#002144"/>
          <path id="Path_2301" data-name="Path 2301" d="M1529.335,1847.213c.766.919,3.574,6.717-4.561,8.381s-21.26,4.438-21.26,4.438l-2.958-5.208s15.434-8.809,21.973-9.98C1526.958,1844.051,1528.494,1846.206,1529.335,1847.213Z" transform="translate(-1488.34 -1735.498)" fill="#002144"/>
          <path id="Path_2302" data-name="Path 2302" d="M1538.967,1892.926l3.922-1.1s1.536,3.842.723,5.75-2.986,6.761-3.864,8.8-2.882,4.945-4.445,4.922S1538.967,1892.926,1538.967,1892.926Z" transform="translate(-1504.054 -1757.001)" fill="#005f7b"/>
          <path id="Path_2303" data-name="Path 2303" d="M1493.4,1862.27l-4.975.944-5.822,18.092s3.481-1.357,4.837-4.192,7.7-8.319,7.888-9.058S1495.724,1863.325,1493.4,1862.27Z" transform="translate(-1480.152 -1743.523)" fill="#005f7b"/>
          <path id="Path_2304" data-name="Path 2304" d="M1658.147,1731.525s-8.386,11.033-13.807,13.643a12.468,12.468,0,0,1-1.671.688c-3.023.926-9.87,2.533-13.933,3.465a7.056,7.056,0,0,0-4.71,3.674c-1.8,3.529-4.71,9.286-5.824,11.842-1.091,2.506-3.808,9.323-5.549,13.711-.014.036-.031.073-.044.11-.889,2.241-1.51,3.821-1.51,3.821s-2.3-2.969-11.078-5.442a43.08,43.08,0,0,1-15.405-8.5s6.9-12.571,9.736-18.978,7.392-18.793,15.28-16.784,8.57,3.532,8.57,3.532,7.457.678,13.62,1.171a65.191,65.191,0,0,0,10.846,0l12.631-8.974Z" transform="translate(-1526.676 -1682.518)" fill="#005f7b"/>
          <path id="Path_2305" data-name="Path 2305" d="M1536.776,1893.973c2.048-.878,3.312,3.1,2.048,6.055s-2,8.6-3.574,10.538-3.883,2.958-4.437.739,1.386-6.563,2.681-9.983S1534.706,1894.86,1536.776,1893.973Z" transform="translate(-1502.095 -1757.925)" fill="#002144"/>
          <path id="Path_2306" data-name="Path 2306" d="M1487.726,1864.032c2.481,1.219,1.664,5.533-.74,7.937s-3.327,6.563-5.361,9.151-3.7-.369-3.513-4.252,3.235-5.916,5.084-9.428S1486.54,1863.449,1487.726,1864.032Z" transform="translate(-1478.098 -1744.231)" fill="#002144"/>
          <path id="Path_2307" data-name="Path 2307" d="M1667.845,1759.142a12.444,12.444,0,0,1-1.671.688c-3.023.926-9.87,2.533-13.933,3.465a7.056,7.056,0,0,0-4.71,3.674c-1.8,3.529-4.71,9.286-5.824,11.842-1.091,2.506-3.807,9.323-5.549,13.712,1.439-3.768.124-6.677.158-10.628.034-4,3.992-6.072,3.825-10.937s5.368-9.451,11.181-9.672A164.242,164.242,0,0,0,1667.845,1759.142Z" transform="translate(-1550.182 -1696.492)" fill="url(#linear-gradient-17)"/>
          <path id="Path_2308" data-name="Path 2308" d="M1551.184,1863.7l-.109-.317c10.519-3.6,30.592-11.1,31.271-13.75.459-1.792,4.138-30.555,4.175-30.846l.333.042c-.152,1.187-3.719,29.074-4.184,30.887C1581.778,1853.2,1552.433,1863.275,1551.184,1863.7Z" transform="translate(-1511.379 -1723.694)" fill="#fff"/>
          <path id="Path_2309" data-name="Path 2309" d="M1520.438,1852.175l-.1-.32c.176-.056,17.623-5.624,18.667-6.024.82-.314,13.389-10.023,19.92-15.113l.207.265c-.773.6-18.935,14.751-20.006,15.162C1538.07,1846.548,1521.158,1851.946,1520.438,1852.175Z" transform="translate(-1497.361 -1729.134)" fill="#fff"/>
          <path id="Path_2310" data-name="Path 2310" d="M1631.494,1736.285a65.22,65.22,0,0,1,7.6,3.277l.291-.814s-4.367-3.011-7.536-3.076-.07,0-.07,0Z" transform="translate(-1547.564 -1685.775)" fill="#fff"/>
        </g>
        <g id="Group_556" data-name="Group 556" transform="translate(152.809 177.707)">
          <rect id="Rectangle_221" data-name="Rectangle 221" width="22.195" height="10.889" rx="3.993" fill="#fe99b7"/>
          <path id="Path_2311" data-name="Path 2311" d="M1763.312,1774.7l-1.71,4.509,8.292-5.183Z" transform="translate(-1760.199 -1764.635)" fill="#fe99b7"/>
          <path id="Path_2312" data-name="Path 2312" d="M1780.273,1766.839h-15.03a.438.438,0,0,1-.438-.438h0a.438.438,0,0,1,.438-.438h15.03a.438.438,0,0,1,.438.438h0A.438.438,0,0,1,1780.273,1766.839Z" transform="translate(-1761.66 -1760.957)" fill="#fff"/>
          <rect id="Rectangle_222" data-name="Rectangle 222" width="10.242" height="0.876" rx="0.438" transform="translate(3.145 7.541)" fill="#fff"/>
          <path id="Path_2313" data-name="Path 2313" d="M1780.273,1762.208h-15.03a.438.438,0,0,1-.438-.438h0a.438.438,0,0,1,.438-.438h15.03a.438.438,0,0,1,.438.438h0A.438.438,0,0,1,1780.273,1762.208Z" transform="translate(-1761.66 -1758.844)" fill="#fff"/>
        </g>
      </g>
    </g>
  </g>
</svg>
